<svg xmlns="http://www.w3.org/2000/svg" preserveAspectRatio="xMinYMin" viewBox="0 0 38 38"><title>clock</title><g id="timer"><rect x="13.79" y="0.44" width="10.94" height="2.64" rx="1.22"/><rect x="26.57" y="5.66" width="8.49" height="2.64" rx="1.22" transform="translate(11.01 -17.64) rotate(38.43)"/><g id="timer-2" data-name="timer"><path id="detail" d="M17.9,5.25V3h2.73c0,.75,0,1.61,0,2.24a14.76,14.76,0,0,1,3.91.83,16.43,16.43,0,0,1,3.6,1.82c.27-.28,2.3,1.68,2.09,1.89,6.28,6.64,6,15.12,2,20.76a16.12,16.12,0,0,1-18.7,5.88c-7-2.54-11.15-9.18-10.56-16.88C3.48,12.18,8.81,6.47,17.9,5.25Z"/><path id="detail-2" data-name="detail" d="M18.87,37.56A16.3,16.3,0,1,1,19.08,5a16.5,16.5,0,0,1,16.45,16.4A16.47,16.47,0,0,1,18.87,37.56Z"/><path id="detail-3" data-name="detail" d="M18.9,34.81A13.55,13.55,0,1,1,32.55,21.35,13.5,13.5,0,0,1,18.9,34.81Z" fill="#fefefe"/><path id="detail-4" data-name="detail" d="M20.55,20c1.64,0,3.11,0,4.58,0,.95,0,1.69.31,1.68,1.34s-.69,1.28-1.61,1.27c-1.86,0-3.72,0-5.59,0A1.47,1.47,0,0,1,18,20.89c0-2.6,0-5.2,0-7.8,0-.91.33-1.59,1.29-1.6s1.32.69,1.31,1.59Z" fill="#010101"/></g><rect id="detail-5" data-name="detail" x="28.21" y="7.19" width="2.68" height="2.5" transform="translate(12.69 -17.25) rotate(40.78)"/></g></svg>