<svg xmlns="http://www.w3.org/2000/svg" preserveAspectRatio="xMinYMin" viewBox="0 0 38 38"><title>close-cross</title><g id="exit"><path id="detail-3" data-name="detail" d="M20.66,18.81,28.83,27c.43.43.88.85.64,1.56-.35,1-1.36,1.1-2.29.18-2.67-2.65-5.31-5.31-8.14-8.13-.95,1-1.87,2-2.81,2.91-1.72,1.73-3.45,3.44-5.17,5.17-.64.64-1.33,1.39-2.21.47s-.08-1.58.55-2.21l8-8c-2.71-2.69-5.34-5.31-8-7.92C8.8,10.35,8.24,9.66,9,8.85s1.51-.18,2.13.44c2.61,2.63,5.24,5.25,7.91,7.93,2.54-2.53,5-5,7.44-7.44L27.29,9c.58-.53,1.22-.68,1.79-.07a1.17,1.17,0,0,1-.13,1.8q-3.51,3.52-7,7C21.57,18.12,21.17,18.39,20.66,18.81Z" fill="#050300"/></g></svg>