<svg xmlns="http://www.w3.org/2000/svg" preserveAspectRatio="xMinYMin" viewBox="0 0 38 38"><title>download</title><g id="download"><g id="download-2" data-name="download"><path id="detail-3" data-name="detail" d="M17.69,26.37c0-7.33,0-14.57,0-21.8,0-.36,0-.73,0-1.08a1.07,1.07,0,0,1,1-1A1.09,1.09,0,0,1,20,3.31a4.7,4.7,0,0,1,.11,1.3V26.3c.49.08.72-.25,1-.43q5.37-3.63,10.71-7.27c.74-.5,1.52-1,2.18,0s-.09,1.53-.82,2c-4.36,3-8.74,5.9-13.08,8.89a1.9,1.9,0,0,1-2.48,0c-4.26-2.91-8.54-5.77-12.82-8.64-.77-.51-1.42-1.08-.77-2s1.37-.49,2.08,0q5.16,3.5,10.34,7A2.29,2.29,0,0,0,17.69,26.37Z" fill="#060400"/><path id="detail-4" data-name="detail" d="M18.94,35.55H6.72c-.86,0-1.7-.06-1.71-1.16s.86-1.25,1.76-1.25H31.2c.93,0,1.81.13,1.8,1.24s-1,1.18-1.85,1.17Z" fill="#020100"/></g></g></svg>