<svg xmlns="http://www.w3.org/2000/svg" preserveAspectRatio="xMinYMin" viewBox="0 0 38 38"><title>exit-symbol</title><g id="power_on"><path id="detail-3" data-name="detail" d="M5.11,18.47a14.71,14.71,0,0,1,8-12.86c.78-.44,1.61-.8,2.16.23s-.28,1.48-1,1.9a12.47,12.47,0,1,0,12.22.39,9.39,9.39,0,0,1-.92-.56,1.09,1.09,0,0,1-.33-1.49,1.06,1.06,0,0,1,1.52-.52,16.31,16.31,0,0,1,2,1.24,14.9,14.9,0,1,1-23.53,14C5.15,20.12,5.16,19.43,5.11,18.47Z" fill="#060400"/><path id="detail-4" data-name="detail" d="M18.83,13.66c0-2.59,0-5.19,0-7.78C18.81,5,19,4.27,20,4.24s1.28.74,1.28,1.64V21.45c0,.87-.17,1.68-1.23,1.69s-1.19-.83-1.18-1.7C18.84,18.85,18.83,16.26,18.83,13.66Z" fill="#070400"/></g></svg>