<svg xmlns="http://www.w3.org/2000/svg" preserveAspectRatio="xMinYMin" viewBox="0 0 58.13 58.53"><title>home_1</title><g id="previous"><g id="home"><path id="detail" d="M29,56.92H3.45c-2.16,0-2.78-.62-2.78-2.77,0-8,0-16,0-24a3.69,3.69,0,0,1,1.19-2.86Q14.49,15,27.06,2.62c1.36-1.33,2.35-1.36,3.69-.05Q43.56,15,56.38,27.48a3,3,0,0,1,1,2.32c0,8.2.06,16.39.09,24.59,0,1.81-.72,2.53-2.55,2.53ZM4.8,52.79h15v-1c0-3.4-.05-6.8-.08-10.19,0-.93.18-1.73,1.32-1.73H36.53a1.21,1.21,0,0,1,1.35,1.33c0,1,0,2.07,0,3.11v8.43H53.24V30.6H4.8ZM51.12,28.07,28.94,6.5,7,28.07ZM22.28,42.33V52.78H35.5V42.33Z" fill="#030202"/><path id="detail-2" data-name="detail" d="M4.8,52.79V30.6H53.24V52.76H37.91V44.33c0-1,0-2.07,0-3.11a1.21,1.21,0,0,0-1.35-1.33H21.06c-1.14,0-1.33.8-1.32,1.73,0,3.39.05,6.79.08,10.19v1Z" fill="#fdfdfd"/><path id="detail-3" data-name="detail" d="M51.12,28.07H7l22-21.57Z" fill="#fc9800"/><path id="detail-4" data-name="detail" d="M22.28,42.33H35.5V52.78H22.28Z" fill="#fc9800"/></g></g></svg>