<svg xmlns="http://www.w3.org/2000/svg" preserveAspectRatio="xMinYMin" viewBox="0 0 38 38"><title>info-letter</title><g id="information"><path id="detail-3" data-name="detail" d="M20.11,30.63c1.33,0,2.52,0,3.71,0,.84,0,1.47.31,1.49,1.19S24.72,33,23.87,33H14.15c-.84,0-1.45-.31-1.44-1.22s.65-1.19,1.47-1.19c1.12,0,2.24,0,3.44,0V16H14.18c-.82,0-1.47-.23-1.49-1.16s.67-1.26,1.53-1.25h3.36c2.4,0,2.53.13,2.53,2.48V30.63Z" fill="#040200"/><path id="detail-4" data-name="detail" d="M16.27,7.63A2.63,2.63,0,0,1,18.89,5a2.69,2.69,0,0,1,2.65,2.67A2.69,2.69,0,0,1,19,10.23,2.61,2.61,0,0,1,16.27,7.63Z" fill="#060400"/></g></svg>