<svg xmlns="http://www.w3.org/2000/svg" preserveAspectRatio="xMinYMin" viewBox="0 0 26.91 26.9"><title>mcq</title><g id="Layer_2" data-name="Layer 2"><g id="square_box_unchecked"><g id="square"><path id="detail" d="M13.45,0c2.2,0,4.39,0,6.59,0a6.78,6.78,0,0,1,6.85,6.84q0,6.6,0,13.19a6.76,6.76,0,0,1-6.84,6.84q-6.59,0-13.18,0A6.77,6.77,0,0,1,0,20.05q0-6.6,0-13.19A6.78,6.78,0,0,1,6.86,0C9.05,0,11.25,0,13.45,0Zm-.12,22.81h6.36c2,0,3.12-1,3.13-3.07q0-6.28,0-12.59a2.74,2.74,0,0,0-3-3.06q-6.36,0-12.71,0a2.76,2.76,0,0,0-3,3.07q0,6.3,0,12.59c0,2,1.08,3.06,3.13,3.07Z" fill="#020202"/></g></g></g></svg>