<svg xmlns="http://www.w3.org/2000/svg" preserveAspectRatio="xMinYMin" viewBox="0 0 38 38"><title>question-mark</title><g id="question_mark"><path d="M18.67,1.89a6.9,6.9,0,0,1,4.82,1.65,6.41,6.41,0,0,1,1.82,5,11.12,11.12,0,0,1-.58,3.78,14.8,14.8,0,0,1-1.4,2.94,27.19,27.19,0,0,1-1.75,2.44A16.32,16.32,0,0,0,20,20a4,4,0,0,0-.45,1.15,5.36,5.36,0,0,0-.12,1.1,7.35,7.35,0,0,0,.26,2q.27.88,0,1.17a1.08,1.08,0,0,1-.58.31,4.31,4.31,0,0,1-.93.15l-1,0a4,4,0,0,1-.95-.1,9.88,9.88,0,0,1-.38-.95,7.23,7.23,0,0,1-.24-1.08,7.87,7.87,0,0,1-.1-1.36,8.85,8.85,0,0,1,.17-1.67A5.68,5.68,0,0,1,16.37,19,22.69,22.69,0,0,1,18,16.4c.56-.79,1.08-1.53,1.56-2.25A13.35,13.35,0,0,0,20.7,12a6.56,6.56,0,0,0,.45-2.46,4.39,4.39,0,0,0-.33-1.82A3,3,0,0,0,20,6.55,3.26,3.26,0,0,0,18.71,6a6,6,0,0,0-1.48-.17,6.22,6.22,0,0,0-2.56.45A13.43,13.43,0,0,0,13.26,7a14.1,14.1,0,0,1-.4-1.45,7.43,7.43,0,0,1-.17-1.61,1,1,0,0,1,.55-.81,5.14,5.14,0,0,1,1.41-.64,13.19,13.19,0,0,1,1.91-.43A13.54,13.54,0,0,1,18.67,1.89Zm-3.35,31.5A2.88,2.88,0,0,1,16,31.45a2.43,2.43,0,0,1,2-.84,2.47,2.47,0,0,1,2.07.77,3.16,3.16,0,0,1,.6,2A2.79,2.79,0,0,1,20,35.32a2.52,2.52,0,0,1-2,.79,2.59,2.59,0,0,1-2.11-.72A3.11,3.11,0,0,1,15.32,33.39Z"/></g></svg>