<svg xmlns="http://www.w3.org/2000/svg" preserveAspectRatio="xMinYMin" viewBox="0 0 38 38"><title>reset-arrow</title><g id="reset"><path d="M8.41,12.2c1.61-.41,3-.74,4.3-1.11.85-.23,1.47,0,1.68.87s-.3,1.25-1.06,1.45c-2.36.6-4.7,1.25-7.07,1.83A1.18,1.18,0,0,1,4.63,14c-.16-2.28-.31-4.55-.47-6.82,0-.79.23-1.4,1-1.47s1.28.52,1.35,1.34c.07,1,.12,2,.2,3.25a15.09,15.09,0,0,1,6.65-5.13C19.23,3.11,24.59,4,29.09,8.26a14,14,0,0,1,3.84,15.59,14,14,0,0,1-12.47,9.93c-6.33.66-11.16-2-14.51-7.37-.17-.27-.3-.57-.44-.85-.36-.7-.36-1.38.37-1.78s1.38-.07,1.76.69a12.57,12.57,0,0,0,4.18,4.85A12.47,12.47,0,1,0,18.9,6.58C14.54,6.6,11.15,8.48,8.41,12.2Z"/></g></svg>