<svg xmlns="http://www.w3.org/2000/svg" preserveAspectRatio="xMinYMin" viewBox="0 0 36 36"><title>question-mark</title><g id="question"><path d="M17.5,1.91a9,9,0,0,1,2.37.32,5.27,5.27,0,0,1,2,1,5.17,5.17,0,0,1,1.4,2,7.92,7.92,0,0,1,.52,3,9.56,9.56,0,0,1-.61,3.51,17,17,0,0,1-1.44,2.82A26.22,26.22,0,0,1,20,17a14.32,14.32,0,0,0-1.48,2.11,5.46,5.46,0,0,0-.68,1.6,6.56,6.56,0,0,0-.17,1.46,6.21,6.21,0,0,0,.2,1.74c.13.46.15.74.06.83a1.17,1.17,0,0,1-1,.33A6.41,6.41,0,0,1,15.7,25a5.73,5.73,0,0,1-.26-.77,7.08,7.08,0,0,1-.23-2,9.56,9.56,0,0,1,.2-1.84,7,7,0,0,1,.83-2.07A18.59,18.59,0,0,1,17.77,16c.57-.73,1.11-1.48,1.6-2.23a13.37,13.37,0,0,0,1.26-2.36,6.9,6.9,0,0,0,.52-2.72,5.13,5.13,0,0,0-.43-2.3,3.27,3.27,0,0,0-1.08-1.3,3.57,3.57,0,0,0-1.41-.59,8.19,8.19,0,0,0-1.4-.13,7.32,7.32,0,0,0-2.54.4,6.29,6.29,0,0,0-1.78,1,5.25,5.25,0,0,1-.32-2c0-.21.15-.42.46-.63a4.87,4.87,0,0,1,1.19-.59,11,11,0,0,1,1.68-.45A10.57,10.57,0,0,1,17.5,1.91ZM15,32.06a2.15,2.15,0,0,1,.5-1.41A1.68,1.68,0,0,1,16.87,30a1.88,1.88,0,0,1,1.51.56,2.17,2.17,0,0,1,.47,1.46,2,2,0,0,1-.54,1.44,1.87,1.87,0,0,1-1.44.59,1.76,1.76,0,0,1-1.46-.54A2.38,2.38,0,0,1,15,32.06Z" fill="#fff"/></g></svg>