<svg xmlns="http://www.w3.org/2000/svg" preserveAspectRatio="xMinYMin" viewBox="0 0 35.56 33.42"><title>check-mark_1</title><g id="Layer_2" data-name="Layer 2"><g id="checkmark"><g id="checkmark-2" data-name="checkmark"><path id="detail" d="M12.17,25.66c.56-1.09,1.08-2.11,1.62-3.13A79,79,0,0,1,27.55,3.73,37.5,37.5,0,0,1,31.49.61a3.59,3.59,0,0,1,.88-.43,2.41,2.41,0,0,1,2.86.69c.56.8.43,1.73-.51,2.76-2.4,2.62-4.92,5.14-7.23,7.83A73.76,73.76,0,0,0,16,29.79,18.06,18.06,0,0,1,14.91,32c-1.14,1.84-3.05,1.89-4.33.12S8.09,28.48,6.8,26.69C4.88,24,2.89,21.4,1,18.71a5,5,0,0,1-1-2.28,2.05,2.05,0,0,1,3-2,4.24,4.24,0,0,1,1.5,1.23c2.38,3.06,4.72,6.16,7.07,9.25C11.78,25.11,11.94,25.35,12.17,25.66Z"/></g></g></g></svg>