<svg xmlns="http://www.w3.org/2000/svg" preserveAspectRatio="xMinYMin" viewBox="0 0 48 48"><title>clock</title><g id="timer"><path id="detail" d="M25.16.75c1.38,0,2.75,0,4.12,0s2.25.77,2.25,1.86-.82,1.77-2.15,1.87c-.68,0-1.37,0-2.06,0-.43,0-1.08-.06-.89.6s-.31,1.77.84,1.84a27.44,27.44,0,0,1,6.58,1.5A10.65,10.65,0,0,1,36.6,10c.95.64,1.34-.24,1.81-.65s-.17-.73-.41-1a1.77,1.77,0,1,1,2.34-2.65A32.07,32.07,0,0,1,44.74,10a1.57,1.57,0,0,1-.11,2.38,1.78,1.78,0,0,1-2.52-.06c-.4-.3-.66-1-1.37-.32s-.64.82-.09,1.44a20.11,20.11,0,0,1,5,15.45C44.84,38.94,35.92,47,25.8,47.25c-5.35.12-10.17-1-14.3-4.49A18.66,18.66,0,0,1,5.15,32.28a16.64,16.64,0,0,1-.81-5.21c.54-5.78,2.44-10.87,6.87-14.87A21.48,21.48,0,0,1,21.6,7.33a2.05,2.05,0,0,0,1.31-2.51c-.19-.39-.53-.29-.84-.31-.73,0-1.45-.06-2.17-.14a1.68,1.68,0,0,1-1.71-1.71c0-1.1.71-1.63,1.77-1.78C21.69.64,23.43.83,25.16.75Zm-.08,10.12c-11.24.27-16.2,8.35-16.18,16.22,0,8.93,8.44,16.82,17.16,16.48,9.16-.35,15.52-8.76,15.2-16.44C40.9,18.29,34.61,10.48,25.08,10.87Z" fill="#f5f5f5"/><path id="detail-2" data-name="detail" d="M22.76,23.09A28,28,0,0,1,23,17.3c.17-1.23.88-1.52,2-1.52s1.5.64,1.64,1.64a33,33,0,0,1,.19,6.88c0,.78.13,1.07,1,1.05,1.61,0,3.22,0,4.83.15,1.28.08,2,.82,1.94,1.85s-.8,1.62-2,1.64c-2.54,0-5.08.06-7.62,0-1.52,0-2.17-.8-2.15-2.28C22.77,25.51,22.76,24.3,22.76,23.09Z" fill="#f5f5f5"/></g></svg>