<svg id="Layer_1" data-name="Layer 1" xmlns="http://www.w3.org/2000/svg" viewBox="0 0 48 48"><title>close-cross</title><g id="exit"><path id="detail" d="M37.49,38.3a16.91,16.91,0,0,1-3.31-1.88c-2.84-2.56-5.58-5.25-8.31-7.94-.66-.64-1-.58-1.65,0-2.74,2.68-5.49,5.36-8.32,8a8.69,8.69,0,0,1-2.58,1.34,1.66,1.66,0,0,1-2.23-.58,1.9,1.9,0,0,1,.24-2.34c1.44-1.82,2.84-3.66,4.37-5.39s3-3.19,4.6-4.72c.7-.68.72-1.11,0-1.84q-3.93-4.2-7.7-8.54A11.54,11.54,0,0,1,11,11.62a1.58,1.58,0,0,1,.09-1.42,1.68,1.68,0,0,1,1.46-.45,11,11,0,0,1,3.11,1.71c2.84,2.45,5.61,5,8.33,7.58.8.75,1.25.86,2.11,0,2.71-2.59,5.5-5.11,8.33-7.58a9.16,9.16,0,0,1,2.75-1.65,2.11,2.11,0,0,1,1.82.32,1.75,1.75,0,0,1,0,1.69c-1.81,2.52-3.69,5-5.66,7.4A46.72,46.72,0,0,1,29.69,23c-.6.59-.57,1,0,1.57,2.08,2.1,4.16,4.2,6.14,6.4a30.26,30.26,0,0,1,3.08,4.12,2.67,2.67,0,0,1,.1,2C38.87,37.58,38.16,37.82,37.49,38.3Z"/></g></svg>