<svg xmlns="http://www.w3.org/2000/svg" preserveAspectRatio="xMinYMin" viewBox="0 0 48 48"><title>download</title><g id="download"><path id="detail" d="M27.59,29.57c2-1.92,4.09-3.8,6.11-5.73s4.09-4,6.15-6a3,3,0,0,1,1.42-.93c.62-.09,1.76.06,1.85.36A3.16,3.16,0,0,1,43,19.7a35.11,35.11,0,0,1-3.53,3.9q-5.52,5.61-11.07,11.16c-.68.68-1.37,1.36-2.1,2a2,2,0,0,1-2.89-.11q-7.56-7.73-15.07-15.5a5.31,5.31,0,0,1-1.19-1.55,4.89,4.89,0,0,1-.33-2.26c.09-.81,1.79-1,2.68-.36a20.42,20.42,0,0,1,2.08,1.87l11,10.94c.16.16.35.29.74.61,0-2.2,0-4.18,0-6.16,0-5.56-.08-11.11-.07-16.66a5.3,5.3,0,0,1,.46-2.31A2.21,2.21,0,0,1,25.2,4.12c.83,0,1.2.75,1.21,1.62q.12,10.25.26,20.47c0,1.31,0,2.61,0,3.92C26.8,30.24,27.35,29.8,27.59,29.57Z" fill="#fff"/><path id="detail-2" data-name="detail" d="M24.57,40.06h16A8.47,8.47,0,0,0,41.74,40c1.5-.23,2.43.35,2.57,1.61.1.95-.94,2-2.2,2-1.58.11-3.17.23-4.76.23q-13.25,0-26.49-.05c-1.1,0-2.21-.14-3.31-.22a2,2,0,0,1-1.86-1.74,2.08,2.08,0,0,1,2-1.85c5.62,0,11.24,0,16.86,0Z" fill="#fff"/></g></svg>