<svg xmlns="http://www.w3.org/2000/svg" preserveAspectRatio="xMinYMin" viewBox="0 0 48 48"><title>exit-symbol</title><g id="power_on"><path id="detail" d="M24.45,44.89a19,19,0,0,1-19-14c-2.44-9,1.1-18.22,8.82-22.78,1.59-.93,2.92-1,3.47-.07s-.43,2.8-1.6,3.56a11.48,11.48,0,0,0-2,1.5c-4.23,4.47-6.34,9.64-4.48,15.78a16.52,16.52,0,0,0,12.81,12c7.94,1.8,15.83-3.37,18-11.68,1.76-6.69-.65-12.06-5.56-16.55-.9-.83-1.81-1.67-2.65-2.57a1.88,1.88,0,0,1-.38-2.59A2.45,2.45,0,0,1,34.76,7,20.05,20.05,0,0,1,45,28.61C43,39.59,32.52,45.4,24.45,44.89Z" fill="#fff"/><path id="detail-2" data-name="detail" d="M22.4,15.65c.14-3.49.26-7.16.47-10.82C23,3.31,23.45,3,25,3.09A1.34,1.34,0,0,1,26.43,4.5c0,7,.07,14,0,21.06,0,1.59-.71,2.12-1.95,2.2s-1.61-.42-1.65-1.51C22.7,22.78,22.55,19.31,22.4,15.65Z" fill="#fff"/></g></svg>