<svg xmlns="http://www.w3.org/2000/svg" preserveAspectRatio="xMinYMin" viewBox="0 0 58.13 58.53"><title>home</title><g id="home"><g id="home-2" data-name="home"><path id="detail" d="M28.43,57.81q-12.46,0-24.94,0c-2.15,0-2.62-.36-2.83-2.53C.35,52.13,0,49,0,45.84c-.1-5.56,0-11.11.09-16.67a4.74,4.74,0,0,1,1.24-2.76c2.3-2.59,4.63-5.2,7.18-7.55C14.89,13,21.43,7.19,27.9,1.35a1.78,1.78,0,0,1,2.48-.27,48.92,48.92,0,0,1,5.15,4.09C42.32,11.89,49,18.72,55.76,25.48a7.66,7.66,0,0,1,2.44,5.85c-.1,7.79,0,15.59-.07,23.38,0,2-.72,2.81-2.72,2.86C46.42,57.76,28.43,57.89,28.43,57.81Zm-9.14-3.76c0-4,0-7.86,0-11.69,0-1.83.65-2.6,2.47-2.6,4.44,0,8.87,0,13.31.16a7.51,7.51,0,0,1,2.77.93,1.39,1.39,0,0,1,.62,1c0,3.67,0,7.34,0,11,0,.84.24,1.19,1.16,1.19,4.76,0,9.52.11,14.27.17a3.41,3.41,0,0,0,.62-.09V31.1H4.11V54.05ZM30,4.37,4.9,27.42c1.47,0,2.73.06,4,0a2.54,2.54,0,0,0,1.47-.6C15.29,22,20.23,17.25,25.1,12.41c2.11-2.1,4.06-4.37,6.12-6.61ZM23.87,54c0-.55,0-1,0-1.42,0-1.67,0-3.35.05-5,.05-1.2.57-1.61,1.61-1.6,3.32,0,6.65,0,10,0V43.4H22.39V54Z"/><path id="detail-2" data-name="detail" d="M19.29,54.05H4.11V31.1h50.4V54.17a3.41,3.41,0,0,1-.62.09c-4.75-.06-9.51-.15-14.27-.17-.92,0-1.17-.35-1.16-1.19,0-3.67,0-7.34,0-11a1.39,1.39,0,0,0-.62-1,7.51,7.51,0,0,0-2.77-.93c-4.44-.14-8.87-.14-13.31-.16-1.82,0-2.48.77-2.47,2.6C19.3,46.19,19.29,50,19.29,54.05Z" fill="#fff"/><path id="detail-3" data-name="detail" d="M30,4.37,31.22,5.8c-2.06,2.24-4,4.51-6.12,6.61C20.23,17.25,15.29,22,10.35,26.79a2.54,2.54,0,0,1-1.47.6c-1.25.09-2.51,0-4,0Z" fill="#fff"/><path id="detail-4" data-name="detail" d="M23.87,54H22.39V43.4H35.56V46c-3.37,0-6.7,0-10,0-1,0-1.56.4-1.61,1.6-.06,1.68,0,3.36-.05,5C23.87,53,23.87,53.44,23.87,54Z" fill="#fff"/></g></g></svg>