<svg xmlns="http://www.w3.org/2000/svg" preserveAspectRatio="xMinYMin" viewBox="0 0 48 48"><title>info-letter</title><g id="information"><path id="detail" d="M26.23,18.54c1.89.37,2.44,2,1.33,3.59a2.19,2.19,0,0,0-.42,1.22c0,4.61.12,9.21.15,13.82,0,.58.21.77.73.72a9.33,9.33,0,0,1,4.56.9A2.17,2.17,0,0,1,34,41.08a2.12,2.12,0,0,1-2.17,1.53c-1.25,0-2.49.22-3.74.23-2.93,0-5.86,0-8.79,0a2.47,2.47,0,0,1-2.75-2.35c0-1.44,1-2.43,2.71-2.49q1.5-.06,3-.06c.49,0,.67-.2.67-.7q.06-6.66.15-13.33c0-.6-.28-.7-.77-.69-1.19,0-2.38,0-3.57,0A2.54,2.54,0,0,1,16,20.71a2.48,2.48,0,0,1,2.63-2.5c1,0,1.93,0,2.9,0A27,27,0,0,1,26.23,18.54Z" fill="#fff"/><path id="detail-2" data-name="detail" d="M26.86,9.43c0,1.72-2.06,3.54-4.05,3.53-1.62,0-3.46-2.38-3.48-4.5s1.16-3.24,3.75-3.3C25.23,5.11,26.69,7.43,26.86,9.43Z" fill="#fff"/></g></svg>