<svg xmlns="http://www.w3.org/2000/svg" preserveAspectRatio="xMinYMin" viewBox="0 0 48 48"><title>left-arrow</title><g id="previous"><path id="detail" d="M15.31,23.31c3.14,3.46,6.24,6.8,9.24,10.22,2.14,2.42,4.16,4.95,6.2,7.46a5.94,5.94,0,0,1,.81,1.46,1.6,1.6,0,0,1-.32,2.07,1.49,1.49,0,0,1-2.08,0,30.43,30.43,0,0,1-3.37-3c-4.9-5.37-9.74-10.8-14.6-16.21L11,25.06c-1.62-1.95-1.7-2.18.07-4q8.07-8.21,16.23-16.32a8.08,8.08,0,0,1,2.05-1.42,1.84,1.84,0,0,1,2.32.35,1.69,1.69,0,0,1,.14,2.22A23.58,23.58,0,0,1,29.2,9.43c-4.41,4.46-8.89,8.85-13.34,13.27C15.7,22.86,15.55,23,15.31,23.31Z" fill="#fff"/></g></svg>