<svg xmlns="http://www.w3.org/2000/svg" preserveAspectRatio="xMinYMin" viewBox="0 0 33.18 32.46"><title>mcq</title><g id="Layer_2" data-name="Layer 2"><g id="square_box_unchecked"><g id="square_box"><path id="detail" d="M16.42,32.46c-4.48,0-9,0-13.43,0C.57,32.43-.27,31.3.08,28.92a22.88,22.88,0,0,0,0-3.1Q.1,14.9.1,4A7.61,7.61,0,0,1,.39,2.23,2.27,2.27,0,0,1,2.72.37Q13.57.18,24.41,0c1.76,0,3.52.05,5.28.11s2.79.62,3.11,2.37a32.24,32.24,0,0,1,.38,5.81c0,6.68-.19,13.35-.27,20,0,1.25-.11,2.42-1.22,3.2a3.28,3.28,0,0,1-1.6.71C25.53,32.29,16.42,32.39,16.42,32.46ZM4.27,4.79V8.7c0,5.83,0,11.67-.06,17.5,0,.73,0,1.17,1,1.18q11.33,0,22.66.18c.78,0,1-.25,1-1q0-10.12.14-20.26c0-1.07-.29-1.43-1.43-1.42C21.29,4.94,15,5,8.66,5,7.24,5,5.81,4.86,4.27,4.79Z"/></g></g></g></svg>