<svg xmlns="http://www.w3.org/2000/svg" preserveAspectRatio="xMinYMin" viewBox="0 0 58.13 58.53"><title>menu</title><g
		id="menu-svg"
	><g id="menu-svg-2" data-name="menu"><path
				id="detail"
				d="M6.18,50.67a3.49,3.49,0,0,1-1.55-3.76,3.62,3.62,0,0,1,3.19-2.86,15.37,15.37,0,0,1,2.63-.19l38,0c2.15,0,4,.46,4.84,2.74a7.26,7.26,0,0,1-.1,2.45,3.9,3.9,0,0,1-3,2.4L9.11,51.32A10.19,10.19,0,0,1,6.18,50.67Z"
				fill="#020202"
			/><path
				id="detail-2"
				data-name="detail"
				d="M46.36,14.75c-12,0-23.93,0-35.9-.05a15.37,15.37,0,0,1-2.88-.15A3.76,3.76,0,0,1,4.51,11a3.71,3.71,0,0,1,3-3.6,15.51,15.51,0,0,1,3.12-.24l37.83,0c2.15,0,4,.45,4.85,2.73.06.15.17.53.28.92S53.33,14.75,46.36,14.75Z"
				fill="#020202"
			/><path
				id="detail-3"
				data-name="detail"
				d="M53.2,31.12c-1.76,2-4.21,2-6.84,2-12-.09-23.93,0-35.9,0a15.37,15.37,0,0,1-2.88-.16,3.75,3.75,0,0,1-3.07-3.55,3.69,3.69,0,0,1,3-3.59,15.52,15.52,0,0,1,3.12-.25l37.83,0c2.15,0,4,.45,4.85,2.74C53.44,28.55,53.72,30.53,53.2,31.12Z"
				fill="#020202"
			/></g></g></svg>
