<svg xmlns="http://www.w3.org/2000/svg" preserveAspectRatio="xMinYMin" viewBox="0 0 48 48"><title>plus-sign</title><g id="plus"><path id="detail" d="M22.31,21.32c.19-4.08.34-8.06.6-12a12.91,12.91,0,0,1,.8-3.58,2,2,0,0,1,1.48-1.09c.45,0,1.16.72,1.28,1.24a42.81,42.81,0,0,1,1,6c.23,2.63.31,5.28.29,7.91,0,1.39.51,1.64,1.77,1.68,4.14.15,8.28.42,12.42.68a3.93,3.93,0,0,1,1.46.37c1.28.62,1.52,2.09.32,2.81a8.74,8.74,0,0,1-3.71,1.24c-3.63.25-7.28.29-10.93.31-1.1,0-1.29.45-1.3,1.4,0,3.71-.07,7.42-.23,11.12a6.22,6.22,0,0,1-.81,2.83c-.38.6-1.39,1.35-1.9,1.21a2.69,2.69,0,0,1-1.57-1.82,66.52,66.52,0,0,1-.8-7.18c-.14-2-.15-4-.11-6.07,0-1.1-.38-1.42-1.47-1.46q-5.55-.16-11.09-.56a11.83,11.83,0,0,1-3.26-.77C5.19,25,5,23.7,6.36,23a9.34,9.34,0,0,1,3.52-1C14,21.73,18.05,21.56,22.31,21.32Z" fill="#fff"/></g></svg>