<svg xmlns="http://www.w3.org/2000/svg" preserveAspectRatio="xMinYMin" viewBox="0 0 22.4 47.67"><title>question-mark</title><g id="Layer_2" data-name="Layer 2"><g id="question_mark"><path d="M17,9.94a3.75,3.75,0,0,0-1.79-3,6,6,0,0,0-3.6-1.33,7.24,7.24,0,0,0-3.36.8A5.62,5.62,0,0,0,6,8.33c-1.31,1.87-2.31,2.8-3,2.8-2,0-3-1-3-2.94Q0,5.54,3.71,2.76A12.82,12.82,0,0,1,11.48,0a10.61,10.61,0,0,1,9.1,4.69A9.1,9.1,0,0,1,22.4,9.94a13.32,13.32,0,0,1-3.78,8.89c-1.07,1.21-2.15,2.36-3.22,3.43q-3.86,3.85-3.85,5.11a5.38,5.38,0,0,0,1,2.8,5.48,5.48,0,0,1,.91,2.1,2.94,2.94,0,0,1-.35,1.26,2.74,2.74,0,0,1-2.42,1.26c-1.05,0-2.11-.71-3.18-2.14a7.66,7.66,0,0,1-1.61-4.72,11.87,11.87,0,0,1,3.43-8.26,33.8,33.8,0,0,1,3-2.94Q17,12.32,17,9.94Zm-9.45,34a3.4,3.4,0,0,1,3.57-3.32,3.68,3.68,0,0,1,2.41.63c.5.42.74,1.33.74,2.73q0,3.7-3.36,3.71a3,3,0,0,1-2.31-1.26A3.92,3.92,0,0,1,7.56,43.92Z"/></g></g></svg>