<svg xmlns="http://www.w3.org/2000/svg" preserveAspectRatio="xMinYMin" viewBox="0 0 48 48"><title>reset-arrow</title><g id="reset"><path id="detail" d="M11.22,16.51c2.69,0,5.15,0,7.62,0,1.14,0,1.93.2,2,1.63s-.29,2-1.82,2.15a68.94,68.94,0,0,1-12.19.13c-1.47-.09-2.16-.65-2.14-2.15,0-4,0-8,0-12,0-1.32.8-1.48,1.88-1.5s1.79.35,1.77,1.61c0,1.93,0,3.87,0,5.87.87-.12,1-.69,1.36-1A21.69,21.69,0,0,1,33.41,5.67C40,8.38,44,13.31,45.06,20.35c1.12,7.54-.92,14.08-7.11,18.91-9.37,7.32-23.14,5.62-29.61-3.62C7.2,34,6,32.33,6,30.2c0-.74-.35-1.72.43-2.13a2.94,2.94,0,0,1,2.88.14,5.11,5.11,0,0,1,2.48,3.3,5.3,5.3,0,0,0,1.08,2.19A16.19,16.19,0,0,0,30,39.36c5.9-1.79,10.56-7.76,11.13-14.24.63-7.17-5.33-14.83-13-16.7A14.91,14.91,0,0,0,11.22,16.51Z" fill="#f7f7f7"/></g></svg>