<svg xmlns="http://www.w3.org/2000/svg" preserveAspectRatio="xMinYMin" viewBox="0 0 48 48"><title>right-arrow</title><g id="next"><path id="detail" d="M32.5,23.26c-2.65-2.59-5.29-5.08-7.84-7.66-2.33-2.36-4.6-4.79-6.83-7.24A10.92,10.92,0,0,1,16,5.58a2.06,2.06,0,0,1,.18-1.85,2.27,2.27,0,0,1,1.89-.56A4.93,4.93,0,0,1,20.3,4.46c5.45,5.39,10.89,10.81,16.25,16.29,2,2,2.34,1.89-.12,4.67q-7,7.89-14.1,15.7A31.31,31.31,0,0,1,19.42,44c-.79.67-1.72,1.38-2.77.47s-.51-2,.05-2.82a47.12,47.12,0,0,1,3.67-4.88c3.85-4.33,7.79-8.58,11.69-12.87A6,6,0,0,0,32.5,23.26Z" fill="#fff"/></g></svg>