<svg xmlns="http://www.w3.org/2000/svg" preserveAspectRatio="xMinYMin" viewBox="0 0 31.56 31.66"><title>scq</title><g id="Layer_2" data-name="Layer 2"><g id="circle_box_unchecked"><g id="circle_box_unchecked-2" data-name="circle_box_unchecked"><path id="detail" d="M.12,15.23C-1.12,8.12,7.32,0,14.78,0c5,0,9.22,1.71,12.35,5.73a29.26,29.26,0,0,1,2.26,3.38c.59,1,1.31,2,1.1,3.4-.13.82.44,1.75.72,2.63a8.49,8.49,0,0,1-.05,4.94c-1.25,4.59-4.37,7.64-8.19,10.08a11.38,11.38,0,0,1-7.4,1.42,7.19,7.19,0,0,0-1.79-.06c-4,.62-7.21-1-9.72-4A17.26,17.26,0,0,1,.13,16.93C.1,16.33.12,15.73.12,15.23ZM15.8,4.54a10.5,10.5,0,0,0-5.65,1.34A10.74,10.74,0,0,0,4.81,17.22c.74,4.94,3.37,10,9.2,10.94,4,.67,8.93-.86,11.33-4.38C28,20,28.05,16.14,26.54,12,24.64,6.86,21.31,4.56,15.8,4.54Z"/></g></g></g></svg>