<?xml version="1.0" encoding="utf-8"?>
<!-- Generator: Adobe Illustrator 21.0.2, SVG Export Plug-In . SVG Version: 6.00 Build 0)  -->
<svg version="1.1" id="Layer_1" xmlns="http://www.w3.org/2000/svg" xmlns:xlink="http://www.w3.org/1999/xlink" x="0px" y="0px"
	 viewBox="0 0 53.8 59.7" style="enable-background:new 0 0 53.8 59.7;" xml:space="preserve">
<style type="text/css">
	.st0{fill:#000;}
</style>
<title>Artboard 15</title>
<path class="st0" d="M26.9,54.1c-11.9,0-21.5-9.6-21.5-21.5s9.6-21.5,21.5-21.5s21.5,9.6,21.5,21.5C48.4,44.5,38.8,54.1,26.9,54.1
	 M1.5,32.7c0,14,11.4,25.4,25.4,25.5s25.4-11.4,25.5-25.4c0-6.7-2.7-13.2-7.4-18l2-2l0.9,0.9c0.7,0.9,1.9,1,2.8,0.3
	c0.9-0.7,1-1.9,0.3-2.8c-0.1-0.1-0.2-0.2-0.3-0.3L46,6.2c-0.6-0.9-1.9-1.1-2.8-0.5c-0.9,0.6-1.1,1.9-0.5,2.8C42.9,8.7,43,8.9,43.2,9
	l0.9,0.9l-2.2,2.2c-3.8-2.8-8.3-4.5-13-4.8V5.6h4.4c1.1,0,2-0.9,2-2s-0.9-2-2-2H20.2c-1.1,0-2,0.9-2,2s0.9,2,2,2h4.7v1.7
	C11.7,8.4,1.5,19.4,1.5,32.7"/>
<path class="st0" d="M35.4,30.3h-6.5V20c0-1.1-0.9-2-2-2s-2,0.9-2,2v12.3c0,1.1,0.9,2,2,2h8.5c1.1,0,2-0.9,2-2
	C37.4,31.2,36.5,30.3,35.4,30.3"/>
</svg>
