<svg id="d2820661-87ee-4109-848c-27a575855de7" data-name="Layer 1" xmlns="http://www.w3.org/2000/svg" viewBox="0 0 1280 720"><title>Artboard 1</title><line x1="640" y1="-60" x2="640" y2="780" fill="none" stroke="#000" stroke-miterlimit="10" stroke-width="2"/><line x1="768" y1="-60" x2="768" y2="780" fill="none" stroke="#000" stroke-miterlimit="10" stroke-width="2"/><line x1="896" y1="-60" x2="896" y2="780" fill="none" stroke="#000" stroke-miterlimit="10" stroke-width="2"/><line x1="1024" y1="-60" x2="1024" y2="780" fill="none" stroke="#000" stroke-miterlimit="10" stroke-width="2"/><line x1="1152" y1="-60" x2="1152" y2="780" fill="none" stroke="#000" stroke-miterlimit="10" stroke-width="2"/><line x1="128" y1="-60" x2="128" y2="780" fill="none" stroke="#000" stroke-miterlimit="10" stroke-width="2"/><line x1="256" y1="-60" x2="256" y2="780" fill="none" stroke="#000" stroke-miterlimit="10" stroke-width="2"/><line x1="384" y1="-60" x2="384" y2="780" fill="none" stroke="#000" stroke-miterlimit="10" stroke-width="2"/><line x1="512" y1="-60" x2="512" y2="780" fill="none" stroke="#000" stroke-miterlimit="10" stroke-width="2"/><line x1="1372" y1="288" x2="-92" y2="288" fill="none" stroke="#000" stroke-miterlimit="10" stroke-width="2"/><line x1="1372" y1="216" x2="-92" y2="216" fill="none" stroke="#000" stroke-miterlimit="10" stroke-width="2"/><line x1="1372" y1="144" x2="-92" y2="144" fill="none" stroke="#000" stroke-miterlimit="10" stroke-width="2"/><line x1="1372" y1="72" x2="-92" y2="72" fill="none" stroke="#000" stroke-miterlimit="10" stroke-width="2"/><line x1="1372" y1="360" x2="-92" y2="360" fill="none" stroke="#000" stroke-miterlimit="10" stroke-width="2"/><line x1="1372" y1="648" x2="-92" y2="648" fill="none" stroke="#000" stroke-miterlimit="10" stroke-width="2"/><line x1="1372" y1="576" x2="-92" y2="576" fill="none" stroke="#000" stroke-miterlimit="10" stroke-width="2"/><line x1="1372" y1="504" x2="-92" y2="504" fill="none" stroke="#000" stroke-miterlimit="10" stroke-width="2"/><line x1="1372" y1="432" x2="-92" y2="432" fill="none" stroke="#000" stroke-miterlimit="10" stroke-width="2"/></svg>