<svg xmlns="http://www.w3.org/2000/svg" viewBox="0 0 512.43 64.78"><title>logo_1</title><g id="Layer_2" data-name="Layer 2"><g id="Layer_1-2" data-name="Layer 1"><path d="M270,46.66a2.7,2.7,0,0,1,1.27.33,2.41,2.41,0,0,1,.95.95,2.58,2.58,0,0,1,.35,1.29,2.64,2.64,0,0,1-.34,1.29,2.41,2.41,0,0,1-1,.95,2.58,2.58,0,0,1-2.56,0,2.39,2.39,0,0,1-.94-.95,2.63,2.63,0,0,1,0-2.58,2.35,2.35,0,0,1,1-.95,2.63,2.63,0,0,1,1.26-.33m0,.5a2.05,2.05,0,0,0-1,.27,2,2,0,0,0-.76.76,2.09,2.09,0,0,0-.28,1,2.05,2.05,0,0,0,.27,1A1.82,1.82,0,0,0,269,51a1.93,1.93,0,0,0,2,0,1.82,1.82,0,0,0,.76-.77,2,2,0,0,0,.28-1,2.09,2.09,0,0,0-.28-1,2.08,2.08,0,0,0-1.78-1Zm-1.19,3.45V47.88h1.43a1,1,0,0,1,.42.11.65.65,0,0,1,.26.26.79.79,0,0,1-.09.89.85.85,0,0,1-.54.27l.19.1a1.68,1.68,0,0,1,.18.21c.07.11.14.22.2.33l.32.55h-.68l-.23-.44a2,2,0,0,0-.38-.57.73.73,0,0,0-.38-.11h-.14V50.6Zm.56-1.55h.22a2,2,0,0,0,.59,0,.31.31,0,0,0,.19-.13.37.37,0,0,0,.06-.21.36.36,0,0,0-.06-.2.5.5,0,0,0-.19-.13,2.91,2.91,0,0,0-.59,0h-.22Z"/><path d="M22,20.73a7.9,7.9,0,0,1-1.65,4.08,14.45,14.45,0,0,0-6.6-1.37c-2.45,0-3.6.77-3.58,2.06,0,.74.31,1.48,2.25,3.37l5.71,5.65c3.09,3.1,3.87,5,3.9,8.44.05,6.1-5,9.8-12.79,9.85-4.9,0-9-.88-9-3.18a10.45,10.45,0,0,1,1.34-5A15.69,15.69,0,0,0,8.3,46.07c2.91,0,3.89-1.18,3.88-2.66a5.13,5.13,0,0,0-1.71-4l-6.73-6.8C1.19,30.05,0,27.42,0,25.18,0,20.23,3.08,17,11.2,17,21.2,16.9,22,19.06,22,20.75"/><path d="M30.77,1.22c3.14,0,4.07,1.26,4.1,4.92S33.31,12,30.32,12c-2.52,0-4.15-1.19-4.18-5.46,0-3.12,1.41-5.3,4.63-5.32m4.46,49c0,1.35-.06,1.35-8.72,1.41l-.25-30.56c0-3.32,1.66-3.33,8.7-3.38Z"/><path d="M40.84,18.88a29.58,29.58,0,0,1,11.78-2.32,9.89,9.89,0,0,1,6.22,1.72,21.84,21.84,0,0,1,7.87-1.82c9.12-.06,10,2.91,10.06,12L77,50c0,1.35.39,1.35-8.57,1.41l-.19-23c0-3.86-.43-5.21-2.57-5.2a3.72,3.72,0,0,0-2.52,1L63.31,50c0,1.36.39,1.36-8.57,1.42l-.19-23c0-3.52,0-5.36-2.19-5.34a4.7,4.7,0,0,0-2.9,1l.21,26c0,1.36.17,1.36-8.57,1.42l-.26-32.66"/><path d="M82.17,19a25.05,25.05,0,0,1,11.32-2.79c7.27,0,12.36,3,12.44,14.07.16,18.16-5.48,22-9.85,22A8.14,8.14,0,0,1,91,50.91l.11,13.22a18.14,18.14,0,0,1-5.13.64c-3.06,0-3.45-.65-3.47-3.3L82.17,19M91,44.27a2,2,0,0,0,2.15,1.2c1.61,0,3.29-1.78,3.18-14.66-.06-7.19-1-8.06-3.36-8a3.35,3.35,0,0,0-2.14,1Z"/><path d="M119.65,49.65c0,1.35,0,1.35-8.56,1.41L110.7,4.57c0-3.32,1.59-3.33,8.55-3.38l.4,48.46"/><path d="M147.74,27.28a38,38,0,0,1-1,9.63A95.87,95.87,0,0,1,133.42,38c.27,5.48,1.2,6.49,4.19,6.47a21.52,21.52,0,0,0,9-2,27.53,27.53,0,0,1,.74,6.7c0,1.09-4.88,2.61-10.85,2.66-7,0-11.89-2.42-12-16.25-.14-16.94,6.12-19.63,13.32-19.68,6.13,0,9.84,3.45,9.9,11.31M133.36,32a18.32,18.32,0,0,0,5.66-.65,12.61,12.61,0,0,0,.35-3.52c0-4.34-.73-5.36-2.64-5.34-2.36,0-3.17,3.31-3.35,9.55Z"/><path d="M174.29,19.19a8.07,8.07,0,0,1-1.72,4.14,14.77,14.77,0,0,0-6.73-1.45c-2.5,0-3.67.75-3.67,2.06,0,.76.31,1.52,2.26,3.46l5.75,5.81c3.12,3.18,3.9,5.18,3.89,8.63,0,6.21-5.17,9.93-13.12,9.92-5,0-9.13-1-9.13-3.33a10.52,10.52,0,0,1,1.42-5.1,16,16,0,0,0,6.8,1.55c3,0,4-1.16,4-2.68a5.23,5.23,0,0,0-1.71-4.08l-6.78-7c-2.57-2.63-3.74-5.32-3.73-7.6,0-5,3.22-8.28,11.49-8.26,10.14,0,11,2.22,11,4"/><path d="M178.61,3.39C178.61,0,180.18,0,187.36,0V17.69a12,12,0,0,1,7.42-2.4c6,0,7.18,1.88,7.16,13.61V49.4c0,1.38.46,1.38-9.06,1.37V30.27c0-6.08-.14-7.87-2.09-7.88a6.42,6.42,0,0,0-3.43.83l-.06,26.16c0,1.38,0,1.38-8.73,1.36l.08-47.35"/><path d="M232.84,17.77c-.22-1.45.55-1.45,9.68-1.43L244,26c1.31,8.63,1.61,14.36,1.61,14.36s.48-2.55,1.35-7.94l2.28-13.86c.24-1.31.47-1.56,2.81-1.55h5l2.62,15.41c.85,4.76,1.15,7.95,1.15,7.95s.4-5.8,1.75-14.35l1.28-8.14c.23-1.52.23-1.52,9.2-1.5,0,0-7.32,34.5-7.86,34.49a30.21,30.21,0,0,1-5.7.34A4.33,4.33,0,0,1,255,47.75L254,43.2a67.9,67.9,0,0,1-1.23-8.29,69.75,69.75,0,0,1-1.1,8.28l-1.7,7.69s-3.67.34-6.79.34c-2.11,0-3.12-1.53-3.58-3.39-2.17-8.22-6.74-30-6.74-30"/><path d="M219.09,15.33c-8.28,0-13,5.64-13,18.13,0,6.78.73,11.19,2.28,14,.13-.27.26-.54.4-.81s.29-.58.43-.88l.2-.45a9.69,9.69,0,0,0,.6-2.12,3.35,3.35,0,0,1,.08-.54,23.34,23.34,0,0,0,.08-3.24,17.86,17.86,0,0,1,.66-3.69,3,3,0,0,1,.08-.45,7.87,7.87,0,0,0,0-2v-.46a4.59,4.59,0,0,0-.06-.91v-.44A20.82,20.82,0,0,0,211,29v-.5c.13-1.09,0-2.33.95-3a.77.77,0,0,1,1.18.51,8.31,8.31,0,0,1-.11,2.68v.47a18.09,18.09,0,0,0,0,2.33,1.06,1.06,0,0,0,.16.43.73.73,0,0,0,.26.29c.26.16.43.11.54-.08a.8.8,0,0,0,.08-.16,4.87,4.87,0,0,0,.23-1.32v-.26c.14-.94.4-1.86.48-2.82,0-.08,0-.17.05-.26,0-.25.1-.49.14-.74s0-.19.07-.29l.06-.28a3.57,3.57,0,0,1,.1-.57c.19-.87-.05-1.77.45-2.57a1.07,1.07,0,0,1,1.48-.31l0,0a1.84,1.84,0,0,1,.25.23,1.91,1.91,0,0,1,.16.27,2.29,2.29,0,0,1,0,1.27,1.94,1.94,0,0,1-.07.33,3,3,0,0,1-.08.32l-.09.44a3.58,3.58,0,0,1-.08.43l-.09.43a1.57,1.57,0,0,1-.05.48,22.37,22.37,0,0,1-.47,3V30a7.71,7.71,0,0,0,0,1.92c0,.19.3.15.35.09a6.85,6.85,0,0,0,.57-1.78.43.43,0,0,1,.07-.28c.21-.92.36-1.87.65-2.78a1.46,1.46,0,0,1,.15-.49c.06-.16.08-.32.13-.48l.09-.22a1.73,1.73,0,0,1,.11-.37l.12-.36c.49-1.14.25-2.6,1.25-3.46a.92.92,0,0,1,.32-.1,1.43,1.43,0,0,1,1.25.65,1,1,0,0,1,.11.27.66.66,0,0,1,0,.28c-.16.71-.45,1.35-.57,2.07l-.06.23a12.32,12.32,0,0,0-.39,1.9,1.72,1.72,0,0,0-.07.21c-.08.39-.18.78-.28,1.18l-.06.24c-.12.42-.25.89-.35,1.29a.81.81,0,0,1-.08.25c-.14.4-.3.8-.41,1.21a2.21,2.21,0,0,0-.05.25,1.1,1.1,0,0,0,.19.75c.09.08.2.06.34,0s.12-.14.19-.22a2.84,2.84,0,0,0,.54-.79c0-.1.09-.2.13-.3.38-1.05.79-2.1,1.16-3.15a.94.94,0,0,1,.13-.32c.27-.63.53-1.27.77-1.92.06-.18.13-.36.2-.54.23-.59.54-1.14,1-1.26a.81.81,0,0,1,.38,0,1.18,1.18,0,0,1,1,1.37.36.36,0,0,1,0,.1,9.49,9.49,0,0,1-.75,2.07l-.12.3a22.88,22.88,0,0,1-1.2,3,.71.71,0,0,1-.13.28c-.33.77-.67,1.53-.93,2.32a1.09,1.09,0,0,1-.14.38c-.14.38-.26.77-.37,1.17a1.25,1.25,0,0,1-.08.32,9.62,9.62,0,0,0-.19,1.31l-.06.36-.18,1.1a1.91,1.91,0,0,0,.06.33.73.73,0,0,0,.17.28c1,0,2.8-1.66,2.93-1.77a3.79,3.79,0,0,1,3.48-1,2.47,2.47,0,0,1,1,.75c-.48,1-1.65,1.39-2.42,2-.28.22-.52.5-.81.7a8.29,8.29,0,0,0-1.47,1.1c-.42.45-.73,1-1.25,1.51A12.44,12.44,0,0,1,221,43.32a5.39,5.39,0,0,1-.52.3c-.91.46-1.67.93-2.61,1.41a7.73,7.73,0,0,0-2.07,2.08c-.38.66-1.4,3-2.05,4.47a18.73,18.73,0,0,0,4.6.48c8.43,0,12.81-5.5,12.84-18.82,0-14-3.79-17.89-12.14-17.9" fill-rule="evenodd"/><path d="M290.09,15.29a7.55,7.55,0,0,0-2,.34,2.25,2.25,0,0,0-1.21,1,4.68,4.68,0,0,0-.5,1.67l-7.22,33.13h3.5a9.77,9.77,0,0,0,1.87-.24,2,2,0,0,0,1.21-.66,4.13,4.13,0,0,0,.43-1.14l7.41-34.23H293c-1.2,0-2.15.09-2.91.11" fill="#f8982c"/><path d="M293.92,0a4,4,0,0,0-3.13,1.33,7.5,7.5,0,0,0-1.64,3.27,5.92,5.92,0,0,0,0,3.68,2.34,2.34,0,0,0,2.25,1.15,4,4,0,0,0,3.1-1.36,7.7,7.7,0,0,0,1.68-3.58,5.35,5.35,0,0,0,.09-3.4C295.92.37,295.12,0,293.89,0" fill="#f8982c"/><path d="M311,14.7a24.07,24.07,0,0,0-3.06.2c-1,.14-2.12.31-3.17.52s-2.06.47-3.07.78-1.84.6-2.62.88l-.27.1-7.48,34.3H295a8.76,8.76,0,0,0,1.84-.25,1.82,1.82,0,0,0,1.15-.65,2.83,2.83,0,0,0,.36-.9l6.14-28.12c1.17-.34,1.61-.61,2.49-.79,3.22-.65,5.13-.24,5.53.87a9.27,9.27,0,0,1-.2,4.53l-5.53,25.34h3.69a10.29,10.29,0,0,0,1.91-.24,1.83,1.83,0,0,0,1.1-.66,2.83,2.83,0,0,0,.31-.9l5.5-25.21c.77-3.51.56-6-.66-7.55s-3.77-2.26-7.62-2.27" fill="#f8982c"/><path d="M337,2.58s-2.05,0-2.76.07a8,8,0,0,0-1.82.25,3.73,3.73,0,0,0-2.53,2.43l-2.16,9.86h-2.56a2.24,2.24,0,0,0-1.07.33,2.3,2.3,0,0,0-.8,1,13,13,0,0,0-.43,1.6c-.17.66-.31,1.53-.55,2.61l-.1.47h4.41l-4.35,19.93a29.56,29.56,0,0,0-.6,4.38,10.12,10.12,0,0,0,.34,3.42,4,4,0,0,0,1.78,2.28,7.16,7.16,0,0,0,3.69.79,15.09,15.09,0,0,0,2.23-.14,9.1,9.1,0,0,0,2.18-.51,5.88,5.88,0,0,0,1.84-1,3.32,3.32,0,0,0,1.09-1.86,7.33,7.33,0,0,0,.2-1.62V45.08l-.52.25a11,11,0,0,1-2.08.76,6.86,6.86,0,0,1-1.91.24,1.83,1.83,0,0,1-1.27-.41,2,2,0,0,1-.53-1,5.23,5.23,0,0,1-.09-1.48,17.85,17.85,0,0,1,.29-2.3l4.35-19.93h6.11A1.58,1.58,0,0,0,341,20.1a13.27,13.27,0,0,0,.52-1.54c.16-.64.39-1.52.64-2.65l.12-.48-7.91-.1L337,2.6" fill="#f8982c"/><path d="M356.57,14.82a18.86,18.86,0,0,0-4.9.67,11.43,11.43,0,0,0-4.83,2.89,22.48,22.48,0,0,0-4.29,6.2,47,47,0,0,0-3.44,10.65,33.83,33.83,0,0,0-1,8.44,10.82,10.82,0,0,0,1.31,5.17,5.81,5.81,0,0,0,3.24,2.56,15,15,0,0,0,4.57.66,25.53,25.53,0,0,0,3.91-.28,17.93,17.93,0,0,0,3.4-.82,9.45,9.45,0,0,0,2.55-1.3,3.18,3.18,0,0,0,1.32-1.83c.14-.66.25-1.33.33-2a7.44,7.44,0,0,0,0-2l-.07-.44-.47.22A24,24,0,0,1,354,45.14a15.79,15.79,0,0,1-4.22.57,7.61,7.61,0,0,1-2.63-.4A2.66,2.66,0,0,1,345.67,44a6.41,6.41,0,0,1-.58-2.73,20.39,20.39,0,0,1,.39-4.12h2.65c1.2,0,2.5-.07,3.87-.16s2.78-.21,4.19-.34,2.79-.32,4.08-.56h.28l.12-.26a36,36,0,0,0,1.57-4.4c.48-1.65.89-3.26,1.23-4.79,1.69-7.75-.64-11.69-6.92-11.71m-3.88,6.26a4.64,4.64,0,0,1,2-.48c1.36,0,2.17.46,2.47,1.37a12,12,0,0,1-.25,5.17c-.14.65-.32,1.34-.52,2.08a16.63,16.63,0,0,1-.62,1.8c-.58.15-1.23.23-1.94.34-2.39.36-7.07.5-7.07.5a34.54,34.54,0,0,1,1.79-5.31,17.5,17.5,0,0,1,2.1-3.63,6.87,6.87,0,0,1,2.06-1.92Z" fill="#f8982c"/><path d="M505,14.82a18.86,18.86,0,0,0-4.9.67,11.44,11.44,0,0,0-4.86,2.89,22.24,22.24,0,0,0-4.28,6.2,46.52,46.52,0,0,0-3.45,10.65,33.83,33.83,0,0,0-1,8.44,10.82,10.82,0,0,0,1.31,5.17,5.81,5.81,0,0,0,3.24,2.56,15,15,0,0,0,4.57.66,25.53,25.53,0,0,0,3.91-.28A17.2,17.2,0,0,0,503,51a9.45,9.45,0,0,0,2.55-1.3,3.14,3.14,0,0,0,1.31-1.78c.14-.66.25-1.33.33-2a7.44,7.44,0,0,0,0-2l-.07-.44-.47.22a24,24,0,0,1-4.17,1.53,15.79,15.79,0,0,1-4.22.57,7.61,7.61,0,0,1-2.63-.4A2.79,2.79,0,0,1,494.1,44a6.41,6.41,0,0,1-.58-2.73,20.39,20.39,0,0,1,.39-4.12h2.65c1.2,0,2.5-.07,3.88-.16s2.77-.21,4.18-.34,2.79-.32,4.08-.56H509l.12-.26a36,36,0,0,0,1.57-4.4c.48-1.65.89-3.26,1.23-4.79C513.59,18.91,511.26,15,505,15m-3.88,6.26a4.64,4.64,0,0,1,2-.48c1.36,0,2.17.46,2.47,1.37a12,12,0,0,1-.25,5.17c-.14.65-.32,1.34-.52,2.08a16.63,16.63,0,0,1-.62,1.8c-.58.15-1.23.23-1.94.34-2.39.36-7.07.5-7.07.5A34.54,34.54,0,0,1,497,26.68a17.5,17.5,0,0,1,2.1-3.63,6.81,6.81,0,0,1,2.1-2Z" fill="#f8982c"/><path d="M384.84,15.74c-.71-.57-2-.85-3.89-.85a17.54,17.54,0,0,0-5.47.88,28.63,28.63,0,0,0-5.33,2.31l-.37.12-7.3,33.47h4.09a8.57,8.57,0,0,0,1.88-.24,1.61,1.61,0,0,0,1.09-.66,2.55,2.55,0,0,0,.32-.86l6-27.36a7.91,7.91,0,0,1,2.19-1,6.87,6.87,0,0,1,5.47.44l.36.21.26-.42a10.55,10.55,0,0,0,1-2,14.11,14.11,0,0,0,.49-1.56,2.34,2.34,0,0,0-.78-2.51" fill="#f8982c"/><path d="M398.69,14.94a28.78,28.78,0,0,0-6.55.58,9.07,9.07,0,0,0-3.06.94,3.51,3.51,0,0,0-1,1.1,4,4,0,0,0-.42,1.06,5.86,5.86,0,0,0-.15,1.56,8,8,0,0,0,.38,1.94l.12.31.36-.13a16.77,16.77,0,0,1,2.87-.65,23.05,23.05,0,0,1,4.62-.37,5,5,0,0,1,3.1.77,3,3,0,0,1,.56,3l-1,4.83c-.72-.2-1.45-.37-2.19-.5a26.16,26.16,0,0,0-2.8-.19,17.52,17.52,0,0,0-3.75.42,9.27,9.27,0,0,0-3.63,1.78,12.88,12.88,0,0,0-3,3.65,20.75,20.75,0,0,0-2.17,6,15.85,15.85,0,0,0-.4,5.86,6.13,6.13,0,0,0,1.66,3.43,5.84,5.84,0,0,0,3.15,1.5,23.88,23.88,0,0,0,3.78.29,22.57,22.57,0,0,0,6.28-.77,33.6,33.6,0,0,0,5.08-1.78l.21-.11.06-.21c.38-1.3,3.14-13.63,3.57-15.61l2.13-9.77c.72-3.28.27-5.63-.92-7s-3.61-2-6.79-2m-9.69,31.45a1.86,1.86,0,0,1-1.09-.75,3.23,3.23,0,0,1-.46-1.69,11.66,11.66,0,0,1,.34-3A14.48,14.48,0,0,1,389,37.32a6.93,6.93,0,0,1,1.48-2,4,4,0,0,1,1.67-.89,9,9,0,0,1,2-.23,14.26,14.26,0,0,1,1.85.14,9,9,0,0,1,1.45.36l-.6,2.75c-.24,1.07-1.6,7.2-1.75,7.73a11.29,11.29,0,0,1-2.07,1,8,8,0,0,1-4.06.21Z" fill="#f8982c"/><path d="M420.6,23A5.91,5.91,0,0,1,423,21.26a7.18,7.18,0,0,1,4.6-.16,7.9,7.9,0,0,1,1.93.84l.37.25.27-.45a11.19,11.19,0,0,0,.92-1.83,10.36,10.36,0,0,0,.47-1.46,2.34,2.34,0,0,0-1.36-2.65,6.69,6.69,0,0,0-3.72-.79,19.84,19.84,0,0,0-4.73.6,12,12,0,0,0-4.93,2.69,20.64,20.64,0,0,0-4.4,5.89A40.74,40.74,0,0,0,409,34.36a47.24,47.24,0,0,0-1.26,9,12.24,12.24,0,0,0,.94,5.48,5.09,5.09,0,0,0,2.94,2.69,13.87,13.87,0,0,0,4.52.66,15.14,15.14,0,0,0,6.2-1.11c1.79-.79,3.41-2.19,3.8-3.54a5.65,5.65,0,0,0,.17-1.48c0-.48,0-1.06-.06-1.71l-.09-.6-.48.36a17.43,17.43,0,0,1-3.31,1.74,10,10,0,0,1-3.17.49,5.29,5.29,0,0,1-2.53-.53A3,3,0,0,1,415.31,44a10.05,10.05,0,0,1-.34-3.66,40.67,40.67,0,0,1,.93-6A40.42,40.42,0,0,1,418.14,27a15.73,15.73,0,0,1,2.46-4.06" fill="#f8982c"/><path d="M447.84,3H448c-1.2,0-2.18.1-3,.12a9.64,9.64,0,0,0-1.93.26,3.25,3.25,0,0,0-1.55.8,4.09,4.09,0,0,0-.83,1.48L438.4,16h-2.64a2.65,2.65,0,0,0-1,.19,1.37,1.37,0,0,0-.8.8,8.7,8.7,0,0,0-.5,1.49c-.17.66-.38,1.47-.62,2.55l-.1.44h4.41l-4.31,20a37.37,37.37,0,0,0-.5,4.35,8.7,8.7,0,0,0,.34,3.44,4.05,4.05,0,0,0,1.8,2.28,7.16,7.16,0,0,0,3.69.79,15.23,15.23,0,0,0,2.24-.14,9.7,9.7,0,0,0,2.18-.5,5.88,5.88,0,0,0,1.84-1,3.24,3.24,0,0,0,1.09-1.85,7.33,7.33,0,0,0,.2-1.62V45.4l-.52.25a11,11,0,0,1-2.08.76,8.09,8.09,0,0,1-2.08.23,1.48,1.48,0,0,1-1.14-.35,1.83,1.83,0,0,1-.42-1,4.75,4.75,0,0,1-.17-1.64c.12-.67,0-1.38.16-2.12l4.37-20h6.25a1.58,1.58,0,0,0,1.62-1.16,13.17,13.17,0,0,0,.45-1.55c.16-.63.33-1.32.57-2.45l.08-.32h-7.67L447.84,3" fill="#f8982c"/><path d="M460.18,16a7.48,7.48,0,0,0-2,.21,2.1,2.1,0,0,0-1.17.94,4.66,4.66,0,0,0-.45,1.63l-7.23,33.09h3.42a8.42,8.42,0,0,0,1.87-.25,2.06,2.06,0,0,0,1.26-.65,3.22,3.22,0,0,0,.47-.9l7.41-34s-2.82-.16-3.58-.14" fill="#f8982c"/><path d="M464,.46a4,4,0,0,0-3.13,1.33,7.56,7.56,0,0,0-1.64,3.27,5.92,5.92,0,0,0,0,3.68,2.34,2.34,0,0,0,2.25,1.15,4,4,0,0,0,3.1-1.36A7.74,7.74,0,0,0,466.27,5a5.49,5.49,0,0,0,.09-3.4C466,.83,465.21.47,464,.46" fill="#f8982c"/><path d="M486.37,16.08c-.82,0-1.42,0-1.86.05a1.79,1.79,0,0,0-1.14.51,2.93,2.93,0,0,0-.44.84l-4.09,9.85c-.79,1.87-1.57,3.85-2.33,5.9s-1.45,4-2.07,5.75c-.42,1.18-.84,2.38-1.25,3.57q.13-1.74.27-3.51c.15-1.75.29-3.7.41-5.79s.16-4.35.18-6.17l.13-11.83h-.34a33.78,33.78,0,0,0-5.67.6,1.79,1.79,0,0,0-1.18,1,3.23,3.23,0,0,0-.18,1.23l.67,30.29a7.53,7.53,0,0,0,.45,2.58,1.69,1.69,0,0,0,1.7,1.19h2a15,15,0,0,0,2.21-.26l.24.12,16.19-35.79s-3.1-.17-3.89-.15" fill="#f8982c"/></g></g></svg>