<?xml version="1.0" encoding="UTF-8"?>
<svg xmlns="http://www.w3.org/2000/svg" version="1.1" viewBox="0 0 342.6 499">
  <defs>
    <style>
      .cls-1 {
        fill-rule: evenodd;
      }

      .cls-2 {
        fill: #fff;
      }
    </style>
  </defs>
  <!-- Generator: Adobe Illustrator 28.6.0, SVG Export Plug-In . SVG Version: 1.2.0 Build 709)  -->
  <g>
    <g id="Layer_1">
      <path class="cls-2" d="M177.1,0c-10,0-19.5.6-28.7,1.8C53.5,14.1.3,91.6,0,246.4c-.2,83.7,8.2,140.7,25.5,179.1,1.7,3.9,3.6,7.5,5.5,11,18,27.7,42.7,45.9,73.7,56,4,1,8.1,1.9,12.4,2.6,15.3,2.7,32,3.9,50.4,3.9,18.7,0,35.8-1.9,51.6-6,31.5-8.1,57.2-24.8,76.7-51,6.2-8.3,11.7-17.4,16.7-27.6,19.8-40.7,29.9-97,30-171.2C342.9,53.7,290.9.2,177.1,0Z"/>
    </g>
    <g id="Layer_2">
      <path class="cls-1" d="M177.1,0C64.3-.2.3,76.6,0,246.4c-.2,92.1,9.9,151.9,31,190.1l5.5-11c2-4,4-7.9,5.8-11.9,1-2,1.9-4,2.8-6.1,3.8-9.3,6.6-18.9,8.2-28.8.4-2.5.8-4.9,1.1-7.4,1.7-14.4,1.4-28.9,1.2-44,.5-17.2,5-33.3,8.9-50.1.5-2.1.9-4.1,1.2-6.1,1.3-9.1,1.5-18.3.7-27.5-.2-2.1-.3-4.2-.5-6.3-.4-4.1-.7-8.2-.8-12.2v-6.1c1.4-11.2,1.3-22.5,1.4-33.9,0-2.3,0-4.6.1-6.8,1.8-14.7.6-31.7,13-40.9,6-5.1,14.2.3,16.1,6.9,3.3,12.3-1,24.6-1.5,36.4-.2,2.1-.2,4.2-.3,6.3-.4,10.6-.2,21.2.6,31.7.4,2,1.2,4,2.2,5.8.8,1.6,2.1,3,3.6,4,3.6,2.2,5.8,1.4,7.4-1,.4-.7.7-1.4,1-2.2,2-5.9,2.7-11.9,3.2-17.9,0-1.2.2-2.4.3-3.6,1.8-12.7,5.4-25.3,6.4-38.3.2-1.1.5-2.3.7-3.4.7-3.4,1.4-6.8,1.9-10.1.3-1.3.6-2.6.9-3.9s.6-2.6.8-3.9c.5-2.6,1-5.1,1.4-7.7,2.6-11.8-.7-24.1,6.1-34.9,5-6.9,13.8-8.9,20.7-3.9,1.3.9,2.4,1.9,3.4,3.1.9,1.1,1.6,2.3,2.2,3.6,2.4,5.3,1.3,11.8.5,17.3-.3,1.5-.6,3-1,4.5s-.7,2.9-1.1,4.3c-.4,2-.8,4-1.2,5.9-.4,2-.8,3.9-1.2,5.9s-.7,3.9-1.1,5.8c-.2,2.2-.5,4.4-.8,6.6-.1,13.4-4.4,26.7-6.4,40-.2,1.2-.4,2.4-.5,3.6-.7,6.9-1.4,18.9.2,26.1.5,2.6,4.2,2,4.8,1.2,4.7-8.5,5.3-14.8,7.9-24.1.3-1.2.6-2.5.9-3.8,2.9-12.6,5-25.5,8.9-37.8.6-2.2,1.2-4.5,2-6.6s1.2-4.3,1.8-6.5c.4-1,.9-2,1.2-3,.6-1.7,1.1-3.3,1.6-5s1-3.3,1.5-4.9c6.8-15.5,3.4-35.3,17.1-47.1,1.4-.8,2.9-1.2,4.5-1.3,6.3-.6,13.6,3.3,17,8.8.6,1.1,1.1,2.4,1.4,3.6.3,1.3.4,2.6.4,3.8-2.1,9.7-6.1,18.4-7.8,28.1-.3,1.1-.6,2.1-.9,3.2-2.4,8.4-4.2,17-5.3,25.7-.3,1-.6,2-.9,2.9-1.1,5.2-2.4,10.5-3.9,15.9-.3,1.1-.6,2.2-.9,3.2-1.6,5.8-3.4,12.1-4.7,17.6-.4,1.1-.7,2.2-1.1,3.3-1.9,5.5-4,11-5.6,16.4-.3,1.1-.5,2.2-.7,3.4-.5,3.6.4,7.3,2.5,10.3,1.2,1.1,2.8.8,4.8-.1.8-1,1.6-2,2.4-3,3.1-3.2,5.6-6.8,7.4-10.8.6-1.3,1.2-2.7,1.8-4,5.1-14.3,10.7-28.5,15.8-42.8.6-1.5,1.2-2.9,1.8-4.3,3.6-8.6,7.2-17.3,10.5-26.1.8-2.4,1.7-4.9,2.7-7.3,3.2-8.1,7.4-15.4,13.8-17.2,1.7-.5,3.5-.5,5.2-.2,9.3.9,14.7,10.8,12.8,20.1-1.8,10-6.3,18.9-10.2,28.1-.6,1.3-1.1,2.6-1.6,4-5.1,13.6-9.2,28.2-16.4,41.1-.6,1.3-1.1,2.6-1.7,3.9-4.6,10.4-9.1,20.8-12.7,31.6-.6,1.7-1.3,3.4-2,5.2-1.9,5.2-3.6,10.5-5,15.8-.4,1.5-.7,2.9-1.1,4.3-1.3,5.8-2.2,11.8-2.7,17.8-.3,1.7-.6,3.3-.8,5-.8,5-1.6,9.9-2.4,14.9,0,1.5.4,3,.9,4.5.5,1.4,1.3,2.7,2.3,3.9,13.5,0,38.2-22.6,39.9-24.1,11.2-9,29.8-19.5,47.5-13,4.8,1.8,11.5,6.5,13.9,10.1-6.6,13.9-22.5,19-33,27.1-3.9,3-7.1,6.8-11.1,9.5-7.5,5.1-14.1,8.7-19.9,14.8s-10.1,14.1-17.1,20.6c-7.7,7.2-18.3,13.3-27.9,19.2-2.3,1.4-4.7,2.7-7.1,4-12.3,6.2-22.7,12.6-35.6,19.1-12.5,6.3-27.1,26.4-28.2,28.2-5.1,8.9-19.1,40.3-28,60.8,18.4,4.6,39.3,6.5,62.8,6.5,114.9.2,174.6-74.8,175-255.8C342.9,53.7,290.9.2,177.1,0Z"/>
    </g>
  </g>
</svg>