<?xml version="1.0" encoding="utf-8"?>
<!-- Generator: Adobe Illustrator 24.1.0, SVG Export Plug-In . SVG Version: 6.00 Build 0)  -->
<svg version="1.1" id="Layer_1" xmlns="http://www.w3.org/2000/svg" xmlns:xlink="http://www.w3.org/1999/xlink" x="0px" y="0px"
	 viewBox="0 0 32 32" style="enable-background:new 0 0 32 32;" xml:space="preserve">
<style type="text/css">
	.st0{fill:#B0C164;}
</style>
<g id="Layer_2_1_">
	<g id="Layer_1-2">
		<path class="st0" d="M5.5,9.2l4.1-1c0.8-0.2,1.6-0.1,1.8,0.8s-0.4,1.3-1.2,1.5c-2.2,0.6-4.5,1.2-6.7,1.7c-1.3,0.3-1.8-0.1-1.9-1.4
			C1.5,8.7,1.3,6.5,1.2,4.4c0-0.8,0.2-1.5,1.1-1.6s1.3,0.6,1.3,1.5s0.1,1.9,0.2,3L4.9,6c5.5-6.1,14.9-6.6,21-1.1s6.6,14.9,1.1,21
			S12.1,32.5,6,27c-1.2-1.1-2.3-2.4-3.1-3.9c-0.1-0.2-0.3-0.5-0.4-0.7c-0.3-0.5-0.2-1.3,0.4-1.6H3c0.5-0.3,1.2-0.2,1.6,0.4
			c0,0.1,0.1,0.2,0.1,0.2c0.9,1.8,2.2,3.4,3.8,4.6c5.5,4.2,13.3,3.1,17.5-2.4S29,10.3,23.5,6.1C18,1.9,10.2,3,6,8.5
			C5.9,8.6,5.8,8.8,5.5,9.2z"/>
		<path class="st0" d="M8.5,23.1c0-0.1,0.3-0.2,0.8-0.3c0.6-0.1,1.2-0.1,1.9-0.1l0.2-8.3c-0.4,0-0.8,0.1-1.1,0.1l-1,0.2
			c-0.2-0.3-0.2-0.7-0.2-1c0-0.1,0.2-0.2,0.7-0.3s1-0.3,1.6-0.4c0.4-0.1,0.8-0.2,1.2-0.2c0.2,0,0.3,0,0.4,0.1l-0.2,9.8h1.4h0.7
			c0.1,0,0.3,0,0.4,0c0,0.4,0,0.8-0.1,1.2c0,0.2-0.1,0.3-0.2,0.3H8.5C8.5,23.8,8.5,23.4,8.5,23.1z"/>
		<path class="st0" d="M17.2,22.9c-0.6-1.4-0.8-2.9-0.7-4.4c-0.1-1.5,0.2-3,0.8-4.3c0.5-0.9,1.5-1.5,2.6-1.4c1-0.1,2,0.4,2.5,1.3
			c0.6,1.2,0.9,2.6,0.8,4c0.1,1.6-0.2,3.2-0.8,4.7c-0.5,1-1.6,1.6-2.7,1.5C18.7,24.4,17.7,23.9,17.2,22.9z M21.2,21.8
			c0.3-1.2,0.5-2.4,0.5-3.7c0-1-0.1-2-0.4-3c-0.2-0.6-0.7-1-1.3-1c-0.7,0-1.3,0.5-1.5,1.1c-0.3,1.1-0.5,2.2-0.4,3.4
			c0,0.9,0,1.7,0.1,2.5c0.1,0.5,0.2,1,0.5,1.3c0.3,0.3,0.6,0.4,1,0.4C20.4,23,21,22.5,21.2,21.8z"/>
	</g>
</g>
</svg>
