<?xml version="1.0" encoding="UTF-8"?><svg id="Layer_2" xmlns="http://www.w3.org/2000/svg" viewBox="0 0 198.202 338.855"><defs><style>.cls-1{fill:none;stroke:#cdcdcd;stroke-linecap:round;stroke-miterlimit:10;stroke-width:3px;}.cls-2{fill:#003672;}.cls-3{fill:#001c3b;}.cls-4{fill:#020202;}.cls-5{fill:#fff;}.cls-6{fill:#919191;}.cls-7{fill:#65666a;}.cls-8{fill:#c9c9c9;}.cls-9{fill:#e0b87e;}.cls-10{fill:#444;}.cls-11{fill:#a2a2a2;}.cls-12{fill:#535353;}.cls-13{fill:#2b2b2b;}.cls-14{fill:#383838;}.cls-15{fill:#7b7b7b;}</style></defs><g id="i6N"><g id="i6N-image"><g id="Forma_1_Image"><line class="cls-1" x1="1.5" y1="317.149" x2="196.702" y2="317.149"/></g><g id="Thinking_Image"><g><path class="cls-14" d="m142.753,127.333v4.316c-.071,0-.142.007-.213.02.008-1.461.016-2.922.024-4.383.07-.014.133.002.188.047Z"/><path class="cls-6" d="m52.558,117.501c.097.016.193.033.29.049-.004.931-.008,1.861-.011,2.792-.093.012-.185.024-.278.036,0-.959,0-1.918,0-2.878Z"/><path class="cls-6" d="m96.577.334c-.04-.111-.08-.222-.121-.334.88,0,1.759,0,2.639,0-.002.089-.003.179-.005.268-.838.022-1.675.043-2.513.065Z"/><path class="cls-11" d="m99.089.268c.002-.089.003-.179.005-.268C99.414,0,99.734,0,100.054,0c.009.135.019.27.028.405-.353.115-.675,0-.993-.137Z"/><path class="cls-8" d="m142.753,134.047c-.089-.003-.178-.007-.267-.01.019-.469.038-.938.057-1.406.069-.016.14-.023.211-.022v1.439Z"/><path class="cls-6" d="m142.753,127.333c-.055-.046-.118-.061-.188-.047-.01-.387-.02-.774-.03-1.161l.109.01h.109v1.198Z"/><path class="cls-7" d="m142.753,132.608c-.071-.001-.141.006-.211.022,0-.321-.001-.641-.002-.961.07-.013.141-.019.213-.02v.959Z"/><path class="cls-8" d="m142.753,126.134h-.109s-.109-.009-.109-.009c-.011-.236-.022-.471-.033-.707.084-.001.167-.003.251-.004v.719Z"/><path class="cls-4" d="m142.502,125.418c.011.236.022.471.033.707.01.387.02.774.03,1.161-.008,1.461-.016,2.922-.024,4.383,0,.321.001.641.002.962-.019.469-.038.938-.057,1.406-.547,5.002-1.106,10.003-1.637,15.007-.624,5.879-1.226,11.76-1.831,17.641-.376,3.655-.761,7.309-1.102,10.967-.144,1.548-.41,2.019-2.006,2.099-1.128.056-1.322.608-1.517,1.506-.661,3.037-.295,6.09.122,9.066.66,4.706-1.055,8.808-2.725,12.936-.803,1.984-2.823,2.755-4.653,3.545-.803.347-1.027.757-.974,1.584.55,8.532,1.073,17.066,1.593,25.6.775,12.722,1.53,25.445,2.314,38.166.59,9.57,1.213,19.139,1.815,28.709.073,1.156.11,2.315.143,3.473.015.532.075.887.782.898.747.012,1.058.556,1.117,1.3.262,3.305.541,6.608.842,9.909.063.684-.143,1.26-.725,1.508-.869.371-.64.843-.413,1.503,1.839,5.34,2.821,10.879,3.733,16.432.126.768-.264,1.24-.949,1.445-6.497,1.948-12.961,2.283-19.338-.487-1.119-.486-1.302-1.081-.707-2.181,2.38-4.399,2.686-9.219,2.907-14.063.023-.497-.165-.685-.631-.803-.926-.235-1.267-.873-1.386-1.836-.402-3.25-.911-6.486-1.385-9.727-.127-.864-.238-1.686.873-2.041.565-.181.171-.619.106-.905-1.058-4.669-2.137-9.334-3.215-13.999-3.305-14.303-6.613-28.606-9.919-42.909-1.912-8.275-3.83-16.548-5.73-24.826-1.339-5.833-2.652-11.673-3.976-17.509.036-.254.115-.674-.185-.643-.408.042-.219.434-.125.703.047,13.145.112,26.291.138,39.436.039,19.899.052,39.797.065,59.696,0,.718-.057,1.294.984,1.282.608-.007.865.568.905,1.211.21,3.389.452,6.776.672,10.164.026.395.146.982-.057,1.159-1.036.903-.286,1.613.08,2.446,1.17,2.667,1.294,5.493,1.102,8.347-.142,2.115-.55,4.194-.889,6.283-.171,1.054-.62,1.667-1.799,1.873-2.322.405-4.598.472-6.891-.123-1.584-.411-1.829-.68-1.83-2.276-.002-2.345.004-2.317-2.301-1.844-2.458.505-4.559,1.658-6.34,3.391-.696.678-1.495,1.09-2.434,1.15-4.433.283-8.865.443-13.259-.46-.991-.204-1.925-.553-2.786-1.064-1.378-.818-1.599-1.909-.661-3.21,1.163-1.614,2.871-2.495,4.609-3.313,2.171-1.021,4.458-1.718,6.77-2.329.524-.139.962-.358,1.353-.712,2.427-2.197,4.847-4.402,7.289-6.582.437-.391.739-.706.206-1.231-.541-.534-.41-1.27-.51-1.925-.47-3.077-.904-6.159-1.365-9.237-.123-.823-.089-1.547.905-1.767.69-.152.329-.649.289-.953-.48-3.68-1.006-7.355-1.501-11.033-1.082-8.032-2.146-16.066-3.23-24.098-.902-6.688-1.825-13.374-2.733-20.061-1.333-9.813-2.722-19.618-3.977-29.44-1.846-14.438-2.611-28.953-2.879-43.497-.011-.618.012-1.123-.751-1.388-.576-.2-.454-.87-.472-1.378-.176-4.993.668-9.868,1.791-14.699,1.545-6.647,3.848-13.074,5.785-19.607,1.592-5.368,2.1-10.798,1.033-16.331.008-.199.235-.53-.257-.43-1.394,1.418-2.866,2.735-4.493,3.898-5.155,3.683-10.959.052-12.534-4.017-.39-1.007-.662-2.039-.891-3.088.004-.931.008-1.861.011-2.792,2.283-10.978,4.561-21.958,6.862-32.933.125-.594.037-1.085-.229-1.598-1.186-2.29-1.61-4.764-1.582-7.304.03-2.683,1.557-4.283,4.226-4.04,2.9.263,5.105-.559,7.058-2.723,1.624-1.8,3.551-3.331,5.378-4.943.478-.421.687-.735.41-1.409-.511-1.245-.343-2.519.284-3.699.224-.422.273-.705.031-1.169-1.316-2.517-.907-4.948.598-7.227.467-.707.656-1.368.61-2.211-.349-6.303-.783-12.605-.941-18.914-.249-9.961,3.323-18.312,11.063-24.735,2.888-2.396,6.224-3.84,9.963-4.314.838-.022,1.675-.044,2.513-.065.318.137.64.252.993.137,7.34,1.161,12.392,5.315,15.512,11.937,3.194,6.779,3.559,13.932,2.652,21.228-.719,5.789-1.639,11.543-3.405,17.123-.168.532.011.932.126,1.373.541,2.062.524,4.038-.874,5.795-.236.297-.267.532-.124.86.69,1.58.802,3.168-.061,4.721-.24.431-.032.512.301.664,3.881,1.778,7.698,3.716,11.657,5.299,2.015.806,4.231,1.139,6.137,2.275.681.406,1.322.886,1.954,1.368,1.217.93,1.736,2.155,1.837,3.707.157,2.387.52,4.761.816,7.139.096.771.231,1.492-.626,1.991-.551.321-.183.883-.112,1.309.911,5.39,1.854,10.776,2.782,16.163,1.226,7.122,2.445,14.245,3.67,21.367.04.235.117.463.176.694Zm-39.673-32.542c.066.119.166.348.191.34.236-.075.133-.265.107-.427.074-1.023.147-2.046.221-3.069.055-.106.068-.213-.07-.248-.04-.01-.104.074-.157.115-1.359.984-.792,2.139-.292,3.288Zm-17.333,228.228c.201-.093.235-.188.002-.285-.833-.08-1.68-.096-2.496-.261-.701-.142-1.175.043-1.689.516-2.728,2.51-5.493,4.979-8.232,7.475-.308.281-.923.505-.793.93.146.476.799.589,1.253.808.474.229.827-.178,1.191-.376,4.145-2.254,7.664-5.275,10.764-8.808Zm-4.142-213.445c-.026-.095-.051-.19-.077-.285-.076.058-.151.116-.227.175-.493.957-.926,1.951-1.498,2.858-.463.736-.409,1.347-.075,2.113,2.564,5.881,5.083,11.781,7.622,17.673.797,1.85,1.613,3.692,2.494,5.705.432-1.495.783-2.788,1.189-4.064.114-.358-.009-.617-.129-.905-2.086-4.993-4.211-9.971-6.245-14.985-1.106-2.726-2.545-5.335-3.054-8.283Zm7.913,51.811c-1.387,5.218-3.61,10.095-5.973,14.929-.643,1.315-1.387,1.663-2.777,1.534-5.381-.498-10.481-1.987-15.419-4.109-.139-.22-.267-.272-.372.024-.029.517-.022,1.039-.095,1.55-.151,1.053.292,1.477,1.313,1.823,5.661,1.918,11.518,2.762,17.421,3.425.85.096,1.216-.318,1.608-.903,2.146-3.197,3.714-6.671,4.825-10.341.361-1.192,1.015-2.376.77-3.681-.278-1.482-.667-2.944-1.008-4.415-.079-.041-.158-.083-.237-.124-.019.096-.038.191-.057.287Zm29.268,148.953c-.167-.032-.286-.014-.211.204.404,3.04.809,6.08,1.208,9.121.052.395.196.637.639.723,4.017.782,7.922.543,11.698-1.153.51-.229.591-.518.547-1.014-.235-2.62-.484-5.241-.632-7.867-.047-.844-.333-.869-1.011-.707-4.035.964-8.121,1.139-12.238.693Zm-11.943-203.792c-.609-.236-.344.16-.291.402.003,2.884-.658,5.595-1.918,8.202-2.688,5.563-5.146,11.227-7.109,17.092-1.965,5.873-3.213,11.876-2.879,18.106.45,8.391,2.969,16.282,5.957,24.053.221.575.537.735,1.148.734,4.21-.002,8.38-.456,12.522-1.142,2.636-.436,5.231-1.09,7.722-2.096.499-.201.86-.423.907-1.087.185-2.629.445-5.252.681-7.877.036-.404.002-.775-.183-1.158-1.616-3.339-3.023-6.763-4.034-10.337-.17-.601-.455-.579-.958-.486-1.924.356-3.886.545-5.783,1.005-3.983.965-7.842-1.59-8.13-5.882-.063-.943.082-1.405,1.089-1.548,3.595-.51,7.179-1.097,10.773-1.611.779-.112,1.046-.333.916-1.192-1.122-7.44-.728-14.813,1.096-22.112.08-.321.408-.71-.002-.971-.299-.19-.582.135-.855.279-1.073.565-2.222.868-3.42,1.011-.572.068-1.104-.031-1.176-.692-.064-.588.389-.817.92-.884.198-.025.397-.051.593-.09,2.856-.575,4.927-2.13,6.12-4.829,1.944-4.4,1.356-8.803.082-13.218-.156-.54-.401-.54-.863-.308-1.031.518-2.079,1.013-3.155,1.428-.602.232-.743.49-.624,1.138.438,2.395.814,4.802,1.169,7.211.182,1.231-.654,1.9-1.735,1.351-2.878-1.461-5.721-2.991-8.578-4.493Zm-14.913,62.956c-.106-.168-.193-.157-.262.028-.163.528-.316,1.059-.492,1.583-1.2,3.579-2.865,6.923-5.013,10.032-.646.935-1.472,1.283-2.569,1.048-.311-.067-.624-.142-.94-.169-5.254-.452-10.432-1.313-15.472-2.892-.722-.226-1.003-.165-.96.68.116,2.27.11,4.546.185,6.819.213,6.537.5,13.067,1.029,19.586.255,3.136.463,6.278.812,9.404.468,4.192,1.046,8.372,1.589,12.556.594,4.58,1.191,9.16,1.807,13.737.505,3.748,1.055,7.489,1.558,11.237.519,3.866.982,7.739,1.511,11.604.582,4.259,1.239,8.508,1.813,12.767.697,5.166,1.322,10.342,2.013,15.509.67,5.008,1.436,10.003,2.039,15.019.133,1.108.599,1.474,1.541,1.506,2.825.095,5.642.146,8.472-.134,1.251-.124,1.341-.625,1.333-1.64-.142-19.217.147-38.436-.204-57.653-.09-4.954-.022-9.911-.026-14.866-.011-12.668-.017-25.337-.04-38.005-.002-.836.13-1.619,1.055-1.738.779-.101,1.179.512,1.347,1.254,1.346,5.942,2.694,11.884,4.053,17.823,1.306,5.707,2.627,11.41,3.94,17.115,2.252,9.781,4.493,19.565,6.756,29.344,2.433,10.516,4.894,21.025,7.327,31.541,1.158,5.005,2.27,10.021,3.423,15.028.126.545.136,1.224,1.017,1.23,2.714.019,5.419.05,8.125-.345,1.229-.18,1.459-.704,1.375-1.805-.285-3.735-.505-7.475-.73-11.214-.189-3.144-.334-6.291-.527-9.434-.382-6.205-.791-12.409-1.174-18.614-.184-2.984-.318-5.971-.505-8.955-.377-6.005-.807-12.006-1.152-18.012-.183-3.183-.371-6.369-.564-9.55-.382-6.285-.869-12.563-1.14-18.855-.088-2.037-.066-2.047-2.036-1.615-3.448.756-5.339-1.804-5.058-4.044.158-1.262.372-2.527.697-3.755.204-.771.085-1.107-.679-1.432-1.592-.677-2.197-2.024-1.806-3.698.562-2.405,1.126-4.809,1.711-7.209.315-1.293.782-2.534,1.761-3.482,1.661-1.608,2.856-3.527,3.883-5.573.399-.795.805-1.414-.2-2.224-.555-.447-.813-.627-1.471-.372-1,.387-2.039.693-3.084.941-6.628,1.572-13.367,2.116-20.161,2.157-.755.005-1.182-.294-1.485-.946-1.716-3.677-3.178-7.452-4.42-11.314Zm20.029-108.035c-.445.144-.674.545-.973.85-1.607,1.641-3.44,2.97-5.459,4.058-.443.238-.854.356-1.116-.164-.232-.46-.226-.962.31-1.245,2.693-1.422,4.71-3.595,6.863-5.697,1.728-1.686,1.87-3.267,1.245-5.251-.187-.593-.229-1.126-.036-1.734,1-3.157,1.762-6.374,2.303-9.643,1.16-7.017,2.381-14.033.762-21.147-1.147-5.039-3.131-9.61-7.195-13.069-4.952-4.214-11.581-5.079-17.211-2.114-3.997,2.105-7.024,5.253-9.303,9.096-3.141,5.294-4.425,11.021-3.98,17.197.407,5.652.478,11.328.865,16.982.116,1.689-.116,3.04-1.127,4.43-1.27,1.748-1.109,3.507.147,5.206.523.707.608,1.343-.047,2.027-.881.92-1.063,2.048-.354,3.067.756,1.085.468,1.746-.413,2.527-2.688,2.385-5.319,4.835-7.99,7.24-.497.447-.65.771-.151,1.371,1.875,2.254,3.977,4.251,6.335,5.996.699.517,1,.498,1.562-.239.904-1.185,1.145-3.128,3.219-3.129.053,0,.125-.099.155-.167.417-.941,1.107-1.757,1.194-2.848.332-4.176.753-8.347,1.01-12.528.179-2.908.961-5.272,4.151-6.063.042-.01.056-.131.099-.238-3.042-3.142-4.683-6.953-5.284-11.272-.6-4.317-.023-8.539,1.076-12.684,1.366-5.15,3.678-9.807,8.033-13.136,3.438-2.628,7.206-3.576,11.321-1.64,3.572,1.682,5.608,4.765,7.175,8.204,1.69,3.709,2.493,7.659,2.802,11.694.432,5.632-.365,11.029-3.816,15.705-2.715,3.678-6.163,6.394-10.848,7.047-1.297.181-2.235.975-2.798,1.808-.383.567,1.045,1.004,1.586,1.578.136.145.317.248.448.397.484.551,1.015.667,1.693.325.959-.485,1.96-.889,2.922-1.369.566-.282,1.096-.42,1.424.249.321.652-.218.95-.678,1.182-.96.485-1.919.992-2.926,1.36-.699.255-.932.502-.859,1.326.211,2.376.1,4.701-2.507,5.923-.373.175-.315.532-.295.839.205,3.188-1.329,5.479-3.734,7.347-.927.72-1.101,1.688-.552,2.676.188.338.249.704.098,1.037-.515,1.142.241,1.178,1.017,1.212,2.403.106,4.792-.071,7.162-.442,3.788-.593,7.548-1.308,10.89-3.355,2.463-1.508,4.6-3.438,6.819-5.262,1.983-1.629,4.095-3.07,6.617-4.231-3.896-1.774-7.57-3.425-11.219-5.13-.626-.293-.984-.145-1.473.25-2.725,2.198-5.81,3.783-9.011,5.158-.527.226-1.164.405-1.454-.28-.301-.71.312-.957.837-1.193,1.822-.819,3.621-1.687,5.343-2.703,1.794-1.059,3.527-2.202,4.913-3.787,1.073-1.227,1.166-2.098.412-3.604Zm21.683,27.087c-1.471.417-2.702.997-3.913,1.601-1.463.73-2.902,1.517-4.301,2.362-2.374,1.435-2.386,1.471-1.589,4.136.234.783.13,1.393-.591,1.703-.682.294-.612.657-.411,1.204.539,1.468.744,3.014,1.037,4.542.349,1.823-.01,3.684.315,5.487,1.331,7.383,2.73,14.753,4.085,22.132.202,1.101.22,2.217.119,3.343-1.031,11.537-2.034,23.076-3.083,34.612-.074.818.175,1.101.916,1.308,3.015.841,6.063,1.354,9.206,1.365.941.003,1.211-.31,1.3-1.185,1.264-12.397,2.558-24.79,3.843-37.185.199-1.916.211-3.837-.085-5.739-.46-2.958-.976-5.908-1.484-8.858-1.299-7.552-2.603-15.103-3.912-22.653-.47-2.709-.96-5.414-1.45-8.174Zm-69.343-12.708c-.976,0-1.656-.024-2.335.006-.888.04-1.42.506-1.458,1.417-.103,2.476.215,4.892,1.523,7.034.45.738.495,1.366.335,2.128-2.115,10.078-4.224,20.156-6.329,30.236-.507,2.425-.986,4.819-.132,7.311,1.214,3.541,5.744,6.168,9.457,3.394,2.828-2.113,5.149-4.651,7.158-7.499,6.103-8.651,10.088-18.338,13.739-28.187.235-.634.207-.906-.533-1.028-3.149-.517-5.863-2.01-8.353-3.922-.688-.528-1.108-.613-1.501.229-.1.215-.249.408-.379.609-4.861,7.493-9.797,14.939-13.968,22.853-.366.695-.902,1.065-1.655.638-.734-.415-.744-1.054-.359-1.751.906-1.64,1.76-3.31,2.707-4.926,3.831-6.539,7.899-12.931,12.14-19.212.634-.939.542-1.369-.413-2.016-2.255-1.526-4.339-3.315-5.954-5.512-1.058-1.44-2.193-2.225-3.691-1.803Zm14.005,39.294c-1.597,2.716-3.193,5.232-5.017,7.594-.293.379-.108.785-.023,1.152,1.404,6.091,1.103,12.128-.597,18.109-.209.735.008.871.657.983,2.002.346,3.99.775,5.99,1.135.876.158,1.369.548.981,1.461-.451,1.061-.921,2.127-1.508,3.116-1.306,2.204-3.633,3.158-6.157,2.658-.851-.168-1.837-.784-2.515-.397-.693.395-.59,1.574-.866,2.399-1.918,5.722-3.361,11.555-4.058,17.562-.075.65-.016,1.019.64,1.294,4.808,2.015,9.721,3.608,14.969,3.978.704.05,1.08-.132,1.397-.77,2.312-4.647,4.388-9.392,5.781-14.401.466-1.676,1.169-3.372.955-5.137-.592-4.87-.626-9.716.243-14.554.089-.497.032-.939-.172-1.391-.443-.979-.874-1.963-1.299-2.95-3.104-7.211-6.206-14.423-9.398-21.842Zm20.186-57.105c.467-.131.742-.174.989-.283,4.765-2.093,8.173-5.579,9.584-10.554,2.308-8.137,1.105-15.987-2.994-23.342-2.394-4.295-6.428-6.231-10.446-5.204-2.783.711-4.911,2.467-6.627,4.691-4.616,5.982-6.1,12.911-5.731,20.276.213,4.256,1.777,8.08,4.786,11.211.343.357.665.934,1.268.717,2.121-.761,4.222-1.579,6.415-2.407-.704-.506-1.351-.36-1.985-.347-.458.009-.788-.246-.85-.686-.065-.461.233-.725.676-.841.511-.134,1.02-.101,1.543-.08,1.456.059,2.115,1.222,3.063,2.03.978.833,1.35,1.731.949,2.942-.184.557-.378,1.11-.639,1.876Zm16.049,50.028c-.313-2.142-.564-3.984-.863-5.817-.09-.55-.456-.293-.716-.115-.794.544-1.57,1.11-1.948,2.051-.222.554-.51,1.087-1.223.758-.75-.346-.576-.927-.256-1.509,1.019-1.854,2.649-2.986,4.578-3.652,2.195-.757,4.239-1.842,6.379-2.705.978-.394.844-.86.581-1.608-1.087-3.09-1.793-6.28-2.398-9.495-.11-.582-.228-1.185.563-1.314.756-.123.891.46,1.017,1.044.404,1.87.844,3.732,1.25,5.601.136.627.311.782.931.374,3.512-2.309,7.185-4.312,11.211-5.594.583-.186.838-.478.755-1.125-.243-1.897-.58-3.799-.609-5.703-.029-1.932-1.214-2.831-2.628-3.647-.552-.318-1.122-.636-1.724-.83-1.673-.538-3.232-1.404-5.165-.531-3.15,1.423-5.741,3.584-8.358,5.738-2.409,1.982-4.823,3.966-7.77,5.108-1.957.759-1.933.702-2.043,2.815-.193,3.705-.461,7.405-.676,11.109-.088,1.524.298,2.938,1.247,4.147,1.975,2.517,5.139,3.069,7.863,4.897Zm-22.658,22.932c1.72-5.297,3.708-10.198,5.721-15.095,2.07-5.037,3.03-10.156.404-15.368-.715-1.419-1.244-2.937-1.605-4.499-.615-2.663-.995-5.288,1.199-7.505.033-.033-.013-.144-.03-.284-2.06,0-4.131.094-6.188-.037-1.147-.073-1.603.309-1.949,1.349-1.747,5.262-3.821,10.399-6.05,15.475-.267.608-.748,1.173-.625,1.904.284,1.688.489,3.396,1.16,4.995,1.095,2.611,2.186,5.223,3.277,7.836,1.533,3.672,3.064,7.344,4.685,11.229Zm30.751,42.413c-.829.284-1.571.567-2.33.795-6.14,1.849-12.461,2.347-18.828,2.599-1.361.054-1.912-.48-2.338-1.622-1.73-4.635-3.297-9.317-4.51-14.12-2.362-9.348-2.084-18.585.862-27.77,2.148-6.698,5.01-13.093,7.947-19.467,1.658-3.597,2.25-7.305.395-11.067-.192-.39-.407-.815-.431-1.235-.108-1.915-.714-3.723-1.574-5.359-1.433-2.726-1.025-4.914,1.263-6.877.413-.355.742-.802.773-1.433.031-.62-.12-.679-.728-.612-1.918.209-3.368.972-4.521,2.621-.822,1.176-1.172,2.265-1.008,3.657.25,2.129.812,4.174,1.774,6.058,2.703,5.294,2.211,10.679.146,15.889-2.425,6.119-4.977,12.184-6.889,18.488-1.253,4.13-2.275,8.307-2.442,12.66-.444,11.528,2.614,22.266,7.228,32.672.294.664.675.836,1.363.819,4.438-.105,8.864-.32,13.261-.984,3.081-.465,6.12-1.095,9.048-2.175.536-.198,1.328-.193,1.363-1.097.031-.794.113-1.586.177-2.443Zm9.868,21.042c-.108-4.305-.921-8.483.045-12.651.162-.699-.219-.698-.704-.718-1.759-.074-3.518-.243-5.177-.841-.748-.269-.951-.059-1.201.574-.855,2.162-1.861,4.303-3.489,5.952-1.806,1.829-2.742,3.95-3.213,6.395-.302,1.566-.706,3.113-1.119,4.654-.257.957.279,1.353,1.024,1.568.884.255.644-.615.781-.971.384-1.001.646-2.051.931-3.088.17-.622.498-1.052,1.183-.861.763.213.77.81.563,1.449-.098.304-.189.61-.286.914-.953,3.005-1.751,6.049-2.251,9.165-.295,1.841.307,2.436,2.162,2.146,2.439-.382,4.639-1.391,6.773-2.581.918-.512,1.531-1.237,1.83-2.253.191-.649.482-1.269.687-1.915.734-2.305,1.876-4.528,1.463-6.94Zm-36.951,135.573c0-2.167-.102-4.313-1.228-6.261-.551-.953-1.277-1.497-2.449-1.184-.896.24-1.828.253-2.74.188-.821-.059-1.322.282-1.819.879-2.959,3.558-6.409,6.552-10.381,8.945-2.775,1.672-2.757,1.685-5.663.122-.431-.232-.796-.67-1.413-.475-2.737.868-5.502,1.672-7.914,3.305-.444.3-1.2.547-1.102,1.128.094.556.868.594,1.391.72,3.773.905,7.603.723,11.436.626,1.444-.037,2.498-.59,3.59-1.509,2.883-2.425,6.266-3.574,10.068-3.432,1.003.037,1.468.483,1.46,1.468-.005.639.069,1.288-.016,1.915-.141,1.04.41,1.365,1.286,1.385,1.158.026,2.317-.008,3.475.02.839.02,1.2-.366,1.333-1.183.358-2.207.695-4.413.687-6.657Zm-.976-259.236c1.69-1.151,1.765-4.031.306-5.22-1.822-1.485-3.679-2.928-5.532-4.375-.458-.357-.783-.73-.376-1.294.428-.593.955-.393,1.319.024.971,1.111,1.864.613,2.806-.017.967-.646,1.92-1.312,2.637-2.237.54-.696,1.125-1.398,1.173-2.468-3.25,1.196-6.368,2.411-9.535,3.481-1.587.536-2.289,1.468-2.382,3.133-.175,3.147-.443,6.292-.779,9.426-.274,2.549-.038,5.229-1.659,7.488-.396.552-.003.745.434.954,1.475.707,2.947,1.419,4.403,2.164.568.291.914.277,1.183-.385.438-1.081,1.179-1.875,2.121-2.63,1.528-1.225,2.499-2.868,2.365-4.99-.105-1.672-.1-3.351-.144-5.027-.018-.667-.215-1.557.739-1.605,1.056-.053.886.91.917,1.6.026.592.005,1.186.005,1.977Zm28.185,43.966c-5.42,6.104-4.57,32.465,1.253,42.577.258-.354.192-.771.227-1.152.492-5.489,1-10.978,1.436-16.472.18-2.265.818-4.545.437-6.797-1.016-6.011-2.202-11.993-3.352-18.156Zm-28.643,201.016l.04-.003c-.097-1.432-.23-2.862-.276-4.296-.025-.77-.297-.919-1.031-.795-4.27.721-8.552,1.012-12.839.126-.53-.11-.616.082-.546.551.42,2.797.834,5.596,1.228,8.397.079.563.31.829.903.877,1.151.093,2.293.293,3.443.386,2.711.22,5.418.162,8.12-.182.902-.115,1.428-.371,1.226-1.487-.212-1.169-.189-2.381-.268-3.575Zm37.253,5.613l-.41.072c.141,1.641.265,3.283.429,4.921.186,1.865.429,3.724.606,5.589.073.768-.261,1.39-1.111.998-2.313-1.068-4.601-.655-6.908-.078-1.185.297-1.402.144-1.422-1.106-.042-2.595-.054-5.191-.125-7.785-.015-.545.288-1.55-.282-1.54-.597.011-.413,1.037-.432,1.629-.128,4.134-.655,8.194-2.288,12.032-.349.819-.031,1.045.654,1.259,4.633,1.441,9.283,1.244,13.96.243.973-.208,1.193-.638.987-1.577-.658-2.997-1.189-6.023-1.878-9.013-.443-1.922-.952-3.843-1.78-5.646Zm1.465-141.813c.726-.062,1.563-.214,2.391-.177.591.027.664-.241.703-.67.127-1.388.235-2.778.396-4.162.068-.583-.181-.65-.67-.641-3.372.061-6.675-.409-9.889-1.426-.665-.21-.721.033-.756.577-.083,1.271-.176,2.545-.354,3.806-.087.617.034.872.639,1.149,2.369,1.084,4.883,1.357,7.539,1.544Zm-46.176-90.345c.419.127.554-.203.691-.632.349-1.097.676-2.21,1.14-3.26.354-.802.183-1.157-.603-1.501-1.6-.701-3.162-1.489-4.722-2.277-2.741-1.383-2.735-1.394-4.434,1.14-1.409,2.102-1.424,2.124.716,3.564,2.162,1.455,4.497,2.52,7.213,2.966Zm24.37,61.346c2.221-.37,4.7-.794,7.184-1.19.593-.094.426-.451.351-.791-.266-1.209-.572-2.41-.797-3.626-.114-.614-.428-.636-.928-.556-3.351.536-6.702,1.072-10.06,1.557-.635.092-.655.321-.543.847.454,2.135,2.364,3.742,4.793,3.758Zm13.139,176.231c-.014,0-.028,0-.042,0,0,1.195.023,2.39-.009,3.583-.017.62.069.821.792.645,1.552-.377,3.148-.537,4.733-.159.812.194.629-.305.58-.729-.264-2.294-.606-4.582-.769-6.882-.082-1.151-.384-1.556-1.527-1.127-1.206.453-3.029-.382-3.632.681-.581,1.024-.126,2.635-.126,3.988Zm-50.218-176.968c2.023.007,3.997-1.756,4.419-3.874.106-.533-.255-.381-.47-.425-1.205-.248-2.415-.476-3.622-.715q-2.255-.448-2.949,1.703-.989,3.066,2.265,3.31c.119.009.238.001.358.001Z"/><path class="cls-12" d="m93.702,206.102c-.093-.268-.283-.661.125-.703.3-.031.222.389.185.643-.104.02-.207.04-.311.059Z"/><path class="cls-8" d="m70.755,123.55c.492-.1.265.231.257.43-.086-.143-.172-.287-.257-.43Z"/><path class="cls-2" d="m91.677,167.587c1.242,3.862,2.704,7.637,4.42,11.314.304.651.73.95,1.485.946,6.794-.041,13.533-.585,20.161-2.157,1.045-.248,2.084-.553,3.084-.941.659-.255.917-.075,1.471.372,1.006.81.599,1.429.2,2.224-1.027,2.046-2.223,3.965-3.883,5.573-.979.948-1.446,2.189-1.761,3.482-.585,2.399-1.149,4.804-1.711,7.209-.391,1.673.214,3.021,1.806,3.698.764.325.883.661.679,1.432-.325,1.228-.539,2.493-.697,3.755-.28,2.24,1.61,4.8,5.058,4.044,1.971-.432,1.949-.422,2.036,1.615.271,6.292.758,12.57,1.14,18.855.193,3.182.381,6.367.564,9.55.345,6.006.775,12.008,1.152,18.012.187,2.984.321,5.971.505,8.955.383,6.205.792,12.409,1.174,18.614.193,3.144.338,6.29.527,9.434.225,3.739.445,7.479.73,11.214.084,1.102-.145,1.626-1.375,1.805-2.706.396-5.411.364-8.125.345-.881-.006-.892-.685-1.017-1.23-1.153-5.007-2.265-10.022-3.423-15.028-2.432-10.516-4.893-21.026-7.327-31.541-2.263-9.779-4.504-19.562-6.756-29.344-1.313-5.705-2.634-11.408-3.94-17.115-1.359-5.939-2.707-11.881-4.053-17.823-.168-.741-.568-1.354-1.347-1.254-.925.12-1.056.902-1.055,1.738.023,12.668.03,25.337.04,38.005.004,4.955-.064,9.912.026,14.866.351,19.217.062,38.436.204,57.653.007,1.015-.082,1.516-1.333,1.64-2.829.28-5.647.229-8.472.134-.942-.032-1.408-.398-1.541-1.506-.603-5.015-1.369-10.011-2.039-15.019-.691-5.167-1.317-10.343-2.013-15.509-.574-4.26-1.23-8.509-1.813-12.767-.529-3.865-.992-7.738-1.511-11.604-.503-3.748-1.053-7.489-1.558-11.237-.616-4.577-1.213-9.157-1.807-13.737-.543-4.184-1.121-8.364-1.589-12.556-.349-3.126-.558-6.268-.812-9.404-.53-6.519-.816-13.049-1.029-19.586-.074-2.273-.069-4.548-.185-6.819-.043-.844.239-.906.96-.68,5.041,1.579,10.219,2.44,15.472,2.892.316.027.629.102.94.169,1.097.236,1.923-.113,2.569-1.048,2.148-3.108,3.813-6.453,5.013-10.032.176-.524.328-1.055.492-1.583.087-.009.175-.019.262-.028Z"/><path class="cls-7" d="m111.707,59.552c.753,1.506.661,2.377-.412,3.604-1.387,1.585-3.12,2.728-4.913,3.787-1.722,1.017-3.52,1.884-5.343,2.703-.526.236-1.138.483-.837,1.193.29.685.928.506,1.454.28,3.2-1.375,6.286-2.96,9.011-5.158.489-.395.847-.542,1.473-.25,3.649,1.705,7.323,3.356,11.219,5.13-2.522,1.161-4.634,2.602-6.617,4.231-2.22,1.824-4.357,3.754-6.819,5.262-3.343,2.047-7.102,2.762-10.89,3.355-2.37.371-4.759.548-7.162.442-.776-.034-1.531-.07-1.017-1.212.15-.334.09-.699-.098-1.037-.55-.987-.375-1.956.552-2.676,2.405-1.867,3.939-4.159,3.734-7.347-.02-.307-.077-.665.295-.839,2.607-1.222,2.718-3.547,2.507-5.923-.073-.824.16-1.07.859-1.326,1.007-.368,1.965-.875,2.926-1.36.461-.233.999-.53.678-1.182-.329-.668-.859-.531-1.424-.249-.962.48-1.962.884-2.922,1.369-.678.343-1.209.226-1.693-.325-.131-.149-.312-.252-.448-.397-.541-.575-1.969-1.012-1.586-1.578.563-.833,1.5-1.627,2.798-1.808,4.685-.652,8.133-3.369,10.848-7.047,3.452-4.676,4.248-10.073,3.816-15.705-.309-4.036-1.113-7.985-2.802-11.694-1.567-3.439-3.602-6.522-7.175-8.204-4.114-1.937-7.882-.988-11.321,1.64-4.355,3.329-6.667,7.986-8.033,13.136-1.099,4.145-1.676,8.367-1.076,12.684.601,4.319,2.241,8.13,5.284,11.272-.042.107-.057.228-.099.238-3.189.79-3.972,3.155-4.151,6.063-.257,4.181-.678,8.351-1.01,12.528-.087,1.091-.777,1.907-1.194,2.848-.03.068-.102.167-.155.167-2.074.001-2.316,1.944-3.219,3.129-.562.736-.863.756-1.562.239-2.358-1.745-4.46-3.742-6.335-5.996-.499-.6-.346-.924.151-1.371,2.671-2.405,5.302-4.855,7.99-7.24.881-.782,1.169-1.442.413-2.527-.71-1.019-.527-2.147.354-3.067.655-.684.57-1.32.047-2.027-1.256-1.699-1.417-3.457-.147-5.206,1.01-1.39,1.242-2.741,1.127-4.43-.387-5.654-.458-11.33-.865-16.982-.445-6.176.84-11.903,3.98-17.197,2.279-3.843,5.306-6.991,9.303-9.096,5.63-2.965,12.258-2.101,17.211,2.114,4.065,3.459,6.049,8.03,7.195,13.069,1.619,7.113.397,14.13-.762,21.147-.54,3.269-1.302,6.486-2.303,9.643-.193.608-.151,1.141.036,1.734.625,1.984.483,3.565-1.245,5.251-2.153,2.101-4.17,4.275-6.863,5.697-.536.283-.542.784-.31,1.245.262.52.673.402,1.116.164,2.019-1.088,3.852-2.417,5.459-4.058.299-.305.527-.706.973-.85Z"/><path class="cls-5" d="m106.59,104.631c2.857,1.502,5.7,3.032,8.578,4.493,1.081.549,1.917-.12,1.735-1.351-.355-2.409-.731-4.816-1.169-7.211-.118-.648.022-.906.624-1.138,1.076-.415,2.124-.91,3.155-1.428.462-.232.708-.232.863.308,1.274,4.415,1.862,8.819-.082,13.218-1.192,2.699-3.264,4.254-6.12,4.829-.196.039-.394.066-.593.09-.531.066-.984.296-.92.884.072.66.604.76,1.176.692,1.198-.142,2.347-.446,3.42-1.011.273-.144.556-.469.855-.279.41.261.082.65.002.971-1.824,7.299-2.218,14.672-1.096,22.112.13.859-.137,1.08-.916,1.192-3.594.514-7.178,1.101-10.773,1.611-1.007.143-1.152.604-1.089,1.548.288,4.292,4.147,6.847,8.13,5.882,1.897-.46,3.859-.649,5.783-1.005.502-.093.787-.115.958.486,1.011,3.574,2.418,6.998,4.034,10.337.185.383.22.754.183,1.158-.236,2.625-.496,5.248-.681,7.877-.047.664-.408.886-.907,1.087-2.491,1.006-5.086,1.66-7.722,2.096-4.142.686-8.312,1.14-12.522,1.142-.611,0-.927-.159-1.148-.734-2.988-7.771-5.507-15.663-5.957-24.053-.334-6.23.914-12.234,2.879-18.106,1.962-5.865,4.421-11.529,7.109-17.092,1.259-2.607,1.921-5.318,1.918-8.202.097-.134.194-.268.291-.402Z"/><path class="cls-5" d="m133.389,86.639c.49,2.76.98,5.465,1.45,8.174,1.309,7.55,2.613,15.101,3.912,22.653.508,2.951,1.024,5.9,1.484,8.858.296,1.903.284,3.823.085,5.739-1.285,12.395-2.578,24.788-3.843,37.185-.089.875-.358,1.188-1.3,1.185-3.142-.011-6.191-.524-9.206-1.365-.741-.207-.99-.49-.916-1.308,1.049-11.535,2.052-23.075,3.083-34.612.101-1.126.083-2.242-.119-3.343-1.355-7.379-2.754-14.749-4.085-22.132-.325-1.803.034-3.664-.315-5.487-.293-1.528-.497-3.074-1.037-4.542-.201-.547-.272-.91.411-1.204.721-.31.825-.921.591-1.703-.797-2.664-.785-2.7,1.589-4.136,1.399-.846,2.838-1.633,4.301-2.362,1.211-.604,2.442-1.184,3.913-1.601Z"/><path class="cls-5" d="m64.046,73.931c1.498-.421,2.633.363,3.691,1.803,1.614,2.197,3.699,3.986,5.954,5.512.955.646,1.047,1.077.413,2.016-4.241,6.28-8.309,12.672-12.14,19.212-.947,1.616-1.801,3.286-2.707,4.926-.385.697-.375,1.336.359,1.751.754.426,1.289.056,1.655-.638,4.171-7.914,9.107-15.36,13.968-22.853.13-.201.279-.394.379-.609.393-.842.813-.757,1.501-.229,2.49,1.912,5.204,3.405,8.353,3.922.74.121.768.393.533,1.028-3.651,9.849-7.637,19.537-13.739,28.187-2.009,2.848-4.33,5.385-7.158,7.499-3.713,2.775-8.243.147-9.457-3.394-.854-2.493-.374-4.886.132-7.311,2.105-10.08,4.214-20.158,6.329-30.236.16-.762.115-1.39-.335-2.128-1.307-2.142-1.626-4.558-1.523-7.034.038-.91.571-1.377,1.458-1.417.678-.03,1.359-.006,2.335-.006Z"/><path class="cls-5" d="m78.05,113.225c3.192,7.42,6.294,14.632,9.398,21.842.425.987.856,1.971,1.299,2.95.204.451.262.893.172,1.391-.869,4.837-.835,9.683-.243,14.554.215,1.765-.489,3.461-.955,5.137-1.393,5.009-3.469,9.753-5.781,14.401-.317.638-.693.82-1.397.77-5.248-.37-10.161-1.963-14.969-3.978-.656-.275-.715-.644-.64-1.294.698-6.008,2.14-11.84,4.058-17.562.277-.825.173-2.004.866-2.399.678-.387,1.664.229,2.515.397,2.524.499,4.851-.454,6.157-2.658.586-.99,1.057-2.055,1.508-3.116.388-.913-.105-1.303-.981-1.461-2-.36-3.988-.788-5.99-1.135-.649-.112-.866-.248-.657-.983,1.7-5.981,2.001-12.018.597-18.109-.085-.367-.27-.772.023-1.152,1.824-2.362,3.42-4.879,5.017-7.594Z"/><path class="cls-9" d="m98.236,56.12c.261-.766.455-1.319.639-1.876.4-1.212.029-2.109-.949-2.942-.949-.808-1.608-1.971-3.063-2.03-.523-.021-1.031-.054-1.543.08-.443.116-.74.38-.676.841.062.44.392.695.85.686.634-.013,1.281-.159,1.985.347-2.193.828-4.294,1.646-6.415,2.407-.603.216-.925-.36-1.268-.717-3.009-3.131-4.573-6.955-4.786-11.211-.368-7.365,1.115-14.293,5.731-20.276,1.716-2.224,3.844-3.98,6.627-4.691,4.018-1.027,8.052.909,10.446,5.204,4.1,7.355,5.303,15.205,2.994,23.342-1.412,4.975-4.82,8.462-9.584,10.554-.246.108-.521.151-.989.283Zm-5.742-28.903c-1.472.154-2.949.296-4.382-.218-.592-.212-1.059-.126-1.256.48-.195.6.268.854.743,1.027,1.742.637,3.515.64,5.303.231.424-.097.761-.354.776-.797.017-.505-.272-.814-.819-.804-.122.027-.244.054-.365.081Zm.218,14.132c1.078,2.1,4.509,2.685,6.069,1.028.412-.438.93-.936.322-1.518-.527-.505-1.003-.098-1.437.308-.837.782-2.735.587-3.4-.347-.465-.653-.943-.842-1.521-.143-.303.21-.287.435-.033.672Zm.184,6.09c3.139-.086,4.598.411,6.835,2.33.407.35.808.611,1.25.197.483-.452.287-.934-.119-1.358-1.593-1.664-3.605-2.462-5.836-2.749-1.27-.163-2.552-.147-3.82.086-.559.103-1.041.358-.946,1.003.09.608.606.642,1.122.594.557-.052,1.116-.076,1.514-.102Zm10.241-20.779c-.159,0-.321-.018-.478.003-.636.086-1.427.133-1.34.999.083.83.849.664,1.435.617,1.172-.094,2.212.205,3.087,1.002.429.392.865.641,1.317.078.437-.543.103-.963-.3-1.336-1.049-.97-2.334-1.313-3.72-1.364Zm-12.235,5.089c-.181-.608-.511-1.102-1.231-1.059-.691.041-1.124.469-1.086,1.175.036.687.464,1.111,1.175,1.089.724-.022,1.006-.541,1.142-1.205Zm12.334-.108c-.623.163-1.124.463-1.07,1.208.051.704.501,1.116,1.18,1.095.696-.021,1.11-.518,1.088-1.191-.023-.684-.494-1.052-1.197-1.112Z"/><path class="cls-7" d="m114.285,106.148c-2.724-1.828-5.888-2.38-7.863-4.897-.949-1.21-1.336-2.623-1.247-4.147.215-3.704.482-7.404.676-11.109.11-2.113.086-2.057,2.043-2.815,2.947-1.143,5.361-3.126,7.77-5.108,2.617-2.154,5.207-4.315,8.358-5.738,1.932-.873,3.492-.007,5.165.531.602.194,1.172.512,1.724.83,1.414.816,2.599,1.714,2.628,3.647.029,1.904.366,3.805.609,5.703.083.648-.172.939-.755,1.125-4.026,1.283-7.699,3.285-11.211,5.594-.62.408-.795.253-.931-.374-.406-1.869-.846-3.732-1.25-5.601-.126-.584-.262-1.167-1.017-1.044-.791.129-.673.731-.563,1.314.606,3.214,1.312,6.404,2.398,9.495.263.748.398,1.214-.581,1.608-2.14.862-4.185,1.947-6.379,2.705-1.929.666-3.559,1.798-4.578,3.652-.32.582-.495,1.164.256,1.509.713.328,1-.205,1.223-.758.378-.941,1.154-1.507,1.948-2.051.26-.178.626-.435.716.115.299,1.834.549,3.675.863,5.817Z"/><path class="cls-7" d="m91.627,129.08c-1.621-3.885-3.152-7.557-4.685-11.229-1.091-2.612-2.182-5.225-3.277-7.836-.671-1.6-.876-3.307-1.16-4.995-.123-.731.358-1.296.625-1.904,2.229-5.076,4.303-10.213,6.05-15.475.345-1.04.802-1.422,1.949-1.349,2.057.13,4.128.037,6.188.037.017.14.063.251.03.284-2.194,2.217-1.814,4.842-1.199,7.505.361,1.562.89,3.08,1.605,4.499,2.626,5.212,1.666,10.331-.404,15.368-2.013,4.897-4.001,9.797-5.721,15.095Z"/><path class="cls-5" d="m122.378,171.493c-.064.856-.146,1.648-.177,2.443-.036.904-.827.899-1.363,1.097-2.927,1.08-5.966,1.71-9.048,2.175-4.397.664-8.823.879-13.261.984-.687.016-1.068-.155-1.363-.819-4.613-10.406-7.671-21.144-7.228-32.672.168-4.353,1.189-8.53,2.442-12.66,1.913-6.304,4.464-12.369,6.889-18.488,2.065-5.21,2.556-10.595-.146-15.889-.962-1.884-1.524-3.929-1.774-6.058-.164-1.392.186-2.482,1.008-3.657,1.153-1.649,2.603-2.412,4.521-2.621.609-.066.76-.007.728.612-.032.631-.36,1.078-.773,1.433-2.287,1.963-2.696,4.151-1.263,6.877.86,1.635,1.466,3.444,1.574,5.359.024.419.239.844.431,1.235,1.855,3.762,1.263,7.47-.395,11.067-2.938,6.374-5.799,12.769-7.947,19.467-2.946,9.184-3.224,18.422-.862,27.77,1.214,4.803,2.78,9.484,4.51,14.12.426,1.142.977,1.676,2.338,1.622,6.367-.252,12.688-.749,18.828-2.599.759-.229,1.501-.511,2.33-.795Z"/><path class="cls-9" d="m132.246,192.535c.413,2.412-.729,4.635-1.463,6.94-.206.646-.496,1.265-.687,1.915-.299,1.016-.911,1.74-1.83,2.253-2.134,1.19-4.333,2.199-6.773,2.581-1.854.29-2.457-.304-2.162-2.146.5-3.116,1.298-6.16,2.251-9.165.096-.304.187-.61.286-.914.207-.639.2-1.236-.563-1.449-.685-.191-1.012.239-1.183.861-.284,1.037-.546,2.087-.931,3.088-.137.356.103,1.226-.781.971-.745-.215-1.281-.611-1.024-1.568.413-1.541.818-3.089,1.119-4.654.472-2.445,1.408-4.566,3.213-6.395,1.628-1.649,2.634-3.79,3.489-5.952.25-.633.454-.843,1.201-.574,1.659.598,3.418.767,5.177.841.485.02.866.019.704.718-.966,4.168-.153,8.346-.045,12.651Z"/><path class="cls-7" d="m95.294,328.11c.009,2.243-.327,4.448-.686,6.656-.132.816-.493,1.203-1.333,1.183-1.158-.028-2.317.007-3.475-.02-.876-.02-1.427-.345-1.286-1.385.085-.628.011-1.276.016-1.915.008-.985-.457-1.431-1.46-1.468-3.802-.141-7.185,1.008-10.068,3.432-1.092.918-2.146,1.472-3.59,1.509-3.833.097-7.663.279-11.436-.626-.524-.126-1.297-.163-1.391-.72-.098-.581.658-.828,1.102-1.128,2.412-1.634,5.177-2.437,7.914-3.305.617-.196.983.243,1.413.475,2.907,1.564,2.888,1.55,5.663-.122,3.973-2.393,7.422-5.387,10.381-8.945.497-.598.998-.938,1.819-.879.912.065,1.843.052,2.74-.188,1.172-.313,1.899.231,2.449,1.184,1.126,1.949,1.227,4.095,1.227,6.263Z"/><path class="cls-9" d="m94.319,68.872c0-.791.021-1.385-.005-1.977-.031-.691.14-1.653-.917-1.6-.955.048-.757.938-.739,1.605.045,1.676.039,3.355.144,5.027.134,2.121-.837,3.765-2.365,4.99-.942.755-1.683,1.55-2.121,2.63-.269.662-.615.676-1.183.385-1.455-.745-2.928-1.457-4.403-2.164-.437-.209-.83-.402-.434-.954,1.622-2.259,1.386-4.939,1.659-7.488.336-3.134.604-6.279.779-9.426.093-1.665.795-2.597,2.382-3.133,3.167-1.07,6.285-2.285,9.535-3.481-.047,1.07-.633,1.772-1.173,2.468-.717.924-1.67,1.59-2.637,2.237-.942.63-1.835,1.128-2.806.017-.364-.417-.89-.617-1.319-.024-.408.565-.082.937.376,1.294,1.853,1.446,3.71,2.89,5.532,4.375,1.459,1.189,1.384,4.069-.306,5.22Z"/><path class="cls-5" d="m93.861,313.854c.08,1.193.057,2.405.268,3.575.202,1.115-.324,1.372-1.226,1.487-2.701.344-5.409.402-8.12.182-1.151-.093-2.293-.292-3.443-.386-.592-.048-.824-.314-.903-.877-.393-2.801-.808-5.599-1.228-8.397-.07-.469.016-.66.546-.551,4.287.886,8.569.595,12.839-.126.734-.124,1.006.024,1.031.795.046,1.433.179,2.864.276,4.296l-.04.003Z"/><path class="cls-5" d="m118.534,308.423c4.118.446,8.203.271,12.238-.693.678-.162.964-.137,1.011.707.148,2.626.397,5.246.632,7.867.044.496-.037.785-.547,1.014-3.776,1.696-7.681,1.936-11.698,1.153-.444-.086-.587-.328-.639-.723-.399-3.041-.805-6.08-1.208-9.121.07-.068.141-.136.211-.204Z"/><path class="cls-7" d="m131.114,319.467c.828,1.803,1.337,3.724,1.78,5.646.69,2.99,1.22,6.016,1.878,9.013.206.939-.014,1.368-.987,1.577-4.678,1.001-9.328,1.198-13.96-.243-.685-.213-1.003-.439-.654-1.259,1.633-3.839,2.16-7.899,2.288-12.032.018-.593-.165-1.618.432-1.629.57-.011.267.994.282,1.54.071,2.594.083,5.19.125,7.785.02,1.25.237,1.402,1.422,1.106,2.306-.577,4.595-.99,6.908.078.85.392,1.183-.23,1.111-.998-.177-1.865-.419-3.725-.606-5.589-.164-1.638-.287-3.281-.429-4.921l.41-.072Z"/><path class="cls-5" d="m65.097,171.824c4.939,2.122,10.038,3.611,15.419,4.109,1.39.129,2.134-.219,2.777-1.534,2.362-4.834,4.585-9.711,5.973-14.929.098-.054.196-.108.294-.163.341,1.471.73,2.932,1.008,4.415.245,1.305-.409,2.489-.77,3.681-1.111,3.669-2.679,7.143-4.825,10.341-.392.585-.758.998-1.608.903-5.903-.664-11.76-1.507-17.421-3.425-1.022-.346-1.465-.77-1.313-1.823.073-.511.066-1.033.095-1.55.124-.008.248-.016.372-.024Z"/><path class="cls-5" d="m81.353,107.659c.509,2.948,1.948,5.557,3.054,8.283,2.034,5.014,4.159,9.992,6.245,14.985.12.288.243.547.129.905-.405,1.276-.757,2.569-1.189,4.064-.88-2.013-1.696-3.855-2.494-5.705-2.539-5.892-5.059-11.792-7.622-17.673-.334-.766-.388-1.376.075-2.113.571-.907,1.005-1.902,1.498-2.858.101.037.202.074.303.111Z"/><path class="cls-5" d="m132.579,177.653c-2.656-.187-5.17-.46-7.539-1.544-.605-.277-.726-.532-.639-1.149.178-1.26.271-2.534.354-3.806.035-.544.092-.787.756-.577,3.214,1.017,6.517,1.487,9.889,1.426.489-.009.737.058.67.641-.161,1.384-.268,2.774-.396,4.162-.039.43-.113.697-.703.67-.828-.038-1.665.115-2.391.177Z"/><path class="cls-5" d="m86.402,87.308c-2.716-.445-5.052-1.51-7.213-2.966-2.139-1.44-2.125-1.462-.716-3.564,1.699-2.535,1.693-2.524,4.434-1.14,1.56.787,3.122,1.576,4.722,2.277.786.344.957.699.603,1.501-.463,1.05-.791,2.163-1.14,3.26-.136.428-.271.759-.691.632Z"/><path class="cls-5" d="m110.772,148.654c-2.428-.016-4.339-1.623-4.793-3.758-.112-.527-.093-.755.543-.847,3.358-.485,6.709-1.022,10.06-1.557.501-.08.815-.058.928.556.225,1.216.531,2.417.797,3.626.075.34.241.697-.351.791-2.484.395-4.963.819-7.184,1.19Z"/><path class="cls-9" d="m123.911,324.885c0-1.353-.455-2.964.126-3.988.603-1.063,2.427-.228,3.632-.681,1.142-.429,1.445-.024,1.527,1.127.163,2.301.505,4.589.769,6.882.049.424.232.923-.58.729-1.585-.378-3.181-.218-4.733.159-.723.176-.809-.026-.792-.645.032-1.194.009-2.389.009-3.583.014,0,.028,0,.042,0Z"/><path class="cls-9" d="m85.495,321.104c-3.099,3.533-6.619,6.554-10.764,8.808-.364.198-.717.605-1.191.376-.454-.219-1.107-.332-1.253-.808-.13-.425.485-.65.793-.93,2.74-2.497,5.505-4.966,8.232-7.475.514-.473.988-.658,1.689-.516.816.165,1.663.181,2.496.261,0,.095-.002.19-.002.285Z"/><path class="cls-5" d="m73.693,147.917c-.119,0-.239.008-.358-.001q-3.254-.244-2.265-3.31.694-2.152,2.949-1.703c1.207.24,2.416.467,3.622.715.215.044.577-.108.47.425-.422,2.117-2.396,3.881-4.419,3.874Z"/><path class="cls-5" d="m103.348,89.721c-.074,1.023-.147,2.046-.221,3.069-.099.029-.199.057-.298.086-.501-1.149-1.067-2.304.292-3.288.076.044.152.089.227.133Z"/><path class="cls-8" d="m106.59,104.631c-.097.134-.194.268-.291.402-.053-.243-.318-.638.291-.402Z"/><path class="cls-8" d="m102.829,92.876c.099-.029.199-.057.298-.086.026.162.13.352-.107.427-.025.008-.126-.221-.191-.34Z"/><path class="cls-6" d="m89.56,159.307c-.098.054-.196.109-.294.163.019-.096.038-.191.057-.287.079.041.158.083.237.124Z"/><path class="cls-3" d="m91.677,167.587c-.087.009-.175.019-.262.028.068-.185.156-.196.262-.028Z"/><path class="cls-6" d="m65.097,171.824c-.124.008-.248.016-.372.024.105-.297.233-.244.372-.024Z"/><path class="cls-15" d="m81.353,107.659c-.101-.037-.202-.074-.303-.111.076-.058.151-.116.227-.175.026.095.051.19.077.285Z"/><path class="cls-8" d="m118.534,308.423c-.07.068-.141.136-.211.204-.075-.218.044-.236.211-.204Z"/><path class="cls-6" d="m103.348,89.721c-.076-.044-.152-.089-.227-.133.053-.041.117-.126.157-.115.138.036.125.142.07.248Z"/><path class="cls-10" d="m85.495,321.104c0-.095.001-.19.002-.285.232.097.198.191-.002.285Z"/><path class="cls-4" d="m92.896,47.439c-.399.026-.958.05-1.514.102-.516.048-1.033.014-1.122-.594-.095-.645.387-.9.946-1.003,1.268-.232,2.551-.249,3.82-.086,2.231.287,4.243,1.085,5.836,2.749.407.425.602.906.119,1.358-.442.414-.843.152-1.25-.197-2.237-1.919-3.696-2.416-6.835-2.33Z"/><path class="cls-4" d="m92.745,40.677c.578-.698,1.056-.51,1.521.143.664.934,2.563,1.129,3.4.347.434-.405.91-.813,1.437-.308.608.582.09,1.081-.322,1.518-1.559,1.657-4.991,1.072-6.069-1.028.011-.224.022-.448.033-.672Z"/><path class="cls-4" d="m92.86,27.136c.547-.01.836.299.819.804-.015.444-.352.7-.776.797-1.788.409-3.561.406-5.303-.231-.475-.173-.938-.427-.743-1.027.197-.606.664-.693,1.256-.48,1.433.514,2.91.372,4.382.219.122-.027.244-.054.365-.082Z"/><path class="cls-4" d="m103.137,26.66c1.386.051,2.671.394,3.72,1.364.404.373.737.793.3,1.336-.452.563-.888.313-1.317-.078-.874-.797-1.915-1.097-3.087-1.002-.586.047-1.351.213-1.435-.617-.087-.866.704-.914,1.34-.999.156-.021.318-.003.478-.003Z"/><path class="cls-4" d="m90.902,31.748c-.137.664-.418,1.182-1.142,1.205-.711.022-1.138-.402-1.175-1.089-.037-.706.395-1.133,1.086-1.175.72-.043,1.05.451,1.231,1.059Z"/><path class="cls-4" d="m103.235,31.64c.703.06,1.175.429,1.197,1.112.022.672-.392,1.17-1.088,1.191-.679.021-1.129-.392-1.18-1.095-.054-.745.447-1.044,1.07-1.208Z"/><path class="cls-10" d="m92.745,40.677c-.011.224-.022.448-.033.672-.254-.237-.27-.463.033-.672Z"/><path class="cls-13" d="m92.86,27.136c-.122.027-.243.055-.365.082.122-.027.243-.055.365-.082Z"/></g></g></g></g></svg>