<?xml version="1.0" encoding="utf-8"?>
<!-- Generator: Adobe Illustrator 25.2.2, SVG Export Plug-In . SVG Version: 6.00 Build 0)  -->
<svg version="1.1" id="business_x5F_man_x5F_a-ha_xA0_Image_1_"
	 xmlns="http://www.w3.org/2000/svg" xmlns:xlink="http://www.w3.org/1999/xlink" x="0px" y="0px" viewBox="0 0 162.3 382.1"
	 style="enable-background:new 0 0 162.3 382.1;" xml:space="preserve">
<style type="text/css">
	.st0{fill:#FEDF00;}
	.st1{fill:#575757;}
	.st2{fill:#020000;}
	.st3{fill:#A1715E;}
	.st4{fill:#B12043;}
	.st5{fill:#870000;}
	.st6{fill:#FEFEFE;}
	.st7{fill:#B1D5FE;}
	.st8{fill:#A1725F;}
	.st9{fill:#819BB9;}
	.st10{fill:#B9B9B9;}
	.st11{fill:#755345;}
	.st12{fill:#765345;}
	.st13{fill:#3F3F3F;}
	.st14{fill:#565656;}
	.st15{fill:#9F9592;}
	.st16{fill:#746C6A;}
	.st17{fill:#010102;}
	.st18{fill:#3E3E3E;}
	.st19{fill:#B8B8B8;}
	.st20{fill:#7F98B6;}
	.st21{fill:#545454;}
	.st22{fill:#4E4E4E;}
	.st23{fill:#525252;}
	.st24{fill:#7E98B5;}
	.st25{fill:#535353;}
	.st26{fill:#63778E;}
	.st27{fill:#585858;}
	.st28{fill:#7B7B7B;}
	.st29{fill:#282828;}
	.st30{fill:#3F4B5A;}
	.st31{fill:#929292;}
	.st32{fill:#686868;}
	.st33{fill:#B7A100;}
	.st34{fill:#9E8B00;}
	.st35{fill:#010101;}
	.st36{fill:#020202;}
	.st37{fill:#030303;}
	.st38{fill:#040404;}
	.st39{fill:#0A0A0A;}
	.st40{fill:#0C0C0C;}
	.st41{fill:#080808;}
	.st42{fill:#010202;}
	.st43{fill:#020203;}
	.st44{fill:#030304;}
	.st45{fill:#040506;}
	.st46{fill:#030405;}
	.st47{fill:#050608;}
	.st48{fill:#040405;}
	.st49{fill:#060709;}
	.st50{fill:#030404;}
	.st51{fill:#060708;}
	.st52{fill:#050607;}
	.st53{fill:#7C95B2;}
	.st54{fill:#010000;}
	.st55{fill:#020201;}
	.st56{fill:#050505;}
	.st57{fill:#060606;}
	.st58{fill:#64788F;}
	.st59{fill:#2C343F;}
	.st60{fill:#636363;}
</style>
<g>
	<path d="M152.7,189.9c-0.1-0.2-0.3-0.3-0.2-0.5c0.3-2.6-0.7-4.8-2-6.9c-0.4-0.6-0.6-1.2-0.7-1.9c-0.8-5.6-2.2-11-4.6-16.2
		c-0.5-1.1-0.8-2.2-1.2-3.3c-1.4-5.3-2.8-10.6-5-15.6c-1-2.2-2.3-4.1-4.2-5.6c-2.9-2.4-6.5-3.5-9.8-5.3c-2.8-1.5-5.9-2.6-8.9-3.8
		c-1.3-0.5-2.8-0.8-3.2-2.5c0-0.1-0.2-0.3-0.3-0.4c-1.4-1.6-2.9-3.2-4.4-4.8c-0.5-0.5-1-1.2-1.7-1.2c-0.6-0.1-0.7-0.3-0.7-0.8
		c0-2.2-0.1-4.3,1.4-6.2c0.4-0.4,0.6-1.1,0.8-1.6c1.7-4.2,3.1-8.5,4.4-12.8c0.2-0.8,0.6-1,1.4-1.1c2.3-0.3,4.6-1,6.3-2.8
		c2-2.2,3.4-4.8,4.2-7.7c0.8-3,0.3-5.7-1.9-8c-0.2-0.3-0.5-0.4-0.3-0.9c1.1-5,1.8-10,2.4-15c0.4-3.2,0.5-6.3-0.7-9.3
		c-0.3-0.8-0.4-1.5-0.4-2.3c0-1.6-0.3-3.2-1.4-4.5c-0.5-0.6-0.8-1.1-1-1.8c-0.6-1.9-1.4-3.7-3.3-4.6c-0.4-0.2-0.5-0.6-0.7-0.9
		c-0.6-1.1-1.4-2.1-2.7-2.4c-0.5-0.1-0.8-0.4-1-0.8c-1.2-2.1-3.4-3.1-5.7-2.6c-0.5,0.1-0.8-0.1-1.2-0.4c-1.3-1-2.8-1.4-4.4-1.2
		c-0.6,0.1-1-0.1-1.4-0.3c-2.4-1.3-4.8-1.9-7.4-0.8c-0.4,0.2-0.7,0-1,0c-1.9-0.3-3.8-0.3-5.6,0.4c-1,0.4-1.9,0.9-2.3,2.1
		c-0.2,0.8-0.9,1.3-2,1.1c-2.2-0.4-3.9,0.7-4.8,2.7c-0.1,0.3-0.1,0.7-0.5,0.7c-2.1,0.1-2.7,1.7-3.3,3.3c-0.1,0.3-0.1,0.7-0.4,0.8
		c-1.9,0.9-2.4,2.7-1.9,4.3c0.5,1.7,0.2,2.9-0.6,4.2c-0.1,0.2-0.2,0.4-0.3,0.7c-2.7,6.5-3,13.3-2.2,20.3c0.1,1.3,0.7,2.6,0.3,4
		c-0.6,2.1-0.8,4.2-0.9,6.3c-0.2,7.4,1,14.5,3.7,21.3c1.7,4.2,3.5,8.4,4.9,12.7c0.5,1.4,1.2,2.8,2.3,3.9c0.4,0.4,0.5,0.6,0.1,1.1
		c-1.7,1.8-3,3.8-4.4,5.8c-0.3,0.4-0.6,0.7-1.2,0.7c-3.9,0.3-7.6,1.2-11.4,2.3c-2.5,0.7-4.8,1.7-6.6,3.7c-0.3,0.4-0.8,0.5-1.3,0.6
		c-7.3,2.3-14.7,4.4-22.2,6.4c-0.7,0.2-0.8,0-1.1-0.6c-0.7-1.6-2-2.7-3.5-3.2c-0.9-0.3-1.3-0.7-1.6-1.5c-1.1-2.9-1.9-6-2.8-9
		c-1.7-5.3-3.1-10.8-4.4-16.2c-0.1-0.5,0.1-0.6,0.3-0.9c0.9-0.8,1.8-1.6,2.6-2.5c1.1-1.2,2.2-2.5,2.5-4.2c0.5-3.3,1.8-6.1,3.9-8.6
		c1.8-2.1,1.3-3.1-0.7-4.6c-0.8-0.6-1.8-0.8-2.8-0.6c-2.3,0.4-3.8,1.8-4.6,3.9c-0.2,0.7-0.6,1-1.5,1.2c0.9-1.9,0.3-3.7-0.1-5.5
		c-0.4-1.8-1.4-3-3-3.8c-0.3-0.1-0.6-0.2-0.6-0.6c-0.3-2-1-3.9-1.6-5.9c-0.3-1-0.6-2-1.3-2.8c-0.5-0.3-0.9-0.2-1.2,0.2
		c-0.3,0.6-0.1,1.1,0.1,1.6c0.6,1.8,1.1,3.6,1.5,5.4c0.2,1,0,1.2-0.9,0.9c-0.6-0.1-1.1-0.4-1.7-0.5c-0.8,0-1.1-0.4-1.3-1.1
		C7.6,81.7,7,79.9,6.3,78c-0.3-0.8-0.5-1.5-0.6-2.3c-0.1-0.6-0.1-1.2,0.5-1.6c0.6-0.4,1.2-0.1,1.7,0.3c0.5,0.4,0.8,0.9,1.3,1.2
		c0.5,0.3,1,0.6,1.4-0.2c-0.1-1.7-1.1-2.9-2.7-3.5c-1.4-0.5-2.6-0.1-3.5,0.9c-1.1,1.2-1.1,2.6-0.5,4.1c1,2.4,1.8,4.8,2.2,7.3
		c0.1,0.8,0.3,1.6-0.4,2.4c-2.3,2.2-3.3,5.2-4.8,7.9c-0.8,1.5-1.1,3-0.7,4.6c0.8,3.5,1.9,6.9,3.5,10.2c0.2,0.5,0.5,0.9,0.5,1.5
		c-0.1,9.5,0.5,19,1.1,28.5c0.1,0.9-0.2,1.3-1,1.8c-1.6,0.9-3.1,2.1-2.7,4.3c0.1,0.8,0.5,1.5,1,2.2c0.3,0.4,0.4,0.8,0.1,1.3
		c-0.6,1-0.5,2.1-0.1,3.1c0.4,1.2,0.9,2.3,1.6,3.3c1.6,2.3,3.2,4.6,4.9,6.9c2.6,3.4,5.8,5.7,10.2,5.8c6.8,0.3,13.5-0.6,20.2-1.6
		c5.4-0.8,10.8-1.3,16.2-1.6c1.1-0.1,1.7,0.1,1.6,1.4c-0.1,1.3,0.1,2.6,0.3,3.9c0.7,6.8,1.7,13.5,2.6,20.3c0.5,3.9,1,7.8,1.8,11.6
		c0.5,2.4,1.2,4.7,0.9,7.2c-0.3,2.2-0.3,4.5-0.5,6.7c-0.1,1.4-0.1,2.9-0.5,4.3c-0.7,2.1-0.1,3.9,1.3,5.4c0.5,0.6,0.6,1.2,0.6,2
		c0,1.8-0.3,3.6,0.3,5.4c0.1,0.4,0.4,0.6,0.8,0.7c0.8,0,1.2-0.5,1.4-1.1c0.1-0.6,0.3-1.1,0.2-1.7c0-0.6,0-1.2,0-1.8
		c0-0.6,0.2-0.9,0.9-0.8c0.9,0.2,1.9,0.4,2.8,0.5c0.2,0,0.5,0.1,0.5,0.4c-0.1,1,0.3,2-0.3,2.9c-1.1,0.3-2.3-0.2-3.3,0.3
		c-0.6,0.6-0.2,1.1,0.3,1.5c0.6,0.4,1.2,0.6,1.9,0.7c0.8,0.1,1.3,0.4,1.6,1.2c0.2,0.6,0.7,1.1,1.5,0.9c0.7-0.2,0.8-0.8,0.7-1.5
		c-0.1-1.3,0-2.5-0.1-3.8c0-0.6,0-1.1,0-1.7c0-0.3,0.1-0.6,0.5-0.5c0.3,0,0.3,0.3,0.3,0.5c0,0.6,0,1.1,0,1.7c0,1.3,0,2.6,0.3,3.9
		c0.1,0.5,0.3,0.9,0.8,1.1c0.6,0.1,0.9-0.3,1.1-0.7c0.2-0.3,0.3-0.6,0.6-0.6c1.3,0,2.6-0.4,3.9,0.5c1.7,1.2,3.6,1.8,5.8,1.5
		c0.6-0.2,1.3-0.1,2-0.2c1.7-0.3,3.1-0.9,4.3-2.1c0.5-0.6,1.1-1,2-1c2.4,0.1,4.8-0.2,7.1-0.6c0.6-0.1,1,0,1.3,0.5
		c0.3,0.6,0.8,0.9,1.5,0.6c0.7-0.3,0.9-0.9,0.8-1.6c-0.1-1-0.3-2-0.5-2.9c-0.2-0.7-0.3-1.5-0.5-2.2c-0.2-0.5,0-0.7,0.5-0.8
		c0.7-0.1,1.2-0.1,1.3,0.7c0.1,0.5,0.3,1.1,0.4,1.6c0.2,0.9,0.3,1.7,0.4,2.6c0.1,0.6,0.2,1.3,1,1.5c0.7,0.1,1.2-0.3,1.5-0.9
		c0.2-0.5,0.6-0.8,1.1-0.9c3.1-0.8,6.1-1.7,9.2-2.7c0.6-0.2,1,0,1.2,0.6c1.4,4.4,1.8,8.9,1.6,13.5c-0.4,0.9-1.1,1-2,0.7
		c-2.6-0.9-4.9-2.5-6.9-4.3c-0.3-0.2-0.5-0.5-0.8-0.7c-0.4-0.3-0.8-0.5-1.2-0.2c-0.5,0.3-0.4,0.8-0.3,1.3c0.2,0.6,0.6,1,0.9,1.4
		c1.9,2.1,4.2,3.7,6.8,4.9c0.8,0.4,1.3,0.8,0.9,1.7c-0.4,1-1.2,0.3-1.7,0.1c-2.1-0.8-4-1.9-5.8-3.4c-0.9-0.7-1.6-1.4-1.3-2.7
		c0.1-0.4,0-0.8-0.5-1c-0.4-0.1-0.8,0-1.1,0.3c-0.8,0.7-1.1,2.1-0.6,3.2c0.6,1.2,1.4,2.1,2.4,2.9c2.1,1.6,4.3,3.1,6.8,3.9
		c1,0.3,1.2,0.8,1,1.8c-0.4,1.8-0.9,3.7-0.8,5.6c0,1,0.4,1.7,1.2,2.3c0.9,0.7,1.8,0.6,2.9,0.3c-0.3,1.1-0.7,2-1,3
		c-1.1,3.2,0.1,5.5,3.4,6.4c1.1,0.3,1.5,0.9,1.7,1.9c1.1,7.4,1.9,14.9,2.8,22.3c0.1,1.2,0.4,2.3,1.3,3.1c0.4,0.4,0.6,0.8,0.2,1.3
		c-0.8,1.1-0.5,2.3,0,3.4c1.1,2.6,2.1,5.2,2.7,7.9c1.3,6.1,1.5,12.4,1.8,18.6c0.2,4.5-0.1,9.1,0.1,13.7c0.1,1.1,0.4,1.9,1.3,2.5
		c1.4,1,1.4,1.2,0.8,2.8c-0.1,0.3-0.4,0.6-0.5,0.9c-0.5,1-1.2,1.2-2.2,0.8c-1.2-0.5-2.5-0.7-3.7-0.7c-1.7-0.1-3.4-0.3-5,0.3
		c-0.7,0.2-1.4,0.5-1,1.5c0.5,0.4,1.1,0.2,1.6,0.1c0.2,0,0.3-0.1,0.5-0.2c0,0,0,0-0.1,0.1c-0.2,0.1-0.5,0.1-0.8,0.2
		c-1.2,0.5-2.2,1.3-3.2,2c-0.8,0.6-1.7,1.1-2.5,0.5c-0.7-0.5-0.3-1.4-0.3-2.1c0.1-0.8,0.2-1.6-0.5-2.1c-1-0.7-0.7-1.5-0.2-2.3
		c0.6-0.9,0.8-1.9,0.6-3c-0.5-3-1.2-6-2.2-9c-1.9-5.9-3.7-11.7-4.9-17.8c-1.5-7.3-4.1-14.2-6.6-21.1c-2.1-6-4.9-11.6-7.1-17.6
		c-2.3-6.2-4.4-12.6-6.5-18.9c-0.3-1-0.5-2-0.8-3c-0.2-0.6-0.6-1.4-1.3-1.2c-1.1,0.2-2.2,0-3.3,0.3c-0.7,0.1-1.2,0.5-1.2,1.3
		c-0.1,0.7,0.2,1.2,0.9,1.6c0.5,0.3,1.1,0.4,1.7,0.3c0.6,0,0.9,0.2,1,0.8c0.6,2.9,1.6,5.6,2.5,8.4c0.6,2.1,1.2,4.1,2,6.1
		c0.4,1,0.5,1.9,0,2.9c-0.3,0.8-0.5,1.7-0.7,2.5c-1.3,7-1.6,14.1-1.8,21.2c0,0.7,0.1,1.5,0.5,2.1c0.4,0.6,0.3,1.1-0.1,1.6
		c-0.6,0.7-0.7,1.6-0.4,2.5c0.4,1.6,0.8,3.2,1.1,4.8c0.7,4.1,1.3,8.2,1.1,12.4c-0.3,5.6-1.1,11.2-0.4,16.9c0.2,1.5,0,3,0.5,4.4
		c0.3,0.8,0.5,1.5-0.1,2.2c-0.4,0.5-0.3,1.1-0.2,1.6c0.2,1.1,0.6,2.1,0.9,3.1c0.4,1.2,0.2,1.6-0.9,2.1c-1.6,0.8-3.4,1.3-5.2,1.2
		c-0.9,0-1.8-0.3-2.7-0.6c-2.8-1.3-5.5-2.7-8.5-3.3c-0.6-0.1-0.9-0.5-1.2-1c-0.5-1-0.5-1.9,0.2-2.8c0.4-0.9,0.7-1.8,0.4-2.7
		c-0.4-1.7-0.4-2.3-0.1-3.9c0.1-1.5-0.1-3-0.4-4.5c-1.1-6.8-2.4-13.6-3.3-20.5c-0.2-1.3-0.6-2.5-0.2-3.8c0.3-0.8,0.2-1.5-0.3-2.2
		c-1.1-1.7-1.6-3.6-1.9-5.6c-0.4-3-0.5-6-0.8-9.1c-0.3-3.8-1-7.6-1.7-11.4c-1.5-8.8-3.6-17.5-3.3-26.4c0-0.6-0.1-1.2-0.4-1.7
		c-0.8-1.6-0.5-2.9,0.9-4.1c2.7-2.4,4.6-5.4,5.8-8.8c0.2-0.4,0.3-0.9,0.3-1.4c0-0.4-0.1-0.8-0.5-1c-0.4-0.2-0.7,0-1,0.2
		c-0.2,0.2-0.4,0.5-0.6,0.8c-1.3,2.6-3,4.9-4.6,7c-0.2-1.3-0.2-2.7-0.1-4.1c0-0.2,0-0.4,0-0.6c0-0.8-0.1-1.6,0.2-2.4
		c0.2-1.7,0-3.4,0.3-5.1c0.1-0.5-0.1-1-0.6-1.4c-0.5-0.2-0.8-0.1-1.1,0.3c-1.4,4.3-1.6,8.7-1.3,13.1c0,0.6,0.1,1.1,0.5,1.6
		c0.2,0.3,0.2,0.4-0.1,0.6c-1.8,1.2-1.9,2.9-1.3,4.7c0.6,1.7,0.7,3.4,0.8,5.2c0.1,1.7,0.2,3.4,0.3,5.1c0.4,6.8,2,13.3,3.1,20
		c0.8,4.4,1.9,8.8,1.9,13.4c0,2.9,0.1,5.9,1,8.8c0.7,2.1,1.3,4.2,1.5,6.4c0.3,3.7,0.9,7.3,1.5,10.9c0.7,4.9,1.6,9.7,3.1,14.4
		c0.2,0.8,0.2,1.3-0.4,1.9c-1.2,1.2-1.2,2.3,0,3.5c0.5,0.6,0.5,1,0.1,1.5c-1.1,1.4-1.3,2.9-0.8,4.6c0.5,1.7-0.5,2.6-2.2,2.1
		c-0.9-0.2-1.6,0-1.5,1c0.1,1.2-0.9,1.6-1.4,1.5c-1.2-0.2-2-0.2-2,1.4c0,0.1-0.2,0.2-0.3,0.3c-2.5,1.7-4.9,3.5-8,4
		c-2.3,0.4-4.7,0.7-6.9,1.3c-1.7,0.5-2.8,1.6-3.3,3.3c-0.1,0.5-0.4,0.9-0.8,1.2c-1.8,1.5-1.4,4.6,0.7,5.6c0.4,0.2,0.8,0.3,1.2,0.5
		c5.4,1.9,11,2.6,16.7,2.5c2.9-0.1,5.8-0.3,8.5-1.5c2.1-1,4.3-1.7,6.4-2.6c0.8-0.3,1-0.1,1,0.7c-0.1,1.7,0.3,2,2,2.3
		c2.5,0.4,5,0.1,7.5-0.2c1.9-0.2,3.9-0.4,5.8-0.9c0.8-0.2,1.7-0.5,1.8-1.5c0.2-1.7,0.3-3.4-0.2-5c-0.2-0.7-0.3-1.4-0.2-2.1
		c0.4-3,0.6-5.9-1-8.6c-0.2-0.4-0.1-0.6,0.2-0.8c1-0.7,0.9-1.6,0.5-2.6c-0.5-1.1-0.8-2.3-1.3-3.5c-0.3-0.7-0.3-1.2,0.3-1.7
		c0.6-0.6,0.9-1.3,0.6-2.2c-0.4-0.9-0.8-1.9-1.6-2.5c-0.5-0.4-0.6-0.8-0.6-1.4c0.1-4.1,0.3-8.1,0.9-12.2c1.1-7.8,0.6-15.5-1.4-23
		c-0.2-0.7,0-1,0.4-1.5c1.1-1.1,1.3-2.2,0.3-3.4c-0.6-0.7-0.7-1.5-0.7-2.3c0-6.7,0.9-13.3,1.3-20c0.1-0.2,0.1-0.3,0.2-0.5
		c0.2,0,0.1,0.2,0.3,0.3c1.3,3.3,2.7,6.6,4,9.9c1.5,3.8,3.4,7.5,4.5,11.5c0.8,3.1,1.8,6.1,3.5,8.9c0.2,0.4,0.3,0.7,0.4,1.1
		c1.1,5.8,2.3,11.6,3.8,17.3c1.2,4.2,2.7,8.3,4.1,12.4c0.7,2.2,1.6,4.5-0.3,6.8c-1.2,1.4-0.9,2.1,0.5,3.4c0.4,0.4,0.4,0.8,0.3,1.3
		c-0.3,1.4-0.6,2.9,0.8,3.9c0.3,0.2,0.2,0.5,0.2,0.8c-0.1,1.7,0.2,3.4,0.2,5.1c0,3.1,0.7,6.2-0.2,9.5c-0.5,1.9-0.7,4.4,1.5,6
		c0.2,1.5,1.4,1.9,2.5,2.5c4.8,2.2,9.8,3.1,15,2.4c3.5-0.4,6.7-1.5,9.4-3.8c1.7-1.4,2.4-5.1,1.1-6.7c-0.8-0.9-0.8-1.8-1-2.7
		c-0.2-0.7-0.4-1.4-0.6-2.1c-0.6-2-1.9-3.6-3-5.3c-2.2-3.4-3.2-7.3-4.4-11.1c-0.2-0.5,0.2-0.8,0.4-1.2c1.7-2.4,1.4-4.3-0.9-6.1
		c-0.3-0.3-0.6-0.5-0.6-1c-0.1-2-0.3-3.9-0.2-5.9c0.2-7.6,0-15.1-1.1-22.6c-0.6-4.4-1.5-8.8-4.2-12.5c-0.2-0.3-0.3-0.5,0-0.8
		c1.6-1.7,1.3-3-0.2-4.8c-0.4-0.4-0.6-0.9-0.7-1.5c-0.1-4.7-0.8-9.3-1.3-13.9c-0.3-3-0.7-6-1-8.9c-0.1-0.5-0.3-1.2,0.4-1.6
		c3.1-1.7,5.3-4.4,7.7-7c1.1-1.2,1.8-2.7,2.1-4.4c0.3-1.6,0.6-3.2,0.7-4.9c0.5-5.3,1-10.5,2.3-15.7c2.6-9.9,5.1-19.8,6.6-29.9
		c0.1-0.6,0.3-0.9,0.9-1.1c2-0.7,3.1-2.5,3.1-4.6c-0.1-2-0.2-4,0.4-6C154.4,193.9,154.1,191.8,152.7,189.9z M127.2,350.5
		C127.2,350.5,127.2,350.5,127.2,350.5L127.2,350.5z M127.2,350.6C127.2,350.6,127.2,350.6,127.2,350.6
		C127.2,350.6,127.2,350.6,127.2,350.6C127.2,350.6,127.3,350.6,127.2,350.6C127.4,350.7,127.3,350.7,127.2,350.6z M129.2,234.1
		c0,1-0.2,2-0.3,3c0,0.2-0.1,0.5-0.3,0.6c-1.1,0.9-2.2,1.8-3.5,2.8c0-3.9-0.2-7.6-1.6-11c-1-2.4-0.9-4.8-1.5-7.2
		c-0.1-0.4,0.1-0.6,0.3-0.8c1.3-1.5,1.7-3.2,1.4-5.2c-0.5-2.8-0.6-5.6-1.1-8.4c-0.3-1.7-0.5-3.3,0.4-4.9c0.4-0.7,0.2-1.6,0-2.4
		c-0.6-2.4-0.3-4.8-0.1-7.1c0.4-2.9,0.8-5.8,1.2-8.8c0.3,0.8,0.7,1.5,1,2.3c0.6,1.2,1.1,2.4,2,3.4c0.5,0.6,0.4,1.5,0.2,2.2
		c-0.5,1.7-0.3,3.2,1.1,4.3c0.6,0.4,0.5,0.8,0.1,1.3c-0.1,0.2-0.2,0.3-0.3,0.5c-1.6,2.1-1.6,2.1,0,4.2c0.8,0.9,1,1.9,0.9,3.1
		c-0.2,1.6,0,3.3,0,4.9C129.6,218.6,129.4,226.3,129.2,234.1z"/>
	<path class="st0" d="M22.5,19.3c0.6-0.6,1.3-1.1,1.9-1.7c1,0.2,1.9-0.2,2.8-0.7c6.8-3.5,14.7-2.1,19.9,3.4c0.7,0.7,1.3,1.4,1.5,2.4
		c0.4,4.4,0.6,8.8-0.2,13.2c-0.5,2.4-1.2,4.7-2.6,6.7c-0.3,0.4-0.5,1.1-1.2,0.6c-0.4-1,0.1-1.9,0.1-2.8c0-0.5,0.2-0.9,0.2-1.4
		c0.1-1.2-0.7-1.9-1.9-1.6c-1,0.2-1.8,0.8-2.4,1.7c-0.6,0.9-1.2,1.1-2.2,0.5c-1.2-0.7-1.8-0.4-2.2,0.8c-0.3,0.9-0.8,1.3-1.8,0.8
		c-0.2-0.1-0.6-0.3-0.8,0c-0.2,0.4,0.1,0.6,0.4,0.8c0.3,0.2,0.6,0.4,0.9,0.6c1,0.7,1.6,0.6,2.2-0.5c0.4-0.9,0.9-1.2,1.8-0.6
		c0.9,0.6,1.5,0.1,2.1-0.5c0.5-0.5,0.7-1.4,1.7-1.3c0.3,0.2,0.4,0.5,0.4,0.8c-0.1,1.5-0.3,3-0.6,4.5c-0.2,0.9-0.8,1.5-1.7,1.8
		c-0.9,0.3-1.2,0.9-1.2,1.7c-0.1,2.9-0.2,5.8,0.8,8.6c0.2,0.5,0.4,0.9,0,1.3c-1.5,0.8-2,0.6-2.4-1.1c-0.9-3.8-2.1-7.5-3.9-10.9
		c-0.8-1.5-1.7-2.9-2.7-4.3c-0.3-0.5-0.8-1.1-1.5-0.6c-0.7,0.5-0.4,1.1-0.1,1.7c2.9,4.3,4.9,9.1,6.7,13.9c0.1,0.4,0.3,0.7,0.4,1.1
		c0.1,0.4,0,0.6-0.4,0.8c-0.8,0.4-2.5,0.1-3.1-0.7c-0.5-0.6-0.9-1.3-1.1-2.1c-1.2-4.8-4.1-8.4-7.9-11.5c-3.5-2.9-5.8-6.7-6.2-11.5
		c-0.3-4.2,0.7-8,3.2-11.4C22.1,21.1,22.5,20.3,22.5,19.3z"/>
	<path d="M42.4,45c0.2-1.5,0.3-3,0.5-4.5c0.1-0.3,0.4-0.7-0.3-0.7c-0.4,0.4-0.7,0.8-1.1,1.3c-1.1,1.3-1.5,1.4-3,0.5
		c-0.2-0.1-0.3-0.2-0.5-0.3c-0.1,0-0.1,0.1-0.1,0.1c-1.1,2.6-2.4,2.8-4.4,0.6c-0.3-0.3-0.4-0.6-0.2-1c0.2-0.4,0.6-0.4,0.9-0.2
		c0.2,0.1,0.4,0.2,0.6,0.3c0.7,0.5,0.9,0.3,1.1-0.5c0.5-1.9,1.3-2.1,3-1.1c0.6,0.4,0.9,0.4,1.3-0.2c0.7-1,1.5-1.9,2.8-2.1
		c1.5-0.3,2.5,0.6,2.3,2.1c-0.2,1.3-0.4,2.5-0.6,3.8c0.2,2.4-0.2,4.7-0.3,7.1c-0.1,1.7,0,3.4,0,5.2c0,0.4-0.2,1.1,0.4,1.3
		c0.6,0.2,1.2-0.2,1.5-0.7c0.5-0.7,0.6-1.6,0.4-2.4c-0.3-2.2-0.5-4.4-0.2-6.7c0.3-2.5,1.2-4.7,2.3-6.9c1.3-2.6,2-5.4,2.1-8.3
		c0.1-2.5-0.6-4.8-1.7-7c-0.3-0.6-0.6-1.2-0.8-1.9c-2.4-3.8-5.9-6-10.2-6.9c-4.1-0.9-8-0.2-11.6,2c-0.8,0.5-1.5,0.6-2.1-0.1
		c-0.3-0.9,0-1.5,0.8-2c6.4-3.6,12.8-3.8,19.1-0.1c6.2,3.6,9.4,9.2,9.2,16.5c-0.1,3.1-0.9,6.2-2.4,9c-2.1,3.8-2.5,7.8-1.8,12.1
		c0,0.2,0.1,0.5,0.1,0.7c-0.8,3.1,0.4,6.1,0.4,9.1c0,0.8-0.2,1.4-1.1,1.6c-1.1,0.2-1.4-0.6-1.6-1.5c-0.2-0.7-0.1-1.4-0.1-2
		c0-0.7-0.1-1.1-1.1-0.8c-3.4,1-6.8,1.8-10.4,2.2c0.8,2.8,1.7,5.5,3.5,7.9c1.5,2,3.3,2.5,5.4,1.7c0.6-0.2,1-0.6,1.3-1.2
		c0.5-1.2,1.2-2.4,1.4-3.8c0.1-0.6,0.5-1.3,1.4-1c1,0.2,1.3,0.9,1.1,1.8c-0.2,1.2-0.4,2.5-1.2,3.5c0,0-0.1,0.1-0.1,0.1
		c-0.7,3.6-3.7,3.3-6.2,3.8c-1.2,0.2-2-0.4-3-1.1c-4.5-3.3-5.5-8.3-7-13.1c-0.1-0.3,0-0.6-0.2-0.8c-1.5-1.8-1.8-4-2.7-6.1
		c-1.1-2.6-2.7-4.7-4.9-6.5c-3.8-3-6.8-6.6-7.9-11.4c-1.4-6-0.1-11.5,3.8-16.3c0.6-0.7,1.2-1,2.1-0.5c0.5,0.7,0.4,1.3-0.1,1.9
		c-5.4,6.5-5.9,16.4,2.8,23.7c2.7,2.2,5.1,4.6,6.4,7.9c0.5,1.3,0.9,2.7,1.4,4.1c0.6,1.7,1.4,2.1,3.1,2.1c0.8,0,0.7-0.3,0.5-0.9
		c-1.9-5-3.9-10-6.8-14.5c0,0,0-0.1-0.1-0.1c-0.5-0.8-1-1.6,0-2.3c0.9-0.6,1.5,0.2,2,0.9c3.3,4.6,5.2,9.7,6.5,15.1
		c0.3,1.3,0.7,1.7,1.9,1.3c1.9-0.6,1.9-1.9,1.7-3.6c-0.4-2.6-0.1-5.3-0.1-7.9C41.8,46.2,42.3,45.7,42.4,45z"/>
	<path class="st1" d="M48.7,66.1c-0.8,0.2-1.3,0.6-1.3,1.5c0,1.6-1.1,2.8-1.6,4.2c-0.4,1.1-3.9,1.1-5,0.4c-3.7-2.4-4.3-6.5-5.7-10
		c4.2-0.3,8.1-1.3,12.1-2.5c0.5,0.9,0.3,2,0.3,3.1c0.1,0.9,0.3,1.7,1.4,1.8C48.8,65,48.7,65.5,48.7,66.1z"/>
	<path class="st2" d="M97.8,8.3c0-2.3,0-4.5,0-6.8c0-0.7,0.1-1.5,1-1.5c0.9,0,1.1,0.8,1.1,1.6c-0.2,4.9-0.2,9.7-0.9,14.6
		c0,0.1,0,0.2,0,0.2c-0.2,0.5,0,1.4-0.6,1.4c-0.6,0-0.5-0.9-0.5-1.4C97.5,13.6,97.5,11,97.8,8.3z"/>
	<path class="st2" d="M139.3,43.3c-0.1-0.1-0.3-0.1-0.4-0.2c-0.1-0.2,0-0.4,0.1-0.5c0.5-0.4,1.1-0.8,1.6-1.2c3.9-2.5,8-4.7,12.1-6.8
		c0.6-0.3,1.4-0.7,1.8,0.2c0.4,0.8-0.2,1.2-0.8,1.6c-4.2,2.4-8.5,4.6-12.9,6.5C140.4,43,139.9,43.2,139.3,43.3z"/>
	<path class="st2" d="M131.8,10.8c-0.1,0.3-0.3,0.7-0.5,1c-2.4,4-4.9,8-7.8,11.8c-0.4,0.5-0.9,1.7-1.6,1.2c-0.6-0.4,0.2-1.3,0.5-1.9
		c2.1-4.4,4.7-8.5,7.4-12.6c0.3-0.5,0.8-0.8,1.4-0.6C131.7,9.9,131.8,10.3,131.8,10.8z"/>
	<path class="st2" d="M74.3,22.7c0,0.3,0.1,0.5-0.1,0.6c-0.4,0.2-0.6-0.1-0.8-0.4c-0.8-1.2-1.6-2.4-2.4-3.6c-2-3.2-3.7-6.6-5.5-10
		c-0.3-0.6-0.5-1.3,0.2-1.7c0.6-0.4,1.2,0,1.5,0.6c2.5,4.5,4.9,8.9,6.8,13.7C74.2,22.3,74.3,22.5,74.3,22.7z"/>
	<path class="st2" d="M156.5,68.8c-3.6-0.2-7.2-0.4-10.7-1c-0.3,0-0.5-0.1-0.8-0.2c-0.2-0.1-0.4-0.2-0.4-0.4c0-0.2,0.2-0.3,0.4-0.4
		c0.7-0.1,1.3-0.2,2-0.3c4.7-0.2,9.3-0.1,14,0.2c0.7,0,1.3,0.2,1.3,1c0,0.8-0.7,1-1.4,1C159.4,68.8,157.9,68.8,156.5,68.8z"/>
	<path class="st3" d="M11.4,77.1c-0.4-0.1-0.8,0-1.1,0.3c-1.6,0-1.9,0.3-1.9,2c0,1.4,0.6,2.7,0.8,4.1C9.3,84,9.5,84.5,9.1,85
		c-1,0.2-1.4-0.1-1.6-1.2c-0.3-2.6-1.3-5.1-2-7.6c-0.3-1-0.4-1.9,0.6-2.5c1-0.6,1.7,0.1,2.4,0.7c0.3,0.3,0.5,0.6,0.8,0.9
		c0.4,0.4,0.8,0.5,1.2,0.1C10.9,76,11.1,76.5,11.4,77.1z"/>
	<path class="st4" d="M64.1,233c0.2,0.2,0.5,0.4,0.7,0.5c0.3,0.5,0.4,1.1-0.1,1.6c-0.3,0.1-0.6,0.2-0.9,0.3
		C63.9,234.6,64,233.8,64.1,233z"/>
	<path class="st5" d="M96.4,279.6c0-0.3,0-0.7,0-1c0.3,0.2,0.4,0.5,0.4,0.8C96.6,279.4,96.5,279.5,96.4,279.6z"/>
	<path class="st6" d="M83.1,147.2c-0.3-2.1-1.5-3.5-3.4-4.2c-0.7-0.2-0.8-0.7-0.6-1.3c0.2-1,0.3-2,0.4-3c0.1-0.9-0.3-1.5-1-2
		c-0.7-0.5-1.3-0.1-1.9,0.3c-1.1,0.9-1.8,2.1-2.8,3.4c-0.2-2.6-0.2-5,0.3-7.4c0.1-0.6,0.7-1.1,1-1.6c1.6-2.6,3.5-5.1,5.4-7.9
		c0,0.9,0.1,1.6,0,2.2c-0.9,4.8-0.6,9.4,1.7,13.7c2.1,4,2.7,8.4,3.3,12.8c0.1,0.5,0,1,0,1.4c0,0.3,0.1,0.6,0.5,0.7
		c0.4,0.1,0.6-0.1,0.8-0.4c0.2-0.3,0.3-0.6,0.4-0.8c1.5-3.4,2.8-6.9,3.9-10.4c0.4-1.4,1.2-2.5,2.4-3.3c2.6-1.8,5.3-3.6,7.7-5.7
		c1.8-1.5,3.3-3.2,4.6-5.1c0.6-0.9,1.2-1.8,1.4-3.1c1.4,1.6,2.6,3,3.9,4.4c0.3,0.3,0.1,0.8,0.1,1.2c0,0.6-0.1,1.1,0.5,1.5
		c1,0.5,0.9,1.2,0.4,1.9c-1.2,0.3-1.7,1.2-2.1,2.2c-1.4,3.8-4.1,6.8-6.5,10c-0.2,0.3-0.5,0.4-0.7,0.6c-1.1,0.7-1.5,0.6-1.9-0.6
		c-0.6-1.8-1.7-3.2-3.1-4.5c-0.4-0.4-0.8-0.8-1.5-0.5c-0.6,0.3-0.8,0.8-0.9,1.5c0,0.1,0,0.2,0,0.4c0.3,2-0.2,3.5-2.2,4.3
		c-0.5,0.2-1,0.7-0.6,1.5c1.6,1.3,3.4,1.1,5.2,0.4c0.9-0.4,1.3-0.3,1.9,0.5c1.2,1.7,2.3,1.9,4,0.7c3.3-2.4,6.2-5.3,7.9-9.1
		c0.2-0.5,0.4-0.9,0.8-1.4c1.4-1.9,2.2-4,2.4-6.3c0-0.6,0-1.3,1-0.9c2.9,1.2,5.8,2.6,8.8,3.6c2.1,0.7,4.1,1.6,6,2.6
		c3.1,1.6,5.2,4,6.5,7.2c1.9,4.6,3.1,9.5,4.5,14.2c0.5,1.7,1.2,3.3,1.9,4.9c2.2,4.9,3.7,10,4.9,15.2c0.3,1.4,0.3,2.8,1.1,4
		c-0.2,0.8-0.8,0.4-1.2,0.3c-1.4-0.3-2.9-0.6-4.3-0.9c-4.2-0.9-8.4-1.1-12.7-0.1c-1,0.3-1.5-0.2-2-1c-3.3-5.2-5.7-10.7-7.9-16.4
		c-0.4-1.1-0.8-2.2-1.3-3.2c-0.2-0.4-0.4-0.8-0.9-0.6c-0.5,0.1-0.4,0.6-0.5,1c0,0.4,0,0.7,0.1,1.1c0.1,0.6-0.1,1-0.7,1.2
		c-0.5,0.9-0.2,1.8,0.1,2.6c1.1,3.4,2.5,6.8,3.8,10.2c0.2,0.6,0.5,1-0.1,1.6c-0.2,0.2-0.3,0.7-0.3,1.1c-0.2,4.6-0.9,9.1-1.3,13.7
		c-0.1,1.5-0.1,3,0.3,4.4c0.6,1.8,0.4,3.6-0.3,5.3c-0.4,0.8-0.9,1.8,0.2,2.6c0.2,0.1,0.1,0.5,0.1,0.8c0,1.1,0.1,2.2,0.1,3.4
		c0.3,1.9-0.7,3.1-2,4.2c-2,1.7-4.3,2.8-6.7,3.8c-0.7,0.3-1.4,0.6-2.1,0.9c-0.9,0.4-1.7,0.7-2.7,0.8c-4.8,2-9.8,3.5-15,4.2
		c-1.9,0.3-3.8,0.4-5.7,0.4c-0.6,0-0.8-0.2-0.9-0.8c-0.2-1.2-0.2-2.3-0.2-3.5c0-0.7-0.1-1.5-1-1.5c-0.9,0-1,0.7-1.1,1.4
		c-0.1,1.4,0.4,2.7,0.8,4.2c-4.7-0.3-9.1-1.3-13.5-2.9c-0.5-0.2-1-0.2-1.4,0c-0.1,0-0.1,0.1-0.2,0.1c-0.4-0.4-0.3-0.8-0.2-1.2
		c0.1-0.5,0.1-1,0.2-1.4c1.1-4.2,0.3-8.2-0.5-12.3c-1.6-7.8-3.9-15.5-5.4-23.3c-1.1-5.7-2-11.5-2.4-17.3c-0.1-2-0.4-4-0.6-6.1
		c-0.1-1.3-0.8-2.4-1.1-3.6c-0.3-1.4-0.7-2.8-1-4.2c-0.1-0.6-0.3-1.2-1.1-1.2c-0.8,0.1-0.8,0.8-0.8,1.4c0.1,0.7,0.2,1.3,0.2,2
		c0.2,0.5-0.1,0.8-0.5,1.1c-0.4,0.3-0.9,0.5-1.4,0.7c-6.5,2.2-13,4.5-19.5,6.5c-0.5,0.2-1.1,0.1-1.6,0.4c-5,0.8-10,1.3-15,0.7
		c-0.4,0-0.7-0.2-1-0.3c-0.1-0.4,0.2-0.5,0.5-0.6c2.9-0.4,5.2-2,7.2-4c2-1.3,4-2.6,5.6-4.4c1.7-2,2-4.4,2.1-6.9
		c0-0.8-0.8-1.3-1.1-2.1c-0.1-0.4-0.4-0.7-0.5-1.1c-0.4-1.2-0.2-1.7,1.1-2c7.6-2,15.3-4,22.8-6.4c0.9-0.3,1.8-0.7,2.4-1.4
		c0.7-0.8,1.6-1.3,2.6-1.7c4-1.7,8.3-2.5,12.7-3.3c-1.1,3.3-1.1,6.6-0.7,9.8c0.1,0.6,0.2,1.1,0.5,1.6c0.6,1.1,0.9,1.1,1.9,0.3
		c0.6-0.3,0.7,0.2,0.8,0.5c0.7,1.8,1.9,2.9,3.7,3.5c0.8,0.3,1.3,0.9,1.6,1.6c0.3,0.8,0.8,1.5,1.4,2c0.7,0.6,1.2,0.4,1.4-0.5
		C83.4,149.3,83.5,148.2,83.1,147.2z"/>
	<path class="st7" d="M64.7,235.1c0-0.5,0.1-1.1,0.1-1.6c0.6-0.1,1.1-0.3,1.2-1c0.4-0.6,0.7-0.6,1.1,0c-0.3,0.5,0,0.9,0.4,1.2
		c0.5,0.2,1.1,0.5,1.7,0.6c0.9,0.2,1.8,0.3,1.9,1.6c0,0.5,0.5,0.8,1.1,0.7c0.5-0.1,0.6-0.6,0.6-1.1c-0.1-1.4-0.2-2.8-0.1-4.2
		c0.5-0.4,0.9-0.4,1.4,0c0.1,1.3,0,2.6,0.3,3.9c0.1,0.5,0.2,0.9,0.7,1c0.6,0,0.7-0.4,0.7-0.9c0-0.6,0.3-0.6,0.8-0.6
		c0.9,0,1.8,0,2.7-0.1c0.4,0,0.7,0.1,1,0.4c1.8,1.4,3.9,2,6.1,1.9c1.4-0.1,1.4-0.1,1.4,1.3c-0.2,3.4-0.1,6.9,0.5,10.2
		c0.1,0.6,0.1,1.8,0.9,1.6c0.6-0.1,0.1-1.1,0.1-1.7c-0.4-3.3-0.7-6.7-1-10c-0.1-0.5-0.1-1.1,0.2-1.6c1.9-0.4,3.6-1.2,4.7-2.8
		c0.3-0.4,0.7-0.4,1.1-0.3c2.6,0.2,5.2-0.2,7.7-0.7c0.7-0.1,1.3-0.3,1.5,0.7c0.1,0.4,0.5,0.7,1,0.6c0.5-0.1,0.8-0.5,0.7-1
		c-0.1-1.2-0.3-2.4-0.5-3.5c0.1-1.2,1.1-1.5,2.2-0.7c0.4,0.9,0.4,2,0.5,2.9c0.1,0.6,0.2,1.2,0.9,1.2c0.7,0.1,1-0.4,1-1.1
		c0-0.6,0.4-0.7,0.8-0.8c3.4-0.9,6.7-1.9,9.9-3c0.5-0.2,0.8-0.3,1.1,0.4c1.6,4.6,1.9,9.3,1.8,14.1c0,0.1-0.1,0.2-0.2,0.3
		c-0.2,0.1-0.4,0-0.6-0.1c-1.5-1.6-3.6-2-5.4-3.1c-0.7-0.5-1.6-0.7-2.5-0.3c-0.2,0.1-0.5,0.1-0.7-0.1c-0.4-0.3-0.7-0.6-1.1-1
		c-0.2-0.2-0.5-0.3-0.8-0.2c-0.3,0.2-0.3,0.5-0.3,0.7c0.1,0.7,0.5,1.2,1,1.7c2.1,2.1,4.4,3.9,7.3,4.9c1.6,0.6,0.4,1.6,0.4,2.4
		c0,0.9-0.8,0.3-1.2,0.1c-2.9-1-5.4-2.5-7.7-4.5c-0.6-0.5-0.9-1-0.5-1.9c0.2-0.3,0.4-0.9-0.1-1.2c-0.5-0.2-0.8,0.2-1.1,0.6
		c-0.7,0.9-0.9,1.7-0.3,2.7c0.7,1.2,1.7,2.2,2.8,3.1c2.1,1.6,4.4,3,6.9,3.7c0.8,0.2,0.8,0.6,0.7,1.2c-0.3,1.8-0.9,3.5-0.9,5.3
		c-0.1,3.1,1.4,4.2,4.3,2.9c-0.2,1.4-0.8,2.6-1.2,3.9c-1,3,0.2,5.3,3.4,5.8c1.4,0.2,1.6,0.9,1.7,2c0.7,5.6,1.5,11.2,2.2,16.7
		c0.2,1.9,0.5,3.8,0.7,5.7c0.1,1.3,0.4,2.4,1.4,3.2c0.6,0.5,0.6,1.1,0.1,1.6c-0.7,0.7-0.7,1.5-0.3,2.3c3.7,7.6,4.2,15.8,4.6,24
		c0.3,5,0.1,10.1,0.2,15.1c0,0.9,0.2,1.7,0,2.6c-0.1,0.7,0.5,1.1,1.1,1.4c1.8,1.1,1.9,1.4,1.1,3.3c-0.4,0.3-0.8,0.2-1.3,0.1
		c-4.4-0.8-8.8-1.1-13,1c-0.8,0.4-1.3,0.2-1.6-0.6c-0.4-1-0.9-2,0-3c1.1,0.2,2.1-0.1,3.1-0.4c1.8-0.6,3.7-0.4,5.6-0.3
		c0.3,0,0.6,0.1,0.9,0.1c0.4,0,0.9,0.1,1.1-0.4c0.2-0.5-0.2-0.7-0.5-0.9c-0.4-0.3-0.9-0.4-0.9-1c0-0.4,0.1-0.9-0.3-1.2
		c-1.4-1.8-3.4-2.4-5.5-2.8c-2.8-0.5-4.5-1.7-5.3-4.8c-1.7-6.7-3.6-13.4-5-20.2c-0.5-2.2-1-4.4-1.5-6.7c-0.5-2.4-1.8-4.5-2.7-6.8
		c-2.2-5.5-4.4-11-6.6-16.6c-2.1-5.4-4.7-10.6-7.1-15.8c-0.5-1.1-1-2.3-1.5-3.4c-0.8-1.7-1.4-3.6-3.1-4.7c-0.3-1-0.5-2.1-0.8-3.1
		c-0.2-0.7-0.5-1.5-1.6-0.8c-0.5,0.3-1.3,0-2,0c-0.9,0-1.7,0.2-1.7,1.3c0,1,0.8,1.2,1.6,1.4c0.6,0.1,1.4-0.4,1.8,0.1
		c0.4,0.4,0.3,1.2,0.4,1.8c0.7,2.5,1.4,5,2.2,7.4c0.2,0.7,0.1,1.3-0.1,2c-0.5,1.8-0.8,3.7-0.7,5.6c0,5-0.6,10-1.3,15
		c-0.6,3.9-0.9,7.8-0.9,11.7c0,0.6,0.1,1.3-0.2,1.9c-0.2,0.2-0.4,0.2-0.6,0.1c-0.9-0.4-1.1-0.2-1.1,0.7c0,0.8,0.2,1.6,0.3,2.4
		c0.1,0.9,1,0.8,1.6,1c0.8,0.8,0.6,1.9,0.8,2.9c0.1,0.8,0.5,1.6-0.1,2.4c-0.9,0.2-1.3,0.8-1.1,1.7c0.2,1,0,2.1,0.9,2.9
		c0.7,0.4,1.1,1.1,1.1,1.9c0,1,0.2,2.1-0.2,3.1c-1.2,0.7-1,1.9-1,2.9c0,0.5,0,1,0.1,1.5c2.1,1.9,1.6,4.2,1.2,6.6
		c-0.8,0.3-1.2,0.9-1.1,1.7c0,0.5,0,1,0,1.5c-0.1,0.9,0.3,1.4,1.2,1.5c0.4,0.1,0.7,0.3,0.7,0.7c0.1,1.4,0.4,2.8-0.4,4.1
		c-0.9,0.4-1.1,1.2-0.8,2.1c0.2,0.9,0.1,1.9,0.9,2.6c0.6,0.8,0.8,1.8,1,2.8c0.3,1.3,0,2.4-1.3,3.1c-0.9,0.5-1.9,1.1-2.8,1.6
		c-1.2,0-2.3-0.5-3.4-1.1c-2.3-1.1-4.6-2.2-7.1-2.8c-2.1-0.5-2.9-2.4-1.8-4.4c0.9-0.2,1.9-0.5,2.8,0.1c0.4,0.3,0.9,0.4,1.4,0.4
		c2.6-0.1,5.1-0.2,7.6,0.4c0.4,0.1,1,0.3,1.3-0.3c0.2-0.6-0.4-0.8-0.7-1.1c-0.5-0.5-1.3-0.7-1.8-1.2c-0.6-0.8-1.3-1.4-2.4-1.4
		c-0.5,0-0.9-0.3-1.3-0.6c-1.6-1.6-3.5-2.2-5.7-2.4c-0.4,0-0.7,0-1-0.3c-0.1-4.7-1.3-9.3-2-14c-0.7-4.4-1.3-8.8-2-13.3
		c-0.1-0.7-0.3-1.4,0.2-2.1c0.3-0.4,0.1-1-0.2-1.3c-1.9-2.7-2.3-5.9-2.4-9c-0.3-7.7-1.7-15.2-3.1-22.8c-1.2-6.2-2.3-12.5-2.3-18.9
		c0-1.7-0.1-3.4-0.8-5c-0.4-0.9-0.2-1.8,0.7-2.6c3-2.7,5.3-6,6.6-10c0.1-0.5,0.6-1.1,0-1.4c-0.7-0.4-0.9,0.3-1.2,0.8
		c-0.1,0.1-0.1,0.2-0.2,0.3c-0.1,0.1-0.1,0.1-0.2,0.1c-1.5-0.9-2.3,0.1-3.2,1c-0.5,0.6-0.8,1.5-1.8,1.5c0-0.2,0-0.3,0-0.5
		c0.2-0.8-0.1-1.6,0.2-2.4c0.1-1.7,0.1-3.4,0.2-5.1C65.1,236,65.2,235.5,64.7,235.1z"/>
	<path class="st8" d="M81,120.6c-1-0.4-1.6-1.3-1.9-2.2c-2.7-7.8-6.7-15.1-8.3-23.3c-1-5.1-1.2-10.3-0.7-15.5
		c0.3-3.1,0.1-6.3-0.1-9.4c-0.3-6,0.5-11.8,3.2-17.2c0.4-0.8,1-1.6,1.5-2.3c0.3-0.4,0.5-0.5,0.9,0c1.3,1.6,3,2,5,1.6
		c1.2-0.3,2.3,0.4,3.5,0.4c0.3,0,0.7,0.2,0.9,0.1c1.7-0.6,3.2,0.1,4.7,0.5c0.8,0.2,1.9,0.4,2.1-1.1c0.8,0.7,1.7,0.9,2.8,0.9
		c1.2,0,2.3,0,3.5,0c0.6,0,1.4,0,1.7-0.4c1-1.1,1.7-0.3,2.5,0.2c0.8,0.5,1.7,0.8,2.6,0.7c0.8-0.1,1.2,0.3,1.8,0.7
		c1.1,0.7,1.6,1.9,2.4,2.8c2.8,3.1,2.1,6.2,0.5,9.4c-0.6,1.1-0.8,2.1-0.2,3.3c0.2,0.3,0.3,0.8,0.3,1.1c-0.3,2,0.1,3.9,0.6,5.8
		c0.3,1.2,0.1,2.4-0.4,3.6c-0.8,2.2-1.5,4.4-1.9,6.7c-0.1,0.7-0.2,1.4,0,2.1c0.2,0.6,0.4,1.2,1.2,1.3c0.8,0.1,1.2-0.3,1.6-0.9
		c1-1.8,2.1-3.5,3.1-5.3c1.4-2.3,3-3.1,4.8-2.4c2.1,0.7,3.7,3.1,3.3,5.4c-0.5,3.2-2,6-4.3,8.2c-1.4,1.4-3.3,1.7-5.2,1.3
		c-1.4-0.3-1.8,0.3-2.2,1.3c-1.6,1.3-2,3.2-2.7,5.1c-1.2,3.2-2.7,6.3-4.5,9.2c-1.6,2.5-3.8,4.2-6.5,5.2c-1.4,0.5-2.6,1.4-4,2
		c-3.2,1.4-6.4,2-9.8,1.3C82.3,120.6,81.7,120.6,81,120.6z"/>
	<path class="st8" d="M14.8,104.2c0.8-1.9,1.4-4,3-5.4c1.7-1.4,2.8-3.1,3.8-5c1.2-2.2,3.9-2.5,5.2-0.8c0.3,0.4,0.4,0.6-0.1,1
		c-2.5,2-3.9,4.7-4.6,7.8c-0.5,2.3-1.6,4.2-3.1,5.8c-1.9,2-3.9,3.9-6.8,4.3c-0.3,0.1-0.7,0.2-0.7,0.6c-0.1,0.6,0.4,0.7,0.8,0.9
		c1.3-0.1,1.7,0.7,2,1.8c2.6,8.4,4.7,17,7.4,25.4c0.3,0.9,0.2,1.7-0.3,2.5c-1.7,2.7-4.3,4-7.3,4.4c-1.7,0.2-3.5,0.1-5.2-0.5
		c-0.8-0.3-1.3-0.8-1.2-1.8c0-1.8,0.1-3.7-0.1-5.5c-0.6-9.1-1.2-18.2-1-27.3c0-1.8-0.3-3.5-1.2-5.1c-1.4-2.6-2.1-5.4-3.1-8.2
		c-0.4-1.2-0.3-2.4,0.4-3.6c1.4-2.4,2.4-5.1,3.9-7.4c0.9-1.4,1.6-1.6,3-1c1,0.4,2,0.3,2.9,0.5c2.5,0.4,3.1,0.8,3.8,3.2
		c-1,1.2-1.5,2.6-2.3,3.9c-1,1.5-2,3.1-3.6,4.2c-0.4,0.3-0.9,0.7-1.5,0.5c-0.9-1.3-1.7-1.5-3.1-0.9c-0.5,0.2-0.8,0.5-0.7,1.1
		c0.1,1.8,0.9,3.2,1.9,4.6c1,1.5,3.5,1.8,5.5,0.8C13.4,104.7,14.1,104.3,14.8,104.2z"/>
	<path class="st8" d="M147.2,209.3c-1,5.4-2.5,10.7-3.7,16.1c-0.9,3.6-1.6,7.2-3,10.7c-1.5,3.8-1.8,7.8-1.9,11.8
		c0,3.4-0.4,6.8-1,10.1c-0.3,1.4-0.9,2.6-2,3.6c-1.8,1.6-3.4,3.5-5.3,5c-1.7,1.4-3.5,1.4-5.4,0.9c-1.2-0.3-1.7-1.1-1.2-2.3
		c1.5-4,1.7-8.1,1.9-12.3c0-0.6,0-1.1-0.4-1.6c-0.3-0.1-0.7-0.2-0.7-0.7c-0.1-1.3-0.4-2.7,0.6-3.8c1.4-1.7,2.8-3.4,4.8-4.5
		c2.2-1.2,3.3-3.2,3.4-5.9c0.4-8.5,0.5-17,0.5-25.5c0-1.3,0.3-2.6,0.2-3.9c0-0.8,0.4-1.3,1.1-1.5c1.1-0.3,2.2-0.6,3.4-0.5
		c2.8,0.3,5.4,1.2,7.9,2.6C146.9,208,147.5,208.4,147.2,209.3z"/>
	<path class="st9" d="M122.2,345.5c-1,1.2-0.1,2.2,0.3,3.3c0.1,0.3,0.4,0.2,0.6,0.1c4.7-2.4,9.5-2.1,14.4-1c0.1,0,0.2,0,0.4,0
		c-0.4,0.7-0.8,1.4-1.3,2.1c-0.3,0.5-0.7,0.2-1,0.1c-3-1-6.1-1.5-9.2-0.8c-0.6,0.1-1.3,0.2-1.2,1.1c0.2,0.3,0.6,0.1,0.9,0.2
		c0.2,0.1,0.6-0.1,0.6,0.4c-1.2,0.7-2.5,1.4-3.6,2.3c-0.8,0.7-1.6,0.5-2.5,0.5c-0.5,0-0.6-0.4-0.6-0.8c0-0.5-0.1-1.1,0.1-1.5
		c0.4-1.2,0.2-2-0.9-2.7c-0.6-0.3-0.5-0.9-0.2-1.2c1.8-2.1,1-4.4,0.5-6.7c-1.5-6.7-4.1-13.2-5.7-19.9c-0.6-2.8-1.3-5.5-1.9-8.3
		c-0.9-4.1-2.7-7.9-3.8-11.8c-1.4-4.8-3.4-9.4-5.4-13.9c-3.6-8.4-6.5-17.1-9.4-25.8c-0.2-0.5-0.3-1.1-0.5-1.6
		c1.2,0.3,1.8,1.1,2.3,2.2c4.7,10.1,9.5,20.2,13.2,30.8c1.2,3.3,2.5,6.7,4,9.9c2.6,5.6,3.1,11.6,4.6,17.4c1.4,5.5,3,11,4.5,16.5
		c0.1,0.5,0.4,0.8,0.9,1c1.3,0.4,2.6,0.9,3.9,1.2c2.1,0.4,3.9,1.2,5.2,3c-0.6,0.5-1.3,0.4-1.9,0.5c-1.9,0.4-3.7,1.1-5.4,2
		C123.2,344.3,122.8,345,122.2,345.5z"/>
	<path class="st1" d="M80.3,369.3c-2.5,1-5,2-7.4,3.4c-0.5,0.3-1.1,0.2-1.6,0.2c-5.5,0.6-10.9,0.3-16.3-0.7
		c-1.8-0.3-3.6-0.7-5.4-1.1c-0.7-0.1-1.1-0.4-0.9-1.3c0.2-0.9,0.6-0.9,1.3-0.7c0.5,0.1,0.9,0.2,1.4,0.3c0.3,0.1,0.6,0.1,0.7-0.3
		c0.2-0.4-0.2-0.5-0.4-0.7c0,0-0.1,0-0.1-0.1c-0.4-0.4-1.5,0.1-1.2-1.1c0.3-1.1,0.7-2,2-2.2c2.5-0.4,4.9-0.9,7.4-1.3
		c2.8-0.5,5-2.2,7.3-3.8c1-0.7,1.6-0.7,2.2,0.3c0.3,0.5,0.7,0.9,1.2,1.2c0.5,0.3,1.1,0.4,1.5-0.1c0.5-0.4,0.5-1,0.2-1.5
		c-0.3-0.5-0.8-1-1.2-1.5c-0.2-0.3-0.8-0.5-0.2-0.9c0.4-0.3,0.8-0.9,1.4-0.3c0.5,0.6,1,1.2,1.5,1.7c0.5,0.5,1.1,0.9,1.8,0.4
		c0.7-0.5,0.7-1.3,0.3-1.9c-0.4-0.6-0.8-1.2-1.3-1.7c-0.5-0.5-0.2-0.7,0.1-1.1c1.1-1.3,2.2-1.1,3.6-0.6c2.2,0.9,4.3,1.8,6.4,2.9
		c3.2,1.7,6.4,2,9.8,0.7c0.6-0.2,0.8-0.1,1,0.4c0.2,0.6,0.4,1.1,0.4,1.7c0.2,1,0,2,0.1,3c0,0.6-0.4,0.9-0.9,1.1
		c-2.5,0.9-5.1,1.6-7.8,1.6c-4-0.1-8,0.3-11.9,1.2c-1.7,0.4-3.4,0.8-4.5,2.2c-0.4,0.3-0.9,0.4-1.3,0.4c-4.2,0.6-8.3,0.7-12.5,0.2
		c-0.4,0-0.8-0.2-1.2,0c0.3,0.4,0.8,0.4,1.2,0.5c6.4,1.1,12.8,0.8,19.1-0.7c0.7-0.2,1.3-0.5,2-0.9C78.9,368.3,79.8,368.1,80.3,369.3
		z"/>
	<path class="st1" d="M123.9,366.1c0.4-0.4,0.8-0.7,1.3-1.1c0.4-0.4,0.7-0.8,0.6-1.4c-0.3-2.1-0.2-4.2-1.2-6.1
		c-0.7-0.3-1.6-0.5-1-1.5c0.9-0.6,1.6-1.4,2.4-2.2c1.9-1.9,6.2-2.7,8.7-1.6c0.8,0.3,1.4,0.9,2.3,1c0.3,0,0.5,0.3,0.5,0.6
		c0.7,3.2,2.3,6,3.9,8.8c0.1,0.1,0,0.2,0.1,0.4c-1.3-0.4-2.5-0.5-3-2c-0.7-1.7-1.5-3.2-2.2-4.9c-0.1-0.3-0.2-0.8-0.7-0.7
		c-0.5,0.2-0.2,0.6-0.1,0.9c0.7,2,1.4,4.1,2,6.1c0.3,0.8,0.8,1.4,1.7,1.7c1.5,0.4,2.7,1.4,3.9,2.2c1,0.6,1.9,4.1,1.5,5.2
		c-0.1,0.4-0.5,0.5-0.8,0.7c-2.1,1.2-4.4,2-6.9,2.2c-1.4-0.9-2.9-1-4.5-0.9c-2.1,0.1-4.1-0.7-6-1.3c-0.9-0.3-1.6-0.9-1.9-1.9
		C124.1,369.1,123.6,367.7,123.9,366.1z"/>
	<path class="st9" d="M91.1,334c0.4-1,0.2-2,0.1-3c0-0.4-0.1-0.7-0.1-1.1c-0.1-0.8,0.3-1.7-1.1-1.8c-0.3,0-0.4-0.3-0.3-0.7
		c1.3,0.1,1.2,0.1,1.3-1.2c0.1-1.1-0.4-2.2-0.2-3.3c0-0.9,0-1.8,0-2.7c0-0.9-0.1-1.8-1.2-2.1c0.9-0.5,0.9-1.2,0.8-2.1
		c-0.1-0.9-0.7-1.7-0.4-2.6c0.7-0.8,0.1-1.6,0-2.4c-0.1-1,0.2-2.1-0.7-2.9c0-1.4-0.6-2.7-0.2-4c0.5-0.4,0.3-1,0.2-1.5
		c-0.2-5.4,0.6-10.6,1.3-15.9c0.3-2,0.4-4,0.6-5.9c0.4-3.6-0.2-7.3,0.9-10.9c0.2-0.7,0.7-1.3,0.5-2.1c0.8,2.4,1.7,4.9,2.5,7.3
		c0.1,0.3,0.1,0.6,0,0.9c-1.6,4.2-1.9,8.7-2.2,13.2c-0.3,4-0.4,8-0.6,12.1c0,0.7,0.3,1.1,0.8,1.5c0.4,0.4,0.6,0.8,0.1,1.3
		c-1,0.9-1,1.9-0.7,3.2c1.8,6.9,2.4,13.9,1.8,21c-0.4,4.8-0.6,9.5,0,14.3c0.2,1.3,0,2.6,0.9,3.7c0.3,0.3-0.1,0.6-0.3,0.8
		c-0.7,0.5-0.8,1.2-0.6,2c0.4,1.2,0.7,2.4,1.1,3.7c0.2,0.6,0.2,1.1-0.5,1.4c-2,1-4.1,1.8-6.4,1.6c0.5-1,1.6-1.2,2.4-1.8
		c1.6-1.1,1.8-1.5,1.2-3.4c-0.2-0.8-0.5-1.5-0.8-2.2c0.5-0.7,0.5-1.3,0.3-2.1c-0.2-0.9-0.7-1.8-0.5-2.7c0.8-1.3,0.3-2.8,0.4-4.2
		c0-0.4-0.4-0.3-0.7-0.3C91.3,337.3,91.1,335.6,91.1,334z"/>
	<path class="st8" d="M103.5,125.8c0.4,2.6-0.8,4.3-2.7,5.9c-2.6,2.2-5.3,4.1-8.2,5.8c-1.8,1.1-3,2.7-3.6,4.7
		c-0.7,2.6-1.7,5.2-2.8,7.8c-0.2-1.5-0.4-2.9-0.5-4.4c-0.1-2.8-1-5.3-2-7.8c-1.1-2.7-1.6-5.5-1.3-8.4c0.3-0.6,0.8-0.3,1.2-0.2
		c7.1,2.3,12.9-0.3,18.1-4.8c0.4-0.4,0.8-1.1,1.4-0.9c0.5,0.2,0.1,1,0.2,1.5C103.4,125.3,103.3,125.6,103.5,125.8z"/>
	<path class="st10" d="M59,158.2c1.9,2.2,1.7,4.9,1.9,7.5c0.9,10.4,2.5,20.7,5.2,30.9c1.4,5.4,2.5,10.8,3.6,16.3
		c0.6,3.2-0.1,6.3-0.6,9.4c-0.1,0.4-0.1,0.9-0.1,1.3c-0.2,0.9,0.3,1.5,1.1,1.9c0.9,0.4,1.8,0.8,2.8,1.2c0,0.5-0.3,0.3-0.5,0.3
		c-1.9-0.1-3.7-0.5-5.5-0.9c-1-0.2-2.8-3.3-2.6-4.2c0.4-1.9,0.6-3.9,0.7-5.9c0.3-0.2-0.2-0.8,0.4-0.9c0,0,0,0.1,0,0.1
		c0.2,0.5,0.2,1.4,0.9,1.2c0.7-0.2,0.4-1,0.3-1.5c-1.5-6.9-3-13.8-3.9-20.8c-1.2-10.4-2.9-20.8-3.3-31.3
		C59.3,161.1,59.1,159.6,59,158.2z"/>
	<path class="st11" d="M147.2,209.3c0-0.5-0.2-0.8-0.6-1.1c-2.7-1.6-5.5-2.6-8.7-2.8c-1.1-0.1-2,0.4-3,0.5c-0.7,0.1-0.6,0.7-0.7,1.2
		c-0.4,6.3-0.1,12.5-0.2,18.8c-0.1,4-0.2,8-0.5,11.9c-0.2,2.5-2,4.1-4.2,5.3c-2,1.1-3.5,2.8-4.5,4.8c-0.5,1-0.6,2.4,0.3,3.5
		c-0.8-0.1-1.1,0.3-1.2,1.1c-0.1,1.2-0.4,2.5-0.4,3.7c0.1,1.5-1.2,1.8-2,2.5c-0.2,0.2-0.6,0.2-0.9,0c-0.3-0.2-0.4-0.6-0.3-1
		c1-3.3,1.4-6.7,2.2-10c0.5-2,2-3.2,3.4-4.5c0.4-0.4,0.8-0.9,1.3-1.2c3.2-2.2,4.1-5.5,4.4-9c0.5-6.9,0.4-13.9,0.1-20.8
		c-0.1-2.4-0.2-4.9-0.3-7.3c0-0.7,0.2-1,0.8-1.2c5.3-1.4,10.4-1,15.2,1.9c0.6,0.3,0.7,0.7,0.5,1.3
		C147.6,207.7,147.4,208.5,147.2,209.3z"/>
	<path class="st6" d="M131.3,190.1c1.1-0.5,2.3-0.8,3.5-0.9c4.8-0.4,9.6-0.2,14.3,1.2c2.9,0.8,3.5,2,2.9,5.2
		c-0.4,2.3-0.7,4.5-0.4,6.7c0.1,1.1-0.7,1.5-1.3,2.1c-0.2,0.2-0.4,0-0.5-0.1c-4.4-3.4-9.5-4-14.9-3.4c-0.8,0.2-1.2-0.3-1.5-0.9
		c-0.2-0.7,0.4-1,0.9-1.2c1.3-0.7,2.6-1.5,4.2-1.3c2.5,0.1,4.9-0.6,7.2-1.3c0.3-0.1,0.6-0.3,0.6-0.7c0-0.4-0.3-0.6-0.6-0.8
		c-0.5-0.2-1-0.4-1.5-0.4c-3.4-0.6-6.8-1-10.3-0.3c-0.3,0.1-0.6,0.1-0.8,0.1c-1.8,0-1.9-0.1-1.9-1.9
		C131.2,191.4,130.6,190.7,131.3,190.1z"/>
	<path class="st10" d="M118.1,166.4c0.3-0.4,0.5-0.7,0.4-1.3c-0.2-0.9-0.7-2.2,0.6-2.5c1.2-0.3,1.3,1.1,1.6,1.9
		c1.6,4.5,3.4,8.9,5.6,13.2c1.1,2.1,2.3,4.1,3.5,6.1c0.2,0.4,0.4,0.5,0.9,0.4c6-1.7,11.8-0.4,17.7,0.9c0.4,0.1,0.8,0.4,1.1-0.1
		c0.4,0.8,0.9,1.7,1.3,2.5c0.1,0.2,0.3,0.4,0.1,0.6c-0.2,0.3-0.4,0.3-0.7,0.2c-3.5-1.4-7.2-1.4-10.8-1.8c-3.5-0.3-6.8,0.2-10.1,1.6
		c-0.7,0.3-0.9,0.1-1.2-0.5c-3.1-6.5-5.6-13.3-8.4-20C119.5,167.1,119.4,166,118.1,166.4z"/>
	<path class="st6" d="M21.1,160.1c-4.6,1.7-10.3,0.6-13.3-3.6c-0.8-1.1-1.7-2.2-2.4-3.4c-0.8-1.4-1.4-2.8-0.7-4.5
		c0.3-0.6,0.1-1.3-0.3-1.8c0,0,0-0.1-0.1-0.1c-1.3-2-1.2-2.3,0.9-3.6c0.3,0.5,0.2,1,0.2,1.5c0,2.2,1.1,3.7,2.9,4.7
		c3.5,2.1,7.3,2.4,11.2,1.1c0.3-0.1,0.5-0.1,0.8-0.2c0.6,1.3,1.1,2.6,0.5,4c-0.3,0.9,0.3,1.6,0.2,2.5c-0.2,0.5-0.7,0.6-1.1,0.7
		c-2.9,0.9-5.9,0.7-9,0c3.4,1.4,6.8,1.8,10.1,0.3c0.3-0.1,0.6-0.2,0.9-0.2c1,0.9,0.9,1.6-0.2,2.3C21.6,159.9,21.3,159.9,21.1,160.1z
		"/>
	<path class="st11" d="M7.7,139.7c0.5,1.7,0.2,3.4,0.2,5.1c0,1.1,0.3,1.6,1.4,1.9c3.8,0.9,7.3,0.6,10.4-1.9c0.9-0.7,1.5-1.6,1.9-2.5
		c0.2-0.4,0.2-0.8,0.1-1.3c-2.8-8.6-5-17.4-7.6-26c-0.3-1-0.7-1.5-1.6-1.6c1.1,0,2.2,0,3.1-0.5c0.5-0.3,0.6,0.1,0.7,0.5
		c2.2,9.4,5.1,18.5,8.2,27.6c0.8,2.4-0.3,4.8-2.3,6.1c-3.9,2.7-9.1,3.2-13.4,0.3c-0.9-0.6-1.3-1.3-1.2-2.4
		C7.8,143.2,7.7,141.5,7.7,139.7z"/>
	<path class="st10" d="M21.1,160.1c0.8-0.6,2-1.1,0.9-2.5c-0.1-0.4,0.5-0.5,0.4-0.9c-0.5-0.2-1,0.5-1.5,0c-0.4-1.2-0.5-2.4-0.1-3.7
		c0.3-0.9-0.7-1.8-0.4-2.9c0.8-0.4,1.6-0.8,2.3-1.2c2.8-1.7,4.1-4.2,4-7.4c0-0.3,0-0.5,0-0.8c2,0.8,2.5,1.6,2.2,3.6
		c-0.2,1.5,0.1,2.8,1.3,3.9c0.2,0.2,0.4,0.3,0.4,0.6c-0.4,2.3,0,4.6-2.1,6.5C26.2,157.4,24,159.4,21.1,160.1z"/>
	<path class="st12" d="M103.5,125.8c-0.5-0.7,0-1.5-0.4-2.3c-1.7,1.7-3.5,3.1-5.5,4.2c-4.4,2.6-9.1,3.5-14.1,1.8
		c-0.4-0.1-0.7-0.4-1.1-0.1c0-1.4,0.3-2.7,0.2-4.1c-0.1-0.9,0.3-1,1-0.7c3.5,1.2,7.1,1,10.6-0.1c1.3-0.4,2.4-1.1,3.5-1.8
		c1.5-1.1,3.2-1.8,4.9-2.5c0.4-0.2,0.7-0.3,0.7,0.4C103.4,122.3,103.4,124.1,103.5,125.8z"/>
	<path class="st11" d="M81,120.6c1.1-0.8,2.4-0.2,3.5,0c2.6,0.4,4.9-0.1,7.2-1.1c2.4-1,4.8-2.2,7.2-3.4c2.9-1.5,4.5-4.3,6-7.1
		c1.4-2.8,2.8-5.6,3.5-8.7c0.3-1.2,1.3-1.7,2.2-2.3c-0.5,2.8-1.5,5.5-2.4,8.2c-1,3-1.9,5.9-3.3,8.7c-0.7,1.4-1.7,2.6-3.3,3.1
		c-2.5,0.8-4.5,2.4-6.7,3.7C91,124,84.1,123.4,81,120.6z"/>
	<path class="st10" d="M115.7,133.2c-0.5,0-0.7,0.2-0.7,0.7c-0.1,2.6-1,4.7-2.5,6.9c-1.2,1.7-1.9,3.8-3.3,5.4
		c-1.7,2-3.6,3.8-5.7,5.2c-1.6,1.1-3.1,0.7-4.1-1c-0.4-0.7-0.6-0.8-1.4-0.4c-1.9,0.9-3.9,0.9-5.7-0.5c0.9-0.5,1.8-1.1,2.7-1.5
		c1.1-0.5,1.6-1.4,1.5-2.6c0-0.5,0-1,0-1.4c0-0.3,0-0.7,0.3-0.8c0.3-0.2,0.6,0.1,0.8,0.3c1.1,1,2,2,2.4,3.5c0.1,0.3,0.2,0.7,0.4,1
		c0.4,0.9,1.1,1.1,1.7,0.4c1.5-1.7,3.4-2.8,4.9-4.3c2.2-2.1,3.6-4.8,4.7-7.6c0.2-0.6,0-1.3,0.1-1.9c0.3-0.7,0.5-1.4-0.2-2
		c0.1,0,0.2,0,0.2,0C113.4,131.5,114.5,132.7,115.7,133.2z"/>
	<path class="st13" d="M80.3,369.3c-0.6-0.6-1.4-0.6-2.2-0.7c-0.7-0.6-1.4-0.6-2.2-0.3c-1.2,0.3-2.5,0.5-3.7,0.8
		c-0.5,0.1-1,0.2-1.5-0.2c0.3-1.1,1.2-1.3,2.1-1.6c2.8-1,5.8-1.4,8.7-1.8c3.6-0.4,7.2,0.2,10.8-0.9c3.4-1,3.5-0.9,3.6-4.6
		c0.5,2,0.1,3.9-0.1,5.9c-0.1,0.9-0.5,1.2-1.3,1.4c-3.4,0.9-6.9,1.2-10.3,1.5C82.8,368.8,81.6,369,80.3,369.3z"/>
	<path class="st10" d="M33.3,164.9c3.1-1.3,6.4-2.2,9.6-3.3c3.8-1.3,7.5-2.6,11.3-3.9c0.8-0.3,1.8-0.4,2.2-1.5
		c0.5,1.8,0.6,3.6,0.7,5.4c0.1,0.7-0.2,0.9-0.8,0.9c-4.1,0.2-8.2,0.4-12.3,0.9c-3.4,0.4-6.7,1-10.1,1.4
		C33.7,164.9,33.5,164.9,33.3,164.9z"/>
	<path class="st14" d="M133.7,376.4c4,0.1,7.8-0.6,11.3-2.3c0.7-0.3,0.8-0.2,0.9,0.5c0.1,1.3-0.8,1.8-1.7,2.4
		c-2.3,1.4-4.8,1.9-7.4,2.3c-5.3,0.7-10.3-0.6-15.1-2.6c-0.4-0.2-0.7-0.3-0.5-0.8c0.2-0.5-0.2-1,0.1-1.7c1.9,1.6,4.1,2.1,6.5,2.2
		C129.9,376.2,131.8,376.8,133.7,376.4z"/>
	<path class="st10" d="M138.5,197.8c-1.7,0-3,0.8-4.4,1.5c-0.5,0.3-0.6,0.6-0.1,1c0.3,0.3,0.6,0.5,1,0.6c-1.6,0.4-3.2,0.7-4.6,1.5
		c-0.3,0.1-0.5,0.2-0.6-0.1c-0.1-0.6-0.8-1.1-0.4-1.8c0.3-0.4,0.6-0.8,0.8-1.2c0.9-1.5,0.8-2.3-0.5-3.5c-0.7-0.7-1-1.4-0.7-2.4
		c0.2-0.7,0.5-1.4,0.3-2.2c-0.1-0.3,0.1-0.4,0.3-0.5c0.6-0.2,1.1-0.4,1.6-0.6c0.1,1.1,0.1,2.2,0.3,3.2c0.2,0.8,1.1,0.2,1.6,0.4
		c-0.3,0.8,0,1.1,0.8,1c3-0.3,6-0.2,9,0.1c0.1,0,0.2,0,0.2,0c0.4,0.1,1,0.1,1,0.6c0,0.5-0.6,0.6-1,0.7c-1,0.2-2.1,0.4-3.2,0.6
		C139.5,196.8,138.9,197.1,138.5,197.8z"/>
	<path class="st10" d="M107.4,221.8c2.6-1.1,5.3-2.1,7.8-3.4c1.3-0.7,2.4-1.5,3.6-2.4c1.3-1,2-2.3,2.1-3.9c0.2,1.8,0.5,3.6,0.7,5.4
		c0.1,0.8-0.4,1.3-0.8,1.9c-0.2,0.4-0.6,0.6-0.7,1.1c-0.3,1.2-0.6,1.4-1.8,1.2c-0.4-0.1-0.9-0.1-1.3,0c-3.1,0.5-6,1.7-9,2.3
		c-1.1,0.2-2.3,0.4-3.4,0.7c-0.3,0-0.6,0.2-0.5-0.3c1.1-0.6,2.4-1,3.4-1.9C107.7,222.3,108.1,222,107.4,221.8z"/>
	<path class="st13" d="M133.7,376.4c-0.9,0.8-1.9,0.5-2.9,0.5c-1,0-1.9-0.3-2.9-0.5c0.3-0.3,1-0.2,0.9-0.8c-0.1-0.5-0.7-0.6-1.2-0.6
		c-2.6-0.2-4.4-1.7-6-3.6c-0.7-0.8-0.4-2.8,0.6-4c0.5-0.5,1-1.1,1.6-1.4c0.2,1.2,0.5,2.3,0.7,3.5c0.4,1.6,1.4,2.4,3,2.8
		c2.3,0.6,4.6,1.1,7,0.9c1-0.1,1.9,0.3,2.4,1.2c-1,0.2-2,0.5-3,0.6C133,375.3,133,375.7,133.7,376.4z"/>
	<path class="st14" d="M81.6,40.4c1,0.5,1.9,0.7,2.6,1.4c0.4,0.4,0.7,0.1,1.1,0c1.2-0.3,2.4-0.4,3.6,0c0.5,0.2,0.9,0.5,0.7,1.1
		c-0.2,0.6-0.7,0.4-1.1,0.3c-1.6-0.5-3-0.1-4.3,0.8c-0.6,0.4-1,0.2-0.9-0.6c0.1-0.5-0.1-0.7-0.5-0.9c-2.1-1.2-3.8-0.8-5.1,1.2
		c-0.2,0.3-0.2,0.9-0.8,0.7c-0.5-0.3-0.5-0.9-0.2-1.3c1.3-1.6,2.6-3.1,4-4.6c0.2-0.2,0.5-0.2,0.8-0.3c1.6-0.3,3-1,4.3-2.1
		c2-1.6,4.3-1.5,6.6-1C93,35.4,93,36,93,36.5c0,0.6-0.3,1-0.9,1c-0.5,0-1,0-1.5-0.1c-1.5-0.2-2.9,0-4,1c-0.8,0.7-1.6,1-2.6,1
		C83.1,39.5,82.3,39.8,81.6,40.4z"/>
	<path class="st14" d="M119.3,55.9c0.2-1.9-0.4-3.1-1.7-4c-1.1-0.7-1.6-1.5-1.4-2.9c0.2-1.5-0.4-2.4-1.5-2.8c-0.5-0.2-0.9-0.3-1,0.5
		c0,0.3-0.2,0.6-0.5,0.6c-0.3,0-0.3-0.4-0.4-0.6c-0.5-1.7-1.4-2.2-3.1-2c-0.8,0.1-1.5,0.1-1.7-0.8c-0.2-0.9,0.6-1.3,1.3-1.3
		c1.4-0.1,2.7,0.1,3.6,1.4c0.3,0.4,0.5,0.7,1.1,0.6c3.5-0.3,4.7,2.5,4.2,5.1c-0.1,0.7-0.1,1,0.6,1.3c1.8,1,2.5,2.7,2.6,4.7
		c0,0.4-0.1,0.8-0.2,1.2c-0.2,0.5-0.6,0.8-1.2,0.7c-0.6-0.1-0.7-0.6-0.7-1.1C119.3,56.1,119.3,55.8,119.3,55.9z"/>
	<path class="st9" d="M76.7,341.2c2.7,0,5.1,0.6,7,2.6c0.3,0.3,0.7,0.5,1.1,0.5c1.1,0,1.9,0.6,2.4,1.5c-0.5,0.3-0.9-0.1-1.3-0.2
		c-1.2-0.5-2.4-0.9-3.9-0.9c0.7,0.6,1.3,0.6,1.8,0.8c0.5,0.2,1.1,0.2,1.3,0.8c-0.1,0.3-0.3,0.4-0.5,0.4c-0.8,0.1-1.7,0-2.5-0.1
		c-1.2-0.1-2.3,0.2-3,1.2c-0.5-0.3-1-0.3-1.6-0.1c-0.4,0.1-0.8,0.1-1.1-0.1c0.6-1.5,0.8-2.9-0.3-4.2c-0.3-0.4-0.1-0.8,0.2-1.1
		C76.5,342,76.7,341.6,76.7,341.2z"/>
	<path class="st14" d="M84.4,371.3c0-1.8,0-1.8,1.7-1.8c3.2,0,6.3-0.4,9.4-0.9c0.7-0.1,0.9,0,1,0.7c0.1,2,0.1,2.1-1.9,2.4
		c-3.1,0.4-6.2,0.8-9.4,1.1C83.8,372.9,84.6,371.7,84.4,371.3z"/>
	<path class="st15" d="M91.3,229.9c0.9,1.1,0.9,2,0,3c-2.4,2.7-8.4,2.7-10.8,0c-0.8-0.9-1-1.8-0.2-2.8c0.4-0.1,0.6,0.2,0.8,0.4
		c0.7,0.6,1.5,0.8,2.4,0.9C86.3,231.6,88.9,231.3,91.3,229.9z"/>
	<path class="st11" d="M9.1,99.4c3.1-1.4,4.5-4.3,6-7c0.4-0.6,0.5-1.5,1.4-1.7c0.7,1.9,0.9,3.7-0.5,5.5c-0.8,1-1.3,2.2-2,3.4
		c-0.2,0.4-0.5,0.8-0.8,1.2c-0.7,0.8-1.6,1.1-2.6,0.9C9.5,101.5,9.4,100.4,9.1,99.4z"/>
	<path class="st13" d="M116.9,221.7c0.4-0.3,0.9-0.2,1.4-0.2c0.8,0,1.5-0.1,1.8-1c0.2,1.1,0.3,2.3,0.5,3.4c-0.2,0.5-0.7,0.7-1.2,0.9
		c-2.8,1.4-5.7,2.4-8.7,3.2c-0.7,0.2-1.4,0.4-1.9,1c-0.3-0.8-0.6-1.7-1-2.5c-0.3-0.7,0.3-0.6,0.6-0.7c2.4-0.6,4.8-1.2,7.1-2.1
		c0.9-0.4,1.9-0.8,2.6-1.7C117.7,221.6,117.3,221.8,116.9,221.7z"/>
	<path class="st10" d="M83.1,147.2c0.6,1.1,0.6,2.4,0.3,3.6c-0.3,1-0.8,1.1-1.6,0.5c-0.8-0.6-1.3-1.4-1.7-2.3
		c-0.3-0.8-0.7-1.3-1.6-1.6c-1.8-0.6-3.1-1.8-3.7-3.6c-0.1-0.3-0.1-0.6-0.6-0.6c1.5-1.4,2.3-3.4,3.7-5c0.3,0.5,0.1,0.8-0.1,1.1
		c-0.2,0.4-0.3,0.7-0.5,1.1c-1.1,3.1-0.9,3.6,2.1,4.8c1.2,0.5,2,1.1,2.3,2.4c0,0.2,0.1,0.3,0.2,0.4c0.2,0.4,0.4,1,1,0.8
		c0.6-0.2,0.2-0.7,0.2-1.2C83.2,147.5,83.1,147.3,83.1,147.2z"/>
	<path class="st16" d="M91.3,229.9c-0.4,0.8-1.1,1-1.8,1.2c-2.1,0.8-4.3,0.8-6.5,0.7c-1.1-0.1-2-0.6-2.6-1.6c0.6-1,1.5-1.5,2.7-1.5
		c2,0,4.1,0,6.1-0.1C90.1,228.6,90.8,229.1,91.3,229.9z"/>
	<path class="st11" d="M14.8,104.2c-1.5,0.9-3,1.8-4.9,1.8c-1.5,0-2.6-0.6-3.3-1.9c-0.6-1-1.1-2-1.5-3.1c-0.2-0.4-0.3-0.9,0.2-1.3
		c0.2,0.1,0.5,0.4,0.8,0.2c0.8-0.4,1.1,0,1.4,0.8c1.1,3.2,3.1,3.9,6.3,2.3C14,103.5,13.7,104.5,14.8,104.2z"/>
	<path class="st13" d="M93.7,230.9c-0.3-0.8-0.5-1.6-1.2-2.1c-0.4-0.3-0.3-0.6,0.2-0.7c0.7-0.1,1.4-0.3,2.1-0.3
		c2.2,0,4.3-0.3,6.5-0.6c0.5-0.1,0.8-0.1,0.9,0.5c0.1,0.7,0.3,1.3,0.4,2c-2.3,0.7-4.6,0.7-7,1C94.9,230.8,94.3,230.8,93.7,230.9z"/>
	<path class="st11" d="M9.1,85c0-1.2-0.3-2.3-0.6-3.4c-0.3-1.1-0.4-2.1-0.3-3.2c0.1-1.4,1-1.8,2.2-1.1c0.4,2.3,1.2,4.5,1.7,6.8
		c0.4,1.7,0.2,1.9-1.5,1.4C10,85.4,9.6,85.2,9.1,85z"/>
	<path class="st17" d="M88.3,236.6c0.2,1.9,0.4,3.9,0.6,5.8c0.2,2.3,0.4,4.5,0.8,6.8c0.1,0.6,0.4,1.3-0.4,1.5
		c-0.8,0.2-1-0.6-1.2-1.2c-0.7-3.1-1-6.1-0.9-9.3c0-0.9,0-1.9,0.2-2.9c0.2-1.2-0.8-0.2-1.1-0.6C86.9,236.4,87.6,236.7,88.3,236.6z"
		/>
	<path class="st18" d="M123.6,356c-0.2,0.8,0.4,1.2,1,1.5c-0.9-0.1-0.9,0.6-0.9,1.1c-0.1,1-0.1,2.1,0,3.1c0.3,2.4,0.2,2.6-2.1,3.7
		c-0.1-2.2-0.2-4.4-0.3-6.7c0-0.7-0.4-1.6-0.1-2.2c0.3-0.6,1.4-0.1,2.1-0.5C123.4,356,123.5,356,123.6,356z"/>
	<path class="st14" d="M96.6,34c1.1,0.2,2.6,0.2,3.3,1.7c0.3,0.6,0.7,0.3,1.1,0.1c1.8-0.7,3.3-0.3,4.7,1c0.3,0.3,0.6,0.6,0.4,1
		c-0.3,0.4-0.7,0.2-1.1,0c-1.4-0.8-2.8-0.6-4.2,0c-0.8,0.3-1.3,0.4-1.9-0.5c-0.5-0.9-1.5-1.5-2.5-1.6c-0.3-0.1-0.6-0.2-0.9-0.2
		c-0.4-0.1-0.7-0.4-0.6-0.9C95,34,95.4,34,95.8,34C96,34,96.2,34,96.6,34z"/>
	<path class="st19" d="M24.9,160.8c-1.5,2.4-3.8,3.5-6.5,4.1c-0.4,0.1-0.9,0-1.2,0.4c-2.1-0.5-3.7-1.7-5.2-3.2
		C16.6,164.1,20.8,162.4,24.9,160.8z"/>
	<path class="st9" d="M64.7,244.5c0.6-0.4,1.1-1,1.6-1.6c0.4-0.5,0.9-1,1.5-1.4c0.9-0.6,1.5-0.1,2.2,0.4c-1.3,2.6-2.9,4.9-4.9,7.1
		C64.6,247.4,64.7,246,64.7,244.5z"/>
	<path class="st9" d="M113.4,239.5c1.4-0.8,2.7-0.3,4,0.5c0.6,0.4,1.2,0.7,1.9,0.9c1.3,0.4,2.2,1.3,3.2,2.2c-0.4,0.8-1,1.1-1.9,0.8
		C117.8,242.9,115.4,241.4,113.4,239.5z"/>
	<path class="st14" d="M108.8,229c0-0.7,0.3-0.9,1-1.1c3.7-0.9,7.3-2.2,10.7-4c0.1,2,0.1,2-1.8,2.6c-3,0.9-5.9,1.8-8.9,2.6
		C109.5,229.2,109,229.8,108.8,229z"/>
	<path class="st14" d="M93.7,230.9c0.1-0.2,0.2-0.5,0.3-0.5c2.9,0,5.7-0.8,8.5-0.8c0.3,0.7,0.2,1.2-0.8,1.3
		c-2.4,0.3-4.8,0.7-7.1,1.1C93.6,232.2,93.7,231.5,93.7,230.9z"/>
	<path class="st18" d="M66.2,230.9c-0.1-3.2-0.1-3.2,3-2.6c1.8,0.4,1.8,0.4,1.7,2.3c0,0.7,0.2,1.4-0.2,2c-0.4-0.3-0.2-1.1-0.8-1.3
		c-1-0.3-2-0.6-2.9-0.9C66.6,230.2,66.6,230.9,66.2,230.9z"/>
	<path class="st14" d="M66.2,230.9c0.4-0.3,0.1-0.8,0.4-1.1c0.9,0.4,1.7,0.9,2.7,1c1.1,0.1,1.6,0.7,1.4,1.8c-1.2,0-2.4,0-3.6,0
		c-0.4-0.2-0.8-0.5-1.1,0C66,232,66.1,231.4,66.2,230.9z"/>
	<path class="st13" d="M75.7,231.3c-0.1-3-0.1-2.4,1.7-2.4c1.8,0,1.8,0,0.9,1.7C77.5,231.6,76.8,231.8,75.7,231.3z"/>
	<path class="st20" d="M106.6,228.9c-0.8-0.1-1.8-0.4-2.2,0.7c-0.1-0.5-0.3-1-0.4-1.5c-0.4-1.5-0.1-1.9,1.5-1.9
		c0.4,0,0.5,0.1,0.6,0.4C106.3,227.5,106.4,228.2,106.6,228.9z"/>
	<path class="st21" d="M75.7,231.3c1,0.1,1.8-0.3,2.6-0.7c0,0.4,0.1,0.8,0,1.2c-0.1,0.4,0.5,0.9,0,1.2c-0.7,0.3-1.6,0.5-2.3,0.1
		C75.4,232.8,75.8,232,75.7,231.3z"/>
	<path class="st22" d="M117.2,75.7c-0.1,0.7-0.5,1.2-1.2,1.2c-0.7,0-1.1-0.5-1.1-1.1c0-0.7,0.5-1.2,1.2-1.2
		C116.7,74.5,117.1,75,117.2,75.7z"/>
	<path class="st23" d="M115.2,72.3c-1.1,0.1-1.5-0.4-1.5-1c0-0.7,0.3-1.1,1.1-1.2c0.8,0,1.2,0.3,1.2,1.1
		C116,72,115.5,72.3,115.2,72.3z"/>
	<path class="st24" d="M74,231.3c-0.5,0-0.9,0-1.4,0c0-0.6-0.1-1.1,0-1.7c0-0.3-0.3-1,0.6-0.8c0.6,0.1,1.2,0,1,1
		C74,230.3,74,230.8,74,231.3z"/>
	<path class="st25" d="M119.4,69.4c-0.1,0.6-0.4,1-1.1,1c-0.7-0.1-1-0.6-0.9-1.2c0.1-0.6,0.5-1,1.2-0.9
		C119.3,68.3,119.4,68.8,119.4,69.4z"/>
	<path class="st25" d="M118.4,71.9c0.6,0.1,1,0.4,1,1c0,0.7-0.4,1.1-1.1,1.1c-0.6,0-0.9-0.4-0.9-1C117.4,72.3,117.8,72,118.4,71.9z"
		/>
	<path class="st26" d="M126.5,351c-0.3-0.5-1.1,0.1-1.4-0.5c0.6,0.2,1.2,0,1.9,0c0.3-0.1,0.3,0.1,0.3,0.3
		C127,350.9,126.8,350.9,126.5,351z"/>
	<path class="st27" d="M65.4,214.8c-0.1,0.3-0.3,0.6-0.4,0.9c0-0.6,0-1.2,0-2.1C65.2,214.1,65.5,214.4,65.4,214.8z"/>
	<path class="st9" d="M64.9,241.6c0.1,0.8,0.2,1.7-0.2,2.4C64.7,243.2,64.6,242.4,64.9,241.6z"/>
	<path class="st28" d="M72.3,226.8c0.2-0.1,0.3-0.2,0.5-0.3c0.4,0.1,0.8,0.2,1.2,0.2c0.1,0.4-0.2,0.3-0.4,0.3
		C73.1,227,72.7,227.1,72.3,226.8z"/>
	<path class="st29" d="M73.6,227.1c0.1-0.1,0.3-0.2,0.4-0.3c0.4,0,0.7,0.1,1.1,0.4C74.5,227.3,74,227.4,73.6,227.1z"/>
	<path class="st30" d="M127.3,350.8c-0.1-0.1-0.2-0.2-0.3-0.3c0.3-0.2,0.7-0.3,1.1-0.1C127.9,350.8,127.6,350.8,127.3,350.8z"/>
	<path class="st31" d="M104,224.4c0.2,0.1,0.4,0.2,0.5,0.3c-0.3,0.3-0.6,0.2-1,0.2c-0.3,0.1-0.3,0-0.3-0.3
		C103.5,224.6,103.8,224.5,104,224.4z"/>
	<path class="st10" d="M69.2,223.4c0.5-0.4,1-0.3,1.4,0C70.2,223.4,69.7,223.4,69.2,223.4z"/>
	<path class="st32" d="M103.3,224.6c0.1,0.1,0.2,0.2,0.3,0.3c-0.3,0.3-0.7,0.2-1.4,0.1C102.7,224.8,103,224.7,103.3,224.6z"/>
	<path class="st33" d="M48.4,22.7c2.6,3.6,3.3,7.6,2.5,11.9c-0.4,1.9-0.9,3.8-1.9,5.5c-2.3,4.2-2.8,8.6-2,13.3
		c0.4,2.1-0.3,3.1-2.2,3.7c-0.7,0.2-0.8,0-0.8-0.6c0.1-3.4,0-6.9,0.4-10.3c0.1-1.1,0-2.2,0.3-3.2c0.2,0.6,0.3,0.1,0.5,0
		c1.6-2.1,2.4-4.5,2.9-7.1c0.7-3.8,0.7-7.6,0.3-11.5C48.4,23.9,48.4,23.2,48.4,22.7z"/>
	<path class="st33" d="M42.4,45c-0.2,2.8-0.4,5.6-0.2,8.4c0.1,1.2,0.1,2.4,0.4,3.6c0.2,0.7,0.1,1-0.7,1.1c-0.5,0.1-1.1,0.2-1.6,0.4
		c0.3-1.1-0.4-2-0.6-3c-0.4-2.4-0.3-4.7-0.3-7.1c0-0.9,0.4-1.6,1.5-1.8C41.6,46.3,42.1,45.7,42.4,45z"/>
	<path class="st34" d="M42.6,39.7c0.1-0.2,0.3-0.4,0.4-0.3c0.3,0.3,0.1,0.7-0.1,1C42.8,40.2,43,39.8,42.6,39.7z"/>
	<path class="st35" d="M111.9,134.5c0.5,0.7,0.3,1.4,0.1,2.1c-1.4,4.2-4.1,7.5-7.7,10.1c-0.6,0.4-1.1,0.8-1.4,1.4
		c-0.4,0.6-1,1.1-1.8,0.9c-0.7-0.1-0.8-0.8-0.9-1.4c-0.7-2.3-1.4-3.2-3.2-4.4c-0.4,1.4,0.7,3.3-0.9,4.3c-1.1,0.7-2.1,1.9-3.7,1.9
		c-0.5-0.5-0.3-1,0.2-1.5c0.4-0.4,0.8-0.8,1.3-1c1.4-0.4,1.5-1.4,1.4-2.6c-0.1-1.2-0.4-2.6,1.1-3.1c1.4-0.5,1.9,0.9,2.7,1.5
		c1.2,1.1,1.9,2.5,2.3,4.1c0.2,0.7,0.4,0.7,1,0.4c0.5-0.3,0.9-0.6,1.3-1.1c2.5-3.5,5.3-6.8,6.7-10.9
		C110.5,134.6,111,134.2,111.9,134.5z"/>
	<path class="st35" d="M93.7,215.1c0.5,1,0.3,1.5-0.8,1.8c-1.9,0.6-3.8,0.9-5.7,1.2c-3.5,0.4-7,0.4-10.4-0.6
		c-1.8-0.6-3.5-1.5-4.4-3.3c-0.2-0.4-0.8-1.1,0.3-1.3c0.2,0.2,0.5,0.3,0.7,0.5c1.6,2.1,4,2.7,6.5,2.8c1.1,0.1,2.3,0.2,3.5,0
		c0.6-0.1,0.9-0.2,1-0.8c0.1-0.5,0.4-1,0.9-1.2c1-0.1,2.1-0.2,2.4,1.2c0.1,0.4,0.6,0.2,1,0.2c1-0.1,1.9-0.5,2.9-0.7
		C92.2,214.7,92.9,214.6,93.7,215.1z"/>
	<path class="st10" d="M85.1,214.3c-0.3,0.3-0.7,0.6-0.6,1c0.3,1.5-0.8,1.2-1.5,1.2c-2,0.1-4.1,0-6-0.5c-1.9-0.5-3.3-1.5-4.3-3.2
		c1.3-1.5,2.5-0.9,3.9-0.1c2,1.2,4.3,1.4,6.6,1.3c0.6,0,1.3,0,1.9,0C85.2,214.2,85.2,214.2,85.1,214.3z"/>
	<path class="st36" d="M117.4,148.1c0.1-1.7,0.9-3.1,2.1-4.4c1.7-1.9,3.8-3.1,6.2-3.6c0.4-0.1,0.8-0.1,1.2-0.1
		c0.5,0,0.7,0.3,0.8,0.7c0.1,0.5-0.2,0.8-0.6,0.9c-0.2,0.1-0.5,0.1-0.7,0.2c-3.8,0.7-6.4,2.9-7.7,6.5c-0.1,0.3-0.2,0.6-0.4,0.8
		c-0.2,0.1-0.4,0.2-0.5,0C117.3,148.9,117.4,148.5,117.4,148.1z"/>
	<path class="st37" d="M113.6,204.7c-0.1,0.5-0.4,0.8-0.7,1.1c-3.4,3-7.2,5.4-11.3,7.4c-0.5,0.2-1.2,0.7-1.5,0.1
		c-0.3-0.6,0.5-0.8,0.9-1.1c3.9-2.3,7.8-4.5,11.2-7.6c0.3-0.3,0.7-0.5,1.2-0.4C113.6,204.3,113.6,204.5,113.6,204.7z"/>
	<path class="st36" d="M84.9,176.7c0,0.9,0,1.8,0,2.6c0,0.5-0.2,0.9-0.7,1c-0.5,0.1-0.8-0.3-1-0.7c-0.3-0.8-0.4-1.7-0.4-2.6
		c-0.1-1-0.1-2,0-3c0-0.6,0.3-1.2,1-1.2c0.7,0,1,0.6,1.1,1.2C84.8,174.9,84.8,175.8,84.9,176.7C84.8,176.7,84.8,176.7,84.9,176.7z"
		/>
	<path class="st37" d="M86.7,206.1c-0.3,1.5,0.1,3,0.1,4.4c0,0.5,0,1.1-0.7,1.2c-0.7,0-0.8-0.6-0.9-1.1c-0.3-1.5-0.4-3.1-0.4-4.6
		c0-0.7,0.1-1.4,1-1.4C86.6,204.6,86.6,205.4,86.7,206.1z"/>
	<path class="st38" d="M85.8,193.5c0,0.7,0.1,1.3-0.2,1.8c-0.1,0.3-0.2,0.5-0.5,0.6c-0.3,0-0.5-0.2-0.6-0.5
		c-0.5-1.8-0.7-3.7-0.8-5.6c0-0.4,0.3-0.9,0.8-0.9c0.6,0,0.8,0.5,0.9,1C85.6,191.1,85.7,192.4,85.8,193.5z"/>
	<path class="st19" d="M85.1,214.3c0-0.1,0-0.2,0-0.3c2.3-0.3,4.6-0.3,7,0c0.7,0.1,1.2,0.4,1.6,1c-0.9-0.3-1.7,0-2.6,0.2
		c-0.9,0.2-1.8,0.5-2.6,0.7c-0.6,0.1-1.4,0.7-1.4-0.8C87.1,214.1,85.9,214.2,85.1,214.3z"/>
	<path class="st38" d="M83.6,161.1c0-1.1,0.2-2.2,0.5-3.2c0.1-0.5,0.3-1,0.9-0.9c0.7,0.1,0.6,0.7,0.6,1.1c-0.1,1.2-0.2,2.3-0.3,3.5
		c-0.1,0.6-0.1,1.5-1,1.3c-0.8-0.1-0.7-0.9-0.7-1.5C83.6,161.3,83.6,161.2,83.6,161.1z"/>
	<path class="st39" d="M83.9,168.6c-0.6-0.1-1.3-0.2-1.2-1c0-0.8,0.5-1.3,1.3-1.3c0.7,0,1.2,0.5,1.2,1.2
		C85.2,168.3,84.7,168.6,83.9,168.6z"/>
	<path class="st40" d="M83.2,184.6c0-0.7,0.2-1.3,0.9-1.3c0.7,0,1.2,0.4,1.3,1.1c0,0.7-0.3,1.3-1.1,1.3
		C83.5,185.8,83.3,185.2,83.2,184.6z"/>
	<path class="st41" d="M86.7,200.2c0,1-0.3,1.4-1.1,1.3c-0.7,0-1.1-0.4-1.2-1.1c-0.1-0.7,0.4-1.2,1-1.2
		C86.3,199.3,86.7,199.7,86.7,200.2z"/>
	<path class="st35" d="M85,346.2c-0.9-0.3-1.9-0.6-2.8-0.9c-0.3-0.1-0.8-0.2-0.7-0.7c0.1-0.5,0.6-0.4,0.9-0.3
		c1.7,0.2,3.2,0.8,4.8,1.5c0.8,0.5,1.7,0.9,2.4,1.6c0.4,0.3,0.7,0.7,0.4,1.3c-0.3,0.5-0.8,0.5-1.3,0.4c-2.8-0.7-5.6-0.9-8.4-0.5
		c-0.5,0.1-0.9-0.2-1.2-0.6c0-1,0.6-1.3,1.4-1.5c1.4-0.3,2.7,0,4.1,0c0.3,0.2,0.6,0,0.9,0.1c0,0,0.1,0,0.1,0
		C85.3,346.5,85.2,346.4,85,346.2z"/>
	<path class="st42" d="M122.2,345.5c0.1-0.8,0.6-1.3,1.3-1.6c2.4-1.4,5-2.4,7.9-2.5c0.4,0.2,0.6,0.5,0.2,1c-0.7,0.6-1.6,0.2-2.4,0.6
		c1.2-0.4,2.1,0.1,3.1,0.4c0.6,0.3,1.2,0.5,1,1.3c-0.2,0.9-1,0.7-1.6,0.6c-2.8-0.3-5.5-0.5-8.1,0.7
		C123.1,346.1,122.6,346,122.2,345.5z"/>
	<path class="st42" d="M74.3,244.8c-0.2,1.6-0.9,3-1.6,4.3c-1.1,1.9-2.6,3.4-4.2,4.9c-0.5,0.4-1,0.8-1.6,0.2
		c-0.6-0.6-0.1-1.1,0.3-1.5c2-1.8,3.6-3.9,5.1-6.1c0.5-0.7,0.7-1.3,0.4-2.1c-0.1-0.4-0.2-0.9-0.2-1.3c0-0.4-0.1-1,0.5-1.1
		c0.5-0.1,0.7,0.5,0.8,0.9C74.1,243.5,74.2,244.2,74.3,244.8z"/>
	<path class="st43" d="M81.2,240.9c0-1,0-2.1,0-3.1c0-0.4-0.1-0.9,0.4-1c0.6,0,0.4,0.6,0.5,0.9c0.1,1.9,0.2,3.9,0.3,5.8
		c0.1,2.4,0.8,4.3,3.3,5.1c0.8,0.3,1.9,0.7,1.4,1.7c-0.4,0.9-1.3,0.1-2-0.1c-3.1-1-3.9-3.6-4.1-6.5c0-1,0-1.9,0-2.9
		C81.1,240.9,81.2,240.9,81.2,240.9z"/>
	<path class="st44" d="M120.3,310.7c-0.2,0-0.4,0-0.6-0.1c-0.6-0.2-1.6-0.1-1.5-1c0-0.9,1-0.5,1.6-0.6c1.4-0.2,2.7-0.5,4-1.2
		c0.6-0.3,1.2-0.5,1.5,0.3c0.3,0.7-0.1,1.1-0.7,1.4C123.2,310.1,121.8,310.6,120.3,310.7z"/>
	<path class="st45" d="M127.8,294.2c0,0.6-0.1,1.1-0.8,1.2c-0.7,0.1-0.9-0.4-1-0.9c-0.2-1.1-0.5-2.3-0.3-3.4c0-0.4,0.2-0.9,0.7-1
		c0.6-0.1,0.7,0.5,0.8,0.9C127.3,292,127.5,293.1,127.8,294.2z"/>
	<path class="st46" d="M123.8,273.9c0-0.6,0.1-1.2,0.1-1.8c0-0.3,0.2-0.6,0.6-0.6c0.3,0,0.5,0.2,0.6,0.5c0.4,1.3,0.7,2.6,0.6,4
		c0,0.5-0.4,0.8-0.9,0.8c-0.5,0-0.9-0.3-0.9-0.7C123.9,275.3,123.9,274.7,123.8,273.9z"/>
	<path class="st47" d="M89.8,285.9c0,0.5,0,1,0,1.5c-0.1,0.5-0.3,0.9-0.9,0.9c-0.6,0-0.9-0.4-0.9-0.9c-0.1-1.2,0.1-2.4,0.4-3.5
		c0.1-0.4,0.3-0.8,0.8-0.8c0.6,0,0.6,0.5,0.6,0.9C89.8,284.6,89.8,285.3,89.8,285.9C89.9,285.9,89.8,285.9,89.8,285.9z"/>
	<path class="st48" d="M89.1,304c0.1,1.4,0.9,2.7,0.2,4c-0.9,0.5-1.4,0.1-1.6-0.7c-0.2-0.9-0.2-1.9-0.3-2.8c0-0.5,0-1.1,0.6-1.3
		C88.8,303,88.9,303.6,89.1,304z"/>
	<path class="st49" d="M88.9,266.5c0-0.6,0.1-1.2,0.1-1.8c0-0.4,0.2-0.8,0.7-0.8c0.5,0,0.7,0.3,0.8,0.7c0.2,1.1,0.3,2.2,0.1,3.3
		c-0.1,0.5-0.3,0.9-0.9,0.9c-0.6,0-0.8-0.5-0.9-1C88.9,267.5,89,267,88.9,266.5C88.9,266.5,88.9,266.5,88.9,266.5z"/>
	<path class="st46" d="M133.5,321.1c0,0.3,0,0.6,0,0.8c0,0.5-0.3,0.9-0.8,0.9c-0.6,0-0.9-0.3-0.9-0.9c-0.1-1.1-0.1-2.2-0.1-3.3
		c0-0.4,0.1-0.9,0.7-1c0.5,0,0.6,0.4,0.7,0.8C133.4,319.4,133.6,320.2,133.5,321.1z"/>
	<path class="st45" d="M88.7,276.5c0.1-0.6,0.1-1.4,0.3-2.2c0.1-0.4,0.2-1,0.7-0.9c0.5,0,0.6,0.6,0.7,1c0.3,1,0.1,2.1,0,3.1
		c0,0.6-0.3,1.1-0.9,1c-0.6,0-0.8-0.5-0.8-1.1C88.7,277.1,88.7,276.9,88.7,276.5z"/>
	<path class="st45" d="M89.2,295.6c0,0.6,0,1.1-0.1,1.7c-0.1,0.5-0.4,0.8-0.9,0.8c-0.5,0-0.8-0.3-0.9-0.8c-0.1-1.1,0.1-2.2,0.3-3.3
		c0.1-0.4,0.3-0.8,0.8-0.7c0.5,0,0.6,0.5,0.7,0.9C89.1,294.6,89.1,295.1,89.2,295.6C89.1,295.6,89.2,295.6,89.2,295.6z"/>
	<path class="st50" d="M91.1,334c0.5,1.7,1,3.4,0,5.1c-0.8,0.1-1.1-0.3-1.2-1c0-1.1-0.1-2.1,0-3.2C90,334.2,90.2,333.6,91.1,334z"/>
	<path class="st48" d="M79.7,312.9c0.6-0.1,1.1-0.2,1.7-0.2c0.5-0.1,1,0.1,1.1,0.6c0.2,0.6-0.2,1-0.7,1.2c-1,0.3-2.1,0.2-3.1-0.1
		c-0.5-0.2-0.9-0.5-0.8-1c0.1-0.7,0.7-0.5,1.1-0.5C79.2,312.9,79.5,312.9,79.7,312.9C79.7,312.9,79.7,312.9,79.7,312.9z"/>
	<path class="st51" d="M90.8,323c0.5,1.2,0.5,2.5,0.5,3.8c0,0.4,0,0.9-0.5,1.1c-0.6,0.3-0.9-0.1-1.2-0.5c0-1.1,0-2.2,0-3.3
		C89.7,323.4,89.8,322.8,90.8,323z"/>
	<path class="st45" d="M134.3,338.3c0,0.5,0,1,0,1.5c0,0.5-0.2,0.9-0.8,0.9c-0.5,0-0.8-0.3-0.9-0.7c-0.3-1.3-0.2-2.6,0.2-3.9
		c0.1-0.3,0.3-0.5,0.6-0.4c0.4,0,0.6,0.3,0.6,0.6C134.2,337,134.2,337.6,134.3,338.3C134.3,338.3,134.3,338.3,134.3,338.3z"/>
	<path class="st48" d="M132.2,312c-0.1,0.4,0,1-0.7,1.1c-0.6,0.1-0.8-0.4-0.9-0.9c-0.2-1-0.4-2-0.6-3c-0.1-0.4,0-0.8,0.5-1
		c0.5-0.1,0.7,0.2,0.9,0.6C131.8,309.8,132.1,310.9,132.2,312z"/>
	<path class="st48" d="M133.9,329.9c0,0.4,0,0.9,0,1.3c-0.1,0.5-0.4,0.8-0.9,0.8c-0.4,0-0.7-0.3-0.8-0.8c-0.1-1.1-0.1-2.2,0-3.3
		c0.1-0.4,0.3-0.8,0.7-0.8c0.5,0,0.7,0.4,0.7,0.8C133.9,328.5,133.9,329.2,133.9,329.9C134,329.9,134,329.9,133.9,329.9z"/>
	<path class="st46" d="M90.1,313.4c0.4,1.2,0.7,2.3,0.8,3.6c0.1,0.9-0.3,1.4-1.2,1.2c-0.7-1.3-0.7-2.8-0.7-4.2
		C89,313.4,89.3,312.9,90.1,313.4z"/>
	<path class="st52" d="M127.4,300.9c0-0.5,0-0.9,0.4-1.1c0.5-0.2,0.7,0.2,0.9,0.6c0.4,0.9,0.8,1.8,1.2,2.7c0.2,0.5,0.1,1-0.4,1.2
		c-0.5,0.2-0.9-0.1-1.1-0.5C128,302.8,127.5,301.8,127.4,300.9z"/>
	<path class="st45" d="M91.3,343.6c0.5,1.1,0.7,2.3,1,3.5c0.1,0.7,0,1.2-0.8,1.3c-0.9-0.7-1.6-3.8-0.9-4.6
		C90.8,343.5,91,343.5,91.3,343.6z"/>
	<path class="st45" d="M124.9,283c0.1-0.5-0.3-1.6,0.7-1.6c0.9-0.1,0.7,1.1,0.8,1.7c0.1,0.7,0.2,1.4,0.2,2.1c0,0.4-0.1,0.7-0.5,0.8
		c-0.5,0.1-0.8-0.1-0.9-0.6C124.9,284.7,124.8,284,124.9,283z"/>
	<path class="st53" d="M132.3,343.3c-1.2-0.1-2.3-0.1-3.7-0.2c1-0.7,2-0.8,3-0.8C131.4,343,132,343.1,132.3,343.3z"/>
	<path class="st54" d="M99.4,101c-0.3,0.6,0.3,2-1.5,1.7c-0.1,0-0.3,0.4-0.4,0.7c-1.4,2.9-3.5,5-6.2,6.6c-1.3,0.8-2.7,1.1-4.1,1.1
		c-1.9,0-3.5-0.7-4.3-2.6c-0.7-1.7-1.6-3.2-3.1-4.3c-0.2-0.2-0.4-0.4-0.2-0.7c0.1-0.2,0.4-0.2,0.6-0.2c5.5,1.5,10.4-0.4,15.1-2.9
		c0.5-0.3,1.3-0.4,0.6-1.3c-0.3-0.4,0.2-0.7,0.7-0.8C98.4,98,99.4,98.9,99.4,101z"/>
	<path d="M98.5,80.9c0,1.7-0.2,3.1-0.8,4.5c-0.3,0.7-0.8,1.5-1.7,1.5c-0.9,0-1.5-0.7-1.7-1.4c-1.1-3-1.1-6,0.1-9
		c0.3-0.7,0.8-1.3,1.7-1.3c0.8,0,1.2,0.7,1.6,1.3C98.3,78,98.5,79.5,98.5,80.9z"/>
	<path d="M82.2,80.9c0,1.5-0.2,2.9-0.8,4.3c-0.3,0.7-0.7,1.5-1.7,1.5c-1,0-1.5-0.6-1.7-1.4c-1.1-3-1.1-6.1,0.2-9.1
		c0.3-0.6,0.8-1.2,1.5-1.2c0.8,0,1.3,0.6,1.6,1.2C82,77.7,82.2,79.3,82.2,80.9z"/>
	<path class="st54" d="M80.2,63.5c0.1,0,0.6,0,1.1,0.1c2,0.2,2.6,1.2,2.1,3.1c-0.2,0.7-0.6,0.9-1.1,0.7c-3-1.3-5.6-0.2-8,1.5
		c-0.4,0.3-0.8,0.7-1.3,0.3c-0.6-0.4-0.2-0.9-0.1-1.4C73.7,65.2,76.5,63.4,80.2,63.5z"/>
	<path d="M94.9,63.7c2.4-0.1,4.5,0.6,6.2,2.5c0.7,0.8,1,1.8,1.2,2.8c0.1,0.3,0,0.5-0.3,0.7c-0.3,0.2-0.5,0.1-0.8-0.1
		c-0.2-0.1-0.3-0.3-0.4-0.4c-2.2-2.3-4.9-2.4-7.7-1.6c-0.9,0.3-1.2,0.2-1.4-0.8C91.3,64.2,91.8,63.7,94.9,63.7z"/>
	<path class="st11" d="M118.9,84.8c1.1,2.6-0.5,4.8-1.2,7c-0.3,0.9-1.1,1.7-2.2,1.5c-1.2-0.3-1.4-1.3-1.4-2.4c1,0,1.6-0.4,1.6-1.6
		c0.1-1.7,1.1-3,2.2-4.3C118.2,84.9,118.4,84.6,118.9,84.8z"/>
	<path class="st35" d="M118.9,84.8c-1.6,1.3-2.8,2.9-2.9,5.1c-0.1,1.3-0.6,1.6-1.9,1.1c-1.3-2.9,1.7-6.5,4.2-7.3
		c0.3-0.1,0.7-0.1,0.9,0.2C119.5,84.3,119.2,84.6,118.9,84.8z"/>
	<path class="st55" d="M87.1,115c-1.3-0.1-2.4-0.4-3.1-1.6c-0.2-0.4-0.4-1,0.1-1.3c0.5-0.3,0.6,0.3,0.9,0.6c0.4,0.5,1,0.7,1.6,0.7
		c1.5,0.1,3-0.3,4.5-0.8c0.5-0.2,1.2-0.5,1.4,0.3c0.2,0.7-0.4,1-0.9,1.2C90.1,114.6,88.6,114.8,87.1,115z"/>
	<path class="st35" d="M70.7,368.8c2-0.1,4-0.6,5.9-1.1c0.8-0.2,1.3,0,1.5,0.9c-0.3,0.5-0.8,0.8-1.3,0.9c-4,1-8,1.6-12.1,1.6
		c-2.8,0-5.7-0.3-8.5-0.9c-0.5-0.1-1.3-0.1-1.2-0.9c0.1-0.6,0.9-0.4,1.4-0.3c4.7,0.8,9.3,0.5,14-0.2
		C70.5,368.9,70.6,368.8,70.7,368.8z"/>
	<path class="st35" d="M73.4,365.2c-2.7,0-4.4-1.1-6.1-2.4c-0.3-0.2-0.6-0.6-0.4-0.9c0.2-0.4,0.7-0.1,1,0c1,0.5,2,1,3,1.4
		c1.3,0.5,2.5,0.5,3.8-0.1c2-1,3.7-2.4,5.8-3.1c0.8-0.3,1.7-0.9,2.2,0.2c0.4,0.9-0.7,1.2-1.3,1.5c-1.6,0.8-3.2,1.7-4.8,2.5
		C75.5,365,74.3,365.3,73.4,365.2z"/>
	<path class="st35" d="M133.1,357c-1.8-0.4-3.5-0.3-5.2,0c-0.4,0.1-0.9,0.2-1.1-0.3c-0.2-0.6,0.2-1,0.7-1.2c1.9-1,3.9-1.2,6-0.8
		c0.7,0.1,1.3,0.5,1.2,1.4C134.5,356.9,133.8,357,133.1,357z"/>
	<path class="st35" d="M133.2,358.9c0.5,0,1,0,1.4,0.3c0.5,0.3,0.7,0.7,0.6,1.2c-0.1,0.5-0.5,0.9-1,0.8c-1.8-0.3-3.6-0.2-5.5,0.1
		c-0.3,0-0.6,0-0.7-0.3c-0.1-0.4,0.2-0.7,0.5-0.9C130,359.2,131.6,359.1,133.2,358.9z"/>
	<path class="st35" d="M138.5,197.8c-0.4-1,0.4-1.1,1-1.2c1.6-0.4,3.3-0.6,5.2-1c-1.4-0.6-2.6-0.5-3.8-0.6c-2.3-0.2-4.5-0.3-6.8,0.1
		c-0.1,0-0.2,0-0.2,0c-0.4,0-1,0.3-1.3-0.3c-0.3-0.6,0.4-0.7,0.7-1c4.1-0.9,8.1-0.5,12.1,0.4c0.5,0.1,1,0.2,1.3,0.6
		c0.5,0.5,0.5,1.2-0.1,1.4C144,197.2,141.3,198,138.5,197.8z"/>
	<path class="st56" d="M15.8,155.9c-2.9-0.2-5.4-0.9-7.6-2.4c-0.3-0.2-0.9-0.5-0.7-1c0.3-0.6,0.8-0.1,1.1,0c2.8,1.1,5.7,1.5,8.6,1.8
		c0.2,0,0.5,0.1,0.7,0.1c0.2,0.1,0.5,0.1,0.5,0.4c0,0.3-0.2,0.5-0.5,0.6C17.2,155.8,16.4,156,15.8,155.9z"/>
	<path class="st57" d="M20.9,156.8c0.4-0.1,0.7-0.2,1.1-0.3c0.3-0.1,0.7-0.4,1,0c0.2,0.4-0.2,0.6-0.5,0.9c-0.1,0.1-0.3,0.2-0.5,0.4
		c-4.1,2.1-8.2,1.6-12.1-0.6C13.6,157.8,17.2,158.4,20.9,156.8z"/>
	<path class="st58" d="M85.5,346.7c-0.3,0-0.7,0-1-0.2c0.2-0.1,0.3-0.2,0.5-0.2c0.2,0.1,0.5,0.1,0.7,0.2
		C85.8,346.7,85.8,346.8,85.5,346.7z"/>
	<path class="st59" d="M85.5,346.7c0.1-0.1,0.1-0.2,0.2-0.3c0.2,0.1,0.4,0.2,0.5,0.3C86,347,85.8,346.9,85.5,346.7z"/>
	<path class="st6" d="M83.4,105.2c4.7,0.3,9-0.9,13-3.2c0.3,0.4,0,0.7-0.1,0.9c-1.2,2.7-3.2,4.6-5.7,6.2c-1,0.6-2.1,0.8-3.2,0.8
		c-1.5,0-2.8-0.4-3.4-2c-0.3-0.8-0.9-1.6-1.4-2.4C82.7,104.9,83.1,105.1,83.4,105.2z"/>
	<path class="st60" d="M83.4,105.2c-0.2,0.2-0.6-0.1-0.8,0.3c-0.2,0-0.3-0.2-0.3-0.3C82.7,104.7,83.1,105,83.4,105.2z"/>
</g>
</svg>
