<?xml version="1.0" encoding="utf-8"?>
<!-- Generator: Adobe Illustrator 25.2.2, SVG Export Plug-In . SVG Version: 6.00 Build 0)  -->
<svg version="1.1" id="circle_x5F_education_xA0_Image_1_"
	 xmlns="http://www.w3.org/2000/svg" xmlns:xlink="http://www.w3.org/1999/xlink" x="0px" y="0px" viewBox="0 0 470.9 470.9"
	 style="enable-background:new 0 0 470.9 470.9;" xml:space="preserve">
<style type="text/css">
	.st0{fill:#FEFEFE;}
	.st1{fill:#B1B1B1;}
	.st2{fill:#7A7C7D;}
	.st3{fill:#FE9800;}
	.st4{fill:#727475;}
	.st5{fill:#9B9E9F;}
	.st6{fill:#595A5B;}
	.st7{fill:#7A7C7C;}
	.st8{fill:#00C0CC;}
	.st9{fill:#545454;}
	.st10{fill:#797B7C;}
	.st11{fill:#B9B9B9;}
	.st12{fill:#008C95;}
	.st13{fill:#717374;}
	.st14{fill:#010101;}
	.st15{fill:#CDCDCD;}
	.st16{fill:#D2D6D7;}
	.st17{fill:#999C9D;}
</style>
<g>
	<circle class="st0" cx="234" cy="235.4" r="208"/>
	<path class="st0" d="M233.6,449.4c-30.4-0.1-59.6-6.3-87.4-18.7c-9.3-4.1-18.1-9-26.8-14.4c-1.5-0.9-2.5-2.2-2.8-4
		c-0.1-0.4-0.3-0.8-0.6-1c-0.8-0.6-1.7-1.1-2.5-1.7c-1.1-0.8-2.1-1.6-3.8-1.2c-0.8,0.2-2.1-0.3-2.9-0.9
		c-9.3-6.8-17.9-14.3-25.9-22.6c-1.3-1.3-2.1-2.8-1.8-4.7c0.1-0.3-0.2-0.7-0.4-0.9c-4-4.7-7.9-9.4-11.9-14.1
		c-0.2-0.3-0.7-0.5-1.1-0.6c-1.6-0.2-2.9-0.9-3.9-2.3c-17.3-23.5-29.3-49.4-35.9-77.8c-4.5-19.3-6.4-38.9-5.4-58.7
		c1.6-32.2,9.9-62.7,25.2-91.1C57.2,113.5,71.9,94.5,90,78.2c28.2-25.5,60.8-42.5,98-50.6c18.5-4.1,37.3-5.7,56.2-4.7
		c32.4,1.7,62.9,10.2,91.4,25.7c24.5,13.4,45.5,30.8,63.2,52.4c20.2,24.8,34.2,52.7,41.9,83.8c4.8,19.5,6.9,39.3,6.1,59.4
		c-1.3,32.8-9.6,63.7-25.1,92.6c-11.7,21.8-26.7,41-45,57.5c-27,24.3-58.2,40.8-93.6,49.3C266.8,447.4,250.3,449.4,233.6,449.4z"/>
	<path class="st1" d="M119.3,410.6c-2.6-1.8-5.2-3.6-7.8-5.3c0.4-2-0.8-3.1-2.2-4.2c-5-3.8-9.9-7.8-14.5-12.1
		c-2.9-2.6-5.8-5.2-8.5-8.1c-1.2-1.2-2.4-2.1-4.1-1.6c-1.9-2-3.8-4-5.6-6c-3-3.6-5.9-7.2-8.9-10.8c-0.2-0.2-0.5-0.3-0.8-0.5
		c0-0.2,0.1-0.4,0.2-0.5c0.9-1.3,0.9-1.7,0-3.1c-0.3-0.5-1.1-0.9-0.5-1.7c1.5,0.6,2.4,1.9,3.6,3c9.2,8.4,19,15.9,29.5,22.6
		c5.9,3.8,12.1,7.2,18.4,10.4c10.4,5.2,21.1,9.4,32.2,12.8c9.7,3,19.5,5.2,29.6,6.7c4.7,0.7,9.4,1.2,14.2,1.6
		c7.9,0.7,15.9,0.8,23.8,0.6c5.2-0.1,10.4-0.5,15.5-1.1c6.7-0.7,13.4-1.7,20-3.1c14.2-2.9,28-7.3,41.3-13.1
		c17.7-7.7,34-17.8,48.9-30c7-5.7,13.5-11.9,19.7-18.4c9.5-10.1,17.9-21.1,25.3-33c9-14.6,16.2-30.1,21.4-46.5
		c3.6-11.1,6.1-22.5,7.7-34.1c0.7-5.2,1.2-10.5,1.5-15.7c0.4-6.4,0.6-12.8,0.4-19.2c-0.1-4.5-0.4-8.9-0.9-13.4
		c-0.7-7.7-1.8-15.3-3.4-22.9c-3-14.6-7.5-28.8-13.6-42.4c-2-4.4-4.1-8.7-6.3-13c-0.2-0.3-0.5-0.7-0.2-1.1c0.6-0.2,0.8,0.3,1.1,0.7
		c6.9,8.8,13,18,18.4,27.7c4.4,8,8.3,16.2,11.6,24.7c5.6,14.2,9.5,28.9,11.8,44.1c0.8,5.5,1.4,11.1,1.8,16.7
		c0.6,7.6,0.6,15.2,0.4,22.8c-0.3,9.8-1.4,19.5-3.2,29.2c-1.9,10.7-4.7,21.1-8.3,31.4c-2.6,7.3-5.6,14.4-8.9,21.3
		c-4.3,8.9-9.3,17.5-14.8,25.7c-5,7.4-10.5,14.5-16.5,21.2c-4.3,4.9-8.9,9.5-13.6,14c-9.8,9.2-20.4,17.3-31.8,24.4
		c-5.3,3.3-10.8,6.4-16.4,9.2c-7.1,3.6-14.4,6.8-21.9,9.5c-6.6,2.4-13.3,4.5-20,6.2c-7.8,2-15.8,3.5-23.8,4.5
		c-5.6,0.7-11.3,1.2-16.9,1.5c-6.1,0.3-12.2,0.3-18.3,0.1c-12.8-0.4-25.4-2.1-37.9-5c-10.2-2.3-20.2-5.4-30-9.3
		c-9.7-3.8-19.1-8.4-28.1-13.7c-2.1-1.3-4.3-2.5-6.3-3.9c-1.1-0.7-2.2-1.1-3.4-0.2C119.7,410.7,119.5,410.7,119.3,410.6z"/>
	<path d="M66.4,356.9c0.3,0.5,0.6,1,1,1.5c1.1,1.6,1,2.6-0.4,3.8c-1.6,0.5-2.3,0.3-3.3-1.1c-16.1-21.9-27.6-46-34.4-72.4
		c-5.3-20.5-7.5-41.4-6.4-62.6c2.5-48,19.2-90.5,50.4-127.1c27.5-32.2,61.8-54.2,102.6-65.9c13.6-3.9,27.5-6.3,41.7-7.4
		c13.7-1,27.3-0.8,40.9,0.8c36.1,4.3,69,17,98.4,38.4c41,29.9,68,69.4,81,118.5c5.3,20,7.5,40.3,6.5,60.9
		c-2.8,58.1-25.4,107.2-67.9,146.9c-27.1,25.3-59,41.9-95,50.4c-19.2,4.5-38.6,6.2-58.3,5.2c-37-1.9-71.1-12.7-102.4-32.5
		c-1.7-1.1-1.9-1.8-1.3-3.6c1.4-1.3,2.1-1.3,3.8-0.2c18.3,11.6,38,20.1,59,25.5c11.1,2.9,22.4,4.8,33.9,5.7c11.3,1,22.5,1,33.8,0.1
		c40-3.3,76.2-16.8,108.2-41.1c36.5-27.8,61.2-63.8,74.1-107.8c3.3-11.2,5.4-22.6,6.7-34.2c1.3-11.8,1.6-23.7,0.8-35.6
		c-2.6-39.5-15.4-75.3-38.4-107.5c-2-2.8-4.1-5.4-6.2-8.1c-0.4-0.1-0.7-0.4-0.9-0.7c-5.1-6.3-10.5-12.3-16.2-17.9
		c-5.7-5.6-11.8-10.9-18.2-15.8c-7.7-6-15.8-11.4-24.2-16.2c-10.8-6.1-22-11.3-33.7-15.3c-11.8-4.1-23.8-7.1-36.1-9.1
		c-5.3-0.8-10.7-1.5-16.1-1.9c-6.1-0.4-12.1-0.8-18.2-0.7c-4.6,0.1-9.2,0.3-13.8,0.7c-8.7,0.6-17.3,1.9-25.9,3.6
		c-13.9,2.9-27.5,7.1-40.5,12.8c-11.7,5.1-22.8,11.2-33.3,18.4c-6.8,4.6-13.2,9.6-19.5,15c-5.1,4.4-9.9,9-14.6,13.9
		c-7.2,7.6-13.9,15.8-19.8,24.5c-5.2,7.5-9.8,15.3-14,23.3c-4.2,8.3-7.9,16.8-11,25.5c-3.2,8.9-5.6,17.9-7.5,27.1
		c-1.4,6.6-2.4,13.3-3,20c-0.5,5.4-0.9,10.7-1,16.1c-0.1,2.7-0.3,5.4-0.1,8c0.3,4.1,0.3,8.3,0.6,12.4c0.7,9,1.9,18,3.8,26.8
		c3,14.4,7.5,28.3,13.5,41.8c4.8,10.8,10.6,21.1,17.2,31c1,1.5,2.1,3,3.2,4.5C66.1,355.9,66.5,356.3,66.4,356.9z"/>
	<path d="M82.2,379.4c1.7-0.8,2.3-0.7,3.7,0.7c7.7,7.8,15.9,15,24.7,21.6c1.5,1.1,1.7,1.9,1,3.6c-1.4,1.1-2.2,1.2-3.6,0.1
		c-9-6.7-17.5-14.1-25.3-22.1C81.2,381.8,81.1,381.1,82.2,379.4z"/>
	<path class="st0" d="M66.4,356.9c-3.3-5-6.9-9.9-10-15c-12.8-21.3-21.4-44.1-25.9-68.6c-3-16.2-4-32.6-3-49.1
		c1.6-28.8,8.9-56.2,22.1-81.9c19.3-37.5,47.4-66.5,84.2-87.1c19.3-10.8,39.9-18.1,61.6-22.2c16.1-3,32.3-4.1,48.6-3.3
		c32.1,1.7,62.1,10.3,90.2,25.9c23.1,13,43,29.8,59.8,50.4c0.4,0.4,0.7,0.9,1,1.3c1,2.1,2.1,4.1,3.1,6.2c7.7,15.6,13.5,31.9,17,49
		c1.3,6.4,2.3,12.9,3.1,19.5c0.7,5.3,1,10.6,1.2,16c0.2,4.7,0.4,9.4,0.2,14c-0.3,6.1-0.8,12.2-1.4,18.2c-0.9,9.4-2.7,18.6-5,27.7
		c-2.8,11.2-6.6,22-11.3,32.5c-5.2,11.8-11.5,23.1-18.8,33.8c-5,7.2-10.3,14.2-16.2,20.6c-4.3,4.6-8.6,9.3-13.2,13.6
		c-10.9,10.3-22.8,19.2-35.7,26.9c-14.1,8.4-28.9,15.1-44.5,20c-9.6,3-19.3,5.4-29.2,6.8c-6.5,0.9-13,1.7-19.6,2.1
		c-7,0.4-14.1,0.6-21.2,0.4c-15.7-0.5-31.2-2.8-46.4-6.9c-11.1-3-21.9-6.8-32.4-11.6c-11.3-5.2-22.1-11.3-32.3-18.3
		c-7-4.8-13.7-10.1-20-15.8C70.4,360.4,68.4,358.7,66.4,356.9z"/>
	<path d="M378.9,233.1c1.8,2.5,1.8,5.5,1.9,8.4c0,0.4-0.4,1.1-0.8,1.3c-1.8,1-3.8,1.9-5.6,2.9c-7.8,4.2-16.1,6.4-25,6.4
		c-1.1,0-2,0.3-2.9,1c-3.1,2.5-8.5,2.4-10.9-1.7c-0.4-0.8-1-0.5-1.5-0.4c-4.1,0.6-8,0.1-11.7-1.5c-5.7-2.5-8.5-7.1-9.6-13
		c-1.1-6.2-0.2-12.3,1.1-18.4c2.2-10.4,6.1-20.3,10.3-30.1c3.2-7.6,6.4-15.1,8.4-23.2c1.5-6,2.3-12.2,1.6-18.4
		c-0.2-1.4-0.5-2.7-0.8-4.1c-0.6-0.7-0.6-1.6-0.9-2.5c-1.6-5.8-4.7-10.8-8.6-15.4c-7.6-8.8-17.2-14.8-27.8-19.4
		c-1.7-0.7-3.3-1.4-5-1.9c-2.3-0.9-4.8-1.5-7.1-2.6c-0.1-0.1-0.2-0.1-0.3-0.1c-0.7-0.4-1.8-0.6-1.5-1.8c0.4-1.4,1.3-2.1,2.6-1.9
		c1.5,0.2,2.8,0.8,4.2,1.3c10.5,3.4,20.3,8.2,29,15.2c6.6,5.2,12.1,11.4,15.9,18.9c0.6,1.2,1,2.4,1.6,3.6c0.4,1,0.7,2,1,3
		c0.2,0.9,0.8,1.3,1.6,1.3c4.3,0.2,8.6,0.7,12.9,1c4.4,0.3,8.8,0.7,13.3,1.1c3.1,0.3,6.2,0.4,9.4,0.8c-1.6-1.3-3.2-2.6-4.7-3.9
		c-11.6-9.7-23.3-19.3-34.9-28.9c-10.9-9-21.7-18-32.6-27c-2.2-1.8-4.4-3.6-6.6-5.4c-0.8-0.6-1.6-1-2.6-1.1
		c-9.3-1.2-18.6-2.5-27.9-3.7c-10.1-1.3-20.1-2.6-30.2-4c-8.6-1.1-17.3-2.3-25.9-3.4c-8.2-1.1-16.5-2.2-24.7-3.3
		c-0.3,0-0.6-0.2-0.9-0.1c-0.1,0.2,0,0.3,0.1,0.4c2.6,2.5,5,5.3,7.6,7.8c4.7,4.6,9.2,9.4,13.8,14.1c3,3,6,6,8.9,9.1
		c6.1,6.5,12.4,12.8,18.6,19.2c3,3.1,6.2,6.1,9.1,9.4c3.1,3.5,6.6,6.6,9.8,10.1c0.5,0.5,1,0.8,1.7,0.8c4,0.3,8,0.7,12.1,1
		c3.3,0.3,6.7,0.6,10,0.9c3.3,0.3,6.5,0.5,9.8,0.8c4.1,0.4,8.3,0.7,12.4,1.1c3.2,0.3,6.4,0.6,9.7,0.8c3.3,0.3,6.7,0.6,10,0.9
		c3.2,0.3,6.4,0.6,9.7,0.8c1,0.1,1.9,0.2,2.9,0.3c1.5,0.2,2.1,1.6,1.3,2.7c-0.6,0.3-1.3,0.8-1.9,0.9c-1,0.1-2.1-0.1-3.1-0.2
		c-0.2,0-0.5,0.2-0.6,0.3c-0.8,2.5-1.4,5-2.2,7.5c-3.6,11.3-7.3,22.5-11,33.8c-0.4,1.2-1,2-2.1,2.4c-3.1,1-6.2,2.1-9.3,3.1
		c-0.9,0.3-1.3,0.6-1.3,1.6c0,35.1,0,70.3,0,105.4c0,1.2,0.1,2.3-0.7,3.3c-1,0.9-2.4,0.7-3-0.6c-0.3-0.7-0.4-1.5-0.5-2.2
		c0-0.7,0-1.4,0-2c0-33.8,0-67.7,0-101.5c0-0.2,0-0.4,0-0.6c0-1.9,0-1.9-1.8-1.7c-1,0.1-2,0.3-3,0.3c-0.8,0-1.1,0.5-1.1,1.2
		c0,0.4,0,0.7,0,1.1c0,46.9,0,93.7,0,140.6c0,2,0,2,2,1.4c1.1-0.3,2.2-0.5,3.3-0.6c0.9-0.1,1.2-0.5,1.2-1.3c0-0.2,0-0.4,0-0.6
		c-0.2-6.7,0.3-13.3,0.3-20c0-1.6,0.2-3.3,0.3-4.9c0.1-1.6,1.3-2.2,2.5-1.3c0.2,0.6,0.5,1.1,0.5,1.7c0.2,3.9,0.4,7.8,0.4,11.7
		c0.1,10.7,0.2,21.4,0.2,32c0,1.2-0.1,2.3-0.2,3.5c-0.1,1-0.8,1.6-1.8,1.7c-0.6,0.1-1.3,0-1.9,0c-24.1,0-48.2,0-72.4,0
		c-0.4,0-0.9,0-1.6,0c0.3,0.5,0.5,0.8,0.7,1.2c2.1,3.3,4.2,6.5,6.2,9.8c1,1.6,1.7,3.2,2.6,4.9c0.5,1.1,0,2.1-1.2,2.2
		c-0.6,0.1-1.3-0.1-1.9-0.2c-4.9-1-9.8-1.9-14.4-3.9c-0.7-0.3-0.7,0.2-0.8,0.6c-1.5,5.1-3,10.1-4.5,15.2c-0.3,1.1-0.7,2.1-1.1,3.2
		c-0.9,2.1-2.8,2.3-4,0.4c-0.9-1.3-1.7-2.7-2.3-4.2c-3.8-8-7.6-16.1-11.3-24.1c-0.5-1-0.9-2-1.4-2.9c-0.1,0-0.2,0.1-0.3,0.1
		c-0.3,3.6-0.7,7.3-1,10.9c-0.8,8.3-1.5,16.6-2.3,25c-0.1,0.7-0.2,1.5-0.5,2.2c-0.7,1.7-2.2,2-3.6,0.7c-0.8-0.8-1.5-1.6-2.1-2.5
		c-3.2-4.3-6.4-8.6-9.6-12.9c-0.5-0.7-0.7-0.6-1.3-0.1c-4.2,3-8.5,6-12.8,8.9c-0.5,0.3-1.6,0.4-2.1,0.1c-0.4-0.2-0.6-1.2-0.5-1.9
		c1.2-11.2,4.5-22,7.1-32.9c0.1-0.2,0.1-0.5,0.1-0.7c-0.2-0.4,0-0.9,0.1-1.3c0.6-2.3,1.3-4.5,2-6.8c0.4-1.3,0.3-1.4-1-1.4
		c-2.6,0-5.3,0-7.9,0c-0.9,0-1.2,0.3-0.8,1.1c0.7,1.7,1,3.5,1.2,5.4c0.1,0.9,0.5,1.3,1.4,1.2c0.7,0,1.4,0,2.1,0.5
		c0.8,0.6,0.9,1.2,0.3,2c-0.8,0.2-1.6,0.7-2.3,0.7c-7.2,0.1-14.4,0.1-21.6,0.1c-2.1,0-2.4-0.5-2.3-2.6c0.1-2.7,0-5.4,0-8.2
		c-0.1-25.3-0.2-50.6-0.2-75.9c-0.1-45.6-0.1-91.2-0.2-136.8c0-0.4,0-0.8,0-1.2c0.1-1.4,0.9-2.2,2.3-2.2c6.1-0.1,12.2-0.2,18.4-0.2
		c14.4,0,28.7,0,43.1,0c1,0,1.5-0.3,1.9-1.2c0.8-1.8,1.8-3.4,2.7-5.2c0.4-0.8,1-1.3,1.9-1.4c1.6,0.2,2.2,1.5,1.4,3
		c-1,1.7-1.8,3.6-2.8,5.3c-0.7,1.1-0.7,2.3-0.3,3.5c1.8,6,5.1,11.2,9.1,15.9c7.8,9.2,17.4,16.1,27.8,22.1
		c7.4,4.3,15.1,7.9,23.2,10.4c5.6,1.8,11.3,3,17.1,3.6c2.3,0.2,4.6,0.5,6.9,0.4c7.6,0.1,15-1,22.3-3.3c2.3-0.7,3.6-1.9,4.4-4.3
		c3.7-11.6,7.4-23.2,11.3-34.8c0.2-0.7,0.4-1.4,0.6-2.1c0.2-0.6,0-0.9-0.6-0.9c-2.9-0.2-5.7-0.5-8.6-0.7c-3.2-0.3-6.4-0.6-9.7-0.8
		c-3.3-0.3-6.5-0.6-9.8-0.8c-3.2-0.3-6.4-0.6-9.5-0.8c-3.3-0.3-6.5-0.6-9.8-0.8c-3.3-0.3-6.7-0.6-10-0.9c-3.1-0.3-6.3-0.5-9.4-0.8
		c-1-0.1-2-0.3-3-0.3c-0.6,0-1-0.4-1.4-0.8c-6-6-12-12.1-17.8-18.3c-0.1-0.1-0.2-0.2-0.3-0.4c-4.9-4.7-9.4-9.8-14.3-14.5
		c-1.1-1.1-1.1-1.1-1.9,0.3c-3.1,5.8-6.1,11.6-9.2,17.4c-0.2,0.3-0.4,0.6-0.7,0.8c-1.2,1.1-2.5,0.6-2.9-0.9c0.2-0.6,0.2-1.3,0.5-1.9
		c3.3-6.3,6.6-12.6,10-18.9c0.4-0.8,0.3-1.2-0.3-1.8c-11.8-12.1-23.6-24.2-35.3-36.2c-0.2-0.2-0.4-0.5-0.7-0.7
		c-0.6-0.6-0.9-1.2-0.5-2c0.4-0.8,1.1-1.1,2-1c2.6,0.3,5.1,0.7,7.7,1c8.2,1.1,16.4,2.2,24.6,3.3c8.1,1.1,16.2,2.1,24.4,3.2
		c8.2,1.1,16.4,2.2,24.6,3.3c8.1,1.1,16.2,2.1,24.4,3.2c3.8,0.5,7.6,1,11.4,1.6c0.7,0.1,1.4,0.4,1.9,0.8
		c17.8,14.7,35.7,29.5,53.5,44.3c10,8.3,20,16.6,30,24.9c0.3,0.2,0.5,0.5,0.8,0.7c0.7,0.5,1.2,1.2,0.9,2.1c-0.4,1-1.2,1.2-2.1,1.1
		c-2.2-0.2-4.4-0.4-6.6-0.5c-7.4-0.6-14.7-1.2-22.1-1.8c-4.1-0.3-8.3-0.7-12.4-1c-0.6,0-0.9,0-0.8,0.7c1.4,9,0,17.7-2.9,26.2
		c-2.8,8.1-6.1,16-9.3,23.9c-3.5,8.6-6.6,17.3-8.4,26.4c-0.9,4.9-1.6,9.8-0.7,14.8c1.4,7.6,6.2,11.7,13.9,12c0.2,0,0.5,0,0.7,0
		c1,0,2.3,0.3,3.1-0.2c0.6-0.4,0.6-1.7,0.9-2.6c0.6-1.4,1.1-2.8,1.9-4.1c1.2-2.1,4.1-3.1,6.6-2.5c0.6,0.2,0.9,0,1.3-0.5
		c1.1-1.2,2.4-2.3,3.7-3.4c3.5-2.9,7.2-5.7,10.7-8.7c1.1-1,1.9-2.3,3-3.4c0.4-0.4,1.3-0.7,1.8-0.5c2.7,0.7,5.1,2,7,4.8
		c0.8-1,1.6-1.9,2.4-2.8c0.8-1,1.8-1.2,2.9-0.7c2.4,1,4.1,2.8,5.1,5.1c0.6,1.2,0.2,2.1-0.9,2.9c-1.1,0.6-1.6-0.3-2-1
		c-0.6-1-1.2-1.9-2-2.7c-0.6-0.7-1.1-0.8-1.9-0.1c-1.8,1.6-3.5,3.2-5.4,4.7c-2.1,1.6-4.3,2.9-6.7,3.9c-0.6,0.3-1.3,0.6-1.8-0.1
		c-0.5-0.7-0.1-1.4,0.4-1.9c1-1,2-1.8,3.2-2.6c1.1-0.8,2.3-1.6,3.3-2.6c0.4-0.4,0.6-0.6,0-1c-1.2-0.8-2.3-1.5-3.6-2.2
		c-0.6-0.3-1.1-0.2-1.4,0.3c-3,4.3-7.4,7.2-11.5,10.2c-1.2,0.9-2.3,1.8-3.4,2.6c-0.8,0.6-0.8,1.1-0.2,1.9c1.3,1.6,2,3.5,2.2,5.5
		c0,0.3,0.1,0.6,0.1,0.8c-0.1,1.7-0.1,1.6,1.6,1.5c9-0.7,17.3-3.7,25.1-8.2c0.6-0.4,0.9-0.7,0.9-1.5c-0.1-0.7-0.1-1.4-0.3-2.1
		c-0.2-1.1-0.4-1.1-1.3-0.4c-0.5,0.4-1.1,0.8-1.6,1.3c-3.2,2.6-6.8,4.6-10.5,6.4c-0.5,0.2-1,0.4-1.5,0.5c-0.7,0.2-1.5,0.2-1.9-0.6
		c-0.4-0.7,0.1-1.3,0.6-1.8c1.5-1.3,3.3-2.1,5-3c3.1-1.7,6-3.6,8.9-5.7c0.7-0.5,1.5-0.9,2.4-1.1
		C377.8,232.2,378.5,232.2,378.9,233.1z"/>
	<path class="st2" d="M201.6,120.2c1,1.7,2.1,1.7,3.3,0c0.1-0.1,0.2-0.2,0.3-0.1c2.7,1.4,5.8,1.4,8.5,2.7c3.8,1.8,7.6,3.7,11.3,5.7
		c4.1,2.3,8.3,4.5,12.2,7.1c4.8,3.2,9.4,6.8,13.7,10.7c10.5,9.4,18.8,20.5,25.7,32.7c1.5,2.7,3.2,5.4,4.8,8c0.2,0.4,0.7,0.7,0.3,1.3
		c-6.3,0-12.6-0.9-18.7-2.5c-19.8-5.3-37-15.2-51.9-29.2c-5.7-5.4-10.4-11.7-13.3-19.2c-0.9-2.5-1.1-4.7,0.5-6.9
		c0.8-1.1,1.3-2.5,2-3.7c0.8-1.5,0.6-2.2-1-3C200.3,122.6,201,121.4,201.6,120.2z"/>
	<path class="st3" d="M297.8,307.5c-1.5-0.4-2.2,0.1-2.2,1.8c-0.2,8.4-0.3,16.9-0.5,25.3c0,1.1-0.3,1.4-1.4,1.5
		c-1.9,0.2-3.8,0.7-5.8,1.1c0-0.2,0-0.6,0-0.9c0-47.8,0-95.6,0-143.5c0-1,0.2-1.3,1.2-1.3c1.4,0,2.8-0.2,4.2-0.5
		c1.2-0.2,1.3,0.2,1.3,1.3c0,9.6,0,19.2,0,28.8c0,24.8,0,49.6,0,74.4c0,1,0,2,0.1,3c0.2,1.9,1.1,2.5,3,1.8
		C297.8,302.6,297.8,305.1,297.8,307.5z"/>
	<path class="st4" d="M330,142.1c0.4-1.6-0.2-2.3-1.8-2.5c-8.9-0.8-17.7-1.6-26.6-2.3c-7-0.6-14-1.2-21-1.8
		c-7.9-0.7-15.8-1.4-23.7-2.1c-0.9-0.1-1.8-0.3-2.7-0.2c-2.3,0.2-3.7-0.9-5.2-2.5c-11.4-11.8-22.9-23.5-34.4-35.3
		c-10.7-11-21.4-21.9-32.1-32.9c-0.2-0.2-0.4-0.5-0.9-1c0.9,0.1,1.5,0.2,2.1,0.3c1.5,0.8,2.6,2,3.8,3.1c1.5,1.4,3.2,2.8,4.6,4.3
		c5.1,5.2,10.3,10.1,15.5,15.2c3.4,3.4,6.8,6.8,10.3,10.1c5.4,5.1,10.7,10.4,16,15.5c3.5,3.3,6.8,6.9,10.4,10.2
		c2.5,2.3,4.9,4.7,7.3,7.1c0.5,0.5,1.1,0.9,1.9,0.9c4.1,0.3,8.1,0.7,12.2,1c4.1,0.4,8.3,0.7,12.4,1.1c4.2,0.4,8.4,0.7,12.5,1.1
		c4.1,0.3,8.2,0.7,12.3,1.1c3.2,0.3,6.4,0.5,9.5,0.8c3.1,0.3,6.3,0.5,9.4,0.8c1.8,0.2,3.6,0.4,5.4,0.4c0.1-0.6-0.2-0.9-0.4-1.2
		c-1.7-3-3.9-5.8-6.2-8.4c-6.4-7-13.6-13.1-22-17.6c-2.1-1.2-4.2-2.4-6.4-3.5c-0.4-0.2-1-0.3-0.9-0.9c2.9,1.2,5.8,2.2,8.6,3.5
		c8.6,4,16.3,9.2,22.9,16.2c5.1,5.5,8.9,11.7,10.7,19.1c0,0.2,0,0.4,0,0.6C332.2,142.3,331.1,142.2,330,142.1z"/>
	<path class="st5" d="M378.9,233.1c-1.3-1.1-2.5-0.4-3.6,0.3c-4.3,2.6-8.5,5.2-12.7,7.9c-0.7,0.4-1.4,1-2,1.5
		c-0.2,0.2-0.3,0.8-0.2,1.1c0.1,0.3,0.6,0.5,1,0.5c0.5,0,0.9-0.2,1.4-0.4c4.7-2.1,9.1-4.8,13.1-8.2c0.7-0.6,1-0.6,1.2,0.3
		c0.2,1.1,0.4,2.3,0.5,3.4c0,0.3-0.2,0.7-0.5,0.8c-7.6,4.5-15.6,7.6-24.5,8.4c-0.9,0.1-1.8,0.1-2.7,0.3c-0.6,0.1-0.8-0.1-0.7-0.7
		c0.5-3.1-0.6-5.7-2.5-8c-0.4-0.5-0.4-0.8,0.1-1.1c1.7-1.3,3.4-2.6,5-3.9c3.1-2.6,6.1-5.2,9.2-7.8c0.2-0.2,0.4-0.5,0.6-0.7
		c1.5-1.9,1.5-1.9,3.6-0.7c1.1,0.7,2.2,1.4,3.5,2.2c-1.4,1.1-2.7,2.1-4,3.1c-1.2,0.9-2.4,1.8-3.5,2.9c-0.3,0.3-0.3,1-0.5,1.6
		c0.5,0,1.1,0.2,1.5,0c3.4-1.4,6.3-3.4,9-5.9c1.1-1,2.3-2,3.3-3.1c0.6-0.7,1.1-0.6,1.6,0c0.8,1,1.6,2,2.3,3c0.5,0.7,0.9,1.3,1.9,1.2
		C379.9,231.8,379.4,232.4,378.9,233.1z"/>
	<path class="st3" d="M155.9,357.8c0.3-1.3-0.1-1.9-1.5-2.1c-0.8-0.1-1.9,0.1-2.4-0.4c-0.5-0.5-0.2-1.6-0.4-2.4
		c-0.4-1.6-0.8-3.2-1.3-4.7c-0.2-0.7-0.1-0.9,0.6-0.9c3.2,0,6.5,0,9.7,0c0.5,0,0.8,0,0.6,0.7c-0.9,3-1.8,6-2.8,9
		C157.7,357.3,156.8,357.6,155.9,357.8z"/>
	<path class="st0" d="M160.1,178.8c-0.7,0.9-0.3,1.5,0.5,1.9c0.7,0.3,1.5,0.3,2.2,0.3c25.5,0,51,0,76.5,0c0.9,0,1.8,0.2,2.6,0.6
		c9.5,4.6,19.3,7.9,29.8,9.3c4.2,0.5,8.4,0.6,12.7,0.8c0.9,0,1.1,0.2,1.1,1.1c0,48.1,0,96.3,0,144.4c0,1.1-0.3,1.7-1.2,2.4
		c-1.4,1.1-2.6,2.4-3.7,3.7c-0.5,0.6-0.8,0.9-1.7,0.7c-0.6-0.2-1.3-0.1-1.9-0.1c-14.4,0-28.7,0.1-43.1,0.1c-0.7,0.2-1.5,0.1-2.3,0.1
		c-5.7,0-11.5,0-17.2,0c-0.4,0-0.9,0.2-1.1-0.2c-0.2-0.4,0.2-0.8,0.5-1.1c2.9-3.4,5-7.2,6.5-11.4c1.6-4.4,1.8-9,1.3-13.6
		c-0.1-0.7-0.1-1.3,0-2c0.5-9.6-1.8-18.3-7.8-25.8c-8.5-10.8-19.8-15.7-33.5-14.5c-16.4,1.4-30,13.4-33.2,29.5
		c-3.1,15.6,2,28.5,14.5,38.4c0.2,0.2,0.5,0.4,0.9,0.7c-0.6,0-0.9,0.1-1.2,0.1c-3.4,0-6.9-0.2-10.3,0.1c-2,0.2-3.1-0.3-4.2-1.9
		c-1-1.4-2.6-2.4-3.9-3.5c-0.3-0.2-0.6-0.6-0.6-0.9c0-9.6,0-19.3,0-28.9c0-52.3,0-104.5,0-156.8c0-0.8,0.3-1.2,0.8-1.7
		c1.5-1.3,2.9-2.8,4.4-4.2c0.3-0.3,0.8-0.6,1.2-0.6c16.1,0,32.2,0,48.2-0.1c0.9,0,1.5,0.3,2,1.1c4,6.4,9.1,11.7,14.7,16.6
		c0.1,0.1,0.3,0.3,0.6,0.6c-0.6,0-1,0-1.5,0c-16.7,0-33.4,0-50.1,0c-0.4,0-0.9,0-1.3,0c-1.8,0.1-2.6,0.9-2.6,2.7c0,2.5-0.1,5,0,7.6
		c0,0.7,0.5,1.3,0.7,1.9C160.3,177.2,160.6,177.9,160.1,178.8z"/>
	<path class="st5" d="M291.1,103c1.8,1,3.6,2,5.4,3c9.2,4.8,17.3,11.2,24.2,19c2.5,2.8,4.5,6.1,6.7,9.2c0.2,0.3,0.2,0.6,0.3,1
		c-0.3,0-0.6-0.1-0.9-0.1c-3.2-0.3-6.4-0.5-9.6-0.8c-3.2-0.3-6.3-0.6-9.5-0.9c-2.1-0.2-4.1-0.3-6.2-0.5c-3.5-0.3-7-0.6-10.5-0.9
		c-3.2-0.3-6.3-0.5-9.5-0.8c-3.3-0.3-6.6-0.6-9.9-0.9c-2.1-0.2-4.1-0.3-6.2-0.5c-3.5-0.3-7-0.6-10.5-0.9c-0.4,0-0.9,0.1-1.3-0.1
		c-0.8-0.3-1.7-0.5-2.3-1c-5.4-5.2-10.8-10.6-16.2-15.9c-5.3-5.2-10.6-10.3-15.9-15.4c-3.4-3.3-6.7-6.5-10-9.8
		c-6.2-6-12.3-12.1-18.6-18c-2-2-4.2-3.8-6.3-5.7c-0.3-0.3-0.5-0.6-0.8-0.9c4,0.5,8.1,1,12.1,1.5c7.6,1,15.2,2,22.8,3
		c8.2,1.1,16.3,2.2,24.5,3.2c7.5,1,15,2,22.6,3c8.2,1.1,16.5,2.3,24.7,3.2c2.8,0.3,4.9,1.4,7,3.2c23.5,19.5,47,39,70.5,58.5
		c0.5,0.4,0.9,0.8,1.3,1.2c-0.2,0.7-0.8,0.4-1.2,0.4c-4.4-0.4-8.9-1-13.3-1.4c-4.1-0.4-8.3-0.8-12.4-1.1c-1.9-0.2-3.9-0.4-5.8-0.5
		c-0.5,0-0.8-0.2-1.1-0.6c-6-14.3-17.1-23.5-30.4-30.7c-6.1-3.3-12.6-5.7-19.2-7.7c-1.8-0.5-2.4-0.2-3.1,1.1
		c-0.4,0.7-0.2,1.2,0.4,1.5c1.2,0.5,2.3,1,3.5,1.5C288,101.9,289.6,102.4,291.1,103z"/>
	<path class="st6" d="M282,188.4c-1.6-2.7-3.2-5.4-4.8-8.1c-2.6-4.2-5.1-8.6-7.9-12.7c-2.9-4.1-6.1-8.1-9.4-11.9
		c-2.2-2.6-4.7-5.1-7.2-7.5c-6.2-5.8-12.8-11-20.2-15.1c-5.3-3-10.7-5.9-16.1-8.6c-2.3-1.2-4.8-2-7.2-2.8c-1.4-0.4-2.9-0.5-4.1-1.4
		c3.4-6.4,6.7-12.8,9.9-18.9c2.5,2.4,5,4.7,7.5,7.1c0.3,0.2,0.5,0.5,0.7,0.8c5.6,5.8,11.3,11.5,17,17.3c2.5,2.5,5,4.9,7.3,7.6
		c1.5,1.7,3.1,2.3,5.3,2.4c8.2,0.6,16.4,1.4,24.6,2.1c6.1,0.5,12.2,1,18.4,1.5c6.9,0.6,13.7,1.2,20.6,1.8c1.4,0.1,2.7,0.3,4.1,0.3
		c0.9,0,1,0.3,0.8,1.1c-2.3,6.9-4.5,13.9-6.8,20.8c-2,6.1-4,12.1-5.9,18.2c-0.3,0.8-0.7,1.3-1.5,1.7c-5,2-10.3,3.3-15.6,3.8
		C288.1,188.2,285,188.2,282,188.4z"/>
	<path class="st3" d="M139.6,152.9c0,61.4,0,122.8,0,184.1c-2.1-0.3-4.1-0.6-6.1-1c-0.2,0-0.5-0.7-0.5-1.1c0-6,0-12,0-18
		c0-39.7,0-79.5,0-119.2c0-14.2,0.1-28.4,0.1-42.6c0-0.9,0.2-1.2,1.2-1.3C136.1,153.6,137.8,153.2,139.6,152.9z"/>
	<path class="st7" d="M218.4,312.8c-0.1,19.1-15.5,34.6-34.5,34.5c-18.9-0.1-34.2-15.7-34.1-34.8c0.1-18.5,15.8-33.9,34.6-33.8
		C203,278.8,218.5,294.3,218.4,312.8z"/>
	<path class="st8" d="M183.6,360.7c-0.6,7.2-1.2,14.3-1.9,21.5c-0.3,3.9-0.7,7.9-1.1,12.1c-0.4-0.4-0.6-0.7-0.8-0.9
		c-3-3.9-5.9-7.8-9-11.7c-0.6-0.8-1.5-1.5-2.4-2.1c-0.3-0.2-1-0.2-1.5,0c-0.9,0.5-1.8,1-2.6,1.6c-2.7,1.8-5.3,3.7-7.9,5.6
		c-0.3,0.2-0.7,0.4-1.2,0.8c0.8-3.9,1.5-7.6,2.5-11.2c2.3-9,4.6-17.9,6.9-26.9c0-0.2,0.2-0.4,0.2-0.5c0.4-0.3,0.8-0.2,1.3-0.1
		c5.2,0.8,9.6,3.2,13.6,6.5c1.3,1.1,2.4,2.5,4.1,3.2c0,0.2,0,0.3,0,0.5C183.5,359.6,183.9,360.2,183.6,360.7z"/>
	<path class="st9" d="M160.1,178.8c-0.1-0.8-0.2-1.6-0.2-2.4c1.3,0.1,1.7-0.3,1.7-1.6c0-2.2,0-4.4,0-6.6c0-0.9,0.2-1.2,1.1-1.2
		c18.2,0,36.5,0,54.7,0c0.5,0,1.1,0.2,1.5,0.5c5.2,3.3,10.4,6.7,15.6,10.1c0.1,0.1,0.2,0.2,0.6,0.5c-0.7,0-1.2,0-1.6,0
		c-23.5,0-47.1,0-70.6,0C161.9,178.1,161,178.6,160.1,178.8z"/>
	<path class="st8" d="M209.8,348c5.3,7.9,10.6,15.8,15.8,23.7c-0.1,0.1-0.2,0.2-0.3,0.3c-0.3,0-0.6,0-0.9-0.1
		c-3.5-0.9-7-1.8-10.5-2.8c-3-0.8-3.8-0.7-5,2.7c-1.5,4.6-2.9,9.2-4.3,13.9c-0.1,0.4-0.3,0.8-0.5,1.5c-1-2.1-2-3.9-2.9-5.8
		c-3.7-7.9-7.4-15.8-11.1-23.7c-0.2-0.6,0-1,0.3-1.4c2.4-3.1,5.4-5.4,9.2-6.6c2.7-0.9,5.4-1.5,8.2-2
		C208.7,347.4,209.3,347.4,209.8,348z"/>
	<path class="st3" d="M278.3,346.5c-0.6,2.5-1.1,4.8-1.7,7.2c-0.1,0.3-0.7,0.6-1.1,0.6c-4.2,0-8.4,0-12.6,0c-14,0-28.1-0.1-42.1,0.1
		c-1.8,0-2.7-0.5-3.5-2c-1.2-2-2.5-3.8-3.9-5.9C235.2,346.5,256.8,346.5,278.3,346.5z"/>
	<path class="st3" d="M150,143.2c0.5-2,1.1-3.8,1.6-5.8c0.5-2.3,0.5-2.3,2.9-2.3c12.7,0,25.5,0,38.2,0c0.9,0,1.3,0.2,1.5,1.1
		c0.7,2.3,1.7,4.6,2.5,7C181.2,143.2,165.6,143.2,150,143.2z"/>
	<path class="st10" d="M140.9,355.5c-2.4,0-4.7,0-7.1,0c-0.8,0-1.1-0.2-1-1c0.1-5.1,0.2-10.1,0.2-15.2c0-0.8,0.3-0.9,1-0.9
		c5.9,0.2,11.7,4.6,13.8,10.6c0.6,1.8,0.9,3.6,1.4,5.4c0.2,0.8,0,1.1-0.9,1.1C145.8,355.5,143.4,355.5,140.9,355.5
		C140.9,355.5,140.9,355.5,140.9,355.5z"/>
	<path class="st10" d="M133.2,143.2c0-2.4,0-4.9,0-7.3c0-0.8,0.2-1,1-1c4.7,0.1,9.4,0.2,14.1,0.2c0.6,0,0.8,0.2,0.7,0.8
		c-1.1,8.2-6.2,14.1-14,15.4c-0.3,0.1-0.6,0-1,0.1c-0.8,0.1-0.9-0.2-0.9-0.9C133.2,148.1,133.2,145.6,133.2,143.2z"/>
	<path class="st10" d="M295.2,346.3c0,2.4,0,4.7,0,7.1c0,0.7-0.2,0.9-0.9,0.9c-4.7,0-9.4,0-14.1,0c-0.6,0-0.9-0.2-0.8-0.8
		c1.3-8.3,6.6-13.8,14.1-15c0.2,0,0.4,0,0.6,0c0.8-0.1,1.1,0.1,1,0.9C295.1,341.7,295.2,344,295.2,346.3z"/>
	<path class="st4" d="M335.2,135.6c1.3,0.1,2.6,0.3,3.9,0.4c4.1,0.3,8.3,0.6,12.4,1c5.7,0.6,11.4,1.2,17.1,1.9
		c0.2,0,0.4-0.1,0.5-0.2c1.8,1.4,3.6,2.9,5.4,4.3c0,0.1-0.1,0.1-0.1,0.2c-2.4-0.2-4.9-0.4-7.3-0.6c-4.5-0.4-9.1-0.8-13.6-1.1
		c-5.2-0.4-10.4-0.9-15.6-1.2c-0.9-0.1-1.3-0.4-1.5-1.3C336,137.9,335.6,136.8,335.2,135.6z"/>
	<path class="st11" d="M221.7,315.8c0.2,2.2,0.7,4.3,0.7,6.5c0,3.5-0.8,6.9-2,10.2c-1.6,4.2-3.9,7.8-7,11.3c0.5,0,0.9,0.1,1.2,0.1
		c6.1,0,12.1,0,18.2,0c0.4,0,0.8,0,1.2,0.1c-0.2,0-0.4,0.1-0.6,0.1c-6.8,0-13.6,0-20.4,0.1c-1.1,0-1.8-0.4-2.4-1.3
		c-1.2-1.8-1.3-1.8,0.3-3.4c5.9-6,9.4-13.2,10.6-21.5C221.6,317.2,221.7,316.5,221.7,315.8z"/>
	<path class="st12" d="M209.8,348c-0.8,0-1.7-0.2-2.4,0.1c-3.4,0.9-6.8,1.8-10,3c-2.8,1.1-4.9,3.3-6.8,5.7c-0.2,0.2-0.2,0.6-0.3,0.9
		c-0.7-1.4-1.6-2.7-2.1-4.2c-0.3-0.8,0-1.9,0-2.8c0-0.1,0.4-0.3,0.7-0.3c6.2-0.8,11.8-3.1,16.9-6.5c0.2-0.2,0.9-0.1,1,0.1
		C207.9,345.2,208.8,346.6,209.8,348z"/>
	<path class="st12" d="M183.9,358.5c-0.8,0.2-1.4-0.3-2-0.8c-4.1-4.1-8.8-7.1-14.6-8.4c-0.8-0.2-1.6-0.3-2.5-0.4
		c0.2-0.7,0.3-1.3,0.5-2c0.1-0.9,0.4-1.1,1.3-0.6c3.9,2.1,8,3.4,12.4,4c1.7,0.2,3.4,0.3,5.1,0.3c0.8,0,0.9,0.2,0.8,1
		C184.5,353.9,184.2,356.2,183.9,358.5z"/>
	<path class="st5" d="M338.3,250.4c-2-2.9-1.2-7.4,1.7-8.7c1.9-0.9,3.6-0.5,4.7,1.2c0.6,0.8,0.9,1.8,1.3,2.7
		c0.2,0.7-0.2,1.1-0.6,1.5c-1.8,1.7-3.9,2.8-6.3,3.5C338.9,250.6,338.6,250.6,338.3,250.4z"/>
	<path class="st13" d="M338.3,250.4c2.3-0.4,4.3-1.4,6.1-2.9c0.6-0.5,1.1-1.3,1.6-2c1.1,3.7-1.1,6.7-4.8,6.5
		C340.1,251.9,339.1,251.4,338.3,250.4z"/>
	<path class="st12" d="M183.6,360.7c0.1-0.6,0.1-1.1,0.2-1.7C183.8,359.6,183.7,360.2,183.6,360.7z"/>
	<path d="M213.7,190.5c11.2,0,22.5,0,33.7,0c2.2,0,3.2,1,3.2,3.1c0,3.4,0,6.7,0,10.1c0,1.7-0.5,2.1-2.2,1.9
		c-0.4-0.1-0.7-0.1-1.1-0.1c-22.6,0-45.1-0.1-67.7-0.1c-2.5,0-3-0.5-3-3c0-2.9,0-5.8,0.1-8.8c0-2.4,0.6-3.1,3.1-3.1
		C191.1,190.6,202.4,190.6,213.7,190.5C213.7,190.6,213.7,190.5,213.7,190.5z"/>
	<path class="st14" d="M214.6,223.4c-18.3,0-36.7,0-55,0c-0.5,0-1,0-1.6-0.1c-0.8-0.1-1.4-0.6-1.4-1.5c0-0.8,0.6-1.3,1.4-1.4
		c0.3-0.1,0.7-0.1,1.1-0.1c37.1,0,74.2,0,111.3,0c0.2,0,0.5,0,0.7,0c0.9,0.1,1.5,0.6,1.5,1.6c0,0.9-0.6,1.3-1.5,1.5
		c-0.4,0.1-0.7,0-1.1,0C251.5,223.4,233.1,223.4,214.6,223.4z"/>
	<path d="M244.4,314.9c4.8-3.7,9.6-7.4,14.4-11.1c0.3-0.2,0.6-0.6,0.9-0.6c0.6,0,1.4,0,1.8,0.3c0.3,0.3,0.4,1.2,0.2,1.7
		c-0.1,0.5-0.7,1-1,1.4c-1.8,2.2-3.7,4.4-5.6,6.6c0.1,0.1,0.1,0.2,0.2,0.3c0.4-0.2,0.8-0.4,1.1-0.6c2.8-1.7,5.5-3.4,8.3-5.1
		c1.1-0.6,2.2-1.4,3.4-0.3c1.1,1.1,0.4,2.3-0.2,3.4c-1,1.8-2.1,3.7-3.2,5.5c-0.2,0.4-1,0.8-1.3,0.7c-0.5-0.3-1.2-0.9-1.2-1.4
		c0-1,0.4-2,0.7-3c-0.3,0.1-0.5,0.3-0.8,0.4c-1.9,1.1-3.8,2.3-5.8,3.4c-0.5,0.3-1,0.5-1.5,0.7c-1,0.3-2.1,0.4-2.9-0.4
		c-0.8-0.8-0.8-1.8-0.4-2.8c0-0.1,0.1-0.3,0.1-0.6c-0.4,0.3-0.7,0.5-1,0.6c-2.6,1.8-5.1,3.5-7.7,5.3c-0.6,0.4-1.2,0.7-1.8,1
		c-1,0.5-2.1,0.8-3-0.2c-0.9-1-0.5-2.1,0.1-3c1.3-1.8,2.7-3.6,4.1-5.3c2.9-3.4,6-6.8,8.8-10.3c1-1.2,1.6-2.6,2.3-4
		c-0.1-0.1-0.2-0.2-0.3-0.3c-1,0.6-2.1,1.2-3.1,1.9c-7.6,5.4-14.8,11.4-20.6,18.9c-0.1,0.1-0.2,0.3-0.3,0.4
		c-0.4,0.2-0.8,0.3-1.1,0.4c-0.1-0.4-0.4-1-0.3-1.3c0.6-1.2,1.1-2.4,2-3.4c2.2-2.4,4.4-4.9,6.8-7.1c3.9-3.4,8-6.7,12-9.9
		c1.2-0.9,2.6-1.6,3.9-2.3c0.9-0.5,1.9-0.6,2.8,0.2c0.9,0.8,1,1.8,0.6,2.8c-0.9,2-1.7,4.2-3,5.9c-2.8,3.6-5.9,7.1-8.8,10.6
		c-0.2,0.2-0.1,0.5-0.2,0.6C244,315,244.2,314.9,244.4,314.9z"/>
	<path class="st14" d="M198,249.6c-12.8,0-25.7,0-38.5,0c-0.6,0-1.2,0.1-1.6-0.1c-0.5-0.3-1.2-0.9-1.2-1.4c0-0.5,0.7-1.1,1.1-1.4
		c0.3-0.2,0.8-0.1,1.3-0.1c26,0,52,0,78,0c0.2,0,0.4,0,0.6,0c1.1,0.1,1.8,0.7,1.7,1.6c-0.1,1-0.8,1.4-1.7,1.5c-0.4,0-0.7,0-1.1,0
		C223.8,249.6,210.9,249.6,198,249.6z"/>
	<path class="st14" d="M230.3,235.9c11.7,0,23.4,0,35,0c1.1,0,2.2,0,3.4,0c1.7,0,2.5,0.6,2.5,1.6c0,1-0.9,1.5-2.4,1.5
		c-12.6,0-25.3,0-37.9,0c-13,0-25.9,0-38.9,0c-0.5,0-1.1,0.1-1.5-0.1c-0.5-0.3-1.1-0.9-1.1-1.5c0-0.4,0.6-1.1,1.1-1.3
		c0.4-0.3,1.1-0.2,1.6-0.2C204.8,236,217.5,236,230.3,235.9C230.3,236,230.3,235.9,230.3,235.9z"/>
	<path class="st14" d="M236.5,257.9c10,0,19.9,0,29.9,0c0.5,0,1,0,1.6,0.1c0.8,0.1,1.4,0.6,1.4,1.5c0,0.9-0.5,1.3-1.3,1.5
		c-0.4,0.1-0.8,0.1-1.2,0.1c-20.2,0-40.5,0-60.7,0c-0.1,0-0.2,0-0.2,0c-1.5,0-2.3-0.6-2.3-1.6c0-1,0.8-1.6,2.2-1.6
		c6.2,0,12.4,0,18.6,0C228.5,257.9,232.5,257.9,236.5,257.9z"/>
	<path class="st14" d="M177.1,260.4c-5.7,0-11.4,0-17,0c-1.7,0-2.5-0.5-2.6-1.5c0-1,0.8-1.6,2.5-1.6c11.5,0,22.9,0,34.4,0
		c0.3,0,0.6,0,1,0.1c0.8,0.2,1.4,0.6,1.4,1.5c0,0.9-0.6,1.3-1.5,1.5c-0.4,0.1-0.8,0-1.2,0C188.5,260.4,182.8,260.4,177.1,260.4
		C177.1,260.4,177.1,260.4,177.1,260.4z"/>
	<path class="st14" d="M250.3,325.6c5.2,0,10.3,0,15.5,0c0.2,0,0.5,0,0.7,0c1.5,0,2.3,0.6,2.3,1.6c0,1-0.8,1.5-2.3,1.5
		c-10.8,0-21.6,0-32.4,0c-0.4,0-0.8,0.1-1-0.1c-0.5-0.4-1.1-1-1.1-1.4c0-0.5,0.6-1.1,1.2-1.4c0.3-0.2,0.9-0.1,1.4-0.1
		C239.8,325.6,245,325.6,250.3,325.6z"/>
	<path class="st14" d="M170.9,238.7c-3.5,0-7,0-10.6,0c-0.6,0-1.2,0.1-1.7-0.1c-0.6-0.3-1.3-0.9-1.3-1.4c0-0.5,0.8-1.1,1.3-1.4
		c0.3-0.2,0.8-0.2,1.3-0.2c7.3,0,14.6,0,21.9,0c1.7,0,2.5,0.5,2.5,1.5c0,1-0.8,1.6-2.5,1.6C178.2,238.7,174.6,238.7,170.9,238.7z"/>
	<path class="st14" d="M258.9,249.8c-3.2,0-6.3,0-9.5,0c-0.4,0-0.8,0-1.2-0.1c-0.9-0.1-1.5-0.6-1.5-1.6c0-0.9,0.6-1.3,1.5-1.5
		c0.4,0,0.7,0,1.1,0c6.5,0,13,0,19.4,0c0.4,0,0.8-0.1,1.1,0.1c0.5,0.4,1.2,0.9,1.3,1.4c0.2,0.8-0.4,1.3-1.2,1.5
		c-0.4,0.1-0.9,0.1-1.3,0.1C265.4,249.8,262.1,249.8,258.9,249.8C258.9,249.8,258.9,249.8,258.9,249.8z"/>
	<path class="st15" d="M244.4,314.9c-0.4,0.3-0.7,0.5-1.1,0.8c-0.1-0.1-0.1-0.1-0.2-0.2c0.3-0.4,0.6-0.7,1-1.1
		C244.2,314.6,244.3,314.7,244.4,314.9z"/>
	<path d="M184.1,341.7c-16.6-0.1-28.8-13.4-28.9-28.7c-0.1-15.6,12.3-28.6,28.1-28.9c16.1-0.4,29.4,12.3,29.5,28.7
		C212.9,328.7,200,341.6,184.1,341.7z"/>
	<path class="st9" d="M213.6,193.2c11,0,22,0,33,0c1,0,1.4,0.2,1.3,1.3c-0.1,2.3-0.1,4.6,0,7c0,1.1-0.3,1.3-1.3,1.3
		c-13.6,0-27.2,0-40.8,0c-7.1,0-14.2,0-21.4,0c-1.4,0-2.7,0.1-4.1,0.2c-0.6,0-0.9-0.1-0.9-0.8c0-2.7-0.1-5.4-0.2-8.1
		c0-0.9,0.4-0.9,1.1-0.9C191.4,193.2,202.5,193.2,213.6,193.2C213.6,193.2,213.6,193.2,213.6,193.2z"/>
	<path class="st16" d="M194.4,289.4c3.6,1.4,6.5,3.6,8.9,6.5c6.5,7.6,8.3,16.4,4.8,25.8c-3.6,9.6-10.8,15.3-21,16.7
		c-12,1.7-23.6-5.7-27.5-17.1c-0.1-0.4-0.2-0.8-0.3-1.3c-0.4-2.5,0.3-4.8,0.9-7.2c1.3-5.5,3.8-10.4,7.8-14.4
		c4.3-4.5,9.6-7.5,15.8-8.5c2.8-0.4,5.6-0.8,8.5-0.8C192.9,289.1,193.7,289.2,194.4,289.4z"/>
	<path class="st17" d="M194.4,289.4c-4.6,0-9.2,0.2-13.7,1.5c-3.9,1.1-7.3,3.1-10.4,5.7c-6.3,5.4-9.3,12.3-10.6,20.3
		c-0.2,1-0.2,2.1-0.3,3.1c-1.4-4.3-1.4-8.6-0.4-13c3.3-15,20.1-23.8,34.3-18.1C193.7,289,194,289.2,194.4,289.4z"/>
</g>
</svg>
