<?xml version="1.0" encoding="utf-8"?>
<!-- Generator: Adobe Illustrator 25.2.2, SVG Export Plug-In . SVG Version: 6.00 Build 0)  -->
<svg version="1.1" id="feedback" xmlns="http://www.w3.org/2000/svg" xmlns:xlink="http://www.w3.org/1999/xlink" x="0px" y="0px"
	 viewBox="0 0 375 225" style="enable-background:new 0 0 375 225;" xml:space="preserve">
<style type="text/css">
	.st0{fill:#FFFFFF;}
	.st1{opacity:0.2706;}
	.st2{fill:#B5A28E;}
	.st3{fill:#7F1515;}
	.st4{fill:#F8DEC3;}
	.st5{fill:#FF9900;}
	.st6{fill:#BA7000;}
	.st7{fill:#00C0CC;}
	.st8{fill:#F5D09B;}
	.st9{fill:#F7DDC2;}
	.st10{fill:#B3A08C;}
	.st11{fill:#B4A28E;}
	.st12{fill:#F4CF99;}
	.st13{fill:#B4A18D;}
	.st14{fill:#F3CF9A;}
	.st15{fill:#F2CD99;}
	.st16{fill:#B8B8B8;}
	.st17{fill:#00BDC9;}
	.st18{fill:#FA9601;}
	.st19{fill:#EECA96;}
	.st20{fill:#6C6C6C;}
	.st21{fill:#B5B5B5;}
	.st22{fill:#B56D00;}
	.st23{fill:#EECB96;}
	.st24{fill:#008A93;}
	.st25{fill:#B86F00;}
	.st26{fill:#AD6800;}
	.st27{fill:#B66D00;}
	.st28{fill:#AF6900;}
	.st29{fill:#008991;}
	.st30{fill:#AF9C89;}
	.st31{fill:#00848D;}
	.st32{fill:#A9906B;}
	.st33{fill:#00838B;}
	.st34{fill:#9A8362;}
	.st35{fill:#DEB67B;}
	.st36{fill:#848484;}
	.st37{fill:#212121;}
	.st38{fill:#4B4B4B;}
	.st39{fill:#413A33;}
	.st40{fill:#5C5349;}
	.st41{fill:#E4B877;}
	.st42{fill:#905700;}
	.st43{fill:#814E00;}
	.st44{fill:#020101;}
	.st45{fill:#BABABA;}
	.st46{fill:#1D1D1D;}
	.st47{fill:#191919;}
	.st48{fill:#393838;}
	.st49{fill:#383838;}
	.st50{fill:#0A0909;}
	.st51{fill:#626161;}
	.st52{fill:#040303;}
	.st53{fill:#070706;}
	.st54{fill:#B19F8B;}
	.st55{fill:#0C0A09;}
	.st56{fill:#0B0A09;}
	.st57{fill:#0F0D0C;}
	.st58{fill:#060400;}
	.st59{fill:#F7D19A;}
	.st60{fill:#F7D098;}
	.st61{fill:#080500;}
	.st62{fill:#0A0600;}
	.st63{fill:#F9F9F9;}
</style>
<g id="Layer_8">
	<g id="bg_xA0_Image_1_">
		<path class="st0" d="M2.1,205.5l0-186.4c0-3.5,2.8-6.3,6.3-6.3c94.1,0,270.1,0.6,361.7,0.6c1.1,0,2,0.9,2,2v-0.6
			c0,74.5,0,118.6,0,192.2c0,2.6-2.1,4.8-4.8,4.8c-91.5,0-265.7,0-358.9,0C4.9,211.8,2.1,208.9,2.1,205.5z"/>
	</g>
	<g id="shadow" class="st1">
		<path id="left_7_" d="M18.8,23.8c-0.2-0.1-0.4-0.2-0.7-0.3c-1.2-0.7-2.6-0.3-3.3,0.8c-0.4,0.7-0.4,1.5-0.4,2.3
			c0,25.3,0,50.5,0,75.8c0,23.7,0,62.3,0,86c0,1.8,0,3.6,0.1,5.4c0.1,1.8,1,2.9,2.4,2.9c1.5,0,2.5-1,2.6-2.9c0.1-1,0-2.1,0-3.1
			c0-48.9,0-112.7,0-161.6c0-1,0.2-1.4,1.1-1.5C19.1,26.9,18.9,25.4,18.8,23.8z"/>
		<path id="top_5_" d="M355,24.5c-0.5-0.8-1.3-1.1-2.1-1.1c-2,0-3.9,0.1-5.9,0.1c-8.2,0-12.2,0.1-20.4,0.1
			c-18.2,0-36.3,0.1-54.5,0.1c-8,0-16.1,0.1-24.1,0.1c-18.1,0-36.2,0.1-54.3,0.1c-7.4,0-14.7,0-22.1,0C156.2,24,32.8,24,17.5,24.1
			c-0.3,0-0.6,0-0.9-0.1c0,1.6,0.2,3.1,1.7,4c0.1,0,0.2,0,0.3,0c10.1,0,128.2-0.1,138.3-0.1c13,0,26-0.1,39-0.1
			c13.2,0,26.5-0.1,39.7-0.1c13,0,25.9-0.1,38.9-0.1c13.2,0,26.4-0.1,39.6-0.1c11.7,0,19.1,0,30.7,0c2.8,0,5.5,0,8.3-0.1
			C354.7,27.3,355.7,25.8,355,24.5z"/>
	</g>
	<g id="inner_lines">
		<path id="left" d="M14.7,23c-1.1,0.1-1.5,0.8-1.5,1.9c0,0.5,0,7.8,0,8.2c0,29.4,0,58.7,0,88.1c0,25.8,0,50.8,0,76.6
			c0,2.1,0.6,2.9,2.3,3c0.7,0,1.3,0,2,0.1c0-0.8,0-1.6,0-2.3c-0.5,0-1.1,0-1.6-0.1c0-56.2,0-118,0-174.1c0.2,0,0.4,0,0.6,0
			c0-0.6,0-1.1,0-1.6C15.9,22.9,15.3,23,14.7,23z"/>
		<path id="bottom" d="M17.1,198.5c0,0.8,0,1.5,0.1,2.3c2.7,0,112.5,0,115.2,0c6.7,0,13.4-0.1,20.1-0.1c12.5,0,24.9,0,37.4,0
			c9,0,18,0,27,0c12.4,0,24.8,0,37.1,0c5.5,0,11.1,0,16.6,0c8.9,0,17.8,0.1,26.7,0.1c8.4,0,16.8,0,25.2,0c12.1,0,25.5,0.1,37.6,0.1
			c0-0.9-0.1-1.9-0.1-2.7C281.8,198.4,95.3,198.4,17.1,198.5z"/>
		<path id="right" d="M362.5,106.9c0-23.7,0-47.3,0-71c0-3.6,0-6.1-0.1-9.7c0-0.5-0.4-1.3-0.7-1.4c-0.8-0.1-0.8,0.7-0.8,1.4
			c0,0.9,0,2.9,0,3.8c-0.1,57.8-0.2,109-0.2,166.8c0,0.5,0,0.9,0,1.3c-0.2,0-0.4,0-0.6,0c0,0.7,0,1.8,0,2.7c0.2,0,0.5,0,0.7,0
			c1.7,0.1,2-0.3,2-2.1C362.6,166.6,362.5,138.9,362.5,106.9z"/>
		<path id="top_4_" d="M357.9,22.1c-3.6,0-5.3,0-8.9,0c-13.7,0-27.4,0.1-41,0.1c-14.4,0-28.7,0.1-43.1,0.1c-15.2,0-30.3,0-45.5,0
			c-18.9,0-37.8,0.1-56.6,0.1c-12.2,0-132.5,0.1-144.7,0.1c-0.7,0-1.5,0.1-2.2,0.1c0,0.4,0,0.9,0,1.5c0,0,0.1,0,0.2,0
			c10,0,128.1,0.1,138.1,0c20.5,0,41-0.1,61.6-0.1c22.4-0.1,44.7-0.2,67.1-0.2c16.3,0,32.6-0.1,48.8-0.1c9.5,0,17,0,26.4,0
			c0.7,0,1.5,0.1,1.5-0.9C359.4,21.9,358.5,22.1,357.9,22.1z"/>
	</g>
	<g id="outer_lines">
		<path id="left_1_" d="M8.4,209.4c-2.5-0.1-3.8-1.5-3.9-3.9c0-0.3,0-0.6,0-1c0-58.3,0-127.5,0-185.7c0-0.6,0-1.2,0.1-1.8
			c0.2-1.5,1-2.5,2.4-2.8c0-0.8,0-1.6,0-2.4c-3.2,0.5-5.2,2.7-5.3,6.1c0,0.4,0,0.8,0,1.2c0,57.9,0,126.7,0,184.7
			c0,1.1,0,2.2,0.1,3.2c0.3,2.7,2.4,4.8,5.1,5.1c0.6,0.1,1.2,0.1,1.8,0.1c0.1,0,0.4,0,0.5,0L9,209.4C8.8,209.4,8.6,209.4,8.4,209.4z
			"/>
		<path id="bottom_1_" d="M316.8,210.4c-19.5-0.1-39-0.2-58.4-0.3c-25.4-0.1-50.8-0.2-76.2-0.4c-14.5-0.1-29-0.1-43.6-0.2
			c-6.8,0-123.6-0.1-130.3-0.1c0,0.9,0.1,1.9,0.1,2.8c13,0.1,136,0.1,148.9,0.2c18.3,0.1,36.6,0.2,55,0.3c3,0,5.9,0,8.8,0.1l3,0
			c0.2,0,0.4,0,0.6,0c18.5,0.1,37,0.2,55.6,0.3l-43.3-0.2l51.9,0.3c0.8,0,1.4-0.1,1.9-0.1c18,0.1,35.9,0.3,53.9,0.2
			c6.6,0,15.9-0.1,21.4-0.3c0.1-0.8,0.2-1.6,0.2-2.4C349.7,210.6,333.3,210.5,316.8,210.4z"/>
		<path id="right_1_" d="M373.4,19.6c0-3.8-0.5-5.4-1.8-6.6c-1.2-0.8-3.7-1.4-6-1.3c-0.1,0-0.3,0-0.4,0c0,0.8-0.1,1.5-0.1,2.2
			c0.5,0,1,0,1.5,0c3.2-0.1,4.6,1.3,4.6,4.5c0,63.7,0,124,0,187.7c0,3.3-2.1,4.6-4.7,4.5c0,0-0.1,0-0.1,0c0,0.8-0.1,1.6-0.2,2.4
			c2.2,0,3.8,0,4.3,0c1.1-0.1,2.5-1.4,2.7-2.8c0.1-2.3,0.3-4.5,0.3-6.8C373.4,141,373.3,82.4,373.4,19.6z"/>
		<g id="top_1_">
			<path id="right_4_" d="M365.1,11.7c-17.4-0.1-34.8,0-52.1,0c-23.9,0-47.8,0-71.6,0c-13.4,0-133.8,0-147.2,0c-1.4,0-2.9,0-4.3,0.2
				c-0.4,0.1-0.8,0.6-1.2,1c0.4,0.3,0.8,0.8,1.2,0.9c1.8,0.1,3.7,0.2,5.5,0.2c16.1,0,139.2,0,155.4,0c14.8,0,29.5,0,44.3,0
				c23.3,0,46.7,0,70,0C365,13.2,365,12.5,365.1,11.7z"/>
			<path id="left_5_" d="M7.7,14c0.8,0,1.6-0.1,2.4-0.1c14.9,0,36.2,0,63.8-0.1c2.6,0,5.2-0.1,7.8-0.3c0.4,0,0.8-0.5,1.2-0.8
				c-0.4-0.2-0.8-0.6-1.2-0.7c-2.3-0.2-4.6-0.3-6.9-0.3c-8.6-0.1-17.3-0.1-25.9-0.1c-13.6,0-27.2,0-40.8,0c-0.4,0-0.8,0.1-1.2,0.1
				v2.4C7.1,14.1,7.4,14,7.7,14z"/>
		</g>
	</g>
	<g id="maria_xA0_Image_1_">
		<g>
			<path d="M333.7,28.1c0.5,1,1.1,2,1.6,3c1.7,3.8,0,8.2-3.9,9.6c-1,0.4-1.8,0.9-2.4,1.7c-1.2,1.4-2.4,2.8-4.4,3.1
				c-0.4,0.1-0.7,0.7-0.9,1.2c-0.5,1.1-0.8,2.3-1.4,3.3c-0.4,0.6-1.1,1.3-1.8,1.3c-1,0.1-1.1-1-1.2-1.8c-0.6-3.4-1.7-6.7-3.5-9.6
				c-1.3-2-2.7-3.9-4.9-5.7c0,0.8-0.1,1.3,0,1.8c0.9,5.2,0.4,10.2-1.2,15.1c-0.3,1-0.3,1.8,0.4,2.6c3.9,4.8,2.2,12.2-1.2,15.4
				c-1.2,1.1-1.4,2.2-1.3,3.8c0.2,2.1-0.3,4.3-0.4,6.4c-0.1,1.5-0.2,3,0.1,4.5c0.5,2.5,1.4,4.9,2,7.4c0.3,0.9,0.8,1.4,1.6,1.8
				c1,0.5,2.1,1.2,2.8,2.2c1,1.4,2.3,1.8,3.9,1.9c2.2,0.1,4.3,0.2,6.5,0.4c7.6,0.7,12.7,5.8,13,13.5c0.4,9,0.6,18.1,0.9,27.1
				c0,0.8,0,1.6-0.1,2.4c-0.1,0.8-0.4,1.6-1.3,1.7c-1.2,0.1-1.3,0.9-1.3,1.9c0,1.9-0.2,3.8-0.2,5.7c0,0.7,0.2,1.4,0.5,2
				c3,5.6,6,11.1,9,16.7c1.6,3.1,3.2,6.2,4.7,9.4c0.6,1.4,1,2.9-0.3,4.2c-0.3,0.3-0.1,1.1,0,1.6c0.4,2.6,0.8,5.2,1.3,7.8
				c0,0.2,0,0.3,0.1,0.5c1.7,3.2,0.1,4.2-0.4,7.1c-0.2,1-1,1.4-2,1.3c-4.8-0.1-10.1,0.3-14.9,0.2c-2.6-0.1-5.5,0.1-8.1,0
				c-4.6-0.2-7.9,0.2-12.5,0c-1.4-0.1-3.1,0.8-3.5,2.3c-0.4,1.5-1.5,2.1-3,2.4c-2.7,0.5-5.4,0.3-8.1-0.3c-1.5-0.3-2.1-1.4-2.3-2.7
				c-0.2-1.2-0.8-1.6-2-1.5c-1.2,0.1-2.4,0-3.6,0c-0.9,0-1.4-0.4-1.4-1.3c-0.1-1.3-0.2-2.6,0-3.8c0.2-2.4,0.5-4.8,1-7.1
				c0.2-0.9,0.1-1.5-0.7-2c-1.1-0.7-1-1.7-0.6-2.7c1.4-3.7,2.8-7.5,4.3-11.2c0.3-0.8,0.8-1.5,0.1-2.4c-0.3-0.4-0.3-1.2,0-1.5
				c0.7-0.9,0.2-1.6-0.3-2.4c-1.4-2.5-2.8-5-4.1-7.6c-0.5-1-1.1-1.6-2.1-2.2c-1.7-1.1-3.3-2.5-5-3.8c-0.3,0.8-0.6,1.8-1,2.7
				c-1.2,3-2.5,5.9-3.7,8.8c-0.7,1.6-2.1,2.6-3.6,3.4c-1,0.5-2,0.6-2.7-0.6c-0.4-1.3,0.7-1.9,1.5-2.4c1.8-1.2,3-2.8,3.8-4.8
				c1.2-3.2,2.4-6.4,3.2-9.8c0.8-3.3,0.3-4.5-2.7-6c-1.9-1-3.9-2.3-6.3-1.6c-0.1,0.2-0.2,0.3-0.4,0.5c-0.2,0.4-0.2,0.8-0.3,1.3
				c-0.8,2.2-0.8,4.1,1.5,5.3c0.1,0.1,0.2,0.2,0.3,0.3c0.7,1,2,2.1,1,3.3c-1.1,1.3-2.3,0.1-3.3-0.7c-1.3-1.1-2.8-1.9-4.3-2.5
				c-9.8-4.3-18.5-10.3-26.9-16.8c-1.6-1.3-2.7-2.9-3-5c-0.4-3.4-0.9-6.8-3.1-9.6c-0.9-1.2-1.1-2.7-1.6-4.7c-1.1,2-0.6,3.3,0.4,4.4
				c3.1,3.4,2.7,7.5,2.5,11.6c-0.1,1.2-0.6,2.3-1.9,2.8c-1.3,0.3-2.7,0.2-3.9,0.7c-0.6,0.2-1.3,0.3-1.6-0.5
				c-0.3-0.7,0.1-1.2,0.5-1.7c1-1.1,2.7-0.9,3.7-1.9c0.9-2,0.5-4.1,0.1-6.1c-0.4-1.9-2.3-2.9-4.5-2.6c-2.7,0.4-3.9,1.5-3.7,3.8
				c0.2,2.5,0.8,5,1.7,7.4c0.5,1.6,1.7,2.1,3.1,2.1c4.4,0.1,7.5,2.6,10.4,5.6c8.5,8.7,17.5,16.8,27.8,23.3c1.2,0.8,2.5,1.5,3.6,2.3
				c0.7,0.5,1.6,0.9,1.4,2c-0.4,0.7-1,0.6-1.7,0.4c-1.7-0.7-3.4-1.3-5-2.2c-5.3-2.9-10-6.6-14.6-10.5c-6.1-5.2-11.9-10.7-17-16.8
				c-0.6-0.7-1.2-0.8-2.1-0.9c-1.9-0.1-3.8-0.3-5.7-0.5c-1.2-0.1-2-0.8-2.5-2c-1.7-3.6-2.4-7.4-2.6-11.4c-0.1-2,0.7-3.4,2.6-4.1
				c1.3-0.5,2.5-1,3.8-1.4c0.9-0.3,1.2-0.6,1.3-1.6c0.1-1.4,0.6-2.8,1.2-4c0.5-1.1,1.6-1.7,3-1.5c1.4,0.3,2.3,1.1,2.6,2.5
				c0.1,0.3,0.1,0.6,0.2,0.9c0.1,1.9,0.8,3.6,2,5c1.4,1.6,1.9,3.5,2,5.5c0,0.2,0,0.5,0,0.7c-0.1,2.7,0.9,4.5,3.2,6.2
				c7.5,5.5,15.2,10.7,23.4,14.9c0.4,0.2,0.8,0.4,1.4,0.7c0.4-1.4,0.8-2.5,1-3.8c0.1-0.4,0-1-0.3-1.3c-1-1.3-0.7-2.6-0.2-3.9
				c2.1-6.2,4.4-12.3,6.3-18.6c1.6-5.2,5-8.6,9.8-10.8c2-0.9,4-1.9,6-2.9c0.9-0.4,1.6-1,1.4-2.3c-1.2-0.1-2.5-0.2-3.8-0.4
				c-5.1-0.8-9.2-3.5-13-6.8c-4.5-4-7.8-8.9-10.4-14.2c-0.2-0.4-0.4-0.7-0.5-1c-0.2,0.1-0.4,0.1-0.5,0.1c-1.5,2.4-1.6,2.5-3.3,0.2
				c-3-3.9-4-8.3-3.6-13.1c0-0.6,0.2-1.3,0.2-1.9c0-0.1-0.1-0.3-0.1-0.4c-1.5-0.1-3-0.2-4.5-0.4c-0.9-0.1-1,0.5-1.4,1
				c-1.3,1.9-1.9,1.9-3.5,0.4c-0.5-0.4-0.9-0.9-1.2-1.5c-6.9-10.2-9.3-21.1-5.1-33c2.4-6.6,6.4-12.2,12.7-15.8
				c4.3-2.5,9-3.6,14.1-2.9c0.7,0.1,1.6-0.1,2.3-0.3c5.6-2.1,11.3-2.8,17.2-2c1.2,0.2,2.1,0.1,2.7-1.2c0.9-1.9,2.4-2.6,4.5-2.3
				c0.5,0.1,1.1-0.1,1.5-0.4c8.8-7.6,23.8-8.7,33.9-0.3c6,4.9,10.2,11,12,18.6c0.2,1,0.8,2.1-0.1,2.9c-1,0.9-1.9,0-2.9-0.4
				c-0.8-0.3-1.6-0.7-2.4-1.1C333.5,27.7,333.7,27.9,333.7,28.1z"/>
			<path class="st2" d="M269,142.8c-0.1-0.9,0.2-1.4,1.2-1.3c3.4,0.5,6.4,1.9,9,4.1c0.4,0.3,0.6,1.1,0.6,1.7c0,0.9-0.1,1.9-0.4,2.8
				c-1.2,3.6-2.4,7.2-3.6,10.8c-0.6,1.9-1.9,3.2-3.6,4.2c-0.8,0.5-1.8,0.8-1.9,1.9c-0.3,0-0.5,0-0.8,0c-0.8-0.6-1.5-1.4-2.4-1.9
				c-10-6.1-19-13.4-27.3-21.7c-2.7-2.6-5.5-5.1-8.3-7.5c-0.5-0.4-1.2-0.7-1.9-0.8c-1.6-0.4-3.3-0.6-4.9-0.9c-1.1-0.2-1.9-0.8-2-2
				c2.3-2.7,4.8-3.5,7.5-2.4c0,0.9-0.7,0.6-1.1,0.7c-1.1,0.3-2.2,0.7-3.2,1.2c-0.2,0.1-0.1,0.7-0.2,1c0.3,0,0.7,0.2,0.9,0.1
				c1.4-0.9,2.9-0.5,4.4-0.5c1.4,0.2,2.3,1.1,3.2,2.1c7.4,7.7,15.2,14.8,23.4,21.5c3.3,2.6,6.7,4.9,10.5,6.7
				c2.5,1.2,4.1,0.5,5.1-2.1c1.4-3.7,2.3-7.5,3.4-11.2c0.3-1.1,0-1.9-0.9-2.5c-1.4-1-2.9-1.9-4.5-2.7
				C270.1,143.8,269.3,143.7,269,142.8z"/>
			<path class="st3" d="M333.7,28.1c-0.2-0.3-0.3-0.6-0.5-0.9c0.2,0.1,0.4,0.2,0.6,0.2C333.8,27.7,333.8,27.9,333.7,28.1z"/>
			<path class="st0" d="M319.5,153.4c-2.8,4.7-4.2,10-5.8,15.2c-1.6,4.9-2.9,10-4.4,14.9c-0.6,2.2-0.7,2.1-3,2.1
				c-4.7,0-9.2-0.8-13.6-2.5c-1.7-0.7-1.7-0.7-1.1-2.4c0.9-2.7,1.9-5.4,2.9-8.1c0.5-1.2,0.9-2.4-0.6-3.4c-0.2-0.1-0.1-1.2,0.1-1.3
				c1.1-0.7,0.7-1.5,0.2-2.3c-1.4-2.5-2.8-5-4.3-7.7c0.5-0.2,0.8-0.2,1.1-0.4c0.8-0.5,0.8-1,0-1.3c-1-0.4-2-0.7-2.9-1.1
				c-4.2-1.9-6.4-5.1-6.3-9.8c0-1.1,0.2-2.2,0.3-3.3c0.4-3.2,0.2-6.4-1.2-9.4c-0.2-0.4-0.5-0.7-0.7-1.1c-0.2,0-0.3,0.1-0.5,0.1
				c0.2,2.1,0.5,4.3,0.8,6.7c-3.8-1.3-7.1-3.1-11-2.7c0-0.4-0.1-0.5-0.1-0.7c1.5-5.1,3.2-10.2,4.6-15.4c0.8-2.9,2.3-5.1,4.7-6.7
				c3-1.9,6.2-3.5,9.2-5.2c0.9,3.3,1.6,6.3,2.5,9.4c0.5,1.8,1.8,3.2,3.4,4.3c2,1.4,4.2,1.8,6.3,0.7c1.8-0.9,3.5-2,5-3.3
				c5.4-4.9,8.6-11,9.8-18.2c0.1-0.4,0.1-0.8,0.2-1.1c2.9,0.3,5.7,0.6,8.4,0.7c6.2,0.1,11.1,4.7,11.6,11.5
				c0.5,7.4,0.4,14.8,0.5,22.5c-5.8-2.5-11.4-2-17.4-0.3c-0.1-0.8-0.2-1.5-0.2-2.3c0-2.3,0.2-4.6,0.2-6.9c0-0.6-0.1-1.2-0.9-0.6
				c-0.3,0.8-1.1,1.3-1.2,2.2c-0.4,0.8-0.4,1.6-0.4,2.5c0.3,2.9-0.6,5.8-0.5,8.8c0.1,2.2,0.3,4.5,2.6,5.7c0.8,0.5,0.7,1.3,0.8,2.1
				c0.1,2-0.3,4.1,0.3,6.1c0.3,0.1,0.6,0.3,0.9,0.4C320.5,152.6,320,153,319.5,153.4z"/>
			<path class="st4" d="M281,99.6c-4.7-2-8.3-5.4-11.2-9.4c-2.3-3.2-4.3-6.7-6-10.3c-3.4-7.2-6.2-14.7-8.2-22.5c0.3-2,1.8-2.9,4-2.4
				c0.4,1.1,0.8,1.9,2.1,0.8c0.4-0.4,0.9-0.6,1.5-0.8c2.3-0.8,2.3-0.8,0.8-2.7c0-1,0.2-2,1.3-1.9c2.4,0.2,4.3-1.2,6.4-1.6
				c1-0.2,2.2-1,3,0.4c0.2,1.4,0.9,1.8,2.1,1.1c1.8-1,3.6-1.5,5.7-1.4c-1.3-1.6-3.3-0.8-4.8-1.3c-1-0.5-1-1.4-0.6-2.3
				c1.2-3.3,1.8-6.7,2.4-10.2c0.1-0.8-0.1-1.9,1.3-1.9c3.6,4.1,5.9,8.8,5.8,14.4c0,0.7,0.2,1.4,0.4,2c0.5,0.3,1,0.3,1.5,0l0,0
				c1.2-0.4,1.6-1.5,2.2-2.4c0.4-0.5,0.8-1.2,1.5-1c0.6,0.2,0.1,1.1,0.6,1.5c0.2,0.1,0.4,0.4,0.6,0.4c1.3-0.1,1.4,0.7,1.2,1.7
				c-0.5,2.9-0.5,5.9,0.2,8.8c0.5,1.8,1.3,3.6,2.1,5.3c0.3,0.7,1,1.3,1.6,1.8c0.6,0.6,1.5,0.9,2.2,0.2c0.3-0.3,0.5-1.1,0.4-1.7
				c-0.3-2.4-0.5-4.8,0.4-7.1c0.8-1.9,2.3-3.3,4-3.2c2,0.1,3.1,1.3,3.9,3.1c1.5,3.5,0.5,8.5-2.6,10.9c-1.7,1.4-2.6,2.6-1.8,4.7
				c0.5,3.9-0.9,7.4-2.2,10.9c-1.7,4.6-4,9-7.3,12.8C291.2,100.9,286.5,101.8,281,99.6z"/>
			<path class="st5" d="M298.4,34.8c-0.7-1.1-1.4-2.3-2.3-3.4c-0.6-0.7-1.5-1.3-2.4-2c-0.5,1.3,0.3,1.8,0.6,2.4c1,2,2,4,2.9,6
				c0.2,0.4,0.3,0.8,0.3,1.1c0.2,1.2,0.5,2.4,0.4,3.5c-0.1,1.4-1.8,1-2.6,1.8c-0.3,0.3-0.6,0.4-1.1,0.7c-0.5-1.6-0.9-3-1.3-4.4
				c-0.5-2.9-0.3-6-1.4-8.8c-0.5-1.3-1.1-2.7-1.9-3.8c-0.7-0.9-1.4-2-2.9-1.2c0.2,0.7,0.3,1.5,0.6,2.2c1.8,4.4,2.9,9,1.8,13.8
				c-0.1,0.4-0.3,0.9-0.6,1.6c-0.6-1.7-1-3.1-1.5-4.5c-1.6-3.9-4-7.3-7.5-9.8c-0.9-0.6-1.3-1.4-1.5-2.5c-0.3-1.6-0.9-3.2-1.5-4.8
				c-0.2-0.5-0.7-0.9-1.1-1.2c-0.2-0.1-0.7,0.3-1,0.7c-0.1,0.2,0.2,0.6,0.3,0.9c2.2,6.5,1.6,12.9-0.7,19.3c-0.2,0.5-0.4,1.1-0.7,1.5
				c-0.4,0.4-0.9,0.8-1.5,1c-1.8,0.6-3.7,1.1-5.8,1.7c-1.3-7.1-0.5-14,2.9-20.6c-0.2-0.1-0.3-0.2-0.5-0.3c-0.5,0.4-1.1,0.8-1.4,1.4
				c-1.4,2.5-3.2,4.7-4.8,7.1c-2,3-2.8,6.4-2.9,10c-0.1,1.7,0,3.4,0.1,5c0,0.7,0,1.1-0.7,1.2c-3,0.5-5.5,2.1-7.9,4.2
				c-3.6-7-5.1-13.9-1.5-21.3c0.3-0.7,0.7-2,0.6-2.1c-1.1-0.5-1.4,0.6-1.9,1.3c-1.5,2.1-2.2,4.4-2.6,6.9c-0.7,5.7,0.1,11.2,3,16.2
				c0.7,1.2,0.7,1.2-0.2,2.7c-1.3-1.4-2.3-2.9-3-4.5c-1.3-3.1-2.5-6.2-3.5-9.4c-0.3-0.9,0-1.9,0-2.8c1.5-1.9,2.5-3.7,0.6-6
				c-0.7-0.8-0.2-1.9,0.1-2.7c1.3-3.5,3.1-6.8,5.6-9.7c0.4-0.4,0.6-0.9,0.8-1.4c5-4.9,11.1-6.4,17.8-5.5c1.9,0.3,3.7,0.9,5.6,1.3
				c0.3,0.1,0.7,0,1.1-0.1c-0.2-0.4-0.2-0.9-0.5-1.2c-0.5-0.5-1.1-0.7-1.7-1.6c2.2-0.4,4.3-0.8,6.5-1.1c5.3-0.7,10.3,0.3,15.2,2.2
				c0.8,0.3,1.7,0.4,2.5,0.6c0.8,0,1.4,0.2,1.6,1.1c-0.3,1,0.6,1.3,1.1,1.9c1.9,1.9,3.7,3.8,5.6,5.8c0.4,0.2,0.2,0.7,0.5,0.9l0,0
				c0.4,1.2,0.2,2.3-0.1,3.4c-0.2,0.8-0.5,1.7-1.7,1.3c-1.7-1-2.1-3.1-3.6-4.3c-0.8-0.6-1.4-1.5-2.9-1.4c2.1,2.9,5.1,4.8,5.3,8.4
				C300.4,34.7,299.7,35.4,298.4,34.8z"/>
			<path class="st4" d="M319.5,153.4c0.1-0.5,0.3-1,0.4-1.5c0.3-1.5,0.7-3,1-4.6c0.2-1.3,0.3-2.7,0.4-4c0.1-0.1,0.2-0.3,0.3-0.4
				c2.3-1.6,9.1-1,11.3,0.9c-0.2,3.5-0.4,7.1-0.6,10.6c-0.1,0.7-0.5,1.3-0.8,1.9c-5.3,11.4-10.7,22.7-16.6,33.8
				c-1.3,2.4-1.5,5-2.1,7.5c-0.6,0.3-1.2,0.8-1.9,0.8c-2.2-0.1-3.3,1.2-3.8,3c-0.3,1.2-0.9,1.5-2,1.5c-1.9-0.1-3.8-0.1-5.7-0.1
				c-1,0-1.6-0.5-1.8-1.5c-0.5-3.2-0.4-6.2,1.9-8.8c1-1.2,2.3-1.7,3.8-1.5c1.6,0.2,3.2,0.5,4.7,0.7c0.8,0.1,1.4,0.1,1.3-1.1
				c-0.1-0.7,0.2-1.5,0.5-2.3c1-2.9,2.2-5.8,3.1-8.8c2.3-7.4,4.4-14.8,6.6-22.3c0.3-1.1,0.6-2.2,0.8-3.3
				C320.6,153.3,320,153.4,319.5,153.4z"/>
			<path class="st4" d="M269,142.8c2.4,1.3,4.7,2.6,7.1,3.8c1,0.6,1.2,1.3,0.9,2.4c-1.2,3.9-2.4,7.8-3.5,11.7
				c-0.3,1.1-0.9,1.9-1.9,2.6c-1,0.7-2,0.9-3.1,0.3c-4-1.9-7.8-4.1-11.1-6.9c-3.9-3.3-7.8-6.5-11.7-9.9c-1.6-1.4-3-2.9-4.5-4.3
				c-3.5-3.4-6.9-6.8-10.4-10.2c0.4-0.9,1.2-1.8,1.2-2.7c0-2.5-0.2-5.1-0.4-7.6c-0.1-1.1-0.7-2-1.6-2.8c-1.9-1.7-2-4.1-1-5.6
				c0.2-0.3,0.6-0.6,0.9-0.6c0.3,0,0.7,0.5,0.7,0.8c0.1,2.8,1.4,5,2.9,7.2c0.7,1,0.9,2.4,1.1,3.6c0.7,6.2,0.6,6.4,5.7,10
				c5.8,4.1,11.8,7.9,17.8,11.7c2.1,1.3,4.5,2.1,6.7,3.2c1.6,0.8,3.1,1.9,4.7,2.8c0.3,0.2,0.5,0.5,0.7,0.6c0.5,0.2,1.1,0.2,1.7,0.3
				c-0.1-0.5,0-1.2-0.3-1.5c-0.9-1-1.8-2.1-2.8-2.9c-0.8-0.6-1.2-1.1-0.9-2.2c0.3-1,0.6-2,0.8-3C268.9,143.5,268.8,143.1,269,142.8
				L269,142.8z"/>
			<path class="st5" d="M323.3,18.5c-0.5,0.1-1,0.2-1.5,0.3c0.3,0.4,0.4,1,0.8,1.3c2.1,1.9,4.5,3.6,6.4,5.7c1.7,1.9,2.9,4.3,4.3,6.5
				c1,1.6,0.7,3-0.6,4.3c-0.7,0.7-1.5,1.3-2.5,2.1c-0.6-2.1-1-3.9-1.6-5.6c-0.8-2.4-1.8-4.7-3.9-6.4c-1.6-0.9-2.8-2.4-4.1-3.6
				c-2.6-2.4-5.4-4.4-9-5.1c-2.1-0.5-4-1.7-6.3-1.7c-0.7-0.1-1.3,1-2.1,0.2c-0.8-1.1-1.6-2.2-2.5-3.3c0.4-1.3,1.2-1,2.1-0.6
				c0.7,0,1.4,0.1,2.1,0c5.3-1.1,10.3-0.4,15.2,1.7c1.2,0.5,2.3,1.5,3.4,2.2c0.2,0.1,0.6,0.1,0.9,0.2c0-0.4,0.1-0.8,0-1
				c-0.3-0.5-0.7-0.9-1.1-1.2c-6.4-5.4-13.8-7.5-22.1-6c-1.1,0.2-2.2,0.5-3.2,1c-1.3,0.8-2.3,0.5-3.5-0.6c4.3-3,8.9-4.9,14.2-5.2
				c9.7-0.5,16.9,3.8,22.6,11.3c1.9,2.5,3.6,5.3,4.5,8.4c-0.9,0.4-0.9,0.5-1.9-0.2C330.7,20.8,327.1,19.4,323.3,18.5z"/>
			<path class="st6" d="M311.8,17.5c3,0.2,5.4,1.9,7.6,3.7c2,1.6,3.6,3.6,5.3,5.5c-1.2,0.2-0.7,0.7-0.3,1.3c1.7,2.8,2.7,5.9,3.4,9.1
				c0.3,1.5,0.1,2.6-1,3.6c-0.5,0.5-1,1.1-1.5,1.5c-0.3,0.2-0.8,0.3-1.2,0.2c-1.5-0.4-1.6-0.5-2.1,1c-0.2,0.6-0.4,1.2-0.5,1.8
				c-0.1,0.2-0.3,0.3-0.5,0.1c-1.6-4.3-3.7-8.3-7.2-11.4c-0.4-0.4-0.8-0.9-1.3-1.1c-2.3-1.1-3.3-3.2-4.4-5.4c-1-2-2.5-3.9-3.9-5.7
				c-0.6-0.7-1-1.2-0.7-2.3c0.2-0.9-0.1-2-0.2-3c0.6-0.3,1.3-0.6,1.9-0.9c0.3,0.7,1,1.1,1.7,1.3c5,1.5,9.1,4.5,12.5,8.5
				c-0.9-3-3.4-4.3-5.6-6C312.9,18.9,311.7,18.8,311.8,17.5z"/>
			<path class="st7" d="M347.2,188c0.1,0.3,0.1,0.6,0.2,0.9c0.6,3.6,1.1,3.7-3.2,3.2c-2.9-0.3-5.8-1.1-8.7-1.6
				c-0.4-0.1-0.9-0.1-1.5-0.2c0.4,1.7,1.7,2,2.9,2.4c3.4,1.1,7,1.7,10.6,1.8c0.3,0,0.6,0.1,1,0.1c-0.3,1.6-0.6,1.6-0.9,3.1
				c-0.8,0.8-1.7,0.5-3.2,0.5c-0.6-0.2-1.1-0.1-1.8-0.3c-2.7-0.7-5.4-1-7.9-1.7c0,1,0,0,4.5,2.6c-7.8-0.2-15.7,0.2-23.9,0
				c0.4-1,0.7-1.5,0.9-2.2c1.5-3.8,4.1-6,8.2-6.5c3.3-0.4,6.7-1,10-1.7c1.1-0.2,2.2-0.3,3.3-0.5c2.4-0.3,4.8-0.9,7.2-1
				C345.8,186.9,346.7,186.9,347.2,188z"/>
			<path class="st6" d="M302.2,30.5c1.1,0.5,1.2-0.4,1.4-1c0.3-1.1,0.4-2.2,0.6-3.3c3.6,5.3,5.1,11.1,4.5,17.4
				c-0.2,2.1-0.7,4.2-1.2,6.3c-0.2,1-0.8,1.4-2.1,1.5c-3.7,0.2-5.2,1.5-6,5.3c-0.4,1.9-0.5,3.9-0.7,6c-0.2-0.3-0.6-0.7-0.8-1.1
				c-1.1-2.3-1.7-4.6-1.8-7.1c-0.1-1.9,0.1-3.9-0.2-5.7c-0.3-1.5,0.4-2,1.5-2.5c0.9-0.4,2.1-0.6,2.4-1.3c0.5-1,0.7-2.4,0.5-3.5
				c-0.4-2.3-1.1-4.4-1.7-6.7c0.8-0.5,1.6-1,2.4-1.5c1.2,0.1,1.2,1.2,1.5,1.9c1,2.5,1.1,5.1,1.3,7.6c0.7-3.3,0.2-6.6-1-9.7
				C302.3,32.3,301.5,31.5,302.2,30.5z"/>
			<path class="st0" d="M334.3,156.2c0.2,0,0.4,0,0.5,0.1c3.3,6,6.6,12,9.9,18c0.2,0.4,0.4,0.8,0.7,1.5c-6.6,0.4-12.3,3.4-18.3,5.5
				c-0.3,0.2-0.8,0.1-1,0.4l0,0c-1,0.1-0.8-0.6-0.7-1.1c0.1-0.9,0.6-1.6,1-2.4C330.3,171.3,332.8,163.9,334.3,156.2z"/>
			<path class="st4" d="M307.5,93.9c0.9,1.1,1.1,2.3,0.9,3.6c-1.1,7.7-4,14.3-10.6,19c-0.9,0.7-0.9,0.7-1.4-0.9
				c-2.1-1.8-2.4-4.4-2.8-6.9c-0.1-0.8,0.5-1.8,0.7-2.6c-0.4-1.1,0-1.8,1-2.3c4.2-2,7.6-5,10.2-9C306,94.1,306.4,93.2,307.5,93.9z"
				/>
			<path class="st8" d="M296.4,115.5c0.6,0.1,0.2,1.6,1.4,0.9c0,0.9,0.5,1.2,1.2,0.9c0.9-0.4,1.8-1,2.6-1.6c2.5-2.1,4.3-4.7,5.8-7.6
				c1.9-3.7,3.1-7.7,3.4-12.1c1.3,0.7,2.1,1.6,2,3c-0.1,1.3-0.1,2.6-0.5,3.8c-1.7,6.4-4.8,11.8-10,16c-4,3.2-7.7,2.5-10.1-2
				c-2-3.8-2.6-7.8-1.5-12.1c0-0.1,0.2-0.2,0.4-0.3c0.7,1,0.8,2.2,0.9,3.3c0.2,1.9,0.5,3.8,0.9,5.7c0.3,1.3,1,2.4,2.2,3
				C296.1,116.7,296.5,116.4,296.4,115.5z"/>
			<path class="st9" d="M230.1,129.8c-2.9-0.4-5.2,1-7.5,2.4c-0.7-2.7-1.5-5.4-2-8.1c-0.4-2.1,0.1-2.6,2.1-3.5
				c0.7-0.3,1.5-0.6,2.3-0.7c2.7-0.5,5,1.1,5.3,3.7C230.4,125.7,230.1,127.8,230.1,129.8z"/>
			<path class="st10" d="M274.3,49.6c-0.3-0.2-0.6-0.5-0.8-0.5c-1.3,0.3-2.6,0.7-3.9,1.1c-1.3,0.4-2.3,1.1-3.9,0.6
				c-1.2-0.4-1.2,0.9-1.5,1.7c-1.5,1.1-2.9,2.4-4.7,3c-0.1-0.1-0.2-0.3-0.3-0.3c-1.5,0.2-2.9,0.6-3.7,2.2c-1.3-3-0.5-2.7,1.2-3.6
				c1.1-0.6,2.4-0.9,3.6-1.3c1.8-0.6,1.9-0.6,1.6-2.5c-0.7-4.2-0.5-8.3,0.9-12.3c0.4-0.1,0.6,0,0.5,0.5c0.2,3.3,0.2,6.7,0.5,10
				c0.2,2.2,1.2,2.5,3.1,1.4c1.7-1,3.5-2,5.5-2c1.3,0,2.3-0.8,2.8-2c0.9-2.4,1.8-4.8,2.4-7.2c0.5-2.2,0.5-4.4,0.8-6.8
				c1,0,1.7,0.8,2.2,1.7c-0.3,1.3-0.7,2.5-1,3.8c-0.7,2.8-1.4,5.7-2.1,8.5c-0.2,0.9-0.5,1.6,0.7,1.7C277.2,48.7,276,49.5,274.3,49.6
				z"/>
			<path class="st11" d="M307.5,93.9c-0.4,0.3-0.9,0.4-1.1,0.8c-2.7,4.3-6.3,7.6-10.9,9.7c-0.9,0.4-0.9,1-1.1,1.6
				c-0.1-0.1-0.2-0.2-0.3-0.4c-0.3-1.1-1-2.4-0.7-3.4c0.2-0.8,1.6-1.3,2.5-2c3.7-3,6.1-6.9,8.1-11c0.3-0.7,0.6-1.4,1.1-2.5
				C306,89.3,306.7,91.6,307.5,93.9z"/>
			<path class="st12" d="M248.5,23.3c-1.5,2.4-3,4.7-4.3,7.1c-0.6,1-0.9,2-1.3,3.1c-0.4,0.9-0.4,1.6,0.5,2.5
				c1.7,1.7,0.9,4.4-1.5,5.6c-0.2-0.6-0.6-1.3-0.9-0.2c-0.3,1-0.3,2.1-0.3,3.2c0,1,0.1,2,0.2,3c0.3,1,0.3,2,0.5,3
				c0.1,0.6,0.1,1.2,0.3,1.8c0.1,0.4,0.1,0.7,0.1,1.1c-0.1,0.5-0.2,1-0.9,0.9c-0.1-0.1-0.1-0.2-0.1-0.4c-0.2-0.3-0.1-0.7-0.4-1
				c-4.3-11.3,1-24.7,7.5-30.3C248.3,22.6,248.6,22.8,248.5,23.3z"/>
			<path class="st13" d="M312.8,197.6c-0.2-3.4,0.8-6.5,2.4-9.5c4.3-8.2,8.2-16.5,12.3-24.8c1.2-2.4,2.6-4.7,3.9-7
				c-1.6,4.2-3.1,8.3-4.7,12.5c-2.8,7.2-6.9,13.8-10.6,20.6c-1.2,2.2-2.4,4.3-2.7,6.8C313.5,196.7,313,197.1,312.8,197.6z"/>
			<path class="st13" d="M281,99.6c1.9,0.2,3.8,0.3,5.7,0.5c2.4,0.2,4.3-0.8,6-2.4c2.2-1.9,4.1-4.1,5.5-6.6c2.7-4.8,4.8-9.9,6-15.3
				c0.2-1.1,0.3-2.2,0.5-3.3c0,2,0.2,4.1-0.2,6.1c-1.1,5.8-3,11.2-6.6,15.9c-1.5,1.9-3.3,3.6-5.3,5.1c-2.6,2.1-5.7,2.2-8.8,1.1
				C282.8,100.6,281.9,100.1,281,99.6z"/>
			<path class="st14" d="M318.7,138.5c-0.4-2.9-0.4-3,1.8-3.6c4-1.1,8.2-1.7,12.3-0.6c3.3,0.9,3.2,0.6,2.9,4.2
				C330,136.7,324.4,136.5,318.7,138.5z"/>
			<path class="st15" d="M323.8,184.6c6.7-2.8,13.3-5.9,20.5-7c2.1-0.3,2.2-0.2,2.4,2.1c-6.9,0.4-13.2,2.9-19.5,5.5
				c-0.8,0.3-1.6,0.6-2.4,1c-0.3,0.2-0.8,0.1-1,0.4l0,0C322.4,185.9,323.3,185.2,323.8,184.6z"/>
			<path class="st16" d="M334.3,156.2c0.2,4.9-1.6,9.4-3.4,13.8c-1.3,3.3-3,6.5-4.5,9.8c-0.3,0.6-1.1,1.1-0.3,1.9
				c-1,0.5-2.1,1-3.1,1.5c-0.1-0.1-0.2-0.2-0.3-0.3c0.2-0.5,0.4-0.9,0.7-1.4c3.7-6.7,6.5-13.8,9.2-20.9
				C333.3,159.1,333,157.4,334.3,156.2z"/>
			<path class="st10" d="M332.9,143.8c-3.8-1.2-7.7-1.4-11.6-0.5c-0.1-3.6-0.3-3.2,3.1-3.5c2.2-0.2,4.5-0.1,6.7,0.1
				c1.8,0.1,1.8,0.2,1.8,2C333,142.5,333,143.1,332.9,143.8z"/>
			<path class="st17" d="M296.9,17.6c-0.5-0.4-1.1-0.7-1.6-1.1c-0.9-0.8-1.6-1.7-2.6-2.3c-1.1-0.7-2.3-1.1-3.4-1.6
				c1.3-2.6,1.7-2.9,4-1.7c2.2,1.2,4.1,2.7,6.2,4.1c0.3,1.4,0.1,2.4-1.6,2.5C297.5,17.6,297.2,17.6,296.9,17.6z"/>
			<path class="st17" d="M296.5,192.8c-0.4,1.4-1,2.8-1.2,4.3c-0.2,1.1-0.6,1.4-1.7,1.4c-3.1,0-3.2-0.1-2.8-3.2c0.1-1,0.3-2,0.4-3.1
				c0.2-0.9,0.3-2.3,1.8-1.8C294.3,191,296.5,190.3,296.5,192.8z"/>
			<path class="st18" d="M241.3,53.5c0-0.3-0.1-0.6-0.1-0.9c-0.3-0.4,0-1-0.4-1.4c0-1.1,0-2.3,0-3.4c1.5,4.6,3.7,8.8,6.7,12.6
				c0.1,1.7-0.2,3.2-2.3,3.3c-1-1.9-2-3.8-2.9-5.6C242.1,56.4,241.3,55,241.3,53.5z"/>
			<path class="st19" d="M290.9,183.5c5.2,3,10.7,3.8,16.6,3.8c-0.1,1-0.2,1.8-1.5,1.7c-3.8-0.3-7.6-0.7-11.3-1.7
				c-1-0.3-2-0.6-3-0.9C289.8,185.7,289.8,185.7,290.9,183.5z"/>
			<path class="st20" d="M330,186.5c4.2-1.8,8.5-3.3,13-4.1c0.3-0.1,0.6-0.1,0.9-0.2c0.7-0.1,1.6-0.2,1.8,0.7c0.2,1.1-0.8,1-1.4,1.2
				c-4.3,1.4-8.8,2.5-13.3,2.8C330.5,187.2,330,187.5,330,186.5z"/>
			<path class="st21" d="M319,151.4c-0.2-0.6-0.4-1.2-0.5-1.7c-0.1-1.3-0.1-2.7,0-4c0-1.1-0.1-1.8-1.3-2.1c-1.3-0.4-1.8-1.6-2-2.8
				c-0.3-1.9-0.5-3.9-0.4-5.9c0.1-2.2,0.6-4.4,0.9-6.6c0.2-0.1,0.3-0.1,0.4,0.1c0.1,3.3,0.3,6.6,0.4,10c0,1.6-0.2,3,1.8,3.6
				c0.4,0.1,0.7,1,0.7,1.5C319,146.2,319,148.8,319,151.4z"/>
			<path class="st22" d="M245.1,63.6c1.2-0.8,1.8-2,2.3-3.3c1,0.7,1.9,0.5,2.8-0.3c0.3-0.3,0.5-0.6,0.8-0.9c1.2-1,2.1-0.7,2.7,0.7
				c0.1,0.2,0.2,0.5,0.2,0.7c0.8,2.2,0.4,3-2,3c-0.5,0-1.1-0.1-1.6-0.3c-1.3-0.3-2.5-0.2-3.5,0.9C245.8,65.1,245.4,64.5,245.1,63.6z
				"/>
			<path class="st23" d="M278.1,141.9c-3.2-1.7-6.5-2.9-10.2-2.6c0.7-2.5,0.7-2.5,2.8-2.3c3,0.3,5.7,1.1,8.3,2.6
				C279.8,140.8,279.6,141.6,278.1,141.9z"/>
			<path class="st24" d="M334.3,188.4c-1.8,0.5-3.6,1-5.4,1.4c-2.3,0.5-4.6,1.1-7,1.5c-1.4,0.3-2.4,1-3.3,2.2
				c-0.8,1.1-2.6,4.3-3.5,5.4c-0.3-2.2,1.9-6,2.8-7.8c0.2-0.4,0.9-0.5,1.4-0.7c2.5-1.1,5.3-1,7.9-1.4
				C329.6,188.7,332,188.6,334.3,188.4z"/>
			<path class="st25" d="M323.3,18.5c0.3-0.1,0.7-0.3,1-0.2c3.9,0.8,7.4,2.3,10.5,4.7c0.2,0.2,0.6,0.2,1,0.3
				c0.2,0.5,0.4,1.1,0.6,1.7c-2.4-0.7-4.5-1.4-6.6-2c-0.4-0.1-0.7-0.4-1-0.6C326.9,21.1,325.1,19.8,323.3,18.5z"/>
			<path class="st26" d="M258.6,80c-2.1-3.9-2.9-7.9-2.8-12.8c0.5,0.8,0.8,1.1,0.9,1.4c0.9,2.5,1.8,4.9,2.7,7.4
				C260.1,77.9,260.1,77.9,258.6,80z"/>
			<path class="st27" d="M286.8,26.7c1.5-0.6,2.3-0.4,3.2,0.8c1.5,2,2.5,4.3,2.9,6.8c0.3,2.1,1.1,4.2,0.1,6.4
				c-1.1-1.2-1.4-2.6-1.5-4.2c-0.2-2.8-0.9-5.5-2.2-8C288.9,27.4,288.2,26.5,286.8,26.7z"/>
			<path class="st28" d="M302.8,12.6c-0.7,0.2-1.4,0.4-2.1,0.6c-0.9-0.7-1.7-1.3-2.9-2.2c4-1.4,7.7-2.1,11.6-1.1
				c0.2,0.1,0.2,0.2,0.2,0.3c-0.1,0.1-0.1,0.1-0.2,0.1c-1.8,0.4-3.5,0.7-5.2,1.2C303.6,11.7,303.2,12.3,302.8,12.6z"/>
			<path class="st29" d="M296.5,192.8c-0.4-1.6-2-1-2.9-1.6c-1.3-0.9-2-0.1-2.4,1c0.1-1.2,0.2-2.5,0.4-3.8c2.4,0.7,4.5,1.3,6.7,2
				C297.6,191.3,297.1,192.1,296.5,192.8z"/>
			<path class="st30" d="M292.6,47.8c-0.3-0.4-0.5-0.8-0.8-1.1c-1.3,0.8-1.2,3.3-3.5,3c1-2.1,1.9-4.1,2.9-6.2c0.3-0.3,0.6-0.3,0.9,0
				C292.2,44.9,292.4,46.4,292.6,47.8z"/>
			<path class="st31" d="M297.8,17.6c0.5-0.8,1-1.7,1.6-2.5c0.8,0.9,1.6,1.7,2.3,2.7c0.2,0.3,0.1,1,0.1,1.5c-0.4-0.1-0.9,0-1.3-0.2
				C299.6,18.6,298.7,18,297.8,17.6z"/>
			<path class="st32" d="M323.8,184.6c0,0.6,0,1.3,0,1.9c-1.3,0.6-2.6,1.1-4.3,1.9C320.5,186.2,321.4,184.6,323.8,184.6z"/>
			<path class="st33" d="M347.2,188c-2.1-1-4.3-0.5-6.5-0.3c-1,0.1-2,0.1-3.1,0.2c2.7-0.6,5.4-1.3,8.1-1.8
				C347.3,185.8,347,187.1,347.2,188z"/>
			<path class="st34" d="M278.1,141.9c0.3-0.8,0.6-1.5,0.9-2.3c1.8,1.1,1.8,1.1,0.9,3.6C279.4,142.7,278.7,142.3,278.1,141.9z"/>
			<path class="st35" d="M241.3,53.5c0.4,1.1,0.9,2.2,1.2,3.3c0.1,0.3-0.2,0.8-0.4,1.2c-0.5-1.2-0.9-2.3-1.4-3.5
				C241,54.1,241.1,53.8,241.3,53.5z"/>
			<path class="st36" d="M315.6,125.5c0.6-0.5,1.2-1,1.8-1.5c-0.3,1-0.5,1.9-0.8,2.9C316,126.7,316,126,315.6,125.5z"/>
			<path class="st37" d="M315.6,125.5c0.3,0.5,0.7,0.9,1,1.4c-0.2,0.5-0.4,1-0.6,1.6c-0.1-0.1-0.2-0.1-0.4-0.1
				C315.7,127.4,315.7,126.5,315.6,125.5z"/>
			<path class="st38" d="M330,186.5c0.3,0.2,0.7,0.3,1,0.5c-0.8,0.2-1.7,0.4-2.5,0.5c0-0.2-0.1-0.3-0.1-0.5
				C329,186.9,329.5,186.7,330,186.5z"/>
			<path class="st39" d="M263.4,38.2c-0.2-0.2-0.3-0.3-0.5-0.5c0.2-0.5,0.4-1.1,0.5-1.6c0.2,0.1,0.3,0.1,0.5,0.2
				C263.7,36.9,263.5,37.5,263.4,38.2z"/>
			<path class="st40" d="M292,43.5c-0.3,0-0.6,0-0.9,0c0.1-0.4,0.2-0.8,0.3-1.2C291.7,42.7,291.9,43.1,292,43.5z"/>
			<path class="st41" d="M248.5,23.3c-0.2-0.2-0.4-0.4-0.6-0.6c0.3-0.3,0.7-0.6,1-0.9C248.7,22.3,248.6,22.8,248.5,23.3z"/>
			<path class="st42" d="M309.4,10.3c0-0.1,0-0.3,0-0.4c0.5,0,1,0.1,1.6,0.1c0,0.1,0,0.2,0,0.3C310.4,10.3,309.9,10.3,309.4,10.3z"
				/>
			<path class="st30" d="M288.3,49.7c-0.5,0.6-1,0.8-1.5,0C287.3,49.7,287.8,49.7,288.3,49.7z"/>
			<path class="st2" d="M269,142.8c-0.1,0.3-0.3,0.7-0.4,1C268.7,143.4,268.9,143.1,269,142.8z"/>
			<path class="st35" d="M240.3,53.1c0.1,0.3,0.2,0.7,0.4,1C240.6,53.7,240.5,53.4,240.3,53.1z"/>
			<path class="st43" d="M320.8,45.4c0.2,0,0.3,0,0.5-0.1c-0.1,0.2-0.2,0.5-0.3,0.7C321,45.8,320.9,45.6,320.8,45.4z"/>
			<path class="st16" d="M326.2,181.7c0.3-0.1,0.7-0.3,1-0.4C326.9,181.4,326.5,181.6,326.2,181.7z"/>
			<path class="st32" d="M323.8,186.5c0.3-0.1,0.7-0.3,1-0.4C324.5,186.2,324.1,186.4,323.8,186.5z"/>
			<path class="st6" d="M304.1,26.2c-0.2-0.3-0.3-0.6-0.5-0.9C303.8,25.6,303.9,25.9,304.1,26.2z"/>
			<path class="st44" d="M298.7,130.2c-0.3-0.4-0.6-0.8-0.9-1.3c-0.3,0.5-0.8,0.9-0.9,1.5c-0.3,1.9-0.4,3.8-1,5.8
				c-0.2-0.4-0.4-0.9-0.5-1.3c-0.1-0.8,0-1.6,0-2.4c0-0.4-0.4-0.7-0.6-1.1c-0.3,0.4-0.6,0.7-0.7,1.1c-0.1,0.4-0.1,0.8-0.1,1.2
				c0,3.3,0,6.5-0.1,9.8c0,1.4-0.1,2.9-1.3,4.5c-0.5-1.7-1-3.1-1.3-4.5c-0.7-4-1.1-8.1-0.3-12.1c1.3-6.5,5.3-8.2,10.7-7.6
				c2.1,0.2,3.8,1.3,4.7,3.3c0.6,1.1,1.1,2.3,1.3,3.6c0.8,3.9,1.1,7.9,0.6,11.9c-0.3,2.4-1,4.7-2.6,6.6c-1.4,2.8-4,2.7-6.6,2.6
				c-0.7,0-1.4-0.3-2-0.6c-0.1-2.2,0.7-4.2,2.6-5.2c2.7-1.5,4.3-4,6.7-5.7c0.2-0.2,0.5-0.7,0.4-0.8c-0.3-0.3-0.7-0.6-1-0.5
				c-0.7,0.2-1.3,0.5-1.9,0.8c-0.6,0.4-1.2,0.9-2.1,1.6c-0.2-1.8,0.1-3.2,0.5-4.5c0.5-1.4,1-2.9,1.4-4.3c0.1-0.5,0.3-0.9,0.3-1.4
				c0-0.3-0.3-0.6-0.5-1c-0.3,0.2-0.8,0.3-0.9,0.6c-0.5,1-0.8,2.1-1.2,3.1c-1,0-0.6-0.7-0.5-1.2c0.1-0.9,0.3-1.9,0.3-2.8
				c0-0.4-0.4-0.9-0.6-1.3c-0.3,0.4-0.8,0.7-1,1.1c-0.3,0.9-0.4,1.8-0.7,2.8C298,131.8,298.7,130.9,298.7,130.2z"/>
			<path class="st45" d="M297.4,151c0.6,0,1.3,0,1.9,0.1c2.5,0.2,4.8-0.4,6.7-2.1c0.7,0.4,1.4,0.8,2,1.3c1.4,1.2,1.2,3-0.5,3.9
				c-0.3,0.1-0.6,0.2-0.9,0.3c-2.5,0.4-5,0.9-7.5,1.3c-0.6,0.1-1.4-0.4-1.8-0.9c-0.6-0.7-0.4-1.6,0.2-2.2
				C298.1,152,298.1,151.5,297.4,151z"/>
			<path class="st46" d="M319.1,108c-0.1,2.5-0.1,5-0.2,7.6c0,0.4,0.1,0.8,0,1.2c-0.1,0.3-0.3,0.6-0.6,0.6c-0.2,0-0.6-0.2-0.8-0.4
				c-0.2-0.4-0.4-0.9-0.4-1.3c-0.1-3,0-6,1.4-8.8C319.5,106.8,319.1,107.5,319.1,108z"/>
			<path class="st47" d="M278.5,127.6c-0.2-0.4-0.7-0.7-0.7-1.1c-0.3-2.2-0.6-4.4-0.8-6.6c0-0.3,0.5-0.6,0.8-1
				c0.2,0.3,0.5,0.6,0.6,0.9c0.2,2.5,0.4,5,0.6,7.5C278.7,127.5,278.6,127.6,278.5,127.6z"/>
			<path class="st48" d="M298.7,130.2c0.2,0.7,0.3,1.3,0.5,2c-0.2,1.1-0.3,2.3-0.5,3.7C298,134.3,298.1,132.5,298.7,130.2z"/>
			<path class="st49" d="M319.1,108c-0.2-0.4-0.4-0.8-0.6-1.2c0.3-1.1,0.7-2.2,1.6-3c0.2,0.1,0.3,0.1,0.5,0.2
				C320.1,105.4,319.6,106.7,319.1,108z"/>
			<path class="st50" d="M301.1,132.5c0.2,0.4,0.3,0.8,0.5,1.2c-0.2,0.6-0.3,1.3-0.5,1.9c-0.9,0-0.6-0.5-0.5-1
				C300.8,133.9,301,133.2,301.1,132.5z"/>
			<path class="st51" d="M300.6,134.6c0.2,0.3,0.3,0.7,0.5,1c-0.2,0.2-0.4,0.5-0.6,0.7c-0.1-0.2-0.3-0.5-0.3-0.7
				C300.3,135.2,300.5,134.9,300.6,134.6z"/>
			<path class="st52" d="M282.6,92c-0.3,0-1-0.1-1.7-0.2c-0.8-0.2-1.4-0.6-1.6-1.5c-0.4-1.8-0.9-3.4-3.1-3.6c-0.2,0-0.3-0.5-0.4-0.7
				c0.3-0.1,0.5-0.4,0.8-0.4c3.9-0.1,7.2-1.8,10.3-4c0.7-0.5,1.2-1.2,1.6-1.9c0.7-1.1,1.5-1.4,2.6-0.8c1,0.6,1.1,1.2,0.2,2.5
				c-0.2,0.3-0.3,0.7-0.2,1c0.9,2.3,0.6,4.4-0.9,6.3C288.5,90.7,285.7,92,282.6,92z"/>
			<path class="st52" d="M271.6,68.2c-0.1,1.2-0.2,2.3-1.3,2.5c-0.7,0.1-1.8-0.4-2.2-1c-1-1.8-1.8-3.7-2.4-5.6
				c-0.3-0.9-0.5-1.4-1.5-1.2c-0.3,0-0.7,0-0.9-0.1c-0.5-0.4-1.3-1-1.2-1.4c0.2-1,1-0.8,1.7-0.4c0.8,0.4,1.5,0.3,2.3,0
				c1.4-0.6,2.1-0.5,3.1,0.8C270.6,63.6,271.3,65.9,271.6,68.2z"/>
			<path class="st52" d="M286.2,63c-0.3,0.5-0.7,1.6-1.3,2c-1.1,0.6-2-0.3-2.5-1.2c-0.9-1.7-1.6-3.5-2.2-5.3
				c-0.3-0.9-0.4-1.4-1.5-1.3c-0.6,0-1.3-0.4-1.9-0.8c-0.2-0.1-0.3-0.8-0.2-1c0.1-0.3,0.8-0.5,1-0.4c1.2,0.7,2.3,0.5,3.6,0
				c0.5-0.2,1.7,0.4,2.2,0.9C285,57.8,285.7,60.2,286.2,63z"/>
			<path class="st53" d="M274.3,49.6c1.3-0.8,2.6-1.5,4-2.3c0.9,0,1.8-0.2,2.6,0c0.8,0.1,1.7,0.5,2.4,0.9c0.3,0.1,0.5,0.7,0.4,1
				c-0.1,0.3-0.6,0.4-0.9,0.6c-0.1,0.1-0.3,0-0.5,0c-2.1-0.4-3.9,0.2-5.7,1.3c-0.1,0-0.1,0.1-0.2,0.1c-0.6,0.1-1.3,0.4-1.8,0.2
				C273.9,51.2,274,50.3,274.3,49.6z"/>
			<path class="st54" d="M305,55.5c1.4-0.1,1.9,1,2.3,2c0.4,1.3,0.7,2.6,1,3.9c0.3,1.2-0.4,2.3-1.4,2.6c-1.2,0.4-2-0.1-2.7-1.4
				c1.3-0.4,1.3-1.4,0.9-2.5C304.5,58.6,304.4,57.1,305,55.5z"/>
			<path class="st55" d="M259.6,55.6c1.2-1.5,2.7-2.7,4.7-3c0.3,0.1,0.7,0.1,0.9,0.3c0.4,0.4,1,1,0.9,1.4c-0.1,0.4-0.8,1.1-1.2,1.1
				c-1.6,0.1-2.8,0.9-4,1.8c-0.3,0.3-0.8,0.3-1.2,0.4c-0.1-0.4-0.2-0.9-0.2-1.3C259.4,56,259.5,55.8,259.6,55.6z"/>
			<path class="st56" d="M305,55.5c0.1,0.8,0.1,1.7,0.2,2.5c0.2,1.1,0.5,2.1,0.8,3.2c0.4,1.7-0.1,2-1.9,1.4c-0.7-2.2-1.3-4.5,0-6.7
				c0.2-0.2,0.3-0.4,0.6-0.4C304.8,55.5,304.9,55.5,305,55.5z"/>
			<path class="st57" d="M286.7,96.3c-0.6-0.2-1.2-0.4-1.6-0.6c-0.3-0.2-0.5-0.7-0.5-1c0-0.2,0.5-0.4,0.9-0.5c1-0.3,1.9-0.7,3-0.9
				c0.4-0.1,1.2,0.2,1.3,0.6c0.2,0.4-0.1,1.2-0.4,1.4C288.5,95.8,287.5,96,286.7,96.3z"/>
			<path class="st54" d="M304.7,55.5c-0.2,0.1-0.4,0.3-0.6,0.4C304.3,55.8,304.5,55.7,304.7,55.5z"/>
			<path class="st58" d="M302.2,30.5c1.5,3.3,2.7,6.8,2.5,10.5c-0.1,1.9-0.3,2.5-1.7,4.2c0-4.3-0.2-8.3-2.1-11.9
				c-0.9-2.5-2.4-4.7-4.5-6.4c-0.3-0.3-0.7-0.4-0.9-0.8c-0.2-0.4-0.4-1.2-0.2-1.4c0.3-0.3,1-0.5,1.4-0.3c0.7,0.3,1.5,0.7,2,1.3
				C299.9,27.3,301,28.9,302.2,30.5z"/>
			<path class="st59" d="M253.7,39.8c-1.4-0.1-2.3-0.1-3.1-0.3c-1-0.2-1.8-1-1.6-2.1c0.1-0.6,0.9-1.4,1.5-1.6
				c2.2-0.5,4.5-0.9,6.8-1.2c1-0.1,1.8,0.6,2.1,1.6c0.3,1-0.2,2.2-1.3,2.5C256.6,39.3,254.9,39.6,253.7,39.8z"/>
			<path class="st60" d="M269.4,35.8c-1.1-0.2-1.8-0.7-2.1-1.6c-0.3-1.1,0.1-2,1-2.4c1-0.5,2.1-0.8,3.1-1.1c1-0.3,1.8,0.1,2.2,1
				c0.5,0.9,0.5,2-0.4,2.6C272.1,34.9,270.7,35.3,269.4,35.8z"/>
			<path class="st61" d="M311.8,17.5c1.6,1.1,3.4,2.2,4.9,3.5c1.3,1.1,2.4,2.6,3.4,4c0.3,0.3,0.1,1,0.2,1.5c-0.5-0.1-1-0.2-1.4-0.5
				c-0.3-0.1-0.4-0.5-0.6-0.7c-3.1-3.9-7.1-6.4-11.8-7.8c-0.5-0.1-0.9-0.2-1.4-0.5c-0.8-0.5-0.3-0.9,0.1-1.3
				C307.3,16.3,309.6,16.9,311.8,17.5z"/>
			<path class="st62" d="M312.7,25.5c0.7,0.5,1.6,0.9,2.2,1.6c1.2,1.4,2.4,3,3.4,4.6c0.2,0.4-0.1,1.1-0.2,1.7
				c-0.5-0.2-1.3-0.2-1.6-0.6c-1-1.4-1.7-2.8-2.6-4.2c-0.5-0.8-1.1-1.6-1.7-2.4C312.3,25.9,312.5,25.7,312.7,25.5z"/>
			<path class="st35" d="M240.8,51.1c0.1,0.5,0.2,1,0.4,1.4C241,52.1,240.9,51.6,240.8,51.1z"/>
			<path class="st63" d="M288.9,83.1c0.9,2.1,0.1,3.6-1.4,5c-1.6,1.5-3.5,2.5-5.6,1.7c-0.8-0.3-1.3-1.6-1.9-2.5
				C283.1,85.9,285.9,84.5,288.9,83.1z"/>
		</g>
	</g>
</g>
</svg>
