<?xml version="1.0" encoding="utf-8"?>
<!-- Generator: Adobe Illustrator 25.2.2, SVG Export Plug-In . SVG Version: 6.00 Build 0)  -->
<svg version="1.1" id="feedback" xmlns="http://www.w3.org/2000/svg" xmlns:xlink="http://www.w3.org/1999/xlink" x="0px" y="0px"
	 viewBox="0 0 375 225" style="enable-background:new 0 0 375 225;" xml:space="preserve">
<style type="text/css">
	.st0{fill:#FFFFFF;}
	.st1{opacity:0.2706;}
	.st2{display:none;}
	.st3{display:inline;}
	.st4{fill:#B5A28E;}
	.st5{fill:#7F1515;}
	.st6{fill:#F8DEC3;}
	.st7{fill:#FF9900;}
	.st8{fill:#BA7000;}
	.st9{fill:#00C0CC;}
	.st10{fill:#F5D09B;}
	.st11{fill:#F7DDC2;}
	.st12{fill:#B3A08C;}
	.st13{fill:#B4A28E;}
	.st14{fill:#F4CF99;}
	.st15{fill:#B4A18D;}
	.st16{fill:#F3CF9A;}
	.st17{fill:#F2CD99;}
	.st18{fill:#B8B8B8;}
	.st19{fill:#00BDC9;}
	.st20{fill:#FA9601;}
	.st21{fill:#EECA96;}
	.st22{fill:#6C6C6C;}
	.st23{fill:#B5B5B5;}
	.st24{fill:#B56D00;}
	.st25{fill:#EECB96;}
	.st26{fill:#008A93;}
	.st27{fill:#B86F00;}
	.st28{fill:#AD6800;}
	.st29{fill:#B66D00;}
	.st30{fill:#AF6900;}
	.st31{fill:#008991;}
	.st32{fill:#AF9C89;}
	.st33{fill:#00848D;}
	.st34{fill:#A9906B;}
	.st35{fill:#00838B;}
	.st36{fill:#9A8362;}
	.st37{fill:#DEB67B;}
	.st38{fill:#848484;}
	.st39{fill:#212121;}
	.st40{fill:#4B4B4B;}
	.st41{fill:#413A33;}
	.st42{fill:#5C5349;}
	.st43{fill:#E4B877;}
	.st44{fill:#905700;}
	.st45{fill:#814E00;}
	.st46{fill:#020101;}
	.st47{fill:#BABABA;}
	.st48{fill:#1D1D1D;}
	.st49{fill:#191919;}
	.st50{fill:#393838;}
	.st51{fill:#383838;}
	.st52{fill:#0A0909;}
	.st53{fill:#626161;}
	.st54{fill:#040303;}
	.st55{fill:#070706;}
	.st56{fill:#B19F8B;}
	.st57{fill:#0C0A09;}
	.st58{fill:#0B0A09;}
	.st59{fill:#0F0D0C;}
	.st60{fill:#060400;}
	.st61{fill:#F7D19A;}
	.st62{fill:#F7D098;}
	.st63{fill:#080500;}
	.st64{fill:#0A0600;}
	.st65{fill:#F9F9F9;}
	.st66{display:inline;fill:#00C0CC;}
	.st67{display:inline;fill:#D2C8B9;}
	.st68{display:inline;fill:#F7DDC2;}
	.st69{display:inline;fill:#FE9800;}
	.st70{display:inline;fill:#008C95;}
	.st71{display:inline;fill:#B97000;}
	.st72{display:inline;fill:#B4A18D;}
	.st73{display:inline;fill:#FEFEFE;}
	.st74{display:inline;fill:#999287;}
	.st75{display:inline;fill:#F6D19B;}
	.st76{display:inline;fill:#00BFCB;}
	.st77{display:inline;fill:#FD9800;}
	.st78{display:inline;fill:#B96F00;}
	.st79{display:inline;fill:#B29F8C;}
	.st80{display:inline;fill:#999288;}
	.st81{display:inline;fill:#B86F00;}
	.st82{display:inline;fill:#B3A18D;}
	.st83{display:inline;fill:#989186;}
	.st84{display:inline;fill:#B9B9B9;}
	.st85{display:inline;fill:#B3A08C;}
	.st86{display:inline;fill:#B29F8B;}
	.st87{display:inline;fill:#B46C00;}
	.st88{display:inline;fill:#008A93;}
	.st89{display:inline;fill:#B66D00;}
	.st90{display:inline;fill:#73675A;}
	.st91{display:inline;fill:#804D00;}
	.st92{display:inline;fill:#905700;}
	.st93{display:inline;fill:#2C1B00;}
	.st94{display:inline;fill:#010101;}
	.st95{display:inline;fill:#5A3600;}
	.st96{display:inline;fill:#000202;}
	.st97{display:inline;fill:#000102;}
	.st98{display:inline;fill:#000405;}
	.st99{display:inline;fill:#020202;}
	.st100{display:inline;fill:#010100;}
	.st101{display:inline;fill:#060505;}
	.st102{display:inline;fill:#010000;}
	.st103{display:inline;fill:#020100;}
	.st104{fill:#FEFEFE;}
	.st105{fill:#B9B9B9;}
	.st106{fill:#010101;}
	.st107{fill:#030303;}
	.st108{fill:#020202;}
	.st109{fill:#D8D8D8;}
	.st110{fill:#008C95;}
	.st111{fill:#00C0CB;}
	.st112{fill:#008C94;}
	.st113{fill:#FE9800;}
	.st114{fill:#B97000;}
	.st115{fill:#F6D19B;}
	.st116{fill:#00BFCB;}
	.st117{fill:#FD9800;}
	.st118{fill:#B96F00;}
	.st119{fill:#008992;}
	.st120{fill:#B46D00;}
	.st121{fill:#AC9A87;}
	.st122{fill:#754700;}
	.st123{fill:#8D5500;}
	.st124{fill:#4D2E00;}
	.st125{fill:#5F554A;}
	.st126{fill:#000101;}
	.st127{fill:#000404;}
	.st128{fill:#020201;}
	.st129{fill:#030302;}
	.st130{fill:#010000;}
	.st131{fill:#010100;}
	.st132{fill:#020100;}
</style>
<g id="Layer_8">
	<g id="bg_xA0_Image_1_">
		<path class="st0" d="M2.1,205.5l0-186.4c0-3.5,2.8-6.3,6.3-6.3c94.1,0,270.1,0.6,361.7,0.6c1.1,0,2,0.9,2,2v-0.6
			c0,74.5,0,118.6,0,192.2c0,2.6-2.1,4.8-4.8,4.8c-91.5,0-265.7,0-358.9,0C4.9,211.8,2.1,208.9,2.1,205.5z"/>
	</g>
	<g id="shadow" class="st1">
		<path id="left_7_" d="M18.8,23.8c-0.2-0.1-0.4-0.2-0.7-0.3c-1.2-0.7-2.6-0.3-3.3,0.8c-0.4,0.7-0.4,1.5-0.4,2.3
			c0,25.3,0,50.5,0,75.8c0,23.7,0,62.3,0,86c0,1.8,0,3.6,0.1,5.4c0.1,1.8,1,2.9,2.4,2.9c1.5,0,2.5-1,2.6-2.9c0.1-1,0-2.1,0-3.1
			c0-48.9,0-112.7,0-161.6c0-1,0.2-1.4,1.1-1.5C19.1,26.9,18.9,25.4,18.8,23.8z"/>
		<path id="top_5_" d="M355,24.5c-0.5-0.8-1.3-1.1-2.1-1.1c-2,0-3.9,0.1-5.9,0.1c-8.2,0-12.2,0.1-20.4,0.1
			c-18.2,0-36.3,0.1-54.5,0.1c-8,0-16.1,0.1-24.1,0.1c-18.1,0-36.2,0.1-54.3,0.1c-7.4,0-14.7,0-22.1,0C156.2,24,32.8,24,17.5,24.1
			c-0.3,0-0.6,0-0.9-0.1c0,1.6,0.2,3.1,1.7,4c0.1,0,0.2,0,0.3,0c10.1,0,128.2-0.1,138.3-0.1c13,0,26-0.1,39-0.1
			c13.2,0,26.5-0.1,39.7-0.1c13,0,25.9-0.1,38.9-0.1c13.2,0,26.4-0.1,39.6-0.1c11.7,0,19.1,0,30.7,0c2.8,0,5.5,0,8.3-0.1
			C354.7,27.3,355.7,25.8,355,24.5z"/>
	</g>
	<g id="inner_lines">
		<path id="left" d="M14.7,23c-1.1,0.1-1.5,0.8-1.5,1.9c0,0.5,0,7.8,0,8.2c0,29.4,0,58.7,0,88.1c0,25.8,0,50.8,0,76.6
			c0,2.1,0.6,2.9,2.3,3c0.7,0,1.3,0,2,0.1c0-0.8,0-1.6,0-2.3c-0.5,0-1.1,0-1.6-0.1c0-56.2,0-118,0-174.1c0.2,0,0.4,0,0.6,0
			c0-0.6,0-1.1,0-1.6C15.9,22.9,15.3,23,14.7,23z"/>
		<path id="bottom" d="M17.1,198.5c0,0.8,0,1.5,0.1,2.3c2.7,0,112.5,0,115.2,0c6.7,0,13.4-0.1,20.1-0.1c12.5,0,24.9,0,37.4,0
			c9,0,18,0,27,0c12.4,0,24.8,0,37.1,0c5.5,0,11.1,0,16.6,0c8.9,0,17.8,0.1,26.7,0.1c8.4,0,16.8,0,25.2,0c12.1,0,25.5,0.1,37.6,0.1
			c0-0.9-0.1-1.9-0.1-2.7C281.8,198.4,95.3,198.4,17.1,198.5z"/>
		<path id="right" d="M362.5,106.9c0-23.7,0-47.3,0-71c0-3.6,0-6.1-0.1-9.7c0-0.5-0.4-1.3-0.7-1.4c-0.8-0.1-0.8,0.7-0.8,1.4
			c0,0.9,0,2.9,0,3.8c-0.1,57.8-0.2,109-0.2,166.8c0,0.5,0,0.9,0,1.3c-0.2,0-0.4,0-0.6,0c0,0.7,0,1.8,0,2.7c0.2,0,0.5,0,0.7,0
			c1.7,0.1,2-0.3,2-2.1C362.6,166.6,362.5,138.9,362.5,106.9z"/>
		<path id="top_4_" d="M357.9,22.1c-3.6,0-5.3,0-8.9,0c-13.7,0-27.4,0.1-41,0.1c-14.4,0-28.7,0.1-43.1,0.1c-15.2,0-30.3,0-45.5,0
			c-18.9,0-37.8,0.1-56.6,0.1c-12.2,0-132.5,0.1-144.7,0.1c-0.7,0-1.5,0.1-2.2,0.1c0,0.4,0,0.9,0,1.5c0,0,0.1,0,0.2,0
			c10,0,128.1,0.1,138.1,0c20.5,0,41-0.1,61.6-0.1c22.4-0.1,44.7-0.2,67.1-0.2c16.3,0,32.6-0.1,48.8-0.1c9.5,0,17,0,26.4,0
			c0.7,0,1.5,0.1,1.5-0.9C359.4,21.9,358.5,22.1,357.9,22.1z"/>
	</g>
	<g id="outer_lines">
		<path id="left_1_" d="M8.4,209.4c-2.5-0.1-3.8-1.5-3.9-3.9c0-0.3,0-0.6,0-1c0-58.3,0-127.5,0-185.7c0-0.6,0-1.2,0.1-1.8
			c0.2-1.5,1-2.5,2.4-2.8c0-0.8,0-1.6,0-2.4c-3.2,0.5-5.2,2.7-5.3,6.1c0,0.4,0,0.8,0,1.2c0,57.9,0,126.7,0,184.7
			c0,1.1,0,2.2,0.1,3.2c0.3,2.7,2.4,4.8,5.1,5.1c0.6,0.1,1.2,0.1,1.8,0.1c0.1,0,0.4,0,0.5,0L9,209.4C8.8,209.4,8.6,209.4,8.4,209.4z
			"/>
		<path id="bottom_1_" d="M316.8,210.4c-19.5-0.1-39-0.2-58.4-0.3c-25.4-0.1-50.8-0.2-76.2-0.4c-14.5-0.1-29-0.1-43.6-0.2
			c-6.8,0-123.6-0.1-130.3-0.1c0,0.9,0.1,1.9,0.1,2.8c13,0.1,136,0.1,148.9,0.2c18.3,0.1,36.6,0.2,55,0.3c3,0,5.9,0,8.8,0.1l3,0
			c0.2,0,0.4,0,0.6,0c18.5,0.1,37,0.2,55.6,0.3l-43.3-0.2l51.9,0.3c0.8,0,1.4-0.1,1.9-0.1c18,0.1,35.9,0.3,53.9,0.2
			c6.6,0,15.9-0.1,21.4-0.3c0.1-0.8,0.2-1.6,0.2-2.4C349.7,210.6,333.3,210.5,316.8,210.4z"/>
		<path id="right_1_" d="M373.4,19.6c0-3.8-0.5-5.4-1.8-6.6c-1.2-0.8-3.7-1.4-6-1.3c-0.1,0-0.3,0-0.4,0c0,0.8-0.1,1.5-0.1,2.2
			c0.5,0,1,0,1.5,0c3.2-0.1,4.6,1.3,4.6,4.5c0,63.7,0,124,0,187.7c0,3.3-2.1,4.6-4.7,4.5c0,0-0.1,0-0.1,0c0,0.8-0.1,1.6-0.2,2.4
			c2.2,0,3.8,0,4.3,0c1.1-0.1,2.5-1.4,2.7-2.8c0.1-2.3,0.3-4.5,0.3-6.8C373.4,141,373.3,82.4,373.4,19.6z"/>
		<g id="top_1_">
			<path id="right_4_" d="M365.1,11.7c-17.4-0.1-34.8,0-52.1,0c-23.9,0-47.8,0-71.6,0c-13.4,0-133.8,0-147.2,0c-1.4,0-2.9,0-4.3,0.2
				c-0.4,0.1-0.8,0.6-1.2,1c0.4,0.3,0.8,0.8,1.2,0.9c1.8,0.1,3.7,0.2,5.5,0.2c16.1,0,139.2,0,155.4,0c14.8,0,29.5,0,44.3,0
				c23.3,0,46.7,0,70,0C365,13.2,365,12.5,365.1,11.7z"/>
			<path id="left_5_" d="M7.7,14c0.8,0,1.6-0.1,2.4-0.1c14.9,0,36.2,0,63.8-0.1c2.6,0,5.2-0.1,7.8-0.3c0.4,0,0.8-0.5,1.2-0.8
				c-0.4-0.2-0.8-0.6-1.2-0.7c-2.3-0.2-4.6-0.3-6.9-0.3c-8.6-0.1-17.3-0.1-25.9-0.1c-13.6,0-27.2,0-40.8,0c-0.4,0-0.8,0.1-1.2,0.1
				v2.4C7.1,14.1,7.4,14,7.7,14z"/>
		</g>
	</g>
	<g id="maria_xA0_Image_1_" class="st2">
		<g class="st3">
			<path d="M333.7,28.1c0.5,1,1.1,2,1.6,3c1.7,3.8,0,8.2-3.9,9.6c-1,0.4-1.8,0.9-2.4,1.7c-1.2,1.4-2.4,2.8-4.4,3.1
				c-0.4,0.1-0.7,0.7-0.9,1.2c-0.5,1.1-0.8,2.3-1.4,3.3c-0.4,0.6-1.1,1.3-1.8,1.3c-1,0.1-1.1-1-1.2-1.8c-0.6-3.4-1.7-6.7-3.5-9.6
				c-1.3-2-2.7-3.9-4.9-5.7c0,0.8-0.1,1.3,0,1.8c0.9,5.2,0.4,10.2-1.2,15.1c-0.3,1-0.3,1.8,0.4,2.6c3.9,4.8,2.2,12.2-1.2,15.4
				c-1.2,1.1-1.4,2.2-1.3,3.8c0.2,2.1-0.3,4.3-0.4,6.4c-0.1,1.5-0.2,3,0.1,4.5c0.5,2.5,1.4,4.9,2,7.4c0.3,0.9,0.8,1.4,1.6,1.8
				c1,0.5,2.1,1.2,2.8,2.2c1,1.4,2.3,1.8,3.9,1.9c2.2,0.1,4.3,0.2,6.5,0.4c7.6,0.7,12.7,5.8,13,13.5c0.4,9,0.6,18.1,0.9,27.1
				c0,0.8,0,1.6-0.1,2.4c-0.1,0.8-0.4,1.6-1.3,1.7c-1.2,0.1-1.3,0.9-1.3,1.9c0,1.9-0.2,3.8-0.2,5.7c0,0.7,0.2,1.4,0.5,2
				c3,5.6,6,11.1,9,16.7c1.6,3.1,3.2,6.2,4.7,9.4c0.6,1.4,1,2.9-0.3,4.2c-0.3,0.3-0.1,1.1,0,1.6c0.4,2.6,0.8,5.2,1.3,7.8
				c0,0.2,0,0.3,0.1,0.5c1.7,3.2,0.1,4.2-0.4,7.1c-0.2,1-1,1.4-2,1.3c-4.8-0.1-10.1,0.3-14.9,0.2c-2.6-0.1-5.5,0.1-8.1,0
				c-4.6-0.2-7.9,0.2-12.5,0c-1.4-0.1-3.1,0.8-3.5,2.3c-0.4,1.5-1.5,2.1-3,2.4c-2.7,0.5-5.4,0.3-8.1-0.3c-1.5-0.3-2.1-1.4-2.3-2.7
				c-0.2-1.2-0.8-1.6-2-1.5c-1.2,0.1-2.4,0-3.6,0c-0.9,0-1.4-0.4-1.4-1.3c-0.1-1.3-0.2-2.6,0-3.8c0.2-2.4,0.5-4.8,1-7.1
				c0.2-0.9,0.1-1.5-0.7-2c-1.1-0.7-1-1.7-0.6-2.7c1.4-3.7,2.8-7.5,4.3-11.2c0.3-0.8,0.8-1.5,0.1-2.4c-0.3-0.4-0.3-1.2,0-1.5
				c0.7-0.9,0.2-1.6-0.3-2.4c-1.4-2.5-2.8-5-4.1-7.6c-0.5-1-1.1-1.6-2.1-2.2c-1.7-1.1-3.3-2.5-5-3.8c-0.3,0.8-0.6,1.8-1,2.7
				c-1.2,3-2.5,5.9-3.7,8.8c-0.7,1.6-2.1,2.6-3.6,3.4c-1,0.5-2,0.6-2.7-0.6c-0.4-1.3,0.7-1.9,1.5-2.4c1.8-1.2,3-2.8,3.8-4.8
				c1.2-3.2,2.4-6.4,3.2-9.8c0.8-3.3,0.3-4.5-2.7-6c-1.9-1-3.9-2.3-6.3-1.6c-0.1,0.2-0.2,0.3-0.4,0.5c-0.2,0.4-0.2,0.8-0.3,1.3
				c-0.8,2.2-0.8,4.1,1.5,5.3c0.1,0.1,0.2,0.2,0.3,0.3c0.7,1,2,2.1,1,3.3c-1.1,1.3-2.3,0.1-3.3-0.7c-1.3-1.1-2.8-1.9-4.3-2.5
				c-9.8-4.3-18.5-10.3-26.9-16.8c-1.6-1.3-2.7-2.9-3-5c-0.4-3.4-0.9-6.8-3.1-9.6c-0.9-1.2-1.1-2.7-1.6-4.7c-1.1,2-0.6,3.3,0.4,4.4
				c3.1,3.4,2.7,7.5,2.5,11.6c-0.1,1.2-0.6,2.3-1.9,2.8c-1.3,0.3-2.7,0.2-3.9,0.7c-0.6,0.2-1.3,0.3-1.6-0.5
				c-0.3-0.7,0.1-1.2,0.5-1.7c1-1.1,2.7-0.9,3.7-1.9c0.9-2,0.5-4.1,0.1-6.1c-0.4-1.9-2.3-2.9-4.5-2.6c-2.7,0.4-3.9,1.5-3.7,3.8
				c0.2,2.5,0.8,5,1.7,7.4c0.5,1.6,1.7,2.1,3.1,2.1c4.4,0.1,7.5,2.6,10.4,5.6c8.5,8.7,17.5,16.8,27.8,23.3c1.2,0.8,2.5,1.5,3.6,2.3
				c0.7,0.5,1.6,0.9,1.4,2c-0.4,0.7-1,0.6-1.7,0.4c-1.7-0.7-3.4-1.3-5-2.2c-5.3-2.9-10-6.6-14.6-10.5c-6.1-5.2-11.9-10.7-17-16.8
				c-0.6-0.7-1.2-0.8-2.1-0.9c-1.9-0.1-3.8-0.3-5.7-0.5c-1.2-0.1-2-0.8-2.5-2c-1.7-3.6-2.4-7.4-2.6-11.4c-0.1-2,0.7-3.4,2.6-4.1
				c1.3-0.5,2.5-1,3.8-1.4c0.9-0.3,1.2-0.6,1.3-1.6c0.1-1.4,0.6-2.8,1.2-4c0.5-1.1,1.6-1.7,3-1.5c1.4,0.3,2.3,1.1,2.6,2.5
				c0.1,0.3,0.1,0.6,0.2,0.9c0.1,1.9,0.8,3.6,2,5c1.4,1.6,1.9,3.5,2,5.5c0,0.2,0,0.5,0,0.7c-0.1,2.7,0.9,4.5,3.2,6.2
				c7.5,5.5,15.2,10.7,23.4,14.9c0.4,0.2,0.8,0.4,1.4,0.7c0.4-1.4,0.8-2.5,1-3.8c0.1-0.4,0-1-0.3-1.3c-1-1.3-0.7-2.6-0.2-3.9
				c2.1-6.2,4.4-12.3,6.3-18.6c1.6-5.2,5-8.6,9.8-10.8c2-0.9,4-1.9,6-2.9c0.9-0.4,1.6-1,1.4-2.3c-1.2-0.1-2.5-0.2-3.8-0.4
				c-5.1-0.8-9.2-3.5-13-6.8c-4.5-4-7.8-8.9-10.4-14.2c-0.2-0.4-0.4-0.7-0.5-1c-0.2,0.1-0.4,0.1-0.5,0.1c-1.5,2.4-1.6,2.5-3.3,0.2
				c-3-3.9-4-8.3-3.6-13.1c0-0.6,0.2-1.3,0.2-1.9c0-0.1-0.1-0.3-0.1-0.4c-1.5-0.1-3-0.2-4.5-0.4c-0.9-0.1-1,0.5-1.4,1
				c-1.3,1.9-1.9,1.9-3.5,0.4c-0.5-0.4-0.9-0.9-1.2-1.5c-6.9-10.2-9.3-21.1-5.1-33c2.4-6.6,6.4-12.2,12.7-15.8
				c4.3-2.5,9-3.6,14.1-2.9c0.7,0.1,1.6-0.1,2.3-0.3c5.6-2.1,11.3-2.8,17.2-2c1.2,0.2,2.1,0.1,2.7-1.2c0.9-1.9,2.4-2.6,4.5-2.3
				c0.5,0.1,1.1-0.1,1.5-0.4c8.8-7.6,23.8-8.7,33.9-0.3c6,4.9,10.2,11,12,18.6c0.2,1,0.8,2.1-0.1,2.9c-1,0.9-1.9,0-2.9-0.4
				c-0.8-0.3-1.6-0.7-2.4-1.1C333.5,27.7,333.7,27.9,333.7,28.1z"/>
			<path class="st4" d="M269,142.8c-0.1-0.9,0.2-1.4,1.2-1.3c3.4,0.5,6.4,1.9,9,4.1c0.4,0.3,0.6,1.1,0.6,1.7c0,0.9-0.1,1.9-0.4,2.8
				c-1.2,3.6-2.4,7.2-3.6,10.8c-0.6,1.9-1.9,3.2-3.6,4.2c-0.8,0.5-1.8,0.8-1.9,1.9c-0.3,0-0.5,0-0.8,0c-0.8-0.6-1.5-1.4-2.4-1.9
				c-10-6.1-19-13.4-27.3-21.7c-2.7-2.6-5.5-5.1-8.3-7.5c-0.5-0.4-1.2-0.7-1.9-0.8c-1.6-0.4-3.3-0.6-4.9-0.9c-1.1-0.2-1.9-0.8-2-2
				c2.3-2.7,4.8-3.5,7.5-2.4c0,0.9-0.7,0.6-1.1,0.7c-1.1,0.3-2.2,0.7-3.2,1.2c-0.2,0.1-0.1,0.7-0.2,1c0.3,0,0.7,0.2,0.9,0.1
				c1.4-0.9,2.9-0.5,4.4-0.5c1.4,0.2,2.3,1.1,3.2,2.1c7.4,7.7,15.2,14.8,23.4,21.5c3.3,2.6,6.7,4.9,10.5,6.7
				c2.5,1.2,4.1,0.5,5.1-2.1c1.4-3.7,2.3-7.5,3.4-11.2c0.3-1.1,0-1.9-0.9-2.5c-1.4-1-2.9-1.9-4.5-2.7
				C270.1,143.8,269.3,143.7,269,142.8z"/>
			<path class="st5" d="M333.7,28.1c-0.2-0.3-0.3-0.6-0.5-0.9c0.2,0.1,0.4,0.2,0.6,0.2C333.8,27.7,333.8,27.9,333.7,28.1z"/>
			<path class="st0" d="M319.5,153.4c-2.8,4.7-4.2,10-5.8,15.2c-1.6,4.9-2.9,10-4.4,14.9c-0.6,2.2-0.7,2.1-3,2.1
				c-4.7,0-9.2-0.8-13.6-2.5c-1.7-0.7-1.7-0.7-1.1-2.4c0.9-2.7,1.9-5.4,2.9-8.1c0.5-1.2,0.9-2.4-0.6-3.4c-0.2-0.1-0.1-1.2,0.1-1.3
				c1.1-0.7,0.7-1.5,0.2-2.3c-1.4-2.5-2.8-5-4.3-7.7c0.5-0.2,0.8-0.2,1.1-0.4c0.8-0.5,0.8-1,0-1.3c-1-0.4-2-0.7-2.9-1.1
				c-4.2-1.9-6.4-5.1-6.3-9.8c0-1.1,0.2-2.2,0.3-3.3c0.4-3.2,0.2-6.4-1.2-9.4c-0.2-0.4-0.5-0.7-0.7-1.1c-0.2,0-0.3,0.1-0.5,0.1
				c0.2,2.1,0.5,4.3,0.8,6.7c-3.8-1.3-7.1-3.1-11-2.7c0-0.4-0.1-0.5-0.1-0.7c1.5-5.1,3.2-10.2,4.6-15.4c0.8-2.9,2.3-5.1,4.7-6.7
				c3-1.9,6.2-3.5,9.2-5.2c0.9,3.3,1.6,6.3,2.5,9.4c0.5,1.8,1.8,3.2,3.4,4.3c2,1.4,4.2,1.8,6.3,0.7c1.8-0.9,3.5-2,5-3.3
				c5.4-4.9,8.6-11,9.8-18.2c0.1-0.4,0.1-0.8,0.2-1.1c2.9,0.3,5.7,0.6,8.4,0.7c6.2,0.1,11.1,4.7,11.6,11.5
				c0.5,7.4,0.4,14.8,0.5,22.5c-5.8-2.5-11.4-2-17.4-0.3c-0.1-0.8-0.2-1.5-0.2-2.3c0-2.3,0.2-4.6,0.2-6.9c0-0.6-0.1-1.2-0.9-0.6
				c-0.3,0.8-1.1,1.3-1.2,2.2c-0.4,0.8-0.4,1.6-0.4,2.5c0.3,2.9-0.6,5.8-0.5,8.8c0.1,2.2,0.3,4.5,2.6,5.7c0.8,0.5,0.7,1.3,0.8,2.1
				c0.1,2-0.3,4.1,0.3,6.1c0.3,0.1,0.6,0.3,0.9,0.4C320.5,152.6,320,153,319.5,153.4z"/>
			<path class="st6" d="M281,99.6c-4.7-2-8.3-5.4-11.2-9.4c-2.3-3.2-4.3-6.7-6-10.3c-3.4-7.2-6.2-14.7-8.2-22.5c0.3-2,1.8-2.9,4-2.4
				c0.4,1.1,0.8,1.9,2.1,0.8c0.4-0.4,0.9-0.6,1.5-0.8c2.3-0.8,2.3-0.8,0.8-2.7c0-1,0.2-2,1.3-1.9c2.4,0.2,4.3-1.2,6.4-1.6
				c1-0.2,2.2-1,3,0.4c0.2,1.4,0.9,1.8,2.1,1.1c1.8-1,3.6-1.5,5.7-1.4c-1.3-1.6-3.3-0.8-4.8-1.3c-1-0.5-1-1.4-0.6-2.3
				c1.2-3.3,1.8-6.7,2.4-10.2c0.1-0.8-0.1-1.9,1.3-1.9c3.6,4.1,5.9,8.8,5.8,14.4c0,0.7,0.2,1.4,0.4,2c0.5,0.3,1,0.3,1.5,0l0,0
				c1.2-0.4,1.6-1.5,2.2-2.4c0.4-0.5,0.8-1.2,1.5-1c0.6,0.2,0.1,1.1,0.6,1.5c0.2,0.1,0.4,0.4,0.6,0.4c1.3-0.1,1.4,0.7,1.2,1.7
				c-0.5,2.9-0.5,5.9,0.2,8.8c0.5,1.8,1.3,3.6,2.1,5.3c0.3,0.7,1,1.3,1.6,1.8c0.6,0.6,1.5,0.9,2.2,0.2c0.3-0.3,0.5-1.1,0.4-1.7
				c-0.3-2.4-0.5-4.8,0.4-7.1c0.8-1.9,2.3-3.3,4-3.2c2,0.1,3.1,1.3,3.9,3.1c1.5,3.5,0.5,8.5-2.6,10.9c-1.7,1.4-2.6,2.6-1.8,4.7
				c0.5,3.9-0.9,7.4-2.2,10.9c-1.7,4.6-4,9-7.3,12.8C291.2,100.9,286.5,101.8,281,99.6z"/>
			<path class="st7" d="M298.4,34.8c-0.7-1.1-1.4-2.3-2.3-3.4c-0.6-0.7-1.5-1.3-2.4-2c-0.5,1.3,0.3,1.8,0.6,2.4c1,2,2,4,2.9,6
				c0.2,0.4,0.3,0.8,0.3,1.1c0.2,1.2,0.5,2.4,0.4,3.5c-0.1,1.4-1.8,1-2.6,1.8c-0.3,0.3-0.6,0.4-1.1,0.7c-0.5-1.6-0.9-3-1.3-4.4
				c-0.5-2.9-0.3-6-1.4-8.8c-0.5-1.3-1.1-2.7-1.9-3.8c-0.7-0.9-1.4-2-2.9-1.2c0.2,0.7,0.3,1.5,0.6,2.2c1.8,4.4,2.9,9,1.8,13.8
				c-0.1,0.4-0.3,0.9-0.6,1.6c-0.6-1.7-1-3.1-1.5-4.5c-1.6-3.9-4-7.3-7.5-9.8c-0.9-0.6-1.3-1.4-1.5-2.5c-0.3-1.6-0.9-3.2-1.5-4.8
				c-0.2-0.5-0.7-0.9-1.1-1.2c-0.2-0.1-0.7,0.3-1,0.7c-0.1,0.2,0.2,0.6,0.3,0.9c2.2,6.5,1.6,12.9-0.7,19.3c-0.2,0.5-0.4,1.1-0.7,1.5
				c-0.4,0.4-0.9,0.8-1.5,1c-1.8,0.6-3.7,1.1-5.8,1.7c-1.3-7.1-0.5-14,2.9-20.6c-0.2-0.1-0.3-0.2-0.5-0.3c-0.5,0.4-1.1,0.8-1.4,1.4
				c-1.4,2.5-3.2,4.7-4.8,7.1c-2,3-2.8,6.4-2.9,10c-0.1,1.7,0,3.4,0.1,5c0,0.7,0,1.1-0.7,1.2c-3,0.5-5.5,2.1-7.9,4.2
				c-3.6-7-5.1-13.9-1.5-21.3c0.3-0.7,0.7-2,0.6-2.1c-1.1-0.5-1.4,0.6-1.9,1.3c-1.5,2.1-2.2,4.4-2.6,6.9c-0.7,5.7,0.1,11.2,3,16.2
				c0.7,1.2,0.7,1.2-0.2,2.7c-1.3-1.4-2.3-2.9-3-4.5c-1.3-3.1-2.5-6.2-3.5-9.4c-0.3-0.9,0-1.9,0-2.8c1.5-1.9,2.5-3.7,0.6-6
				c-0.7-0.8-0.2-1.9,0.1-2.7c1.3-3.5,3.1-6.8,5.6-9.7c0.4-0.4,0.6-0.9,0.8-1.4c5-4.9,11.1-6.4,17.8-5.5c1.9,0.3,3.7,0.9,5.6,1.3
				c0.3,0.1,0.7,0,1.1-0.1c-0.2-0.4-0.2-0.9-0.5-1.2c-0.5-0.5-1.1-0.7-1.7-1.6c2.2-0.4,4.3-0.8,6.5-1.1c5.3-0.7,10.3,0.3,15.2,2.2
				c0.8,0.3,1.7,0.4,2.5,0.6c0.8,0,1.4,0.2,1.6,1.1c-0.3,1,0.6,1.3,1.1,1.9c1.9,1.9,3.7,3.8,5.6,5.8c0.4,0.2,0.2,0.7,0.5,0.9l0,0
				c0.4,1.2,0.2,2.3-0.1,3.4c-0.2,0.8-0.5,1.7-1.7,1.3c-1.7-1-2.1-3.1-3.6-4.3c-0.8-0.6-1.4-1.5-2.9-1.4c2.1,2.9,5.1,4.8,5.3,8.4
				C300.4,34.7,299.7,35.4,298.4,34.8z"/>
			<g>
				<path class="st0" d="M305.2,202.9c0.7,0,1.2-0.1,1.6-0.6c-1.8,0.2-3.6,0.4-5.4,0.5C302.6,202.9,303.9,202.9,305.2,202.9z"/>
				<path class="st0" d="M321.7,142.9c-0.1,0.1-0.2,0.3-0.3,0.4c-0.1,1.3-0.2,2.7-0.4,4c-0.3,1.5-0.7,3.1-1,4.6
					c-0.1,0.5-0.3,1-0.4,1.5c0.5,0,1-0.1,0.9,0.6c-0.2,1.1-0.5,2.2-0.8,3.3c-2.2,7.4-4.4,14.9-6.6,22.3c-0.9,3-2.1,5.9-3.1,8.8
					c-0.3,0.7-0.5,1.5-0.5,2.3c0.1,1.2-0.5,1.2-1.3,1.1c-1.6-0.2-3.2-0.5-4.7-0.7c-1.6-0.2-2.8,0.3-3.8,1.5
					c-2.3,2.6-2.4,5.6-1.9,8.8c0.2,1,0.8,1.5,1.8,1.5c0.6,0,1.3,0,1.9,0c1.8-0.1,3.6-0.2,5.4-0.5c0.2-0.2,0.3-0.5,0.4-1
					c0.5-1.8,1.6-3.1,3.8-3c0.6,0,1.2-0.5,1.9-0.8c0.6-2.5,0.8-5.2,2.1-7.5c5.9-11.1,11.4-22.4,16.6-33.8c0.3-0.6,0.8-1.3,0.8-1.9
					c0.3-3.5,0.4-7.1,0.6-10.6C330.8,141.9,323.9,141.3,321.7,142.9z"/>
			</g>
			<path class="st6" d="M319.5,153.4c0.1-0.5,0.3-1,0.4-1.5c0.3-1.5,0.7-3,1-4.6c0.2-1.3,0.3-2.7,0.4-4c0.1-0.1,0.2-0.3,0.3-0.4
				c2.3-1.6,9.1-1,11.3,0.9c-0.2,3.5-0.4,7.1-0.6,10.6c-0.1,0.7-0.5,1.3-0.8,1.9c-5.3,11.4-10.7,22.7-16.6,33.8
				c-1.3,2.4-1.5,5-2.1,7.5c-0.6,0.3-1.2,0.8-1.9,0.8c-2.2-0.1-3.3,1.2-3.8,3c-0.3,1.2-0.9,1.5-2,1.5c-1.9-0.1-3.8-0.1-5.7-0.1
				c-1,0-1.6-0.5-1.8-1.5c-0.5-3.2-0.4-6.2,1.9-8.8c1-1.2,2.3-1.7,3.8-1.5c1.6,0.2,3.2,0.5,4.7,0.7c0.8,0.1,1.4,0.1,1.3-1.1
				c-0.1-0.7,0.2-1.5,0.5-2.3c1-2.9,2.2-5.8,3.1-8.8c2.3-7.4,4.4-14.8,6.6-22.3c0.3-1.1,0.6-2.2,0.8-3.3
				C320.6,153.3,320,153.4,319.5,153.4z"/>
			<path class="st6" d="M269,142.8c2.4,1.3,4.7,2.6,7.1,3.8c1,0.6,1.2,1.3,0.9,2.4c-1.2,3.9-2.4,7.8-3.5,11.7
				c-0.3,1.1-0.9,1.9-1.9,2.6c-1,0.7-2,0.9-3.1,0.3c-4-1.9-7.8-4.1-11.1-6.9c-3.9-3.3-7.8-6.5-11.7-9.9c-1.6-1.4-3-2.9-4.5-4.3
				c-3.5-3.4-6.9-6.8-10.4-10.2c0.4-0.9,1.2-1.8,1.2-2.7c0-2.5-0.2-5.1-0.4-7.6c-0.1-1.1-0.7-2-1.6-2.8c-1.9-1.7-2-4.1-1-5.6
				c0.2-0.3,0.6-0.6,0.9-0.6c0.3,0,0.7,0.5,0.7,0.8c0.1,2.8,1.4,5,2.9,7.2c0.7,1,0.9,2.4,1.1,3.6c0.7,6.2,0.6,6.4,5.7,10
				c5.8,4.1,11.8,7.9,17.8,11.7c2.1,1.3,4.5,2.1,6.7,3.2c1.6,0.8,3.1,1.9,4.7,2.8c0.3,0.2,0.5,0.5,0.7,0.6c0.5,0.2,1.1,0.2,1.7,0.3
				c-0.1-0.5,0-1.2-0.3-1.5c-0.9-1-1.8-2.1-2.8-2.9c-0.8-0.6-1.2-1.1-0.9-2.2c0.3-1,0.6-2,0.8-3C268.9,143.5,268.8,143.1,269,142.8
				L269,142.8z"/>
			<path class="st7" d="M323.3,18.5c-0.5,0.1-1,0.2-1.5,0.3c0.3,0.4,0.4,1,0.8,1.3c2.1,1.9,4.5,3.6,6.4,5.7c1.7,1.9,2.9,4.3,4.3,6.5
				c1,1.6,0.7,3-0.6,4.3c-0.7,0.7-1.5,1.3-2.5,2.1c-0.6-2.1-1-3.9-1.6-5.6c-0.8-2.4-1.8-4.7-3.9-6.4c-1.6-0.9-2.8-2.4-4.1-3.6
				c-2.6-2.4-5.4-4.4-9-5.1c-2.1-0.5-4-1.7-6.3-1.7c-0.7-0.1-1.3,1-2.1,0.2c-0.8-1.1-1.6-2.2-2.5-3.3c0.4-1.3,1.2-1,2.1-0.6
				c0.7,0,1.4,0.1,2.1,0c5.3-1.1,10.3-0.4,15.2,1.7c1.2,0.5,2.3,1.5,3.4,2.2c0.2,0.1,0.6,0.1,0.9,0.2c0-0.4,0.1-0.8,0-1
				c-0.3-0.5-0.7-0.9-1.1-1.2c-6.4-5.4-13.8-7.5-22.1-6c-1.1,0.2-2.2,0.5-3.2,1c-1.3,0.8-2.3,0.5-3.5-0.6c4.3-3,8.9-4.9,14.2-5.2
				c9.7-0.5,16.9,3.8,22.6,11.3c1.9,2.5,3.6,5.3,4.5,8.4c-0.9,0.4-0.9,0.5-1.9-0.2C330.7,20.8,327.1,19.4,323.3,18.5z"/>
			<path class="st8" d="M311.8,17.5c3,0.2,5.4,1.9,7.6,3.7c2,1.6,3.6,3.6,5.3,5.5c-1.2,0.2-0.7,0.7-0.3,1.3c1.7,2.8,2.7,5.9,3.4,9.1
				c0.3,1.5,0.1,2.6-1,3.6c-0.5,0.5-1,1.1-1.5,1.5c-0.3,0.2-0.8,0.3-1.2,0.2c-1.5-0.4-1.6-0.5-2.1,1c-0.2,0.6-0.4,1.2-0.5,1.8
				c-0.1,0.2-0.3,0.3-0.5,0.1c-1.6-4.3-3.7-8.3-7.2-11.4c-0.4-0.4-0.8-0.9-1.3-1.1c-2.3-1.1-3.3-3.2-4.4-5.4c-1-2-2.5-3.9-3.9-5.7
				c-0.6-0.7-1-1.2-0.7-2.3c0.2-0.9-0.1-2-0.2-3c0.6-0.3,1.3-0.6,1.9-0.9c0.3,0.7,1,1.1,1.7,1.3c5,1.5,9.1,4.5,12.5,8.5
				c-0.9-3-3.4-4.3-5.6-6C312.9,18.9,311.7,18.8,311.8,17.5z"/>
			<path class="st9" d="M347.2,188c0.1,0.3,0.1,0.6,0.2,0.9c0.6,3.6,1.1,3.7-3.2,3.2c-2.9-0.3-5.8-1.1-8.7-1.6
				c-0.4-0.1-0.9-0.1-1.5-0.2c0.4,1.7,1.7,2,2.9,2.4c3.4,1.1,7,1.7,10.6,1.8c0.3,0,0.6,0.1,1,0.1c-0.3,1.6-0.6,1.6-0.9,3.1
				c-0.8,0.8-1.7,0.5-3.2,0.5c-0.6-0.2-1.1-0.1-1.8-0.3c-2.7-0.7-5.4-1-7.9-1.7c0,1,0,0,4.5,2.6c-7.8-0.2-15.7,0.2-23.9,0
				c0.4-1,0.7-1.5,0.9-2.2c1.5-3.8,4.1-6,8.2-6.5c3.3-0.4,6.7-1,10-1.7c1.1-0.2,2.2-0.3,3.3-0.5c2.4-0.3,4.8-0.9,7.2-1
				C345.8,186.9,346.7,186.9,347.2,188z"/>
			<path class="st8" d="M302.2,30.5c1.1,0.5,1.2-0.4,1.4-1c0.3-1.1,0.4-2.2,0.6-3.3c3.6,5.3,5.1,11.1,4.5,17.4
				c-0.2,2.1-0.7,4.2-1.2,6.3c-0.2,1-0.8,1.4-2.1,1.5c-3.7,0.2-5.2,1.5-6,5.3c-0.4,1.9-0.5,3.9-0.7,6c-0.2-0.3-0.6-0.7-0.8-1.1
				c-1.1-2.3-1.7-4.6-1.8-7.1c-0.1-1.9,0.1-3.9-0.2-5.7c-0.3-1.5,0.4-2,1.5-2.5c0.9-0.4,2.1-0.6,2.4-1.3c0.5-1,0.7-2.4,0.5-3.5
				c-0.4-2.3-1.1-4.4-1.7-6.7c0.8-0.5,1.6-1,2.4-1.5c1.2,0.1,1.2,1.2,1.5,1.9c1,2.5,1.1,5.1,1.3,7.6c0.7-3.3,0.2-6.6-1-9.7
				C302.3,32.3,301.5,31.5,302.2,30.5z"/>
			<path class="st0" d="M334.3,156.2c0.2,0,0.4,0,0.5,0.1c3.3,6,6.6,12,9.9,18c0.2,0.4,0.4,0.8,0.7,1.5c-6.6,0.4-12.3,3.4-18.3,5.5
				c-0.3,0.2-0.8,0.1-1,0.4l0,0c-1,0.1-0.8-0.6-0.7-1.1c0.1-0.9,0.6-1.6,1-2.4C330.3,171.3,332.8,163.9,334.3,156.2z"/>
			<path class="st6" d="M307.5,93.9c0.9,1.1,1.1,2.3,0.9,3.6c-1.1,7.7-4,14.3-10.6,19c-0.9,0.7-0.9,0.7-1.4-0.9
				c-2.1-1.8-2.4-4.4-2.8-6.9c-0.1-0.8,0.5-1.8,0.7-2.6c-0.4-1.1,0-1.8,1-2.3c4.2-2,7.6-5,10.2-9C306,94.1,306.4,93.2,307.5,93.9z"
				/>
			<path class="st10" d="M296.4,115.5c0.6,0.1,0.2,1.6,1.4,0.9c0,0.9,0.5,1.2,1.2,0.9c0.9-0.4,1.8-1,2.6-1.6
				c2.5-2.1,4.3-4.7,5.8-7.6c1.9-3.7,3.1-7.7,3.4-12.1c1.3,0.7,2.1,1.6,2,3c-0.1,1.3-0.1,2.6-0.5,3.8c-1.7,6.4-4.8,11.8-10,16
				c-4,3.2-7.7,2.5-10.1-2c-2-3.8-2.6-7.8-1.5-12.1c0-0.1,0.2-0.2,0.4-0.3c0.7,1,0.8,2.2,0.9,3.3c0.2,1.9,0.5,3.8,0.9,5.7
				c0.3,1.3,1,2.4,2.2,3C296.1,116.7,296.5,116.4,296.4,115.5z"/>
			<path class="st11" d="M230.1,129.8c-2.9-0.4-5.2,1-7.5,2.4c-0.7-2.7-1.5-5.4-2-8.1c-0.4-2.1,0.1-2.6,2.1-3.5
				c0.7-0.3,1.5-0.6,2.3-0.7c2.7-0.5,5,1.1,5.3,3.7C230.4,125.7,230.1,127.8,230.1,129.8z"/>
			<path class="st12" d="M274.3,49.6c-0.3-0.2-0.6-0.5-0.8-0.5c-1.3,0.3-2.6,0.7-3.9,1.1c-1.3,0.4-2.3,1.1-3.9,0.6
				c-1.2-0.4-1.2,0.9-1.5,1.7c-1.5,1.1-2.9,2.4-4.7,3c-0.1-0.1-0.2-0.3-0.3-0.3c-1.5,0.2-2.9,0.6-3.7,2.2c-1.3-3-0.5-2.7,1.2-3.6
				c1.1-0.6,2.4-0.9,3.6-1.3c1.8-0.6,1.9-0.6,1.6-2.5c-0.7-4.2-0.5-8.3,0.9-12.3c0.4-0.1,0.6,0,0.5,0.5c0.2,3.3,0.2,6.7,0.5,10
				c0.2,2.2,1.2,2.5,3.1,1.4c1.7-1,3.5-2,5.5-2c1.3,0,2.3-0.8,2.8-2c0.9-2.4,1.8-4.8,2.4-7.2c0.5-2.2,0.5-4.4,0.8-6.8
				c1,0,1.7,0.8,2.2,1.7c-0.3,1.3-0.7,2.5-1,3.8c-0.7,2.8-1.4,5.7-2.1,8.5c-0.2,0.9-0.5,1.6,0.7,1.7C277.2,48.7,276,49.5,274.3,49.6
				z"/>
			<path class="st13" d="M307.5,93.9c-0.4,0.3-0.9,0.4-1.1,0.8c-2.7,4.3-6.3,7.6-10.9,9.7c-0.9,0.4-0.9,1-1.1,1.6
				c-0.1-0.1-0.2-0.2-0.3-0.4c-0.3-1.1-1-2.4-0.7-3.4c0.2-0.8,1.6-1.3,2.5-2c3.7-3,6.1-6.9,8.1-11c0.3-0.7,0.6-1.4,1.1-2.5
				C306,89.3,306.7,91.6,307.5,93.9z"/>
			<path class="st14" d="M248.5,23.3c-1.5,2.4-3,4.7-4.3,7.1c-0.6,1-0.9,2-1.3,3.1c-0.4,0.9-0.4,1.6,0.5,2.5
				c1.7,1.7,0.9,4.4-1.5,5.6c-0.2-0.6-0.6-1.3-0.9-0.2c-0.3,1-0.3,2.1-0.3,3.2c0,1,0.1,2,0.2,3c0.3,1,0.3,2,0.5,3
				c0.1,0.6,0.1,1.2,0.3,1.8c0.1,0.4,0.1,0.7,0.1,1.1c-0.1,0.5-0.2,1-0.9,0.9c-0.1-0.1-0.1-0.2-0.1-0.4c-0.2-0.3-0.1-0.7-0.4-1
				c-4.3-11.3,1-24.7,7.5-30.3C248.3,22.6,248.6,22.8,248.5,23.3z"/>
			<path class="st15" d="M312.8,197.6c-0.2-3.4,0.8-6.5,2.4-9.5c4.3-8.2,8.2-16.5,12.3-24.8c1.2-2.4,2.6-4.7,3.9-7
				c-1.6,4.2-3.1,8.3-4.7,12.5c-2.8,7.2-6.9,13.8-10.6,20.6c-1.2,2.2-2.4,4.3-2.7,6.8C313.5,196.7,313,197.1,312.8,197.6z"/>
			<path class="st15" d="M281,99.6c1.9,0.2,3.8,0.3,5.7,0.5c2.4,0.2,4.3-0.8,6-2.4c2.2-1.9,4.1-4.1,5.5-6.6c2.7-4.8,4.8-9.9,6-15.3
				c0.2-1.1,0.3-2.2,0.5-3.3c0,2,0.2,4.1-0.2,6.1c-1.1,5.8-3,11.2-6.6,15.9c-1.5,1.9-3.3,3.6-5.3,5.1c-2.6,2.1-5.7,2.2-8.8,1.1
				C282.8,100.6,281.9,100.1,281,99.6z"/>
			<path class="st16" d="M318.7,138.5c-0.4-2.9-0.4-3,1.8-3.6c4-1.1,8.2-1.7,12.3-0.6c3.3,0.9,3.2,0.6,2.9,4.2
				C330,136.7,324.4,136.5,318.7,138.5z"/>
			<path class="st17" d="M323.8,184.6c6.7-2.8,13.3-5.9,20.5-7c2.1-0.3,2.2-0.2,2.4,2.1c-6.9,0.4-13.2,2.9-19.5,5.5
				c-0.8,0.3-1.6,0.6-2.4,1c-0.3,0.2-0.8,0.1-1,0.4l0,0C322.4,185.9,323.3,185.2,323.8,184.6z"/>
			<path class="st18" d="M334.3,156.2c0.2,4.9-1.6,9.4-3.4,13.8c-1.3,3.3-3,6.5-4.5,9.8c-0.3,0.6-1.1,1.1-0.3,1.9
				c-1,0.5-2.1,1-3.1,1.5c-0.1-0.1-0.2-0.2-0.3-0.3c0.2-0.5,0.4-0.9,0.7-1.4c3.7-6.7,6.5-13.8,9.2-20.9
				C333.3,159.1,333,157.4,334.3,156.2z"/>
			<path class="st12" d="M332.9,143.8c-3.8-1.2-7.7-1.4-11.6-0.5c-0.1-3.6-0.3-3.2,3.1-3.5c2.2-0.2,4.5-0.1,6.7,0.1
				c1.8,0.1,1.8,0.2,1.8,2C333,142.5,333,143.1,332.9,143.8z"/>
			<path class="st19" d="M296.9,17.6c-0.5-0.4-1.1-0.7-1.6-1.1c-0.9-0.8-1.6-1.7-2.6-2.3c-1.1-0.7-2.3-1.1-3.4-1.6
				c1.3-2.6,1.7-2.9,4-1.7c2.2,1.2,4.1,2.7,6.2,4.1c0.3,1.4,0.1,2.4-1.6,2.5C297.5,17.6,297.2,17.6,296.9,17.6z"/>
			<path class="st19" d="M296.5,192.8c-0.4,1.4-1,2.8-1.2,4.3c-0.2,1.1-0.6,1.4-1.7,1.4c-3.1,0-3.2-0.1-2.8-3.2c0.1-1,0.3-2,0.4-3.1
				c0.2-0.9,0.3-2.3,1.8-1.8C294.3,191,296.5,190.3,296.5,192.8z"/>
			<path class="st20" d="M241.3,53.5c0-0.3-0.1-0.6-0.1-0.9c-0.3-0.4,0-1-0.4-1.4c0-1.1,0-2.3,0-3.4c1.5,4.6,3.7,8.8,6.7,12.6
				c0.1,1.7-0.2,3.2-2.3,3.3c-1-1.9-2-3.8-2.9-5.6C242.1,56.4,241.3,55,241.3,53.5z"/>
			<path class="st21" d="M290.9,183.5c5.2,3,10.7,3.8,16.6,3.8c-0.1,1-0.2,1.8-1.5,1.7c-3.8-0.3-7.6-0.7-11.3-1.7
				c-1-0.3-2-0.6-3-0.9C289.8,185.7,289.8,185.7,290.9,183.5z"/>
			<path class="st22" d="M330,186.5c4.2-1.8,8.5-3.3,13-4.1c0.3-0.1,0.6-0.1,0.9-0.2c0.7-0.1,1.6-0.2,1.8,0.7c0.2,1.1-0.8,1-1.4,1.2
				c-4.3,1.4-8.8,2.5-13.3,2.8C330.5,187.2,330,187.5,330,186.5z"/>
			<path class="st23" d="M319,151.4c-0.2-0.6-0.4-1.2-0.5-1.7c-0.1-1.3-0.1-2.7,0-4c0-1.1-0.1-1.8-1.3-2.1c-1.3-0.4-1.8-1.6-2-2.8
				c-0.3-1.9-0.5-3.9-0.4-5.9c0.1-2.2,0.6-4.4,0.9-6.6c0.2-0.1,0.3-0.1,0.4,0.1c0.1,3.3,0.3,6.6,0.4,10c0,1.6-0.2,3,1.8,3.6
				c0.4,0.1,0.7,1,0.7,1.5C319,146.2,319,148.8,319,151.4z"/>
			<path class="st24" d="M245.1,63.6c1.2-0.8,1.8-2,2.3-3.3c1,0.7,1.9,0.5,2.8-0.3c0.3-0.3,0.5-0.6,0.8-0.9c1.2-1,2.1-0.7,2.7,0.7
				c0.1,0.2,0.2,0.5,0.2,0.7c0.8,2.2,0.4,3-2,3c-0.5,0-1.1-0.1-1.6-0.3c-1.3-0.3-2.5-0.2-3.5,0.9C245.8,65.1,245.4,64.5,245.1,63.6z
				"/>
			<path class="st25" d="M278.1,141.9c-3.2-1.7-6.5-2.9-10.2-2.6c0.7-2.5,0.7-2.5,2.8-2.3c3,0.3,5.7,1.1,8.3,2.6
				C279.8,140.8,279.6,141.6,278.1,141.9z"/>
			<path class="st26" d="M334.3,188.4c-1.8,0.5-3.6,1-5.4,1.4c-2.3,0.5-4.6,1.1-7,1.5c-1.4,0.3-2.4,1-3.3,2.2
				c-0.8,1.1-2.6,4.3-3.5,5.4c-0.3-2.2,1.9-6,2.8-7.8c0.2-0.4,0.9-0.5,1.4-0.7c2.5-1.1,5.3-1,7.9-1.4
				C329.6,188.7,332,188.6,334.3,188.4z"/>
			<path class="st27" d="M323.3,18.5c0.3-0.1,0.7-0.3,1-0.2c3.9,0.8,7.4,2.3,10.5,4.7c0.2,0.2,0.6,0.2,1,0.3
				c0.2,0.5,0.4,1.1,0.6,1.7c-2.4-0.7-4.5-1.4-6.6-2c-0.4-0.1-0.7-0.4-1-0.6C326.9,21.1,325.1,19.8,323.3,18.5z"/>
			<path class="st28" d="M258.6,80c-2.1-3.9-2.9-7.9-2.8-12.8c0.5,0.8,0.8,1.1,0.9,1.4c0.9,2.5,1.8,4.9,2.7,7.4
				C260.1,77.9,260.1,77.9,258.6,80z"/>
			<path class="st29" d="M286.8,26.7c1.5-0.6,2.3-0.4,3.2,0.8c1.5,2,2.5,4.3,2.9,6.8c0.3,2.1,1.1,4.2,0.1,6.4
				c-1.1-1.2-1.4-2.6-1.5-4.2c-0.2-2.8-0.9-5.5-2.2-8C288.9,27.4,288.2,26.5,286.8,26.7z"/>
			<path class="st30" d="M302.8,12.6c-0.7,0.2-1.4,0.4-2.1,0.6c-0.9-0.7-1.7-1.3-2.9-2.2c4-1.4,7.7-2.1,11.6-1.1
				c0.2,0.1,0.2,0.2,0.2,0.3c-0.1,0.1-0.1,0.1-0.2,0.1c-1.8,0.4-3.5,0.7-5.2,1.2C303.6,11.7,303.2,12.3,302.8,12.6z"/>
			<path class="st31" d="M296.5,192.8c-0.4-1.6-2-1-2.9-1.6c-1.3-0.9-2-0.1-2.4,1c0.1-1.2,0.2-2.5,0.4-3.8c2.4,0.7,4.5,1.3,6.7,2
				C297.6,191.3,297.1,192.1,296.5,192.8z"/>
			<path class="st32" d="M292.6,47.8c-0.3-0.4-0.5-0.8-0.8-1.1c-1.3,0.8-1.2,3.3-3.5,3c1-2.1,1.9-4.1,2.9-6.2c0.3-0.3,0.6-0.3,0.9,0
				C292.2,44.9,292.4,46.4,292.6,47.8z"/>
			<path class="st33" d="M297.8,17.6c0.5-0.8,1-1.7,1.6-2.5c0.8,0.9,1.6,1.7,2.3,2.7c0.2,0.3,0.1,1,0.1,1.5c-0.4-0.1-0.9,0-1.3-0.2
				C299.6,18.6,298.7,18,297.8,17.6z"/>
			<path class="st34" d="M323.8,184.6c0,0.6,0,1.3,0,1.9c-1.3,0.6-2.6,1.1-4.3,1.9C320.5,186.2,321.4,184.6,323.8,184.6z"/>
			<path class="st35" d="M347.2,188c-2.1-1-4.3-0.5-6.5-0.3c-1,0.1-2,0.1-3.1,0.2c2.7-0.6,5.4-1.3,8.1-1.8
				C347.3,185.8,347,187.1,347.2,188z"/>
			<path class="st36" d="M278.1,141.9c0.3-0.8,0.6-1.5,0.9-2.3c1.8,1.1,1.8,1.1,0.9,3.6C279.4,142.7,278.7,142.3,278.1,141.9z"/>
			<path class="st37" d="M241.3,53.5c0.4,1.1,0.9,2.2,1.2,3.3c0.1,0.3-0.2,0.8-0.4,1.2c-0.5-1.2-0.9-2.3-1.4-3.5
				C241,54.1,241.1,53.8,241.3,53.5z"/>
			<path class="st38" d="M315.6,125.5c0.6-0.5,1.2-1,1.8-1.5c-0.3,1-0.5,1.9-0.8,2.9C316,126.7,316,126,315.6,125.5z"/>
			<path class="st39" d="M315.6,125.5c0.3,0.5,0.7,0.9,1,1.4c-0.2,0.5-0.4,1-0.6,1.6c-0.1-0.1-0.2-0.1-0.4-0.1
				C315.7,127.4,315.7,126.5,315.6,125.5z"/>
			<path class="st40" d="M330,186.5c0.3,0.2,0.7,0.3,1,0.5c-0.8,0.2-1.7,0.4-2.5,0.5c0-0.2-0.1-0.3-0.1-0.5
				C329,186.9,329.5,186.7,330,186.5z"/>
			<path class="st41" d="M263.4,38.2c-0.2-0.2-0.3-0.3-0.5-0.5c0.2-0.5,0.4-1.1,0.5-1.6c0.2,0.1,0.3,0.1,0.5,0.2
				C263.7,36.9,263.5,37.5,263.4,38.2z"/>
			<path class="st42" d="M292,43.5c-0.3,0-0.6,0-0.9,0c0.1-0.4,0.2-0.8,0.3-1.2C291.7,42.7,291.9,43.1,292,43.5z"/>
			<path class="st43" d="M248.5,23.3c-0.2-0.2-0.4-0.4-0.6-0.6c0.3-0.3,0.7-0.6,1-0.9C248.7,22.3,248.6,22.8,248.5,23.3z"/>
			<path class="st44" d="M309.4,10.3c0-0.1,0-0.3,0-0.4c0.5,0,1,0.1,1.6,0.1c0,0.1,0,0.2,0,0.3C310.4,10.3,309.9,10.3,309.4,10.3z"
				/>
			<path class="st32" d="M288.3,49.7c-0.5,0.6-1,0.8-1.5,0C287.3,49.7,287.8,49.7,288.3,49.7z"/>
			<path class="st4" d="M269,142.8c-0.1,0.3-0.3,0.7-0.4,1C268.7,143.4,268.9,143.1,269,142.8z"/>
			<path class="st37" d="M240.3,53.1c0.1,0.3,0.2,0.7,0.4,1C240.6,53.7,240.5,53.4,240.3,53.1z"/>
			<path class="st45" d="M320.8,45.4c0.2,0,0.3,0,0.5-0.1c-0.1,0.2-0.2,0.5-0.3,0.7C321,45.8,320.9,45.6,320.8,45.4z"/>
			<path class="st18" d="M326.2,181.7c0.3-0.1,0.7-0.3,1-0.4C326.9,181.4,326.5,181.6,326.2,181.7z"/>
			<path class="st34" d="M323.8,186.5c0.3-0.1,0.7-0.3,1-0.4C324.5,186.2,324.1,186.4,323.8,186.5z"/>
			<path class="st8" d="M304.1,26.2c-0.2-0.3-0.3-0.6-0.5-0.9C303.8,25.6,303.9,25.9,304.1,26.2z"/>
			<path class="st46" d="M298.7,130.2c-0.3-0.4-0.6-0.8-0.9-1.3c-0.3,0.5-0.8,0.9-0.9,1.5c-0.3,1.9-0.4,3.8-1,5.8
				c-0.2-0.4-0.4-0.9-0.5-1.3c-0.1-0.8,0-1.6,0-2.4c0-0.4-0.4-0.7-0.6-1.1c-0.3,0.4-0.6,0.7-0.7,1.1c-0.1,0.4-0.1,0.8-0.1,1.2
				c0,3.3,0,6.5-0.1,9.8c0,1.4-0.1,2.9-1.3,4.5c-0.5-1.7-1-3.1-1.3-4.5c-0.7-4-1.1-8.1-0.3-12.1c1.3-6.5,5.3-8.2,10.7-7.6
				c2.1,0.2,3.8,1.3,4.7,3.3c0.6,1.1,1.1,2.3,1.3,3.6c0.8,3.9,1.1,7.9,0.6,11.9c-0.3,2.4-1,4.7-2.6,6.6c-1.4,2.8-4,2.7-6.6,2.6
				c-0.7,0-1.4-0.3-2-0.6c-0.1-2.2,0.7-4.2,2.6-5.2c2.7-1.5,4.3-4,6.7-5.7c0.2-0.2,0.5-0.7,0.4-0.8c-0.3-0.3-0.7-0.6-1-0.5
				c-0.7,0.2-1.3,0.5-1.9,0.8c-0.6,0.4-1.2,0.9-2.1,1.6c-0.2-1.8,0.1-3.2,0.5-4.5c0.5-1.4,1-2.9,1.4-4.3c0.1-0.5,0.3-0.9,0.3-1.4
				c0-0.3-0.3-0.6-0.5-1c-0.3,0.2-0.8,0.3-0.9,0.6c-0.5,1-0.8,2.1-1.2,3.1c-1,0-0.6-0.7-0.5-1.2c0.1-0.9,0.3-1.9,0.3-2.8
				c0-0.4-0.4-0.9-0.6-1.3c-0.3,0.4-0.8,0.7-1,1.1c-0.3,0.9-0.4,1.8-0.7,2.8C298,131.8,298.7,130.9,298.7,130.2z"/>
			<path class="st47" d="M297.4,151c0.6,0,1.3,0,1.9,0.1c2.5,0.2,4.8-0.4,6.7-2.1c0.7,0.4,1.4,0.8,2,1.3c1.4,1.2,1.2,3-0.5,3.9
				c-0.3,0.1-0.6,0.2-0.9,0.3c-2.5,0.4-5,0.9-7.5,1.3c-0.6,0.1-1.4-0.4-1.8-0.9c-0.6-0.7-0.4-1.6,0.2-2.2
				C298.1,152,298.1,151.5,297.4,151z"/>
			<path class="st48" d="M319.1,108c-0.1,2.5-0.1,5-0.2,7.6c0,0.4,0.1,0.8,0,1.2c-0.1,0.3-0.3,0.6-0.6,0.6c-0.2,0-0.6-0.2-0.8-0.4
				c-0.2-0.4-0.4-0.9-0.4-1.3c-0.1-3,0-6,1.4-8.8C319.5,106.8,319.1,107.5,319.1,108z"/>
			<path class="st49" d="M278.5,127.6c-0.2-0.4-0.7-0.7-0.7-1.1c-0.3-2.2-0.6-4.4-0.8-6.6c0-0.3,0.5-0.6,0.8-1
				c0.2,0.3,0.5,0.6,0.6,0.9c0.2,2.5,0.4,5,0.6,7.5C278.7,127.5,278.6,127.6,278.5,127.6z"/>
			<path class="st50" d="M298.7,130.2c0.2,0.7,0.3,1.3,0.5,2c-0.2,1.1-0.3,2.3-0.5,3.7C298,134.3,298.1,132.5,298.7,130.2z"/>
			<path class="st51" d="M319.1,108c-0.2-0.4-0.4-0.8-0.6-1.2c0.3-1.1,0.7-2.2,1.6-3c0.2,0.1,0.3,0.1,0.5,0.2
				C320.1,105.4,319.6,106.7,319.1,108z"/>
			<path class="st52" d="M301.1,132.5c0.2,0.4,0.3,0.8,0.5,1.2c-0.2,0.6-0.3,1.3-0.5,1.9c-0.9,0-0.6-0.5-0.5-1
				C300.8,133.9,301,133.2,301.1,132.5z"/>
			<path class="st53" d="M300.6,134.6c0.2,0.3,0.3,0.7,0.5,1c-0.2,0.2-0.4,0.5-0.6,0.7c-0.1-0.2-0.3-0.5-0.3-0.7
				C300.3,135.2,300.5,134.9,300.6,134.6z"/>
			<path class="st54" d="M282.6,92c-0.3,0-1-0.1-1.7-0.2c-0.8-0.2-1.4-0.6-1.6-1.5c-0.4-1.8-0.9-3.4-3.1-3.6c-0.2,0-0.3-0.5-0.4-0.7
				c0.3-0.1,0.5-0.4,0.8-0.4c3.9-0.1,7.2-1.8,10.3-4c0.7-0.5,1.2-1.2,1.6-1.9c0.7-1.1,1.5-1.4,2.6-0.8c1,0.6,1.1,1.2,0.2,2.5
				c-0.2,0.3-0.3,0.7-0.2,1c0.9,2.3,0.6,4.4-0.9,6.3C288.5,90.7,285.7,92,282.6,92z"/>
			<path class="st54" d="M271.6,68.2c-0.1,1.2-0.2,2.3-1.3,2.5c-0.7,0.1-1.8-0.4-2.2-1c-1-1.8-1.8-3.7-2.4-5.6
				c-0.3-0.9-0.5-1.4-1.5-1.2c-0.3,0-0.7,0-0.9-0.1c-0.5-0.4-1.3-1-1.2-1.4c0.2-1,1-0.8,1.7-0.4c0.8,0.4,1.5,0.3,2.3,0
				c1.4-0.6,2.1-0.5,3.1,0.8C270.6,63.6,271.3,65.9,271.6,68.2z"/>
			<path class="st54" d="M286.2,63c-0.3,0.5-0.7,1.6-1.3,2c-1.1,0.6-2-0.3-2.5-1.2c-0.9-1.7-1.6-3.5-2.2-5.3
				c-0.3-0.9-0.4-1.4-1.5-1.3c-0.6,0-1.3-0.4-1.9-0.8c-0.2-0.1-0.3-0.8-0.2-1c0.1-0.3,0.8-0.5,1-0.4c1.2,0.7,2.3,0.5,3.6,0
				c0.5-0.2,1.7,0.4,2.2,0.9C285,57.8,285.7,60.2,286.2,63z"/>
			<path class="st55" d="M274.3,49.6c1.3-0.8,2.6-1.5,4-2.3c0.9,0,1.8-0.2,2.6,0c0.8,0.1,1.7,0.5,2.4,0.9c0.3,0.1,0.5,0.7,0.4,1
				c-0.1,0.3-0.6,0.4-0.9,0.6c-0.1,0.1-0.3,0-0.5,0c-2.1-0.4-3.9,0.2-5.7,1.3c-0.1,0-0.1,0.1-0.2,0.1c-0.6,0.1-1.3,0.4-1.8,0.2
				C273.9,51.2,274,50.3,274.3,49.6z"/>
			<path class="st56" d="M305,55.5c1.4-0.1,1.9,1,2.3,2c0.4,1.3,0.7,2.6,1,3.9c0.3,1.2-0.4,2.3-1.4,2.6c-1.2,0.4-2-0.1-2.7-1.4
				c1.3-0.4,1.3-1.4,0.9-2.5C304.5,58.6,304.4,57.1,305,55.5z"/>
			<path class="st57" d="M259.6,55.6c1.2-1.5,2.7-2.7,4.7-3c0.3,0.1,0.7,0.1,0.9,0.3c0.4,0.4,1,1,0.9,1.4c-0.1,0.4-0.8,1.1-1.2,1.1
				c-1.6,0.1-2.8,0.9-4,1.8c-0.3,0.3-0.8,0.3-1.2,0.4c-0.1-0.4-0.2-0.9-0.2-1.3C259.4,56,259.5,55.8,259.6,55.6z"/>
			<path class="st58" d="M305,55.5c0.1,0.8,0.1,1.7,0.2,2.5c0.2,1.1,0.5,2.1,0.8,3.2c0.4,1.7-0.1,2-1.9,1.4c-0.7-2.2-1.3-4.5,0-6.7
				c0.2-0.2,0.3-0.4,0.6-0.4C304.8,55.5,304.9,55.5,305,55.5z"/>
			<path class="st59" d="M286.7,96.3c-0.6-0.2-1.2-0.4-1.6-0.6c-0.3-0.2-0.5-0.7-0.5-1c0-0.2,0.5-0.4,0.9-0.5c1-0.3,1.9-0.7,3-0.9
				c0.4-0.1,1.2,0.2,1.3,0.6c0.2,0.4-0.1,1.2-0.4,1.4C288.5,95.8,287.5,96,286.7,96.3z"/>
			<path class="st56" d="M304.7,55.5c-0.2,0.1-0.4,0.3-0.6,0.4C304.3,55.8,304.5,55.7,304.7,55.5z"/>
			<path class="st60" d="M302.2,30.5c1.5,3.3,2.7,6.8,2.5,10.5c-0.1,1.9-0.3,2.5-1.7,4.2c0-4.3-0.2-8.3-2.1-11.9
				c-0.9-2.5-2.4-4.7-4.5-6.4c-0.3-0.3-0.7-0.4-0.9-0.8c-0.2-0.4-0.4-1.2-0.2-1.4c0.3-0.3,1-0.5,1.4-0.3c0.7,0.3,1.5,0.7,2,1.3
				C299.9,27.3,301,28.9,302.2,30.5z"/>
			<path class="st61" d="M253.7,39.8c-1.4-0.1-2.3-0.1-3.1-0.3c-1-0.2-1.8-1-1.6-2.1c0.1-0.6,0.9-1.4,1.5-1.6
				c2.2-0.5,4.5-0.9,6.8-1.2c1-0.1,1.8,0.6,2.1,1.6c0.3,1-0.2,2.2-1.3,2.5C256.6,39.3,254.9,39.6,253.7,39.8z"/>
			<path class="st62" d="M269.4,35.8c-1.1-0.2-1.8-0.7-2.1-1.6c-0.3-1.1,0.1-2,1-2.4c1-0.5,2.1-0.8,3.1-1.1c1-0.3,1.8,0.1,2.2,1
				c0.5,0.9,0.5,2-0.4,2.6C272.1,34.9,270.7,35.3,269.4,35.8z"/>
			<path class="st63" d="M311.8,17.5c1.6,1.1,3.4,2.2,4.9,3.5c1.3,1.1,2.4,2.6,3.4,4c0.3,0.3,0.1,1,0.2,1.5c-0.5-0.1-1-0.2-1.4-0.5
				c-0.3-0.1-0.4-0.5-0.6-0.7c-3.1-3.9-7.1-6.4-11.8-7.8c-0.5-0.1-0.9-0.2-1.4-0.5c-0.8-0.5-0.3-0.9,0.1-1.3
				C307.3,16.3,309.6,16.9,311.8,17.5z"/>
			<path class="st64" d="M312.7,25.5c0.7,0.5,1.6,0.9,2.2,1.6c1.2,1.4,2.4,3,3.4,4.6c0.2,0.4-0.1,1.1-0.2,1.7
				c-0.5-0.2-1.3-0.2-1.6-0.6c-1-1.4-1.7-2.8-2.6-4.2c-0.5-0.8-1.1-1.6-1.7-2.4C312.3,25.9,312.5,25.7,312.7,25.5z"/>
			<path class="st37" d="M240.8,51.1c0.1,0.5,0.2,1,0.4,1.4C241,52.1,240.9,51.6,240.8,51.1z"/>
			<path class="st65" d="M288.9,83.1c0.9,2.1,0.1,3.6-1.4,5c-1.6,1.5-3.5,2.5-5.6,1.7c-0.8-0.3-1.3-1.6-1.9-2.5
				C283.1,85.9,285.9,84.5,288.9,83.1z"/>
		</g>
	</g>
	<g id="maria-thinking" class="st2">
		<path class="st3" d="M367.4,143.5c-4.1-5.3-8.5-10.3-12.8-15.5c-0.5-0.6-0.8-1.3-1.1-1.9c-0.5-1.3-0.9-2.6-2-3.6
			c-5.4-4.6-10.8-9.2-16.1-14c-2.4-2.2-5.2-3.5-8.3-4.1c-2.2-0.4-4.3-0.8-6.5-1.1c-1.2-0.2-2-0.8-2.8-1.7c-1-1.2-2-2.4-3.1-3.4
			c-0.4-0.4-1.1-0.4-1.7-0.7c-0.3-0.1-0.7-0.3-0.7-0.5c-0.9-3-1.6-6.1-2.5-9.1c-0.3-0.9-0.1-1.6,0.3-2.5c1.8-3.3,3.5-6.7,3.8-10.5
			c0.1-1.5,0.6-2.3,1.8-3c4.1-2.5,7.6-9.6,4.2-15.7c-0.2-0.4-0.1-1.1,0.2-1.5c1.8-3.1,3.2-6.4,3.8-9.9c0.4-2.3,0.6-4.7,0.9-7.2
			c0.6,0.9,1.3,1.7,1.8,2.6c2.5,4.4,3.7,9.2,3.5,14.4c0,0.8-0.2,1.8,0.8,2c0.6,0.1,1.5-0.4,2-0.9c0.9-1,1.5-2.3,2.2-3.4
			c0.2-0.3,0.5-0.7,0.7-0.6c2,0.3,3.4-0.8,4.8-1.8c1.1-0.7,1.8-2,3.5-1.6c0.3,0.1,0.7-0.2,1-0.3c3.7-1.6,5.3-4.8,4.3-8.7
			c-0.1-0.4-0.2-0.9-0.3-1.3c-0.2-0.8-0.5-1.5-0.8-2.3c0.7,0.2,1.2,0.6,1.6,0.9c0.7,0.5,1.3,1,2,1.5c1.3,0.8,2,0.5,2.3-1
			c0.1-0.4,0.1-0.8,0.1-1.2c-0.2-6.7-2.3-12.8-6-18.3c-6.5-9.6-15.6-13.5-27.1-12c-2.9,0.4-5.7,1.1-8.1,2.7c-0.6,0.4-1,0.5-1.6,0.2
			c-1.7-0.7-3.3-0.7-4.6,0.9c-0.2,0.3-0.6,0.5-0.8,0.9c-0.4,0.7-0.9,0.6-1.6,0.4c-1.2-0.5-2.5-0.9-3.8-1.2
			c-4.7-1.1-9.5-1.5-14.4-0.6c-0.6,0.1-1.4,0.1-2-0.1c-4.8-1.6-9.6-1.6-14.4-0.1c-11,3.5-20.1,15.8-20.7,28
			c-0.3,5.7,0.6,11.3,2.6,16.7c0.2,0.7,0.2,1-0.4,1.4c-1.6,1.1-3.1,2.4-4.8,3.4c-0.9,0.6-1.3,1.4-1.5,2.4
			c-1.1,6.6-2.3,13.1-3.3,19.7c-0.8,5.1-1.4,10.2-1.9,15.3c-0.6,6.4-1,12.9-1.4,19.4c-0.2,4.4,0.2,8.8,1.5,13
			c0.5,1.6,1.6,2.8,3.2,3.3c1.9,0.5,3.8,0.9,5.7,1.1c1.5,0.2,3,0.1,4.5,0c0.8,0,1.1,0.1,1.2,1c0.3,1.3,0.8,2.5,1.4,3.7
			c0.9,1.7,2.5,2.3,4.4,1.9c0.6-0.1,1.2-0.3,1.9-0.4c2.7-0.6,5.5-1.2,8.3-1.8c-0.1,0.3-0.2,0.4-0.2,0.6c-2,5.3-1,10,2.4,14.4
			c0.2,0.3,0.3,0.6,0.4,0.9c0.8,3.2,1.5,6.4,2.2,9.5c0.1,0.5,0.2,1.1,0.1,1.6c-2,7.5-4.1,15-6.1,22.5c-0.2,0.9-0.2,2.1,0.2,3
			c0.5,1.3,0.3,2.4,0.1,3.6c-0.3,1.8-0.6,3.6-0.9,5.4H327c-0.1-0.6-0.2-1.2-0.3-1.8c-0.6-3-1.3-5.9-1.9-8.9
			c-0.1-0.3,0.1-0.7,0.3-0.8c2.5-1.2,4.3-3.2,6.2-5c0.3-0.3,0.6-0.7,0.9-0.9c4.4-2.7,8.8-5.3,13.2-8c7.4-4.6,14.8-9,20.9-15.3
			C370.6,153.3,371.2,148.3,367.4,143.5z M259.6,51.3c0.6-0.4,1.1-0.9,1.7-1.1c0.6-0.2,1.6-0.5,2-0.2c0.4,0.3,0.4,1.3,0.5,2
			c0,0-0.5,0.2-0.8,0.2c-1.1-0.1-2.3-0.3-3.4-0.4C259.4,51.5,259.4,51.4,259.6,51.3z M260.5,59.3c0.2-0.2,0.9,0,1.4,0.1
			c0.2,0,0.3,0.2,0.2,0.2c-0.3,2.1-0.5,3.9-0.7,5.8c0,0.2-0.3,0.3-0.5,0.4c-0.1-0.1-0.3-0.3-0.3-0.4c-0.2-1.5-0.6-2.8-1.4-4.1
			C259.1,60.9,260,59.8,260.5,59.3z M286.2,101.6c-1,1.8-2.6,2.7-4.5,3c-3.9,0.6-7.7,1.7-11.3,3.4c-2.9,1.4-6.1,2.1-9.2,3.1
			c-0.6,0.2-1.2,0-1.8,0.1c-0.8,0.1-1.5,0.4-2.4,0.6c-0.1-0.8-0.1-1.8-0.3-2.9c-0.8-7.8-1.6-15.6-2.3-23.4c-0.2-1.9,0.7-3,2.4-3.9
			c0.8-0.4,1.4-1.2,2-2c1.5-1.7,2.9-3.5,4.4-5.2c0.1-0.1,0.6,0.1,0.7,0.2c0.7,0.9,1.1,0.9,1.7,0c0.3-0.5,0.7-0.9,1.2-1.5
			c0.5,1.8,1,3.5,1.5,5.2c2.5,7.2,6.1,13.7,12.2,18.5c1.6,1.2,3.4,2.2,5.2,3.1C286.6,100.6,286.5,100.8,286.2,101.6z M347.7,149.9
			c-7.2,6.8-14.3,13.6-21.5,20.5c-0.9,0.8-1.8,0.4-2.5,0c-0.9-0.5-1.7-1.3-2.4-2.1c-0.3-0.3-0.3-0.8-0.5-1.5
			c0.9-3.8,1.6-7.8,2.7-11.7c1.2-4.3,2.7-8.5,4-12.8c0.3-1,0.6-1,1.4-0.4c2,1.6,4,3.1,6.1,4.6c1.8,1.3,3.1,1.3,4.7-0.2
			c0.1-0.1,0.1-0.1,0.2-0.2c0.8-0.7,1.6-1.9,2.3-1.9c0.9,0,1.7,1.2,2.5,1.9c1.1,1,2.1,2,3.1,3C347.8,149.3,347.8,149.7,347.7,149.9z
			"/>
		<path class="st66" d="M320.8,198.4c0-0.1-0.1-0.2-0.1-0.3c-0.2-0.8-0.7-1.1-1.5-1c-4.4,0.3-8.7-0.5-13.1-1.3
			c-1.8-0.1-3.6,0-5.5-0.1c-0.8,0-1.6-0.1-1.5-1.2c-0.2-0.4-0.5-0.5-0.9-0.5c-1.4-0.2-2.8-0.6-4.2-0.3c-0.2,0.1-0.4,0.2-0.6,0.3
			c-0.8,0.7-1.5,0.6-2.1-0.2c-0.1-0.2-0.3-0.4-0.5-0.5c-0.5-0.2-0.9-0.4-1.4,0c0,0.5,0,1.1-0.1,1.5c-0.1,0.3-0.4,0.6-0.7,0.8
			c-0.2-0.3-0.6-0.5-0.7-0.9c-0.2-0.6-0.2-1.2-0.3-1.8c-2.1-0.6-4.2-1.1-6.4-1.6c-0.3-0.1-0.6-0.1-0.8,0.1c-2.6,0.2-5.2,0.3-7.9,0.5
			c-0.2,0-0.5,0.4-0.7,0.6c0.2,0.2,0.4,0.5,0.6,0.6c3.3,0.3,6.7,0.5,10,0.8c0.6,0.1,1.7,0.5,1.7,0.6c-0.2,1-1,0.8-1.7,0.8
			c-3.1-0.3-6.2-0.5-9.3-0.9c-1.1-0.1-1.7,0-1.9,1.3c-0.1,0.9-0.3,1.8-0.4,2.7H320.8z"/>
		<path class="st67" d="M323.1,135.7c0.3,0.8,0.7,1.5,1,2.3c0.2,0.5,0.1,0.9,0,1.4c-2.1,6.4-4.6,12.7-6.8,19.1
			c-0.5,1.3-0.8,2.7-1.2,4c-0.2,0.5,0,1,0,1.5c0.1,0.6,0.2,1.1-0.2,1.6c-0.9,0.6-2,0.9-2.7,1.7c-1.9,2.1-3.7,4.4-5.6,6.6
			c-1.2,1.4-1.2,3.1,0,4.3c1.6,1.7,2.4,3.7,3.7,5.5c0.3,0.5,0.7,0.9,1.1,1.3c1.3,1.4,2.9,1.7,4.7,0.9c0.5-0.2,1-0.4,1.4-0.6
			c0.7-0.3,0.9,0.1,1,0.7c0.2,1.1-0.1,1.8-0.9,2c-1.8,0.3-3.5,0.6-5.3,0.5c-3.7-0.3-7.4-0.8-11.1-1.1c-0.6-0.1-1.2,0-1.8,0.1
			c-0.5,0.1-1,0.3-1.1,0.9c-0.1,0.6-0.5,0.7-1,0.5c-0.2,0-0.5,0-0.7-0.1c-1.4-1.5-1.3-3.3-1.1-5.2c0.4-0.4,0.5-0.9,0.4-1.4
			c-0.2-1-0.1-2.1-0.1-3.1c0.1-4.4-0.3-8.8-0.3-13.3c0-1.7-0.2-3.3-0.2-5c0-0.6-0.1-1.1-0.4-1.6c-0.1-1-0.1-2,0.1-3
			c0.6-0.3,1.2-0.7,1.6-1.4c0.7-0.2,1.4-0.2,2.1-0.1c1.6,0.3,3,0.2,4.3-0.9c0.5-0.1,1,0,1.5,0.1c4.5,0.8,8.2-0.8,11.3-4
			c0.6-0.6,1.1-1.1,1.5-1.9c0.2-0.5,0.6-1.1,0.1-1.4c-0.6-0.4-0.9,0.3-1.2,0.7c-1.5,2.1-3.5,3.7-5.9,4.8c-3.1,1.3-6.2,1-9.4,0.3
			c-1-0.3-2.1-0.5-3.1-0.7c-0.7-0.1-1.4-0.2-1.7-0.8c-0.3-2.4-0.2-4.9-0.1-7.3c0.5-8.3,1.7-16.5,2.4-24.7c0-0.5,0.1-1.1-0.5-1.4
			c-0.6-0.9-0.3-1.8,0-2.7c0.6-0.2,1.3-0.3,1.9-0.5c0.7-0.1,0.8,0.5,1,0.8c0.6,1.1,1.3,2.1,2.2,3c1.2,1.1,2.8,1.2,4.2,0.4
			c2.5-1.5,4.4-3.4,5.3-6.2c1.6-2.4,3.2-4.8,4.9-7.2c0.1-0.2,0.4-0.3,0.6-0.3c2.9,0.6,5.7,1.3,8.6,1.8c2.1,0.4,4,1.4,5.5,2.7
			c5.7,5,11.3,10.1,16.9,15.2c-2.1,0.5-3.2,2.4-4.5,4c-0.7,0.9-1.4,1.9-2,2.8c-1.8,0.7-2.9,2.1-4,3.7c-1.1,1.5-1.9,3.1-2.7,4.8
			c-0.6,1.2-1,1.3-2.1,0.5c-2.8-2-5.4-4.2-8.4-6c-0.5-0.3-1-0.6-1.5-0.7c-0.9-0.2-1.3,0.1-1,1C324,135.4,323.6,135.5,323.1,135.7z"
			/>
		<path class="st68" d="M295,30.1c3,5,4.5,10.2,3.2,16.1c-0.1,0.7,0,1.4,0,2.1c1.3,0.5,2.4,0.3,3.5-0.7c0.6-0.6,1.2-1.3,1.8-1.9
			c0.3-0.3,0.8-0.7,0.7,0.3c0,1-0.4,2.3,1.4,2.1c0.1,0,0.3,0.4,0.2,0.6c-0.1,0.6-0.4,1.2-0.6,1.8c-1.4,4.4-1.9,8.7-0.4,13.2
			c0.3,1,0.9,2,1.6,2.7c0.4,0.4,1.3,0.4,1.9,0.3c0.3,0,0.5-0.9,0.5-1.4c0-2.7,0.5-5.2,2.1-7.5c1-1.4,2.4-2.1,4.1-1.9
			c1.6,0.2,2.6,1.4,3.1,2.8c1.5,4.3-1.3,10.2-5.6,11.8c-1.2,0.5-1.8,1-1.5,2.3c0.1,0.6,0,1.2,0,1.8c-0.8,3.4-2.6,6.4-4.5,9.3
			c-2.6,4.1-5.4,7.9-9.4,10.8c-1.1,0.8-2.3,1.6-3.6,2.2c-3.6,1.8-7,1-10.3-0.7c-0.5-0.2-0.9-0.5-1.4-0.8c-2.9-2.1-4.9-4.9-6.9-7.9
			c-2.7-4.1-4.3-8.7-5.3-13.4c-1.1-4.9-1.9-9.9-2.8-14.8c-0.1-0.8,0.2-1.8,0.2-2.6c0-0.9,0.2-1.9-0.2-2.5c-1-1.8-1-3.6-1.1-5.5
			c1.1-0.9,2.6-0.9,3.8-1.3c0.3-0.1,0.6,0.1,0.7,0.5c0.1,0.8-0.4,1.4-0.5,2.1c0,0.3-0.2,0.7,0.2,0.8c0.3,0.1,0.5-0.2,0.7-0.4
			c0.2-0.2,0.3-0.4,0.5-0.7c0.9-1.4,2.1-2.2,3.9-2c0.5,0.1,1,0,1.4-0.1c0.4-0.1,0.8-0.3,0.8-0.7c0.1-0.5-0.2-0.7-0.6-1
			c-0.3-0.2-0.8-0.3-1-0.6c0-0.6,0-1.1,0.8-1l0,0.1l0-0.1c1.5,1,3.2,0.7,4.8,0.4c1.4-0.3,2.8-0.4,4.3-0.2c1.4,0.2,2.4-0.5,3.1-1.6
			c2.4-3.5,4.3-7.4,5.2-11.6C294.4,31,294.3,30.3,295,30.1z"/>
		<path class="st67" d="M292.3,143.1c-0.1-2.1-0.1-4.3-0.2-6.4c0-0.6-0.4-1.2-0.6-1.8c-0.2,0.6-0.4,1.1-0.4,1.7
			c-0.1,4.1-0.2,8.1-0.4,12.2c0.3,2.6,0.3,2.6-2.2,3c-1.3,0.2-2.5,0.5-3.6,1.1c-0.5,0.3-1.1,0.7-0.9,1.4c0.2,0.8,0.9,0.6,1.5,0.5
			c1.3-0.2,2.7-0.4,4-0.4c0.5,0,1,0,1.3,0.4c0.2,5.3,0.3,10.5,0.5,15.8c0.2,5.7,0.3,11.4,0.5,17.1c0,0.3-0.3,0.8-0.4,0.8
			c-3.1,0.1-6.3,0.3-9.4-0.7c-1.1-0.6-2.2-0.5-3.5-0.3c-2.3,0.4-4.6,0.6-6.8-0.1c1.5-5.2,3-10.3,4.3-15.5c0.7-2.7,1.2-5.4,1.7-8.1
			c0.1-0.8-0.1-1.7-0.3-2.6c-0.6-2.3-1.3-4.6-2-7.1c0.3,0.1,0.4,0.2,0.6,0.2c0.6,0.1,1.2,0.1,1.7,0.1c-0.1-0.6-0.2-1.3-0.5-1.9
			c-0.1-0.3-0.5-0.4-0.8-0.7c-3-2.3-4.5-5.3-4.5-9c0-2.3,0.6-4.5,1.5-6.6c1.2-3.1,2.2-6.2,2.1-9.5c0-0.2,0.1-0.4,0-0.6
			c-0.2-0.4-0.4-0.7-0.6-1.1c-0.2,0.3-0.6,0.6-0.7,1c-0.3,0.9-0.4,1.8-0.6,2.7c-0.2,0.1-0.3,0.2-0.5,0.3c-3,0.1-5.9,1.2-8.9,1.7
			c-0.5,0.1-1.3,0.6-1.2-0.6c0.2-5.6,0.2-11.2-1.2-16.7c4.1-0.6,7.8-2.2,11.4-4.3c1.7-1,3.8-1.4,5.7-2c1.1-0.3,2.1-0.6,3.2-0.9
			c0.9-0.3,1.3-0.1,1.5,0.9c0.7,4.2,2.9,7.6,6.2,10.3c0.3,0.1,0.6,0.1,0.7,0.3c0.5,0.7,1.2,0.8,2,0.6c0.7-0.2,0.8,0.1,0.6,0.8
			c-0.3,2-0.6,3.9-0.9,5.9c-0.1,0.6-0.4,1.6,0.8,1.5c0.4,0.9,0,1.7-0.1,2.6c-0.4,4.1-0.5,8.2-0.5,12.4
			C292.8,142,292.9,142.7,292.3,143.1z"/>
		<path class="st69" d="M312.6,36.3c-0.7-1.8-1.4-3.5-2.3-5.2c-0.3-0.5-1.1-0.8-1.6-1.2c0.1,0.6,0.1,1.2,0.3,1.8
			c1.2,3.1,2.1,6.2,1.9,9.5c0,0.4-0.1,0.7-0.1,1.1c0,1.1-0.3,1.9-1.7,1.9c-0.9,0-1.8,0.6-2.8,0.9c0-1.2,0-2.3,0-3.5
			c-0.2-1-0.1-2,0.2-2.9c0.8-3.4,0.7-6.9-0.4-10.2c-0.4-1.3-1-2.6-2.6-2.9c-1.1,0-1,0.6-0.8,1.3c1.2,4.3,1.3,8.6,0,12.9
			c-0.4,1.2-1,2.4-1.6,3.6c-0.2-6.1-2-11.5-6.1-16.1c-0.8-1.7-0.4-3.6-0.8-5.4c-0.2-1.2-0.3-2.3-1.1-3.3c-0.4-0.1-0.8-0.3-1.3-0.3
			c-0.1,0-0.3,0.6-0.3,0.9c1,5.2-0.1,10-2.1,14.7c-0.9,2.1-2.2,4-3.4,5.9c-0.4,0.6-0.9,0.7-1.7,0.7c-1.7,0-3.4,0.3-5.1,0.6
			c-0.7,0.1-0.9,0.1-0.9-0.7c0.4-6.8,2.2-12.9,6.5-18.3c0.2-0.3,0.2-0.7,0.3-1c-0.4,0.1-0.9,0-1.1,0.3c-3.9,4.3-9.1,7.4-10.9,13.3
			c-0.8,2.5-1.2,5.1-1.7,7.7c-0.1,0.6-0.1,1-0.9,0.9c-2.8-0.1-5.5,0.7-7.8,2.2c-0.6,0.4-0.8,0.2-0.9-0.4c-2-7.6-1.8-14.8,3.6-21.2
			c0.3-0.3,0.3-0.9,0.4-1.3c-0.5,0.1-1.1,0.1-1.5,0.4c-3.3,2.8-4.9,6.6-5.7,10.7c-0.9,4.5-0.7,9,1,13.3c0.4,0.9-0.3,1.3-0.7,1.8
			c0,0-0.6-0.2-0.7-0.5c-1.6-3.4-2.7-6.8-3-10.5c-0.1-2,0-4,0-5.9c0-0.2,0.1-0.4,0.2-0.5c1.3-0.5,2.2-1.4,2.6-2.7
			c0.3-0.9,0.3-1.8-0.3-2.6c-0.6-0.7-0.6-1.4-0.1-2.2c1.7-2.9,3.8-5.6,6.4-7.8c0.9-0.8,1.9-1.5,2.3-2.7c5.1-3.2,10.7-4.1,16.5-2.5
			c2.5,0.7,4.9,2.1,7.4,3.1c0.4,0.2,0.8,0.1,1.3,0.1c-0.1-0.4-0.2-0.9-0.4-1.2c-0.5-0.6-1.2-1-1.9-1.6c0.3-0.1,0.4-0.2,0.6-0.2
			c8-0.5,15.4,1.2,21.9,6c0.4,0.3,0.9,0.3,1.4,0.5c0.7,0.1,1.2,0.6,1.3,1.3c-0.6,0.6-0.1,1,0.2,1.5c1.6,2.4,3.2,4.9,4.8,7.3
			c0.1,0.2,0.1,0.4,0.2,0.6c0.2,1.8-0.6,3.2-1.6,4.6c-0.3,0.4-0.7,0.5-1.1,0.2c-0.8-1.3-1-2.8-1.8-4.1c-0.6-1-1.2-1.9-2.1-2.7
			c-0.3-0.2-0.5-0.5-0.9-0.5c-0.3-0.1-0.6-0.1-0.8,0.2c-0.2,0.2-0.2,0.5,0,0.8c0.3,0.6,0.7,1,1.1,1.5c1.5,1.8,2.2,4,2.8,6.2
			c0.1,0.3,0.1,0.6,0,0.8C314.6,35.7,313.8,36.6,312.6,36.3z"/>
		<path class="st68" d="M251.6,79.5c-0.2,0-0.3-0.1-0.5,0c-0.3,0.1-0.6,0.2-0.9,0.3c0.2,0.3,0.3,0.7,0.6,1c0.2,0.3,0.6,0.4,0.9,0.6
			c0.2,0.5-0.3,0.8-0.6,1.1c-0.8,0.8-1.5,1.6-2.3,2.3c-0.2,0.4-0.4,0.9-0.6,1.3c0.4,0.2,0.9,0.5,1.3,0.6c0.3,0.1,0.6-0.1,0.9-0.2
			c1.6-0.5,1.5-0.5,1.7,1.3c0.8,7.2,1.7,14.4,2.4,21.6c0.3,2.6,0.1,5.2,0.3,7.7c0,0.4,0.3,0.8,0.4,1.2c0.5-0.2,0.9-0.4,1.4-0.6
			c0.1,0,0.1-0.2,0.1-0.3c0.1-0.6,0.1-1.6,0.4-1.7c0.8-0.4,1.8-0.4,2.7-0.5c0.2,0,0.5,0.4,0.5,0.6c0.3,1.5,0.7,3,0.8,4.6
			c0.1,1.8,0,3.7,0,5.5c-1,0.8-2.3,0.7-3.4,0.7c-3.3,0.1-6.6,0.3-9.9,0.2c-2.4-0.1-3.5-1.5-4.2-3.4c-0.7-1.8-0.8-3.7-1-5.7
			c-0.4-4.9-0.3-9.7-0.2-14.6c0.1-5,0.2-10,0.5-14.9c0.5-3.7,0.8-7.4,1.5-11.1c0.9-5.1,1.9-10.1,2.8-15.2c0.2-1.4,0.7-2.3,2-3.1
			c2.4-1.3,4.6-2.9,6.9-4.5c0.9-0.6,1.8-1,3-0.7c1.9,0.4,3.9,0.7,5.8,1c0.3,0.8-0.4,0.8-0.9,1c-1.2,0.4-2.4,0.4-3.6,0.3
			c-1.6-0.1-2.8,0.3-3.6,1.8c-0.4,0.8-1.3,1-1.8,1.7c0.2,0.5,0.4,1.1,0.7,1.6c0.5,0.7,1.1,1.4,1.7,2.1c0.4,1,0.2,2,0.1,2.9
			c-0.3,3-0.6,6.1-1.1,9.1c-0.2,1.2-0.8,1.8-1.9,2.2c-0.2,0.1-0.5,0.2-0.7,0.2C252.8,77.6,251.9,78.2,251.6,79.5z"/>
		<path class="st68" d="M310.1,174.2c1.6-1.9,3.2-3.8,4.8-5.6c0.9-1,1.8-1,2.9-0.2c1.2,0.9,2.5,1.8,3.5,2.9c1.3,1.5,3,1.2,4.6,1.8
			c0.3,0.1,0.7-0.2,1-0.5c5.9-5.5,11.7-11,17.5-16.5c1-1,1.9-2.2,3.1-3c1.4-0.9,3-1.3,4.6-1.9c0.7-0.2,1.2-0.4,0.6-1.2
			c-0.5-2.1-2.2-3.5-3.6-5c-1.3-1.4-2.5-2.8-3.7-4.2c-0.5-0.6-0.6-1.2-0.3-1.9c1-3,2.3-5.8,4.2-8.3c0.5-0.7,1.2-1.2,1.9-1.7
			c0.3-0.2,0.7-0.5,1.1-0.2c4.3,5.2,8.7,10.3,13,15.6c1.3,1.6,2.3,3.4,2.3,5.5c-2,2.5-4.4,4.6-7,6.5c-3.9,3-7.9,5.8-12.1,8.4
			c-3.7,2.3-7.3,4.9-10.9,7.4c-1.6,1.1-3.1,2.2-4.8,3.2c-2.4,1.4-4.5,3.2-6.6,4.9c-1.3,1-2.2,1.2-3.5,0.2c-1.4-1.1-2.8-0.9-4.2-0.2
			c-0.5,0.3-1.1,0.5-1.6,0.8c-1.6,0.7-2.2,0.6-3.2-1c-0.9-1.5-2.1-2.9-3-4.5C310.6,175.2,309.8,175,310.1,174.2z"/>
		<path class="st70" d="M320.4,198c0,0.1,0.1,0.2,0.1,0.4h4.1c-0.3-1.6-0.7-3.2-1-4.8c-0.1-0.7-0.4-1-1.1-0.9
			c-1.7,0.1-3.5,0.3-5.2,0.2c-4.8,0-9.5-0.2-14.2-1.4c-3.5-0.9-7.4-0.8-11.1-1c-2.7-0.1-2.7,0-2.5,2.7c0.5,0.1,0.9,0.2,1.4,0.2
			c1.5-1.8,2.2-1.3,2.8,0.4c0,0,0.1,0,0.1,0.1c1.7,0.2,3.5,0.5,5.2,0.7c0.2,0.3,0.6,0.3,0.9,0.3c2.9-0.4,5.8,0.1,8.7-0.4
			c0.8-0.1,1.8-0.3,2.8,0.3c-1.4,0.5-2.7,0.6-3.9,0.6c-0.5,0-1.2-0.2-1.5,0.5c1.6,0.3,3.1,0.7,4.7,0.9c2.9,0.2,5.9,0.3,8.8,0.5
			C319.8,197.4,320.3,197.8,320.4,198z"/>
		<path class="st69" d="M321.4,15.3c0.4,0.1,0.8,0.2,1.1,0.2c5.8-0.2,11,1.6,15.7,5c1,0.7,1.7,1.8,2.6,2.6c0.2,0.2,0.6,0.3,0.9,0.4
			c0.1-0.4,0.2-0.7,0.2-1.1c-0.1-0.4-0.3-0.7-0.6-1c-5.5-7.1-12.7-10.7-21.7-10.7c-0.9,0-1.8,0-2.6,0.4c-1.6,0.8-2.3-0.4-3.4-1.3
			c7.6-3.3,15.2-3.6,22.6,0c6.3,3,10.2,8.3,12.8,14.4c1,2.4,1.5,5,2.2,7.5c0.1,0.3,0.2,0.6-0.1,0.7c-0.4,0.2-0.6-0.2-0.9-0.5
			c-1.4-1.7-3-3.1-4.8-4.3c-1.8-1.2-3.7-2.3-5.9-2.8c-0.5,0-0.9,0-1.4,0.1c0.2,0.4,0.3,1,0.6,1.3c4.1,4.3,7.2,9.2,8.4,15.2
			c0.2,0.9,0,1.7-0.7,2.2c-0.9,0.7-1.9,1.4-2.9,2c-0.6,0.4-1,0.2-1-0.7c0-3.1-0.1-6.2-1.3-9.2c-0.4-0.9-1-1.7-1.5-2.5
			c-0.5-0.3-0.7-0.8-1-1.3c-2.3-4.5-5.6-8-10.1-10.4c-0.2-0.1-0.5-0.2-0.8-0.3c-1.3-0.6-2.5-1.6-3.9-2c-0.6-0.2-1.2-0.3-1.9-0.2
			c-0.4,0.2-0.9,0.5-1.4,0.1c-0.6-1.2-1.1-2.4-1.7-3.6c-0.3-0.9,0.5-0.7,0.9-0.9C320.7,14.5,321.2,14.5,321.4,15.3z"/>
		<path class="st71" d="M320.9,19.1c0.4-0.1,0.9-0.3,1.3-0.4c0.3,0.6,0.8,1.1,1.4,1.4c4.4,2.3,8,5.5,10.2,10.1
			c0.2,0.5,0.5,1,0.9,1.4c0.2,0.2,0.4,0.4,0.7,0.2c0.2-0.2,0.2-0.4,0.1-0.7c-0.4-1.3-1-2.4-1.7-3.6c-1.3-2.2-3.1-3.9-5.1-5.5
			c-0.3-0.3-0.8-0.4-0.7-1c2.9,1.2,5.5,3,7.4,5.4c1.7,2.1,2.9,4.5,4.3,6.8c-1.1-0.3-0.9,0.3-0.6,1c1.3,3.6,1.8,7.3,1.4,11.1
			c-0.1,0.5-0.5,1.1-0.9,1.5c-0.6,0.6-1.3,1-2,1.5c-0.7,0.5-1.4,1.1-2.1-0.1c-0.4-0.6-1.1-0.5-1.5,0.3c-0.5,1.1-1.1,2.2-1.7,3.3
			c-0.3-1.7-0.4-3.3-0.8-4.9c-1.2-4.6-3.2-8.8-7-12c-0.3-0.2-0.4-0.7-0.5-1c-0.7-3.6-1.7-7.1-3.8-10.1c-0.2-0.3-0.2-0.8-0.1-1
			C321,21.6,321.1,20.4,320.9,19.1z"/>
		<path class="st71" d="M312.6,36.3c0.9-0.5,1.8-1,2.6-1.5c0.6,0.2,0.5,0.7,0.6,1.2c0.6,3.1,0.5,6.2-0.3,9.2c-0.1,0.3-0.2,0.5,0,0.9
			c0.4-0.2,0.6-0.6,0.8-0.9c0.7-1.4,1.2-2.8,1.2-4.3c0.1-2.3,0.2-4.7-0.4-7c-0.1-0.4-0.2-0.8,0.1-1.1c0.3-0.1,0.7-0.1,0.8-0.2
			c0.6-1.4,1.2-2.9,1.8-4.3c3,7.2,2.8,14.4-0.1,21.5c-0.4,1.1-1.1,2.1-1.6,3.1c-0.4,0.8-1,1-1.9,0.7c-2.3-0.6-4.6-0.2-5.9,1.8
			c-1.3,1.9-1.9,4.2-2.7,6.3c-0.2,0.5-0.2,1.2-0.5,1.8c-0.2-0.4-0.4-0.8-0.5-1.2c-0.8-3.3-0.8-6.6-0.1-9.9c0.3-1.5,0.5-3,0.7-4.5
			c0.1-0.3,0.3-0.6,0.6-0.7c0.8-0.2,1.6-0.5,2.5-0.5c1.1,0,1.6-0.5,2-1.5C313.2,42.3,313.1,39.3,312.6,36.3z"/>
		<path class="st72" d="M310.1,174.2c1.3,2,2.7,4,4,6c0.9,1.3,1.3,1.3,2.7,0.7c0.9-0.4,1.8-1,2.8-1.2c0.9-0.2,2-0.1,2.7,0.3
			c2,1.2,2.2,1.3,4.1-0.1c3.2-2.3,6.5-4.6,9.8-6.9c8-5.5,16-11,24-16.6c2.2-1.5,4-3.6,6-5.4c0.4-0.4,0.9-0.7,1.4-1.1
			c0.2,2.3-0.9,4.2-2.4,5.8c-2.7,3-5.8,5.5-9.2,7.6c-7.5,4.8-14.9,9.5-22.4,14.2c-2.5,1.6-4.9,3.1-7.1,5.1c-0.3,0.3-0.6,0.5-1,0.7
			c-0.9,0.6-1.7,0.7-2.5-0.3c-0.8-1-1.8-1.3-3-0.9c-1.2,0.4-2.5,0.8-3.7,1.3c-1.2,0.5-2.1,0.3-2.8-0.7c-0.4-0.6-0.8-1.3-1.3-1.9
			c-0.9-1.3-1.7-2.6-2.7-3.9C308.8,176.2,308.8,176,310.1,174.2z"/>
		<path class="st73" d="M292.3,143.1c0-2.3,0-4.5,0.1-6.8c0.2-3,0.4-6,0.7-9c0-0.3,0.1-0.5,0.2-0.8c0.4-1.6,0.9-3.3,1.2-4.9
			c0.3-1.9,0.5-3.9,0.8-5.9c0-0.3,0.4-0.6,0.7-0.6c0.4-0.1,0.9-0.1,1.4-0.1c0.4-0.2,0.9,0,1.3-0.2c0.1,0,0.2,0,0.2,0
			c0,0.9,0,1.7,0,2.6c0.3,0.4,0.2,0.8,0.1,1.3c-0.9,6-1.4,12.1-2.1,18.2c-0.5,4.3-0.8,8.7-0.7,13c0,0.5,0,1-0.3,1.4
			c-1.2,0.6-2.3,0.3-3.4-0.3C292.4,148.4,292.4,145.7,292.3,143.1z"/>
		<path class="st72" d="M243,88.1c-0.1,4.4-0.2,8.8-0.2,13.2c0,4.9,0,9.9,0.2,14.8c0.1,2.1,0.4,4.3,0.7,6.4c0.2,1.6,1.1,3,2.4,3.5
			c1.2,0.5,2.8,0.5,4.2,0.4c3.6-0.1,7.2-0.4,10.8-0.7c-0.1,1.2,0,2.3-0.2,3.5c0,0.3-0.6,0.6-0.9,0.6c-3.1,0.2-6.2,0.4-9.3,0.4
			c-1.7,0-3.3-0.2-5-0.5c-2.7-0.5-4.1-2.2-4.5-5c-0.7-4.2-0.4-8.4-0.1-12.7c0.5-7.7,1.1-15.4,1.6-23C242.8,88.8,242.9,88.5,243,88.1
			z"/>
		<path class="st68" d="M309.1,94.4c0.6,1.5,1.2,3,1.7,4.4c0.1,0.3,0,0.7-0.2,0.9c-2.1,3.2-4.6,6-7.9,8.1c-1.4,0.9-2.1,2.1-2.7,3.5
			c-0.7,1.8-2.1,2.5-3.9,2c-0.2-0.1-0.4-0.5-0.4-0.8c-0.1-1.6-0.7-3-1.7-4.3c-1-1.2-1.3-2.9-2-4.4c0-0.6,0.4-0.3,0.7-0.3
			c2.7,1,5.1,0.1,7.5-1.1c2.3-1.1,4.4-2.6,6.1-4.6c0.7-0.8,1.2-1.7,1.8-2.7C308.3,94.8,308.4,94.1,309.1,94.4z"/>
		<path class="st73" d="M296.5,183.8c0.1,0.8,0.2,1.6,0.4,2.4c0.2,0.9,0.5,1.7,0.7,2.6c0,0-0.1,0-0.1,0l-0.1,0
			c-0.4-0.2-0.8,0-1.2-0.2c-2.2,0-2.7-0.4-2.8-2.8c-0.2-6.6-0.4-13.2-0.6-19.7c-0.1-3.8-0.2-7.6-0.3-11.4c1.1-0.5,2.2-0.4,3.3-0.1
			c0.5,0.3,0.7,0.8,0.4,1.4c-0.1,1.1-0.1,2.2-0.2,3.2c0.2,0.9,0.1,1.8,0,2.6c-0.2,1.6-0.3,3.2-0.1,4.8c0.4,3.8,0.1,7.6,0.2,11.4
			c0,1.6,0.1,3.1,0.4,4.6C296.6,183,296.7,183.4,296.5,183.8z"/>
		<path class="st73" d="M306.9,115.6c-1.3-1.8-2.5-3.6-3.8-5.3c-0.3-0.4-0.4-0.6,0.1-0.9c3.9-2.5,7-5.7,9.5-9.5
			c0.1-0.1,0.5-0.1,0.7,0c1,1,2,2,3,3.1c0.1,0.2,0.2,0.6,0.1,0.8C314.1,108.3,310.9,112.2,306.9,115.6z"/>
		<path class="st72" d="M309.1,94.4c-0.2,0.2-0.6,0.4-0.7,0.7c-1.3,3-3.7,4.9-6.4,6.6c-1.8,1.1-3.6,2.1-5.7,2.3
			c-1.2,0.1-2.4-0.1-3.6-0.2c-0.2,0-0.4,0-0.6,0c-0.1-0.7-0.3-1.5-0.4-2.2c0-0.2,0.3-0.6,0.6-0.6c4.5-0.7,7.9-3.2,11-6.4
			c1.6-1.6,3-3.3,4.5-5C308.2,91.2,308.7,92.8,309.1,94.4z"/>
		<path class="st74" d="M315.9,165.6c-0.7-4,1.2-7.5,2.4-11c1.8-5.3,3.8-10.6,5.6-15.9c0.1-0.2,0.1-0.5,0.1-0.7
			c1.6,1,1.9,2.1,1.2,4.1c-2.1,6.3-3.8,12.7-5.7,19.1c-0.4,1.4-0.5,2.9-0.7,4.4c-0.1,0.5-0.2,0.6-0.7,0.5
			C317.4,165.8,316.6,165.7,315.9,165.6z"/>
		<path class="st74" d="M298.3,188.9c0.2-0.2,0.6-0.4,0.6-0.6c-0.1-0.8,0.3-1.1,1-1.1c1.9,0,3.9,0,5.8,0.1c2.8,0.2,5.6,0.6,8.4,0.8
			c1.4,0.1,2.9-0.2,4.4-0.5c0.3,0,0.8-0.5,0.7-0.7c-0.1-0.6,0.6-1.5-0.7-1.7c0.7-0.2,1.5-0.5,2.2-0.7c0.1,0,0.4,0.1,0.5,0.3
			c0.5,1.8,1,3.5,1.5,5.3c0,0.1-0.4,0.6-0.5,0.6c-1.4-0.2-2.8-0.4-4.2-0.7c-0.7-0.1-1.4-0.6-1.3,0.7c0,0.1-0.5,0.3-0.8,0.3
			c-4.7-0.1-9.4-0.1-14-1.5C300.8,189.2,299.5,189.1,298.3,188.9z"/>
		<path class="st75" d="M266.5,13.3c-0.2,0.5-0.3,1.2-0.7,1.5c-2,2.2-4.1,4.4-6.1,6.6c-0.6,0.6-1,1.4-1.4,2.1
			c-0.5,0.8-0.9,1.5,0,2.6c1.4,1.6-0.4,5-2.7,5.3c-0.1-0.4-0.1-0.7-0.2-1.1c-0.3,0.3-0.7,0.6-0.8,0.9c-0.4,1.4-0.7,2.8-1,4.2
			c-0.1,2.7-0.5,5.3-0.3,8c0.1,1,0.3,2,0.4,3c0.1,0.9-0.2,1.1-1,0.9c-1.2-5.2-1.6-10.4-0.1-15.5c2.1-7.4,6.2-13.4,12.7-17.7
			C265.7,13.7,266.1,13.5,266.5,13.3z"/>
		<path class="st74" d="M323.1,135.7c0.1-0.3,0.3-0.6,0.3-0.8c0.1-0.4-0.1-1.1,0.2-1.3c0.3-0.2,1-0.3,1.4-0.1
			c1.6,0.8,3.1,1.7,4.6,2.7c1.8,1.2,3.5,2.6,5.1,3.9c0.8,0.7,1.3,0.7,1.8-0.4c1.3-2.7,2.7-5.4,4.9-7.4c0.5-0.5,1.3-0.6,2-0.9
			c-2.2,4.2-4.5,8.4-6.7,12.7c-0.4,0.8-0.7,0.7-1.3,0.3c-3.4-2.6-6.8-5.2-10.2-7.7C324.7,136.1,323.8,136,323.1,135.7z"/>
		<path class="st72" d="M352.3,128.9c-1.1,0.9-2.5,1.6-3.2,2.7c-1.5,2.4-2.6,5.1-3.7,7.7c-0.2,0.3,0,1,0.3,1.3
			c2.1,2.5,4.3,4.9,6.4,7.4c0.4,0.5,0.4,1.4,0.6,2.1c-0.7-0.5-1.4-1-2.1-1.5c-3-2.5-5.9-5.1-8.9-7.6c-0.5-0.4-0.6-0.8-0.3-1.3
			c1.9-3.2,3.8-6.4,5.8-9.5c0.4-0.7,1.2-1.3,1.9-1.8C350.7,127.4,351.1,127.5,352.3,128.9z"/>
		<path class="st73" d="M290,115.6c-2.3-2.1-3.7-4.5-4.3-7.4c-0.2-1.2-0.1-2.4,0.7-3.4c0.7-0.9,1.2-1.9,1.8-2.8
			c0.2-0.3,0.6-0.5,0.9-0.8c0.3,0.3,0.7,0.7,0.8,1.1c0.3,1.9,0.6,3.7,1.7,5.3c0.4,0.6,0.6,1.2,1.1,1.7c0.7,0.6,0.5,1,0.1,1.6
			C291.9,112.3,291,113.9,290,115.6z"/>
		<path class="st74" d="M263.1,130.1c0.3,0.1,0.6,0.4,0.9,0.3c2.4-0.5,4.8-1.1,7.2-1.6c0.8-0.2,1.7-0.1,2.5-0.1
			c-0.5,1.7-1,3.5-1.6,5.2c-0.1,0.2-0.4,0.4-0.6,0.5c-3.1,0.6-6.1,1.2-9.3,1.8C262.5,134.1,262.8,132.1,263.1,130.1z"/>
		<path class="st72" d="M282,95.6c0.7,0.3,1.4,0.5,2.1,0.8c4.8,2.4,9,1.3,13-1.9c4.7-3.6,8-8.4,10.9-13.5c1.2-2.1,2.1-4.3,3.1-6.4
			c-0.3,3.2-1.5,6.2-3.1,9c-2.7,5-5.9,9.6-10.7,12.8c-2.4,1.6-5,2.9-8,2.6C286.5,98.9,284.2,97.4,282,95.6z"/>
		<path class="st72" d="M295,30.1c-0.4,1.4-0.6,3-1.3,4.3c-1.4,3-2.8,6-4.4,8.9c-0.6,1.1-1.8,1.6-3.1,1.7c-2.3,0.1-4.6,0.4-6.8,0.6
			c-0.4,0-0.9-0.1-1.2-0.2c-0.5-0.2-0.9-0.6-1.3-0.9c0.6-0.1,1.3-0.2,1.8-0.4c2-0.7,4-1.3,6.2-0.8c1.4,0.3,2.4-0.6,3-1.6
			c1.4-2.4,2.8-4.9,4-7.5c0.8-1.8,1.2-3.8,1.8-5.8C294.2,29,294.6,29.6,295,30.1z"/>
		<path class="st72" d="M251.6,79.5c-0.2-1.2,0.1-1.8,1.3-2.1c0.2-0.1,0.4-0.1,0.6-0.1c1.8-0.2,2.8-1,2.9-3c0.2-3.3,0.6-6.6,1-9.8
			c0-0.5,0.1-0.9,0.2-1.4c0.3,0.8,0.9,1.5,1,2.3c0.4,3.9-0.1,7.8-1.1,11.6c-0.8,2.9-0.8,2.9-3.7,3C253,80,252.3,79.7,251.6,79.5z"/>
		<path class="st76" d="M314.5,18.8c-0.4-0.4-0.9-0.9-1.3-1.3c-0.5-0.8-0.9-1.7-1.5-2.3c-1-0.9-2.1-1.7-3.3-2.4
			c-0.4-0.3-0.5-0.5-0.1-0.9c1.5-1.7,2.1-1.9,3.8-0.5c2,1.7,3.7,3.7,5.6,5.5c-0.1,0.9-0.9,1.9-1.9,2.2
			C315.3,19,314.9,18.9,314.5,18.8z"/>
		<path class="st77" d="M252.8,47.2c1,0.3,0.7-0.5,0.7-0.9c-0.1-1.2-0.4-2.4-0.4-3.5c0.1-2.5,0.4-5,0.6-7.4
			c-0.1,5.5,1.5,10.6,4,15.4c0.4,0.8-0.4,0.7-0.7,1c-0.3,0.1-0.6,0.3-1,0.4c-1.7,0.7-1.7,0.7-2.2-1.1
			C253.4,49.8,253.1,48.5,252.8,47.2z"/>
		<path class="st74" d="M313.4,112.3c0.1,1.8-1.1,3-2.2,4.2c-0.8,0.9-1.9,1.6-2.9,2.2c-1.5,1-3.5,0.8-4.7-0.6c-0.8-0.9-1.4-2-2.2-3
			c-0.2-0.3-0.5-0.6-0.7-0.9c0.2-0.3,0.3-0.6,0.5-0.9c0.7-1,1-0.9,1.7,0c0.9,1.3,1.8,2.5,2.8,3.7c0.3,0.3,1.3,0.4,1.7,0.2
			c1-0.5,2-1.2,2.8-1.9C311.5,114.4,312.4,113.3,313.4,112.3z"/>
		<path class="st78" d="M339.8,24.9c0.5,0,1-0.1,1.4,0.1c3.8,1.6,7,3.8,9.5,7.1c0.6,0.7,0.5,0.1,0.6-0.3c0.1,0.4,0.2,0.8,0.2,1.3
			c0.1,0.4,0.1,0.8,0.1,1.4c-0.8-0.6-1.5-1.2-2.3-1.7c-1.2-0.7-2.5-1.4-3.8-2c-0.3-0.2-0.6-0.3-0.8-0.6
			C343.2,28.4,341.5,26.6,339.8,24.9z"/>
		<path class="st74" d="M271.8,187.4c1.5,0,3.1,0,4.6,0c0.9,0,1.8-0.3,2.7-0.4c1.1-0.1,2.2-0.3,3,0.8c-1.3,0.2-1.4,0.3-0.4,1.6
			c-2.8,0.2-5.5,0.6-8.2,0.7C271.9,190.2,271.2,189.1,271.8,187.4z"/>
		<path class="st72" d="M260.1,75.3c0.2-2.3,0.4-4.7,0.7-7c0-0.1,0-0.2,0-0.2c0.3-0.5,3.8-1,4.3-0.7c0.6,0.5,0.7,1.2,0.2,1.8
			c-1.6,2.1-3.2,4.2-4.8,6.3C260.3,75.4,260.2,75.3,260.1,75.3z"/>
		<path class="st79" d="M276.8,44.5c-0.2,0.3-0.5,0.6-0.7,1c-0.1,0.1-0.2,0.2-0.3,0.2c-0.5,0-1,0-1.5-0.1c-0.4-0.1-0.8-0.2-0.6-0.7
			c0.3-2,0.4-4.1,0.8-6.1c0.5-2.7,1.5-5.2,3.3-7.5c-0.1,0.5-0.2,1-0.3,1.6c-0.9,3.2-1.4,6.4-1.4,9.7C276,43.2,276.2,43.9,276.8,44.5
			z"/>
		<path class="st80" d="M290.9,154.8c-1.9,0.1-3.7,0.3-5.6,0.4c-0.6,0-1.4-0.2-1.7-0.6c-0.5-0.7-0.1-1.5,0.8-1.8
			c1.7-0.6,3.3-1.2,5.1-1.5c1.1-0.2,1.3-0.5,1.2-1.5c0-0.3,0-0.7,0.1-1.1C290.8,150.8,290.9,152.8,290.9,154.8z"/>
		<path class="st81" d="M303.4,25.6c1.5,0,2,0.3,2.6,2c1.5,3.8,1.6,7.6,0.7,11.6c-0.2,0.8-0.3,1.7-0.4,2.6c-0.4-1.8-0.9-3.6-0.8-5.6
			c0.2-2.6-0.1-5.2-0.4-7.8C304.9,27.4,304,26.5,303.4,25.6z"/>
		<path class="st81" d="M321.4,15.3c-0.7-0.6-1.6-0.5-2.1,0.2c-0.8-1-1.6-1.9-2.5-3c4.2-0.7,8.2-0.2,12.1,1.4
			c-0.2,0.6-0.6,0.3-1,0.3c-1.9,0.1-3.7,0.1-5.6,0.2C321.5,14.3,321.2,14.6,321.4,15.3z"/>
		<path class="st82" d="M255.2,59.4c0.9-1.1,1.7-2.3,2.6-3.3c0.4-0.4,1.2-0.4,1.8-0.5c1.4-0.1,2.9-0.2,4.4-0.3
			c0.4,0,0.7-0.4,1.1-0.7c0.9,1.5,0.3,2.7-1.4,2.8c-0.6,0-1.1,0.1-1.7,0c-1.8-0.3-3.2,0.3-4.2,1.7c-0.1,0.2-0.6,0.1-0.9,0.1
			C256.3,59.3,255.8,59.3,255.2,59.4z"/>
		<path class="st83" d="M260.9,132.7c-0.4,1.4-0.7,2.6-1.1,3.7c-0.4,1-1.1,1-1.7,0.1c-0.1-0.2-0.3-0.4-0.4-0.6
			c-0.4-1.1-0.7-2.2-1.1-3.3c1.2-0.2,2.4-0.4,3.6-0.6C260.4,132,260.6,132.5,260.9,132.7z"/>
		<path class="st84" d="M296,154.8c-1.1,0-2.3,0-3.4,0c0-1.3-0.1-2.5-0.1-3.8c1.1,0.1,2.2,0.2,3.3,0.3
			C296.7,152.4,296.5,153.6,296,154.8z"/>
		<path class="st83" d="M293.4,119.1c-0.1-0.2-0.2-0.4-0.3-0.6c-1.5,0.9-2.2-0.2-3-1.1c0.3-0.2,0.8-0.3,1-0.6
			c0.8-1.2,1.6-2.4,2.3-3.6c0.2-0.2,0.4-0.4,0.6-0.6c0.2,0.3,0.5,0.7,0.5,1C294.1,115.5,293.7,117.3,293.4,119.1z"/>
		<path class="st85" d="M270.4,48.1c-0.3-0.1-0.6-0.3-0.9-0.2c-1.2,0.3-2.3,0.6-3.5,0.9c-0.5-1.9-0.5-2,1.4-2.5
			c1-0.3,2.1-0.4,3.1-0.7c0.6,0,1.2-0.3,1.7,0C272.1,46.9,271.2,47.5,270.4,48.1z"/>
		<path class="st70" d="M287.8,193c-1.9-0.4-3.8-0.9-5.7-1.3c-0.5-0.1-1-0.1-1.5-0.2c1.9-0.6,3.9-1.1,5.9-1c0.9,0.1,1.4,0.2,1.3,1.2
			C287.8,192.2,287.8,192.6,287.8,193z"/>
		<path class="st86" d="M304.2,46c-0.2,0-0.5-0.1-0.6,0c-0.7,0.7-1.3,1.4-2,2.1c-1,0.9-2.2,1-3.4,0.2c0.9,0.4,1.7,0.1,2.2-0.6
			c1.4-1.9,2.7-3.8,4.2-5.8C304.5,43.2,304.3,44.6,304.2,46z"/>
		<path class="st87" d="M264.8,59.3c0.2,1.8,0.5,3.5,0.7,5.3c0,0.2-0.3,0.7-0.4,0.7c-0.5-0.1-1.5-0.3-1.5-0.4
			C263.6,63,263.6,61.1,264.8,59.3z"/>
		<path class="st88" d="M315.7,19.1c0.6-0.7,1.3-1.5,1.9-2.2c0.6,1.2,1.2,2.4,1.7,3.6c0.1,0.2-0.1,0.7-0.3,0.8
			c-0.1,0.1-0.6,0-0.8-0.1C317.3,20.5,316.5,19.8,315.7,19.1z"/>
		<path class="st89" d="M293.1,18.6c0.4,0.7,1,1.4,1.2,2.2c0.4,2.1,0.5,4.3,0.8,6.4c-1-0.5-1.3-1.2-1.1-2.3
			C294.2,22.8,293.9,20.7,293.1,18.6z"/>
		<path class="st86" d="M248.8,84.8c0.5-0.6,0.9-1.2,1.4-1.8c0.5-0.6,1-1.1,1.5-1.6c0.5,0.3,0.9,0.5,1.4,0.8
			c-0.4,0.4-0.6,0.9-1.1,1.2C250.9,83.9,249.8,84.3,248.8,84.8z"/>
		<path class="st90" d="M272.3,46c-0.6-0.1-1.2-0.2-1.7-0.3c0.3-0.1,0.7-0.2,1-0.2c0.5-0.2,1.1,0.1,1.6-0.2c0.2-0.2,0.3-0.3,0.5-0.5
			c0.3,0.2,0.6,0.4,0.9,0.5c0.4,0.1,0.9,0.2,1.3,0.2C274.7,46,273.5,46,272.3,46z"/>
		<path class="st91" d="M259.6,51.3c0,0.1,0,0.3,0,0.4c-0.9,0-1.8,0-2.6,0.1c0.2-0.3,0.5-0.7,0.7-1
			C258.3,50.9,258.9,51.1,259.6,51.3z"/>
		<path class="st92" d="M327.8,14.1c0.3-0.1,0.7-0.2,1-0.3c0.5,0.2,0.9,0.3,1.4,0.5c0.1,0.2,0,0.3-0.2,0.3
			C329.2,14.4,328.5,14.3,327.8,14.1z"/>
		<path class="st93" d="M331,14.5c0.4,0.2,0.8,0.4,1.1,0.6c0,0.1-0.1,0.1-0.1,0.2c-0.5-0.2-1-0.3-1.5-0.5
			C330.6,14.6,330.8,14.7,331,14.5z"/>
		<path class="st94" d="M273.2,45.2c-0.5,0.1-1.1,0.1-1.6,0.2C272.1,45.4,272.6,45.3,273.2,45.2z"/>
		<path class="st95" d="M331,14.5c-0.2,0.1-0.3,0.2-0.5,0.3c-0.2-0.1-0.3-0.1-0.5-0.2c0.1-0.1,0.2-0.2,0.2-0.3
			C330.5,14.4,330.7,14.5,331,14.5z"/>
		<path class="st67" d="M296.2,188.7c0.4,0.1,0.8,0.1,1.2,0.2C297,188.8,296.6,188.7,296.2,188.7z"/>
		<path class="st67" d="M298.6,114.8c-0.4,0.1-0.8,0.1-1.3,0.2C297.8,114.9,298.2,114.9,298.6,114.8z"/>
		<path class="st96" d="M296.3,198.6c0-0.5-0.4-0.9-0.6-1.4c-0.4,0.4-1,0.7-1,1.2c-0.1,0.5-0.1,1.1-0.1,1.6c0.6,0.4,1.2,0.6,1.8,0.7
			C296.4,199.9,296.4,199.2,296.3,198.6z"/>
		<path class="st97" d="M290,198.4c-0.1-0.4-0.4-0.8-0.6-1.2c-0.3,0.4-0.7,0.8-0.8,1.2H290z"/>
		<path class="st96" d="M299.1,194.6c3.8-0.2,7.5-0.3,11.3-0.4c0.6,0,1.1,0.3,1.7,0.5c-0.5,0.3-1.1,0.8-1.6,0.9
			c-1.5,0.2-3,0.3-4.5,0.5c-1.6,0-3.3,0-4.9,0c-0.6,0-1.2-0.1-1.8-0.2C298.7,195.6,298.4,195.2,299.1,194.6z"/>
		<path class="st98" d="M290.9,193.4c0.2-0.9,0.6-1.6,1.6-1.4c1.1,0.2,1.4,0.9,1.3,1.9C292.6,195.3,291.7,195.1,290.9,193.4z"/>
		<path class="st94" d="M296,154.8c-0.1-1.2-0.2-2.4-0.2-3.6c0.1-2.8,0-5.7,0.2-8.5c0.4-5.2,1-10.4,1.6-15.6
			c0.3-2.9,0.7-5.8,1.1-8.6c0.1-0.4,0.2-0.8,0.2-1.2c1-0.7,1,0.2,0.9,0.7c-0.1,1.9-0.4,3.8-0.6,5.7c-0.8,9-2.4,18-2,27.2
			c0.6,1.3,0.9,2.7,0.2,4.1c-0.1,0.4-0.2,0.9-0.3,1.3c-0.3-0.1-0.6-0.3-0.9-0.4C296.2,155.6,296.1,155.2,296,154.8z"/>
		<path class="st94" d="M302,152.2c1.5,0.1,2.9,0.4,4.4,0.4c4.5,0.1,7.9-1.8,10.5-5.4c0.4-0.6,0.8-1.7,1.8-1
			c0.8,0.6,0.3,1.5-0.1,2.1c-2.7,4.3-8.7,7.2-13.6,5.8c-0.2-0.1-0.5-0.1-0.7-0.1c-0.8,0-1.5-0.1-2.1-0.6
			C301.7,153.1,301.2,152.7,302,152.2z"/>
		<path class="st99" d="M296.5,183.8c-0.2-1.2-0.7-2.4-0.7-3.6c-0.1-5.2-0.2-10.4-0.2-15.5c0-1.8,0.3-3.6,0.5-5.4
			c0.2,0.6,0.6,1.2,0.6,1.7c0.2,6.1,0.3,12.3,0.5,18.4c0,1.1,0.2,2.1,0.2,3.2C297.4,183.2,297.6,184,296.5,183.8z"/>
		<path class="st74" d="M302,152.2c-0.4,0.6-0.1,1,0.5,1.2c0.6,0.2,1.2,0.4,1.8,0.6c-1.2,1.4-2.8,1.4-4.5,1.1c-0.7-0.1-1.5,0-2.2,0
			c-0.1-1.4-0.2-2.7-0.2-4.1c1.3,0.3,2.7,0.6,4,0.9C301.5,152,301.7,152.1,302,152.2z"/>
		<path class="st3" d="M292.7,52.5c1.9,2.4,2.3,5.2,2,8.1c-0.1,1.1-0.5,2.3-1.7,2.5c-1.2,0.1-1.9-0.9-2.2-1.9c-0.5-2-0.8-4.1-1-6.2
			c-0.1-0.6-0.2-0.7-0.8-0.9c-1.3-0.4-2.6-1.1-3.8-1.7c-0.3-0.2-0.4-0.9-0.3-1.2c0.1-0.4,0.6-0.7,1-0.8c0.7-0.1,1.3,0.1,2,0.1
			c1.4,0,2.8-0.1,4.2-0.2c0.7-0.1,1.5-0.5,1.8,0.4c0.3,0.8-0.4,1.3-1,1.7C292.8,52.4,292.8,52.5,292.7,52.5z"/>
		<path class="st100" d="M274.8,58.2c0-0.3,0-0.6,0.1-1c0.1-0.6-0.1-0.7-0.7-0.8c-0.7-0.1-1.5-0.4-2-0.9c-0.3-0.2-0.2-1-0.2-1.5
			c0.5,0,1.1-0.2,1.4,0.1c0.9,0.7,1.7,0.9,2.7,0.5c0.4-0.2,1.2,0,1.6,0.3c0.6,0.5,1.1,1.2,1.2,1.8c0.4,2,0.7,4.1,0.8,6.1
			c0.1,1-0.4,2.2-1.6,2.4c-1.2,0.2-1.9-0.8-2.2-1.8c-0.6-1.8-0.9-3.6-1.3-5.4C274.7,58.3,274.8,58.3,274.8,58.2z"/>
		<path class="st94" d="M280.8,81.9c2,0.1,4.1,0.4,6,0.2c2-0.3,4-1.1,6-1.7c0.4-0.1,0.8-0.3,0.6-1c-0.3-0.7,0.4-1,1-1
			c1.1,0,2.2,1.2,2.2,2.3c-0.1,0.9-0.6,1.2-1.5,0.9c-0.3-0.1-0.6,0.1-0.9,0.2c-3.8,1.8-7.7,2.5-11.8,1.8c-0.6-0.1-1.2-0.4-1.8-0.7
			c-0.3-0.2-0.4-0.6-0.6-0.9c0.3-0.1,0.6-0.3,0.9-0.4C280.8,81.7,280.8,81.8,280.8,81.9z"/>
		<path class="st94" d="M272.3,46c1.2-0.2,2.4-0.3,3.6-0.5c0.1,0,0.2,0,0.2,0c0.2,0.1,0.5,0.1,0.7,0.2c0.7,0.2,1.3,0.6,1.2,1.4
			c-0.1,0.9-0.8,1.1-1.6,1.1c-0.1,0-0.2,0-0.4,0c-2.1-0.5-3.5,0.4-4.6,2.1c-0.3,0.5-1,0.7-1.5,1.1c0-0.7-0.1-1.3-0.1-2
			c0-0.4,0.3-0.8,0.5-1.2C271,47.4,271.6,46.7,272.3,46z"/>
		<path class="st72" d="M314.9,57.5c1.2,0.2,1.6,1,1.7,2.1c0.1,1.3,0.2,2.6,0.2,3.9c0.1,1.6-0.7,2.7-2,2.8c-1.4,0.2-2.4-0.6-2.6-2.2
			c-0.1-1.6,0-3.2,0.3-4.8c0.1-0.6,0.9-1.1,1.4-1.6c0.1,0.3,0,0.5-0.1,0.7c-1.1,1.5-1,3.3-1,5.1c0,0.5,0.1,1,0.8,1
			c0.7,0,0.7-0.7,0.6-1.2C313.9,61.3,314.2,59.4,314.9,57.5z"/>
		<path class="st99" d="M314.9,57.5c0,0.3,0.1,0.7,0.1,1c-0.1,1.6-0.2,3.1-0.3,4.7c0,0.2,0.1,0.4,0,0.5c-0.3,0.4-0.6,0.9-0.9,1.3
			c-0.4-0.3-1.1-0.6-1.1-1c-0.3-2.2-0.3-4.5,1.4-6.3C314.3,57.6,314.6,57.6,314.9,57.5z"/>
		<path class="st101" d="M286.5,87.9c-0.9-0.3-1.6-0.5-2.3-0.8c-0.2-0.1-0.4-0.4-0.3-0.6c0.1-0.2,0.3-0.5,0.5-0.5
			c0.4-0.1,0.9,0,1.3,0c1,0,2-0.1,3-0.1c0.3,0,0.5,0,0.8,0c-0.1,0.3-0.1,0.7-0.3,0.8C288.2,87.2,287.3,87.5,286.5,87.9z"/>
		<path class="st102" d="M317.1,32.8c0.8,3.2,1.1,6.5,0.4,9.7c-0.3,1.4-1,2.6-1.7,3.9c-0.1,0.2-0.6,0.3-1,0.5c0-0.3-0.1-0.7,0-1
			c1.2-3.6,1.1-7.3,0.2-10.9c-0.5-2.6-1.4-5-3.1-7c-0.3-0.3-0.7-0.6-0.8-1c-0.2-0.4-0.3-1.2-0.1-1.3c0.3-0.3,1.1-0.4,1.5-0.2
			c0.6,0.3,1.3,0.9,1.6,1.5C315.3,28.7,316.2,30.7,317.1,32.8z"/>
		<path class="st75" d="M266.5,27.4c1.8,0,3.6,0,5.5,0c1.2,0,2.1,0.8,2.2,1.9c0.1,1.1-0.7,2.2-1.8,2.4c-2.5,0.3-4.9,0.2-7.2-0.7
			c-1.2-0.5-1.8-1.5-1.5-2.6c0.3-1.1,1.2-1.2,2.2-1.2c0.2,0,0.5,0,0.7,0C266.5,27.3,266.5,27.4,266.5,27.4z"/>
		<path class="st75" d="M285.2,30.8c-0.4,0-0.8,0-1.2,0c-1-0.1-1.7-0.6-1.8-1.6c-0.1-1,0.2-2,1.3-2.3c1.2-0.3,2.5-0.5,3.8-0.4
			c0.6,0.1,1.3,0.8,1.6,1.5c0.4,0.8,0.2,1.8-0.7,2.2c-0.9,0.5-2,0.7-3,1C285.3,31,285.2,30.9,285.2,30.8z"/>
		<path class="st100" d="M328.1,21c1.7,1.6,3.5,3.1,4.9,4.9c1.2,1.5,1.9,3.3,2.8,5c0.2,0.3-0.1,0.9-0.2,1.4c-0.4-0.2-1-0.4-1.2-0.7
			c-1.3-1.8-2.3-3.9-3.7-5.6c-2-2.5-4.6-4.3-7.4-5.7c-0.6-0.3-1.5-0.5-1.1-1.5c1,0.2,2.1,0.4,3.1,0.8
			C326.3,19.8,327.2,20.5,328.1,21z"/>
		<path class="st103" d="M332.8,37.6c-0.2,0.2-0.5,0.7-0.8,0.8c-0.3,0.1-0.8-0.1-1.1-0.4c-0.2-0.2-0.3-0.6-0.4-0.8
			c-0.8-2.1-1.7-4.2-2.5-6.3c-0.1-0.3,0-0.8,0-1.2c0.3,0.1,0.8,0.2,1,0.4C330.9,32.2,332.1,34.6,332.8,37.6z"/>
	</g>
	<g id="maria-shrugging_1_">
		<path class="st104" d="M174.5,361.7c0,0.9,0.1,1.2,1.1,1.2c67.2,0,134.3,0,201.5,0c0.3,0,0.6,0,1,0c0,0,0.1-0.1,0.1-0.2
			c-67.3,0-134.6,0-201.9,0c-1.6,0-1.6,0-1.6-1.6"/>
		<path class="st104" d="M296.1,90.4c0.9-0.1,1.7-0.3,2.6-0.4c1,1.1,2.4,0.8,3.6,0.8c4.6-0.1,7.6,2.1,9.8,5.8c2,3.4,3,7,3.4,10.9
			c-0.7,3.3-0.4,6.6-0.3,9.9c0,1.4,0.1,2.7,0.1,4.1c0,1.6,0.1,3.1,0.5,4.6c0.1,0.8-0.5,1.3-1,1.8c-2.1,1.9-2.9,4.3-2.5,7.1
			c0.2,1.3,0.4,2.7,0.3,4c0,0.4,0,0.7,0.3,1.1c0.4-0.3,0.3-0.8,0.3-1.2c0.1-1.9-0.2-3.7,0.2-5.6c0.3-1.5,1.1-2.8,2.1-4
			c1.7-1.9,3.8-3.5,5.5-5.5c1.7-2,3.4-3.9,4.9-6.1c0.6-0.9,1.2-1.7,1.9-2.4c0.8-0.8,1.6-1.3,2.8-1.3c0.9,0,1.6-0.5,2.1-1.2
			c1-1.4,2-2.8,3.1-4.1c0.5-0.5,1-1,1.7-0.5c0.5,0.3,0.7,0.7,0.2,1.1c-1,0.8-0.7,1.8-0.3,2.7c1.2,2.5,2.5,5,4.9,6.7
			c0.1,0.1,0.1,0.2,0.2,0.3c0.1,0.4-0.2,0.7-0.4,0.9c-0.8,0.8-1.5,1.7-1.5,3c0,0.3-0.2,0.4-0.5,0.4c-1.2-0.2-2.1-1-2.9-1.8
			c-1.3-1.2-2.4-2.5-3.2-4c-0.1-0.2-0.2-0.4-0.4-0.6c-0.2-0.2-0.5-0.5-0.8-0.3c-0.4,0.2-0.4,0.6-0.3,0.9c0.1,0.5,0.4,0.9,0.7,1.4
			c1.3,1.9,3.1,3.2,5.1,4.3c0.6,0.4,1.4,0.6,1.9,1.2c0.2,0.6-0.1,1.1-0.4,1.6c-1.7,3.5-4,6.7-6.6,9.6c-1.6,1.8-3.2,3.5-4.8,5.2
			c-2.1,2.2-4.6,4.1-7,6c-0.9,0.7-1.9,1.5-2.8,2.3c-3.3,2.8-6.7,1.7-9.6-1.2c-1.2-1.2-1.8-2.6-2.1-4.4c-0.3-2.2-1.3-4.2-2.1-6.2
			c-1.3-3.3-2.5-6.6-4-9.9c-0.5-1.2-0.6-2.4-0.7-3.6c-0.2-1.3-0.5-2.5-0.8-3.7c-0.1-0.4-0.3-1.1-0.9-0.9c-0.6,0.2-0.5,0.7-0.4,1.2
			c0.1,1,0.2,2,0.4,3c0.7,3.3,1.4,6.6,2.1,9.8c0.1,0.5,0.2,0.9,0.1,1.4c-0.6,1.9-1.8,3.5-2.6,5.2c-0.1,0.2-0.3,0.4-0.3,0.6
			c-0.2,0.4-0.5,0.9-0.1,1.2c0.4,0.4,0.8,0,1.2-0.2c0.7-0.3,1.4-1,2.1-0.5c0.6,0.5,0,1.3-0.1,2c-0.9,4.2-0.6,8.5,0.2,12.7
			c0.1,0.8,0.3,1.7,0.5,2.5c1.5,6.2-0.4,11.3-5.1,15.5c-0.9,0.8-1.7,1.6-2.6,2.3c-2,0.7-4.1,0.8-6.1,1c-3.1,0.4-6.2,0.6-9.3,0.5
			c-9-0.2-17.9-1.3-26.4-4.7c-0.2-0.1-0.4-0.2-0.7-0.3c-1.1-0.5-1.3-0.8-0.9-1.9c1.1-3.1,2-6.3,2.7-9.6c1.2-5.9,2.3-11.8,2.5-17.9
			c0-0.5,0.1-1,0.2-1.4c0.2-1.9-0.1-3.7-1.5-5.2c-4-4.4-5.5-9.6-4.8-15.4c0.3-2.6,0.6-5.2,1.8-7.7c0.1-0.3,0.2-0.5,0.2-0.8
			c0-0.1,0-0.2-0.3-0.4c-0.9,1.1-1.7,2.3-2.1,3.6c-1.1,3.4-1.4,6.9-1.1,10.4c0.1,0.5,0.1,1,0.1,1.5c0,0.4-0.1,0.9-0.3,1.3
			c-2.4,4.9-4.3,10-7.5,14.6c-1.3,1.8-2.9,3.3-5.1,4c-2,0.7-2.9,0.4-4.3-1.2c-5.3-6.4-10-13.3-14.9-19.9c-1.5-2-3.3-3.8-4.3-6.1
			c-0.4-0.9-0.3-1.4,0.7-1.7c2.1-0.8,4.2-1.8,6-3.2c0.7-0.6,1.2-1.2,1.8-1.9c0.4-0.4,0.6-1,0.2-1.4c-0.6-0.5-0.9,0.1-1.3,0.5
			c-1.3,1.5-2.4,3.1-4.2,4.1c-0.5,0.3-0.9,0.6-1.5,0.7c-1.3-0.7-1.9-2.1-2.4-3.4c-0.3-0.7,0.5-1.1,0.8-1.6c1.6-1.6,3.1-3.3,4.2-5.2
			c0.6-1,1.1-2,0.1-3.1c-0.2-0.2-0.2-0.5,0-0.7c0.4-0.3,0.9-0.5,1.4-0.2c0.5,0.3,0.7,0.7,1,1.2c0.8,1.3,1.5,2.7,2.3,3.9
			c0.5,0.8,1.1,1.3,2.1,1.4c1.5,0.2,2.3,1.3,3.1,2.5c1.2,1.9,2.1,4,3.4,5.9c1.8,2.7,3.8,5.3,5.9,7.7c1.9,2.2,2.7,4.8,2.2,7.8
			c-0.2,1.3-0.5,2.6-0.3,3.9c0.8-1.7,0.9-3.5,1.4-5.3c0.5-1.8,0.2-3.6-0.3-5.4c0-1.3-0.3-2.5-0.8-3.6c-0.6-1.3-0.8-2.7-0.5-4.2
			c0.5-3.5,0.6-7,0.6-10.5c0-0.7,0.2-1.4,0.4-2.1c0.3-1,0.3-1.8-0.6-2.5c0.4-1.1,0.7-2.3,1.1-3.4c1,0.4,1.5-0.2,1.9-1
			c1.2-2.6,2.7-5,4.8-7c2.2-2.1,4.8-2.9,7.8-2.5c0.4,0,0.7,0.1,1.1,0.1c2-0.1,3.4,0.9,4.2,2.8c0.2,0.9,0.1,1.7,0.1,2.6
			c0,0.6,0.1,1.3,0.3,1.9c0.2,0.6,0.4,1.3,1.2,1.2c0.8-0.1,0.8-0.9,0.9-1.5c0-0.3,0-0.6,0.1-0.9c0.1-0.4,0.2-0.8,0.6-0.9
			c1.5,0.4,2.8,1.3,4.1,2.1c0.5,0.3,0.7,1,0.9,1.5c1.7,4.4,6.2,7.4,10.6,6.7c6-0.9,10.5-4,12.6-10c0.6-1.9,1.1-3.8,1.3-5.7
			c0.2-1.3,1-1.6,2.1-0.9c0.5,0.4,1,0.9,1.3,1.4C295.4,91.4,295.4,91.4,296.1,90.4z"/>
		<path d="M370,120.5c-0.1-1.9-1.4-3.1-3.2-3.7c-1.4-0.4-2.8-0.6-4.2-0.7c-1.6-0.1-2.7-1-3.5-2.5c2.4-0.3,4.4-1.5,6.2-2.8
			c1.6-1.1,1.9-2,1.2-3.8c-0.7-1.6-1.9-2.5-3.6-2.4c-3.7,0.1-7.2-0.6-10.8-1.3c-1.6-0.3-3.3-0.4-4.9-0.2c-2.8,0.2-5,1.9-7,3.6
			c-0.5,0.4-0.9,0.7-1.6,0.4c-1-0.4-2.1-0.3-2.9,0.5c-1.4,1.4-2.8,2.7-4.2,4.1c-0.3,0.3-0.6,0.6-0.9,0.6c-2.1-0.2-3.5,0.9-4.7,2.4
			c-0.9,1-1.6,2.2-2.4,3.3c-1.1,1.4-2.2,2.7-3.5,4.2c-0.1-0.5-0.2-0.8-0.2-1c-0.7-4.4-1.3-8.9-2-13.3c-0.7-4.6-1.8-9-4.4-12.9
			c-1.9-2.8-4.2-5.2-7.8-5.6c-2-0.2-4-0.1-6-0.1c-0.3,0-0.7,0.5-1,0.7c0,0.8,0.5,1,1.2,1c1.2,0,2.3,0.1,3.5,0.1
			c3.1,0.1,5.6,1.4,7.4,4c2.6,3.6,3.9,7.7,4.5,12.1c0.2,0.7-0.1,1.5,0.1,2.2c0.7,4.1,1.3,8.2,1.8,12.3c0.2,1.6,0.4,3-1.1,4
			c-0.2,0.1-0.3,0.4-0.4,0.6c-0.5,0.5-0.9,1-1.4,1.5c-1.3,1.3-2.3,2.8-2.3,4.7c0,2.5,0.2,4.9,0.4,7.4c0,0.3,0.4,0.5,0.6,0.7
			c0.2-0.3,0.5-0.5,0.5-0.8c0-1.1,0-2.2-0.1-3.4c-0.2-3.1,0.8-5.7,3.1-7.8c2.2-2.1,4.4-4.3,6.4-6.6c1.6-1.8,2.8-3.8,4.3-5.6
			c0.8-1,1.7-2.1,3.2-2c1.2,0.1,1.9-0.5,2.6-1.4c1-1.3,1.9-2.5,2.9-3.8c0.6-0.8,1.2-1.2,2-0.1c-1.4,0.5-1.4,1.5-0.9,2.6
			c1.3,2.9,2.7,5.7,5.5,7.5c0.2,0.4,0.5,0.7,0.7,1.1c0.8,1.3,0.8,1.2-0.2,2.3c-0.7,0.8-1.3,1.6-0.6,2.8c0.3,0.5,0,0.9-0.2,1.4
			c-0.5,1-1.1,2-1.9,2.9c-4.1,5-8.2,10-13.1,14.3c-2.9,2.6-5.7,5.1-8.7,7.5c-2.5,2-5.4,2-8,0.2c-2.7-1.8-4.4-4.3-5.2-7.5
			c-1.4-5.5-2.3-11.2-4-16.6c-0.1-0.3-0.2-0.6-0.3-0.9c-0.4-2.3-0.9-4.5-1.3-6.8c-0.1-0.7-0.5-1.4-1.3-1c-0.4,0.2-0.7,0.9-0.7,1.4
			c0.1,1.2,0.3,2.4,0.6,3.5c0.7,3.7,1.5,7.3,2.2,11c0,0.5,0,1,0.1,1.4c0.7,2.9,1.3,5.8,2,8.7c0.4,1.7,1.2,3.3,1.2,5.1
			c0,1.7,0,3.4,0.3,5c0.3,2,0.4,4,1.2,5.8c1.2,2.7,2.2,5.5,3.6,8.1c0.7,1.4,0.6,1.7-0.9,2.3c-2.4,1.1-4.9,1.8-7.5,2.6
			c-2.2,0.7-4.5,0.9-6.7,1.8c-9.3,1.8-18.6,1.9-28,0.4c-5-0.8-9.9-2-14.6-3.9c-0.7-0.3-0.9-0.5-0.5-1.3c0.5-1,0.8-2.2,1.1-3.3
			c2.5-8.7,4-17.7,4.4-26.7c0.1-1.7-0.3-3.1-1.6-4.5c-2-2.2-3.6-4.7-4.3-7.6c-1.1-4.9-0.7-9.7,1.1-14.5c0.2-0.6,0.4-1.3,0.5-2
			c0-0.2-0.2-0.5-0.3-0.8c-0.3,0.1-0.7,0.2-0.8,0.4c-0.9,1.8-1.9,3.6-2.5,5.5c-1.1,3.4-0.9,7-0.5,10.6c0.2,0.7,0,1.4,0.3,2
			c0.5,1,0.3,1.9-0.1,2.9c-1.1,3.1-2.3,6.2-3.4,9.3c-1.2,3.3-3.3,5.7-6.3,7.4c-2.3,1.3-5.2,1-7.2-0.6c-2.8-2.3-5-5.1-7.4-7.8
			c-4.5-4.9-8.2-10.4-11.7-16c-0.8-1.3-1.6-2.7-2.1-4.2c-0.1-0.5-0.4-1-0.1-1.4c1-1.3,0.3-2.3-0.6-3.2c-0.5-0.5-0.5-0.9-0.1-1.5
			c0.8-1.1,2-1.4,2.9-2.3c1.5-1.9,3.1-3.8,4.6-5.8c0.5-0.7,1-1.7,0-2.6c-0.2-0.1-0.2-0.4-0.3-0.6c0.4-0.1,0.9-0.2,1.3-0.1
			c0.3,0.1,0.5,0.5,0.6,0.8c0.8,1.3,1.5,2.7,2.4,4c0.4,0.6,1.1,1.5,1.7,1.5c2,0.2,3.1,1.5,3.9,3c2.4,4.7,5.4,9,8.8,12.9
			c2.2,2.5,2.8,5.3,2.2,8.5c-0.2,0.9-0.4,1.9-0.4,2.8c0,0.4,0.2,0.8,0.4,1.1c0.3-0.3,0.7-0.6,0.8-1c0.4-1.5,0.5-3,0.9-4.5
			c0.5-2,0.6-3.9-0.2-5.7c-0.4-1.7-1.6-2.8-2.7-4c-0.9-1-1.2-1.9-0.9-3.3c1-3.8,2.3-7.5,2.9-11.4c0.2-0.8,0.3-1.6,0.6-2.4
			c0.4-1.1,0-1.7-1.1-1.9c-0.4,0.5-1,1-1.2,1.6c-1.2,3.9-2.2,7.9-3.3,11.9c-0.1,0.4-0.2,0.9-0.4,1.6c-0.6-0.8-1-1.4-1.4-2
			c-1.2-2.1-2.4-4.2-3.7-6.2c-1-1.6-2.3-2.9-4.4-2.9c-0.3,0-0.6-0.4-0.8-0.7c-1.3-1.5-2.4-3.2-3.8-4.6c-0.6-0.6-1.7-0.9-2.6-0.8
			c-0.9,0.1-1.3-0.1-1.8-0.7c-3.2-3.9-7.4-5.2-12.4-4.7c-3.2,0.3-6.4,0-9.7,0c-0.7,0-1.4,0-2,0.2c-1.5,0.5-2.2,1.7-2.6,3.2
			c-0.3,1.3,0.5,1.9,1.3,2.6c1.8,1.3,3.7,2.6,5.5,3.9c-0.8,1.2-2.1,1.7-3.8,1.6c-1.3-0.1-2.6,0-3.8,0.2c-1.9,0.3-3.2,1.4-3.7,3.3
			c-0.4,1.7,0.4,3.8,2.1,4.7c2.2,1.2,4.5,2.4,6.9,3.3c5,2,9.7,1.3,14-1.9c0.2-0.2,0.8-0.4,0.9-0.3c0.3,0.3,0.7,0.8,0.6,1.2
			c-0.5,2.5,0.6,4.6,1.8,6.7c5.1,8.9,11.4,17,18.6,24.3c4,4.1,8.6,4.7,13.2,1.7c0.9-0.6,1.8-1.4,2.6-2.1c2.1-1.9,2.8-4.6,3.8-7.1
			c1-2.5,1.8-5.1,2.7-7.5c1.2,1.5,2.4,2.9,3.5,4.3c0.1,0.2,0.2,0.4,0.2,0.6c-0.2,3.7-0.1,7.4-0.6,11.1c-0.9,6.8-2.3,13.6-4.7,20.1
			c-0.6,1.7-0.5,2.1,1,3c0.6,0.4,0.7,0.7,0.6,1.4c-1,5.6-2,11.2-3,16.8c-0.4,2.2-0.3,4.6-1.6,6.6h67c0-8.5,0-17-2.1-25.3
			c-0.1-0.4,0-1,0.2-1.2c1.5-1,1.4-2.2,0.8-3.6c-1.1-2.6-2.4-5-3.3-7.7c-1-2.9-1.5-5.9-2.3-8.8c0.1,0,0.2-0.1,0.4-0.1
			c0.3,0.2,0.5,0.5,0.8,0.7c1.3,0.9,2.6,2,4,2.6c3.8,1.7,7.1,0.2,10.1-2.1c8-6.4,15.1-13.7,21.3-21.8c1.4-1.9,2.7-3.9,2.6-6.4
			c0-0.4,0.4-0.8,0.8-1.1c0.1-0.1,0.7,0.3,0.9,0.5c2.3,2.1,4.9,3.7,8,3.9c4.5,0.4,8.8-1,12.8-2.9C369.3,124.1,370.2,122.5,370,120.5
			z"/>
		<path d="M296.1,90.4c0,0.2,0,0.3,0,0.5c-0.1,0.3-0.3,0.7-0.4,1c-0.3-0.2-0.6-0.4-0.9-0.7c-0.6-0.6-1.1-1.4-1.7-1.9
			c-0.3-0.3-0.9-0.3-1.3-0.3c-0.1,0-0.2,0.6-0.3,1c-1,9.1-5,13.5-12.3,15.6c-5.9,1.7-11.1-2.3-12.6-6.2c-0.5-1.4-1.3-2.3-2.6-2.8
			c-0.8-0.3-1.5-0.8-2.2-1.2c-1.5-0.5-2.6-1.5-3.5-2.7c-1.3-2.5-3.8-2.4-6.1-2.5c-2.8-0.1-5.1,1-7,3c-1.9,2.1-3.3,4.5-4.5,7
			c-0.6,1.2-1.1,1.2-1.9,0.4c0-0.5-0.2-1.2,0-1.6c1.5-3.7,3.7-6.8,6.9-9.1c2.3-1.7,5.1-1.8,7.8-1.6c0.3,0,0.5,0.1,1,0.1
			c-0.5-0.7-0.9-1.3-1.3-1.9c-3.2-5-5.2-10.4-6.4-16.2c-0.1-0.3-0.2-0.7-0.3-1c-0.3,0.2-0.6,0.5-0.9,0.7c-0.1,0.1-0.2,0.2-0.3,0.4
			c-0.8,1.1-1.2,1-1.8-0.2c-2.9-5.7-2.5-11.5,0-17c-1.6-0.6-3.1-1.1-4.7-1.7c-0.2-0.1-0.5,0-0.7,0.2c-0.2,0.1-0.3,0.3-0.4,0.4
			c-1.7,1.9-2.7,1.8-3.9-0.5c-1.7-3.2-2.5-6.7-2.9-10.2c-0.8-6.2-0.5-12.3,2-18.1c3.9-9.1,10.2-15.7,19.9-18.6
			c4.8-1.4,9.6-1,14.2,0.8c0.5,0.2,1.1,0.3,1.6,0.2c6.3-0.9,12.3,0,18.2,2.4c0.8,0.3,1.4,0.5,2-0.4c0.2-0.3,0.5-0.5,0.8-0.7
			c1.2-1.3,2.6-1.5,4.1-0.8c1,0.5,1.6,0.1,2.5-0.2c2.6-0.9,5.3-1.9,8-2.1c8.9-0.8,16.8,1.7,22.8,8.6c5.8,6.6,8.7,14.3,8.5,23.2
			c0,0.8-0.2,1.9-0.8,2.3c-0.9,0.7-1.7-0.3-2.4-0.8c-0.9-0.7-1.8-1.5-2.8-2.1c0.3,1.1,0.6,2.2,0.9,3.3c0.9,4-0.1,6.4-3.6,8.3
			c-0.7,0.4-1.7,0.8-2.5,0.8c-1.1-0.1-1.7,0.4-2.5,1c-1.6,1.2-3.3,2.5-5.5,2c-0.2,0-0.5,0.4-0.7,0.7c-0.9,1.2-1.7,2.4-2.6,3.5
			c-0.4,0.4-1.4,0.7-1.7,0.5c-0.5-0.3-0.8-1.2-0.7-1.8c0.5-5.2-0.4-10-2.8-14.6c-0.3-0.5-0.6-1-0.9-1.6c-0.2-0.4-0.5-0.7-0.9-1.2
			c-0.2,1.7-0.4,3.2-0.6,4.7c-0.7,4.4-2.4,8.5-4.8,12.3c-0.2,0.4-0.4,1.1-0.2,1.5c3.1,6-0.7,13.2-5,15.5c-1.2,0.6-1.7,1.4-1.8,2.7
			c-0.2,3-1.5,5.7-3,8.3c-1.1,1.8-0.5,3.7-0.5,5.6c0,0.1,0.6,0.3,0.9,0.3c1.8-0.4,3.3-0.1,4.4,1.4C295.6,88.8,295.8,89.7,296.1,90.4
			z"/>
		<path class="st105" d="M247.9,128c0.9,2.1,1.1,4.1,0.1,6.3c-1.2,2.8-2.1,5.7-3.2,8.5c-1.1,3-3.2,5.3-6,6.9c-3,1.7-6,1.4-8.4-1.1
			c-5.4-5.4-10.4-11-14.6-17.4c-1.7-2.6-3.4-5.3-5.1-8c-0.5-0.8-0.8-1.7-1.1-2.6c-0.2-0.5-0.4-1.1,0.3-1.5c0.6-0.4,0.2-1.8-0.7-2.4
			c-1.1-0.7-0.8-1.1-0.2-2c0.8-1.1,1.9-1.6,3.1-2.1c-1.2,1-0.8,1.9,0,2.8c0.5,0.6,1,1.2,1.4,1.8c0,0.6-0.5,0.6-0.9,0.8
			c-0.7,0.3-0.4,0.6-0.1,0.9c-1,0.2-1,0.8-0.5,1.4c1.6,2.2,3.2,4.4,4.7,6.6c3,4.1,5.9,8.2,8.9,12.3c1.9,2.5,3.9,4.9,5.8,7.3
			c0.9,1.1,1.9,1.3,3.2,0.9c2.2-0.6,4-1.9,5.2-3.8c1.5-2.3,2.8-4.7,4.1-7.2c1.3-2.4,2.4-5,3.5-7.5
			C247.7,128.8,247.8,128.4,247.9,128z"/>
		<path class="st105" d="M300.6,134.8c0.7,3,1.3,6,2.2,8.9c1,3.4,1.5,6.9,1.6,10.5c0.2,4.9,2.4,9.2,4.3,13.5c1.7,3.8,2,3-1.5,4.2
			c-4.3,1.6-8.9,2.6-13.3,3.8c1-1,2-2,3.1-3c3.6-3.1,4.9-7.2,4.8-11.8c0-1.6-0.6-3.2-0.9-4.8c-1-5-1.2-9.9,0.2-14.9
			c0-0.1,0-0.1-0.1-0.4c-0.7,0.4-1.4,0.8-2.2,1.1c-0.4,0.2-0.9,0.2-1.3,0.2c0-0.5-0.2-1.1,0-1.5c0.4-1,1-1.9,1.5-2.9
			C299.4,136.9,300,135.8,300.6,134.8z"/>
		<path class="st105" d="M342.5,119.2c0.6,0.8,1.3,1.5,1.9,2.4c0.1,0.1-0.3,0.5-0.5,0.8c-0.4,0.5-1,0.9-1.4,1.4
			c-0.2,0.3-0.2,1,0,1.1c0.8,0.6,0.4,1.3,0.1,1.8c-1.1,1.8-2.3,3.6-3.6,5.2c-5.9,7.4-12.7,13.9-20.1,19.8c-3,2.3-5.9,2.3-9,0
			c-2.5-1.8-4.1-4.2-4.8-7.2c-1.3-5.4-2.5-10.9-3.7-16.3c0-0.2,0-0.3,0-0.5c1.3,3.1,2.7,6.2,3.8,9.4c1,2.6,1.6,5.3,2.5,8
			c1.2,3.8,6.8,7.8,10.9,4.1c1.6-1.5,3.5-2.8,5.2-4.2c5.2-4.3,9.7-9.3,13.6-14.8c1.2-1.7,1.9-3.6,2.8-5.5c0.3-0.4,0-0.8,0-1.2
			c0.1,0,0.2-0.1,0.2-0.1C340.2,121.4,341.5,120.3,342.5,119.2z"/>
		<path class="st105" d="M274.9,110.1c2-0.2,4-0.3,6-0.5c0.8-0.1,1.6-0.1,1.9,0.8c0.3,0.9-0.2,1.6-1,1.9c-1.3,0.5-2.6,1-3.9,1.1
			c-4.2,0.4-8.3-0.2-11.8-2.8c-1.8-1.4-3.3-3.3-4.7-5.2c-0.9-1.2-0.3-2.4,0.8-3.2c0.5,0,0.5,0.4,0.7,0.7c2.1,4,5.6,6.3,9.7,7.7
			C273.4,110.9,274.3,110.8,274.9,110.1z"/>
		<path class="st105" d="M295,97.1c0.3-0.8,0.4-2,1.6-1.8c1.2,0.2,0.8,1.4,0.8,2.2c0,0.8-0.2,1.6-0.5,2.3c-1.2,2.3-2.5,4.6-3.9,6.8
			c-0.4,0.6-1,1.1-1.6,1.4c-1.3,0.8-2.3,0.2-2.6-1.2c0-0.2-0.3-0.4-0.4-0.6c-0.1-0.2,0-0.4,0.2-0.5c2.5-1.9,4.3-4.3,5.3-7.2
			c0-0.1,0.1-0.2,0.2-0.3C294.4,97.8,294.6,97.3,295,97.1z"/>
		<path class="st105" d="M315.2,107.1c0.6,4,1.3,8,1.9,12c0.2,1.3,0.3,2.7,0.6,4c0.2,1,0,1.7-0.8,2.2c-0.4,0.3-0.8,0.6-1.2,0.9
			c-0.2-0.9-0.6-1.7-0.6-2.6c-0.2-3.9-0.3-7.7-0.3-11.6C314.7,110.4,315,108.8,315.2,107.1z"/>
		<path class="st105" d="M238.7,127.1c-1.2-1.5-2.3-3.1-3.5-4.5c-0.6-0.7-0.8-1.3-0.5-2.2c1.2-4,2.2-8,3.3-12.1
			c-0.2,3.8-0.5,7.7-0.6,11.5c0,1.1,0.4,2.2,0.6,3.3C238.2,124.5,238.5,125.8,238.7,127.1z"/>
		<path class="st106" d="M274.9,110.1c-0.3,0.3-0.5,0.8-0.9,0.9c-0.4,0.1-1,0.1-1.4-0.1c-4-1.3-7.3-3.6-9.6-7.2
			c-0.3-0.5-0.5-1.1-0.8-1.6c-0.1-0.8-0.8-2,0.5-2.3c1.2-0.3,1.3,0.9,1.5,1.7c0.8,3.1,3,5,5.7,6.5
			C271.4,108.9,273.2,109.4,274.9,110.1z"/>
		<path class="st106" d="M294.3,98.3c-0.9,2.5-2.2,4.7-4.2,6.5c-0.6,0.5-1.2,0.9-1.8,1.4c-0.5-0.1-0.9-0.2-1.4-0.4
			c0.1-0.4,0.1-1.1,0.4-1.3c2.7-2.1,4.2-5,6-7.8c0.2-0.3,0.8-0.4,1.2-0.6C294.9,96.9,294.6,97.6,294.3,98.3z"/>
		<path class="st107" d="M212.6,119c-0.3-0.1-0.6-0.3-1-0.4c0.3-0.2,0.5-0.5,0.8-0.7c0.3-0.2,0.7-0.4,1.1-0.6c2.2-1,3.9-2.7,5.3-4.7
			c0.5-0.7,1-1.4,1.8-0.8c0.8,0.6,0.4,1.4-0.1,2c-1.7,2-3.9,3.5-6.3,4.5C213.7,118.5,213.2,118.7,212.6,119z"/>
		<path class="st108" d="M340.1,123.3c0.2,0.4,1.4,0.8,0,1.2c-2.9-1.3-5.5-3.1-7.3-5.8c-0.1-0.2-0.3-0.4-0.4-0.6
			c-0.3-0.7-0.5-1.5,0.3-1.9c0.8-0.4,1.2,0.3,1.6,0.9C335.6,119.8,337.4,121.9,340.1,123.3z"/>
		<path class="st105" d="M258.2,92.7c1.2,0.9,2.4,1.8,3.5,2.7c-0.1,0.4-0.4,0.8-0.4,1.2c-0.1,1,0.1,2.2-1.3,2.4
			c-1.3,0.1-1.5-1.1-1.7-2C258.2,95.6,258.2,94.2,258.2,92.7z"/>
		<path class="st109" d="M294.3,98.3c0.1-0.7,0.2-1.4,0.2-2.1c0.2,0.3,0.3,0.6,0.5,0.9C294.8,97.5,294.5,97.9,294.3,98.3z"/>
		<path class="st9" d="M306.9,198.3c0-0.5,0-1,0-1.4c0-1.4,0.1-2.9-0.7-4.2c-0.7-0.9-0.6-2.1-0.9-3.2c-0.2-0.8,0-1.4,0.6-1.9
			c0.7-1.2,0.6-3.7-0.3-4.8c-0.8-0.2-1.2-0.7-1.3-1.5c0-0.4-0.2-0.8-0.3-1.3c-0.2-0.5-0.5-1-1.1-0.7c-1.8,0.7-3.8,1.1-5.5,1.9
			c-0.4,0.5-0.4,1.1-0.3,1.6c0.6,2.9,1.7,5.5,4.2,7.2c0.3,0.2,0.7,0.3,0.7,0.8c-0.5,0.2-0.9,0-1.3-0.2c-1-0.5-1.8-1.3-2.5-2.2
			c-1.3-1.7-1.9-3.7-2.6-5.6c-0.2-0.4-0.2-1-0.9-1c-3.7,0.7-7.4,1.5-11.1,2.1c-2.1,0.1-4.3,0.2-6.4,0.2c-0.1,0-0.1-0.1-0.2-0.1
			c-4.9-0.1-9.7-0.5-14.6-1.4c-0.3-0.1-0.6,0-0.8,0.3c-0.3,0.2-0.6,0.4-0.8,0.7c-0.2-0.4-0.4-0.8-0.6-1.1c-1.2-0.8-2.1-0.9-2.8-0.2
			c-0.1,0.2-0.1,0.5-0.2,0.7c-1,3.7-3.2,5.9-7.1,6.1c-0.2,0-0.6,0.4-0.7,0.7c-0.5,2.3-0.9,4.6-1.4,6.9c-0.1,0.6-0.4,1.1-0.6,1.6
			H306.9z"/>
		<path class="st11" d="M340.6,108.9c3.4-3.4,7.4-4,12.1-3.1c3,0.6,6.3,0.3,9.4,0.4c0.5,0,1.2,0.1,1.6,0.3c1.3,0.8,1.4,2.2,0.1,3
			c-1.2,0.8-2.6,1.1-3.9,1.8c-1.6,0.9-2.8,0.6-3.6-1.1c0-0.1-0.1-0.1-0.2-0.2c-0.5-0.2-1-0.4-1.5-0.7c0,0.5,0,1,0.1,1.6
			c0,0.2,0.1,0.4,0.2,0.6c0.1,0.5-0.3,0.5-0.6,0.5c-0.9,0-1.8,0.4-2.6,0.7c-0.7,0-1.1-0.6-1.7-0.9c-1.3-0.8-2.7-1.2-4.1-0.7
			c-0.1,0.3,0.1,0.3,0.2,0.3c3.7,0.4,5.5,2.8,6.7,6c0.2,0.6,0.4,1.2,0.6,1.8c0.2,0.6,0.7,0.9,1.2,1.1c0.4,0.3,0.7,0.6,0.9,1.1
			c0.2,0.7,0.7,0.9,1.4,0.9c0.7,0,1.3-0.1,2-0.4c1.4-0.6,2.9-1.1,4.4-0.6c0.2-0.5-0.2-0.5-0.3-0.8c-0.2-1.3,1-1.1,1.6-1.5
			c0.3-0.2,0.7-0.1,1,0c0.6,0.3,1.3,0.4,1.8,0.8c1.5,1.2,1.4,2.9-0.3,3.7c-4.1,1.7-8.4,2.8-12.9,2.1c-2.7-0.4-4.9-2-6.8-4
			c-1.4-1.4-2.7-2.9-4.1-4.3c-1.8-2.2-2.9-4.8-3.1-7.7C340.4,109.3,340.4,109.1,340.6,108.9z"/>
		<path class="st11" d="M209.5,111.5c-1.2,1-2.4,2-3.5,3c-3.9,3.5-8.3,4.8-13.4,3c-2.3-0.8-4.6-1.6-6.8-2.7
			c-0.7-0.3-1.4-1.3-1.5-2.1c-0.2-1,0.7-1.7,1.6-2.1c1.1,0.4,2.2,0.8,2.9,1.8c0.1,0.4,0.5,0.4,0.8,0.3c1.3-0.2,2.4,0.3,3.5,0.9
			c1,0.6,2.2,1,3.4,0.9c0.7,0,0.6-0.5,0.6-1c0-0.1,0-0.2,0.1-0.3c0.3-0.3,0.7-0.4,1.1-0.5c0.7-0.1,1.2-0.6,1.5-1.2
			c0.5-1.1,1.1-2.2,1.8-3.2c1.4-1.9,3.1-3.2,5.6-3.1c0.2,0,0.5,0,0.7-0.1c0.1,0,0.1-0.1,0.2-0.2c-1.2-0.8-2.6-0.4-3.9-0.3
			c-1.3-0.2-2.6-0.5-4-0.5c-0.4,0-0.8,0-0.8-0.6c0.1-0.2,0.3-0.4,0.3-0.7c0-0.3,0-0.8-0.1-0.9c-0.3-0.1-0.7-0.1-1,0.1
			c-0.7,0.5-1.3,1.2-1.9,1.8c-0.3,0.3-0.5,0.5-1.1,0.1c-1.1-0.7-2.3-1.1-3.4-1.7c-0.6-0.3-1.3-0.7-1.7-1.3c-0.3-0.5-0.6-1.4-0.4-1.9
			c0.3-0.9,1.1-1.5,2.2-1.3c1.5,0.2,3.1,0.6,4.6,0.7c2.3,0.1,4.5,0.2,6.8,0.1c4.3-0.2,7.5,1.6,10.2,4.8c0.3,0.9-0.3,1.7-0.6,2.4
			C212.3,108.1,211.2,110,209.5,111.5z"/>
		<path class="st110" d="M295.2,181.8c0.6-1.4,0.7-1.4,1.9-0.6c0.1,0.1,0.2,0.1,0.3,0c1.8-0.5,3.6-1,5.3-1.6
			c0.6-0.2,0.9-0.1,1.1,0.4c0.4-0.4,0.2-0.8,0.2-1.2c0-0.3-0.1-0.7,0.3-0.8c0.4-0.1,0.6,0.3,0.7,0.5c0.5,1.4,1,2.8,0.3,4.3
			c0.2,0.1,0.5,0.3,0.5,0.4c0.1,1,0.2,2.1,0.3,3.2c0,0.3-0.3,0.7-0.5,1c1,0.8,0.9,2.1,1.2,3.2c0.3,1,0,1.7-1,2
			c0.2,1.4,0.5,2.7,0.7,4.1c0.8,0.2,1.1,0.7,1.1,1.4h2.8c0-4.5,0-8.9-0.2-13.4c-0.1-3.7-0.9-7.4-1.3-11.1c-0.1-0.6-0.2-0.9-0.9-0.6
			c-4.4,2.2-9.1,3.2-13.8,4.3c-1.6,0.3-1.6,0.3-1.5,2c0,0.4,0.1,0.8,0,1.2c-0.2,0.4-0.6,0.7-0.9,1.1c-0.2-0.4-0.6-0.7-0.7-1.1
			c-0.2-0.8,0.1-2.1-0.3-2.4c-0.6-0.4-1.7,0.1-2.5,0.1c-0.1,0-0.2,0-0.4,0.1c-0.7,0.1-1,0.3-0.9,1.1c0.1,0.7,0,1.5,0,2.3
			c0,0.8-0.2,1.3-1.2,1.4c-0.7,0.1-1.4,0.4-2.1,0.7c3.8-0.6,7.5-1.3,11.3-1.9C295.1,181.9,295.2,181.9,295.2,181.8z"/>
		<path class="st110" d="M277.3,184.1c-3.2-0.1-6.4-0.2-9.6-0.4c-2-0.1-4-0.5-6-0.7c0-0.6,0.3-0.8,0.9-0.7c1.3,0.2,2.5,0.3,3.8,0.4
			c0.4,0,0.8-0.4,1.3-0.6c-0.4-0.2-0.7-0.6-1.1-0.7c-1.3-0.3-2.6-0.5-3.9-0.6c-0.5-0.1-0.7-0.1-0.6-0.7c0.1-0.8,0.1-1.7,0.2-2.5
			c0.8,0.1,1.6,0.2,2.4,0.3c1.2,0.2,2.4,0.4,3.5,0.5c0.6,0.1,0.9,0.3,0.9,1c0,0.7-0.1,1.4,0,2c0.1,0.4,0.4,0.7,0.7,1
			c0.3-0.3,0.7-0.5,0.8-0.9c0.2-0.7,0.1-1.4,0.2-2.1c0-0.2,0.4-0.6,0.7-0.6c4.3,0,8.6,0,12.9,0c0.6,0,1.3-0.1,1.2,0.8
			c-0.1,0.8,0.5,2-0.9,2.3c-3.7,0.8-7.5,0.4-11.2,0.1c-0.4,0-0.8-0.2-1.2-0.1c-0.4,0.1-0.7,0.4-1.1,0.5c0.3,0.3,0.6,0.9,0.9,0.9
			c1,0.2,2,0.3,3.1,0.4C275.9,184,276.6,184.1,277.3,184.1z"/>
		<path class="st15" d="M188.6,112.7c-0.5-0.3-1-0.7-1.4-1c-0.4-0.3-0.8-0.6-1.2-0.9c0.8-0.2,1.6-0.4,2.4-0.4c1-0.1,1.9,0,2.9,0
			c1.7,0,3.2-0.7,4.3-2c1.3-1.5,2.5-3.1,3.8-4.6c0.2,0.1,0.3,0.3,0.5,0.3c1.5,0.2,3.1,0.3,4.6,0.5c0,0.6-0.5,0.6-0.8,0.7
			c-2.7,1.4-4.1,3.9-5.2,6.6c-0.2,0.4,0.1,0.9-0.1,1.3c-0.4,0.2-0.7,0.4-1.1,0.6c-1.1,0-2.2-0.2-3.2-0.5
			C192.3,112.5,190.5,112.2,188.6,112.7z"/>
		<path class="st15" d="M351.6,112.4c1.1-0.3,2.2-0.7,3.4-1c0.9,1.5,1.9,2.9,2.8,4.4c1.1,1.7,2.7,2.5,4.7,2.6
			c1.1,0.1,2.2,0.3,3.3,0.4c-1,0.1-1.9,0.5-2.4,1.5c-1.6,0.3-3.2,0.3-4.8,0.5c-1,0.2-2.1,0.2-3.1,0.5c-0.2-0.3-0.5-0.7-0.7-1
			c-0.2-2.7-1.1-5.1-2.9-7.1C351.7,113,351.5,112.8,351.6,112.4z"/>
		<path class="st111" d="M256,181.8c-0.9,2.5-2.2,4.5-5,5.1c-0.8,0.2-1.1,0.1-0.9-0.8c0.3-1.7,0.6-3.4,0.9-5.1
			c0.1-0.6,0.3-0.8,1-0.5c0.6,0.3,1.4,0.3,2.1,0.4C254.8,180.9,255.7,180.8,256,181.8z"/>
		<path class="st110" d="M256,181.8c-0.7-0.3-1.3-0.5-2-0.8c-0.1-0.4-0.1-0.9-0.4-1.1c-0.3-0.3-0.8-0.5-1.3-0.6
			c-0.6-0.2-0.8-0.7-0.7-1.3c0.3-1,0.5-2,0.7-3c0.9,0.3,1.9,0.6,2.8,0.8c1,0.2,1.3,0.7,1.2,1.6C256.3,178.8,256.2,180.3,256,181.8z"
			/>
		<path class="st15" d="M209.5,111.5c0.4-0.6,0.9-1.2,1.3-1.9c1-2,2-4,3-6c1.9,1.8,1.9,2.1,0.6,4.2c-0.3,0.6-0.7,1.1-1.2,1.7
			C212.3,110.7,211.3,111.9,209.5,111.5z"/>
		<path class="st15" d="M340.6,108.9c0,3.1,1.6,5.7,2.9,8.3c-2.4,0.2-2.8-1.8-3.8-3.2c-0.3-0.5-0.5-1-0.7-1.5
			c-0.6-1.8-0.6-1.9,0.9-3.1C340.1,109.2,340.4,109,340.6,108.9z"/>
		<path class="st112" d="M260.3,182.5c-0.9-0.1-1.9-0.2-2.8-0.2c0.1-1.6,0.3-3.2,0.4-4.9c0-0.7,0.1-0.9,0.9-0.7
			c2.2,0.5,2.3,0.6,1.9,2.8C260.5,180.5,260.4,181.5,260.3,182.5z"/>
		<path class="st11" d="M285,45.3c0.5,0.2,0.9,0.3,1.5,0.5c-0.2,0.7-0.5,1.4-0.8,2.2c-1.6,4.3-2.3,8.6-1,13.1c0.3,1,0.8,1.9,1.4,2.8
			c0.5,0.7,1.3,1,2,0.5c0.4-0.2,0.6-0.9,0.7-1.4c0.2-2.3,0.5-4.5,1.8-6.4c0.6-0.8,1.4-1.7,2.3-2.2c2.5-1.3,4.7-0.2,5.5,2.5
			c1.3,4.4-1.8,10.1-6.3,11.5c-1.1,0.3-1.6,0.8-1.4,2c0.1,0.7-0.1,1.4-0.2,2.1c-0.7,2.6-2.1,4.8-3.5,7c-2.9,4.5-6.1,8.7-10.4,11.9
			c-1.7,1.3-3.6,2.3-5.7,3c-1.5,0.5-3.1,0.4-4.6,0.1c-2.3-0.5-4.3-1.5-6.2-3c-4.2-4-7.1-8.8-8.9-14.2c-2.2-6.8-3.1-13.9-3.8-21
			c-0.3-2.8-0.4-5.6-0.5-8.3c-0.2-0.5-0.1-1.1-0.1-1.6c0.1-0.7-0.4-1.7,0.4-2c1.1-0.4,2.3-1.1,3.6-0.5c0.2,0.8-0.4,1.4-0.5,2.2
			c-0.1,0.4-0.3,0.9,0.2,1.1c0.5,0.2,0.7-0.3,0.8-0.7c0.9-1.8,2.3-2.5,4.3-2.4c1.3,0.1,1.6-0.5,1.1-1.7c-0.1-0.1-0.1-0.3-0.1-0.5
			c0.2-0.6,0.2-1.3,1.2-1.2c1.6,1,3.4,0.8,5.2,0.5c1.4-0.2,2.9-0.1,4.4-0.1c1.3,0,2.2-0.5,2.9-1.6c2.5-3.5,4.6-7.3,5.6-11.6
			c0.1-0.4,0.1-1,0.8-0.7c2.8,5.2,4,10.6,2.3,16.4c-0.2,0.8-0.6,1.8,0.8,2c1.4,0.1,2.5-0.5,3.4-1.5c0.2-0.3,0.5-0.5,0.8-0.7
			c0.2-0.2,0.5-0.5,0.8-0.3c0.3,0.2,0.1,0.5,0.2,0.8C284.9,44.4,284.7,44.9,285,45.3z"/>
		<path class="st113" d="M274.9,15.4c-1.2-0.4-1.5-0.2-1.4,1c0.7,7.5-1.7,14.1-6.2,20c-0.6,0.8-1.2,0.9-2.2,0.8
			c-1.6-0.1-3.2,0.1-4.8,0.3c-0.7,0.1-0.9,0-0.8-0.7c0.6-6.7,2.8-12.8,7.3-18c0.2-0.2,0.2-0.7,0.3-1c-0.3,0.1-0.8,0-1,0.2
			c-3.6,3.7-8.3,6.3-10.8,11.1c-1.5,3-2.5,6-2.8,9.3c-0.1,0.7-0.3,0.9-1,0.9c-2.8-0.2-5.5,0.4-7.9,1.8c-0.5,0.3-0.7,0.3-0.9-0.3
			c-1.7-7.7-1.2-14.9,4.4-21c0.1-0.1,0.2-0.2,0.2-0.3c0.1-0.4,0.2-0.8,0.3-1.1c-0.4,0.1-1,0-1.3,0.2c-0.7,0.5-1.4,1.2-2,1.8
			c-2.9,3.3-4.2,7.3-4.8,11.5c-0.5,3.6-0.2,7.1,0.9,10.5c0.3,1-0.3,1.3-0.8,1.8c0,0-0.6-0.3-0.6-0.5c-0.8-3-1.8-6-2.3-9
			c-0.4-2.1-0.2-4.2-0.2-6.3c0-0.6,0.3-1.2,0.5-1.8c1.4-0.5,2.5-1.4,2.9-2.9c0.2-0.9,0.2-1.7-0.4-2.4c-0.6-0.7-0.5-1.4,0-2.2
			c2.1-3.3,4.8-6,7.8-8.5c0.6-0.5,1.1-1,1.3-1.6c5.3-3,10.9-3.6,16.6-1.7c2.5,0.8,4.8,2.3,7.2,3.4c0.3,0.2,0.8,0.1,1.2,0.1
			c-0.1-0.4-0.1-0.9-0.3-1.2c-0.5-0.6-1.1-1.1-1.9-1.8c0.4,0,0.7-0.1,1.1-0.1c7.9-0.1,15.1,2,21.2,7.1c0.3,0.3,0.8,0.3,1.3,0.5
			c0.7,0.2,1.2,0.6,1.3,1.4c-0.6,0.5-0.2,0.9,0.1,1.4c1.5,2.4,3,4.9,4.4,7.4c0.2,0.3,0.2,0.7,0.3,1c-0.2,1.6-0.7,3-1.7,4.2
			c-0.4,0.4-0.9,0.8-1.3,0c-0.5-1.3-0.8-2.7-1.5-4c-0.5-1.1-1.1-2.1-2-2.9c-0.4-0.4-0.9-0.8-1.5-0.3c-0.5,0.5-0.1,1,0.2,1.5
			c1.6,2.1,2.7,4.4,3.1,7c-0.1,1.5-1,2.2-2.8,2.3c-0.5-1.4-0.8-2.9-1.4-4.3c-0.3-0.7-0.8-1.4-1.3-2c-0.2-0.3-0.7-0.3-1-0.5
			c0,0.3-0.1,0.7,0,1c0.6,2.4,1.3,4.7,1.6,7.1c0.2,1.7-0.1,3.5-0.2,5.3c0,0.5-0.2,0.8-0.9,0.8c-0.9,0.1-1.8,0.4-2.8,0.6
			c-0.6,0.2-0.6-0.1-0.6-0.5c0.1-2.1-0.2-4.2,0.4-6.3c1-3.3,0.8-6.6-0.2-9.9c-0.4-1.2-0.9-2.3-2.3-2.7c-1.3-0.2-1.1,0.6-0.9,1.4
			c1,4.5,0.8,8.9-0.8,13.3c-0.4,1-0.9,1.9-1.4,2.8c-0.6-0.1-0.3-0.5-0.4-0.8c-0.1-1,0.1-2-0.1-3c-0.6-4.5-2.1-8.7-5-12.3
			c-0.4-0.6-0.4-1.3-0.4-1.9c0-1.9-0.2-3.8-0.6-5.6C275.5,16.3,275.3,15.8,274.9,15.4z"/>
		<path class="st113" d="M321.1,23.8c-0.4,0.1-0.7,0.2-1.1,0.2c0.1,0.4,0.2,0.8,0.4,1.2c1.5,2.1,3.2,4.2,4.6,6.4
			c1.9,2.9,2.7,6.1,3.2,9.4c0.1,0.5,0,1.3-0.4,1.5c-1.1,0.9-2.3,1.7-3.5,2.4c-0.7,0.4-1,0.1-1-0.8c0.2-3.1,0.2-6.2-0.9-9.1
			c-0.4-1-1.1-1.9-1.6-2.9c-0.8-1.2-1.3-2.6-2.1-3.9c-2.2-3.4-4.8-6.4-8.5-8.2c-1.5-0.8-2.8-1.9-4.3-2.6c-0.7-0.3-1.3-0.5-2-0.1
			c-0.5,0.2-1,0.3-1.2-0.4c-0.5-1.2-1-2.4-1.5-3.5c0.6-0.9,1.3-0.9,2.2-0.1c0.8,0.1,1.6,0.4,2.4,0.4c5.4,0.3,10.1,2.3,14.3,5.7
			c0.9,0.7,1.6,1.8,2.4,2.7c0.2,0.2,0.6,0.3,0.9,0.5c0.1-0.4,0.3-0.7,0.2-1.1c-0.1-0.4-0.3-0.7-0.5-1.1c-5.1-7.3-12-11.2-20.9-11.7
			c-0.9,0-2-0.1-2.8,0.3c-1.7,0.6-2.3-0.5-3.3-1.4c11.1-4.5,24.2-1.7,31.1,8.9c2.9,4.4,4.9,9.2,5.5,14.5c0.1,0.3,0.2,0.7-0.1,1.1
			c-0.8-0.3-1.2-1.1-1.8-1.7C328.2,27.4,325,25.1,321.1,23.8z"/>
		<path class="st114" d="M310.4,19.9c1.6,1.1,3.4,2,4.7,3.3c2.5,2.4,4.4,5.2,5.7,8.5c0.1,0.1,0.1,0.3,0.1,0.5
			c-1,0.1-0.6,0.7-0.4,1.2c1.1,3.5,1.4,7,1,10.6c-0.1,1-0.4,1.6-1.3,2.1c-0.6,0.3-1.1,0.7-1.7,1.1c-0.8,0.5-1.5,1.2-2.3-0.2
			c-0.3-0.6-1.1-0.5-1.4,0.2c-0.6,1-1.2,2.1-1.7,3c-0.4-2.3-0.7-4.7-1.4-7c-1-3.8-2.8-7.3-5.8-10c-0.3-0.3-0.4-0.7-0.5-1.1
			c-0.5-3.5-1.3-7-3.3-10c-0.4-0.6-0.5-1,0-1.5c0.9-1,0.9-2.2,0.6-3.5c0.4,0.1,0.8,0.2,1.2,0.2c1.4,1.2,3,2,4.4,3
			c3,2.2,5.1,5,6.8,8.2c0.3,0.5,0.5,1.1,0.8,1.6c0.2,0.3,0.4,0.7,0.8,0.5c0.4-0.2,0.2-0.6,0.1-1c-0.8-2.5-2.1-4.8-4-6.7
			c-0.6-0.7-1.3-1.3-1.9-2C310.7,20.7,310.3,20.4,310.4,19.9z"/>
		<path class="st114" d="M293.8,34.3c0.5-0.2,0.9-0.5,1.4-0.7c0.9-0.3,1.2-0.9,1.1-1.8c0.6,0.1,0.5,0.6,0.6,1
			c0.5,3.6,0.5,7.2-0.7,10.7c0,0.1-0.1,0.2,0,0.4c0.4-0.1,0.6-0.5,0.8-0.9c0.9-1.4,1.4-3.1,1.5-4.7c0.1-2.1,0.2-4.3-0.2-6.4
			c-0.1-0.5-0.3-0.9,0.1-1.4c0.3,0,0.8,0.1,0.9-0.1c0.6-1,1.1-2.1,1.7-3.2c0.1-0.3,0.2-0.6,0.4-0.9c2,5.3,2.2,10.7,0.7,16.2
			c-0.8,3-1.9,5.9-3.8,8.3c-0.4,0.6-0.8,0.7-1.5,0.5c-3.5-0.9-5.6-0.1-7.4,3.1c-1.1,1.9-2,3.8-2,6.1c0,0.2-0.1,0.5-0.2,0.8
			c-1.2-2.8-1.3-7.2-0.3-11.3c0.4-1.5,0.6-3.1,1-4.7c0.1-0.3,0.4-0.7,0.6-0.7c0.8-0.2,1.7-0.4,2.6-0.4c1.1,0,1.6-0.5,1.9-1.4
			c0.8-2.3,1.3-4.6,0.9-7C293.8,35.4,293.8,34.9,293.8,34.3z"/>
		<path class="st11" d="M287.6,87.5c0.4,1.4,0.8,2.7,1.2,4.1c0.1,0.3,0.1,0.6,0,0.8c-1.3,6.2-5,10-11.1,11.4c-3.7,0.9-8.5-2-9.7-5.9
			c6.3,0,11-3.1,15.2-7.3c0.3-0.3,0.7-0.6,1-0.8c0.8-0.7,1.5-1.5,2.4-2.1C286.9,87.6,287.2,87.2,287.6,87.5z"/>
		<path class="st115" d="M248.8,9.1c0.3,0.9-0.4,1.3-0.9,1.7c-3.1,2.5-5.9,5.3-8.1,8.7c-0.4,0.6-0.5,1,0,1.6c1,1.1,0.7,2.3,0.2,3.5
			c-0.5,1.2-1.3,2.2-2.9,2.1c0-0.4-0.1-0.7-0.1-1.1c-0.3,0.3-0.7,0.5-0.8,0.9c-0.5,1.6-0.8,3.3-1.3,5c-0.3,3-0.9,5.9-0.4,8.9
			c0.1,0.6,0.1,1.3,0,1.9c-0.2,0.8-0.6,0.7-0.9,0.1c-1.8-9.7,0.1-18.4,6.4-26C242.4,13.3,245.2,10.7,248.8,9.1z"/>
		<path class="st15" d="M260.1,91.6c1.4,0.7,2.8,1.5,4.3,2.1c3.5,1.5,6.8,0.8,10-1.1c5.4-3.3,9.1-8,12.4-13.2
			c1.4-2.2,2.5-4.5,3.8-6.8c-0.2,1-0.4,2.1-0.8,3.1c-2.7,6.7-6.6,12.5-12.4,16.9c-2.3,1.8-5,3.1-7.9,3.3c-0.9,0.1-1.8,0-2.7-0.3
			C264.1,95,262,93.5,260.1,91.6z"/>
		<path class="st15" d="M276.5,27.3c-0.1,0.2-0.4,0.4-0.4,0.6c-0.9,4.1-2.9,7.7-5.2,11.2c-1.2,1.9-2.7,2.5-4.9,2.4
			c-1.8-0.1-3.7,0.2-5.6,0.4c-0.7,0.1-1.4,0.1-1.9-0.6c-0.2-0.3-0.6-0.4-0.9-0.6c0.7-0.1,1.3-0.1,2-0.3c2-0.6,3.9-1,6-0.6
			c1.8,0.4,2.9-0.4,4.1-2.2c2.4-3.7,4.3-7.7,5.4-12.4C275.7,26.1,276.1,26.7,276.5,27.3z"/>
		<path class="st15" d="M257.7,40.7c-0.3,0.4-0.7,0.8-1,1.3c-0.3,0.3-0.6,0.2-0.9,0.1c-1.7-0.2-3.1,0.3-4.3,1.5
			c-0.2,0.2-0.4,0.6-0.8,0.4c-0.5,0-1.1-0.1-1.6,0.1c-2.3,0.5-2.3,0.6-2.2,3c0,0.3,0,0.6,0,0.9c-0.1-1.6-0.2-3.2-0.3-4.9
			c0-0.2,0.4-0.6,0.7-0.7c1.7-0.4,3.4-0.7,5.1-1c1.7-0.2,2.1-0.5,2.3-2.3c0.4-3.7,1.4-7.3,3.3-10.5c0.2-0.3,0.4-0.6,0.6-0.9
			c0.1-0.1,0.2-0.1,0.6-0.4c-0.2,0.6-0.2,1-0.4,1.4c-1.1,3.2-1.7,6.5-1.9,9.8C256.9,39.4,257.1,40.1,257.7,40.7z"/>
		<path class="st116" d="M296.5,16.7c-0.4-0.5-0.8-0.9-1.3-1.4c-0.4-0.7-0.6-1.5-1.1-2c-1.1-1.1-2.3-2-3.5-2.9
			c-0.5-0.4-0.5-0.5-0.1-0.9c1.7-1.6,2.1-1.8,3.9-0.2c1.9,1.7,3.5,3.7,5.2,5.6c0.1,1.1-1,2.1-2.1,2.1
			C297.1,16.9,296.8,16.8,296.5,16.7z"/>
		<path class="st117" d="M233.5,42.2c0.2,0,0.7,0.7,0.7-0.1c0-0.8-0.1-1.6-0.1-2.4c-0.3-2.8,0-5.6,0.9-8.4c-0.1,4.8,1,9.3,2.9,13.7
			c0.2,0.4,0.3,0.8,0.4,1.2c0.1,0.3-0.1,0.4-0.3,0.6c-0.8,0.5-1.4,1.2-1.9,2.1c-0.1,0.3-0.3,0.6-0.7,0.5
			C234.7,47,234.1,44.6,233.5,42.2z"/>
		<path class="st118" d="M235.3,49.4c1-1,1.9-2.1,2.9-3.1c1.3,1,2.5,0.4,3.4-0.5c0.8-0.8,1.6,0,2.3-0.3c0.1,0.2,0.2,0.3,0.2,0.5
			c0.1,1.1,0.3,2.2,0.3,3.3c0,0.3-0.4,0.7-0.7,0.8c-1.3,0.4-2.6,0-3.8-0.7c-1.4-0.9-2.7-0.7-3.9,0.4
			C235.3,50.6,235.4,49.8,235.3,49.4z"/>
		<path class="st118" d="M321.1,23.8c0.6,0.1,1.3,0.1,1.8,0.4c4.1,2,6.6,4,9.6,7.9c0.1-0.4,0.1-0.6,0.2-0.9c0.1,0.9,0.2,1.8,0.3,2.8
			c-1.5-1.1-2.7-2.3-4.2-3c-1.7-0.8-2.9-1.9-4-3.3C323.8,26.2,322.4,25,321.1,23.8z"/>
		<path class="st27" d="M244.9,54.7c0.3,3.6,0.8,7.1,1,10.7c0,0.9-0.9,1.8-1.6,2.7C243.1,63.5,243.1,59,244.9,54.7z"/>
		<path class="st118" d="M285.2,23c1.3,0,1.9,0.3,2.4,1.9c1.1,3.2,1.4,6.5,0.6,9.7c-0.5,2.3-1,4.5-0.8,6.8c0,0.3,0.3,0.6,0.5,0.9
			c-0.3,0.3-0.7,0.8-0.8-0.2c-0.2-2.1-0.6-4.2-0.6-6.4c0-1.5,0.5-3.1,0.5-4.6c0-2-0.2-4-0.5-6C286.3,24.5,285.6,23.8,285.2,23z"/>
		<path class="st27" d="M303.4,13.4c-0.7,0-1.5,0-2.2,0.1c-0.7-0.9-1.4-1.9-2.3-2.9c4.3-0.5,8.3,0.2,12.1,1.9
			c-0.2,0.6-0.6,0.3-1,0.2c-1.9-0.1-3.7-0.1-5.6-0.2C304,12.5,303.4,12.6,303.4,13.4z"/>
		<path class="st56" d="M285,45.3c-0.1-0.6-0.3-1.2-0.5-2c-0.5,0.5-1.1,1.1-1.7,1.6c-0.9,0.8-1.9,1.5-3.2,0.9
			c1.8-0.6,2.8-2.2,3.8-3.6c0.6-0.9,1.2-1.9,1.9-3.2C285.3,41.3,285.2,43.3,285,45.3z"/>
		<path class="st119" d="M297.5,17c0.7-0.7,1.4-1.4,2.1-2.1c0.5,1.3,1.1,2.5,1.6,3.8c0.1,0.2-0.2,0.7-0.4,0.8
			c-0.1,0.1-0.6,0-0.8-0.2C299.2,18.5,298.3,17.7,297.5,17z"/>
		<path class="st120" d="M274.9,15.4c0.4,0.8,1.1,1.5,1.2,2.3c0.3,2.2,0.4,4.5,0.6,6.7c-0.8-0.5-1.1-1.2-1-2.3
			C275.8,19.8,276,17.5,274.9,15.4z"/>
		<path class="st121" d="M287.6,87.5c-0.8,0.6-1.5,1.1-2.3,1.7c-0.3,0.2-0.7,0.4-1.1,0.7c1-1.3,2-2.6,3.2-4.1
			C287.5,86.5,287.5,87,287.6,87.5z"/>
		<path class="st122" d="M281.7,36.7c0.1,0.8,0.2,1.7,0.3,2.5c0.1,0.4,0.1,0.9,0.2,1.3c-0.1,0.2-0.2,0.3-0.3,0.5
			c-0.1-0.1-0.2-0.3-0.2-0.4C281.6,39.3,281.6,38,281.7,36.7z"/>
		<path class="st123" d="M310.1,12.7c0.3-0.1,0.6-0.2,1-0.2c0.4,0.2,0.8,0.3,1.2,0.5c0.1,0.2,0,0.3-0.3,0.3
			C311.4,13,310.8,12.9,310.1,12.7z"/>
		<path class="st124" d="M312,13.2c0.1-0.1,0.2-0.2,0.3-0.3c0.4,0.2,0.7,0.3,1.1,0.5c0,0.1-0.1,0.2-0.1,0.3
			C312.9,13.5,312.5,13.4,312,13.2z"/>
		<path class="st125" d="M259.8,26.5c-0.1,0.3-0.3,0.5-0.4,0.8c-0.1-0.1-0.2-0.1-0.3-0.2c0.2-0.3,0.3-0.5,0.5-0.8
			C259.6,26.5,259.7,26.5,259.8,26.5z"/>
		<path class="st126" d="M295.1,182c0.3-0.6,0.5-1.1,0.8-1.7c0.5,0.3,1,0.6,1.5,0.9c0.1,3.7,1.4,6.8,4.7,8.8
			c0.3,0.2,0.4,0.6,0.6,0.9c-0.4,0.1-0.8,0.4-1.1,0.2c-0.9-0.5-1.9-0.9-2.6-1.6c-2.1-1.9-2.8-4.5-3.7-7
			C295.2,182.4,295.1,182.2,295.1,182z"/>
		<path class="st127" d="M305.6,187.5c0.2,0,0.3,0,0.5,0.1c0.7,0.4,1.6,4.4,1,5c-0.3,0.2-0.8,0.2-1.2,0.2c-0.3-1.5-0.6-3-0.8-4.4
			C305,188.1,305.4,187.8,305.6,187.5z"/>
		<path class="st127" d="M303.9,180.1c-0.1-0.5-0.2-1.1-0.2-1.6c0-0.3,0.3-0.7,0.5-0.8c0.2-0.1,0.7,0.1,0.8,0.3
			c0.4,1.4,0.7,2.8,0.9,4.2c0,0.2-0.4,0.5-0.7,0.8c-0.9-0.1-1.1-0.7-1.2-1.4C304,181,304,180.6,303.9,180.1z"/>
		<path class="st127" d="M308,197.6c-0.1-0.9-0.6-1.2-1.4-0.8c0.1,1.2,0.2,2.3,0.4,3.5c0.4-0.1,0.8-0.2,1.2-0.4
			C308.1,199.2,308,198.4,308,197.6z"/>
		<path class="st128" d="M351.6,112.4c1.6,1.7,2.6,3.7,3.2,5.8c0.2,0.6,0,1.4-0.1,2.1c-1,0.2-1.2-0.5-1.5-1.1
			c-0.5-1.3-1-2.7-1.7-3.9c-1.1-2.1-2.8-3.3-5.2-3.5c-0.3,0-0.7-0.3-1-0.5c0.3-0.2,0.6-0.6,1-0.6
			C348.4,110.3,350.1,111.2,351.6,112.4z"/>
		<path class="st129" d="M355.4,121.3c0.3-0.2,0.6-0.6,1-0.6c1.7-0.2,3.4-0.4,5.1-0.6c0.6,0,1.2,0.1,1.9,0.2
			c0.2,0.1,0.5,0.2,0.7,0.4c0.1,0.1,0.2,0.4,0.3,0.6c-0.2,0.1-0.5,0.2-0.7,0.2c-1.5-0.5-2.8-0.1-4.2,0.5c-0.9,0.3-1.8,0.4-2.8,0.5
			C355.9,122.6,355.4,122.2,355.4,121.3z"/>
		<path class="st108" d="M198.3,113.1c0-0.6-0.2-1.2,0-1.7c1.3-3,2.9-5.7,6.2-6.9c1.2,0,2.4,0,3.6,0.1c0.2,0,0.4,0.4,0.6,0.6
			c-0.3,0.1-0.5,0.4-0.8,0.4c-3.6-0.3-5.5,1.8-7,4.6c-0.4,0.7-0.7,1.4-1.1,2.1C199.5,112.9,199.1,113.4,198.3,113.1z"/>
		<path class="st54" d="M188.6,112.7c0.9-0.2,1.8-0.7,2.7-0.5c2,0.4,3.9,1,5.9,1.5c0,0,0,0,0,0c0.4,0.6,0.1,1.1-0.4,1.4
			c-1.2-0.3-2.5-0.4-3.6-1c-1.3-0.6-2.4-1.1-3.9-0.8C188.9,113.4,188.3,113.4,188.6,112.7z"/>
		<path class="st15" d="M196.8,115.1c0.1-0.5,0.3-0.9,0.4-1.4C197.8,114.4,197.6,114.8,196.8,115.1z"/>
		<path class="st130" d="M270.1,53.2c0-0.1,0-0.2,0-0.4c0.2-1.2,0.2-2.1-1.4-2.1c-0.3,0-0.7-0.3-1-0.6c-0.5-0.5-0.8-1.1-0.3-1.7
			c0.6-0.6,1.1-0.2,1.5,0.2c0.7,0.8,1.5,0.9,2.5,0.6c0.8-0.3,1.5,0,2,0.7c1.7,2.8,2.1,5.8,1.1,8.9c-0.2,0.5-0.9,1.2-1.4,1.2
			c-0.6,0-1.5-0.6-1.6-1.1c-0.7-1.8-1.1-3.8-1.6-5.7C269.9,53.2,270,53.2,270.1,53.2z"/>
		<path class="st106" d="M255.1,54.7c0.4-1.3,0.1-2.2-1.6-2.4c-0.4,0-0.9-0.5-1.1-0.9c-0.2-0.3-0.1-1,0.1-1.3c0.2-0.2,1-0.2,1.2,0
			c0.9,0.9,1.8,1.1,3,0.7c0.4-0.1,1.1,0.2,1.5,0.5c0.5,0.5,1,1.2,1.1,1.8c0.3,2.1,0.4,4.3,0.5,6.4c0,0.3-0.2,0.6-0.3,0.9
			c-0.8,1.6-2.2,1.8-3,0.2c-0.6-1.1-0.8-2.4-1.2-3.6C255.1,56.4,255.2,55.6,255.1,54.7z"/>
		<path class="st106" d="M264.1,81.5c-0.3-0.1-0.6,0-0.8-0.1c-0.4-0.3-0.8-0.6-1.3-0.9c0.4-0.2,0.8-0.6,1.3-0.6
			c3.4-0.6,6.8-1.5,9.4-4.1c0.5-0.5,1.4-0.9,0.7-1.9c-0.1-0.1,0.2-0.6,0.5-0.7c1.1-0.5,2.2-0.8,3.3-0.1c0.4,0.2,0.8,0.9,0.8,1.3
			c0,0.4-0.7,0.7-1.1,1c-0.3,0.2-0.7,0.3-0.9,0.6C272.9,79.7,268.6,80.8,264.1,81.5z"/>
		<path class="st15" d="M295,55.4c1.3,0.1,1.7,1,1.7,2.1c0.1,1.5,0,3.1,0,4.7c0,1.1-0.7,1.8-1.7,2.1c-1,0.3-1.8-0.1-2.4-1
			c-1-1.5-0.6-5.9,0.6-7.1c0.2-0.2,0.5-0.3,0.8-0.4c-0.3,1.2-1,2.1-1.2,3.3c-0.1,0.8-0.2,1.6-0.1,2.4c0.1,0.5,0.2,1,0.8,1
			c0.6,0,0.6-0.6,0.6-1C294.2,59.3,294.3,57.3,295,55.4z"/>
		<path class="st46" d="M264.9,85.8c-0.3-0.5-0.5-0.9-0.8-1.4c0.5-0.3,1.1-0.7,1.6-0.7c2.5,0.1,4.7-0.4,6.6-2.1
			c0.3-0.2,0.8-0.1,1.2-0.1c0.3,0.8,0,1.4-0.5,2c-2.1,2.4-4.6,3.3-7.7,2.5C265.1,85.9,265,85.9,264.9,85.8z"/>
		<path class="st128" d="M267.3,42.5c2.3,0.1,4.5,0.9,6.5,2.1c0.4,0.3,0.5,1,0.8,1.5c-0.6,0.1-1.2,0.3-1.7,0.2
			c-1.9-0.4-3.8-1.1-5.7-1.5c-0.8-0.2-1.8-0.1-1.7-1.2C265.4,42.5,266.4,42.5,267.3,42.5z"/>
		<path class="st108" d="M250.7,44c1.6-2,3.5-2.8,6-2.1c0.2,0.6,0.7,1.3,0.5,1.6c-0.2,0.4-1,0.7-1.6,0.7c-2-0.1-3.3,0.7-4.2,2.5
			c-0.2,0.4-0.7,0.5-1.1,0.8c-0.1-0.4-0.4-0.9-0.3-1.2C250.1,45.5,250.4,44.8,250.7,44z"/>
		<path class="st15" d="M264.9,85.8c1.6-0.1,3.2,0.1,4.7-0.3c1.9-0.6,3.6-1.7,3.9-4c0.9,2.3,0,4.5-2.5,5.5c-1,0.4-2.1,0.5-3.1,0.7
			c-0.9,0.1-1.7-0.2-2.2-1.1C265.5,86.3,265.1,86.1,264.9,85.8z"/>
		<path class="st129" d="M295,55.4c0,0.3,0.2,0.7,0.1,1c-0.2,1.6-0.4,3.2-0.6,4.8c0,0.4,0,0.8-0.2,1.1c-0.2,0.3-0.7,0.6-0.9,0.5
			c-0.4-0.2-0.9-0.6-0.9-1c-0.2-2.2,0-4.4,1.6-6.1C294.4,55.6,294.7,55.5,295,55.4z"/>
		<path class="st130" d="M298.4,30.7c0.7,3.4,0.8,6.7,0,10.1c-0.3,1.2-1,2.3-1.6,3.4c-0.2,0.3-0.7,0.4-1,0.6c0-0.4-0.1-0.8,0.1-1.2
			c1.3-3.9,1.3-7.8,0.5-11.8c-0.5-2.5-1.4-4.9-3.2-6.9c-0.5-0.5-0.9-1.2-0.2-1.8c0.7-0.6,1.3-0.3,1.9,0.2c1.6,1.4,2.4,3.3,3.1,5.3
			C298.1,29.3,298.2,30,298.4,30.7z"/>
		<path class="st115" d="M247.6,23.1c2.1,0.1,4.1,0.3,6.2,0.4c1,0.1,1.8,0.9,1.8,2c0,1.1-0.5,2-1.5,2.2c-2.8,0.5-5.6,0.2-8.1-1.2
			c-0.9-0.5-1.1-1.5-0.8-2.4C245.6,22.9,246.7,23,247.6,23.1z"/>
		<path class="st115" d="M267.5,27.7c-0.9-0.1-1.5-0.2-2.1-0.3c-0.9-0.2-1.6-0.7-1.6-1.7c-0.1-1,0.3-2,1.3-2.2
			c1.3-0.3,2.7-0.4,4-0.3c0.6,0.1,1.2,0.9,1.5,1.6c0.3,0.8,0,1.7-0.9,2.1C268.9,27.3,268,27.5,267.5,27.7z"/>
		<path class="st131" d="M310.4,19.9c0.7,0.7,1.5,1.5,2.2,2.2c2.1,2.1,3.7,4.6,4.6,7.5c0.1,0.4-0.1,1-0.2,1.5
			c-0.4-0.3-1-0.5-1.3-0.9c-1.1-1.8-2.1-3.8-3.3-5.5c-1.8-2.6-4.4-4.4-7-6c-0.5-0.3-0.9-0.9-1.4-1.4c0.6-0.1,1.3-0.3,1.7-0.1
			C307.3,18,308.8,19,310.4,19.9z"/>
		<path class="st132" d="M314,36.2c-0.3,0.4-0.7,1-1,1c-0.5-0.1-1.2-0.5-1.4-0.9c-0.7-1.8-1.2-3.7-1.8-5.5c-0.2-0.5-0.4-0.9-0.6-1.4
			c-0.1-0.3,0-0.6,0-0.9c0.3,0.1,0.8,0.1,0.9,0.3c0.8,1.1,1.7,2.2,2.3,3.5C313.1,33.3,313.5,34.7,314,36.2z"/>
	</g>
</g>
</svg>
