<?xml version="1.0" encoding="utf-8"?>
<!-- Generator: Adobe Illustrator 25.2.2, SVG Export Plug-In . SVG Version: 6.00 Build 0)  -->
<svg version="1.1" xmlns="http://www.w3.org/2000/svg" xmlns:xlink="http://www.w3.org/1999/xlink" x="0px" y="0px"
	 viewBox="0 0 200 50" style="enable-background:new 0 0 200 50;" xml:space="preserve">
<style type="text/css">
	.st0{opacity:0.68;fill:#C29B3A;}
</style>
<g id="Layer_1">
	<path class="st0" d="M192.4,5.8H5.3c-0.7,3.1-1.3,6-0.8,8.7c1.8,9.9,3.6,19.8,0.3,29.7h186.8c4.1-8.3,1.1-17.9,2-26.7
		c0-1.6,2-3.9,2.2-5.7v-0.6c0-0.2-0.1-0.4-0.2-0.7C193.6,8.9,192.7,7.4,192.4,5.8z"/>
</g>
<g id="Layer_2">
	<g>
		<path d="M21.6,37.5c-0.1-0.1-0.2-0.2-0.3-0.4c-0.1-0.1-0.1-0.3-0.2-0.6c-0.4-0.4-0.7-1-0.9-1.5c-0.2-0.6-0.4-1.2-0.4-1.8
			c-0.1-0.6-0.1-1.2,0-1.9c0.1-0.6,0.1-1.2,0.3-1.8c0.1-0.3,0.1-0.5,0.2-0.8c0.1-0.5,0.3-1,0.4-1.5c0.1-0.5,0.3-0.9,0.6-1.2
			c-0.1-0.3-0.1-0.6,0-0.9c0.1-0.3,0.3-0.7,0.4-0.9c0.1-0.1,0.1-0.1,0.1-0.2c0-0.1,0.1-0.1,0.1-0.2c0.3-0.9,0.6-1.8,0.9-2.6
			c0.3-0.8,0.6-1.7,0.9-2.4c0.5-1.4,1-2.8,1.5-4.2c0.5-1.4,0.9-2.9,1.3-4.4c0.2-0.2,0.4-0.3,0.5-0.3c0.1,0,0.1-0.1,0.2-0.1
			c0.1,0,0.2,0,0.3,0c0.5,0.3,1.2,0.6,1.9,0.8c0.7,0.2,1.4,0.4,1.9,0.4l0.7,0.6c0.3,0.4,0.6,0.8,0.9,1.2c0.2,0.4,0.3,1,0.2,1.7
			c-0.2,0.2-0.3,0.4-0.4,0.4c-0.2,0.6-0.3,1.1-0.5,1.6c-0.2,0.5-0.4,0.9-0.5,1.3c-0.2,0.5-0.4,0.9-0.6,1.4c-0.2,0.5-0.3,1-0.5,1.7
			c-0.2,0.2-0.3,0.3-0.3,0.5c0,0.1-0.1,0.3-0.1,0.4c-0.1,0.2-0.1,0.3-0.2,0.5c-0.1,0.2-0.2,0.3-0.4,0.4c-0.1,0.8-0.3,1.5-0.5,2
			c-0.2,0.5-0.4,1-0.6,1.5c-0.4,0.9-0.7,1.8-1,2.7S27,30.8,27,31.9c0.3-0.1,0.6-0.1,0.9-0.1c0.3,0,0.7,0.1,1,0.2
			c0.9-0.5,2-0.8,3.1-0.9c1.1-0.1,2.2-0.2,3.3-0.2c0.9,0,1.8,0,2.5-0.1c0.3,0.2,0.4,0.3,0.5,0.3c0.1,0,0.2,0,0.4,0
			c0.1,0,0.2,0,0.2,0s0.2,0,0.3,0c0.4,0.4,0.7,0.6,1.1,0.8c0.3,0.1,0.7,0.3,1.1,0.4c0.3,0.1,0.7,0.3,1,0.4c0.3,0.1,0.6,0.3,1,0.6
			l0.4,2c0.2,0.3,0.3,0.5,0.3,0.6c0,0.2-0.1,0.4-0.2,0.5l0.1,0.5c-0.5,0.1-0.8,0.2-1,0.3s-0.3,0.3-0.5,0.4c-0.3,0-0.6,0-0.8,0
			c-0.5,0-1.1,0.1-1.6,0.2c-0.8-0.3-1.6-0.4-2.6-0.4c-0.4,0-0.7,0-1.1,0c-0.4,0-0.7,0.1-1.1,0.1c-0.4,0.1-0.8,0.1-1.2,0.1
			s-0.8,0.1-1.2,0.1C32.5,38,32.2,38,32.1,38c-0.1,0-0.3,0.1-0.4,0.1c-0.9,0.3-1.8,0.6-2.9,0.9c-1,0.3-2.1,0.4-3.1,0.4
			c-1.5,0-2.8-0.4-3.7-1.2c-0.1-0.2-0.2-0.4-0.2-0.5C21.7,37.7,21.7,37.6,21.6,37.5z"/>
		<path d="M66.5,17c0,0.2,0,0.3,0,0.4c0,0.1,0,0.2,0,0.3c0,0.1,0,0.2,0,0.3c0,0.1,0,0.2,0.1,0.4c-0.5,0.9-1.2,1.5-1.9,1.8
			c-0.7,0.3-1.5,0.6-2.3,0.7c-0.8,0.1-1.7,0.3-2.6,0.4c-0.9,0.2-1.7,0.5-2.6,1c-0.3-0.1-0.6-0.1-0.9,0c-0.3,0.1-0.7,0.2-1.2,0.1
			c-0.2,0.2-0.4,0.3-0.6,0.3c-0.2,0.1-0.5,0.1-0.7,0.2c0.1,0.2,0.1,0.5,0.1,0.7c0,0.2,0,0.4,0.1,0.6c0.9,0.1,1.9,0.1,3,0
			c1.1-0.1,2.2-0.2,3.3-0.2c0,0.1,0,0.2,0,0.3c-0.1,0-0.1,0.1,0,0.2c0.2,0.1,0.4,0.3,0.5,0.5c0.2,0.2,0.4,0.4,0.5,0.6
			c0.2,0.2,0.4,0.3,0.6,0.4s0.4,0.2,0.7,0.1c0.1,0.2,0.2,0.4,0.2,0.7c0,0.2,0,0.5-0.1,0.8c-0.4,0.3-0.8,0.6-1.2,0.9
			c-0.4,0.3-0.9,0.6-1.3,0.8c-0.5,0.2-0.9,0.4-1.4,0.6C58.2,30,57.6,30,57,30c-0.1,0-0.2,0-0.3,0c-0.1,0-0.2,0-0.3-0.1
			c-0.2,0.1-0.5,0.2-0.9,0.1c-0.4-0.1-0.7,0-0.9,0.1c-0.3-0.1-0.6-0.2-1-0.2c-0.4,0-0.8,0-1.1-0.1c-0.4,0.5-0.8,1.1-1.1,1.8
			c-0.3,0.6-0.6,1.3-0.9,2c0.9,0.1,1.6,0.2,2.2,0.2c0.6,0,1.1-0.1,1.7-0.1c0.5-0.1,1.1-0.1,1.6-0.2c0.5-0.1,1.2-0.1,2.1-0.1
			c0.5-0.3,1.1-0.5,1.9-0.6c0.7-0.1,1.4-0.2,2-0.4c0.2,0.1,0.4,0.2,0.5,0.4s0.3,0.4,0.4,0.5c0.1,0.2,0.3,0.3,0.4,0.4
			c0.2,0.1,0.4,0.2,0.6,0.2c0.1,0.1,0.2,0.2,0.2,0.4c0,0.1,0.1,0.3,0.1,0.4c0,0.1,0.1,0.2,0.1,0.3c0.1,0.1,0.2,0.1,0.3,0.1
			c-0.4,0.9-0.8,1.5-1.3,2c-0.5,0.5-1.1,0.8-1.7,1c-0.7,0.2-1.4,0.4-2.2,0.5c-0.8,0.1-1.7,0.3-2.6,0.5c-0.2,0.1-0.4,0-0.6,0
			C56.1,39,55.9,39,55.7,39c-0.6,0.1-1.3,0.2-2.1,0.4c-0.8,0.1-1.7,0.1-2.5,0.1c-0.9,0-1.7-0.1-2.5-0.3s-1.4-0.5-1.9-1
			c-0.2-0.2-0.3-0.4-0.4-0.6c-0.1-0.2-0.2-0.4-0.5-0.6c0-0.3-0.1-0.7-0.2-1.1c-0.1-0.4-0.2-0.9-0.2-1.3c-0.1-0.5-0.1-0.9-0.2-1.3
			c0-0.4,0-0.8,0.1-1.2c0.1-0.4,0.2-0.7,0.5-1.1c0.2-0.3,0.3-0.7,0.3-1c0.1,0,0.2-0.1,0.2-0.2c0-0.1,0.1-0.2,0.3-0.1
			c0.2-0.5,0.3-0.9,0.5-1.3c0.2-0.4,0.4-0.8,0.6-1.2s0.4-0.8,0.6-1.2c0.2-0.4,0.4-0.9,0.6-1.3c-0.4-0.3-0.6-0.7-0.8-1.1
			c-0.2-0.4-0.3-0.8-0.4-1.2c-0.1-0.4-0.1-0.8-0.2-1.2c-0.1-0.4-0.1-0.9-0.3-1.3c0.3-0.4,0.6-0.7,1-1c0.4-0.2,0.8-0.4,1.2-0.6
			c0.4-0.2,0.9-0.3,1.4-0.4c0.5-0.1,1.1-0.2,1.6-0.4c1-0.3,2-0.6,2.8-0.8c0.8-0.2,1.6-0.3,2.4-0.4c0.8-0.1,1.6-0.2,2.5-0.3
			c0.9-0.1,1.8-0.3,2.9-0.5c0.2,0.2,0.5,0.4,0.7,0.4c0.1-0.2,0.2-0.3,0.4-0.2c0.1,0.1,0.2,0,0.2-0.2c0.3,0.4,0.6,0.8,1,1.1
			C65.6,16.5,66,16.8,66.5,17z"/>
		<path d="M86.2,35.7c-0.2,0.4-0.4,0.9-0.7,1.3c-0.3,0.5-0.7,0.9-1.1,1.2c-0.4,0.4-0.9,0.6-1.3,0.9c-0.5,0.2-1,0.4-1.6,0.4
			c-0.3-0.1-0.6-0.2-0.7-0.3c-0.1-0.1-0.2-0.2-0.4-0.3c-0.1-0.1-0.2-0.1-0.2-0.1c-0.1,0-0.1-0.1-0.2-0.1l-0.5-0.2l0.2-0.5
			c0.1-0.2,0-0.4,0-0.5s-0.2-0.3-0.5-0.5c-0.1-0.1-0.2-0.2-0.2-0.2s-0.1-0.2-0.2-0.2l-0.7-0.7l1.1-0.3c0.7-0.2,1.1-0.4,1.3-0.7
			c0.2-0.3,0.3-0.8,0.3-1.4c-0.5-0.1-1-0.1-1.3,0s-0.7,0.2-1.1,0.3C78,33.8,77.5,33.9,77,34c-0.5,0.1-1,0.1-1.6,0.1
			c-0.2,0-0.4,0-0.6,0c-0.2,0-0.4,0-0.6-0.1L73.9,34c-0.1-0.3-0.1-0.4-0.2-0.5c-0.1,0-0.1-0.1-0.2-0.1c-0.1-0.1-0.3-0.3-0.4-0.5
			C73,32.6,73,32.3,73.1,32c-0.1-0.2-0.2-0.5-0.2-0.7c-0.2,0.3-0.3,0.6-0.4,1l-0.2,0.4l-0.4,0.1c-0.1,0-0.1,0.1-0.1,0.2
			c0,0.1,0,0.2,0,0.2l-0.2,0.7c-0.1,0.1-0.1,0.1-0.2,0.1c-0.1,0-0.1,0.1-0.2,0.1c-0.1,0.2-0.1,0.5-0.2,0.7s-0.2,0.5-0.2,0.7
			c-0.1,0.3-0.2,0.7-0.3,1c-0.1,0.3-0.1,0.6-0.1,1l-0.2,0.4c-0.1,0.2-0.3,0.3-0.4,0.4c-0.2,0.1-0.3,0.2-0.5,0.3
			c-0.1,0.1-0.1,0.1-0.2,0.1c-0.1,0-0.2,0.1-0.2,0.1l-0.1,0.4l-0.5,0.1c-0.3,0.1-0.5,0.1-0.6,0.1c-0.1,0-0.3,0-0.4,0l-0.4,0
			c-0.3-0.2-0.5-0.4-0.7-0.6c-0.2-0.1-0.3-0.3-0.5-0.4c-0.2-0.3-0.4-0.5-0.4-0.7c0-0.2-0.1-0.3-0.1-0.4c-0.1-0.2-0.1-0.3-0.1-0.4
			c0-0.1,0-0.2-0.1-0.2l-0.5-0.5l0.4-0.4l0-0.7c0.5-1.3,1.1-2.6,1.7-3.8c0.6-1.2,1.2-2.5,1.8-3.8c0.2-0.4,0.4-0.8,0.6-1.2
			c0.2-0.4,0.4-0.8,0.6-1.2c0-0.1,0-0.2,0-0.3c0-0.1,0-0.2,0.1-0.4c0.3-0.4,0.5-0.8,0.7-1.2c0.2-0.4,0.4-0.7,0.5-1.1
			c0.2-0.4,0.4-0.9,0.6-1.3c0.2-0.4,0.5-0.8,0.8-1.3l0.6-0.3c0.1,0,0.2-0.1,0.3-0.1c0.1,0,0.2-0.1,0.4-0.1l0.6,0.1
			c0.7-0.3,1.4-0.8,1.9-1.4c0.5-0.6,1.1-1.3,1.7-2.2l0.4-0.5l0.5,0.3c0.1,0.1,0.3,0.2,0.5,0.2c0.2,0.1,0.5,0.1,0.7,0.2
			c0.5,0.1,0.9,0.2,1.3,0.4c0.4,0.1,0.8,0.3,1,0.6c0.2,0.4,0.2,0.7,0.3,0.9c0,0.2,0.1,0.4,0.1,0.6c0.1,0.4,0.1,0.9,0.2,1.3
			c0.1,0.4,0.1,0.9,0.1,1.5c0.1,0.4,0.2,0.9,0.3,1.3c0.1,0.4,0.2,0.9,0.3,1.3c0.1,0.6,0.3,1.2,0.4,1.8c0.1,0.6,0.3,1.1,0.5,1.7
			c0.2,0,0.3,0,0.4,0c0.1-0.1,0.3-0.1,0.4-0.1c0.1,0,0.3-0.1,0.5-0.1l0.4,0l0.2,0.4c0,0.1,0.2,0.3,0.4,0.4c0.3,0,0.6,0.1,0.7,0.2
			s0.3,0.2,0.4,0.4c0.1,0.1,0.2,0.2,0.3,0.2l0.6,0.2l-0.3,0.6c-0.3,0.5-0.6,0.9-1.1,1.3c-0.5,0.4-1,0.8-1.6,1.1c0,0.2,0,0.3,0.1,0.4
			c0,0.1,0,0.3,0.1,0.4c0.1,0.4,0.1,0.9,0.2,1.4c0.1,0.5,0.1,1,0,1.4L86.2,35.7z M75,28.9c0.8-0.1,1.5-0.1,2.1-0.2
			c0.6-0.1,1.3-0.2,2.1-0.3c-0.2-0.8-0.4-1.6-0.6-2.4c-0.2-0.8-0.4-1.7-0.7-2.5l-0.2,0.4c-0.5,0.5-1,1.2-1.5,1.8
			c-0.5,0.7-0.9,1.3-1.2,1.9c-0.2,0.2-0.3,0.5-0.5,0.7s-0.3,0.5-0.4,0.7c0.2,0,0.3,0,0.4,0C74.7,29,74.8,29,75,28.9z"/>
		<path d="M95.1,34.9c-0.3,1-0.5,1.8-0.8,2.4c-0.2,0.5-0.6,1.1-1,1.7c-0.3-0.1-0.6,0-0.7,0.1c-0.1,0.1-0.3,0.2-0.4,0.4
			c-0.2,0.1-0.4,0.1-0.5,0c-0.1-0.1-0.2-0.1-0.3-0.2c-0.1-0.1-0.2-0.1-0.3-0.2s-0.3-0.1-0.5-0.1c-0.1-0.2-0.1-0.4-0.2-0.6
			c-0.1-0.2-0.2-0.2-0.5-0.2c0.1-0.2,0.1-0.4,0-0.5c0-0.1-0.1-0.3-0.1-0.4s-0.1-0.2-0.1-0.4c0-0.1,0-0.3,0-0.4
			c-0.1,0-0.2-0.1-0.3-0.3c-0.1-0.2-0.2-0.4-0.3-0.5c0.1-0.5,0.2-0.9,0.2-1.3c0.1-0.4,0.2-0.8,0.3-1.2c0.1-0.4,0.2-0.7,0.3-1.1
			c0.1-0.4,0-0.7-0.1-1.1c0.1,0.1,0.2,0.1,0.2-0.1c0.1-0.1,0.1-0.3,0.1-0.5c0-0.2,0-0.4,0-0.6s0-0.4,0-0.5c0.3-0.7,0.5-1.4,0.6-2.1
			c0.2-0.7,0.3-1.4,0.5-2.1c0.1-0.7,0.3-1.4,0.4-2.1c0.2-0.7,0.4-1.3,0.6-1.9c0.3-0.1,0.6,0,1,0.1s0.6,0.3,0.6,0.4
			c0.7-0.5,1.3-1.2,1.8-1.9c0.5-0.7,1.1-1.5,1.6-2.2s1.2-1.3,1.8-1.9c0.7-0.5,1.5-0.9,2.5-1c0.5,0.4,1.1,0.8,1.7,1.2
			c0.6,0.4,1.2,0.9,1.6,1.6c0.2,0.1,0.4,0.2,0.5,0.3c0.1,0.1,0.3,0.2,0.5,0.4v0.5c0.3,0.3,0.6,0.6,0.8,1c0.2,0.4,0.4,0.8,0.5,1.2
			s0.3,0.9,0.5,1.3s0.3,0.8,0.5,1.2c-0.1,0.1-0.1,0.2-0.1,0.3c0,0.1,0,0.2,0.1,0.3c0,0.1,0.1,0.2,0.1,0.3c0,0.1,0,0.2,0,0.4
			c-0.1,1.1-0.4,2.1-1.1,2.8s-1.5,1.3-2.4,1.7c-0.9,0.5-1.9,0.8-3,1.2c-1.1,0.3-2,0.7-2.9,1c0,0.1,0,0.2,0.1,0.2
			c0.1,0,0.1,0.1,0.1,0.2c0.6,0.4,1.1,0.7,1.5,0.9c0.4,0.2,0.7,0.4,1,0.6c0.3,0.2,0.7,0.3,1.1,0.4c0.4,0.1,0.9,0.3,1.6,0.4
			c0.7,0.2,1.2,0.3,1.6,0.4c0.4,0.1,0.7,0.2,1,0.2c0.3,0.1,0.6,0.1,1,0.2c0.3,0,0.8,0.1,1.4,0.1c0.2,0.2,0.4,0.5,0.6,0.8
			c0.2,0.3,0.3,0.7,0.3,1c0.1,0.3,0.1,0.6,0,0.9c0,0.3-0.1,0.5-0.3,0.7c0,0.1,0.1,0.1,0.2,0.1c0.1,0,0.2,0,0.3,0
			c-0.2,0.1-0.3,0.2-0.4,0.4c-0.1,0.2-0.2,0.3-0.3,0.5c-0.1,0.2-0.2,0.3-0.4,0.4c-0.1,0.1-0.3,0.2-0.5,0.2c-0.8,0.3-1.8,0.3-3,0.1
			c-1.2-0.3-2.8-0.8-4.6-1.5c-0.9-0.4-1.7-0.7-2.3-1s-1.1-0.5-1.5-0.8s-0.8-0.6-1.2-0.9S95.6,35.3,95.1,34.9z M100.7,21.5
			c-0.3,0.4-0.6,0.8-1,1.1c-0.4,0.3-0.7,0.7-1,1c-0.3,0.4-0.6,0.7-0.9,1.2c-0.3,0.4-0.4,0.9-0.5,1.5c0.9-0.1,1.9-0.4,2.9-0.8
			c1-0.4,1.9-0.8,2.8-1.2c-0.1-0.8-0.4-1.5-0.8-2C101.7,22,101.2,21.7,100.7,21.5z"/>
		<path d="M118.5,31.9c-0.2,0.1-0.4,0.2-0.5,0.4c-0.1,0.2-0.2,0.4-0.3,0.7c-0.1,0.2-0.2,0.4-0.3,0.6c-0.1,0.2-0.2,0.3-0.4,0.3
			c0,0.2-0.1,0.4-0.2,0.5s-0.2,0.3-0.3,0.5c-0.1,0.2-0.2,0.4-0.2,0.5c-0.1,0.2,0,0.4,0.1,0.7c-0.2,0.2-0.3,0.4-0.4,0.7
			c-0.1,0.3-0.1,0.6-0.2,0.8c-0.1,0.3-0.2,0.5-0.3,0.7c-0.2,0.2-0.4,0.3-0.9,0.2c-0.1,0.1-0.1,0.2,0,0.2c0.1,0,0.1,0.1,0.1,0.3
			c-0.3-0.1-0.5,0-0.6,0.1c-0.1,0.1-0.3,0.1-0.5,0.2c-0.5-0.2-0.9-0.4-1.2-0.8c-0.3-0.4-0.6-0.8-0.9-1.3c-0.2-0.5-0.5-1-0.7-1.5
			c-0.2-0.5-0.4-0.9-0.6-1.3c0.1-0.3,0.1-0.6,0-0.8c-0.1-0.3-0.1-0.5-0.3-0.7c1.3-2.7,2.7-5.6,4.2-8.7c1.5-3.1,2.9-6.1,4.3-9.1
			c0.6,0.2,1.2,0.5,1.8,0.8c0.6,0.3,1.1,0.6,1.6,1c0.5,0.4,0.9,0.8,1.2,1.3c0.3,0.5,0.6,1.1,0.7,1.7c-0.1,0.2-0.1,0.2-0.2,0.2
			c-0.1,0-0.1,0-0.2,0.1c0.1,0.1,0.2,0.2,0.2,0.3c0,0.1,0,0.1,0,0.2c0,0.1,0,0.1,0,0.2c0,0.1,0,0.2,0.1,0.4c-0.1,0-0.2,0-0.2,0
			c0,0.1-0.1,0.1-0.3,0c0.1,0.3,0.1,0.5,0.1,0.7c0,0.2-0.1,0.3-0.2,0.5c-0.1,0.1-0.1,0.3-0.2,0.5c-0.1,0.2,0,0.4,0,0.6
			c-0.1,0-0.1,0-0.2,0.1s-0.1,0.1-0.1,0.1c0,0-0.1,0.1-0.1,0.1s-0.1,0-0.2,0c0.1,0.6,0.1,1.1,0.1,1.7c0,0.6,0,1.2-0.1,1.7
			c0,0.6,0,1.2,0,1.8c0,0.6,0.1,1.3,0.3,2c0.9-0.5,1.7-1.2,2.2-2.1c0.6-0.9,1-1.8,1.4-2.9c0.4-1.1,0.6-2.2,0.8-3.4
			c0.2-1.2,0.4-2.5,0.6-3.8c0.2-0.2,0.4-0.5,0.5-0.9c0.1-0.3,0.2-0.7,0.4-1.1c0.1-0.4,0.2-0.8,0.3-1.1c0.1-0.4,0.2-0.7,0.4-1
			c0.4,0.1,0.7,0.2,1,0.4s0.5,0.4,0.8,0.6c0.2,0.2,0.5,0.4,0.7,0.6c0.3,0.2,0.6,0.3,1,0.4c0.3,0.4,0.6,0.9,0.9,1.3
			c0.3,0.4,0.4,0.9,0.5,1.3c-0.1,0.2-0.2,0.4-0.3,0.7c-0.1,0.3-0.1,0.5-0.2,0.8c-0.1,0.3-0.2,0.5-0.3,0.7c-0.1,0.2-0.3,0.4-0.5,0.6
			c-0.1,0.7-0.2,1.3-0.3,1.9c-0.1,0.6-0.2,1.1-0.4,1.7s-0.2,1.1-0.3,1.7s-0.1,1.2-0.1,1.9c-0.2,0.6-0.4,1.2-0.7,1.9
			c-0.2,0.7-0.4,1.3-0.5,1.8c-0.4,0.3-0.7,0.7-1,1.2s-0.5,0.9-0.7,1.4c-0.1,0.1-0.2,0.1-0.2,0.1c0-0.1-0.1-0.1-0.3-0.1
			c0,0.1,0,0.2,0,0.2c0,0.1-0.1,0.1-0.1,0.1s-0.1,0.1-0.1,0.2c0,0.1,0,0.2,0.1,0.3c-0.4,0.2-0.7,0.4-1,0.7c-0.3,0.3-0.6,0.5-0.9,0.8
			c-0.3,0.2-0.7,0.4-1.2,0.5c-0.5,0.1-1,0-1.8-0.3c-1.1-0.8-2-1.7-2.8-2.7S119,33.3,118.5,31.9z"/>
		<path d="M154.8,17c0,0.2,0,0.3,0,0.4c0,0.1,0,0.2,0,0.3c0,0.1,0,0.2,0,0.3c0,0.1,0,0.2,0.1,0.4c-0.5,0.9-1.2,1.5-1.9,1.8
			c-0.7,0.3-1.5,0.6-2.3,0.7c-0.8,0.1-1.7,0.3-2.6,0.4c-0.9,0.2-1.7,0.5-2.6,1c-0.3-0.1-0.6-0.1-0.9,0c-0.3,0.1-0.7,0.2-1.2,0.1
			c-0.2,0.2-0.4,0.3-0.6,0.3c-0.2,0.1-0.5,0.1-0.7,0.2c0.1,0.2,0.1,0.5,0.1,0.7c0,0.2,0,0.4,0.1,0.6c0.9,0.1,1.9,0.1,3,0
			c1.1-0.1,2.2-0.2,3.3-0.2c0,0.1,0,0.2,0,0.3c-0.1,0-0.1,0.1,0,0.2c0.2,0.1,0.4,0.3,0.5,0.5c0.2,0.2,0.4,0.4,0.5,0.6
			c0.2,0.2,0.4,0.3,0.6,0.4s0.4,0.2,0.7,0.1c0.1,0.2,0.2,0.4,0.2,0.7c0,0.2,0,0.5-0.1,0.8c-0.4,0.3-0.8,0.6-1.2,0.9
			c-0.4,0.3-0.9,0.6-1.3,0.8c-0.5,0.2-0.9,0.4-1.4,0.6c-0.5,0.1-1.1,0.2-1.7,0.2c-0.1,0-0.2,0-0.3,0c-0.1,0-0.2,0-0.3-0.1
			c-0.2,0.1-0.5,0.2-0.9,0.1c-0.4-0.1-0.7,0-0.9,0.1c-0.3-0.1-0.6-0.2-1-0.2c-0.4,0-0.8,0-1.1-0.1c-0.4,0.5-0.8,1.1-1.1,1.8
			c-0.3,0.6-0.6,1.3-0.9,2c0.9,0.1,1.6,0.2,2.2,0.2c0.6,0,1.1-0.1,1.7-0.1c0.5-0.1,1.1-0.1,1.6-0.2c0.5-0.1,1.2-0.1,2.1-0.1
			c0.5-0.3,1.1-0.5,1.9-0.6c0.7-0.1,1.4-0.2,2-0.4c0.2,0.1,0.4,0.2,0.5,0.4s0.3,0.4,0.4,0.5c0.1,0.2,0.3,0.3,0.4,0.4
			c0.2,0.1,0.4,0.2,0.6,0.2c0.1,0.1,0.2,0.2,0.2,0.4c0,0.1,0.1,0.3,0.1,0.4c0,0.1,0.1,0.2,0.1,0.3c0.1,0.1,0.2,0.1,0.3,0.1
			c-0.4,0.9-0.8,1.5-1.3,2c-0.5,0.5-1.1,0.8-1.7,1c-0.7,0.2-1.4,0.4-2.2,0.5c-0.8,0.1-1.7,0.3-2.6,0.5c-0.2,0.1-0.4,0-0.6,0
			c-0.2-0.1-0.3-0.1-0.5-0.1c-0.6,0.1-1.3,0.2-2.1,0.4c-0.8,0.1-1.7,0.1-2.5,0.1c-0.9,0-1.7-0.1-2.5-0.3s-1.4-0.5-1.9-1
			c-0.2-0.2-0.3-0.4-0.4-0.6c-0.1-0.2-0.2-0.4-0.5-0.6c0-0.3-0.1-0.7-0.2-1.1c-0.1-0.4-0.2-0.9-0.2-1.3c-0.1-0.5-0.1-0.9-0.2-1.3
			c0-0.4,0-0.8,0.1-1.2c0.1-0.4,0.2-0.7,0.5-1.1c0.2-0.3,0.3-0.7,0.3-1c0.1,0,0.2-0.1,0.2-0.2c0-0.1,0.1-0.2,0.3-0.1
			c0.2-0.5,0.3-0.9,0.5-1.3c0.2-0.4,0.4-0.8,0.6-1.2s0.4-0.8,0.6-1.2c0.2-0.4,0.4-0.9,0.6-1.3c-0.4-0.3-0.6-0.7-0.8-1.1
			c-0.2-0.4-0.3-0.8-0.4-1.2c-0.1-0.4-0.1-0.8-0.2-1.2c-0.1-0.4-0.1-0.9-0.3-1.3c0.3-0.4,0.6-0.7,1-1c0.4-0.2,0.8-0.4,1.2-0.6
			c0.4-0.2,0.9-0.3,1.4-0.4c0.5-0.1,1.1-0.2,1.6-0.4c1-0.3,2-0.6,2.8-0.8c0.8-0.2,1.6-0.3,2.4-0.4c0.8-0.1,1.6-0.2,2.5-0.3
			c0.9-0.1,1.8-0.3,2.9-0.5c0.2,0.2,0.5,0.4,0.7,0.4c0.1-0.2,0.2-0.3,0.4-0.2c0.1,0.1,0.2,0,0.2-0.2c0.3,0.4,0.6,0.8,1,1.1
			C153.9,16.5,154.3,16.8,154.8,17z"/>
		<path d="M159.8,34.9c-0.3,1-0.5,1.8-0.8,2.4c-0.2,0.5-0.6,1.1-1,1.7c-0.3-0.1-0.6,0-0.7,0.1c-0.1,0.1-0.3,0.2-0.4,0.4
			c-0.2,0.1-0.4,0.1-0.5,0c-0.1-0.1-0.2-0.1-0.3-0.2c-0.1-0.1-0.2-0.1-0.3-0.2s-0.3-0.1-0.5-0.1c-0.1-0.2-0.1-0.4-0.2-0.6
			c-0.1-0.2-0.2-0.2-0.5-0.2c0.1-0.2,0.1-0.4,0-0.5c0-0.1-0.1-0.3-0.1-0.4s-0.1-0.2-0.1-0.4c0-0.1,0-0.3,0-0.4
			c-0.1,0-0.2-0.1-0.3-0.3c-0.1-0.2-0.2-0.4-0.3-0.5c0.1-0.5,0.2-0.9,0.2-1.3c0.1-0.4,0.2-0.8,0.3-1.2c0.1-0.4,0.2-0.7,0.3-1.1
			c0.1-0.4,0-0.7-0.1-1.1c0.1,0.1,0.2,0.1,0.2-0.1c0.1-0.1,0.1-0.3,0.1-0.5c0-0.2,0-0.4,0-0.6s0-0.4,0-0.5c0.3-0.7,0.5-1.4,0.6-2.1
			c0.2-0.7,0.3-1.4,0.5-2.1c0.1-0.7,0.3-1.4,0.4-2.1c0.2-0.7,0.4-1.3,0.6-1.9c0.3-0.1,0.6,0,1,0.1s0.6,0.3,0.6,0.4
			c0.7-0.5,1.3-1.2,1.8-1.9c0.5-0.7,1.1-1.5,1.6-2.2s1.2-1.3,1.8-1.9c0.7-0.5,1.5-0.9,2.5-1c0.5,0.4,1.1,0.8,1.7,1.2
			c0.6,0.4,1.2,0.9,1.6,1.6c0.2,0.1,0.4,0.2,0.5,0.3c0.1,0.1,0.3,0.2,0.5,0.4v0.5c0.3,0.3,0.6,0.6,0.8,1c0.2,0.4,0.4,0.8,0.5,1.2
			s0.3,0.9,0.5,1.3s0.3,0.8,0.5,1.2c-0.1,0.1-0.1,0.2-0.1,0.3c0,0.1,0,0.2,0.1,0.3c0,0.1,0.1,0.2,0.1,0.3c0,0.1,0,0.2,0,0.4
			c-0.1,1.1-0.4,2.1-1.1,2.8s-1.5,1.3-2.4,1.7c-0.9,0.5-1.9,0.8-3,1.2c-1.1,0.3-2,0.7-2.9,1c0,0.1,0,0.2,0.1,0.2
			c0.1,0,0.1,0.1,0.1,0.2c0.6,0.4,1.1,0.7,1.5,0.9c0.4,0.2,0.7,0.4,1,0.6c0.3,0.2,0.7,0.3,1.1,0.4c0.4,0.1,0.9,0.3,1.6,0.4
			c0.7,0.2,1.2,0.3,1.6,0.4c0.4,0.1,0.7,0.2,1,0.2c0.3,0.1,0.6,0.1,1,0.2c0.3,0,0.8,0.1,1.4,0.1c0.2,0.2,0.4,0.5,0.6,0.8
			c0.2,0.3,0.3,0.7,0.3,1c0.1,0.3,0.1,0.6,0,0.9c0,0.3-0.1,0.5-0.3,0.7c0,0.1,0.1,0.1,0.2,0.1c0.1,0,0.2,0,0.3,0
			c-0.2,0.1-0.3,0.2-0.4,0.4c-0.1,0.2-0.2,0.3-0.3,0.5c-0.1,0.2-0.2,0.3-0.4,0.4c-0.1,0.1-0.3,0.2-0.5,0.2c-0.8,0.3-1.8,0.3-3,0.1
			c-1.2-0.3-2.8-0.8-4.6-1.5c-0.9-0.4-1.7-0.7-2.3-1s-1.1-0.5-1.5-0.8s-0.8-0.6-1.2-0.9S160.3,35.3,159.8,34.9z M165.4,21.5
			c-0.3,0.4-0.6,0.8-1,1.1c-0.4,0.3-0.7,0.7-1,1c-0.3,0.4-0.6,0.7-0.9,1.2c-0.3,0.4-0.4,0.9-0.5,1.5c0.9-0.1,1.9-0.4,2.9-0.8
			c1-0.4,1.9-0.8,2.8-1.2c-0.1-0.8-0.4-1.5-0.8-2C166.4,22,165.9,21.7,165.4,21.5z"/>
	</g>
	<g>
	</g>
	<g>
	</g>
	<g>
	</g>
	<g>
	</g>
	<g>
	</g>
	<g>
	</g>
	<g>
	</g>
	<g>
	</g>
	<g>
	</g>
	<g>
	</g>
	<g>
	</g>
	<g>
	</g>
	<g>
	</g>
	<g>
	</g>
	<g>
	</g>
</g>
</svg>
