<?xml version="1.0" encoding="utf-8"?>
<!-- Generator: Adobe Illustrator 25.2.2, SVG Export Plug-In . SVG Version: 6.00 Build 0)  -->
<svg version="1.1" id="maria_x5F_jumping_xA0_Image_1_"
	 xmlns="http://www.w3.org/2000/svg" xmlns:xlink="http://www.w3.org/1999/xlink" x="0px" y="0px" viewBox="0 0 148.3 345.9"
	 style="enable-background:new 0 0 148.3 345.9;" xml:space="preserve">
<style type="text/css">
	.st0{fill:#00C0CC;}
	.st1{fill:#970000;}
	.st2{fill:#9E968C;}
	.st3{fill:#D2C8B9;}
	.st4{fill:#F7DDC2;}
	.st5{fill:#FE9800;}
	.st6{fill:#008C95;}
	.st7{fill:#B97000;}
	.st8{fill:#9F9592;}
	.st9{fill:#999287;}
	.st10{fill:#B4A18D;}
	.st11{fill:#FEFEFE;}
	.st12{fill:#F6D19B;}
	.st13{fill:#00BFCB;}
	.st14{fill:#FD9800;}
	.st15{fill:#B96F00;}
	.st16{fill:#B3A08D;}
	.st17{fill:#B76E00;}
	.st18{fill:#008B94;}
	.st19{fill:#B86F00;}
	.st20{fill:#B3A18D;}
	.st21{fill:#989186;}
	.st22{fill:#B29F8C;}
	.st23{fill:#979085;}
	.st24{fill:#008992;}
	.st25{fill:#B8B8B8;}
	.st26{fill:#B56D00;}
	.st27{fill:#AE9C89;}
	.st28{fill:#CCC3B6;}
	.st29{fill:#160D00;}
	.st30{fill:#302B26;}
	.st31{fill:#A79F93;}
	.st32{fill:#857869;}
	.st33{fill:#536763;}
	.st34{fill:#583500;}
	.st35{fill:#482B00;}
	.st36{fill:#865000;}
	.st37{fill:#663D00;}
	.st38{fill:#7A847C;}
	.st39{fill:#000101;}
	.st40{fill:#000303;}
	.st41{fill:#000404;}
	.st42{fill:#000304;}
	.st43{fill:#010101;}
	.st44{fill:#999388;}
	.st45{fill:#010100;}
	.st46{fill:#030302;}
	.st47{fill:#040403;}
	.st48{fill:#010000;}
	.st49{fill:#020100;}
	.st50{fill:#B9B9B9;}
	.st51{fill:#FDFDFD;}
</style>
<g>
	<path d="M117.8,110.9c0,0.9,0.1,1.8,0,2.6c-0.1,0.8-0.4,1.5-1.5,1c-0.1-0.1-0.4-0.1-0.5,0c-3.4,2.1-6.7,4.4-9.1,7.7
		c-0.2,0.3-0.2,1-0.1,1.4c1.2,3.5,2.5,6.9,3.7,10.4c1.7,5.1,1,9.9-2.2,14.3c-0.2,0.2-0.3,0.6-0.2,0.8c1.1,4.7,0.7,9.4-0.3,14
		c-0.7,3.2-1.6,6.3-2.2,9.4c-0.3,1.3-0.1,2.6,0,3.9c0.2,2.6,0.7,5.2,0.7,7.9c0,1.1-0.9,2.3-1.6,3.4c-0.3,0.5-0.5,0.9-0.3,1.5
		c1,2.4,1.9,4.9,2.8,7.4c0.3,0.7,0.6,1.2,1.4,1.4c2.1,0.5,2.6,2.7,1.3,4.2c-0.9,0.5-1.3-0.2-1.3-0.9c-0.1-1-0.5-1.5-1.5-1.8
		c-0.8-0.2-1.1-0.9-1.4-1.5c-0.8-2.1-1.8-4.1-2.6-6.3c-0.3-0.7-0.6-0.9-1.3-0.6c-0.5,0.3-1.1,0.4-1.7,0.6c-1.4,0.5-2.9,0.7-4.3,1
		c-0.5,0.1-1,0.1-1.5,0c-0.3-0.1-0.6-0.2-0.7-0.6c-0.1-0.4,0.1-0.6,0.4-0.8c0.3-0.2,0.6-0.3,1-0.4c2.1-0.6,4.2-1.3,6.2-2
		c-1.8,0.3-3.7,0.7-5.5,0.4c-0.4-0.1-0.8-0.2-1.3-0.1c-0.2,0,0,0-0.1,0c-1.6,0-1.6,0-1.8,1.6c-0.1,0.9-0.2,1.7-0.7,2.5
		c-0.4,0.3-0.8,0.5-1.2,0c-0.3-0.7-0.1-1.4,0-2.1c0.1-1.4-0.2-2-1.2-2.2c-0.6,0-1.2,0-1.8,0c-0.2,0,0.1,0-0.1,0c0,0,0,0,0.1,0
		c0.6,0.6,0.5,1.2,0.1,1.9c-0.4,0.6-1,0.8-1.7,0.7c-0.8-0.1-1.4-0.6-1.5-1.3c-0.1-1.2-0.8-1.1-1.6-1c-2.7,0.4-5.4,1-8.1,1.3
		c-3.7,0.3-7.3,0.4-11-0.2c-3.1-0.5-6-1.4-8.6-3c-1-0.6-1.1-0.6-1.4,0.6c-0.8,3.5-1.4,7.1-1.8,10.7c-0.2,1.9-0.3,3.7-0.4,5.6
		c-0.1,1.8,0,3.6,0,5.4c-0.3,8.1,1,16.1,3.1,23.9c2,7.4,4.1,14.8,6.6,22.1c0.5,1.5,1.1,3,1.7,4.5c0.3,0.8,0.4,1.7,0.2,2.6
		c-1.6,7.8-3.6,15.5-4.9,23.3c-0.7,3.9-1.4,7.8-1.9,11.7c-0.1,0.8,0.3,1.3,0.9,1.6c4,1.7,8.2,3.1,12.5,3.6c2.5,0.3,5,0.6,7.5,0.5
		c1.8,0,1.8,0,2.1-1.8c0-0.2,0-0.4,0-0.6c0.5-4.9,1-9.8,1.6-14.7c0.3-2.9,0.4-5.7,0.7-8.6c0.5-4.3,1.2-8.5,2.3-12.6
		c1-3.6,0.8-7.2,0.2-10.8c-0.5-3.4-0.6-6.9-0.6-10.4c-0.1-5.9-0.3-11.8-0.9-17.7c-0.2-2.3-0.2-4.7,0.1-7.1c0.1-0.7,0.3-1.3,0.7-1.9
		c1.4-1.7,2.9-3.3,4.7-4.6c0.3-0.2,0.6-0.4,1-0.5c0.5-0.1,1-0.1,1.3,0.4c0.3,0.4,0.3,0.8,0.1,1.2c-0.2,0.5-0.6,0.9-1,1.3
		c-0.6,0.5-1.2,1.2-1.8,1.7c-0.6,0.6-0.7,1-0.2,1.7c3.8,5.5,7.5,11,11.2,16.6c1.7,2.6,3.6,4.9,5.2,7.6c0.7,1.2,2.2,1.6,3.3,2.4
		c0.2,0.2,0.3,0.4,0.2,0.7c-0.2,0.6-0.7,0.8-1.2,0.8c-0.9,0-1,0.5-0.7,1.2c0.2,0.4,0.4,0.8,0.6,1.2c0.2,0.3,0.4,0.7,0.6,1.1
		c0.2,0.6,0.5,1.3-0.1,1.8c-0.6,0.5-1.1,0-1.6-0.3c-2.6,7.5-5.9,14.6-8.5,22.1c-0.8,2.4-0.9,2.4,1.6,3.2c5.7,1.7,11.5,2.4,17.3,3.1
		c1.6,0.2,3.3,0.2,4.9,0.2c1.7,0,1.8-0.1,1.8-1.8c0-0.2,0-0.3,0-0.5c0.1-4.4,0.6-8.8,1.1-13.2c0.5-4.2,1.1-8.3,2.3-12.3
		c1-3.4,0.5-6.6-0.6-9.9c-2.3-6.5-5.2-12.7-7.8-19.1c-2.5-6-5-12-7.9-17.9c-0.2-0.4-0.4-0.9-0.4-1.4c0-0.5,0.1-1,0.8-0.8
		c0.5,0.6,1.1,1.1,1.4,1.7c2.8,5.9,5.6,11.7,8.3,17.7c2.4,5.4,4.6,11,6.9,16.5c0.7,1.7,1.4,3.4,2.1,5.1c0.1,0.3,0.2,0.5,0.3,0.8
		c0.5,3.3,0.6,6.6-0.9,9.8c-0.8,1.8-1.1,4-1.3,6c-0.7,6-1.2,12.1-1.8,18.1c-0.1,0.6-0.1,1.2-0.2,1.8c-0.1,1.1-0.8,1.7-1.8,1.7
		c-1.7,0.1-3.4,0.1-5.1,0.1c-0.5,0-0.9-0.1-1,0.6c-1.3,7-2.6,14.1-3.9,21.1c-0.2,1.1-0.2,2.1-0.4,3.2c-0.2,1.3,0.1,2.4,0.8,3.5
		c2,3.5,3.9,7.1,5.8,10.7c1.7,3.2,3.7,6.3,6.2,9c2.1,2.2,1.6,4.8,0.4,7.1c-0.5,0.9-1.8,1.3-3.1,0.9c-2.6-1-5.1-2-7.7-3.1
		c-4.6-1.9-8.1-5-11.1-8.9c-0.6-0.8-1.3-1.4-2-2.1c-0.9-0.9-2-1.4-3.4-1.1c-0.6,0.1-1.4-0.1-1.9-0.4c-1.9-1.5-3.7-3-5.5-4.6
		c-0.3-0.3-0.4-1.1-0.3-1.6c0.8-3.4,2.4-6.4,4.9-8.9c1.6-1.5,2.3-3.4,2.3-5.5c0.1-3.6,0.1-7.3,0.3-10.9c0.2-3.7,0.5-7.4,0.9-11.1
		c0.1-0.7,0-1-0.7-1.3c-1.4-0.5-2.8-1.2-4.2-1.7c-1.2-0.4-1.3-1.2-1-2.3c1.1-3.2,2.2-6.4,3.4-9.6c1.7-4.5,3.6-8.9,5.5-13.3
		c0.5-1.2,0.6-2.4,0.7-3.7c0.4-2.8-1-4.8-2.4-6.8c-5.1-7.5-10.4-14.8-14.7-22.8c0-0.1-0.1-0.1-0.1-0.2c-1.1,0.4-1.3,1.1-1.1,2.2
		c1.2,9.3,1.9,18.6,2,28c0,1.5,0.4,2.9,0.7,4.3c0.7,3.5,0.6,7-0.1,10.5c-1.7,7.9-2.6,15.9-3.3,24c-0.4,5.3-1.3,10.6-1.9,15.9
		c-0.1,1.2-0.6,1.7-1.8,1.8c-1.1,0-2.2,0.2-3.3,0.2c-0.7,0-1.1,0.2-1.2,0.9c-0.7,4.8-1.3,9.5,0,14.3c1.4,5.2,2.6,10.4,3.8,15.6
		c0.2,1,0.4,2.2,0.3,3.2c-0.1,0.9-0.5,2-1.2,2.6c-3.1,2.9-7,4-11,3.4c-3.7-0.6-7.2-2.4-10.2-4.7c-1.6-1.2-1.9-2.8-1.4-4.6
		c0.7-2.3,1.5-4.6,2.2-7c2.1-7.1,3.4-14.3,3.7-21.7c0-0.4,0-0.9,0.1-1.3c0.2-2.6,0.2-2.6-2.3-3.5c-1.5-0.5-2.9-1.2-4.5-1.8
		c-1-0.3-1.3-1-1.2-1.9c0.7-4.9,1.3-9.7,2.3-14.6c1.4-6.8,3-13.6,4.7-20.3c0.4-1.5,0.3-2.8-0.2-4.2c-1.2-3.4-2.3-6.9-3.4-10.3
		c-1.9-6-4.1-11.9-5.7-17.9c-3.7-14.1-3.7-28.3-0.4-42.5c0.5-2,0.7-3.8,0-5.7c-0.4-1.3-0.4-2.8-0.5-4.1c0.3-0.5,0.1-1,0.1-1.5
		c0.7-1.4,1.3-2.8,2.2-4.1c1.9-2.7,4-5.3,6.1-7.9c1.2-1.6,1.2-1.5,0.3-3.3c-1.9-3.6-4-7.2-5.6-11c-1.2-2.7-1.9-5.7-2.7-8.5
		c-0.2-0.7-0.3-1-1-0.5c-4.7,2.6-9.5,5.2-14.1,7.9c-4.7,2.7-9.7,3.8-15.1,2.8c-5.1-0.9-8.1-6.8-6.8-11.3c1.4-4.7,4-8.8,6.8-12.8
		c1-1.4,2-2.8,3.2-4.1c0.5-0.6,0.5-1,0-1.5c-0.2-0.2-0.4-0.4-0.5-0.6c-0.9-1.1-0.9-1.7,0.1-2.7c1.4-1.5,2.7-3,4.1-4.5
		c2.7-2.8,5.4-5.8,8.3-8.5c2.4-2.2,5.1-4.3,7.7-6.3c2.3-1.8,5-2.7,7.9-2.6c0.5,0,1,0,1.6,0c1.6,0.2,2.8,0,3.7-1.8
		c1-1.8,2.5-3.5,4.2-4.7c2.2-1.6,1.1-3.7,1.5-5.5c0-0.2-0.5-0.6-0.8-0.8c-2.5-2.1-5-4.2-6.5-7.1c-0.8-1.5-1.7-2.1-3.4-2.4
		c-5.9-1.1-10-6.5-9.8-12.4c0-0.4-0.2-1-0.6-1.3c-4.9-3.5-8.6-8-11-13.5c0-0.1-0.1-0.2-0.4-0.5c-0.2,1.4-0.5,2.5-0.6,3.6
		c-0.4,4.9,0.4,9.6,2.6,14.1c0.3,0.6,0.4,1.7,0.1,2.2c-0.5,0.8-1.5,0.4-2.2,0c-1.2-0.7-2.3-1.5-3.4-2.2c-0.3-0.2-0.7-0.5-0.9-0.4
		c-2.3,1.4-4.6,0.5-6.8-0.2c-0.3-0.1-0.6-0.2-0.8-0.1c-2.6,1.5-4.9,0.5-7.1-0.7c-1.4-0.7-2.2-1.9-2.5-3.5c-0.3-1.7-0.5-3.4-0.8-5.3
		c-0.3,0.5-0.6,0.9-0.8,1.3c-0.4,0.8-0.7,1.6-1.3,2.3C5.4,60.3,4.8,61,4.2,61c-0.4,0-1.2-0.8-1.4-1.4c-0.9-2.8-2-5.7-2.4-8.6
		c-1.1-7.3,0-14.3,3.7-20.7c3.9-6.6,9.8-10.7,17.2-12.4c2.3-0.5,4.7-0.7,7-0.7c1.2,0,2.1,0,3-0.9c1.1-1.1,2.5-1.2,3.9-0.5
		c1.6,0.9,2.5,0.4,3.8-0.8c4.3-3.9,9.4-6.8,15.2-8.1c0.4-0.1,0.9-0.3,1.3-0.6C63-0.5,71.7-1.5,81,1.9c11.7,4.4,18.7,13,21.4,25.1
		c0.6,2.9,0.7,6,1,9c0.1,0.8-0.2,1.7-0.5,2.6c-0.3,1-1.1,1.3-2.1,0.8c-0.3-0.2-0.7-0.3-1-0.5c-0.7-0.5-1-0.3-1.6,0.3
		c-1,1-2.2,1.8-3.5,2.8c0.1,0.1,0.3,0.3,0.5,0.5c4.2,4.4,6.3,9.5,5.6,15.7c-0.1,0.9-0.6,1.1-1.4,0.6c-0.4-0.2-0.8-0.4-1.2-0.6
		c-0.1-0.1-0.3-0.1-0.6-0.2c0.1,0.5,0.1,0.8,0.2,1.2C99,66.7,99,74,96.5,81.1c-1.5,4.3-3.7,8.1-7.2,11c-0.3,0.3-0.7,0.5-1.1,0.7
		c-0.4,0.2-0.8,0.4-1.2,0.6c0.3,0.6,0.6,0.7,1.3,0.4c1.3-0.6,2.9-1,4.4-1.1c2.9-0.3,5.9-0.3,8.8-0.6c2.7-0.3,5.3-0.9,8-1.3
		c0.3,0,0.7-0.1,0.8,0c0.8,0.9,1.4,0.1,2.2-0.2c4.9-2.1,9.9-4.1,14.8-6.1c0.4-0.2,1-0.8,1-1.2c0-6.8,2.3-13,4.3-19.3
		c0.9-2.7,1.7-5.5,2.6-8.2c0.2-0.6,0-0.8-0.5-1.1c-2.3-1.4-4.6-2.7-6.6-4.5c-1.6-1.5-1.6-3.7-1.2-5.8c0.2-1,0.3-1.8-0.4-2.7
		c-0.3-0.5-0.3-1.4-0.1-2.1c0.6-2.3,1.9-4.3,3.9-5.6c1.5-1,3.1-1.7,4.8-2.4c1.3-0.6,2.4-0.2,3.4,0.8c1.4,1.4,2.9,2.7,4.3,4.1
		c2.4,2.4,3.5,5.5,4.3,8.7c1.3,5,1.4,10,0.9,15.1c-0.5,5.4-0.9,10.7-1.6,16.1c-0.6,4.7-1.4,9.5-2.3,14.2c-0.3,1.7-0.9,3.5-1.5,5.1
		c-1,2.6-3.2,4-5.5,5.1c-6.3,3-12.7,5.8-19.1,8.6C117.5,109.8,118,110.4,117.8,110.9z"/>
	<path class="st0" d="M107.5,245.8c-0.1-0.2-0.2-0.3-0.2-0.5c-0.6-0.4-0.5-0.9-0.1-1.3c0.7-1,0.6-2,0-3c-1.2-2.1-2.7-3.8-4-5.8
		c-3.7-5.6-7.5-11.1-11.4-16.6c-0.6-0.8-1.2-1.6-1.9-2.3c-0.3-0.3-0.6-0.5-0.5-1c0.4-0.5,0.8-0.9,1.1-1.4c0.2-0.3,0.1-0.8,0-1.1
		c-0.1-0.2-0.7-0.3-0.9-0.2c-2.6,1.5-5.1,3.4-6,6.2c-0.7,2.3-0.4,5.1-0.3,7.6c0.2,4.7,0.7,9.5,0.8,14.2c0.2,5.7,0.2,11.5,1.2,17.2
		c0.3,1.8,0.1,3.8-0.3,5.6c-2,7.9-2.9,15.9-3.5,23.9c-0.3,4.6-1,9.2-1.4,13.8c-0.2,0.8-0.8,0.8-1.4,0.8c-6-0.4-11.9-1.1-17.7-2.8
		c-1.6-0.5-1.8-0.7-1.5-2.4c2-10.1,3.4-20.3,5.3-30.5c0.2-0.9,0.3-1.6,1.5-1.4c0.8,0.2,1.3-0.6,1-1.6c-0.3-1.3-0.9-2.5-1.3-3.7
		c-0.3-0.7-0.5-1.3-0.8-2c-0.2-0.6-0.3-1.2,0.1-1.7c0.7-1.2,0.6-2.4,0.1-3.7c-2.3-5.8-4.7-11.6-6.7-17.5c-2.3-6.6-3.9-13.4-4.8-20.4
		c-0.4-3-0.3-6-0.5-9c-0.1-1.1-0.2-2.2-0.3-3.3c0-0.4-0.1-0.9-0.5-1.2c-0.7-0.6-0.8-1.3-0.6-2.2c0.6-4.1,1.2-8.3,1.9-12.5
		c0.4,0.2,0.6,0.2,0.8,0.4c5.3,3.6,11.2,4.1,17.3,3.9c1,0,2.1-0.1,3.1-0.1c0.4,0.4,1.2,0.5,0.9,1.3c-0.3,0.2-0.8,0.1-1.3,0.5
		c2.7,0.5,5.3,1.1,7.9,0.5c2.5,0,4.9,0.3,7.4,0.2c0.4,0,0.7,0.1,1,0.4c0.3,0,0.7,0,1,0c0.7-0.4,1.4-0.5,2.2-0.5
		c2.1-0.1,4.3-0.3,6.2-1.2c0.9-0.3,1.9-1.1,2.6-0.9c0.5,0.1,0.8,1.5,1.1,2.3c0.7,1.7,1.4,3.5,2.2,5.2c0.2,0.5,0.7,0.9,1.2,1.1
		c0.9,0.4,1.6,0.7,1.4,1.9c-0.1,0.7,0.3,1.1,1.1,1c0,0.3,0,0.6,0,0.9c-0.2,0.3-0.5,0.6-0.5,0.9c0.1,0.5,0.3,1,0.5,1.5
		c5.5,12.2,10.8,24.4,15.6,36.9c1.3,3.5,1.5,7.1,0.4,10.7c-1.7,5.6-2.2,11.4-2.8,17.2c-0.3,2.5-0.3,5-0.5,7.5c-0.1,0.5-0.2,1-1,0.8
		c-4.3-1.1-8.8-1.4-13.2-2.2c-2.3-0.4-4.6-0.8-6.9-1.4c-1.5-0.4-1.7-0.7-1.2-2.2c1.4-4.5,3-8.9,4.9-13.2c0.7-1.6,1.3-3.2,1.9-4.9
		c0.6-1.9,0.6-1.9,2.7-1.7c0.6,0.2,0.9,0.8,2,0.8c-1.4-1.8-1.4-4.2-3.2-5.6C108,247.4,107.5,246.7,107.5,245.8z"/>
	<path class="st1" d="M117.8,110.9c-0.1-0.6-0.7-1.2,0.3-1.7C118,109.8,117.9,110.4,117.8,110.9z"/>
	<path class="st2" d="M50.8,178.1c0,0.5-0.1,1-0.1,1.5C50.7,179.1,50.7,178.6,50.8,178.1z"/>
	<path class="st3" d="M74.4,110.2c0.4,0.9,0.9,1.8,1.9,2.1c0.2,0.4,0.7,0.6,0.5,1.1c-0.5,0.6-0.2,1.2,0.1,1.8
		c3.6,9,5.9,18.3,7.6,27.8c0.2,1.1,0.4,2.2,0.4,3.3c0,0.6-0.1,1.1-0.7,1.4c-2.4,0.8-4.7,1.7-6.8,3.2c-0.8-0.3-1.6-0.1-2.4,0
		c-3.7,0.5-7.2,0.1-10.6-1.5c-1.2-0.6-2.1-1.6-3-2.6c-0.3,0.4,0,0.7,0.1,0.9c0.9,1.8,2.3,3.1,4.2,3.7c2.6,0.8,5.2,1.2,7.9,1.1
		c1.3,0,2.5-0.5,3.7-1c1.6,1.4,3.3,0.8,5,0.4c0.4-0.1,0.8-0.2,1.3-0.3c1.5-0.3,1.6-0.2,2.1,1.3c0.2,5.4,0.5,10.7,0.2,16.1
		c-0.2,2.7-0.3,5.5-0.5,8.2c-0.1,0.7,0.1,1.4,0.2,2c0,0.2,0,0.5,0,0.7c0,0.6-0.5,1.3,0.4,1.7c0.1,0,0,0.2-0.1,0.3
		c-0.7-0.6-1-0.2-1.2,0.4c-0.4,1-0.7,2.1-1,3.2c-0.2,0.5-0.7,0.6-1.2,0.6c-2.2,0.3-4.4,1-6.6,1c-6.2,0.1-12.3-0.2-17.8-3.7
		c-0.8-0.5-1.6-1-2.4-1.3c-1.3-0.4-1.6-1-0.8-2.2c0.9-1.5,1.9-2.9,2.7-4.4c1.7-2.9,3.7-5.6,5.3-8.6c0.3-0.6,0.7-1,1.4-0.6
		c0.7,0.3,1.4,0.5,2-0.2c0.5-0.7,0.3-1.5,0-2.2c-1-1.9-2.2-3.7-3.3-5.6c-2.1-3.6-3.9-7.4-5.3-11.3c-0.7-2-1.4-3.9-2.5-5.7
		c-0.2-0.3-0.4-0.7-0.2-1.1c1.4-1.1,3-0.5,4.5-0.4c1.9,0.1,3.5-0.1,5-1.4c0.6-0.5,1.6-0.7,2.4-0.7c1.9,0.1,3.2-0.7,4.2-2.2
		c0.5-0.7,1-1.5,1.4-2.2c1-2,0.6-3.5-1.1-5c-1.6-1.4-2.8-3.2-3-5.4c-0.2-2.3-1-2.9-3.3-3c-3.6-0.1-6.2,1.9-9,3.8
		c-0.7,0.5-1.2,1-1.8,1.5c-0.2,0.1-0.3-0.1-0.4-0.2c0-0.3,0.1-0.6,0-0.8c0-1.1-0.7-1.7-1.8-1.4c-0.4,0.1-0.7,0.2-1,0.5
		c-2.6,2.2-5.5,3.9-7.8,6.5c-0.5,0.6-1,1.3-1.6,1.8c-1.3,0.4-2.5,0.8-3.8,1.1c-0.3,0.1-0.9-0.2-1.2-0.5c-2.4-2.5-4.7-5.1-7.2-7.6
		c-1-1-2.3-1.8-3.6-2.6c-0.5-0.3-0.7-0.5-0.2-1c5.6-6.4,11.7-12.3,18.5-17.6c2.6-2.1,5.6-2.9,8.9-3.1c2.2-0.1,3.3,0.4,4.5,2.3
		c2.4,4,5.5,7.6,9.1,10.7c1.2,1,1.6,0.9,2.3-0.5c0.3-0.3,0.5,0,0.7,0.1c1,0.7,1.7,0.6,2.4-0.4c0.5-0.6,0.9-1.4,1.4-2.1
		C73.6,110.4,73.8,109.9,74.4,110.2z"/>
	<path class="st4" d="M58.3,48.3c0.9-0.7,0.5-1.4,0-2.1c-3.7-4.6-4.4-10-4-15.6c0-0.3,0.1-0.5,0.2-0.8c0.5-0.1,0.7,0.3,0.9,0.6
		c1.8,2.7,4.1,5,6.7,6.9c0.3,0.2,0.7,0.4,0.6,0.9c-0.7,1.1-1.4,2.1-2,3.2c-0.3,0.5-0.3,1.2-0.2,1.8c0,0.4,0.4,0.8,0.6,1.2
		c0.3-0.3,0.7-0.5,0.9-0.9c0.7-1.4,1.5-2.8,2.9-3.6c0.1,0,0.2-0.1,0.3-0.1c2.3,0.4,4.2-0.7,6.2-1.5c0.7-0.3,1.4-0.6,2.2-0.6
		c1.2-0.1,2.2-0.5,2.8-1.7c0.1-0.1,0.3-0.2,0.4-0.2c0.3-0.3,0.7-0.4,1-0.1c1.3,1.2,2.8,1,4.4,0.5c0.9-0.3,1.7-0.5,2.7-0.2
		c0.4,0.2,0.8,0.5,1.2,0.7c0.6,0.3,0.9,0.1,0.8-0.6c0.2-1,0.6-1.2,1.7-0.8c2.3,6.2,4.1,12.5,5.5,18.9c1.2,5.3,2.3,10.7,2.1,16.2
		c-0.2,4.8-1.1,9.5-3.3,13.8c-1,1.5-2.1,2.8-3.4,4c-2.5,2.2-5.4,2.7-8.6,2.2c-4.3-0.6-8.3-2.3-12-4.5c-3.1-1.8-5.9-3.9-8.7-6.1
		c-0.8-0.7-1.4-1.5-2.1-2.3c-0.4-0.8-0.9-1.5-1.2-2.3c-0.3-1.1-0.9-1.3-1.9-1.3c-4.7,0.3-9.4-3.5-10.1-8.1c-0.3-1.7,0.1-3.3,1.6-4.2
		c1.6-1,3.2-0.8,4.7,0.2c2.3,1.4,3.7,3.5,4.8,5.9c0.2,0.4,0.6,1.1,1,1.1c0.8,0.1,1.6-0.3,1.7-1.1c0.2-1,0.4-2.1,0.3-3.2
		c-0.4-4.7-2.6-8.5-5.7-11.9c-0.3-0.3-0.6-0.6-0.9-1c-0.4-0.5-1-0.9,0.2-1.3c0.2-0.1,0.3-0.9,0.3-1.3c0-0.4-0.4-0.8-0.5-1.1
		c0-0.7,0.5-0.4,0.7-0.3c0.4,0.2,0.8,0.4,1.3,0.6C55.6,48.7,56.9,48.9,58.3,48.3z"/>
	<path class="st3" d="M85.9,113.3c2.3-2.7,3.4-6,4.3-9.4c0.6-2.2,0.5-4.4,0.1-6.6c-0.1-0.5-0.5-1-0.9-1.4c-0.5-0.5-0.6-0.8,0.3-0.9
		c3.8-0.3,7.6-0.6,11.4-1c2.5-0.3,5-0.6,7.4-1.1c2-0.4,2-0.6,2.8,1.3c2,4.4,3.2,9,3.8,13.8c-2.2,1.6-4.5,3-6.7,4.6
		c-1.9,1.4-3.8,2.8-5,4.9c0.2,1.3,0.2,2.7,0.5,4c1.2,4,2.6,8.1,3.9,12.1c1.2,3.6,1.6,7.3-0.2,10.8c-0.7,1.3-1.7,2.5-2.5,3.7
		c-0.3,0.4-0.8,0.7-1,1.2c-0.2,0.3-0.2,0.9,0,1.2c0.2,0.3,0.8,0.4,1.1,0.3c1-0.5,0.9,0.2,0.9,0.8c0.6,4.1-0.2,8.2-0.8,12.3
		c-0.4,2.2-0.7,4.5-1.2,6.7c-0.2,1.3-0.9,2.5-0.9,3.7c-0.1,1.9,0.2,3.8,0.4,5.7c0.1,0.8,0.3,1.6,0.3,2.4c0,0.5-0.2,1-0.4,1.6
		c-1,0.4-1.9,0.8-2.9,0.2c-0.3-0.1-0.7-0.4-1-0.4c-0.4,0-0.9,0.3-1.3,0.4c-1.9,0.4-3.7,0.4-5.6,0.7c-0.4,0.1-1.1,0.3-1.2-0.5
		c0-2.7,0.1-5.4,0-8.1c0-0.6,0.1-1.4-0.9-1.2c-0.2-0.6-0.2-1.3-0.6-1.9c-0.1-0.1,0-0.4,0.2-0.5c0.6-0.3,0.6-0.8,0.7-1.3
		c0.1-2.9,0.5-5.9,0.5-8.8c0-3.7,0.3-7.4,0.2-11.1c0-0.4,0-0.7,0.2-1.1c0.9-1,2.2-0.8,3.4-0.9c1.1-0.1,2.3-0.3,3.4-0.3
		c0.4,0,0.7-0.1,1-0.3c0.7-0.3,1.2-0.9,1.2-1.7c0-0.8-0.6-1.3-1.3-1.5c-1.1-0.4-2.3-0.5-3.4-0.3c-0.9,0.2-1.9,0.2-2.8,0.3
		c-0.5,0.1-1,0.1-1.5-0.2c-0.4-0.4-0.5-1-0.6-1.5c-0.9-6.6-2.7-13-4.8-19.3c-0.8-2.3-1.7-4.6-2.4-7c-0.2-0.6-0.4-1.1-0.3-1.8
		c0-0.1,0.1-0.3,0.2-0.3C85.1,115.4,85.6,114.4,85.9,113.3z"/>
	<path class="st5" d="M31,38.2c-0.2-3.2,0.5-6.3,1.4-9.4c0.2-0.6,0.4-1.2-0.4-1.5c-0.1-0.7,0.1-1.3,0.7-1.7c0.4-0.4,0.9-0.8,1.2-1.3
		c4.1-7,10.2-11.4,17.7-14.1c0.1,0,0.2,0,0.3,0c-0.4,0.8-0.8,1.5-1,2.2c-0.1,0.4,0.1,0.9,0.2,1.3c0.4-0.2,0.8-0.4,1.1-0.7
		c3.5-5,8.1-8.7,14.2-9.9c2.4-0.5,4.9-0.2,7.3-0.2c1.1,1,2.6,1.2,3.9,1.8c2.9,1.1,5.6,2.5,8.1,4.2c0.8,0.6,1.2,1.2,0.9,2.3
		c-0.4,1.5,1.4,3.6,3.1,3.7c0.4,0,0.8,0,1.2,0.2c0.8,1.5,1.8,2.8,2.3,4.4c1.4,3.8,2.1,7.7,1.9,11.8c0,0.4-0.3,0.8-0.4,1.2
		c-0.6-0.3-1.3-0.4-1.4-1.3c-0.3-2-0.5-4-1.1-5.9c-1.9-5.8-5.2-10.5-10.7-13.5c-0.8-0.4-1.6-0.7-2.5-0.9c-0.3-0.1-0.8,0.2-1.2,0.3
		c0.2,0.3,0.4,0.7,0.7,1c1.9,1.4,4.1,2.5,5.8,4.2c3.9,3.7,5.4,8.6,6.2,13.8c0.1,0.6,0,0.9-0.7,0.8c-2.8-0.4-5.5,0-8.1,1.2
		c-0.7,0.3-0.9,0.1-1.2-0.5c-2.5-4.8-6-8.7-11-10.8c-2.7-1.1-5.6-2-8.3-3.2c-0.5-0.2-1.2,0-1.8,0c0.4,0.4,0.8,0.8,1.2,1.1
		c5.8,3.3,9.9,8.1,12.9,14c0.3,0.6,0.2,0.8-0.4,0.8c-2,0.2-3.8,0.7-5.5,1.8c-0.3,0.2-1,0-1.4-0.2c-3.4-1.8-6.1-4.3-8.4-7.3
		c-2.2-2.8-4.1-5.7-4.8-9.3c-0.2-1-0.7-1-1.6-0.2c-0.5,1.1-0.1,2.2,0.2,3.3c0.3,1.3,0.7,2.7,1.3,4c0.2,0.5,0.4,1,0.3,1.6
		c-1.5,4.8-1.4,9.6,0,14.4c0.1,0.5,0.3,1,0.5,1.5c0.2,0.4,0.3,0.9,0.6,1.6c-2.5-1.7-4.1-3.7-5.4-6.1c-1.5-2.7-2.5-5.5-2.9-8.6
		c-0.1-1.2-0.4-1.3-1.5-0.7c-1,0.8-1.2,1.9-1.1,3c0.3,3.7,1.6,7,3.8,9.9c0.4,0.5,0.8,1.1,1.1,1.7c0.5,1.4,1,2.8,1.5,4.1
		c-1.2,0.2-2.4,0.5-3.6,0.6c-0.3,0-0.8-0.3-1-0.5c-2-2.8-2.6-6.1-2.9-9.4c-0.1-0.9-0.1-1.8-0.2-2.7c0-0.3-0.2-0.5-0.4-0.8
		c-0.2,0.2-0.6,0.4-0.7,0.6c-0.2,1.4-0.4,2.9-0.6,4.3c0,0.2,0,0.3,0,0.5c0.3,0.5-0.1,1.2,0.2,1.7c0,0.1,0,0.2,0,0.2
		c-0.9,1-1.9,0.2-2.9,0.1c-0.8-0.7-0.7-1.7-0.8-2.6c-0.1-2-0.1-4.1,0.5-6c0.2-0.5,0.5-1.3-0.3-1.6c-0.8-0.3-1.1,0.5-1.3,1.1
		c-0.5,1.3-0.8,2.7-0.7,4.1c0,0.8,0,1.7,0,2.5c-0.1,0.5,0.1,1.1-0.4,1.4c-0.6,0.3-1.1-0.1-1.5-0.5C32.5,40.3,31.3,39.6,31,38.2z"/>
	<path class="st4" d="M114.2,92c3.5-1.4,7.1-2.9,10.6-4.3c1-0.4,2-0.9,3.1-1.4c0.3-0.1,0.6-0.3,0.8-0.2c1.5,0.4,1.7-0.7,1.8-1.7
		c0.4-2.9,0.4-6,1.1-8.8c1.9-6.9,4.1-13.7,6.2-20.5c0.1-0.2,0.1-0.4,0.2-0.6c1-0.6,2.2-0.8,2.8-2c0.9-0.2,0.6-0.6,0.2-1.2
		c-1.3-1.8-2.1-3.8-1.7-6.1c0.1-0.5,0.3-1,0.6-1.4c0.3-0.4,0.8-1,0.3-1.4c-0.5-0.4-1.2-0.3-1.8,0.1c-0.4,0.2-0.5,0.7-0.9,1
		c-0.7,0.5-1.5,0.4-2.2,0.1c-2.3-1-4.7-2-6.8-3.4c0.1-0.4,0-0.8,0.2-1.1c1.5-2.9,4-4.5,6.9-5.6c0.3-0.1,0.7,0.1,1,0.3
		c2,1.7,4,3.3,5.9,5c0.3,0.3,0.5,0.7,0.7,1.1c0.2,0.5,0.3,1.1,0.5,1.6c2.6,6.9,3,14,1.9,21.2c-0.9,6-1.5,12-2.3,18
		c-0.3,2.6-0.8,5.1-1.2,7.7c-1.4,2.1-2.6,4.2-4.9,5.4c-3.9,1.9-7.8,3.8-11.7,5.5c-1.9,0.8-3.7,1.7-5.5,2.6c-1.1,0.5-1.4,0.4-1.7-0.7
		c-0.8-3-2.2-5.7-3.7-8.4C114.3,92.5,114.1,92.2,114.2,92z"/>
	<path class="st4" d="M31.4,134.7c-2.2,0.9-4.4,1.7-6.6,2.8c-1,0.5-1.9,1.4-2.7,2.1c-0.2,0.2-0.1,0.6-0.2,1c0.3,0,0.7,0.2,0.9,0
		c3.2-2.3,6.9-3,10.5-4.1c5-1.6,10.1-2.9,15.2-4.3c0.3-0.1,0.6-0.2,0.9-0.3c1.4-0.4,2.6-1.1,3.7-2.2c2.4-2.3,5-4.3,7.6-6.4
		c1.4-1.1,3-1.4,4.8-1.2c0.3,0,0.8,0.4,0.9,0.7c0.1,0.4,0.1,1-0.1,1.3c-0.7,0.7-0.3,1.3,0.1,1.8c1.2,1.9,2.5,3.7,3.7,5.6
		c0.3,0.6-0.2,0.7-0.6,0.7c-1.7,0.2-3.1,1.2-4.7,1.7c-2.2,0.8-4.3,1.9-6.7,1.6c-2.4-0.2-4.4,0.6-6.5,1.7c-5.7,3.2-11.5,6.2-17.1,9.4
		c-3.6,2-7.4,3.2-11.5,3.2c-0.6,0-1.1-0.1-1.7-0.2c-1.1-0.2-2.2-0.3-3.3,0.2c-2.3-1.5-2.3-3.9-1.8-6.1c0.6-2.5,1.6-4.9,2.9-7.2
		c1.7-3.1,3.9-6,5.8-9c0.3-0.1,0.5,0.1,0.7,0.2c2.1,1.9,3.9,4,5.7,6.2C31.5,134.1,31.7,134.4,31.4,134.7z"/>
	<path class="st6" d="M51.8,198.7c0,0.7,0,1.5,0.9,1.9c0.3,0.2,0.5,0.9,0.6,1.4c0.2,2,0.5,4,0.5,5.9c0,5.7,1,11.3,2.3,16.9
		c1.6,7.1,4.2,14,6.9,20.7c0.9,2.4,1.9,4.7,2.8,7.1c0.5,1.2,0.3,2.4-0.4,3.5c-0.2,0.4-0.1,1,0.1,1.5c0.6,1.8,1.4,3.6,2,5.5
		c0.5,1.7-0.2,2.4-1.9,2c-0.1,0-0.5,0.2-0.5,0.3c-1,5.8-1.9,11.7-2.9,17.5c-0.6,3.3-1.2,6.5-1.8,9.7c-0.3,1.6-0.5,3.1-0.9,4.7
		c-0.2,0.8,0.2,1.1,0.8,1.2c4.6,1.1,9.1,2.4,13.8,2.5c1.4,0,2.8,0.3,4.3,0.4c0.5,0,1-0.3,1.5-0.4c0,0.1,0,0.2,0,0.2
		c-0.3,2.4-0.3,2.4-2.8,2.4c-7.1,0-13.9-1.4-20.3-4.3c-0.8-0.3-0.9-0.7-0.8-1.5c0.6-3.4,1-6.8,1.7-10.2c1.2-6.1,2.5-12.3,3.8-18.4
		c0.5-2.5,1.1-5,1.6-7.5c0.1-0.4,0-0.8-0.2-1.1c-4.3-11.4-7.7-23-10.2-34.9c-1.7-7.8-1.6-15.7-1.2-23.6
		C51.6,201.1,51.7,199.9,51.8,198.7z"/>
	<path class="st5" d="M14.6,50.7c-0.9,2.5-0.4,4.9,0.3,7.3c0.5,1.6,1.1,3.2,1.8,4.7c0.3,0.7,0.2,1.2-0.5,1.1c-1.5-0.3-3-0.6-4.4-1.1
		c-0.3-0.1-0.6-0.8-0.7-1.3c-1-4.4-1-8.8,0.3-13.1c0.4-1.5,0.9-2.9,1.3-4.3c0.1-0.4-0.1-0.8-0.1-1.2c-0.4,0.1-0.8,0.3-1.2,0.4
		c-2.6,2.1-4.4,4.7-5.7,7.7c-0.5,1.1-0.9,2.1-1.2,3.2c-0.1,0.4-0.2,0.9-0.8,0.8c-2.5-10.9-1.5-20.9,7-29.1c4-3.9,9-6.1,14.6-6.6
		c1.1-0.1,2.2-0.2,3.3-0.3c0.1,0,0.4,0.4,0.4,0.6c-0.4,1.1-1,1.8-2.4,2c-4.1,0.7-7.5,3-10.5,5.9c-3.8,3.6-6.3,8-7.4,13.1
		c-0.1,0.3-0.2,0.7-0.1,1.1c0.1,0.4,0.4,0.8,0.6,1.2c0.3-0.3,0.6-0.6,0.7-1c0.7-1.5,1.1-3.1,2-4.4c2.8-4.5,6.7-7.8,11.7-9.7
		c0.3-0.1,0.6-0.4,0.9-0.6c0.3-1.1,0.9-1.4,2.1-1.2c0,0.1,0,0.2,0,0.2c-0.2,0.4,0,0.8-0.2,1.2c0,0.8,0,1.5,0,2.3
		c0.2,0.7-0.1,1.1-0.8,1.2c-1-0.1-1.7,0.4-2.3,1.1c-1.1,1.2-1.8,2.6-2.9,3.8c-2.9,3.4-4.4,7.3-5,11.7C15,48.4,15.1,49.6,14.6,50.7z"
		/>
	<path class="st4" d="M113.5,286.6c-0.9,5-1.9,10-2.7,15c-0.4,2.7-0.5,5.4-0.7,8.1c0,0.4,0.2,0.9,0.4,1.3c2.3,4.2,4.6,8.4,6.9,12.6
		c-2.8,1.2-4.2,0.9-6.4-1.8c-2.7-3.2-5.1-6.6-7.7-9.9c-1.1-1.4-2.4-2.8-3.5-4.2c-0.2-0.3-0.4-0.8-0.3-1.1c0.9-2.8,1.2-5.7,1.1-8.6
		c-0.1-4.6,0-9.2,0.1-13.8c0.1-0.2,0.1-0.4,0.1-0.6c-0.1-0.6,0.2-0.8,0.8-0.7c3.6,0.9,7.3,1.7,10.9,2.6
		C113.1,285.6,113.8,285.8,113.5,286.6z"/>
	<path class="st7" d="M14.6,50.7c0-5.3,1.4-10.2,4.6-14.5c0.3-0.3,0.6-0.6,0.9-0.9c0.4,0.7-0.1,1.2-0.4,1.8
		c-1.4,2.9-2.2,5.9-2.1,9.1c0,0.5-0.2,1.3,0.5,1.4c0.6,0,0.5-0.8,0.5-1.3c0.3-1.8,0.4-3.7,0.9-5.5c0.8-2.7,2.1-5.2,3.7-7.4
		c0.6-0.9,1.3-1.8,1.9-2.8c0.3-0.3,0.7-0.7,1-1c0.2,1.6,0.7,2.9,2.2,3.7c0.2,0.1,0.3,0.6,0.2,0.9c-0.7,3.6-0.3,7.2,0.6,10.8
		c0.1,0.4,0.1,0.9-0.1,1.2c-1.9,4-2.2,8.2-1.7,12.4c0.2,2.1,0.9,4.1,1.3,6.1c-0.9-0.7-1.8-1.4-2.7-2.2c-0.8-0.7-1.4-0.5-1.7,0.5
		c-0.2,0.8-0.6,1-1.4,0.8c-0.3-0.1-0.5-0.2-0.8-0.2c-2.5-0.1-3.9-1.5-4.7-3.8c-1-2.8-1.9-5.6-2-8.6C15.6,50.6,15.3,50.3,14.6,50.7z"
		/>
	<path class="st4" d="M72.7,309.6c0,0.1,0,0.2,0,0.2c-0.3,0.5,0,1.2-0.2,1.7c-1.1,4.4,0.8,8.4,1.3,12.6c0.3,2.4,0.3,4.9-0.5,7.3
		c-0.2,0.7-0.7,1.1-1.5,1.1c-2.3-0.2-4.7-0.2-7-0.5c-1.3-0.2-2.2-0.9-2.3-2.6c-0.2-2.9-0.8-5.6,0.2-8.6c0.8-2.3,0.6-4.9,0.9-7.3
		c0.1-1.1,0.2-2.1,0.3-3.2c0.3-0.8,0.1-1.6,0.1-2.4c0-0.5,0.2-0.7,0.6-0.5c2.3,1,4.9,1.2,7.3,1.7C72.2,309.3,72.5,309.4,72.7,309.6z
		"/>
	<path class="st8" d="M124.6,334.3c-0.3,2.7-0.6,3-3,1.9c-2.3-1-4.6-2.1-6.9-3.1c-3.2-1.5-5.6-4-7.9-6.5c-1.2-1.3-2.3-2.7-3.6-3.9
		c-1.3-1.3-2.9-2.1-4.9-1.7c-0.5,0.1-1.2-0.2-1.6-0.5c-1.1-0.8-2.3-1.7-3.2-2.7c-0.4-0.4-0.6-1.3-0.4-1.8c0.5-1.3,1.1-2.4,1.8-3.6
		c0.4-0.7,1.1-1.4,1.6-2.1c1.3-1.6,1.5-1.6,2.8,0c2.4,2.9,4.6,6,6.9,8.9c1.4,1.7,2.9,3.3,4.4,4.9c1.9,2,4.2,2.5,6.8,1.4
		c0.7-0.3,0.9-0.1,1.3,0.5c1.6,2.2,3.3,4.2,4.9,6.4C124,332.9,124.3,333.6,124.6,334.3z"/>
	<path class="st7" d="M37.9,42.5c1,0,1.9,0,2.9,0c0.7,2.9,1.7,5.6,3.8,7.9c0.8,0.9,1.6,1.3,2.8,0.7c0.3-0.2,0.8-0.3,1.1-0.3
		c1-0.3,1.7-0.2,2.4,1c1,1.9,2.4,3.6,3.6,5.5c1.3,2.2,2.2,4.7,2.4,7.3c0.1,0.3,0.4,0.8-0.2,0.9c-1.2-2.8-3.3-4.9-5.9-6.4
		c-2.1-1.2-4.4-0.9-6.2,0.7c-0.8,0.7-1.4,0.6-2.2,0.1C38.1,56.8,35,52.8,33,48c-1.3-3.1-2-6.4-2-9.8c0.9,0.9,1.7,1.9,2.6,2.7
		c0.3,0.3,0.8,0.4,1.3,0.5c0.1-0.4,0.1-0.7,0.2-1.1c0.6,0.2,0.5,0.7,0.5,1.1c0.5,3.1,1.6,6,3.4,8.6c0.8,1.2,1.8,2.3,3.2,2.9
		c0.2-0.4-0.1-0.6-0.2-0.8c-2.1-2.5-3.3-5.3-4.1-8.4C37.7,43.3,37.5,42.9,37.9,42.5z"/>
	<path class="st9" d="M54.7,140.5c1.5,3.5,2.9,7.1,4.6,10.5c2,4,4.3,7.9,6.4,11.9c0.3,0.5,0.6,1,0.8,1.6c0.3,0.8,0.5,1.8-0.4,2.3
		c-0.6,0.3-1.5,0.3-2.2,0c-0.5-0.2-0.7-0.2-1,0.3c-2.6,4.3-5.3,8.5-7.9,12.8c-0.2,0.3-0.5,0.6-0.5,0.9c0,0.4,0.2,0.9,0.5,1
		c0.9,0.5,2,0.8,2.9,1.4c3.9,2.2,8,3.5,12.6,3.7c4.1,0.1,8.2-0.3,12.2-1.1c0.3,0,0.5-0.2,0.8-0.3c-0.2,1.1-0.7,1.7-2,1.8
		c-3.3,0.2-6.7,0.7-10,1c-6.4,0.4-12.4-0.6-17.8-4.3c-0.4-0.2-0.7-0.7-0.8-1.1c-0.3-1.1-0.9-2.4-0.8-3.5c0.2-1.1,1.1-2,1.8-3
		c2.7-3.9,5.5-7.7,8.3-11.6c0.5-0.8,0.9-1.4,0-2.3c-0.6-0.5-0.8-1.3-1.2-2.1c-2-3.9-4-7.7-5.8-11.7c-1-2.1-1.5-4.4-2.1-6.6
		c-0.1-0.3,0.2-0.8,0.5-1.1C53.7,140.8,54.2,140.7,54.7,140.5z"/>
	<path class="st6" d="M109.9,253.2c-0.6,0-1.2-0.1-1.9-0.1c-0.1,0-0.3,0.2-0.3,0.4c-2.4,6.4-4.8,12.8-7.1,19.3
		c-0.5,1.5-0.5,1.6,1,1.9c4.5,0.8,9.1,1.6,13.6,2.4c2.2,0.4,4.4,0.9,6.5,1.2c0.2,0,0.5-0.3,0.8-0.5c0.2,2.6,0.1,2.7-2.5,2.7
		c-8.1-0.3-16.1-1.4-23.8-3.8c-0.7-0.2-0.8-0.5-0.6-1.2c2.8-7.2,5.6-14.5,8.3-21.7c0.3-0.9,0.6-1.7,0.9-2.6c0.1,0,0.2,0,0.2,0
		c0.5,0.2,1,0.4,1.5,0.6c-0.1-0.6,0-1.1-0.2-1.6c-0.3-0.8-0.8-1.5-1.2-2.3c-0.4-1-0.1-1.3,0.9-1.3c0.4,0,0.9-0.4,1.3-0.5
		c0.4,0.7,0.8,1.5,1.2,2.2c-0.4,1.5,0.2,2.7,0.9,3.9C109.8,252.3,110.2,252.7,109.9,253.2z"/>
	<path class="st8" d="M75.6,331.2c0.3,1.1,0.5,1.9,0.7,2.7c0.3,1.5,0.6,3.1,0.9,4.6c0.3,1.5-0.4,3.1-1.8,3.7
		c-3.2,1.3-6.5,2.2-10,0.6c-2-0.9-4-1.9-6-2.8c-1.1-0.5-1.6-1.4-1.3-2.5c0.7-2.7,1.5-5.4,2.4-8.3c0.2,0.3,0.3,0.4,0.3,0.5
		c0.2,3.4,1.2,4.2,5.3,4.9c2,0.4,4.1,0.1,6.1,0.1c1.5,0,2.5-0.6,2.9-2.2C75,332.1,75.3,331.8,75.6,331.2z"/>
	<path class="st10" d="M114.2,92c1.8,2.7,3.2,5.6,4.1,8.7c0.3,1,0.5,1.2,1.5,0.7c5.5-2.6,11.1-5.2,16.7-7.8c1.5-0.7,2.8-1.7,3.6-3.2
		c0.5-0.8,1.2-1.4,1.9-2.1c-0.3,2.5-0.5,5-2,7.2c-1.2,1.9-3.1,2.7-4.9,3.5c-5.9,2.9-11.8,5.7-17.7,8.5c-0.7-2.7-1.3-5.4-2.1-8.1
		c-0.6-1.9-1.4-3.8-2.4-5.6c-0.5-1-0.5-1.5,0.6-1.7C113.8,92.1,114,92.1,114.2,92z"/>
	<path class="st10" d="M18,149.8c0.4-0.8,1.1-0.8,1.9-0.7c5.5,1.1,10.5-0.6,15.2-3.2c4.3-2.3,8.5-4.7,12.8-7c1.9-1,3.8-2.1,5.7-3
		c0.9-0.4,1.9-0.7,2.9-0.7c2.1,0,4.1-0.1,6.1-1c1.3-0.6,2.7-1.1,4.1-1.6c0.9-0.3,1.9-0.5,2.9-0.8c0.2-0.1,0.4-0.3,0.6-0.4
		c0.6,0.6,0.6,1.2,0.2,1.9c-0.7,1.2-1.1,2.7-2.8,3c-0.2,0-0.4,0-0.6,0c0.5-0.6,1-1.2,1.4-1.8c0.2-0.3,0.1-0.6,0.2-1
		c-0.3,0-0.7-0.1-0.9,0c-1,0.6-2.1,1.1-2.8,1.9c-1.9,2.2-4.2,3.5-7,2.7c-2.6-0.7-4.6,0.5-6.7,1.7c-5,2.7-9.9,5.5-14.8,8.3
		c-4.4,2.5-9,4.3-14.1,3.3C20.6,151.2,19.3,150.4,18,149.8z"/>
	<path class="st6" d="M89.3,215.3c5.4,6.1,9.4,13.2,14.1,19.8c1.4,2,2.7,3.9,4.1,5.9c0.7,1,0.7,2.1-0.1,3.1
		c-0.2,0.3-0.1,0.8-0.1,1.2c-1.7-0.7-3-1.7-4.1-3.3c-3.1-4.7-6.3-9.3-9.5-14c-2.2-3.3-4.5-6.6-6.7-9.9c-0.1-0.2-0.1-0.7,0.1-0.8
		C87.8,216.6,88.5,216,89.3,215.3z"/>
	<path class="st11" d="M76.8,113.3c-0.2-0.3-0.3-0.7-0.5-1c1.1,0.2,2.2,0.3,3.3,0.5c0.7-0.2,1.2-0.1,1.6,0.5
		c1.1,2.1,1.4,4.5,2.3,6.7c1.9,5.2,3.6,10.4,5,15.7c0.7,2.9,1.4,5.7,1.8,8.7c0.1,0.4,0.1,0.8,0,1.2c-1,1.4-2.4,1.2-3.8,1.2
		c-0.4-0.3-0.5-0.8-0.6-1.3c-1.3-7.2-3-14.4-5.2-21.4c-1-3.2-2.2-6.4-3.6-9.5C76.9,114.2,76.6,113.8,76.8,113.3z"/>
	<path class="st4" d="M81.8,97.3c0.5,2-0.3,3.8-1,5.7c-0.8,2.3-1.3,4.8-1.9,7.2c-0.1,0.4-0.2,0.7-0.4,1.1c-0.6-0.3-1.4-0.4-1.7-0.8
		c-0.6-0.8-0.9-1.9-1.3-2.8c-0.9-2.2-2.2-4-4.3-5.3c-2.5-1.6-4.7-3.6-7-5.4c-0.7-0.5-0.9-1.1-0.5-1.9c0.4-1,0.5-2.1,0.7-3.1
		c0.1-0.8,0.4-1,0.9-0.3c1.1,1.4,2.4,2.6,3.6,3.8c2.7,2.8,7.7,4.5,11.9,2.1C81.3,97.3,81.5,97.1,81.8,97.3z"/>
	<path class="st11" d="M90.2,172.9c0.7,0.6,1,1.3,0.5,2.2c-0.2,1.2-0.6,2.3-0.6,3.5c-0.1,1.7,0,3.3,0,5c0,0.5-0.2,0.9-0.3,1.4
		c-1.3,0.9-2.8,0.9-4.4,0.7c0.1-1.2,0.2-2.4,0.2-3.6c-0.7-0.7-1.1-1.5-0.4-2.4c0.9-0.6,1.2-1.5,1.3-2.5c0.7-6.6,0.4-13.3,0.4-19.9
		c0-1.4-0.2-2.9-0.2-4.3c0.2-1.9,1.9-2.9,3.9-2.2c0.4,1.2,0.5,2.5,0.4,3.7c-0.3,2.8-0.2,5.5-0.1,8.3c0,3-0.2,6.1-0.3,9.1
		C90.6,172.1,90.6,172.5,90.2,172.9z"/>
	<path class="st11" d="M71.3,106.6c-1.1,1.7-2.2,3.3-3.3,5c-0.3,0.6-0.5,0.6-0.9,0.2c-3.4-3.3-6.5-6.9-9-11c-0.7-1.1-0.8-2,0.3-3
		c0.9-0.8,1.7-1.8,2.7-2.9c2.5,4.9,6.8,7.7,11.2,10.4C72.4,106.1,71.8,106.4,71.3,106.6z"/>
	<path class="st10" d="M81.8,97.3c-3.8,2.7-9.1,1.9-12.4-1.3c-1.4-1.4-2.8-2.9-4.1-4.4c-0.5-0.6-0.5,0-0.7,0.2
		c0.1-0.9,0.2-1.8,0.3-2.7c0.1-0.8,0.4-0.8,1-0.4c3.7,2.5,7.7,4.2,12,5.1c1.1,0.2,2.3,0.3,3.4,0.4c0.6,0,0.8,0.2,0.7,0.8
		C81.9,95.7,81.9,96.5,81.8,97.3z"/>
	<path class="st10" d="M128.6,40.1c0.5,0.2,1,0.3,1.4,0.5c1.7,0.8,3.4,1.8,5.2,2.5c0.7,0.3,1.5,0.1,2.3,0.1c0.5,0.7,0.3,1.6,0.4,2.4
		c0,0.5-0.4,0.8-0.8,0.9c-0.8,0.3-1.5,0.4-2.3,0.1c-0.4-0.1-0.9-0.4-1.4-0.2c0.5,1.2,1.8,1.8,3.2,1.6c1.7-0.3,1.7-0.3,2.4,1.2
		c0.4,0.8,0.8,1.4,1.3,2.1c0.3,0.3,0.6,0.6,0.6,1.1c-0.3,1.6-1.5,1.8-2.8,2c-0.4-0.4-0.7-1.1-1.1-1.3c-2-0.8-3.9-1.6-5.4-3.2
		c-0.4-0.4-0.9-0.8-1.4-1.1c-1.5-1.1-1.7-1.5-1.4-3.4c0.7,0.2,1.4,0.5,2.1,0.7c0.3,0.1,0.6-0.1,1-0.2c-0.2-0.3-0.3-0.6-0.5-0.8
		C129.8,43.8,128.8,42.2,128.6,40.1z"/>
	<path class="st12" d="M90.9,15.1c-2,0.4-4-0.8-4.6-2.8c-0.1-0.3-0.2-0.8-0.1-1c0.6-1.1,0.1-1.6-0.8-2.2c-3.2-2.3-6.7-3.7-10.4-5
		c-0.5-0.2-0.9-0.8-1.4-1.2c3.9,0.3,7.4,1.6,10.7,3.4c8.6,4.8,13.6,12.1,15.5,21.7c-0.1,0.3,0.2,0.8-0.3,0.9
		c-0.4,0.1-0.6-0.3-0.7-0.7c-0.6-1.3-0.7-2.8-1.3-4.1c-0.8-1.9-1.8-3.7-2.8-5.5c-1-1.4-2-2.9-3-4.3c-0.2-0.3-0.7-0.3-1-0.5
		C90.8,14.3,90.9,14.7,90.9,15.1z"/>
	<path class="st11" d="M85.3,111.5c-1.3-2.3-2.4-4.5-3.6-6.6c-0.1-0.2-0.1-0.5,0-0.7c1.6-2.2,2.3-4.6,2.4-7.3c0-0.9,0.1-1.8,0.2-2.6
		c0-0.1,0.6-0.3,0.6-0.2c1.2,1.3,2.7,2.5,3.5,4.1c0.6,1.1,0.4,2.6,0.2,4C88.4,105.5,86.9,108.4,85.3,111.5z"/>
	<path class="st9" d="M103.5,117.5c0.4-0.7,0.7-1.7,1.3-2.2c3.2-2.4,6.6-4.7,9.9-7.1c0.2-0.1,0.4-0.1,0.6-0.2
		c0.2,1.5,0.4,2.9,0.5,4.4c0,0.1-0.2,0.4-0.3,0.4c-2.3,0.3-4,1.9-5.7,3.3c-1.5,1.2-2.9,2.7-4.4,4.1c-0.2-0.6-0.4-1.3-0.8-1.9
		C104.3,117.9,103.8,117.7,103.5,117.5z"/>
	<path class="st10" d="M58,77.6c2.6,2.1,5.1,4.3,7.9,6.2c4.1,2.8,8.5,5.2,13.5,6.2c4.1,0.8,7.7,0.4,10.7-2.7c1-0.9,1.8-2,2.7-3
		c-3.2,6.5-6.7,8.6-13.9,7.3c-6.3-1.1-11.5-4.5-16.2-8.6C61,81.4,59.6,79.4,58,77.6z"/>
	<path class="st10" d="M113.5,286.6c-0.3-0.2-0.6-0.6-0.9-0.7c-3.7-0.9-7.4-1.7-11-2.6c-1-0.2-0.2,0.9-0.8,0.9
		c0.1-1.2,0.2-2.4,0.3-3.7c0-0.2,0.5-0.4,0.7-0.4c4,0.6,7.9,1.3,11.9,1.8c0.8,0.1,0.9,0.3,0.7,1
		C114.1,284.2,113.8,285.4,113.5,286.6z"/>
	<path class="st6" d="M75.8,191.5c-0.3-0.4-0.6-0.8-1-1.2c3.3-0.5,6.6-1.1,9.8-1.6c0.2,0.3,0.2,0.4,0.2,0.4c-0.3,0.8-0.3,1.6,0.5,2
		c0.5,0.2,1.3,0.2,1.7-0.1c0.8-0.5,0.6-1.4,0.3-2.1c0.6-0.3,1.3,0,1.9-0.2c1-0.2,1.6,0.1,1.5,1.3c-0.1,1.1-0.1,2.2-0.1,3.3
		c-2.9-0.1-5.8-0.2-8.6-0.3c-0.4-0.5-0.9-0.7-1.6-0.6c-1.2,0.1-2.4-0.2-3.7-0.2C76.4,192.1,76,192,75.8,191.5z"/>
	<path class="st9" d="M41.5,131.8c1.2-1.4,2.3-2.9,3.7-4.2c1.7-1.6,3.6-2.9,5.4-4.3c0.8-0.6,1.8-1.1,2.7-0.4
		c0.9,0.6,0.8,1.5,0.4,2.3c-0.1,0.4-0.5,0.6-0.5,1c-0.9,1.1-1.7,2-3.5,1.6c-0.8-0.2-2.2,0.8-2.9,1.5
		C45.3,130.9,43.4,131.3,41.5,131.8z"/>
	<path class="st10" d="M31.4,134.7c-0.8-1-1.5-2.1-2.4-3.1c-1.3-1.4-2.7-2.8-4.1-4.1c0.7-0.9,1.3-1.7,2.2-2.8c2.7,3,5.3,5.9,8.1,9
		C33.8,134,32.6,134.3,31.4,134.7z"/>
	<path class="st13" d="M32.7,25.6c-0.2,0.6-0.5,1.2-0.7,1.7c-0.3,0.3-0.7,0.5-1,0.8c-1,0-1.8-0.5-2.6-1c0.5-1.7,1-3.5,1.7-5.2
		c0.5-1.2,1.2-2.3,1.9-3.3c0.6-0.9,2.8-0.9,3.4,0c0.1,0.1,0,0.5-0.2,0.7c-0.7,1.3-1.6,2.6-2.2,4C32.6,24,32.8,24.8,32.7,25.6z"/>
	<path class="st10" d="M72.7,309.6c-2.9-0.5-5.7-1.1-8.6-1.6c-0.1,0.6-0.2,1.5-0.3,2.4c0.1-1.8,0.1-3.7,0.2-5.5
		c0-0.1,0.4-0.4,0.6-0.4c2.7,0.4,5.3,0.8,8,1.1c0.7,0.1,0.9,0.2,0.7,0.9C73.1,307.6,72.9,308.6,72.7,309.6z"/>
	<path class="st14" d="M94.7,18.7c2.1,2.5,3.3,5.4,4.1,8.5c0.1,0.3,0.2,0.7,0.3,1c0.1,0.2,0.3,0.3,0.4,0.5c0.1-0.2,0.2-0.5,0.3-0.7
		c0.3,2.3,0.6,4.5,0.9,6.8c0.1,0.5,0.2,1.1-0.5,0.7c-1.1-0.6-2.3-1-3.3-1.6c0-0.1,0-0.2,0-0.2c0.1-1.8,0.2-3.5,0-5.3
		C96.7,25,95.9,21.8,94.7,18.7z"/>
	<path class="st15" d="M96.9,33.9c1.1,0.4,2.2,0.7,3.2,1.3c0.7,0.4,0.6,0,0.6-0.4c0.1,0.5,0.1,1.1,0.2,1.7c-0.5-0.1-0.8-0.3-1.1-0.3
		c-1.3-0.3-2.4-0.1-3.3,1c-0.9,1.1-1.9,1.9-3.3,2.2c-0.6,0.1-1-0.1-1.1-0.7c-0.2-0.7-0.5-1.3-0.5-2c0-0.6-1.1-1.3,0.2-1.8
		c0.6-0.2,1.1-0.7,2-0.3C95,35.1,96.2,35.1,96.9,33.9z"/>
	<path class="st16" d="M84.7,36c-1.2,0.3-2.4,0.5-3.6,0.8c-1.4,0.3-2.6,0.1-3.6-0.9c-0.2-0.2-0.5-0.1-0.8-0.1c0.6-0.8,0.4-1.6,0-2.4
		c-1.5-3.3-3.4-6.3-5.8-9C70.9,24.1,71,24,71.3,24c3.3,2.1,5.5,5.1,7.4,8.5c0.1,0.2,0,0.6-0.1,1c-0.1,0.5-0.5,1.2-0.4,1.4
		c0.3,0.4,1,0.7,1.5,0.6c1.6-0.2,3.1-0.5,4.6,0.2C84.4,35.8,84.6,35.9,84.7,36z"/>
	<path class="st15" d="M3.6,54.8c0.6-1.3,1.1-2.6,1.6-3.9c1.1-2.8,2.9-5.1,4.9-7.3c0.3-0.3,0.8-0.4,1.2-0.6
		c-0.9,2.3-1.8,4.6-2.6,6.9c-0.1,0.2-0.1,0.5-0.2,0.7c-1.5,1.9-3,3.8-4.4,5.7C3.9,55.9,3.8,55.4,3.6,54.8z"/>
	<path class="st10" d="M62.6,38.2c-0.8-0.7-1.8-1.4-2.5-2.2c-1.8-1.9-3.5-3.9-5.2-5.8c-0.1-0.1-0.3-0.3-0.4-0.4
		c0.2-0.7,0.3-1.3,0.4-1.9c2.1,2.2,4.2,4.4,6.3,6.6c0.4,0.5,1,0.8,1.5,1.2C64.3,37,64.3,37,62.6,38.2z"/>
	<path class="st17" d="M99.4,56.2c-1.7-0.5-2.7-1.3-3.1-3.1c-0.5-2.6-1.4-5.1-2.1-7.7c-0.1-0.4-0.2-0.8-0.2-1.3
		C97.1,47.5,98.7,51.6,99.4,56.2z"/>
	<path class="st18" d="M100,191.5c-1.1,0.3-2.2,0.8-3.3,1c-1.7,0.3-3.4,0.5-5.1,0.7c0.1-1.3,0.4-2.5,0.4-3.8c0-0.6,0.1-0.7,0.6-0.6
		c0.6,0.1,1.1,0.1,1.7,0.1c0.4,0.2,0.9,0,1.3,0.2c2.2-0.2,4.3-0.3,6.8-0.5c-0.5,0.3-0.9,0.5-1.2,0.7c-2.1,0.7-4.2,1.4-6.3,2.1
		c-0.2,0-0.3,0.1-0.5,0.1c-0.3,0.2-0.5,0.5-0.8,0.7c0.3,0.1,0.7,0.3,1,0.3C96.4,192.2,98.2,191.9,100,191.5z"/>
	<path class="st15" d="M48.5,44c-2.1-1.9-3.3-4.3-4.3-6.9c-0.5-1.4-0.8-3-0.9-4.5c-0.1-0.8,0.1-1.7,0.3-2.4c0.1-0.3,0.7-0.5,1-0.8
		c0,1.1-0.4,2.4-0.1,3.4c0.8,2.5,1.7,4.9,2.8,7.2C48.1,41.2,48.4,42.5,48.5,44z"/>
	<path class="st19" d="M26.4,25.7c-0.8,0.3-1.7,0.2-2.1,1.2c-0.1-0.8-0.6-0.9-1.2-0.6c-2.1,0.9-4.1,1.9-6.2,2.8
		c-0.2,0.1-0.3-0.1-0.3-0.3c3-3.1,6.5-5.2,10.8-6.4C27,23.6,26.7,24.7,26.4,25.7z"/>
	<path class="st9" d="M74.4,110.2c-0.4,0.4-0.7,0.8-1,1.2c-0.3,0.4-0.6,1-0.9,1.4c-1,1.5-1.8,1.6-3.6,0.3c1-1.7,2-3.4,2.9-5.2
		c0.2-0.3,0.1-0.8,0.1-1.2c0.3-0.2,0.7-0.1,1.1-0.3C73.4,107.6,73.9,108.9,74.4,110.2z"/>
	<path class="st9" d="M81.1,113.3c-0.5-0.2-1-0.4-1.4-0.5c0.2-0.3,0.5-0.6,0.5-0.9c0.3-1.7,0.4-3.3,0.7-5c0.1,0,0.2,0,0.4,0
		c1,1.9,2,3.8,3.1,5.7c0.4,0.7,0.8,1.3,1.7,0.7c0.3,1.6-0.6,2.3-1.9,2.7c-0.6,0-0.5-0.6-0.7-1c-0.2-0.4-0.3-0.9-0.5-1.3
		C82.3,112.4,82,112.4,81.1,113.3z"/>
	<path class="st20" d="M76.3,36c-0.1,1.2-0.8,1.6-1.9,1.8c-1.8,0.4-3.7,1-5.4,1.8c-1.4,0.6-2.8,0.5-4.2,0.2
		C68.3,37.9,71.9,35.7,76.3,36z"/>
	<path class="st21" d="M100.8,184.1c1-0.1,1.9-0.1,2.9-0.2c-0.4,0.8-0.7,1.6-1.2,2.3c-0.2,0.3-0.5,0.5-0.8,0.6
		c-1.8,0.4-3.6,0.8-5.4,1c-0.8,0.1-1.6-0.3-2.5-0.4c1.9-0.7,3.7-1.4,5.5-2.2C99.9,185,100.3,184.5,100.8,184.1z"/>
	<path class="st22" d="M58.3,48.3c-1.8,1.6-3.4,0.3-5-0.2c-0.3-0.1-0.7-0.1-1-0.2c-0.6-1.1-1.3-2.2-1.9-3.3c0.1-0.1,0.1-0.1,0.2-0.2
		c0.3,0.2,0.5,0.3,0.8,0.5c1.4,0.9,2.8,2,4.3,2.8C56.4,48.1,57.4,48.1,58.3,48.3z"/>
	<path class="st23" d="M91.6,184.3c0.9,0,1.7,0,2.6,0c1.4,0,2.8-0.1,4.2-0.2c-2.7,1-5.5,2-8.3,3C90.7,186.1,91.2,185.2,91.6,184.3z"
		/>
	<path class="st24" d="M28.3,27.2c0.9,0.3,1.8,0.6,2.6,1c-0.5,0.9-0.9,1.9-1.4,2.8c-0.1,0.3-0.4,0.4-0.7,0.6
		c-0.2-0.3-0.7-0.5-0.7-0.8C28.2,29.5,28.3,28.3,28.3,27.2z"/>
	<path class="st25" d="M85.4,185.6c1.5-0.2,2.9-0.5,4.4-0.7c-0.5,0.8-0.9,1.6-1.5,2.4c-0.1,0.1-0.3,0.2-0.5,0.2c-0.4,0-0.8,0-1.2,0
		C84.6,187.5,84.6,187.5,85.4,185.6z"/>
	<path class="st26" d="M53.3,27.2c-0.7-2.5-1.4-4.9-2.1-7.4c-0.1-0.4,0.3-1,0.4-1.5c-0.2,2.4,0.7,4.5,1.8,6.4
		C53.9,25.7,54,26.4,53.3,27.2z"/>
	<path class="st27" d="M88.5,35.3c-0.6,0.3-1.2,0.5-1.7,0.8c-0.6-0.8-1.2-1.5-1.8-2.3C87.6,32.9,88.1,33.2,88.5,35.3z"/>
	<path class="st28" d="M73,106.3c-0.1,0.9-0.6,0.7-1.1,0.3c-0.2,0-0.4,0-0.6,0c0.3-0.4,0.7-0.8,1-1.3C73,105.3,73.1,105.8,73,106.3z
		"/>
	<path class="st15" d="M96.9,28.4c0,1.8,0,3.5,0,5.3C96.9,31.9,96.9,30.1,96.9,28.4z"/>
	<path class="st29" d="M15.1,30.8c-0.3,0.3-0.5,0.6-0.8,0.9c-0.1-0.1-0.2-0.1-0.3-0.2c0.3-0.3,0.6-0.7,0.9-1
		C15,30.5,15,30.7,15.1,30.8z"/>
	<path class="st30" d="M70.1,23.6c-0.3-0.3-0.6-0.5-1-0.8c0.1-0.1,0.1-0.2,0.2-0.2c0.4,0.3,0.8,0.6,1.3,0.8
		C70.4,23.5,70.2,23.4,70.1,23.6z"/>
	<path class="st31" d="M53.3,126.3c-0.6-0.7,0.3-0.6,0.5-1c0.1,0.1,0.2,0.2,0.3,0.2C53.7,125.8,53.5,126,53.3,126.3z"/>
	<path class="st32" d="M70.1,23.6c0.2-0.1,0.3-0.1,0.5-0.2c0.3,0.2,0.5,0.4,0.8,0.7c-0.1,0.1-0.2,0.2-0.3,0.3
		C70.7,24.1,70.4,23.8,70.1,23.6z"/>
	<path class="st33" d="M89.2,188.7c-0.6,0.1-1.2,0.1-1.9,0.2C88,188.9,88.6,188.8,89.2,188.7z"/>
	<path class="st34" d="M56.6,65.5c0.1-0.3,0.2-0.6,0.2-0.9c0.1,0.4,0.2,0.7,0.2,1.1c0,0.1-0.2,0.2-0.3,0.2
		C56.7,65.8,56.7,65.7,56.6,65.5z"/>
	<path class="st7" d="M40.8,42.3c-0.1-0.6-0.1-1.1-0.2-1.7C40.6,41.2,40.7,41.7,40.8,42.3z"/>
	<path class="st10" d="M72.5,311.6c0.1-0.6,0.1-1.1,0.2-1.7C72.6,310.4,72.6,311,72.5,311.6z"/>
	<path class="st35" d="M15.1,30.8c-0.1-0.1-0.2-0.2-0.3-0.2c0.2-0.2,0.5-0.5,0.7-0.7c0.1,0,0.2,0.1,0.3,0.3
		C15.6,30.3,15.3,30.5,15.1,30.8z"/>
	<path class="st36" d="M16.6,28.9c0.1,0.1,0.2,0.2,0.3,0.3c-0.2,0.2-0.3,0.3-0.5,0.5c-0.2,0.1-0.3,0-0.3-0.3
		C16.2,29.2,16.4,29,16.6,28.9z"/>
	<path class="st37" d="M16,29.3c0.1,0.1,0.2,0.2,0.3,0.3c-0.2,0.2-0.3,0.3-0.5,0.5c-0.1-0.1-0.2-0.2-0.3-0.3
		C15.7,29.6,15.9,29.5,16,29.3z"/>
	<path class="st38" d="M95.6,189.1c-0.4-0.1-0.9-0.1-1.3-0.2C94.7,189,95.2,189.1,95.6,189.1z"/>
	<path class="st19" d="M26.2,27.2c0.1-0.4,0.1-0.8,0.2-1.2C26.3,26.4,26.2,26.8,26.2,27.2z"/>
	<path class="st39" d="M83,201.5c0-1.9,0-3.3,0-4.7c0-0.3,0.3-0.7,0.5-1c0.2,0.3,0.6,0.6,0.6,0.9c0.1,3.3,0.2,6.6,0.1,9.9
		c0,1.3-0.3,2.7-0.6,4c-0.1,0.4-0.6,0.7-1,1.1c-0.2-0.4-0.7-0.9-0.7-1.3C82.4,207.3,82.7,204.2,83,201.5z"/>
	<path class="st40" d="M89.2,201.2c0-1.6,0-3.2,0-4.8c0-0.3,0.4-0.7,0.5-1c0.2,0.3,0.6,0.5,0.7,0.8c0.2,3.2,0.4,6.3,0.6,9.5
		c0,0.2,0,0.4-0.1,0.6c-0.3,0.3-0.6,0.6-1,0.9c-0.2-0.4-0.7-0.7-0.7-1.1c-0.1-0.8,0.1-1.7,0.1-2.5c0-0.8,0-1.6,0-2.4
		C89.3,201.2,89.3,201.2,89.2,201.2z"/>
	<path class="st40" d="M80.7,266.5c0.2,0.2,0.6,0.3,0.7,0.6c0.1,0.3,0,0.8-0.2,1c-1.7,1.6-3.5,3.2-5.3,4.8c-0.2,0.1-0.6,0.2-0.7,0.1
		c-0.1-0.1-0.2-0.6-0.1-0.7c1.7-1.9,3.4-3.7,5.1-5.5C80.2,266.6,80.4,266.6,80.7,266.5z"/>
	<path class="st41" d="M109.9,253.2c-0.5-1.1-1.2-2.1-1.5-3.2c-0.2-0.6,0.1-1.4,0.2-2c0.4,0.3,0.9,0.6,1.1,1.1
		c0.7,1.4,1.3,2.8,2,4.2c0.1,0.2,0,0.6,0,0.9c-0.3,0-0.6,0-0.9-0.1C110.6,253.8,110.3,253.5,109.9,253.2z"/>
	<path class="st42" d="M75.8,191.5c1.7,0.1,3.3,0.3,5,0.4c0.7,0,1.4,0,1.2,1c-1.7,0-3.4,0-5.2,0c-0.8,0-1.6-0.3-2.4-0.5
		c-0.3-0.1-0.5-0.4-0.7-0.6c0.3-0.1,0.5-0.3,0.8-0.4C74.9,191.5,75.4,191.5,75.8,191.5z"/>
	<path d="M87,152.7c0.1,5.7,0.2,11.4,0.2,17.1c0,2.6-0.3,5.3-0.5,7.9c-0.1,0.9-0.2,1.9-1.6,1.8c-0.8-0.7-0.5-1.7-0.5-2.6
		c0.2-5.8,0.5-11.5,0.6-17.3c0.1-2.3-0.1-4.6-0.2-6.9c-0.7-2.1-0.8-4.2-0.6-6.3c-0.8-4.2-1.5-8.4-2.3-12.6
		c-1.2-6.4-3.4-12.6-5.8-18.7c-0.2-0.4-0.3-0.8-0.4-1.3c-0.1-0.6,0.2-0.7,0.7-0.5c2.5,5.1,4.3,10.6,5.7,16.1
		c1.5,5.7,2.6,11.5,3.9,17.2c0.8,1.4,0.7,2.9,0.7,4.3C87,151.6,86.9,152.1,87,152.7z"/>
	<path class="st43" d="M77,151.7c-1.1,0.4-2.1,1-3.2,1.1c-2.9,0.2-5.8-0.2-8.6-1.1c-2.2-0.7-3.6-2.3-4.5-4.4c-0.1-0.3,0-0.7,0-1
		c0.3,0.1,0.7,0.1,0.9,0.4c2.4,3.3,6,3.7,9.6,4c1.5,0.1,3-0.2,4.5-0.3c0.5,0,1,0.2,1.5,0.3C77.6,151.2,77.4,151.5,77,151.7z"/>
	<path class="st44" d="M77,151.7c0.1-0.3,0.1-0.6,0.2-1c1.7-1.7,4-2.4,6.3-3.2c0.6-0.2,1.1-0.5,1-1.2c0.2,2.1,0.4,4.2,0.6,6.3
		c-0.2-0.8-0.6-1.1-1.5-0.8c-0.8,0.3-1.8,0.4-2.6,0.7C79.5,153,78.1,153.1,77,151.7z"/>
	<path class="st45" d="M80.8,81.5c-3.6,0.1-6.2-2-6.7-5.2c0-0.2-0.4-0.3-0.7-0.4c-0.5-0.3-1.2-0.4-1.4-0.8c-0.4-0.9,0.1-1.6,0.8-2.2
		c0.6-0.4,1.2-0.5,1.9,0c0.3,0.3,0.7,0.6,1,0.6c3.6,0.1,7.2-0.3,10.5-1.8c0.6-0.3,1.1-0.7,1.7-1.1c0.2-0.1,0.6-0.1,0.8-0.1
		c0,0.3,0,0.6,0,0.9c0,0.1-0.1,0.2-0.2,0.3c-1.9,1.4-0.9,3-0.3,4.6c0.3,0.8,0.2,1.3-0.2,1.9C86.3,80.5,83.9,81.6,80.8,81.5z"/>
	<path class="st45" d="M71.4,47.6c-0.7,0.7-1.2,1.4-1.8,1.8c-0.7,0.4-0.5,0.6-0.3,1.3c0.6,1.8,1.1,3.7,1.5,5.6c0.1,0.4,0,1-0.1,1.4
		c-0.4,1.8-1.6,2.2-2.9,0.9c-0.4-0.4-0.9-0.9-1.1-1.4c-0.5-2-1.1-4-1.4-6c-0.2-1.8,0.5-2.4,2.3-2.6c1-0.2,1.3-0.9,1.8-1.6
		c0.2-0.3,0.8-0.6,1.1-0.5C70.8,46.5,71,47,71.4,47.6z"/>
	<path class="st45" d="M79.8,47.7c0.1-0.6,0.1-1.3,0.4-1.8c0.3-0.5,0.9-1,1.5-1.1c1-0.1,1.7-0.4,2.1-1.4c0.2-0.6,0.6-1.2,1.3-0.8
		c0.8,0.4,0.7,1.1,0.3,1.7c-0.2,0.3-0.4,0.7-0.7,0.8c-1.5,0.6-1.1,1.4-0.6,2.5c0.5,1.3,0.8,2.7,1.1,4c0.1,0.5,0.1,1,0.1,1.5
		c-0.1,0.9-0.2,2-1.3,2.2c-1.1,0.3-1.9-0.5-2.3-1.3c-0.9-2-1.5-4.2-2.3-6.2C79.6,47.8,79.7,47.8,79.8,47.7z"/>
	<path class="st10" d="M47.9,62.7c0.7,0.3,1.6,0.3,2.1,0.8c1.4,1.5,2.3,3.2,2.3,5.3c0,1.1-0.5,1.9-1.5,2.1c-1.1,0.3-2.1-0.1-2.5-1.1
		c-0.7-1.7-1.4-3.4-1.9-5.1c-0.1-0.5,0.6-1.2,0.9-1.9c1.3,1.4,2.3,3.1,2.8,4.9c0.1,0.3,0.2,0.5,0.3,0.8c0.2,0.2,0.4,0.4,0.7,0.3
		c0.4-0.1,0.5-0.4,0.5-0.7c0-0.3-0.1-0.6-0.2-0.9c-0.7-1.7-1.5-3.3-3.2-4.2C48.1,63.1,47.9,63,47.9,62.7z"/>
	<path class="st46" d="M47.9,62.7c2.5,0.9,3.4,3.1,4,5.4c0.1,0.3-0.4,1-0.8,1.2c-0.2,0.1-1-0.3-1.1-0.7c-0.6-1.9-1.3-3.7-2.7-5.1
		c-0.1-0.1,0-0.4,0-0.6C47.5,62.9,47.7,62.8,47.9,62.7z"/>
	<path class="st47" d="M83.1,86.7c-0.5-0.6-1.2-1-1.2-1.4c0-0.4,0.5-1,1-1.2c1-0.5,2-0.9,3.1-1.1c0.3-0.1,0.9,0.4,0.9,0.6
		c0,0.5-0.2,1.1-0.5,1.4C85.4,85.5,84.4,86,83.1,86.7z"/>
	<path d="M81.1,113.3c0.3-0.4,0.5-0.8,0.8-1.2c0.4,0.3,0.9,0.5,1.1,0.9c0.4,0.9,0.7,1.9,1.1,2.9c0.7,2.1,1.3,4.3,2.1,6.4
		c2.4,6.7,4.3,13.5,5.5,20.5c0.1,0.9,0.2,1.7,0.4,2.6c0.5,1.6,0.9,3.2,0.3,4.8c-0.1,4.5-0.1,8.9-0.3,13.4c-0.1,2.9-0.4,5.7-0.6,8.6
		c-0.1,0.6-0.2,1.2-1,0.6c0.1-3.9,0.2-7.9,0.3-11.8c0-3.5,0-7-0.1-10.5c-0.5-1.4-0.5-2.9-0.4-4.4c0-0.2,0.2-0.4,0-0.7
		c-0.9-4.3-1.6-8.7-2.8-13c-1.7-6.1-3.8-12-5.7-18C81.3,114.1,81.2,113.7,81.1,113.3z"/>
	<path class="st44" d="M92.2,150.3c-0.1-1.6-0.2-3.2-0.3-4.8c1.4-0.1,2.8-0.3,4.1-0.4c1.3,0,2.5,0.1,3.8,0.3c1,0.2,1.6,1,1.6,2
		c0,1-0.7,1.8-1.7,2c-1.1,0.2-2.2,0.3-3.3,0.4C95,150,93.6,150.1,92.2,150.3z"/>
	<path class="st48" d="M37.9,42.5c0.6,3.6,2.1,6.8,4.4,9.6c0.2,0.2,0.4,0.3,0.5,0.5c0.1,0.2,0.2,0.5,0.1,0.5
		c-0.2,0.1-0.5,0.2-0.6,0.2c-0.7-0.4-1.4-0.8-2-1.3c-2.9-2.9-4.2-6.5-5-10.4c-0.1-0.4-0.2-0.8-0.3-1.3c0.1-2,0.2-4,0.4-5.9
		c0-0.5,0.3-1.1,0.6-1.6c0.3-0.6,1-1.2,1.6-0.7c0.4,0.2,0.6,1.1,0.4,1.6c-0.9,2.6-0.8,5.3-0.4,7.9C37.7,41.9,37.8,42.2,37.9,42.5z"
		/>
	<path class="st12" d="M80.9,15.1c1.6,0,2.4,1.4,1.9,2.6c-0.3,0.6-0.6,1.2-1.1,1.5c-1.8,1.1-3.5,2.1-5.4,3c-1.3,0.6-2.6-0.1-3-1.3
		c-0.4-1.3,0.2-2.3,1.6-2.9c1.3-0.6,2.6-1.3,3.9-1.9C79.5,15.6,80.4,15.3,80.9,15.1z"/>
	<path class="st12" d="M61.5,27.5c-1.4-0.2-2.3-0.9-2.4-2c-0.2-1.2,0.4-2,1.6-2.4c0.8-0.3,1.7-0.6,2.5-0.8c1.1-0.3,2,0.2,2.4,1.2
		c0.4,1,0.2,1.9-0.8,2.5C63.7,26.6,62.6,27,61.5,27.5z"/>
	<path class="st43" d="M140.8,52.6c-0.9-1.4-1.7-2.7-2.6-4.1c-0.1-0.2-0.6-0.3-0.9-0.2c-1.6,0.5-3,0.1-4.2-1c-0.2-0.2-0.3-0.7-0.4-1
		c0.4,0,0.7-0.1,1.1-0.1c1,0.1,2,0.2,3,0.2c0.6,0,0.9-0.4,0.7-1.1c-0.1-0.7-0.1-1.3-0.1-2c0.6-1.2,1.6-1.8,2.8-1.3
		c0.8,0.3,0.9,1,0.4,1.4c-1.2,1.2-1.5,2.6-1,4.1c0.4,1.4,1.2,2.7,1.8,4c0,0.1,0.1,0.1,0.1,0.2c0.1,0.3,0.2,0.6,0.3,1
		C141.5,52.6,141.2,52.6,140.8,52.6z"/>
	<path class="st45" d="M25.2,30.5c-0.1,0.4-0.2,1-0.4,1.3c-3.5,4.3-5.5,9.1-5.8,14.7c0,0.6-0.5,1.6-0.8,1.6c-1,0-0.9-1-0.9-1.6
		c-0.1-3,0.6-6,1.8-8.7c0.4-0.8,0.7-1.6,1.1-2.4c1.1-1.4,2.2-2.9,3.4-4.3C23.9,30.7,24.6,30.7,25.2,30.5z"/>
	<path class="st49" d="M24.4,45.9c0.2,1.6,0.3,3.2,0.5,4.9c0.1,0.8,0,1.5-0.9,1.7c-0.9,0.2-1.2-0.5-1.3-1.3
		c-0.3-2.4-0.3-4.8,0.5-7.1c0.2-0.5,0.6-0.8,1-1.2c0.1,0.5,0.3,0.9,0.4,1.4c0.1,0.6,0,1.1,0,1.7C24.5,45.9,24.4,45.9,24.4,45.9z"/>
	<path class="st50" d="M90,145.5c0.1,1.7,0.3,3.4,0.4,5.1c-0.6,0.1-1.2,0.3-1.7,0.4c-1.3,0-1.8,0.6-1.6,1.8c-0.2-2-0.4-4-0.6-6.1
		c0.9-0.2,1.8-0.3,2.7-0.6C89.5,146,89.7,145.7,90,145.5z"/>
	<path class="st51" d="M81.3,79.7c-1.2-0.4-2.4-0.7-3.5-1.3c-0.6-0.3-0.9-1.1-1.3-1.8c-0.3-0.6-0.1-0.7,0.6-0.8
		c2.7-0.4,5.5-1,8.2-1.5c0.5-0.1,0.8-0.2,0.7,0.4c0,0,0,0.1,0,0.1c0,0.9,0.4,2.1-0.1,2.7C84.9,79,83.2,79.5,81.3,79.7z"/>
</g>
</svg>
