<?xml version="1.0" encoding="utf-8"?>
<!-- Generator: Adobe Illustrator 25.2.2, SVG Export Plug-In . SVG Version: 6.00 Build 0)  -->
<svg version="1.1" id="maria_x5F_talking_xA0_Image_1_"
	 xmlns="http://www.w3.org/2000/svg" xmlns:xlink="http://www.w3.org/1999/xlink" x="0px" y="0px" viewBox="0 0 185.3 343.6"
	 style="enable-background:new 0 0 185.3 343.6;" xml:space="preserve">
<style type="text/css">
	.st0{fill:#FEFEFE;}
	.st1{fill:#EEEBE1;}
	.st2{fill:#008B94;}
	.st3{fill:#B4A18D;}
	.st4{fill:#CD908A;}
	.st5{fill:#A27E78;}
	.st6{fill:#00BFCB;}
	.st7{fill:#F7DDC2;}
	.st8{fill:#FE9800;}
	.st9{fill:#B97000;}
	.st10{fill:#989898;}
	.st11{fill:#B9B9B9;}
	.st12{fill:#F6D19B;}
	.st13{fill:#FDFDFD;}
	.st14{fill:#FD9800;}
	.st15{fill:#B86F00;}
	.st16{fill:#B96F00;}
	.st17{fill:#6F6F6F;}
	.st18{fill:#FCFCFC;}
	.st19{fill:#B29771;}
	.st20{fill:#F4D09A;}
	.st21{fill:#B8B8B8;}
	.st22{fill:#B3A08C;}
	.st23{fill:#B19F8B;}
	.st24{fill:#008A93;}
	.st25{fill:#B19770;}
	.st26{fill:#AF956F;}
	.st27{fill:#B56D00;}
	.st28{fill:#ACACAC;}
	.st29{fill:#5C3700;}
	.st30{fill:#8F5600;}
	.st31{fill:#7D7062;}
	.st32{fill:#332E28;}
	.st33{fill:#915700;}
	.st34{fill:#010000;}
	.st35{fill:#010101;}
	.st36{fill:#000202;}
	.st37{fill:#000303;}
	.st38{fill:#000405;}
	.st39{fill:#000606;}
	.st40{fill:#000505;}
	.st41{fill:#000404;}
	.st42{fill:#000203;}
	.st43{fill:#010100;}
	.st44{fill:#020202;}
	.st45{fill:#040403;}
	.st46{fill:#020100;}
</style>
<g>
	<path d="M122.2,163.3c-0.8,0.7-1.4,0.1-1.9-0.3c-2-1.7-3.8-3.7-4.8-6.2c-0.1-0.4-0.3-0.7-0.5-1.2c-0.5,2.3-1,4.3-1.3,6.4
		c-0.1,0.6,0.1,1.3,0.3,2c1.9,6.3,3.9,12.6,5.7,18.9c0.4,1.4,0.6,3,0.8,4.5c0.1,0.5-0.1,1.3-0.4,1.4c-1.1,0.5-0.5,1.2-0.5,1.9
		c0.3,3.9,0.9,7.8,0.9,11.7c0.1,8.5-1.4,16.9-3.2,25.1c-2.1,9.8-4.6,19.6-7.8,29.1c-0.5,1.5-0.3,3.2-0.5,4.7
		c-0.4,2.7-1.3,5.4-2.9,7.7c-0.7,0.9-1,1.7-1.1,2.9c-0.4,5.6-1.2,11.3-1.7,16.9c-0.3,3.4-0.1,6.9-0.1,10.3c0,0.5,0.3,1.1,0.6,1.5
		c0.6,1.1,0.7,2.1-0.2,3.1c-0.8,0.9-0.9,1.6-0.3,2.7c1.3,2.2,1.4,4.5,0,6.8c-0.5,0.7-0.4,1.1,0.4,1.6c1.8,1.3,3.6,2.6,5.4,4
		c1.1,0.8,2.3,1.1,3.7,1.2c2.2,0.2,4.4,0.4,6.5,0.9c2.9,0.6,5.2,3.4,5.7,6.8c0.2,0.8-0.4,1.2-0.9,1.5c-1.6,1.1-3.4,1.9-5.3,2.4
		c-4.4,1.2-8.7,1.7-13.3,1.2c-3.9-0.4-7.8-0.6-11.6-1.4c-0.6-0.1-1.1-0.2-1.7-0.1c-2.4,0.4-4.7-0.1-7,0c-2.2,0-3.2-0.8-3.5-3.1
		c-0.2-1.7-0.1-3.4-0.1-5.1c0.2-1.4,0.4-2.8,0.8-4.2c0.3-1.2,0.3-2.4-0.4-3.6c-0.8-1.5-0.7-3-0.2-4.5c0.3-0.8,0.1-1.5-0.5-2
		c-0.9-0.9-1.4-2.1-0.7-3.2c1.7-2.9,1.1-5.9,0.9-8.9c-0.4-3.8-0.7-7.5-0.9-11.3c-0.4-6.5,0.5-12.9,2.2-19.2c0.4-1.6,1.1-3.1,1.7-4.6
		c0.3-0.7,0.5-1.4,0.2-2.1c-0.3-1-0.1-2,0.6-2.8c0.7-0.9,0.9-1.9,0.9-3c0-3.5,0-7,0-10.4c0-0.9,0.1-1.9,0.2-2.8c0-0.2-0.2,0.1-0.1,0
		c0.1,0,0.1,0,0.1,0.1c-0.2,2.1-1,4-1.5,6c-0.8,3-1.5,6-2.1,9c-0.3,1.5-0.1,3.1-0.4,4.6c-0.7,3.2-1.4,6.3-3.3,9.1
		c-0.5,0.7-1,1.3-2,1.4c-1-0.4-1.3-0.8-1-1.8c0.2-0.8,0.7-1.5,1-2.3c1.9-4.2,2.8-8.7,3.4-13.3c0.6-4.8,2.1-9.4,3.4-14.1
		c2-7.3,3.8-14.7,5.1-22.2c0.1-0.8,0.3-1.6,0.5-2.3c0.3-1.3,1.2-1.8,2.4-1.2c0.6,0.3,1.1,0.3,1.7,0.2c1.4-0.3,2.7-0.6,4-1.3
		c0.3-0.1,0.6-0.3,0.9-0.3c0.7-0.1,1.3-0.2,1.7,0.5c0.4,0.7,0.1,1.4-0.6,1.9c-1.4,1-3,1.4-4.6,1.5c-0.7,0-1.4,0.3-2.1,0.2
		c-0.6-0.1-0.8,0.3-0.8,0.8c-0.6,4.3-1.6,8.5-2.5,12.7c-0.2,0.9,0.1,1.7,0.1,2.6c0,5.9,0,11.8,0,17.7c0,2.2-0.5,4.3-0.5,6.4
		c0,0.4-0.1,0.7-0.3,1c-0.5,0.9-0.8,1.8-0.6,2.9c0.1,0.6-0.1,1.1-0.4,1.6c-2.3,5.2-3.1,10.7-3.7,16.3c-0.2,2.4-0.3,4.9-0.2,7.3
		c0.1,3.4,0.3,6.8,0.6,10.2c0.1,1.6,0.1,3.2,0.1,4.8c0,1.1-0.2,2.3,0.1,3.4c0.2,0.6-0.2,1.2-0.5,1.8c-0.3,0.6-0.5,1.2-0.1,1.8
		c1.2,1.5,1,3.1,0.5,4.8c-0.1,0.4-0.3,0.8-0.4,1.3c-0.1,1.2,0.5,1.8,1.7,1.5c1.1-0.3,2.2-0.8,3.3-1.2c3.3-1.4,6.7-2.4,10.4-1.4
		c0.7,0.2,1.2,0,1.4-0.7c0.9-1.5,0.8-3,0.2-4.5c-0.7-1.7-1.1-3.4,0-5.2c0.2-0.3,0.2-0.7,0.1-1.1c-1.4-4.5-0.7-9-0.2-13.6
		c0.5-5,1.5-10,2.1-14.9c0.4-2.7,0.9-5.2,2.2-7.7c1.2-2.4,1.8-5,2.2-7.7c0.6-4.2,1.8-8.4,2.9-12.5c2.8-10.9,5.4-21.9,7-33.1
		c0.4-2.8,0.5-5.6,0.8-8.3c0.1-0.8-0.1-1.5-0.5-2.2c-1-1.9-2.1-3.8-3.4-5.5c-0.5-0.6-1.2-1.3-0.5-2c0.7-0.7,1.5,0,2.1,0.4
		c0.7,0.6,1.3,1.3,2,2c0.1-1.2-0.2-2.3-0.3-3.3c-0.1-0.8-0.6-0.9-1.3-0.8c-2.3,0.4-4.6,0.7-6.9,0.9c-1.4,0.1-2.7,0.1-4.1,0.1
		c-0.7,0-1.2,0.1-1.6,0.8c-0.4,0.7-1.1,0.9-1.8,0.9c-3.6,0-7.3,0-10.9,0c-1.1,0-1.9-0.5-2.5-1.4c-0.3-0.5-0.7-0.5-1.1-0.5
		c-7.3-0.5-14.4-2.1-21.3-4.1c-0.7-0.2-1.3-0.5-1.9-0.7c-0.6-0.2-0.9-0.1-1.1,0.5c-0.9,2.5-1.4,5.1-1.9,7.8
		c-0.1,0.6,0.1,0.8,0.7,0.7c1.1-0.2,2.2-0.4,3.3-0.6c2.5-0.7,4.6-2,6.6-3.7c0.4-0.2,0.9-0.2,1.2,0.2c0.3,0.7-0.1,1.2-0.4,1.7
		c-1.6,2.1-3.8,3.3-6.2,4.3c-0.8,0.3-1.6,0.6-2.4,0.8c-0.5,0.1-1,0.2-1.5,0.3c-1.6,0.3-1.8,0.5-1.9,2.1c-0.3,3.7-0.6,7.5-0.5,11.2
		c0.1,4.1,0.3,8.2,0.6,12.3c0.1,1.6,0.2,3.3,0.3,4.9c0.2,7.1,1,14.2,0.8,21.3c0,1.8,0.2,3.6,0.2,5.4c0,1.6-0.3,3.1-1.2,4.4
		c-0.6,1-0.8,2-0.4,3.1c0.2,0.6,0.3,1.2,0.1,1.9c-0.4,1.1-1.2,1.4-2.2,0.8c-1.7-2.4-1.7-4.8,0-7.2c0.2-0.3,0.5-0.8,0.5-1.2
		c0-4.8,0-9.6-0.2-14.4c-0.4-10.4-0.9-20.8-1.2-31.3c-0.2-7.9,0.4-15.7,2.6-23.4c0.2-0.7,0.4-1.4,0.7-2c0.4-0.9,1-1.7-0.3-2.5
		c-0.2-0.2-0.2-0.9-0.1-1.3c1.9-7.1,3.8-14.3,6.7-21.1c0.1-0.3,0-0.8-0.1-1.2c-0.5-1.2-0.5-2.3,0.3-3.4c0.2-0.3,0.2-1,0.1-1.4
		c-1.2-4.6-2.4-9.3-3.5-13.9c-0.2-0.8-0.3-1.7-0.5-2.7c-1.2,1.6-2.2,3.2-3.4,4.7c-0.6,0.8-1.1,2-2.6,1.4c-0.1,0-0.5,0.5-0.7,0.8
		c-2.2,3.2-4.2,6.5-6.6,9.6c-2.3,3-5.6,4.1-9.4,3.3c-1.7-0.4-3-1.4-4.1-2.7c-5.8-6.9-10.1-14.6-14.1-22.6c-1.9-3.7-3.6-7.4-5.4-11.1
		c-0.8-1.7-1.9-3-3.8-3.6c-2.4-0.8-4.8-1.8-7.1-3c-1.1-0.6-2.2-1.6-3-2.7c-3.6-5.1-3.5-10.8-2.2-16.5c0.4-1.8,1.4-3.1,3.3-3.5
		c2-0.4,3.6,0.2,4.9,1.7c0.4,0.5,0.9,1,1.1,1.5c0.9,1.9,2.5,3,4.1,4.1c0.7,0.5,0.7,0.1,0.9-0.5c0.3-1.2,0.6-2.4,1.2-3.5
		c0.7-1.3,1.9-2.2,3.6-2.3c2.1-0.1,3.4,1.2,3.3,3.3c-0.2,2.9-0.1,5.7,0.7,8.5c0.4,1.4,0.2,3,0.3,4.5c0,0.5,0.1,1.1,0.4,1.6
		c4.4,6.9,8.9,13.7,14.2,20c1,1.1,0.9,1.1,1.6-0.2c4.5-8.5,9.3-16.9,14.7-24.8c1.6-2.4,3.8-4,6.5-4.8c2.9-0.9,5.9-1.6,8.8-2.4
		c0.5-0.1,0.9-0.4,1.3-0.7c2-1.6,3.5-3.8,6.2-4.4c0.2,0,0.5-0.5,0.5-0.8c0.1-2.8,0.1-5.5,0-8.3c0-0.4-0.4-0.9-0.8-1.3
		c-3-3.2-5.7-6.5-7.4-10.5c-0.5-1.1-0.9-2.3-1.1-3.5c-0.2-0.9-0.6-1.3-1.3-1.6c-4.5-1.9-7.1-5.3-7.9-10.1c-0.2-1.6,0.3-3.3,0.5-4.9
		c0-0.4,0.1-0.9-0.1-1.2c-4-4.7-6.5-10.2-7.5-16.7c-0.5,0.9-0.9,1.5-1.2,2.2c-2,4.8-2.6,9.8-1.6,14.9c0.1,0.4,0.3,0.9,0.2,1.3
		c-0.1,0.5-0.2,1.2-0.6,1.4c-0.4,0.2-1.2,0.2-1.5-0.1C47,56,46,54.9,45,53.8c-0.4-0.5-0.7-0.8-1.5-0.7c-2.2,0.5-4-0.8-5.8-1.8
		c-0.4-0.2-1-0.4-1.5-0.3c-2.5,0.6-8-2.6-7.7-6.3c0.1-1.9,0.4-3.7,0.6-5.7c-1,1.1-1.9,2.1-2.9,3c-0.5,0.4-1.4,0.9-1.9,0.8
		c-0.4-0.1-0.9-1.1-1-1.7c-0.1-3.2-0.4-6.5,0-9.7c0.8-6.2,3.2-11.8,7.1-16.6c4.3-5.2,10-8.1,16.6-9.1c3.6-0.6,7.3-0.3,10.8,0.5
		C60,6.6,60.8,6.7,62.7,6C64,5.6,65,6.1,65.8,6.9C67,8.1,68,8,69.5,7.2c5.3-2.8,11-4.3,17.1-4c0.3,0,0.7-0.1,1-0.2
		c9.6-5,18.6-3.4,27,2.8c8.6,6.4,13,15.2,13.4,25.9c0.2,4.1-0.1,8.2-1.4,12.1c-0.3,0.8-0.6,1.6-1.1,2.3c-0.7,1.1-1.5,1.2-2.4,0.3
		c-1.1-1.2-2-1.2-3.3-0.2c-0.9,0.6-2.1,0.8-3.3,1.2c1.4,2.2,2.4,4.6,2.9,7.3c0.6,3.4,0.3,6.8-0.9,10c-0.3,0.9-0.9,1-1.6,0.3
		c-0.4-0.4-0.9-0.8-1.4-1.4c-0.2,1.9-0.4,3.6-0.7,5.2c-1.2,7.3-3.7,14.1-8.6,19.8c-2,2.3-4.3,4.3-7.2,5.4c-0.6,0.2-0.6,0.5-0.6,1.1
		c0,1.5,0.2,2.6,2.1,3c1.4,0.3,2.8,1.3,3.4,2.9c0.1,0.2,0.4,0.3,0.6,0.4c2.8,1,5.7,2,8.5,3c1.8,0.7,3.6,1.5,4.8,3.1
		c1,1.3,0.9,2.2-0.2,2.9c-0.1,0-0.3,0-0.3-0.1c-2.4-2.4-5.6-3.4-8.7-4.5c-1.5-0.6-3.1-1.1-4.5-2.1c-0.2,0.7-0.1,1.3-0.3,1.9
		c-1.1,4.7-4.9,8.2-9.9,9.1c-4.6,0.8-8.8-0.5-12.7-2.8c-3.3-1.9-6-4.3-8.3-7.4c-0.6-0.8-1.2-1-2.1-0.7c-2.2,0.7-4.5,1.3-6.8,1.9
		c-3.4,0.9-5.8,2.9-7.7,5.9c-3.2,5.2-6.4,10.3-9.4,15.6c-0.2,0.3-0.3,0.6-0.4,0.9c-0.5,1.1-0.5,1.1,0.7,1.5
		c4.8,1.5,8.9,4.1,12.6,7.4c1.5,1.8,1.5,1.8,2.8-0.2c1.5-2.3,3-4.6,4.2-7.1c0.2-0.5,0.5-1,1-1.3c0.6-0.1,1,0.1,1,0.7
		c-0.1,1-0.4,1.9-0.7,2.9c0.5,0.2,1-0.2,1.5,0.2c0.4,1.1-0.7,1.5-1.2,2.2c-1,0.8-2.1,1.3-2.8,2.4c-0.5,0.8-0.6,1.5-0.4,2.4
		c1,4.6,2.2,9.2,3.6,13.7c0.3,1,0.5,1.9,0.8,2.9c0.4,1.3,0.6,2.6-0.3,3.8c-0.3,0.4-0.3,0.9-0.1,1.3c0.6,1.3,0.3,2.5-0.1,3.7
		c-1.4,4.3-2.8,8.6-4.1,12.9c-0.6,2-0.6,2.1,1.4,2.9c0.9,0.3,1.8,0.6,2.8,0.8c6.8,1.7,13.7,2.2,20.7,1.8c5.1-0.3,10.1-0.8,15.2-1.3
		c3.4-0.4,6.9-0.6,10.3,0c0.9,0.1,0.9-0.1,0.7-0.9c-1.2-4-2.4-8-3.5-12.1c-0.6-2.1-0.9-4.2-1.3-6.3c-0.3-1.5,0-3,0.2-4.5
		c0.2-1.3,0.4-2.7,0.7-4c0.2-0.8,0.3-1.6-0.4-2.3c-0.4-0.3-0.2-0.8,0.1-1.2c0.2-0.4,0.6-0.7,1-1c4.1-2.7,4.9-6.7,4.4-11.2
		c-0.3-3-1.4-5.7-2.6-8.5c-0.8-1.8-1-3.8-0.9-5.7c0-0.3,0.1-0.6,0.2-0.8c0.2-0.5,0.5-0.9,1.1-0.8c0.6,0.1,0.8,0.5,0.8,1
		c0.1,0.5,0,1,0,1.6c-0.2,1.5,0.4,2.9,1.1,4.2c0.5,1.1,1.1,2.2,1.6,3.4c0.5,1.3,0.5,1.3,1.9,0.8c1-0.3,2-0.7,3-0.8
		c0.9-0.1,1-0.6,0.7-1.3c-1-2.6-2.1-5.3-3.1-7.9c-1.2-3.5-2.8-6.9-3.4-10.6c-0.1-0.6-0.3-1.2,0.1-1.7c0.9-0.7,1.1,0.2,1.3,0.7
		c1.8,4.1,3.6,8.1,5.3,12.2c1.6,3.8,3.1,7.6,4.7,11.4c0.8,2,0.7,2.5-1.4,3.3c-0.2,0.1-0.4,0.5-0.4,0.7c1.1,3.7,2.3,7.3,3.4,11
		c0.1,0.3,0.3,0.5,0.6,0.7c5.8,5.1,11.6,10.2,17.5,15.4c4.3,3.8,8.6,7.6,12.9,11.5c0.6,0.5,1.1,0.6,1.7,0.2c1.7-0.8,3.5-0.9,5.3-1
		c1.9-0.1,3.9-0.6,5.8-1.3c2.1-0.8,3.7-0.7,4.8,0.6c1.1,1.3,1.1,3.5-0.2,5c-1.1,1.2-2.6,2.1-4,3.2c1.3,1.1,2.8,2.5,4.9,3.1
		c1.4,0.4,2.8,1.1,3.8,2.1c2.1,1.9,1.8,5.1-0.5,6.7c-3,2.1-6.4,2.9-10,3.5c-3,0.6-5.8-0.4-8.5-1.4c-0.8-0.3-1.6-1-2.1-1.7
		c-1.7-2.1-3.3-4.4-5.1-6.5c-0.9-1.1-1.8-2.2-2.9-3c-7.3-5-14.6-9.9-21.9-14.9c-3-2-5.8-4.2-8.7-6.3c-0.7-0.5-1.3-1.2-1.1-2.2
		c0.1-0.6,0.6-0.7,1.1-0.6c0.6,0.1,1,0.5,1.5,0.8c10,6.6,19.8,13.4,29.5,20.5c1.1,0.8,2.2,1.4,3.3,2.2c0.8,0.7,1.5,1.5,2,2.3
		c1.3,1.9,2.7,3.8,4.2,5.5c1.9,2,4.4,2.7,7,2.5c3-0.3,6-1,8.7-2.4c0.4-0.2,0.8-0.4,1.1-0.7c0.9-0.8,0.9-1.9,0-2.7
		c-0.5-0.5-1.2-0.7-1.8-0.9c-2.6-0.6-4.6-2.2-6.5-3.9c-1.1-1-1.1-1.3-2.5-0.3c-1,0.6-2.1,1.1-3.3,1c-0.6-0.1-1.1-0.2-1.2-0.9
		c-0.1-0.6,0.2-1.2,0.8-1.3c1.6-0.5,2.9-1.5,4.2-2.5c0.9-0.7,2-0.9,3-1.1c1.1-0.3,2.1-0.8,2.7-1.8c0.2-0.4,0.4-0.8,0.1-1.2
		c-0.3-0.4-0.7-0.1-1.1,0c-2.2,1-4.6,1.5-7,1.3c-1.8-0.1-3.4,0.2-5,1c-1.1,0.6-2,0.4-3-0.3c-3.4-2.3-6.6-4.9-9.6-7.7
		c-3.2-3-6.5-5.9-9.8-8.9c-3.8-3.5-7.5-6.9-11.4-10.2c-1-0.9-1.6-2.1-2.1-3.4c-1.1-2.9-2-5.8-2.8-8.8c-0.5-1.8-0.6-1.8-2.3-1.1
		c-0.3,0.1-0.6,0.3-1,0.5c-1.3,0.5-1.7,1.4-1.7,2.7c-0.4,2.1-1.3,3.9-2.5,5.6c-1.6,1-1.4,2.4-0.8,3.9c1.2,3.2,2.6,6.2,5,8.7
		C122.3,162,122.9,162.6,122.2,163.3z"/>
	<path class="st0" d="M68.3,134.2c0.4-0.6,0.8-1.3,1.2-1.9c-0.8-0.1-1.1-0.5-1-1.3c0.1-0.5,0.1-1,0.1-1.5c-0.1-0.5-0.2-1-0.9-0.7
		c-1.7,0.5-2.4,2-3.3,3.3c-1.2,1.6-2.3,3.2-3.5,4.7c-0.3,0.4-0.6,0.9-1.2,0.7c-4.3-3.9-8.6-6.3-14.2-7.8c0.3-0.6,0.6-1.2,0.9-1.8
		c3.2-5.4,6.5-10.7,9.7-16.1c1.8-3.1,4.3-5.2,7.9-6.1c2.6-0.6,5.1-1.5,7.7-2.1c0.3-0.1,0.8,0.3,1.1,0.6c2.5,3.3,5.5,6.1,9.2,8.1
		c3.4,1.9,7,2.9,10.9,2.5c5.3-0.4,11-5,10.8-11.1c2.8,1.1,5.6,2.2,8.4,3.3c2.1,0.8,4,1.9,5.4,3.6c0.1,0.2,0.1,0.3,0.2,0.5
		c0.5,2.2,0.9,4.5,1.6,6.7c1.7,5,3.7,9.9,5.5,14.8c-1.5,0.4-3,0.7-4.5,1.1c-0.5-0.2-0.7-0.7-0.9-1.2c-1-2.6-2.5-4.9-3.9-7.2
		c0-0.5,0-1-0.1-1.4c-0.1-0.4-0.3-0.9-0.5-1.3c-0.3,0.4-0.8,0.8-0.8,1.3c-0.1,2,0,4.1,0.8,6c0.6,1.3,1.3,2.7,1.6,4.1
		c0.5,2.3,1,4.6,1.1,6.9c0.1,3.8-1.4,6.9-4.8,9c-0.4,0.2-0.7,0.6-1,1c-0.3,0.5-0.3,1,0.4,1c0.6,0,0.6,0.3,0.5,0.8
		c-0.4,1.9-0.6,3.9-1,5.8c-0.8,3.8,0.4,7.3,1.3,10.8c1,3.9,2.2,7.8,3.4,11.7c0.2,0.5,0.3,1.1,0.4,1.5c-1.8-0.2-3.5-0.5-5.2-0.4
		c-3.8,0.2-7.6,0.4-11.3,0.8c-10,1-20.1,1.6-30-0.9c-0.4-0.1-0.8-0.2-1.2-0.3c-0.5-0.5-0.3-1.1-0.2-1.7c0.7-5.7,1.7-11.3,3.1-16.8
		c0.3-1.2,0.7-2.1,1.9-2.5c0.3-0.1,0.8-0.2,0.8-0.6c0-0.4-0.4-0.6-0.7-0.7c-1.3-0.4-1.7-1.3-1.7-2.7c0-1.9-0.7-3.7-1.2-5.5
		c-1.3-3.8-2.3-7.7-3.3-11.6C67.2,137.5,67.5,135.9,68.3,134.2z"/>
	<path class="st1" d="M82,323.2c0,1.7,0,3.4,0.1,5.1c0.1,2,0.8,2.7,2.8,2.7c2.7,0,5.3-0.1,8,0c1.2,0,2.4,0.5,3.6,0.6
		c5.4,0.7,10.9,1.5,16.3,0.9c3.9-0.4,7.7-1.2,11.1-3.5c0.4-0.3,0.8-0.8,1.1-1.2c1.9,0.8,3.8,1.6,5.7,2.4c0.1,0.1,0.3,0.2,0.4,0.2
		c3,1.9,3,4.1,0,6c-3.1,1.9-6.5,2.8-10,3.6c-9.4,2.1-18.9,2.9-28.5,3.4c-9,0.4-18.1,0.3-27.1-0.3c-0.8,0-1.5-0.2-2.3-0.2
		c0.1-0.6,0.7-0.5,1.1-0.6c2.3-0.3,4.6-0.8,6.8-1.5c1.4-0.5,2.3-1.4,2.3-2.9c0.1-1.8,0-3.6-0.7-5.4c-1-2.6-1.8-5.4-2.5-8.1
		c-0.1-0.4-0.2-0.9,0.3-1.2c3.5-0.4,7-0.5,10.5-0.4C81.4,322.9,81.7,323,82,323.2z"/>
	<path d="M70.5,323.5c1,3.2,2.2,6.3,2.9,9.6c0.5,2,0.4,4.1,0.2,6.1c-0.1,0.6-1.1,1.5-1.9,1.7c-2.4,0.7-4.9,1.1-7.3,1.7
		c-0.3,0.1-0.6,0.2-1,0.3c-0.2,0-0.4,0-0.7,0c-0.6-0.2-1.3,0-1.9-0.1c-1.7-0.2-3.3-0.4-5-0.6c-0.5-0.2-1-0.2-1.5-0.3
		c-1.7-0.3-3-1.2-4.3-2.1c-1.2-0.8-1.2-2.1-1.1-3.4c0.2-2.5,0.6-4.9,1.3-7.3c0.3-0.9,0.5-1.8,0.8-2.7c0.2-0.5,0.3-0.9,0.7-1.2
		c0.1-0.4,0.3-0.8,0.4-1.2c0.5-1.6,1.1-3-0.1-4.7c-0.7-1-0.9-2.4-1.2-3.6c-0.5-1.9-0.3-3.7,0.6-5.3c0.4-0.7,0.5-1.3,0.1-2
		c-0.6-0.9-0.4-1.9,0.1-2.7c0.7-1.2,0.7-2.5,0.7-3.8c0.1-6.1,0.2-12.2,0.5-18.3c0.2-5.2,2-10,4.2-14.6c0.2-0.3,0.5-0.5,0.8-0.8
		c1,0.1,1.3,0.4,1.2,1.4c-0.1,0.9-0.4,1.7-0.8,2.5c-2.1,4.8-2.7,9.9-3,15.1c-0.3,4,0,7.9-0.2,11.9c-0.1,2.2-0.1,4.5-0.7,6.7
		c-0.2,0.7-0.2,1.4,0.1,2.1c0.5,1.1,0.5,2.2,0,3.2c-0.1,0.2-0.1,0.5-0.3,0.7c-1.2,2-0.5,3.9,0.3,5.8c0.3,0.7,0.8,0.6,1.4,0.3
		c1.4-0.7,2.9-0.9,4.4-1.3c2.5-0.6,4.8-0.2,7.1,0.9c0.4,0.2,0.8,0.5,1.3,0.6c0.7,0.3,0.8,0,0.5-0.6c-0.3-0.8-0.3-1.6,0.1-2.3
		c0.4-0.8,0.4-1.7,0.2-2.6c-0.3-0.8-0.3-1.6,0.1-2.3c0.6-1.5,0.4-3.1,0.6-4.6c0.9-7.9,2.3-15.7,3.7-23.5c0.6-3.1,1.2-6.3,1.6-9.4
		c0.1-0.8,0.3-1.5,1.2-1.7c1,0.4,1,1.3,1.1,2.2c0.2,3.5-0.3,6.9-0.9,10.4c-1.7,8.6-3,17.3-4.5,26c-0.1,0.9-0.1,1.7,0.1,2.6
		c0,0.2,0.1,0.3,0.1,0.5c0.5,1.5-0.7,2.8-0.5,4.2c0.2,1.6-0.2,2.7-1.1,3.9c-0.4,0.5-0.5,1.1-0.4,1.7
		C70.7,322.6,70.8,323.1,70.5,323.5z"/>
	<path class="st2" d="M69.5,317.3c0,0.4,0.1,0.9,0.1,1.3c-0.3-0.1-0.7-0.1-1-0.3c-4.3-2.8-8.6-2.1-12.9-0.1c-1,0.4-1.1,0.2-1.5-0.6
		c-1.3-2.5-1.2-4.8,0.1-7.2c0.4-0.7,0-1.8-0.1-2.7c0-0.6-0.2-1.3-0.1-1.9c0.2-2.3,0.6-4.5,0.7-6.8c0.2-5.1,0.3-10.2,0.6-15.3
		c0.2-3.8,1-7.6,2.5-11.1c0.4-0.9,0.7-1.9,1-2.8c0.2-0.8,0.1-1.4-0.9-1.7c0-0.2,0-0.3,0.1-0.5c1.6,0.3,2.4-0.4,1.8-1.8
		c-0.6-1.8-0.3-3.3,0.7-4.8c0.5-0.8,0.7-1.8,0.7-2.7c-0.3-9.7-0.7-19.3-1.1-29c-0.2-6.5-0.6-13-0.7-19.5c0-2.9,0.3-5.8,0.6-8.7
		c0-0.3,0.4-0.8,0.7-0.9c1-0.3,2.1-0.4,3.2-0.5c0.4,0.6,0,1.2,0.1,1.8c0,0.5-0.1,1,0,1.5c-0.1,0.6-0.2,1.2-0.3,1.8
		c-0.4,1.9-0.3,3.9-0.6,5.9c-0.1,0.3-0.1,0.6-0.2,0.9c-0.6,0.4-0.6-0.2-0.7-0.5c-0.1-0.5,0-1.1-0.2-1.7c-0.1-0.2-0.2-0.4-0.4-0.4
		c-0.3,0-0.4,0.2-0.5,0.4c-0.2,1-0.2,2.1,0,3.1c0.1,0.5,0.4,0.8,0.9,0.5c0.2-0.1,0.5-0.3,0.7,0.1c0.1,1.7,0,3.3-0.2,5
		c-1.4,1.5-1.4,3.7,0,5.8c0.3,1.4,0.1,2.9,0.2,4.3c-0.4,0.9-0.6,1.8-0.6,2.9c0,0.9,0.2,1.7,1,2.3c0,1.5,0.1,3.1,0.5,4.6
		c-1.3,1-1.3,3.5-0.1,5.1c0.2,1.1,0.5,2.3,0.2,3.4c-1.3,0.9-1.1,2.3-1,3.7c0,0.6,0.6,0.7,0.9,1c0.3,1.2-0.1,2.3,0,3.5
		c-1,1-0.8,2.3-0.9,3.5c-0.1,0.7,0.7,0.8,1.1,1.1c-0.6,1.4-0.7,3-1.1,4.5c-0.8,0.6-1.3,1.5-1.5,2.4c-0.3,0.9-0.2,1.6,0.5,2.3
		c-0.3,1.6-0.8,3.1-1.4,4.6c-1.7,1-2.2,3.2-1,4.5c-0.1,1.1-0.4,2.2-0.6,3.3c-1.4,1.2-1.4,2.9-1.5,4.5c0,0.6,0.7,0.7,0.9,1.1
		c-0.8,1.3-0.7,2.8-0.6,4.3c-0.7,1.7-0.7,3.5-0.2,5.2c-0.1,1.4-0.1,2.7,0.2,4c-1.1,1.2-1,2.7-0.9,4.2c0,0.7,0.7,0.8,1,1.3
		c0,1.6,0,3.3,0,4.9c0,0.4,0,0.8-0.3,1.1c-0.4,0.2-0.5-0.1-0.5-0.4c-0.1-0.4,0-0.8-0.3-1.1c-1.1,1-1.3,3.4-0.4,4.4
		c0,0.6-0.2,1.2,0.8,0.9C61.4,313.8,65.6,314.6,69.5,317.3z"/>
	<path class="st1" d="M51.9,325.2c-0.7,2.7-1.4,5.3-2.2,8c-0.1,0.5-0.2,0.9-0.2,1.4c-0.5,4.9-0.3,4.5,4.3,6.9
		c0.2,0.1,0.5,0.2,0.8,0.3c0,0.2,0,0.3-0.3,0.2c-6.6-0.8-13.1-1.8-19.3-4.4c-1.2-0.5-2.4-1.2-3.4-2c-1.8-1.4-1.8-3.1,0-4.5
		c1.2-0.9,2.6-1.6,3.9-2.2c4.7-1.9,9.6-2.8,14.6-3.6C50.8,325.3,51.4,325.2,51.9,325.2z"/>
	<path class="st3" d="M158.3,187c-4-2.7-7.9-5.5-11.9-8.2c-7.2-4.9-14.4-9.8-21.5-14.8c-0.6-0.4-1.2-0.7-1.8,0
		c-0.3-0.2-0.6-0.5-0.8-0.7c-0.2-0.5-0.2-1.1-0.5-1.5c-2.8-2.9-4.4-6.5-5.6-10.3c-0.3-1-0.3-1.6,0.6-2.2c0.3-0.2,0.5-0.4,0.7-0.6
		c0.8,0.8,0.9,1.9,1.3,2.9c1.5,3.3,2.9,6.5,5.6,9c1.9,1.7,3.8,3.4,5.9,4.8c7.3,4.8,14.1,10.2,21.3,15.2c2,1.4,3.9,2.8,5.7,4.3
		C157.9,185.5,158.7,186,158.3,187z"/>
	<path class="st4" d="M54.4,342c0.1-0.1,0.2-0.2,0.3-0.2c0.4,0.1,0.9,0.3,1.3,0.4C55.4,342.1,54.9,342,54.4,342z"/>
	<path class="st5" d="M60.9,342.7c0.6,0,1.3,0.1,1.9,0.1C62.2,342.8,61.6,342.8,60.9,342.7z"/>
	<path class="st6" d="M62.8,211.5c0.2-2.1,0.3-4.3,0.5-6.4c0-0.3,0.3-0.5,0.5-0.8c3.7-0.3,7.5-2.2,8.1-3.9c-0.6-0.1-1,0.3-1.4,0.5
		c-1.7,0.8-3.4,1.7-5.2,2c-0.4,0.1-0.8,0.3-1.3,0c-0.1-0.2-0.4-0.5-0.4-0.7c0.1-0.9,0.2-1.8,0.4-2.7c2.1-1,4.3-1.9,6.3-3.1
		c1.2-0.7,2.3-1.7,2.4-3.3c0.3-0.8,0.9-0.5,1.4-0.4c3.3,0.4,6.6,0.6,9.9,0.5c1.2,0,2.4-0.3,3.6-0.2c0.4,0,0.8-0.1,1.2,0.1
		c0.4,1,1.2,1.4,2.1,1.4c3.7,0,7.4,0,11.2,0c0.8,0,1.3-0.3,1.6-1.1c0.1-0.3,0.5-0.5,0.8-0.6c4.1-0.4,8.3-0.8,12.4-1.2
		c0.7-0.1,1,0,1.1,0.8c0.1,1.5,0.3,3,0.2,4.6c-0.5-0.6-0.9-1.2-1.5-1.7c-0.6-0.5-1.2-1-1.9-1.5c-0.2-0.1-0.7,0-1,0
		c0.1,0.3,0,0.7,0.2,1c1.3,2.1,2.7,4.2,4,6.4c0.4,0.7,0.5,1.7,0.4,2.5c-0.8,6.1-1.2,12.2-2.5,18.1c-2.2,10.5-4.9,20.9-7.3,31.4
		c-0.7,3.1-1.4,6.3-2.1,9.5c-0.2,0.7-0.4,1.5-0.7,2.1c-1.6,2.6-2,5.5-2.4,8.4c-0.7,6.4-1.7,12.7-2.5,19.1c-0.4,3.1-0.3,6.1,0.7,9.1
		c0.1,0.3,0,0.8-0.2,1.1c-0.8,1.2-0.8,2.4-0.4,3.6c0.2,0.6,0.4,1.1,0.6,1.7c0.5,1.4,0.4,2.8-0.4,4.1c-0.3,0.5-0.8,0.4-1.3,0.3
		c-3.7-0.8-7.3-0.5-10.8,0.6c-0.4,0.1-0.8,0.3-1.1,0.3c-0.7,0.1-1.4,0-1.8-0.6c-0.4-0.6-0.3-1.2,0.1-1.7c0.2-0.1,0.4-0.1,0.6-0.1
		c1.1,0.3,1.4,0.1,1.2-1c-0.1-0.6-0.1-1.1-0.2-1.7c-0.2-1.2-0.3-1.3-1.4-0.8c-1.3-0.4-1.7-1.3-1-2.4c0.3-0.5,0.6-0.9,0.8-1.4
		c0.3-0.9,1-1.3,1.7-1.7c0.7-1.7,0.7-3.3-0.3-4.8c-0.8-1.3-0.6-2.6-0.2-4c1.2-1.2,1-2.7,0.7-4.1c-0.1-0.4-0.3-0.8-0.4-1.3
		c-0.3-1.5,0-3,0.4-4.5c0.4-1.5,0.1-3,0.5-4.4c0-1.6,0.3-3.1,0.6-4.6c0-0.1,0-0.3,0.1-0.4c0.4-2.7,0.7-5.3,1.4-8
		c0.5-1.3,1-2.7,0.7-4.2c0.2-1.3,0.2-2.6,0.8-3.8c1.2-1.4,1.3-2.9,0.7-4.6c-0.1-1.2,0.2-2.3,0.4-3.5c0.2-0.5,0.4-1,0.6-1.6
		c0.2-0.9,0.2-1.8,0-2.7c0-0.1-0.1-0.3-0.1-0.4c0.1-1.7,0.4-3.3,0.4-5c0-0.1,0-0.3,0.1-0.4c0.3-1.1,0.2-2.3,0.3-3.4
		c0.1-2.3,0.3-4.6,0.3-6.9c0-2-0.2-4-0.2-6.1c0-0.1,0-0.3,0-0.4c0.1-0.6,0.1-1.1-0.1-1.7c-0.1-0.7-0.3-1.4-0.3-2.1
		c0-0.8,0-1.6,0-2.3c-0.1-0.7,0.3-0.9,0.9-0.9c1.4-0.4,2.8-0.8,4.2-1.3c0.7-0.2,1.2-0.8,0.8-1.6c-0.4-0.8-1.1-0.5-1.8-0.3
		c-1.5,0.5-3,1-4.5,1.5c-0.8,0.2-1.4,0.4-2.2-0.3c-0.6-0.6-1.6,0-1.8,1.1c-0.5,2.7-0.9,5.4-1.6,8c-1.9,7.9-4,15.9-5.9,23.8
		c-0.8,3.3-1.3,6.7-1.9,10.1c-0.7,4-1.9,7.9-3.7,11.6c-0.4,0.7-1.1,1.6,0.3,2.1c0.3,0.3,0,0.4-0.1,0.5c-0.3,0.5-0.8,0.9-0.9,1.4
		c-1.4,7.7-2.7,15.4-4,23.1c-0.7,4.4-1.1,8.8-1.7,13.2c-0.1,0.6-0.4,1.2-0.4,1.8c-0.1,0.6,0,1.3,0.1,2c0.3,0.9,0.3,1.7-0.2,2.6
		c-0.3,0.6-0.1,1.4-0.1,2.1c-0.2,0-0.4,0.1-0.5,0c-3.8-2.5-7.8-3.1-12.2-2c-0.3,0.1-0.7,0-1.1,0c0.1-0.4,0.3-0.8,0.4-1.2
		c0.5-0.9,0.1-2.1,1-2.9c0.1-0.9,0.2-1.8,0.2-2.6c0.1-1.2,0.1-2.4,0.2-3.6c-0.2-0.7-0.1-1.4,0-2c0.2-1.1,0.2-2.1,0-3.2
		c-0.7-1.4-0.6-2.8-0.2-4.2c1.1-1.2,1.2-3.6,0.2-5.2c-0.6-1.4-0.3-3.7,0.7-4.4c-0.1-0.8,0.4-1.6,0.4-2.4c0.1-1.1,0.2-2.1,0.1-3.2
		c0.2-1.1,0.5-2.2,0.7-3.3c0.4-1.5,1-2.9,0.9-4.5c0.5-1.5,1-3.1,1.5-4.6c0.6-1.4,0.9-2.9,0.9-4.5c0.2-1.2,0.3-2.4,0.5-3.6
		c0.1-0.4,0.4-0.7,0.7-1c-0.2-1.5,0-3-0.2-4.5c0-1.2,0-2.4,0-3.6c0.3-1.5,0.1-3,0-4.5c-0.1-1.2-0.2-2.5-0.2-3.7
		c0.5-1.2,0.5-2.3,0.2-3.6c-0.1-0.5-0.2-0.9,0-1.4c-0.9-1.5-0.9-3-0.4-4.6c0.2-1.7,0.4-3.4-0.5-5c-0.1-1.5-0.2-3.1-0.3-4.6
		c0.6-1.4,0.4-2.9,0.1-4.3c-0.1-0.4-0.3-0.8-0.1-1.2c0.1-1.8,0.2-3.6,0.3-5.3C62.4,212.3,62.4,211.9,62.8,211.5z"/>
	<path class="st7" d="M72.1,72.3c-0.2-0.9-0.4-1.7-0.5-2.6c0-0.9-0.4-1.4-1.3-1.5c-4.2-0.8-7.5-4.4-8-8.6c-0.1-0.9,0-1.8,0.2-2.7
		c0.3-1.4,1.1-2.5,2.6-2.8c1.5-0.4,2.9,0,4.1,1.1c2.1,2,2.9,4.5,3.4,7.2c0.1,0.5,0.5,1.2,0.7,1.2c0.6,0,1.7-0.2,1.8-0.6
		c0.6-1.5,1.3-3.1,1.4-4.7c0.3-4-0.9-7.7-2.7-11.2c-0.2-0.5-0.5-0.9-0.7-1.4c-0.1-0.2-0.2-0.5-0.3-0.8c1.6-0.3,1.7-0.5,1.3-2.3
		c-0.1-0.2-0.2-0.5,0-0.7c0.3-0.3,0.5,0,0.7,0.1c0.5,0.4,0.9,0.8,1.3,1.2c1.2,0.9,2.5,1.3,4,0.8c0-0.7,0.2-1.6-0.1-2.2
		c-2.2-5.5-1.6-10.9,0.5-16.3c0.7-0.1,0.8,0.5,0.9,0.9c1.4,3.6,3.5,6.8,6,9.7c0.5,0.5,1,1,1.5,1.5c0.3,0.2,0.7,0.4,0.5,0.9
		c-0.4,0.3-0.8,0.2-1.3,0.2c-1.7,0.2-3.2,0.7-4.4,1.9c-0.3,0.3-0.7,0.7-0.4,1.2c0.3,0.5,0.8,0.2,1.2,0c1.8-1.1,3.8-1.1,5.8-0.7
		c0.6,0.1,1.3,0.3,1.7-0.4c0.4-0.7-0.2-1.2-0.7-1.6c-0.1-0.1-0.1-0.2-0.2-0.3c0.1-0.7,0.6-0.7,1.1-0.7c1.6-0.2,3.2-0.5,4.8-0.4
		c1.3,0.1,2.3-0.1,3.2-0.9c0.2-0.1,0.5-0.2,0.7-0.3c1,0.3,1.5,1,1.6,1.9c-0.2,0.3-0.5,0.5-0.7,0.8c-0.3,0.3-0.5,0.6-0.3,1.1
		c0.2,0.4,0.6,0.6,1,0.5c1.7-0.4,3.4-0.3,5,0.3c0.2,0.1,0.5,0.1,0.6-0.1c0.1-0.2,0-0.5-0.1-0.7c-0.2-0.3-0.4-0.6-0.7-0.8
		c-0.2-0.2-0.6-0.4-0.4-0.9c0.4-0.3,0.8-0.3,1.2-0.2c1.3,0.3,2.7,0.1,4,0.8c0.2,5.9,0.6,11.7,0.6,17.6c0,5.5-0.3,11-1.6,16.4
		c-1.1,4.7-3.1,9-5.9,13c-0.4,0.5-0.9,1-1.3,1.5c-2,2-4.4,3.3-7.1,4c-1.7,0.4-3.4,0-4.9-0.5c-3.4-1.1-6.4-3-9.1-5.4
		c-3.2-2.9-6.1-6.1-8.7-9.5C73.5,74.9,72.8,73.7,72.1,72.3z"/>
	<path class="st8" d="M71.6,39.7c0.1,0.7,0.2,1.5,0.3,2.1c-1.3-0.1-2.6-0.1-3.9-0.3c-0.3,0-0.6-0.5-0.7-0.8
		c-1.3-3.7-0.9-7.4-0.2-11.1c0.1-0.5,0.3-1.1,0.3-1.6c0-0.2-0.1-0.4-0.2-0.7c-0.2,0.1-0.6,0.1-0.7,0.2c-0.5,0.7-1,1.4-1.2,2.2
		c-0.4,1.4-0.7,2.9-1,4.4c-1.1,0.5-2-0.1-2.9-0.6c-0.3-0.3-0.3-0.7-0.2-1.1c0.3-2.5,0.8-5,2.2-7.1c0.3-0.5,0.9-1.2,0.2-1.7
		c-0.7-0.5-1.2,0.2-1.6,0.7c-1.2,1.5-1.8,3.3-2.1,5.2c-0.1,0.6-0.2,1.2-0.4,1.8c-0.4,0.9-0.9,0.8-1.5,0.2c-1.1-1.1-1.7-2.4-2.1-3.8
		c0.6-3.3,2.1-6.1,3.7-8.9c0.3-0.5,0.7-1-0.1-1.5c0.1-0.7,0.5-1.3,1.2-1.5c0.5-0.3,1.1-0.5,1.5-0.9C68,9.2,74.9,6.4,82.7,5.6
		c0.1,0,0.2,0,0.4,0c0.1,0,0.1,0,0.3,0.1c-0.5,0.6-1.1,1.1-1.4,1.7c-0.2,0.4-0.2,1-0.3,1.5c0.4-0.1,1-0.2,1.3-0.5
		c4.6-3.8,9.8-6.2,15.9-5.9c2.5,0.1,4.9,1.1,7.4,1.6c0.5,0.8,1.2,1.3,2,1.8c3.2,2,6,4.4,8.4,7.4c0.5,0.6,0.6,1.1,0.2,1.8
		c-1,1.8,0.2,4.2,2.1,4.7c0.3,0.1,0.6,0.1,0.9,0.3c0.4,1.6,1,3.2,1.1,4.8c0.3,4,0.1,8.1-1.1,12c-0.1,0.4-0.4,0.8-0.6,1.1
		c-0.6-0.4-1.3-0.7-1.1-1.7c0.2-1.4,0.5-2.8,0.5-4.3c0-6.1-1.7-11.6-5.8-16.2c-0.9-1-2-1.8-3.1-2.6c-0.3-0.2-0.9-0.1-1.4-0.2
		c0.2,0.4,0.3,1,0.6,1.2c3.7,3.2,6.1,7.2,6.7,12.1c0.3,2.7,0.2,5.4,0.2,8.1c0,0.7-0.2,1.1-1,0.7c-2.5-1.1-5.1-1.3-7.8-0.9
		c-0.9,0.2-1.1,0-1.3-0.9c-1.2-5.2-3.7-9.6-7.7-13.1c-0.1-0.1-0.2-0.2-0.3-0.2c-2.5-1.3-4.7-3.1-6.9-4.9c-0.2-0.2-0.5-0.3-0.7-0.4
		C89.8,15,89.4,15,89,14.9c0.2,0.3,0.3,0.8,0.6,1c5,4.6,7.8,10.4,9.2,17c0.1,0.6,0,0.9-0.7,0.8c-1.9-0.3-3.8-0.3-5.7,0.4
		c-0.4,0.1-1-0.3-1.4-0.6c-2.7-2.5-4.6-5.5-6.1-8.8c-1.5-3.3-2.7-6.8-2.4-10.5c0-0.3-0.2-0.9-0.3-0.9c-0.4,0-0.8,0.2-1.2,0.3
		c-0.5,0.8-0.7,1.7-0.7,2.6c0,1.5,0,3,0.2,4.4c0.1,0.7,0.1,1.4-0.2,2.1c-3.1,4.9-4,10.3-3.3,16c0.1,0.3,0.2,0.5-0.3,0.5
		c-3.5-4.7-4.4-10-3.9-15.6c0.1-0.8,0.2-1.6-1.1-1.3c-1.5,0.5-1.8,1.9-2,3.3c-0.6,3-0.4,6,0.7,8.8C71.1,36.1,71.7,37.8,71.6,39.7z"
		/>
	<path class="st7" d="M43.3,158.2c-2.8,0.3-4.8-1.2-6.3-3.4c-4.6-6.7-8.8-13.6-12.4-20.9c-1.8-3.6-3.5-7.2-5.3-10.9
		c-1.3-2.7-2.9-4.8-6-5.5c-1.4-0.3-2.7-1.1-4-1.6c-4.1-1.4-5.9-4.5-6.5-8.5c-0.4-2.8-0.3-5.6,0.3-8.3c0.2-0.9,0.4-1.9,1.6-2.2
		c1.2-0.2,1.9,0.5,2.6,1.2c0.2,0.2,0.4,0.4,0.5,0.7c1.3,2.8,3.8,4.4,6.3,5.9c0.7,0.4,0.8,0.6,0.5,1.4c-0.4,1.2-0.4,2.6-0.5,3.9
		c0,0.3,0.6,0.7,0.9,1c0.3-0.3,1-0.7,1-1c0-1.6,0.6-3,1.2-4.5c0.4-0.8,0.4-1.9,0.4-2.8c0-1.4,0.1-2.8,1.2-3.9c0.3-0.3,1-0.4,1.5-0.6
		c0.1,0.4,0.4,0.9,0.4,1.3c-0.3,3.2,0.1,6.3,0.8,9.4c0.3,1.3,0.1,2.6,0.2,3.9c0.1,0.6,0.2,1.3,0.5,1.8c3.9,6.6,8.2,13,13.3,18.9
		c1.7,1.9,3.5,3.9,5.2,5.8c2.1,2.4,3.9,4.9,4.7,8.1c0.1,0.3,0.4,0.5,0.6,0.8c0.2-0.3,0.6-0.6,0.6-0.9c-0.1-1.1-0.1-2.2-0.5-3.1
		c-0.7-1.7-1.7-3.2-2.6-4.8c-0.2-0.3-0.1-0.8-0.2-1.2c0.5-0.4,1-0.2,1.4,0c2,1.1,3.9,2.3,5.5,4c0.6,0.6,1,1.3,1.3,2
		c0.3,0.7,0.3,1.3,0,1.9c-1.8,3.9-4,7.5-6.7,10.8C44.5,157.4,44,157.8,43.3,158.2z"/>
	<path class="st7" d="M158.3,187c-0.4-0.6-0.7-1.4-1.3-1.8c-6.8-5.1-13.7-10.1-20.6-15.2c-3.8-2.8-7.7-5.5-11.4-8.4
		c-3.2-2.5-4.9-6.2-6.5-9.9c-0.4-0.9-0.7-1.9-1-2.9c0.8-1.8,1.6-3.6,2.5-5.5c0.8-1.1,2.1-1.2,3.2-1.7c0.7-0.3,1.4-0.9,2.3-0.5
		c0.9,2.9,1.7,5.9,2.9,8.7c0.6,1.5,1.6,2.9,2.7,4c6.7,6.1,13.4,12.2,20.2,18.2c3.1,2.7,6.4,5.2,9.6,7.8c1,0.8,1.9,1,3.1,0.4
		c1.5-0.8,3.1-1,4.9-0.9c2.4,0.2,4.7-0.4,7-1.3c0.5-0.2,1-0.1,1.5-0.1c0,0.6,0.1,1.3-0.1,1.8c-0.7,1.2-1.9,1.8-3.2,2
		c-1.5,0.3-2.7,1-3.9,2c-0.7,0.6-1.7,0.8-2.5,1.4c-0.5,0.3-1.1,0.8-1.1,1.3c0,0.9,0.9,0.9,1.5,0.7c1.2-0.4,2.4-0.9,3.5-1.5
		c0.6-0.3,0.8-0.4,1.2,0.1c1.1,1.1,2.3,2.2,3.5,3c1,0.7,2.2,1,3.2,1.5c0.8,0.4,1.7,0.6,2.4,1.1c1.2,0.9,1.2,2.3,0,3.2
		c-2.2,1.5-4.8,2.2-7.3,2.8c-2.6,0.6-5.1,0.7-7.5-0.5c-0.8-0.4-1.7-0.9-2.3-1.6c-1.6-1.9-3-3.8-4.5-5.8
		C159.5,188.5,158.9,187.7,158.3,187z"/>
	<path class="st8" d="M54.7,14.5c-0.3,1.1-0.7,2.2-1,3.3c0,1-0.6,1.1-1.4,0.9c-1.6-0.2-2.6,0.9-3.7,1.7c-0.6,0.4-1.1,0.9-1.7,1.3
		c-4.6,3-7.4,7.4-9.2,12.5c-0.1,0.4-0.2,0.8-0.6,1.2c-1.6,2.2-1.7,4.7-1.6,7.2c0,1.7,0.3,3.3,0.5,5c0.1,0.9-0.3,1.1-0.9,0.8
		c-1.3-0.6-2.6-1.3-3.8-2.1c-0.3-0.2-0.5-1-0.5-1.5C31,40.8,32,36.8,34,33.2c0.9-1.6,1.9-3.1,2.8-4.7c0.2-0.4,0.2-0.9,0.3-1.4
		c-0.4,0.1-0.9,0.1-1.3,0.2c-3.6,1.6-6.3,4.3-8.6,7.5c-0.3,0.5-0.6,0.9-0.9,1.4c-0.2,0.3-0.3,0.8-0.9,0.6
		c-0.1-8.5,2.3-16.1,8.2-22.2c6.2-6.4,14.1-8.4,22.9-6.9C57.3,7.8,58.2,8,59,8.1c-0.7,1.6-1.3,1.9-3,1.9c-5.4-0.2-10,1.8-14.3,4.8
		c-3.5,2.4-6.1,5.6-8.1,9.3c-0.1,0.1-0.2,0.2-0.2,0.3c0,0.6,0,1.2,0,1.8c0.4-0.3,1-0.6,1.2-1C38,20,43,17.3,48.6,15.7
		c0.9-0.3,1.9-0.3,2.8-0.5c0.4-0.1,0.7-0.3,1-0.5C53.3,13.7,54,13.7,54.7,14.5z"/>
	<path class="st2" d="M88.4,283.1c-0.1,1.5-0.3,3-0.4,4.6c-1.1,1.5-1.2,3.7-0.3,5.3c-0.2,1.3-0.6,2.6,0.2,3.9
		c-1.4,1.2-0.8,2.8-0.8,4.3c0,0.5,0.7,0.6,1,0.9c-1.8,0.4-1.9,2.2-2.8,3.4c-0.4,0.6,0.2,1.4,1.1,1.6c0.3,1.2,0.4,2.4,0,3.6
		c-0.3,0.5-0.8,1.2-0.1,1.7c0.4,0.3,1.2,0.5,1.7,0.3c3.2-1.2,6.4-1.3,9.7-1.2c0.7,0,1.5,0.3,2.2,0.4c0.4,0.1,0.7,0,1.1,0
		c-0.2,1-0.6,1.4-1.7,1c-3.4-1-6.6-0.1-9.8,1.2c-1.3,0.5-2.5,1-3.8,1.4c-0.5,0.2-1.4,0.3-1.5,0.1c-0.3-0.7-0.5-1.5-0.5-2.2
		c0.1-1.1,0.5-2.1,0.6-3.2c0-0.7-0.2-1.5-0.6-2c-0.7-0.9-0.6-1.6-0.1-2.3c0.6-0.8,1-1.6,0.2-2.5c-0.1-0.2-0.1-0.5-0.1-0.8
		c0-3.3,0.1-6.7-0.1-10c-0.8-9.3-0.3-18.5,2.5-27.5c0.3-0.9,0.8-1.8,1.1-2.8c0.2-0.8,0.3-1.6,0.4-2.4c0-0.3-0.1-0.6,0-0.8
		c1.1-1.6,1.1-3.4,1.1-5.2c0.1-7.7,0.1-15.3,0.2-23c0-1,0.3-2,0.5-2.9c0.7-3.7,1.4-7.4,2.1-11.1c0.1-0.8,0.3-1.1,1.2-0.9
		c0.7,0.1,1.4-0.1,2.1-0.1c-0.2,0.3-0.5,0.6-0.5,0.9c-0.1,0.8,0,1.7,0,2.5c-1.2,0-1.3,0.1-1.4,1.4c0,0.2,0,0.4,0,0.6
		c0,1.7,0.1,1.7,1.6,1.6c0.1,0.3,0.2,0.7,0.2,1c0.1,1.7,0.3,3.3,0.2,5c-0.1,2.7-0.3,5.5-0.4,8.2c-0.1,0.9-0.2,1.9-0.3,2.8
		c-0.4-0.4-0.3-0.9-0.3-1.3c0-0.4,0-0.8-0.1-1.2c-0.1-0.4-0.1-0.8-0.6-0.8c-0.5,0-0.6,0.4-0.6,0.7c-0.1,0.5-0.2,0.9-0.2,1.4
		c-0.1,1.4,0.4,1.8,1.7,1.4c-0.1,1.8-0.3,3.5-0.4,5.3c-1-0.2-1.4,0.4-1.5,1.3c-0.1,1.1-0.5,2.3,1,2.9c-0.1,1.2-0.3,2.4-0.4,3.7
		c-1.6,1.3-1.3,2.9-0.7,4.6c-0.2,1.3-0.5,2.5-0.7,3.8c-1.3,0.5-1.5,1.6-1.6,2.8c-0.1,0.8,0.5,1,0.9,1.4c-0.4,2.6-0.8,5.1-1.2,7.7
		c0,0.1-0.2,0.3-0.2,0.4c-0.5-0.7-0.3-1.4-0.2-2.2c0-0.2,0.1-0.3,0.1-0.5c0-0.4,0.2-1-0.3-1.1c-0.6-0.1-0.6,0.5-0.7,0.9
		c-0.1,0.5-0.2,1-0.2,1.5c0,1.3,0,1.4,1.4,1.3c-0.2,1.6-0.3,3.2-0.5,4.8c-0.9-0.4-1.3-0.1-1.4,0.9c-0.1,0.5-0.1,1-0.2,1.5
		C87.2,282,87.5,282.7,88.4,283.1z"/>
	<path class="st9" d="M52.2,18.4c0.7,0.3,1.2,0.3,1.5-0.5c-0.3,1.6-0.1,3,1.2,4.2c0.2,0.1,0.2,0.7,0,0.9c-1.6,3.3-2.1,6.9-2.2,10.6
		c0,0.4-0.1,0.9-0.4,1.2c-2.9,3.5-4.3,7.7-4.8,12.2c-0.2,1.9,0,3.9,0,6c-0.8-1.1-1.5-2.1-2.2-3C44.5,49,43.9,49,43.4,50
		c-0.4,0.7-0.7,0.7-1.3,0.4c-0.3-0.2-0.7-0.4-1.1-0.5c-2.3-0.7-3.2-2.4-3.4-4.7c-0.2-3-0.5-6,0.2-8.9c0.1-0.6,0-0.9-0.7-0.8
		c0.7-3.3,2.1-6.4,4.3-8.9c1.6-1.9,3.6-3.3,5.4-5c0.2,0.7-0.4,1.1-0.8,1.5c-2.4,2.6-4.1,5.5-4.9,8.9c-0.1,0.5-0.6,1.3,0.2,1.5
		c0.6,0.2,0.7-0.7,0.9-1.2c0.2-0.3,0.3-0.7,0.4-1c1.5-4.6,4.5-8.1,8.2-11C51.4,19.6,51.9,19.1,52.2,18.4z"/>
	<path class="st9" d="M61.6,33.4c0.9,0.2,1.9,0.5,2.8,0.7c-0.1,3,0.3,6,1.7,8.7c0.6,1.1,1.3,1.6,2.5,1.3c0.3-0.1,0.6-0.1,1-0.1
		c1.1,0,2,0.2,2.3,1.7c0.5,2.4,1.6,4.8,2.2,7.2c0.7,2.5,0.6,5.1,0,7.7c-0.1-0.5-0.2-1-0.4-1.4c-0.7-2.5-2-4.8-3.9-6.5
		c-1.8-1.7-4-1.9-6.2-0.8c-0.8,0.4-1.4,0.3-2-0.4c-3-3.5-4.8-7.6-5.8-12.1C55,35.5,55,31.6,56,27.7c0.8,1.2,1.6,2.5,2.4,3.7
		c0.3,0.5,0.7,0.4,1-0.1c0.3,0.3,0.3,0.6,0.3,1c-0.3,3.1,0.2,6.1,1.3,9c0.5,1.3,1.2,2.4,2.2,3.3c0.3-0.5,0-0.8-0.1-1
		c-1.3-2.8-1.9-5.8-1.8-8.8C61.3,34.3,61.2,33.8,61.6,33.4z"/>
	<path class="st10" d="M102.1,316.3c2.1,1.6,4.1,3.2,6.2,4.7c1.1,0.9,2.4,1.3,3.9,1.3c1,0,2,0.2,3.3,0.3c-0.4,0.4-0.6,0.6-0.8,0.9
		c-0.6,0.8-1.5,1.6-1.7,2.6c-0.2,1.1-0.7,1.3-1.7,1.2c-4.6-0.4-9.3-0.8-13.9-1.3c-3.9-0.4-7.8-0.9-11.8-1.3
		c-0.9-0.1-1.4-0.4-1.2-1.4c0.1-0.9,0.2-1.8,0.2-2.7c0.7-0.6,4.7-1.9,5.5-1.7c0.6,1.3,1.1,2.6,1.7,3.8c0.2,0.4,0.5,0.8,0.7,1.2
		c0.2-0.5,0.5-1,0.4-1.4c-0.4-1.5-0.9-2.9-1.4-4.3c-0.3-0.3-0.1-0.6,0.2-0.7c1.3-0.6,2.7-1.1,4.2-1.2c0.2,0,0.3,0.1,0.4,0.2
		c0,1.4,0.8,2.3,1.8,3.1c2.2,1.8,4.7,3.2,7.4,4.2c0.3,0.1,0.6,0.2,0.9,0.3c0.1,0,0.2,0,0.4-0.1c-0.6-0.7-1.5-1.1-2.3-1.5
		c-2.3-1.1-4.5-2.4-6.4-4.1c-0.6-0.5-1.3-1-1.5-1.8c0-0.2,0.2-0.4,0.4-0.4C98.7,315.9,100.4,315.6,102.1,316.3z"/>
	<path class="st11" d="M68.3,134.2c0,0.1,0,0.3,0,0.4c-1.2,2.9-0.1,5.7,0.7,8.5c1,3.7,2.2,7.3,3.2,11c0.2,0.8,0.4,1.7,0.4,2.6
		c-0.1,1.2,0.2,1.9,1.4,2.2c0.5,0.1,0.9,0.6,1.4,0.9c-0.5,0.3-0.9,0.8-1.4,1c-1.2,0.3-1.5,1.2-1.7,2.3c-0.8,3.9-1.7,7.8-2.4,11.7
		c-0.4,2.2-0.6,4.5-0.9,6.7c-1.4-0.5-2.7-0.9-4.1-1.4c-0.7-0.2-0.9-0.6-0.6-1.3c1.5-4.7,3-9.5,4.5-14.3c0.4-1.3,0.8-2.5,0-3.8
		c-0.2-0.3-0.1-0.8,0.1-1.1c0.9-1.1,0.7-2.3,0.4-3.5c-1.2-4.3-2.4-8.6-3.6-12.9c-0.2-0.9-0.3-1.8-0.6-2.7c-1-2.6,0.1-4.4,2.2-5.7
		C67.7,134.6,68,134.4,68.3,134.2z"/>
	<path class="st12" d="M68.5,183.4c3.3,0.6,6.6,1.2,9.9,1.7c4.3,0.7,8.6,0.5,12.9,0.1c8.2-0.7,16.3-2,24.5-2c0.4,0,1.2-0.1,1.2,0
		c0.3,0.8,0.5,1.8,0.7,2.7c0,0-0.3,0.2-0.5,0.2c-7.5,0.7-15,1.4-22.5,2c-8.8,0.8-17.6,0.8-26.3-1.8c-0.2-0.1-0.4-0.1-0.6-0.2
		C67.4,185,67.9,184.1,68.5,183.4z"/>
	<path class="st7" d="M96.1,98.7c0.2,1.2-0.1,2.6,1.2,3.4c1,0.3,0.5,0.7,0,1c-2.6,3.9-5.3,4.3-10.1,2.5c-3-1.2-5.1-3.6-7.3-5.9
		c-0.1-0.2-0.2-0.5-0.1-0.7c0.4-2,0.8-4,1.2-5.9c0.6-0.1,0.9,0.3,1.3,0.6c3.6,2.5,7.6,3.8,12.1,3.9C95.3,97.4,96.2,97.4,96.1,98.7z"
		/>
	<path class="st12" d="M97.4,103.1c0-0.3,0-0.7,0-1c1.5-0.1,1.5-1.2,1.5-2.6c1.1,0.9,2.1,1.5,3,2.3c0.3,0.3,0.3,1,0.3,1.5
		c-0.5,4.4-3.8,8-8.2,8.8c-4.2,0.7-8.2,0-11.7-2.6c-2.3-1.8-4.3-4-6.5-6c0.4-1,1.8-2.2,2.6-2.2c1.8,1.6,3.5,3.4,5.4,4.9
		c2.8,2.1,6.1,2.9,9.6,2c2.4-0.6,3.9-2.1,4.6-4.4C98.2,103.4,98.4,102.7,97.4,103.1z"/>
	<path class="st2" d="M88.7,193c-3.6,0.1-7.2,0.3-10.8,0.3c-1.7,0-3.3-0.3-5-0.5c-0.1,0-0.2,0.1-0.3,0.2c-0.3,0-0.6,0-0.9,0
		c-1.7-0.3-3.4-0.7-5-1.1c-0.7-0.2-1.2,0-1.3,0.8c-0.1,1.3-1,2.6-0.2,3.9c-1.4,0.3-2.8,0.6-4.2,0.9c-0.1,0-0.5-0.4-0.4-0.5
		c0.7-3.1,1.5-6.1,2.3-9.2c0-0.2,0.6-0.4,0.8-0.3c6.4,2.4,13.1,3.6,19.8,4.6c1.3,0.2,2.7,0.2,4.1,0.4
		C87.8,192.6,88.2,192.8,88.7,193z"/>
	<path class="st12" d="M119.9,20.3c-1.6,0.3-2.5-0.7-3.2-2c-0.6-1.1-0.9-2.3,0-3.5c0.2-0.2,0-0.9-0.2-1.2c-2.5-3.3-5.7-5.7-9.2-8
		c-0.5-0.3-0.7-1-1.1-1.5c3.6,1.2,6.7,3.3,9.5,5.9c7.3,6.8,10.3,15.3,9.6,25.2c-0.2,0.8-0.6,0.8-1,0.1c-0.2-0.4-0.2-0.8-0.2-1.3
		c0.1-3.3-0.7-6.4-1.5-9.6c-0.6-1.5-1.1-3.1-1.7-4.6c-0.1-0.3-0.6-0.5-0.9-0.8C119.9,19.6,119.9,19.9,119.9,20.3z"/>
	<path class="st13" d="M109.6,330.6c-3.6-0.3-7.2-0.7-10.9-0.9c-4.1-0.3-8.3-0.6-12.4-0.9c-0.8-0.1-1.7,0.1-1.8-1.2
		c0-0.7,0.1-0.8,0.8-0.8c6.2,0.2,12.3,1,18.5,1.6c5.9,0.5,11.8,0.7,17.5-1.5c0.4-0.2,0.8-0.4,1.1,0.3c0.2,0.7,0,1-0.6,1.2
		C117.9,329.7,113.8,330.6,109.6,330.6z"/>
	<path class="st12" d="M55.9,141.4c-3.8-3.3-8.1-5.9-13-7.3c0.6-1,1.1-2,1.7-2.9c0.2-0.2,0.6-0.4,0.9-0.4c0.4,0,0.8,0.1,1.2,0.3
		c4.5,1.7,8.5,4.1,11.9,7.6C58.6,140.1,57.1,141.6,55.9,141.4z"/>
	<path class="st3" d="M43.3,158.2c3.5-3.6,6-7.8,8.1-12.3c0.2-0.4,0.2-1.1,0-1.5c-1.1-2.5-3.3-3.8-5.4-5.2c-0.8-0.5-1.7-0.7-2.6-1.1
		c0.2-0.3,0.3-0.7,0.5-0.9c0.3-0.2,0.7-0.4,1-0.3c3.7,1.5,7.1,3.6,9.9,6.5c0.2,0.2,0.3,0.9,0.2,1.2c-2.1,3.5-4.3,7-6.6,10.4
		C47.3,156.7,45.5,157.8,43.3,158.2z"/>
	<path class="st3" d="M72.1,72.3c1.8,2.5,3.6,5.1,5.6,7.4c3.5,4.1,7.4,7.7,12.2,10.1c5,2.5,9.3,1.6,13.4-1.7
		c0.3-0.2,0.6-0.4,0.9-0.6c-2.7,4.4-7.7,6.2-12.8,4.6c-3.5-1.1-6.5-3-9.2-5.5c-4.1-3.8-7.6-7.9-9.8-13.1
		C72.4,73.2,72.3,72.8,72.1,72.3z"/>
	<path class="st3" d="M96.1,98.7c-0.2-0.7-0.6-1-1.4-1c-5.1,0-9.7-1.6-13.6-4.8c0-1.3,0-2.6,0-3.9c0.8,0.6,1.7,1.2,2.6,1.9
		c3.6,2.4,7.4,4.1,11.8,4c0.2,0,0.6,0.3,0.6,0.5C96.1,96.5,96.1,97.6,96.1,98.7z"/>
	<path class="st3" d="M100.5,36.8c-0.5,1.2-1.4,1.4-2.7,1.3c-2-0.1-3.9,0.2-5.9,0.4c-0.1,0-0.2,0.2-0.3,0.4
		c-0.7,0.2-1.4,0.3-1.9-0.4c-3.8-3.4-6.5-7.5-8.4-12.2c-0.1-0.3-0.4-0.5-0.5-0.7c0.3-0.7,0.7-1.3,1.1-2.3c0.2,0.6,0.4,0.9,0.5,1.3
		c1.5,3.6,3.4,7,6,9.9c0.7,0.8,1.5,1.5,2.4,2c0.6,0.3,1.5,0.5,2,0.3c2.3-0.8,4.5-0.6,6.7,0C99.8,36.8,100.1,36.8,100.5,36.8z"/>
	<path class="st3" d="M102.6,38.5c-0.5-0.6-1-1.3-1.5-1.9c0.1-0.7,0.5-1.4,0.4-2.1c-0.5-3.4-1.5-6.8-3.2-9.8
		c-0.1-0.2-0.2-0.5-0.2-0.8c0.1-0.1,0.2-0.1,0.2,0c2.7,2.4,3.9,5.7,5,9c0.3,0.8,0.4,1.6,0.6,2.4c0.3,1.8,0.4,1.8,2.3,1.7
		c1.5-0.1,3-0.1,4.5,0c1.9,0.2,1.9,0.3,1.8,2.2c-1.3-0.1-2.5-0.3-3.8-0.4c-0.5,0-1,0.1-1.5,0.1c-0.3,0.2-0.6,0.1-0.9,0
		c-1-0.4-2-0.4-3-0.3C103,38.7,102.8,38.7,102.6,38.5z"/>
	<path class="st6" d="M60.9,15.7c-0.4,0.5-0.8,1-1.2,1.5c-0.3,0.1-0.6,0.2-1,0.4c-1.2,0.1-1.7-0.8-2.5-1.5c1.4-3,3.3-5.7,6.1-7.7
		c0.5-0.4,2.9,0.7,2.9,1.3c0,0.2-0.3,0.4-0.5,0.6c-1,1.1-2.2,2.1-3.1,3.3C61.2,14.2,61.1,15.1,60.9,15.7z"/>
	<path class="st14" d="M122.6,24.6c1.3,2.9,1.8,5.9,1.9,9c0,0.6,0,1.1,0.1,1.7c0.2,0.8,0.5,0.4,0.8,0c-0.3,2.3-0.6,4.5-0.9,6.8
		c-0.2,0.2-0.2,0.8-0.6,0.4c-0.8-0.9-1.7-1.6-2.7-2.3c-0.2-0.1-0.1-0.4,0-0.5c0.6-3.1,1.3-6.2,1.7-9.3
		C123,28.5,122.7,26.5,122.6,24.6z"/>
	<path class="st10" d="M104.5,191.5c-0.3-0.3-0.8-0.5-0.9-0.9c-0.3-0.9,0.1-1.4,1.1-1.5c3.6-0.4,7.2-0.8,10.8-1.2
		c1-0.1,1.5,0.3,1.6,1.2c0.1,1.1-0.8,0.7-1.2,0.8C112.2,190.4,108.5,190.9,104.5,191.5z"/>
	<path class="st15" d="M121.1,39.7c0.3,0.3,0.5,0.5,0.8,0.8c0.6,0.5,1.2,1.1,1.8,1.6c0.2,0.1,0.5,0,0.7,0.1c0,0.3,0,0.7-0.2,0.9
		c-0.1,0.2-0.5,0.3-0.7,0.3c-1.4-0.9-2.7-0.8-4.1,0.1c-0.9,0.6-2.1,0.8-3.2,1.1c-0.8,0.2-1.3-0.2-1.2-1.1c0.1-0.7,0-1.4,0-2
		c0-0.5,0.1-1,0.1-1.5c0.8,0.2,1.5-0.6,2.5,0.1C119.2,41.1,120.2,40.9,121.1,39.7z"/>
	<path class="st16" d="M25.4,36.8c1.1-1.5,2.1-3.2,3.4-4.5c1.8-1.8,3.8-3.3,5.8-4.8c0.3-0.2,0.8-0.1,1.1-0.2c-0.5,0.5-1,1-1.4,1.6
		c-1.1,1.6-1.9,3.4-3.2,4.8c-1.3,1.4-3,2.4-4.5,3.6c-0.4,0.3-0.7,0.5-1.1,0.8C25.5,37.7,25.4,37.3,25.4,36.8z"/>
	<path class="st13" d="M96,192.6c-1.5,0-3,0-4.4,0c-0.6,0-1,0.1-1-0.8c0-0.8,0.2-1.1,1-1.2c2.6-0.2,5.2-0.5,7.9-0.8
		c0.1,0,0.2,0,0.4,0c2-0.2,1.9-0.2,1.9,1.8c0,0.8-0.3,1-1,1C99.1,192.5,97.6,192.6,96,192.6C96,192.6,96,192.6,96,192.6z"/>
	<path class="st6" d="M65.2,196.6c-0.8,0.1-0.8-0.5-0.7-1c0.2-1.3,0.5-2.5,0.7-3.7c0-0.2,0.4-0.5,0.5-0.5c1.9,0.4,3.9,0.8,5.8,1.3
		c0.1,0,0.1,0.2,0.1,0.3C69.8,194.7,67.6,195.9,65.2,196.6z"/>
	<path class="st15" d="M115.3,48.9c2,2.8,3,8.4,2.3,13.5c-1.2-1-2.4-1.8-2.1-3.7c0.2-1.6,0-3.2,0-4.8
		C115.5,52.2,115.4,50.7,115.3,48.9z"/>
	<path class="st17" d="M102.1,316.3c-1.6,0-3.2,0-4.8,0c-0.2,0-0.3,0.3-0.5,0.4c-0.2,0.2-0.3,0.2-0.5,0c-0.5,0-1-0.1-1.4,0
		c-1.1,0.4-2.2,0.9-3.4,1.4c-0.5-0.5-1.1-1-1.7-1.6c3.4-1.9,6.8-3.1,10.6-1.6C101.1,315.2,101.6,315.8,102.1,316.3z"/>
	<path class="st16" d="M71.6,39.7c-0.8-3.2-1.9-6.3-2.5-9.5c-0.5-2.4-0.2-4.8,0.9-7.1c0.3-0.7,0.8-1.1,1.6-0.9
		c-0.4,1.1-1.2,2.3-1.2,3.4c0,2.4,0.3,4.8,0.8,7.2c0.2,1.2,0.6,2.4,0.4,3.7C71.5,37.6,71.6,38.7,71.6,39.7z"/>
	<path class="st11" d="M59.6,137.4c0.3-0.2,0.7-0.4,0.9-0.7c1.6-2.1,3.2-4.3,4.8-6.5c0.6-0.8,1.1-1.7,2.4-1.5
		c-2,3.3-3.9,6.5-5.9,9.8c-0.4,0.7-0.7,0.9-1.2,0.1C60.3,138.1,59.9,137.8,59.6,137.4z"/>
	<path class="st15" d="M54.7,14.5c-0.8-0.5-1.5-0.3-2.2,0.2c-0.4-0.2-0.8-0.7-1.1-0.7c-2.1,0.3-4.2,0.6-6.3,1
		c-0.2,0.1-0.5,0.2-0.5-0.2c3.6-2.3,7.6-3.3,12-3.4C55.9,12.5,55.3,13.5,54.7,14.5z"/>
	<path class="st18" d="M113.8,326.8c1.1-1.1,2.2-2.3,3.4-3.2c1.2-0.9,4.1,0.3,4.5,1.8c0,0.1-0.3,0.5-0.5,0.5c-2.4,0.5-4.7,1-7.1,1.4
		C114,327.2,113.9,327,113.8,326.8z"/>
	<path class="st19" d="M68.5,183.4c-0.2,0.9-0.5,1.8-0.7,2.7c-1.5-0.5-2.9-1-4.3-1.5c-0.2-0.1-0.5-0.7-0.4-1
		c0.4-2.2,0.4-2.2,2.4-1.3C66.5,182.7,67.5,183,68.5,183.4z"/>
	<path class="st20" d="M121.1,134.9c1.2-0.4,2.5-0.8,3.7-1.2c0.8-0.3,0.9,0.4,1.1,0.9c0.8,1.6,0.8,1.6-0.9,2
		c-0.9,0.2-1.8,0.5-2.6,0.7C121.3,137.2,120.9,136.3,121.1,134.9z"/>
	<path class="st21" d="M115.6,125.1c0.8,1.3,1.8,2.4,2.5,3.8c0.8,1.5,1.5,3.1,2.3,4.7c-1.5,0.7-1.4,0.7-2.1-0.8
		c-0.7-1.6-1.5-3.1-2.1-4.7C115.9,127.1,115.8,126.1,115.6,125.1z"/>
	<path class="st22" d="M125.4,141.2c-1.8,0.7-3.7,1.4-5.5,2.2c-0.2-1.4,0.3-2.4,1.7-2.9c0.4-0.1,0.8-0.4,1.2-0.6
		C124.9,138.9,124.9,138.9,125.4,141.2z"/>
	<path class="st23" d="M80.3,44c-1.9,1.3-3.3,0.1-4.7-1c-0.3-0.2-0.6-0.6-0.9-0.8c0,0-0.3,0.2-0.4,0.4c-0.4-1.4-0.8-2.7-1.1-4.1
		c0.1,0,0.2-0.1,0.3-0.1c0.8,1,1.6,2.1,2.4,3c0.8,0.8,1.6,1.6,2.5,2.2C78.9,43.9,79.7,43.9,80.3,44z"/>
	<path class="st17" d="M90.2,318.9c-1.8,0.6-3.7,1.1-5.5,1.7c0.1-0.6,0.1-1.2,0.3-1.8c0.1-0.3,0.3-0.6,0.5-0.7
		C87.6,317,88.4,317.2,90.2,318.9z"/>
	<path class="st19" d="M55.9,141.4c1.4-0.4,2.1-1.4,2.6-2.7c0,0,0.1,0,0.1,0.1c1.8,2.4,2,1.7-0.5,4.9
		C57.3,142.9,56.6,142.1,55.9,141.4z"/>
	<path class="st24" d="M56.2,16.2c0.8,0.5,1.7,1,2.5,1.5c-0.8,0.9-1.5,1.7-2.3,2.6c-0.2,0.2-0.6,0.3-0.7,0.2
		c-0.2-0.2-0.6-0.6-0.5-0.8C55.5,18.5,55.9,17.4,56.2,16.2z"/>
	<path class="st25" d="M78.3,101.4c-0.9,0.7-1.7,1.4-2.6,2.2c-1.5-1.8-1.5-1.8,0-3.1c1.2-1,1.2-1,2.1,0.3
		C78,100.9,78.2,101.1,78.3,101.4z"/>
	<path class="st26" d="M121.1,134.9c0.4,0.8,0.8,1.6,1.2,2.4c-0.8,0.4-1.5,0.7-2.3,1.1C118.9,135.9,119.1,135.5,121.1,134.9z"/>
	<path class="st27" d="M80.3,22.7c-0.1-2.1-0.3-4.3-0.2-6.4c0-0.9,0.6-1.8,0.9-2.7c-0.7,2.2-0.5,4.4,0.1,6.5
		C81.4,21.2,81.1,22,80.3,22.7z"/>
	<path class="st28" d="M68.6,129.4c0.1,0.4,0.3,0.9,0.2,1.3c-0.1,0.7,0.1,1.2,0.7,1.5c-0.6,0.1-1.2,0.3-1.9,0.5
		C67.9,131.6,68.2,130.5,68.6,129.4z"/>
	<path class="st29" d="M43.9,15.5c-0.4,0.2-0.8,0.4-1.3,0.7c0-0.1-0.1-0.2-0.1-0.2c0.4-0.2,0.8-0.5,1.1-0.7
		C43.7,15.3,43.9,15.4,43.9,15.5z"/>
	<path class="st30" d="M43.9,15.5c-0.1-0.1-0.2-0.2-0.3-0.3c0.3-0.2,0.6-0.3,1-0.5c0.2,0.1,0.3,0.2,0.5,0.2
		C44.7,15.2,44.3,15.4,43.9,15.5z"/>
	<path class="st31" d="M98.3,23.8c-0.1,0-0.2,0-0.2,0c-0.2-0.2-0.4-0.5-0.5-0.7c-0.1-0.2,0-0.3,0.3-0.2C98,23.2,98.1,23.5,98.3,23.8
		z"/>
	<path class="st32" d="M97.8,22.9c-0.1,0.1-0.2,0.2-0.3,0.2c-0.2-0.2-0.3-0.5-0.5-0.7c0.1,0,0.1-0.1,0.2-0.1
		C97.5,22.5,97.6,22.7,97.8,22.9z"/>
	<path class="st33" d="M76.7,39.2c0.1-0.2,0.2-0.3,0.3-0.5c0,0.3,0.1,0.6,0.1,0.9C77,39.5,76.8,39.3,76.7,39.2z"/>
	<path class="st34" d="M93.9,128.8c0.1-1.7,0.2-3.5,0.3-5.2c0-0.2,0.1-0.4,0.1-0.6c-0.2-0.5-0.5-0.9-0.8-1.3
		c-0.3,0.4-0.9,0.7-0.9,1.2c-0.2,1.7-0.2,3.3-0.4,5c0,0.5-0.3,0.9-0.4,1.4c-0.2-0.4-0.5-0.9-0.6-1.3c-0.1-0.9,0-1.8-0.1-2.6
		c-0.1-0.4-0.4-0.8-0.6-1.1c-0.3,0.4-0.8,0.7-0.8,1.1c-0.1,1.4,0,2.8,0.1,4.2c0,1,0.1,2,0.1,3c0,1.3,0,2.6-0.1,3.9
		c-0.1,1.5-0.4,3-0.7,4.5c-0.2,0-0.4,0-0.6,0.1c-0.5-1.8-1.2-3.5-1.5-5.3c-0.7-3.8-1.1-7.6-0.4-11.4c1.2-7.2,7-8.8,12.8-7.4
		c2,0.5,3.4,2.1,4,4c0.7,2.3,1.3,4.8,1.6,7.2c0.4,3.2,0.5,6.5-0.4,9.6c-1.3,4.6-6.2,7.5-10.8,6.2c-0.2-0.1-0.4-0.5-0.4-0.7
		c0.6-2.3,1.6-4.2,3.9-5.5c1.7-1,2.9-2.6,4.4-4c0.5-0.5,1-0.9,1.6-1.3c0.6-0.5,0.4-1-0.3-1c-0.7,0-1.5,0.2-2.2,0.5
		c-0.6,0.3-1,0.9-1.6,1.3c-0.3,0.2-0.6,0.3-1,0.4c0-0.3-0.2-0.6-0.1-0.9c0.3-1.5,0.5-3,0.9-4.4c0.3-1.3,0.8-2.6,1.2-3.9
		c0-0.2,0.1-0.3,0.1-0.5c-0.2-0.5-0.4-0.9-0.6-1.4c-0.4,0.3-0.9,0.6-1,0.9c-0.5,1.3-0.8,2.8-1.3,4.1c-0.2,0.5-0.6,1-0.9,1.5
		c0-0.6,0-1.1,0-1.7c0.2-1.7,0.5-3.3,0.8-5c0.1-0.7,0.1-1.3-0.7-1.4c-0.3,0-0.9,0.6-1,1c-0.4,1.9-0.7,3.8-1,5.7
		c-0.1,0.4-0.2,0.7-0.3,1.1C94.2,128.9,94.1,128.9,93.9,128.8z"/>
	<path class="st11" d="M88.2,148.8c2.1-0.4,4.1-0.9,6.2-1.1c2.2-0.2,4.4-0.1,6.7,0c2,0.1,3.1,1.2,3,2.8c0,1.2-0.9,2.2-2.2,2.2
		c-1.1,0-2.2-0.3-3.3-0.2c-2.9,0-5.8,0.2-8.7,0.2c-1.4,0-2-0.5-2.1-2c0.1-0.7,0.8-0.5,1.2-0.8c0.2-0.2,0.6-0.2,0.5-0.5
		c0-0.4-0.4-0.2-0.7-0.3C88.6,149.1,88.3,149,88.2,148.8z"/>
	<path class="st35" d="M88.2,148.8c0.6,0.1,1.2,0.3,1.9,0.4c-0.6,0.4-1.1,0.9-1.7,1.3c-0.2,0.1-0.4,0.2-0.6,0.3
		c-4.1,1-8,0.7-11.7-1.3c-1-0.6-2-1.3-2.9-2.1c-0.7-0.6-1.1-1.4-0.4-2.2c0.8-0.8,1.5-0.3,2.2,0.3c2.7,2.7,6,3.9,9.7,3.8
		C85.8,149.3,87,149,88.2,148.8z"/>
	<path class="st10" d="M70.5,336.2c-0.3-0.2-0.7-0.3-1-0.5c-0.5-0.3-1-0.6-1-1.3c0.3-0.7-0.2-1.1-0.7-1.5c-4.1-2.6-8.6-2.5-12.7,0.1
		c-0.8,0.5-0.9,1.3-0.9,2.1c0,0-0.1,0-0.1,0c0,0-0.1,0-0.1,0c-1.7-0.2-2.1-0.7-1.6-2.3c1.1-3.5,2.2-6.9,3.3-10.4
		c0.3-0.4,0.6-0.6,1.1-0.7c0.7-0.2,1.1-0.1,1.2,0.7c0,0.9-0.4,1.8-0.6,2.7c-0.1,0.4-0.2,0.9-0.2,1.3c0,0.4-0.2,1,0.3,1.1
		c0.5,0.1,0.6-0.5,0.7-0.9c0.5-1.6,0.7-3.2,1-4.8c0.1-0.4,0.3-0.9,0.7-1c1.4-0.4,2.8-0.7,4.2-0.5c0.8,0.1,0.8,0.8,0.9,1.4
		c0.2,1.7,0.2,3.5,0.6,5.2c0.1,0.3,0.1,0.8,0.5,0.8c0.4-0.1,0.4-0.5,0.3-0.9c-0.1-1.2-0.4-2.4-0.6-3.6c-0.1-0.5-0.2-1.1-0.1-1.6
		c0.1-0.4,0.4-0.5,0.7-0.4c0.8,0.3,1.7,0.5,2.1,1.5c0.8,3.2,1.6,6.3,2.3,9.5c0.3,1.3,0.3,2.6,0.4,3.9
		C71,336.1,70.8,336.3,70.5,336.2z"/>
	<path class="st13" d="M68.5,334.5c0.3,0.4,0.7,0.8,1,1.2c-5,1-9.9,1-14.9-0.3c-0.1-0.5,0.3-0.6,0.6-0.8c3.4-2.9,7.2-3.1,11.2-1.5
		C67.1,333.5,68.1,333.6,68.5,334.5z"/>
	<path class="st13" d="M70.5,336.2c0.2-0.1,0.5-0.2,0.7-0.3c0,0,0,0.1,0,0.1c0.4,2.5,0.3,2.6-2,3.1c-5.4,1.3-10.8,1.4-16.2-0.5
		c-1.6-0.6-1.6-0.6-1.3-2.4c5.4,2.2,11,2.5,16.6,1.1C69.1,337.2,69.8,336.6,70.5,336.2z"/>
	<path class="st35" d="M68.5,334.5c-2.4-1.2-4.8-2.4-7.6-2c-2,0.2-3.8,0.9-5.3,2.2c-0.3,0.3-0.7,0.5-1,0.7c-0.2-0.1-0.5-0.2-0.7-0.2
		c-0.4-1.1,0-1.8,0.9-2.4c3.8-2.6,9.1-2.8,13-0.3c0.4,0.3,0.8,0.6,1.2,1C69.2,334,69.3,334.5,68.5,334.5z"/>
	<path class="st17" d="M57.5,322.5c0-0.4,0-0.9-0.6-0.5c-0.4,0.2-0.9,0.3-1.3,0.5c-0.1-1.9,1.3-2.4,2.7-2.9c3.1-1.2,6.1-1.7,9.2,0.1
		c0.8,0.4,1.3,0.8,1.1,1.8c-0.1,0.3,0,0.7,0,1.1c-0.9-0.4-1.8-0.8-2.6-1.2c-0.4,0-0.4-0.5-0.7-0.5c-0.3,0.2-0.1,0.8-0.5,1
		c-0.1-1.1-0.8-1.4-1.8-1.2c-0.8,0.1-1.6,0.2-2.3,0.3c-0.7,0.1-1.2,0.4-1.4,1.2c-0.4-0.2-0.2-0.8-0.6-1.1
		C57.8,321.1,58.4,322.4,57.5,322.5z"/>
	<path class="st36" d="M64,202.8c2.4-1,4.9-1.9,7.3-2.8c0.3-0.1,0.7-0.1,1-0.1c-0.1,0.4,0,0.9-0.2,1.1c-0.9,0.7-1.8,1.5-2.8,2
		c-1.2,0.6-2.6,1-3.9,1.4c-0.5,0.1-1.1-0.1-1.6-0.1C63.8,203.8,63.9,203.3,64,202.8z"/>
	<path class="st37" d="M58.7,280.5c0.7,1.2,0.4,4.4-0.5,5.6c-1,0.1-1.3-0.4-1.2-1.3c0.2-1.2,0.4-2.5,0.8-3.7
		C57.9,280.8,58.4,280.7,58.7,280.5z"/>
	<path class="st37" d="M62.5,218c0.3,1.5,0.5,3.1,0.7,4.6c0,0.3-0.5,0.6-0.7,0.9c-0.7-0.2-1-0.7-1-1.4c0-1-0.1-1.9-0.1-2.8
		C61.4,218.5,61.6,217.9,62.5,218z"/>
	<path class="st37" d="M62.8,211.5c0,0.4,0,0.8,0,1.2c-0.4,0.3-0.7,0.5-1.1,0.8c-0.2-0.4-0.7-0.7-0.7-1.1c-0.1-1.1-0.1-2.2,0-3.3
		c0-0.3,0.5-0.6,0.8-0.8c0.2,0.3,0.6,0.6,0.7,0.9C62.6,209.8,62.7,210.6,62.8,211.5z"/>
	<path class="st37" d="M57.5,290.4c0.3,0.4,0.9,0.7,0.9,1.1c0.1,1,0.1,2,0,2.9c0,0.7-0.3,1.2-1.2,1.2
		C56.4,294.5,56.5,291.8,57.5,290.4z"/>
	<path class="st37" d="M57.5,299.8c0.2,0.2,0.5,0.4,0.4,0.7c-0.1,1.5-0.3,3-0.4,4.5c-0.8,0.2-1.3-0.1-1.2-0.9
		c0.1-1.1,0.1-2.2,0.3-3.2C56.6,300.4,57.1,300.1,57.5,299.8z"/>
	<path class="st38" d="M57,311.2c-0.3,1-0.6,1.9-1,2.9c-0.8,0-1.1-0.4-1-1.1c0.2-1.1,0.4-2.2,0.7-3.2c0.1-0.3,0.5-0.5,0.8-0.7
		c0.2,0.3,0.4,0.6,0.5,1C57.1,310.4,57,310.8,57,311.2z"/>
	<path class="st37" d="M63.7,237.6c0.2,1.3,0.4,2.6,0.4,3.9c0,0.3-0.4,0.7-0.7,1c-0.2,0-0.3,0-0.5-0.1c-0.6-0.5-0.8-4.3-0.2-4.7
		C63,237.6,63.4,237.7,63.7,237.6z"/>
	<path class="st39" d="M62.8,228c0.2,0.1,0.4,0.2,0.6,0.4c0.7,0.9,0.6,3.8-0.1,4.6c-0.3-0.1-0.7-0.1-0.8-0.3
		C61.8,232,62,228.7,62.8,228z"/>
	<path class="st37" d="M60.3,272.7c0.6,1.2,0.1,3.4-0.9,4.5c-0.7,0-1.1-0.3-1-1c0.2-1.1,0.5-2.1,0.8-3.2
		C59.3,272.8,60,272.8,60.3,272.7z"/>
	<path class="st40" d="M62.7,263.6c0.6,1.2,0.2,3.5-0.9,4.5c-0.2-0.1-0.5-0.1-0.6-0.2c-0.8-0.9-0.1-1.8,0.2-2.7
		C61.6,264.5,61.5,263.4,62.7,263.6z"/>
	<path class="st40" d="M63.7,246.3c0.6,1.5,0.9,3,0,4.5c-0.8,0.1-1.2-0.2-1.2-1c0-0.8,0-1.6,0.1-2.4
		C62.7,246.8,62.8,246.1,63.7,246.3z"/>
	<path class="st37" d="M63.7,254.4c1,1.5,0.7,3,0.2,4.5c-1,0.3-1.4-0.1-1.4-1.1c0-0.9,0.1-1.8,0.3-2.6
		C62.9,254.9,63.4,254.7,63.7,254.4z"/>
	<path class="st36" d="M93,306.6c1.3,0.2,2.3,0.3,3.3,0.6c0.4,0.1,0.6,0.7,0.9,1c-0.4,0.2-0.9,0.5-1.3,0.5c-1.9-0.1-3.9-0.3-5.8-0.6
		c-0.3,0-0.8-0.2-0.8-0.4c-0.1-0.3,0.1-0.7,0.4-0.9c1.7-1.2,3.4-2,5.5-1.9c0.2,0,0.4,0.2,0.6,0.3c-0.2,0.1-0.3,0.3-0.5,0.4
		C94.6,306,93.8,306.2,93,306.6z"/>
	<path class="st36" d="M60.5,309.8c1.8,0.6,3.6,1.2,5.4,1.8c0.3,0.1,0.5,0.6,0.7,0.9c-0.4,0.2-0.8,0.5-1.1,0.4
		c-0.8-0.1-1.6-0.5-2.4-0.5c-1.3,0-2.7,0.1-4,0.1c-0.5,0-1-0.3-1.5-0.4c0.2-0.5,0.3-1.3,0.7-1.5c0.6-0.4,1.4-0.4,2.2-0.6
		C60.4,309.9,60.5,309.9,60.5,309.8z"/>
	<path class="st37" d="M68.9,272.2c-1.1-0.3-2.1-0.5-3.1-0.8c-0.3-0.1-0.5-0.7-0.7-1.1c0.4-0.2,0.8-0.7,1.1-0.6
		c1.9,0.5,3.7,0.7,5.7,0.4c0.2,0,0.6,0.3,0.5,0.4c-0.1,0.3-0.2,0.8-0.5,0.9C70.9,271.7,69.9,271.9,68.9,272.2z"/>
	<path class="st36" d="M96.4,272c-0.5,0-1.1,0-1.5-0.2c-0.3-0.1-0.7-0.6-0.7-0.9c0-0.3,0.5-0.7,0.8-0.8c1.7-0.2,3.5-0.3,5.2-0.4
		c0.3,0,0.6,0.2,0.9,0.3c-0.2,0.3-0.3,0.7-0.5,0.8c-1.4,0.5-2.8,0.8-4.2,1.3C96.4,272.1,96.4,272.1,96.4,272z"/>
	<path class="st36" d="M88.2,302.1c-1,0.2-1.5-0.3-1.5-1.3c0-0.9,0-1.8,0.1-2.7c0.1-0.7,0.3-1.3,1.2-1.2
		C88.9,298,89.1,300.8,88.2,302.1z"/>
	<path class="st41" d="M87.7,293c0,0-0.1,0-0.1,0c-1.7-0.8-0.7-2.3-0.8-3.5c0-0.6-0.3-1.9,1.1-1.8C89,289.2,88.9,292.1,87.7,293z"/>
	<path class="st37" d="M94.4,240c-0.4,0.2-0.9,0.7-1.2,0.6c-0.4-0.1-0.7-0.8-0.7-1.2c-0.1-0.9,0-1.8,0.2-2.6
		c0.1-0.3,0.5-0.6,0.8-0.9c0.3,0.3,0.8,0.6,0.9,1c0.1,0.9,0.1,1.9,0.1,2.9C94.4,239.8,94.4,239.9,94.4,240z"/>
	<path class="st41" d="M86.5,310.8c0-1.2,0-2.4,0-3.6c0.3-0.2,0.6-0.5,1-0.7c0.2,0.4,0.5,0.7,0.6,1.1c0.2,0.8,0.3,1.7,0.3,2.5
		c0,0.4-0.2,1.1-0.6,1.3C87.5,311.4,87,310.9,86.5,310.8z"/>
	<path class="st37" d="M88.4,283.1c-0.9,0.2-1.4-0.2-1.4-1.1c0-1.1,0.1-2.1,0.3-3.2c0.1-0.3,0.4-0.6,0.6-0.9
		c0.3,0.3,0.6,0.5,0.9,0.8C88.7,280.1,88.6,281.6,88.4,283.1z"/>
	<path class="st42" d="M93.5,249.5c-1,0.2-1.4-0.3-1.4-1.3c0-0.8,0.1-1.6,0.2-2.4c0.2-1.2,0.6-1.3,1.7-0.6c0,0,0,0,0,0
		c0.2,1,0.1,1.9,0,2.9C93.8,248.6,93.6,249.1,93.5,249.5z"/>
	<path class="st37" d="M94.7,222.7c-0.5,0.1-1,0.5-1.3,0.4c-0.3-0.1-0.5-0.7-0.6-1.2c-0.1-0.7-0.1-1.4,0-2.1
		c0.1-1.2,0.7-1.4,1.6-0.6c0.1,0.7,0.2,1.4,0.3,2.1C94.8,221.8,94.9,222.2,94.7,222.7L94.7,222.7z"/>
	<path class="st37" d="M92.3,257.8c-1.4-0.9-0.7-2.2-0.6-3.3c0-0.7,0.4-1.4,1.3-1.3C93.9,254.7,93.5,257,92.3,257.8z"/>
	<path class="st37" d="M90.9,265.7c-0.9,0.2-1.4-0.3-1.2-1.2c0.1-0.8,0.4-1.7,0.7-2.5c0.1-0.3,0.8-0.3,1.2-0.5
		C92.1,263.1,91.5,264.4,90.9,265.7z"/>
	<path class="st2" d="M94,248.2c0-1,0-1.9,0-2.9C94,246.2,94,247.2,94,248.2z"/>
	<path class="st2" d="M94.7,222.7c0-0.5,0-1,0-1.4C94.7,221.8,94.7,222.2,94.7,222.7z"/>
	<path d="M95.8,82.7c-1.5-0.4-3-0.7-4.4-1.4c-2.3-1.1-3.5-3.1-3.3-5.7c0-0.4,0.3-0.8-0.5-0.9c-0.5-0.1-1.2-0.9-1.2-1.1
		c0.3-0.7,0.8-1.4,1.4-1.8c0.3-0.2,1.4,0.1,1.6,0.5c0.4,0.7,0.9,0.9,1.6,1.1c3.3,0.9,6.7,1.3,10.2,0.7c0.6-0.1,1.2-0.4,1.8-0.6
		c0.2-0.1,0.5,0,0.8,0c0,0.3-0.1,0.6-0.1,0.9c0,0.1-0.2,0.3-0.3,0.3c-2.1,0.8-1.6,2.7-1.5,4.2c0.1,0.8,0,1.4-0.7,1.8
		C99.6,81.8,97.8,82.5,95.8,82.7z"/>
	<path class="st35" d="M102.8,46.5c1.6,0.6,2.5,0.2,3.3-0.9c0.2-0.2,0.8-0.1,1.2-0.2c0.1,0.5,0.3,1.2,0.1,1.4
		c-0.6,0.6-1.4,0.9-2,1.4c-0.2,0.2-0.5,0.5-0.5,0.8c0,1.9,0.1,3.8,0.1,5.7c0,0.5-0.1,1.1-0.4,1.5c-0.5,0.6-1.1,1.4-1.7,1.4
		c-0.6,0-1.5-0.8-1.7-1.4c-1-2.7-1-5.5,0-8.2C101.6,47.4,102.4,46.9,102.8,46.5z"/>
	<path class="st43" d="M85.3,52.2c0.3-1.5,0.5-2.9,0.9-4.1c0.4-1.1,1.1-1.8,2.5-1.4c0.8,0.2,1.5-0.1,2.1-0.9
		c0.4-0.5,0.9-1.1,1.6-0.4c0.6,0.6,0.3,1.3-0.2,1.8c-0.4,0.3-0.8,0.7-1.3,0.8c-0.9,0.2-0.9,0.4-0.8,1.3c0.2,1.8,0.1,3.7,0.1,5.6
		c0,0.5-0.2,1-0.5,1.3c-0.4,0.5-1,1.3-1.5,1.3c-0.6,0-1.5-0.6-1.7-1.2C85.8,55,85.6,53.5,85.3,52.2z"/>
	<path class="st35" d="M89.7,38.5c0.6,0.1,1.3,0.3,1.9,0.4c0.8,0.4,1.5,0.9,1.1,1.9c-0.4,0.9-1.2,0.8-2.1,0.7
		c-2.1-0.5-4.1-0.4-6,0.8c-0.3,0.2-0.9,0-1.4,0c0.1-0.5,0-1.1,0.2-1.4c1.2-1.6,2.9-2.2,4.8-2.4C88.7,38.5,89.2,38.5,89.7,38.5z"/>
	<path class="st3" d="M67.1,56c0.5,0.6,1.2,1.1,1.4,1.7c0.3,1.5,0.5,3,0.5,4.6c0,1-1,1.9-2,2c-0.9,0.1-2.1-0.7-2.2-1.6
		c-0.3-1.8-0.5-3.7-0.5-5.5c0-0.5,0.8-1,1.2-1.5c1,1.6,1.5,3.3,1.5,5.2c0,0.2,0,0.3,0,0.5c0.1,0.5,0.2,1,0.8,1c0.6,0,0.6-0.5,0.6-1
		c0-1.4-0.4-2.8-1-4C67.3,56.8,66.9,56.5,67.1,56z"/>
	<path class="st35" d="M102.6,38.5c1.6-0.5,3.1-0.1,4.6,0.5c0.5,0.5,1.1,0.9,1.5,1.5c0.2,0.2,0.2,0.8,0.1,1
		c-0.1,0.2-0.7,0.3-0.9,0.2c-1.7-0.6-3.3-1-5.1-0.4c-0.3,0.1-1.1-0.3-1.3-0.6c-0.2-0.4,0-1.1,0.2-1.5
		C101.8,38.8,102.3,38.7,102.6,38.5z"/>
	<path class="st44" d="M67.1,56c1.1,1.6,1.7,3.4,1.7,5.3c0,0.5-0.5,1.2-1,1.3c-0.8,0.2-1.1-0.5-1.1-1.2c0-1.8-0.2-3.6-1.2-5.3
		c-0.1-0.2,0-0.5,0-0.7C66,55.7,66.6,55.9,67.1,56z"/>
	<path class="st45" d="M95.6,85.1c0.7-0.1,1.4-0.3,2.1-0.4c0.3,0,0.7-0.1,0.8,0.1c0.2,0.2,0.2,0.7,0.1,0.9c-0.4,0.5-0.9,1.1-1.4,1.3
		c-0.8,0.3-1.7,0.3-2.6,0.3c-0.7,0-1.3-0.4-1.3-1.3c0-0.8,0.7-1.1,1.4-1.1c0.3,0,0.6,0,0.8,0.1C95.6,85,95.6,85.1,95.6,85.1z"/>
	<path class="st34" d="M61.6,33.4c-0.2,3.7,0.3,7.2,2,10.6c0.2,0.3,0.1,0.7,0.2,1.1c-0.4-0.2-0.9-0.2-1.1-0.5
		c-1.8-1.8-2.6-4-2.9-6.4c-0.3-2.3-0.2-4.6-0.3-6.9c0.6-2,1.1-4,1.8-6c0.2-0.6,0.7-1.3,1.2-1.7c0.4-0.3,1.1-0.2,1.7-0.3
		c0,0.5,0.2,1.2,0,1.6c-1.4,2.2-2.1,4.5-2.4,7C61.6,32.4,61.6,32.9,61.6,33.4z"/>
	<path class="st12" d="M104.3,23.4c-1.8,0-2.8-0.8-2.9-2c-0.1-1.5,0.6-2.1,2.3-2.4c1.4-0.2,2.8-0.6,4.2-0.9c0.6-0.1,1.3-0.4,1.9-0.2
		c0.6,0.1,1.5,0.4,1.8,0.9c0.4,0.7,0.4,1.8-0.5,2.2c-1.6,0.8-3.2,1.5-4.9,2.1C105.5,23.4,104.7,23.3,104.3,23.4z"/>
	<path class="st12" d="M89.7,24.8c-2.6,0-4-1.5-3.1-3.2c0.9-1.7,2.6-1.1,4-1.3c1.1-0.1,2,0.2,2.5,1.3c0.5,1.1,0.2,2.2-1,2.7
		C91.2,24.5,90.3,24.7,89.7,24.8z"/>
	<path class="st43" d="M52.2,18.4c0.5,1-0.4,1.3-0.9,1.7c-2.4,1.8-4.6,3.9-6.2,6.5c-1.1,1.8-1.8,3.8-2.7,5.7
		c-0.3,0.7-0.3,1.9-1.4,1.6c-1-0.3-0.4-1.4-0.3-2.1c0.8-3.4,2.6-6.3,4.9-8.9c0.4-0.4,0.7-0.8,1.1-1.3c1.1-0.9,2.2-1.8,3.4-2.6
		C50.7,18.6,51.5,18.6,52.2,18.4z"/>
	<path class="st37" d="M94.7,229.5c0,0.5,0.1,1.1,0,1.5c-0.1,0.3-0.6,0.7-0.9,0.7c-0.3,0-0.8-0.4-0.8-0.6c-0.1-1.2-0.1-2.5,0-3.8
		c0-0.2,0.5-0.6,0.7-0.6c0.3,0,0.7,0.3,0.8,0.6c0.2,0.7,0.3,1.4,0.4,2.1C94.7,229.5,94.7,229.5,94.7,229.5z"/>
	<path class="st37" d="M89.4,273.8c-0.4,0.1-1,0.5-1.2,0.4c-0.3-0.2-0.5-0.8-0.5-1.2c0.1-1,0.2-2,0.5-2.9c0.1-0.3,0.5-0.5,0.8-0.8
		c0.2,0.3,0.6,0.6,0.6,0.9C89.6,271.4,89.5,272.6,89.4,273.8C89.4,273.8,89.4,273.8,89.4,273.8z"/>
	<path class="st46" d="M44.7,38.6c0.3-3.1,1.1-5.6,2.6-7.8c0.2-0.3,0.6-0.4,0.9-0.6c0.1,0.4,0.2,0.7,0.2,1.1c-0.5,2.3-1,4.7-1.5,7
		c-0.2,0.7-0.5,1.4-1.3,1.2C45.1,39.3,44.8,38.7,44.7,38.6z"/>
	<path class="st35" d="M96.4,316.7c0.2,0,0.3,0,0.5,0c2.8,2.8,6.1,4.7,9.6,6.4c0.2,0.1,0.4,0.2,0.5,0.3c0.2,0.3,0.3,0.6,0.5,0.8
		c-0.3,0-0.7,0.2-1,0.1c-1.2-0.4-2.5-0.8-3.5-1.4c-2.1-1.3-4.1-2.8-6.1-4.3C96.2,318.2,95.7,317.6,96.4,316.7z"/>
	<path class="st44" d="M57.5,322.5c0.1-0.5,0.2-1,0.4-1.5c0.1-0.3,0.4-0.5,0.6-0.7c0.2,0.3,0.5,0.6,0.6,0.9c0.1,0.2,0,0.5,0.1,0.8
		c-0.3,1.7-0.6,3.4-1,5c-0.1,0.4-0.7,0.7-1.1,1.1c-0.2-0.5-0.6-1-0.5-1.4C56.8,325.3,57.2,323.9,57.5,322.5z"/>
	<path class="st44" d="M64.7,321.8c0-0.1,0-0.2,0-0.2c0.1-0.5,0.3-0.9,0.4-1.4c0.2,0.4,0.5,0.8,0.7,1.2c0.3,1.8,0.6,3.5,0.8,5.3
		c0,0.2,0.1,0.4,0.1,0.6c-0.2,0.4-0.5,0.7-0.7,1.1c-0.3-0.3-0.8-0.6-0.8-0.9C65,325.5,64.8,323.7,64.7,321.8z"/>
	<path class="st13" d="M96,80.6c-1.3-0.5-2.6-0.8-3.8-1.4c-0.6-0.3-1.2-1-1.5-1.6c-0.3-0.6-0.2-1.4-0.3-2.1c0.5,0.1,1.1,0.1,1.6,0.2
		c2.4,0.2,4.8,0.3,7.3,0.4c0.6,0,1,0,0.8,0.8c0,0.1,0,0.2,0,0.2C99.8,79.5,98.5,80.5,96,80.6z"/>
</g>
</svg>
