<?xml version="1.0" encoding="utf-8"?>
<!-- Generator: Adobe Illustrator 25.2.2, SVG Export Plug-In . SVG Version: 6.00 Build 0)  -->
<svg version="1.1" id="maria_x5F_storytelling_xA0_Image_1_"
	 xmlns="http://www.w3.org/2000/svg" xmlns:xlink="http://www.w3.org/1999/xlink" x="0px" y="0px" viewBox="0 0 243.6 364.6"
	 style="enable-background:new 0 0 243.6 364.6;" xml:space="preserve">
<style type="text/css">
	.st0{fill:#FEFEFE;}
	.st1{fill:#F7DDC2;}
	.st2{fill:#B9B9B9;}
	.st3{fill:#010000;}
	.st4{fill:#F6DCC2;}
	.st5{fill:#020000;}
	.st6{fill:#030000;}
	.st7{fill:#020101;}
	.st8{fill:#020202;}
	.st9{fill:#030202;}
	.st10{fill:#060505;}
	.st11{fill:#060504;}
	.st12{fill:#B90101;}
	.st13{fill:#B80000;}
	.st14{fill:#BA0101;}
	.st15{fill:#BBB8B8;}
	.st16{fill:#FEF8F8;}
	.st17{fill:#FDF3EF;}
	.st18{fill:#F5EEE9;}
	.st19{fill:#010101;}
	.st20{fill:#B8B8B8;}
	.st21{fill:#B0B0B0;}
	.st22{fill:#E90909;}
	.st23{fill:#00C0CC;}
	.st24{fill:#9F9592;}
	.st25{fill:#008C95;}
	.st26{fill:#B4A18D;}
	.st27{fill:#746C6A;}
	.st28{fill:#00C0CB;}
	.st29{fill:#008B94;}
	.st30{fill:#716A68;}
	.st31{fill:#3A3635;}
	.st32{fill:#00939C;}
	.st33{fill:#003438;}
	.st34{fill:#6C6563;}
	.st35{fill:#504B4A;}
	.st36{fill:#006369;}
	.st37{fill:#FE9800;}
	.st38{fill:#B97000;}
	.st39{fill:#F6D19B;}
	.st40{fill:#00BFCB;}
	.st41{fill:#FD9800;}
	.st42{fill:#B86F00;}
	.st43{fill:#B3A08C;}
	.st44{fill:#B96F00;}
	.st45{fill:#B76E00;}
	.st46{fill:#B3A18D;}
	.st47{fill:#B19F8B;}
	.st48{fill:#008A93;}
	.st49{fill:#B56D00;}
	.st50{fill:#B09E8A;}
	.st51{fill:#5C3700;}
	.st52{fill:#938473;}
	.st53{fill:#8F5600;}
	.st54{fill:#7D7062;}
	.st55{fill:#332E28;}
	.st56{fill:#915700;}
	.st57{fill:#AA9886;}
	.st58{fill:#040404;}
	.st59{fill:#AF9C89;}
	.st60{fill:#020201;}
	.st61{fill:#030302;}
	.st62{fill:#B5B5B5;}
	.st63{fill:#000101;}
	.st64{fill:#000203;}
	.st65{fill:#000404;}
	.st66{fill:#000304;}
	.st67{fill:#000505;}
	.st68{fill:#000506;}
	.st69{fill:#000707;}
	.st70{fill:#000809;}
	.st71{fill:#00AFBA;}
	.st72{fill:#00A6B0;}
	.st73{fill:#00A8B2;}
	.st74{fill:#030303;}
	.st75{fill:#050505;}
	.st76{fill:#010100;}
	.st77{fill:#020100;}
</style>
<g>
	<path class="st0" d="M144.5,127.3c-0.6-0.2-1.2-0.3-1.8-0.5c-0.5,0.3-0.2,0.7-0.3,1.1c0,0.2,0,0.4-0.2,0.5
		c-0.3,0.1-0.5-0.1-0.6-0.3c-0.4-0.6-0.9-1.2-1.5-1.7c-0.5-0.5-1.1-0.7-1.7-0.5c-0.7,0.2-0.6,0.9-0.7,1.4c-0.5,3.9-1.5,7.7-4.3,10.6
		c-3.2,3.3-7.2,5.3-11.8,4.8c-3.9-0.4-6.8-2.8-8.3-6.5c-1-2.3-1.6-4.7-1.2-7.2c0.3-2.5-0.5-3-2.9-2.4c-0.3,0.1-0.6,0.2-0.9,0.4
		c-0.8,0.9-0.8,2-0.9,3c-0.1,1.1,0,2.2,0,3.4c0,0.4,0,0.8-0.1,1.2c-0.1,0.5-0.2,1-0.8,1.1c-0.6,0.1-0.8-0.4-1.1-0.8
		c-0.4-0.8-0.5-1.7-0.5-2.6c-0.1-1.3,0.3-2.6-0.3-3.8c-0.6-0.4-1.1,0-1.5,0.3c-1.8,0.9-3.1,2.3-4.6,3.6c-3.2,2.8-6.3,5.6-9.4,8.5
		c-3.4,3.1-6.7,6.3-9.9,9.6c-1.4,1.4-2.9,2.7-4.7,3.7c-1.2,0.7-1.2,1-0.5,2.2c0.6,1,1.3,1.9,1.5,3.3c-0.7-0.6-0.9-1.1-1.2-1.6
		c-0.6-1-1.3-2-2.1-2.9c-0.9-0.9-1.3-0.9-2.2-0.1c-0.5,0.5-1,0.5-1.5,0.2c-0.3-0.2-0.6-0.3-0.9-0.5c-1.2-0.8-1.2-0.9-0.1-1.8
		c0.8-1.2,2.1-1.5,3.2-2c3.2-1.6,6.4-3.4,9.2-5.7c2-1.7,3.4-3.6,4.2-6.1c-0.5-0.2-0.9,0.1-1.2,0.3c-3.4,1.7-6.9,3.1-10.3,4.8
		c-0.2,0.1-0.4,0.2-0.7,0.3c-1.3,0.5-1.8,0.2-2.3-1.1c-0.6-1.8-1-3.6-1.5-5.4c-0.6-2.7-0.6-2.7-3.2-1.9c-0.9,0.3-1.8,0.7-2.7,1
		c-0.4,0.1-0.8,0.3-1.2,0.2c-0.3,0-0.5-0.1-0.6-0.4c-0.1-0.3,0-0.5,0.2-0.6c0.4-0.3,0.8-0.5,1.2-0.7c1.9-0.6,3.7-1.3,5.6-1.6
		c0.3-0.1,0.7,0,0.8-0.4c0.7-1.3,1.3-2.7,2-4c-0.4-0.4-0.9-0.2-1.4-0.1c-3.7,0.8-7.3,2.1-10.7,3.8c-0.3,0.1-0.6,0.3-0.9,0.4
		c-0.3,0.1-0.8,0.2-1-0.2c-0.2-0.4,0.1-0.7,0.4-0.9c1.2-0.8,2.5-1.3,3.8-1.8c1.4-0.5,2.8-1,4.2-1.3c0.8-0.2,1.3-0.6,1-1.5
		c-0.9-2.9-1.4-5.9-2.5-8.8c-0.7-1.7-1.8-3.2-3.2-4.4c-0.8-0.7-1.6-0.9-2.6-1.1c-0.3,0-0.8,0-0.8-0.5c0-0.5,0.4-0.7,0.8-0.7
		c0.9-0.1,1.5-0.4,1.2-1.4c-0.3-1.2-0.7-1.5-1.9-1.3c-2.2,0.4-4.3,0.7-6.4,1.5c-0.5,0.2-1,0.3-1.3,0.8c-0.1,0.8,0.2,1.2,1,1.5
		c0.4,0.1,0.8,0,1.2,0.1c0.4,0.1,0.7,0.1,0.8,0.6c0,0.4-0.3,0.7-0.6,0.8c-1,0.3-2,0.6-2.9,1c-0.5,0.2-1.2,0.3-1.4,1
		c0.1,1.3,0.1,2.7,0.3,4c0.2,1,0.7,1.6,1.8,1.5c0.4,0,0.9-0.1,1.4,0.4c-1.9,0.7-3.6,1.5-5.5,0.8c-2.6,1.1-4.9,2.6-7,4.4
		c-0.2,0.2-0.6,0.4-0.3,0.8c0.7,0.5,1.4,1.1,2.1,1.6c1.3-1.5,3.1-2.3,4.8-3.1c1.9,0.1,3.6-0.7,5.6-0.7c-0.4,0.7-1,0.8-1.4,1.1
		c-0.7,0.4-0.9,0.9-0.7,1.7c1.2,4,2,8.1,3.2,12.2c0.5,1.8,1,3.7,1.3,5.6c0.2,1.1,0.5,2.2-0.8,3c-0.3,0.2-0.3,0.7-0.5,1.1
		c-0.2,0.3-0.3,0.6-0.7,0.5c-0.4-0.1-0.6-0.5-0.6-1c-0.2-1.7-0.8-3.3-1-5c-0.1-0.5-0.2-0.9-0.3-1.4c-0.1-2.5-1.7-3.7-3.9-4.4
		c-1.6-0.5-3.2-0.7-4.8-0.6c-0.7,0.1-1.4,0.4-2,0.8c-0.3,0.2-0.7,0.7-1.1,0.2c-0.3-0.4,0-0.7,0.3-1.1c0.7-1.1,0.6-1.5-0.6-2.1
		c-0.6-0.3-1.1-0.3-1.5,0.2c-1.7,2-3.4,4-4.3,6.4c0.1,0.9,0.4,1.5,1.5,1.2c0.4-0.2,0.6-0.6,0.9-0.8c0.3-0.3,0.7-0.4,1.1-0.1
		c0.4,0.3,0.3,0.7,0.1,1.1c-0.5,0.9-1.1,1.8-1.5,2.7c-0.2,0.3-0.3,0.6-0.4,1c-0.1,1.4,0.9,2.1,1.9,2.7c3.7,2.3,6.9,5.3,10.4,7.9
		c1.5,1.2,3.1,2.2,4.7,3.2c3.8,2.5,7.5,5,11.3,7.4c3.6,2.2,7.5,3.6,11.6,4.3c0.7,0.1,1.3,0,2-0.3c4.4-2.2,8.8-4.4,13.2-6.8
		c1.8-1,3.7-1.8,5.7-2.4c0.5-0.1,1-0.2,1.3-0.8c0.1-1.1-0.1-2.2-0.1-3.2c-0.1-2.3,0.3-4.5,0.8-6.8c0.4-1.9,1.3-3.4,2.6-5.1
		c0.3,1-0.1,1.6-0.4,2.3c-1.6,4.8-2.2,9.7-1,14.6c0.7,2.8,2.2,5.3,4.1,7.4c1.4,1.5,1.9,3.2,1.8,5.1c-0.3,5.6-1.1,11.2-2.1,16.8
		c-0.7,4.2-1.8,8.3-3.2,12.3c-0.5,1.3-0.4,1.6,1,2.2c5.4,2.2,11,3.4,16.7,4.2c3.6,0.5,7.3,0.7,11,0.7c4.5-0.1,9-0.4,13.5-1.2
		c0.4-0.1,0.8-0.2,1.1-0.3c2.2-2,4.8-3.8,6.2-6.5c1.7-3.4,2.6-6.9,1.6-10.6c-0.9-3.3-1.3-6.7-1.4-10.1c-0.1-1.9,0.2-3.9,0.7-5.8
		c0.1-0.3,0.2-0.7,0.2-1.1c0.1-1-0.1-1.2-1-0.9c-0.5,0.1-0.9,0.4-1.3,0.6c-0.3,0.2-0.7,0.5-1.1,0.2c-0.3-0.3-0.1-0.8,0-1.1
		c0.4-0.8,0.9-1.6,1.3-2.4c2.9-5.5,5.4-11.1,7.5-17c0.1-0.2,0.1-0.4,0.2-0.6c0.7-1.8,1.3-2,2.9-0.9c1.6,1.1,3.5,1.9,5.4,2.3
		c6.2,1.4,12.2,3.5,18.4,4.9c2.4,0.5,4.8,1,7.2,0.9c0.9,0,1.1,0.3,1.1,1.1c0,1.4-0.1,2.7,0.1,4.1c-0.1,0.7-0.2,1.4-0.3,2.1
		c0.7,0.3,0.9,0.8,0.7,1.5c-1,3.1-2.5,5.9-4.9,8.2c-0.1,0.1-0.2,0.2-0.4,0.3c-0.2,0.1-0.4,0.2-0.5,0.1c-0.2-0.2-0.1-0.5,0.1-0.6
		c0.8-0.8,1.5-1.7,2.1-2.6c0.7-1,1.3-2,1.8-3.1c0.2-0.4,0.4-0.7,0.2-1.1c-0.9,0.2-1-0.6-1.3-1.1c-0.7-0.3-1.4-0.6-2.2-0.5
		c-0.4,0.1-0.5,0.5-0.7,0.8c-0.3,0.4-0.8,0.6-1.2,0.3c-1.1-0.7-2.3-0.5-3.5-0.5c-1,0-2.1,0.1-3.1-0.1c-3.9-0.1-7.8-0.3-11.7-0.3
		c-1.1,0-2.2,0.4-3.2,0.6c-0.2,0.2-0.1,0.5,0,0.7c2,3.6,3.9,7.3,7,10.2c1.3,1.2,1.7,1.2,2.5-0.4c0.5-1,0.7-2,1.1-3
		c0.1-0.2,0.1-0.5,0.5-0.6c0.3,0.8,0,1.8,0.8,2.4c0.2,1.8-0.5,3.4-1,5c-0.1,0.5-0.5,0.9-0.2,1.5c1,0,2-0.1,2.6,0.9
		c0.6-0.1,0.7-0.6,0.9-1c0.9-1.9,1.5-3.8,2-5.8c0.1-0.5,0.2-1.3,1-1.3c1.3-0.2,1.4-0.1,1.5,1.2c0,0.4,0,0.9-0.1,1.3
		c-0.2,1.6-0.2,1.7,1.4,2c2.8,0.5,5.3,1.8,7.9,2.7c1.2,0.4,2.5,1,3.7,1.4c1.9,0.7,3.2,0,3.3-2.1c0.1-2.4,1.3-4.3,2.8-6.1
		c0.8-0.9,1.8-1.5,3.1-1.2c0.8-0.1,1.5-0.6,2.2-0.9c0.2-0.1,0.5-0.2,0.7,0c0.2,0.3,0,0.5-0.2,0.7c-0.2,0.2-0.4,0.4-0.7,0.5
		c-2.5,1.7-3.4,4.2-3.8,7.1c0,0.2,0,0.5,0.1,0.7c1.5,0.7,3,1.3,4.5,2c0.4,0.2,0.8,0.1,0.9-0.4c0.2-1-0.2-2,0-3.1
		c0.5-2.7,2-4.5,4.4-5.5c0.5-0.2,0.9-0.2,1.4,0.1c0.4,0.2,0.7,0.4,1.1,0c0.3-0.3,0.3-0.7,0.2-1.1c-0.2-0.5,0-1-0.2-1.4
		c-0.5-0.1-0.9-0.2-1.4-0.4c-1.6-0.2-3.1-0.5-4.5-1c-0.8-0.3-1.4-0.7-1.7-1.6c-0.3-1-1-1.4-2-1.5c-2.7-0.3-5.4-0.6-8.1-0.9
		c-0.8-0.1-1.4,0-2,0.6c-0.2,0.2-0.5,0.5-1,0.4c0.4-2.1,1.3-4,1.4-6.1c0.1-2.1,0-4.2,0.1-6.3c-0.1-0.5,0.2-0.8,0.6-1.1
		c2.6-2.1,5-4.4,7.3-6.7c4.8-4.8,9.5-9.5,14.3-14.3c1.3-1.4,2.9-2.5,4.2-3.9c0-1.3-0.8-2.3-1.6-3.2c-2-2.2-4.1-4.2-6.4-6.1
		c-0.4-0.3-1.3-0.7-0.8-1.3c0.5-0.6,1.1,0.2,1.5,0.5c1.3,1,2.5,2,3.6,3.1c0.4,0.4,0.7,0.8,1.3,0.8c0.3-0.1,0.4-0.4,0.5-0.6
		c0.4-1.1,1.1-1.8,2.1-2.3c0.3-0.1,0.5-0.3,0.5-0.6c-0.1-0.9-0.8-1.6-1.4-2.2c-2-2-4.5-3.3-7.4-3.7c-0.8-0.1-1.2,0.2-1.4,0.9
		c-0.2,0.5-0.3,1-0.5,1.5c-0.7,1.3-1.5,2.4-3.2,2.4c-1,0-1.6,0.6-2.2,1.3c-1.7,2.2-3.6,4.3-5.4,6.4c-1.5,1.8-3.1,3.5-4.9,5.1
		c-1.4,1.2-2.6,2.5-3.5,4.1c-0.8,1.5-0.7,3.2-1,4.8c-0.3,2.3-0.4,4.5,0,6.8c0.1,0.4,0.1,0.8-0.2,1.2c-0.6-0.9-0.8-1.9-0.9-2.9
		c0-2-0.1-4.1,0.3-6.1c0.2-1,0.1-2-0.8-2.6c-0.6-0.4-1.8,0.3-2.4,1.4c-0.9,1.4-1.5,3-1.8,4.7c-0.1,0.7-0.2,1.4-0.6,2.1
		c-0.2-0.8,0-1.6,0.1-2.3c0.2-1.1,0.5-2.3,0.9-3.4c0.6-1.8,0.6-1.7-1.1-2.5c-6.6-3-13.4-5.7-19.2-10.2c-2.9-2.3-6.1-3.9-9.7-4.7
		c-1.4-0.3-2.9-0.5-4.4-0.7c-0.8-0.1-1.6-0.3-2.5-0.5C145.4,128.8,144.7,128.4,144.5,127.3z"/>
	<path d="M31.1,143.9c1.4-2.1,2.8-4.3,4.3-6.3c1-1.3,1.5,0.4,2.3,0.5c-0.4,0.6-0.9,1-1.1,1.5c-0.1,0.3-0.1,0.9,0.1,1
		c0.2,0.2,0.8,0.2,1,0.1c3.4-2.5,6.5-1,9.6,0.6c0.4,0.2,0.6,0.8,0.7,1.3c0.6,2.8,1.1,5.5,1.8,8.3c0.1,0.5,0.6,0.9,1,1.3
		c0.3-0.3,0.6-0.6,0.9-1c0.2-1,0.1-2-0.1-3.1c-1.1-5.7-2.7-11.3-4.2-17c-0.3-1-0.5-1.9-0.8-2.9c-0.4-1.3-0.7-1.5-2.2-1.3
		c-1.2,0.6-2.4,1.2-3.6,2c-0.5,0.3-0.7,0.9-1,1.4c0.4,0.7,0.9,0.6,1.5,0.3c0.8-0.5,1.6-1,2.5-1.5c0.2-0.1,0.8,0,0.8,0.2
		c0.9,3.1,1.7,6.2,2.4,9.1c-2.2-0.3-4.5-0.6-6.7-1c-0.4-0.1-0.7-0.3-1.1-0.5c-0.9-0.6-1.7-1.2-2.6-1.7c-0.5-0.2-1.1-0.1-1.7-0.2
		c-0.3,0-0.7,0-1-0.1c-1.9-0.5-2.5-1.9-2.5-3.8c0-2.8-1.6-4.5-4.1-5.5c-0.4-0.2-0.8-0.5-1.1-0.9c-0.9-1.1-1.6-2.4-2.5-3.5
		c-1.2-1.6-2.8-2.7-4.9-2.3c-1.8,0.3-2.5,1.6-1.9,3.3c0.5,1.3,1,2.6,1.7,4.2c-2.6-1.6-5-2.7-7-4.7c-1.3-1.3-3.2-2.2-4.8-3.2
		c-0.7-0.4-1.5-0.4-2,0.4c-0.3,0.7,0.1,1.2,0.7,1.4c2.5,0.7,4.4,2.3,6.1,4.2c0.2,0.3,0.5,0.5,0.8,0.7c2,1.4,4.2,2.4,6.4,3.5
		c1.2,0.6,2.1,0,2.1-1.4c0-1-0.4-2-0.8-2.9c-0.3-0.7-0.7-1.4-1.1-2.2c-0.1-0.3-0.4-0.7-0.1-1c0.3-0.3,0.7-0.2,1-0.2
		c0.6,0,1,0.4,1.5,0.8c0.9,0.8,1.5,1.7,2.3,2.6c1.2,1.3,2.4,2.6,4,3.6c1.2,0.8,1.6,2,1.5,3.4c-0.1,1.7,0,3.3,1.6,4.4
		c1.7,1.1,1.7,1.1,0.6,2.7c-0.7,1.1-1.4,2.1-2,3.3c-0.4,0.8-0.9,1-1.7,0.9c-2.7-0.2-5.3,0-7.8,0.9c-2,0.7-3.7,0.2-5.4-0.6
		c-2.8-1.4-5.1-3.5-7.7-5.3c-2.2-1.5-3.1-3.7-3.6-6.1c-0.3-1.3-0.4-2.6-0.6-3.9c-0.2-2.2,0.2-4.3,1.4-6.3c0.7-1.1,0.5-1.5-0.4-2
		c-0.8,0.6-1.9,1.1-2.3,1.9c-0.7,1.4-1.3,3.1-1.4,4.6c-0.2,3.1,0.3,6.1,1.4,8.9c0.6,1.4,1.6,2.9,2.8,3.8c2.9,2.1,6,4.1,9.2,5.8
		c2.4,1.3,5.2,1.1,7.9,0.9c1.8-0.2,3.6-0.3,5.4-0.4c0.9,0,1.5,0.1,1.3,1.3c-0.2,1.3,0,2.7,1.5,3.5c0.2,0.1,0.3,0.6,0.3,0.9
		c-0.1,1.9,0.6,3.5,2.1,4.6c4.2,3,8.5,5.9,12.8,8.9c2,1.4,4.1,2.8,6.1,4.2c0.6,1,1.7,1.5,2.5,2.1c2.3,1.6,4.4,3.4,6.7,5
		c2.3,1.6,4.6,3.3,7.3,4.3c0.7,0.3,1.2,1.2,2.1,1c3,0.5,5.8-0.4,8.5-1.4c5.7-1.9,10.8-5.2,15.8-8.4c0.3-0.2,0.7-0.4,1-0.7
		c0.8-0.7,1.2-0.6,1.8,0.4c1,1.7,2.2,3.2,3.3,4.8c0.2,0.3,0.4,0.7,0.4,1c0.3,9.5-1.5,18.7-4.2,27.7c-0.4,1.2-0.7,2.4-1.2,3.6
		c-0.5,1.2,0,2,1,2.6c0.8,0.5,0.9,1,0.7,1.8c-1.3,7-2.5,14.1-3.7,21.1c0,0.2,0,0.3-0.1,0.5c-2.2,4.7-2,9.9-3.2,14.8
		c-2,7.7-2.3,15.7-3,23.6c-0.2,2.5-0.3,5.1-0.4,7.6c0,0.7,0.1,1.5,0.3,2.2c3.1,9.8,4.8,19.9,6.9,29.9c0.7,3.4,1.5,6.7,2.3,10
		c0.7,3.3,1.5,6.6,2.1,9.9c0.3,1.3,0.7,2.4,1.8,3.1c0.1,0.1,0.3,0.5,0.2,0.6c-1.7,2-0.7,3.9,0.5,5.6c0.5,0.8,0.5,1.2,0.1,2
		c-1,2.1-1.8,4.2-2.7,6.3c-0.1,0.3-0.5,0.7-0.8,0.8c-1.7,0.5-3.4,0.9-5.1,1.5c-2.6,0.9-3.4,2.3-3.2,5c0,0.6-0.1,1.2-0.3,1.8
		c-0.7,1.6-0.1,3.3,1.6,3.8c1.5,0.4,3.1,0.7,4.6,0.7c2.9,0,5.9-0.1,8.8-0.5c1.3-0.2,2.5-1.2,3.7-2c1.2-0.7,2.3-1.5,3.4-2.2
		c0.5-0.3,0.7-0.2,0.9,0.4c0.5,1.7,1,2.1,2.7,2c3.1-0.1,6.1-0.8,8.9-2.2c0.8-0.4,1.2-1,1.2-2c0-2.5,0.4-5,0.2-7.4
		c-0.3-3-1.1-6-1.7-9c-0.1-0.3-0.2-0.7,0-0.9c1.2-2.3,0.4-4.6,0-6.9c0-0.2-0.3-0.6-0.5-0.6c-1.5-0.4-1.6-1.7-1.7-2.8
		c-0.8-4.5-1.5-9.1-2.1-13.6c-0.7-4.7-1.1-9.5-1.8-14.3c-0.5-3.9-0.9-7.8-2.7-11.4c-0.1-0.3,0-0.7,0.1-1.1c0.3-1.2,0.8-2.5,0.8-3.7
		c0-0.8-0.5-1.9-1-2.5c-0.8-0.9-0.8-1.6-0.4-2.8c2.1-5.1,4-10.3,5.8-15.5c1.1-3.2,1.9-6.4,2.9-9.8c2.1,3.2,4.7,6,5.2,10.2
		c0.4,3.8,1.9,7.6,2.8,11.4c0.3,1.2,0.3,2.4,0.5,3.6c1.5,7.8,2.9,15.6,4.4,23.4c1.4,7.6,2.9,15.3,4.3,22.9c0.3,1.7,0.5,3.3-0.3,5
		c-0.5,1-0.1,2.3-0.1,3.5c0,0.3,0.2,0.7,0.1,0.8c-1.7,1.5-1.4,3.5-1,5.4c0.3,1.3,1.1,2.4,1.7,3.6c0.2,0.4,0.4,0.8,0.3,1.1
		c-0.6,1.7-1.2,3.5-2,5.1c-1.4,3.1-1.6,6.1-0.6,9.3c0.2,0.7,0.2,1.4,0.6,2.1c0.6,1.2,1.7,1.8,3,2c5.5,0.9,11,0.7,16.3-1.4
		c2.1-0.8,3.1-2.1,3.1-4.4c-0.1-3.2-0.8-6.2-2.4-8.9c-0.4-0.7-0.7-1.4-0.9-2.1c-0.3-0.8-0.2-1.5,0.4-2.3c1-1.2,1.7-2.6,1.6-4.3
		c0-0.4,0-1-0.2-1.1c-1.1-0.7-0.6-1.7-0.5-2.6c0.1-3.2,0.1-6.3,0.1-9.5c0-7,0.8-13.9,1.3-20.9c0.9-12,1.2-24,1-36.1
		c-0.2-7.6-0.8-15.1-1.6-22.6c-0.3-2.7,0.1-5.4,0.2-8.1c0.1-8.1,0.1-16.2-1-24.3c-0.2-1.7-0.7-3.4-1.1-5.2c-0.1-0.7-0.1-1.2,0.5-1.6
		c1-0.7,1-1.8,0.6-2.8c-1-2.4-1.9-4.7-3-7c-1.6-3.3-2-6.8-2.5-10.3c-0.2-1.5-0.3-2.9-0.5-4.4c-0.1-0.5-0.5-0.9-0.8-1.3
		c-0.8,0-0.9,0.7-0.9,1.2c-0.2,4.6-0.2,9.2,1.3,13.5c0.9,2.8,2.2,5.5,3.5,8.1c1,2,0.9,2.2-1.1,3c-3.9,1.6-7.9,2.7-11.9,3.6
		c-0.6,0.1-1.2,0.3-1.8,0.6c-14.3,2.5-28.3,1.8-42-3.3c-1.5-0.6-1.4-0.6-1-2.1c1.3-4.8,2.6-9.6,3.5-14.5c0.9-4.7,1.2-9.4,1.7-14.1
		c0.2-2.1-0.2-3.9-1.8-5.6c-4.3-4.7-5.4-10.4-4.3-16.5c0.4-1.9,1-3.8,1.5-5.8c0.1-0.3,0.2-0.5,0.2-0.8c0-0.5-0.1-1-0.2-1.5
		c-0.4,0.3-0.8,0.6-1.1,0.9c-2.9,4.3-3.3,9.2-2.8,14.1c0,0.2,0,0.5,0,0.7c-0.4,0.7,0,1.3,0.1,2c0.2,0.7,0.1,1.2-0.5,1.7
		c-5.1,3.5-10.3,6.7-16.1,9c-2.1,0.8-4.3,1.4-6.6,1.9c-0.7,0.1-1.2-0.1-1.8-0.4c-7-3.9-13.1-9.1-19.7-13.6
		c-4.2-2.8-8.4-5.6-12.7-8.4c-1.4-0.9-2.6-1.9-3.8-3c-0.9-0.8-1.2-1.8-1-2.9c0.1-0.6,0.2-1.2,0.4-1.8c0.6-1.1,1.1-2.1,1.7-3.2
		c0.4-0.7,0.9-1.4,0-2c-0.8-0.6-1.4,0.1-1.9,0.7c-0.1,0.1-0.2,0.3-0.3,0.4c-0.9,0.7-1.2,1.9-2,3C30.1,146.2,31.1,145.1,31.1,143.9z"
		/>
	<path d="M67.5,153c-0.4,0.2-0.9,0.4-1.1,0.7c-0.4,0.7,0.2,0.8,0.7,1.1c0.5,0.3,1,0.6,1.4,0.9c0.7,0.4,1.3,0.4,1.8-0.3
		c0.6-1.1,1.3-0.6,1.8,0c0.9,1.2,1.7,2.5,2.6,3.7c0.3,0.4,0.7,0.6,1.1,1c0-0.5,0-1.1-0.2-1.5c-0.4-0.9-1.1-1.8-1.5-2.7
		c-0.1-0.2-0.1-0.8,0.1-0.9c5.2-3,8.7-7.8,13.1-11.7c3.4-3,6.7-6,10.1-9.1c1.5-1.3,2.9-2.7,4.4-3.9c0.8-0.7,1.8-1.1,2.7-1.7
		c1.5-0.1,2.8-0.6,4.1-1.4c0.4-0.1,0.8-0.2,1.2-0.2c0.6-0.1,1.3-0.1,2-0.1c0,0.8,0.2,1.7,0.1,2.5c-0.4,4.3,0.8,8.1,4,11.1
		c3.2,3,7,3.6,11.1,2.2c6.8-2.4,11-8.2,11.2-15.3c0-0.3,0.2-1,0.3-1c0.4,0,1,0,1.3,0.3c0.6,0.5,1.1,1.2,1.7,1.8
		c0.3,0.3,0.7,0.5,1,0.7c0.1-0.4,0.3-0.8,0.4-1.2c0.1-0.3,0-0.6-0.1-0.9c-1.3-2.7-3.1-3.5-5.2-2.8c-0.9,0.3-1-0.1-1-0.8
		c0-1.3-0.2-2.6-0.1-4c0-0.5,0.3-1.1,0.7-1.4c2.7-3,5.2-6.1,6.8-9.8c0.6-1.3,1-2.6,1.2-4c0.2-0.9,0.8-1.1,1.4-1.4
		c4.4-1.9,7-5.3,7.7-10c0.2-1.6-0.3-3.4-0.5-5.1c0-0.4,0-1,0.2-1.3c4-4.7,6.4-10.1,7.3-16.2c0,0,0.1,0,0.3-0.2
		c0.4,0.8,0.8,1.5,1.1,2.3c1.9,4.8,2.4,9.7,1.4,14.7c-0.2,0.9-0.7,2,0.4,2.6c1.1,0.6,1.9-0.3,2.6-0.9c0.8-0.8,1.5-1.8,2.3-2.7
		c0.2-0.2,0.5-0.5,0.7-0.5c2.5,0.7,4.4-0.6,6.4-1.7c0.4-0.2,1-0.4,1.5-0.3c2.5,0.6,8-2.6,7.7-6.3c-0.1-1.8-0.4-3.7-0.6-5.7
		c1,1.1,1.9,2.1,2.9,3c0.5,0.4,1.4,0.9,1.9,0.8c0.4-0.1,0.9-1.1,1-1.7c0.1-3.2,0.4-6.4,0-9.5c-0.7-6.2-3.2-11.9-7.2-16.7
		c-4.3-5.2-9.9-8-16.5-9.1c-3.6-0.6-7.3-0.5-10.8,0.6c-1.8,0.6-3.3,0.8-5-0.2c-1.1-0.6-2.1,0.1-2.8,0.8c-1.3,1.3-2.4,1.1-4,0.3
		c-5.2-2.7-10.8-4.2-16.8-4c-0.4,0-0.8-0.1-1.1-0.2c-9.6-5-18.6-3.4-26.9,2.9c-8.6,6.4-13,15.2-13.4,25.9c-0.2,4.1,0.1,8.2,1.4,12.1
		c0.3,0.8,0.6,1.6,1.1,2.3c0.7,1.1,1.5,1.2,2.4,0.3c1.1-1.2,2-1.1,3.3-0.2c0.9,0.6,2.1,0.8,2.9,1.1c-0.8,2.4-1.8,4.9-2.5,7.4
		c-0.9,3.4-0.3,6.7,0.9,10c0.3,0.9,0.9,1,1.5,0.3c0.4-0.5,0.7-1.1,1.3-1.4c0.6,5.5,1.7,10.6,3.7,15.5c2,4.9,4.8,9.2,9.1,12.8
		c-0.9,0.1-1.6,0.1-2.2,0.2c-3.7,0.4-6.8,2.4-9.5,4.7c-7.5,6.5-15.1,12.9-22,20.1c-1.3,1.3-2.7,2.5-4.1,3.8c-0.5,0.4-1,0.5-1.6,0.1
		c-0.7-0.5-1.7-0.7-2.3-0.1C68.5,154,68.1,153.6,67.5,153z"/>
	<path d="M216.2,131.6c-1.6-1.4-3.2-2.9-4.8-4.3c-0.3-0.3-0.6-0.6-1-0.6c-0.3,0-0.7,0.2-1,0.4c0.2,0.4,0.2,0.9,0.5,1.2
		c1.9,1.8,4,3.5,5.8,5.3c1.1,1.1,1.9,2.4,2.8,3.6c0.1,0.1,0,0.4,0,0.6c-1.3,3.6-3.8,6.4-6.1,9.2c-3.3,3.9-6.6,7.8-10.3,11.4
		c-2.3,2.3-4.7,4.4-7.3,6.3c-0.7,0.5-0.9,0.3-1.2-0.4c-0.5-1.3-0.9-1.4-1.7-0.8c0,0.8-0.1,1.5,0,2.3c0.2,3.5-0.2,6.9-1.5,10.1
		c-0.1,0.3,0,0.7,0,1c0.4-0.1,0.9-0.1,1.1-0.3c0.8-1.3,2-1.1,3.2-0.9c2.4,0.3,4.8,0.6,7.3,0.8c0.9,0.1,1.5,0.4,1.7,1.4
		c0.2,0.9,0.7,1.5,1.7,1.7c1.2,0.3,2.3,0.7,3.5,0.9c0.4,0.1,0.9-0.1,1.4-0.2c-0.2-0.3-0.4-0.7-0.6-0.9c-1.1-0.5-2.2-0.8-3.3-1.3
		c-0.4-0.2-0.9-0.6-1-1c-0.4-1.6-1.4-2.1-2.8-2.3c-2.7-0.4-5.4-0.9-8.1-1.3c-0.6-0.1-0.9-0.3-0.7-1c0.2-1.3,0.2-2.5,0.4-3.8
		c0-0.4,0.2-0.9,0.5-1.1c4.6-2.6,8.5-6.1,12.1-10c4.4-4.6,8.7-9.4,12.3-14.6c1.1-1.5,1.6-3.2,1.9-5c0.1-0.3,0.1-0.7,0-0.9
		c-0.8-1.2-0.2-2.1,0.7-3c0.5-0.5,0.7-1.1,1-1.8c0.6-1.3,1-2.7-0.6-3.6c1.9-2.1,4.4-2.6,6.9-3.3c4.4-1.1,7.8-3.4,10.3-7.2
		c0.7-1.1,1.4-2.2,2.1-3.2c2.8-3.6,3.1-7.7,1.8-11.9c-0.7-2.4-1.3-4.9-3.2-6.7c-0.8-0.8-1.9-1.3-2.9-1.8c-0.8-0.4-1.4-0.1-1.4,0.9
		c-0.1,0.4,0.2,0.7,0.5,0.8c2.2,1.4,3.4,3.5,4,6c0.4,1.5,0.8,3.1,0.9,4.7c0.8,3.2-1.2,5.6-2.5,8.1c-1,1.9-2.2,3.6-3.5,5.2
		c-1.2,1.5-2.6,2.5-4.6,2.7c-2.1,0.2-4.1,0.7-6,1.4c-0.9,0.3-1.8,0.7-2.5,1.4c-0.6,0.6-0.9,0.6-1.4-0.1c-0.9-1.1-1.9-2.1-3.1-3
		c-0.5-0.3-1-0.7-1.6-0.9c0.2-0.5,0.6-0.9,0.9-1.3c1-1.3,1.1-2.8,0.4-4.2c-1.2-2.2-0.9-4.1,0.6-6.2c1.1-1.5,1.5-3.5,2.1-5.3
		c0.3-1,0.7-1.9,1.5-2.5c0.3-0.2,0.7-0.5,1.1-0.3c0.4,0.2,0.2,0.6,0.3,1c0,1-0.3,1.9-0.2,2.9c0,0.8,0.1,1.6,0.3,2.4
		c0.4,1.3,1.4,1.5,2.4,0.7c0.8-0.6,1.3-1.5,2-2.2c1.8-2,3.4-4.3,4.3-6.9c0.5-1.5,1.6-2.6,2.8-3.6c0.2-0.2,0.6-0.4,0.5-0.7
		c-0.1-0.4-0.1-1.1-0.4-1.2c-0.4-0.1-1.1,0-1.4,0.3c-1.2,1.5-2.7,2.9-3.4,4.7c-1.1,2.7-2.9,4.9-4.8,7.4c0-1.5,0-2.8,0-4
		c0-2.4-1.6-3.4-3.9-2.4c-1.6,0.7-2.4,2.2-2.8,3.8c-0.4,1.4-0.6,2.9-1,4.3c-0.1,0.3-0.2,0.6-0.4,0.8c-2.6,2.2-2.9,4.9-1.7,7.9
		c0.4,1.1-0.4,3.3-1.4,3.9c-0.1,0.1-0.3,0-0.5,0c-0.1,0-0.2,0-0.4-0.1c-4.1-1-3.6-0.2-4.9,2.5c-0.3,0.7-0.5,1.7-1.7,1.3
		c-1.6-0.4-2.7,0.6-3.7,1.6c-0.8,0.9-1.4,1.9-2.1,2.9c-2.1,3.3-4.7,6.2-7.8,8.7c-1.5,1.2-3,2.6-3.9,4.4c-0.5,1.1-1.6,0.5-2.4,0.8
		c-0.7,0.3-1.5,0.9-2.3,0c-0.5-0.6-1.4-0.8-2.1-1.2c-1.9-0.9-3.9-1.8-5.9-2.7c-0.4-0.2-0.7-0.3-1.1-0.2c-4.2-2-8.3-4.3-11.9-7.2
		c-3.4-2.7-7.3-3.8-11.5-4.3c-2.2-0.3-4.4-0.2-6.7-0.3c-0.7,1-0.1,1.5,0.8,1.7c2,0.4,4.1,0.8,6.1,1.1c3.9,0.7,7.4,2.1,10.7,4.5
		c3.6,2.6,7.6,4.7,11.6,6.9c2.5,1.4,5.1,2.4,7.7,3.6c0.7,0.3,1.4,0.4,2,0.6c-0.5,2.1-1,4.4-1.5,6.7c-0.1,0.5,0.2,1.2,0.3,1.8
		c0.2-0.5,0.5-1,0.7-1.5c0.6-1.8,1.1-3.6,1.7-5.4c0.1-0.4,0.5-0.9,0.8-1.1c0.5-0.4,1.1-0.5,1.6-0.8c0.2,0.7,0.6,1.3,0.6,2
		c-0.1,2.2-0.3,4.4-0.4,6.6c0,1.4,0.4,2.6,1.6,4c0-1.2,0-2.2,0-3.1c0.1-2.7,0.3-5.3,0.3-8c0-2.7,1.7-4.5,3.5-6
		c3.7-3.2,6.7-7,9.8-10.7c0.6-0.7,1.1-1.4,1.8-2.1c0.3-0.3,0.9-0.7,1.3-0.7c2.2,0.1,3-1.3,3.7-2.9c0.9-2,0.9-2,3-1.5
		c3.1,0.8,5.4,2.6,7.2,5.3c0.1,0.3,0.1,0.6,0.3,0.8c1.3,1.4,0.6,2.7-0.1,4c-0.4,0.8-0.8,0.8-1.5,0.2
		C217.5,132.7,217,131.9,216.2,131.6z"/>
	<path class="st1" d="M213.3,77.6c0,0,0-0.1-0.1-0.1c-1.7,1.4-2.5,3.2-2.7,5.3c-0.3,2.5-1,4.7-2.2,6.9c-0.5,0.8-0.8,1.7-1.2,2.6
		c-0.2,0.5-0.4,1-1.1,1c-0.6,0-0.8-0.6-1-1.1c-0.5-1.3-0.7-2.6-0.9-4c-0.1-0.7-0.1-1.7-1-1.8c-0.9-0.1-1.6,0.6-2.1,1.4
		c-0.4,0.8-0.6,1.6-0.6,2.4c-0.2,2.7-0.4,5.3-1.3,7.9c-0.4,1-0.1,1.9,0.4,2.7c0.4,0.6,0.8,1.2,1.2,1.8c1,1.3,1,2.6,0.4,4
		c-0.6,1.4-0.5,1.4,0.8,2c1.2,0.5,2.4,0.8,3.5,1.6c0.8,0.6,1.5,1.2,1.7,2.2c0.7,0.7,1.1-0.3,1.6-0.3c0.2-0.5,0.5-1,0.7-1.4
		c0-0.8-0.1-1.6-0.8-2.1c0.5,0.2,0.9,0.7,1.6,0.6c1.9,0.8,2.4,0.3,2.2-1.9c-0.7-2.2-2.1-3.9-3.5-5.7c-0.3-0.4-0.8-0.8-1-1.4
		c1.4,0.9,2.9,1.8,4.2,2.8c1.5,1.1,2.9,0.9,3.9-0.6c0.6-0.9,1.2-1.9,2.1-2.6c0.7-1,1.4-2,2-3.1c0.4-0.7,1-1.2,1.8-1.3
		c-0.8-0.5-0.3-1.4-0.6-2.1c0.5,0.2,0.9,0.6,1.3,0.2c0.7-0.7,0.5-1.5,0-2.2c-0.3-0.4-0.5-0.9-0.7-1.4c-0.1-0.7-0.7-1-1.1-1.3
		c-0.3-0.3-0.7-0.5-1-0.9c-0.1-0.2-0.3-0.4-0.2-0.6c0.2-0.2,0.5-0.2,0.7,0c1.1,0.7,2.2,1.3,2.7,2.6c0.1,0.2,0.1,0.4,0.3,0.5
		c1.1,1,2.1,2.1,3.2,3c0.7,0.6,1.4,0.7,1.7-0.4c0.2-0.7-0.3-1.1-0.6-1.5c-2.2-2.7-4.8-5.1-7.8-6.9c-0.1-0.1-0.2-0.1-0.3-0.2
		c-0.4-0.3-1-0.5-0.9-1.1c0.1-0.6,0.8-0.2,1.2-0.5c0.2-0.1,0.3-0.2,0.3-0.4c-0.2-1.2-1.1-2-1.9-2.8c-1.1-1-2.3-1.8-3.8-2
		C214.1,77.8,213.7,77.8,213.3,77.6z"/>
	<path class="st0" d="M208.8,112.2c-0.5,0.1-1,0.3-1.5,0.4c-1.3,0-2.4-0.7-3.4-1.4c-2-1.4-4.2-1.9-6.7-1.7c-1.4,0.1-1.6,0.3-1.7,1.6
		c-0.1,0.8-0.2,1.6-0.5,2.3c-0.3,0.9-0.8,1.5-1.8,1.7c-1.2,0.2-1.7,1.2-2.2,2.2c-1.3,2.9-2.8,5.7-4.1,8.5c-0.6,1.3-1.4,2.5-2.1,3.7
		c-0.4,0.7-1,1.3-1.3,2.2c0,0.4,0.3,0.5,0.6,0.6c2,0.7,2.9,2.4,3.7,4.2c0.5,1.3,0.1,1.7-1.7,1.9c-0.7,0.6-1.1,0.2-1.6-0.3
		c-0.9-1.2-1.8-2.4-2.9-3.5c-0.2-0.3-0.4-0.7-0.9-0.6c-0.3,0.3-0.7,0.6-1,0.9c-0.2,0.9,0.6,1.4,0.9,2.1c0.3,0.6,0.7,1.2,0.3,1.9
		c-1.1,1.3-1.4,1.3-2.4-0.1c-0.5-0.7-0.6-1.6-1.5-1.9c-0.8,0.8-1.7,1.5-2.5,2.3c2.7,1.2,5.3,2.5,8,3.7c0.4,0.2,0.8,0.3,1,0.6
		c0.4,0.8,1,0.6,1.7,0.4c0.8-0.2,1.6-0.3,2.4-0.4c0.2,0,0.5-0.2,0.6-0.4c1-2.3,2.9-3.8,4.7-5.3c3-2.5,5.5-5.3,7.5-8.6
		c0.7-1.2,1.6-2.3,2.6-3.2c0.7-0.6,1.7-0.7,2.6-1c0.5-1.6,1-3.2,1.6-4.7c0.2-0.4,0.6-0.8,0.9-1.1c0.4-0.4,1-0.7,1.4-1.1
		c1.4-1.7,1.4-2.5-0.2-4.1C209,113.3,208.3,112.9,208.8,112.2z"/>
	<path class="st1" d="M4.3,181.7c-0.3,0.4-0.9,0.7-1,1.1c-0.2,0.8-0.1,1.6-0.1,2.4c0.1,2.6,0.3,5.3,0.4,7.9c0.7,0.9,1.1,2,1.5,3
		c0.3,0.8,0.7,1.5,1.6,1.8c1.4-0.3,2.7,0.1,4,0.7c1.8,0.8,3.6,1.3,5.7,1.3c1.4,0,2.7-0.5,3.9-1c2.7-1.1,5.3-2.4,7.9-3.8
		c1-0.6,1.7-1.3,2.3-2.2c1.3-1.9,2.4-4,3.9-5.7c0.5-0.5,0.5-1.1,0.3-1.8c-0.7-1.8-1.3-3.7-0.4-5.7c-0.1-0.7-0.5-0.7-1.1-0.5
		c-0.4,0.2-0.8,0.4-1.2,0.6c-1.1,0.4-2.1,0.4-3.1-0.3c-0.8-0.5-1.5-1-2.3-1.4c-0.3-0.1-0.6-0.3-0.9-0.1c-0.3,0.2-0.2,0.6-0.1,0.9
		c0.2,1.1,0.7,2.1,0.8,3.3c-1.3-0.8-2.5-4.6-3.3-10.4c-0.3-1-0.5-2.1-0.8-3.1c-0.1-0.3-0.6-0.5-0.9-0.8c-0.2,0.3-0.5,0.6-0.6,0.9
		c-0.1,0.4-0.1,0.9-0.1,1.4c0,1,0.4,2.1-1.1,2.4c-0.3,0.1-0.4,0.6-0.6,1c1.1,1.6,0.8,3.5,1.3,5.3c0.1,0.5-0.1,0.6-0.6,0.5
		c-1.9-0.4-3.7,0-5.5,0.6c-0.3,0.1-0.6,0.3-0.9,0.6c-0.4,0.5-0.9,1-0.7,1.7c0.2,0.7,0.9,0.7,1.5,0.8c1.4,0.2,2.8,0.3,4.1,0.8
		c0.6,0.2,1.2,0.4,1.3,1.1c0.1,0.7-0.6,0.9-1.1,1.1c-1.5,0.7-2.9,1.6-4.3,2.3c-1.4,0.7-2.8,1.1-4.3,1.3c-1.9,0.2-2.1,0.6-1.5,2.4
		c0.2,0.6,0.5,1.2,0.4,1.8c-0.6-0.1-0.7-0.5-0.8-0.9c-1.3-3.3-2.3-6.7-2.8-10.3C4.8,182.5,4.8,182,4.3,181.7z"/>
	<path d="M49.3,111.9c2.7-0.7,5.4-1.4,8.1-2.1c0.3-0.1,0.7,0.3,0.9,0.6c0.2,0.4,0.2,0.8,0.3,1.3c-0.6,0.1-1.2,0.1-1.7,0.4
		c-0.3,0.1-0.7,0.6-0.7,0.9c0,0.3,0.5,0.8,0.8,0.8c3.3,0.1,4.8,2.5,5.8,5c1.2,3,1.8,6.2,2.7,9.3c0.2,0.8-0.4,0.7-0.8,0.9
		c-2.4,0.9-4.9,1.8-7.3,2.6c-0.2,0.1-0.4,0.2-0.6,0.3c-0.6,0.4-1.4,0.9-0.9,1.7c0.2,0.3,1.3,0.3,1.8,0.1c3.7-1.8,7.6-3.2,11.7-4.1
		c0.3-0.1,0.6-0.1,0.8-0.1c0.6-0.1,1.2-0.1,1.7-0.3c0.4-0.1,0.6-0.5,1-0.7c-0.3-0.2-0.7-0.6-1-0.6c-1.1,0-2.2,0.1-3.3,0.3
		c-0.8,0.2-1-0.1-1.1-0.8c-0.8-2.9-1.4-5.8-2.5-8.5c-0.7-1.8-2.1-3.5-3.3-5c-0.6-0.8-1.2-1.4-1.3-2.4c-0.1-0.8-0.3-1.7-0.7-2.4
		c-0.2-0.5-0.8-0.8-1.2-1.2c-0.2-0.3-0.5-0.5-0.7-0.8c-1-1.6-0.7-2.9,0.6-4.3c1.6-1.8,1.8-3.9,1.2-6.2c-0.5-1.8-1-3.6-1.6-5.4
		c-0.2-0.5-0.8-0.9-1.2-1.3c-0.9,0-1,0.7-1,1.3c0,0.8,0.2,1.5,0.4,2.2c0.5,1.4,0.9,2.9,1.4,4.3c0.4,1.1,0.3,2.1-0.5,3
		c-0.3,0.3-0.5,0.7-0.8,1c-1.4,1.4-1.9,3-1.1,4.9c0.3,0.7,0,1-0.6,1.1c-1,0.2-1.9,0.5-2.9,0.8c-1.9,1-3.5,0.9-5-1
		c-1.1-1.4-2.8-2.3-4.4-3c-2.5-1.2-4-3.2-5.3-5.5c-0.6-1.1-1.3-2.2-1.7-3.4c-0.5-1.8,0-3.2,1.1-4.6c0.1-0.2,0.3-0.3,0.5-0.3
		c1.6-0.4,2.9-1.5,4.1-2.6c0.8-0.6,1.5-0.8,2.4-0.4c1.2,0.5,2.3,1.1,3.2,2.1c1.6,2.3,1.1,4.6-1.3,6.3c-0.1,0.1-0.2,0.1-0.3,0.2
		c-0.8,0.5-1.7,0.9-2.7,1c-1.2,0.1-1.1-1.3-1.8-1.8c-0.2-0.1-0.2-0.3-0.4-0.5c-1.3-0.8-1.9-0.8-3,0.1c-0.4,0.9-0.1,1.5,0.8,1.8
		c0.6,0.2,0.9,0.6,1.2,1.1c0.9,1.7,2.5,2.3,4.3,1.9c1.8-0.4,3.2-1.4,4.5-2.6c0.2-0.2,0.3-0.4,0.5-0.5c0,0,0.1,0,0.2,0
		c0.4,1.3,0.1,2.8,1.2,3.9c1,0.4,1.3-0.2,1.5-0.9c0.1-0.9,0.1-1.8,0.1-2.7c0-1.2,0.3-2.2,1-3.1c0.9-1.2,1.1-2.5,0.7-4
		c-0.3-1.2-0.2-2.5-0.2-3.7c0-0.3,0.1-0.6,0.2-0.8c0.2-0.3,0.4-0.6,0.8-0.6c0.4,0,0.6,0.4,0.7,0.7c0.3,0.7,0.2,1.4,0.5,2.1
		c0.3,0.7,0.7,1.2,1.5,0.8c0.6-1.8,0.2-3.5-0.8-5c-0.9-1.3-3.1-1.1-4.1,0.3c-0.3,0.5-0.6,1-1,1.8c-0.1-1.2-0.2-2.1-0.2-2.9
		c0-2.1-0.6-4.1-1.7-5.9c-0.4-0.8-1-1.3-1.9-0.7c-0.4,0.4-0.4,1-0.1,1.4c1.5,2.2,1.7,4.7,1.8,7.2c0.3,2.5,1.6,4.7,1.9,7.3
		c-0.4-2.1-1.5-3.7-3-5.2c-1.3-0.6-1.8-1.7-2-3.1c-0.2-1.7-0.6-3.3-1.1-4.9c-0.3-0.8-0.2-1.4,0.7-1.7c0.6-0.2,1.1-0.5,0.9-1.3
		c-0.8-0.9-2.2-1.1-3.4-0.4c-0.9,0.5-1.1,1.5-0.9,2.5c0.4,2,0.8,4,1.2,6c0.1,0.7,0.2,1.2-0.8,1.2c-0.4,0-1,0.2-1.3,0.5
		c-2.1,1.5-4.3,3-6.3,4.7c-2,1.7-2.5,4-1.5,6.3c0.9,2.2,2.1,4.4,3.4,6.4c0.6,0.9,1.7,1.4,2.6,2.1c2.3,1.6,4.6,3.2,6.9,4.8
		c0.8,0.6,0.9,1.2,0,1.9c-1,0.9-1.7,2-1.2,3.5c0.1,0.2-0.1,0.6-0.2,0.7c-1.8,1.6-2,3.7-1.5,5.8c0.3,1.3-0.1,1.7-1.2,2.3
		c-2,1.1-3.8,2.6-5.7,4c-0.3,0.2-0.5,0.5-0.7,0.8c-0.1,0.3-0.1,0.8,0.1,1c0.3,0.2,0.8,0.2,1.1,0c0.4-0.2,0.8-0.6,1.2-1
		c2-1.4,4.1-2.9,6.1-4.3c0.3-0.2,0.7-0.5,1-0.7c0.3-0.4,0.4-0.9,0.3-1.4c-0.6-2.4-0.1-4.3,2.1-5.6c1.2-0.5,2.4-0.9,3.6-1.4
		c0.7-0.3,1.7-0.4,1.5-1.5c-0.2-1-1.2-0.9-2-0.7c-0.1,0-0.2,0-0.2,0c-1.3,0-2.5,0.6-3.7,1.1C47.2,113,48.6,112.9,49.3,111.9z"/>
	<path class="st2" d="M140.4,212.9c5.1-0.9,10.1-2.3,14.9-4.4c1-0.4,1.3-0.8,0.8-1.9c-1.4-2.9-2.8-5.7-3.9-8.7
		c-0.6-1.7-0.9-3.5-1.1-5.3c-0.2-2.8-0.3-5.6-0.3-8.4c0-0.5,0.4-1,0.6-1.5c0.1-1.2,0.2-2.4,0.3-3.6c-1.4-0.8-1.5-1.1-0.8-2.7
		c1.5-3.5,2.6-7,3.1-10.8c0.2-1,0.4-2,0.7-3c0.4-1.3,1.1-1.8,2.4-1.4c1.5,0.4,3.1,0.9,4.6,1.4c8.2,2.8,16.5,4.9,25.1,5.9
		c0.9,0.1,1.4,0.5,1.6,1.3c0,0.1,0.1,0.1,0.1,0.2c0.1-1.7,0.1-3.5,0.2-5.2c0-0.1-0.3-0.4-0.4-0.4c-4.6,0.5-8.9-1.1-13.2-2.1
		c-4.5-1.1-9-2.3-13.4-3.6c-2-0.6-3.8-1.7-5.6-2.7c-1.1-0.6-2.2-0.3-2.8,1.2c-0.9,2.4-1.6,4.8-2.7,7c-2,4.4-4.2,8.7-6.3,13
		c-0.1,0.2-0.3,0.4-0.3,0.6c0,0.5,0.1,1,0.1,1.5c0.4-0.1,0.9-0.1,1.3-0.3c0.7-0.3,1.4-0.7,2-1.1c-0.3,2.1-0.7,4.1-0.7,6.2
		c-0.1,2.4,0.1,4.8,0.4,7.2c0.3,2.5,1.2,4.9,1.2,7.4c0.1,4.9-2,8.9-5.9,12C141.7,211.6,141.1,212.3,140.4,212.9z"/>
	<path d="M211.6,180.6c0,0.5-0.1,1-0.1,1.6c0,0.3,0,0.5,0,0.8c-0.2-0.1-0.5-0.1-0.7-0.2c-0.6-0.1-1.3-0.3-1.9-0.1
		c-3.1,1.2-4.8,4.3-4.5,7.6c0,0.4,0.1,0.8,0.1,1.2c-0.1,1,0.2,1.9,0.7,2.8c0.2,0.4,0.4,0.8,0,1.1c-0.4,0.3-0.8,0.1-1.1,0
		c-1.1-0.5-2.2-1.1-3.3-1.7c-0.8-0.4-0.8-1.2-1-1.9c-0.1-0.7,0.1-1.4-0.3-2c0.2-3.3,1.4-6,4.3-7.8c0.3-0.2,0.4-0.9,0.5-1.3
		c-0.4,0-0.9-0.1-1.3,0.1c-0.6,0.2-1.2,0.6-1.8,1c-0.6,0.1-1,0.6-1.4,1.1c-2,2.6-2.9,5.5-2.8,8.8c0.1,1.9-0.8,2.7-2.7,2.3
		c-2.6-0.5-5.2-1.1-7.7-1.7c-3-0.7-6-1.5-9-2.4c-0.9-0.2-1.1-0.6-0.8-1.5c0.4-1.3,0.7-2.6,1-4c0.1-0.7,0.3-1.4-0.2-2.1
		c-0.9-0.7-0.8,0.2-1,0.6c-0.7,2.1-1.4,4.2-2.1,6.3c-0.2,0.4-0.4,0.9-0.6,1.3c-1.1,1.8-2.3,3.6-3.5,5.3c-0.4,0.6-0.9,1.2-0.3,1.8
		c0.7,0.7,1.4,0.2,1.8-0.4c1-1.3,2-2.7,2.8-4.2c0.5-1,1-1.1,2-0.8c5.7,1.4,11.3,2.8,17,4.1c1.5,0.4,2.9,0.2,4.2-0.8
		c0.3-0.2,0.8-0.2,1.2,0c1.7,0.7,3.4,1.5,5.2,2.2c1,0.4,1.9,0.3,2.5-0.7c0.4-0.6,0.7-0.4,1.1-0.1c2.3,1.7,4.8,3.4,7,5.2
		c2.8,2.2,5.8,2.9,9.2,1.6c1.6-0.6,3.1-1.2,4.7-1.8c0.7-0.3,1.6-0.4,2.2-0.8c2.9-1.7,4.3-4.3,4-7.6c-0.2-2.3-0.2-4.6-1.7-6.7
		c-1.1-1.5-2.3-1.9-3.9-1.1c-0.6,0.3-1.3,0.7-1.9,1c-0.9,0.5-1.8,0.6-2.8-0.2c0.9-0.4,1.8-0.8,2.6-1.2c1.4-0.6,2.6-1.4,3.4-2.8
		c0.6-1.1,0.8-2.1,0.1-3.3c-0.8-1.2-2-1.6-3.3-1.5c-2.4,0.1-4.8,0.2-7.3,0.4c-0.9,0.1-1.7,0.2-2.5,0.6c-1.1,0.5-2.1,1.2-3.1,1.9
		c-0.6,0.4-1.1,0.9-1.7-0.1C212.6,180.6,212,180.7,211.6,180.6z"/>
	<path class="st1" d="M241.1,107.1c-0.3-3.2-0.9-6.4-3-9c-0.8-1-1.9-1.7-2.8-2.6c-0.3,0-0.6,0-0.9,0.1c-1.9,1.3-3.1,3-4,5.2
		c-0.6,1.6-1.7,3-2.6,4.4c-0.9,1.2-1.9,2.4-2.9,3.5c-0.9,1-1.9,0.8-2.1-0.5c-0.2-1.2-0.1-2.5-0.2-3.7c0-0.6,0-1.3,0.1-1.9
		c0.1-1-0.2-1.2-1.1-0.9c-1.3,0.4-1.8,1.4-2.2,2.5c-0.9,2.6-1.6,5.3-3.3,7.6c-0.6,0.8-0.7,1.8-0.2,2.8c0.3,0.6,0.4,1.2,0.7,1.8
		c0.8,1.4,0.6,2.8-0.3,4.1c-0.1,0.4,0.3,0.6,0.5,0.7c1.3,0.6,2.5,1.4,3.6,2.3c0.4,0.3,0.9,0.5,1.5,0.2c2-0.9,4.1-1.1,6.2-1.6
		c2.2-0.5,3.9-1.7,5.3-3.4c2.5-3,4.7-6.3,6.9-9.6C240.6,108.5,240.9,107.8,241.1,107.1z"/>
	<path class="st1" d="M3.7,119.5c0.6,0.3,0.8,0.8,0.4,1.4c-2.5,3.4-1.9,7.2-1,10.9c0.2,0.5,0.5,1,0.9,1.3c2.5,1.7,4.8,3.5,7.2,5.4
		c2,1.6,4.1,2.1,6.7,1.8c2.8-0.4,5.6-0.5,8.3-0.5c1.3,0,2.3-0.3,3.2-1.3c0.5-0.6,1-1,1.5-1.5c0.3-0.4,0.7-0.7,0.3-1.3
		c-1-0.8-1.5-1.9-1.4-3.2c0-0.2,0-0.3,0-0.5c0.3-2.4-0.8-3.9-2.8-5.2c-1.6-1.1-2.8-2.8-4.1-4.2c-1-1.1-1.9-2.2-3.6-1.9
		c-0.7,0.1-0.9,0.4-0.5,1c0.3,0.6,0.6,1.1,0.8,1.7c0.4,1,1,2,1.2,3.1c0.1,0.6,0,1.4-0.3,1.9c-0.2,0.2-1.2,0.1-1.7-0.2
		c-2.7-1.5-5.7-2.7-8-5c-0.9-1-2.2-1.7-3.3-2.5c-0.4-0.3-0.9-0.4-1.4-0.5c-0.7-0.1-1.1-0.5-1.1-1.3C4.5,119.1,4.1,119.3,3.7,119.5z"
		/>
	<path class="st0" d="M69.5,180.9c-3.9-2.5-7.9-4.9-11.8-7.4c-2.4-1.5-4.6-3.3-6.9-5c-1.3,0.5-2.6,0.9-3.8,1.4
		c-0.3,0.7,0.1,1.3,0.3,2c0.1,0.5,0.3,0.9,0.4,1.4c0,0.2,0,0.3-0.2,0.4c-0.2,0.1-0.3,0-0.4-0.2c-0.6-1.6-1.9-3.1-1.1-5.1
		c-0.8-1.6-2.4-1.8-3.9-2.2c-0.4,0.5,0,1,0.1,1.5c1.2,3.1,2.5,6.2,4.2,9.1c0.2,0.3,0.4,0.6,0.3,1.1c-0.6,0-0.8-0.6-1.1-1
		c-0.8-1.3-1.5-2.6-2.1-4c-0.5-1.1-1-1.2-1.8-0.3c-1.1,1.3-2.3,2.7-2.2,4.6c0,0.4,0,0.9-0.5,1c-0.5,0-0.6-0.4-0.7-0.8
		c-0.2-0.8-0.6-1.3-1.5-1c-1.1,0.4-1.4,0.8-1.1,1.9c0.4,1.8,1.1,3.5,1.8,5.2c0.2,0.5,0.4,1,0.9,1.2c1,0.1,1.3-0.7,1.7-1.4
		c0.7-1,0.7-1,2.1,0c1.3,0,2.1,0.7,2.8,1.7c1.3,1.8,1.7,1.9,3.7,1.1c1.1-0.4,2.2-0.8,3.3-1c2.8-0.5,5.5-1.4,8.2-2.3
		c1.4-0.5,2.8-0.8,4.2,0.1c0.7-0.1,1.4,0,2.1,0C67.4,182.1,68.5,181.5,69.5,180.9z"/>
	<path d="M41.9,182.9c-0.9-1.3-1.6-1.3-2.2,0c-0.3,0.9,0.1,1.7,0.4,2.5c0.3,0.7,0.8,1.4,1.3,2.3c-1.7-0.7-1.9-2.5-3.2-3.4
		c-0.8-2.2-1.7-4.4-2.5-6.7c-0.4-1.1,0.8-1,1.3-1.3c0.7-0.4,0.6,0.3,0.7,0.7c0.1,0.3,0.1,0.6,0.3,0.8c0.3,0.3,0.8,0.6,1.1,0.6
		c0.2,0,0.6-0.7,0.6-1c-0.3-2.2,1-3.6,2.3-5c0.5-0.5,0.7-0.5,1,0.2c0.7,1.5,1.5,3.1,2.4,4.5c0.3,0.5,1.2,1.1,1.4,1
		c0.8-0.6,0-1.1-0.3-1.7c-1.5-3.5-3-6.9-4.6-10.4c-0.4-0.3-0.9-0.5-1.3-0.8c-0.1,0.5-0.4,1.3-0.2,1.6c1.3,2,0.9,3.5-0.9,5.2
		c-1.2,1.2-2.2,2.2-3.9,2.7c-1.1,0.3-2.2,0.8-2.4,2.3c-0.1,0.8-2.9,1.4-3.7,1c-1.3-0.6-2.6-1.1-3.9-1.8c-0.3-0.2-0.6-0.5-0.7-0.9
		c-0.2-0.8-0.3-1.7-0.5-2.6c-0.2-1-0.7-1.4-1.7-1c0,1-0.2,2,0.1,2.9c0.7,2.4,1.5,4.8,2.4,7.1c0.1,0.4,0.7,0.6,1.1,0.9
		c0-0.4,0.2-0.9,0.1-1.3c-0.2-1.1-0.6-2.2-1-3.7c1.1,0.7,2,1.1,2.7,1.7c1.6,1.3,3.1,1.1,4.8,0.2c0.2-0.1,0.6-0.9,0.9,0
		c0.2,2,1.2,3.7,2,5.5c0.3,0.7,0.4,1.2-0.2,1.9c-1.5,1.7-2.6,3.6-3.2,5.7c-1,3.7-3.5,5.6-6.8,6.7c-2.4,0.8-4.8,1.7-7.3,2.3
		c-1.1,0.3-2.2,0.3-3.3,0c-2.4-0.7-4.7-1.7-6.9-3c-0.6-0.4-1.1-0.7-1.8-1c-0.6-1.1-1.2-2.3-1.9-3.4c-0.3-0.5-0.8-0.9-1.2-1.3
		c-0.8,0.2-1,0.7-0.9,1.5c0.4,2.6,1.6,4.7,3.8,6c2.6,1.5,5.3,2.7,8.1,3.8c1.7,0.7,3.6,0.3,5.3-0.3c3-1.2,6-2.5,9-3.9
		c2.5-1.2,3.9-3.5,5.2-5.7c1.1-1.7,2-3.5,3.1-5.3c0.5-0.8,1-1.2,1.9-0.3c1,0.9,2.2,1.5,3.6,0.7c0.2-0.1,0.7,0,0.9,0.2
		c1.5,1.2,3.2,1.5,5,0.8c4.8-1.8,9.7-3.6,14.5-5.3c0.8-0.3,1.6-0.6,2.4-0.9c0.9-0.3,1.2-0.8,1-1.7c-0.6-0.1-1.3-0.2-1.9-0.3
		c-2.7,0.4-5.2,1.5-7.6,2.7c-2.7,1.4-5.6,2.6-8.6,3.2c-2.2,0.5-3,0-4.2-1.8C43.3,185.4,42.9,184,41.9,182.9z"/>
	<path d="M180.7,134c1.3,1.6,2.5,3.2,3.9,4.7c0.7,0.9,1.1,0.8,1.4-0.1c0.2-0.9-0.5-1.4-0.9-2c-0.2-0.3-0.5-0.7-0.7-0.9
		c-1.2-1.1-1.7-2.3-0.8-3.8c3.1-4.4,5.3-9.3,7.5-14.1c0.6-1.2,1.3-2.1,2.7-2.6c0.7-0.2,1.2-1.4,1.6-2.2c0.3-0.5,0.3-1.1,0.3-1.6
		c-0.1-1.3,0.5-1.6,1.7-1.7c3-0.2,5.3,1.1,7.6,2.7c0.7,0.5,1.3,0.9,2.2,0.3c0.3-1.3-0.6-2-1.5-2.5c-1.4-0.8-2.9-1.4-4.4-1.9
		c-0.6-0.2-0.7-0.4-0.4-0.9c1.2-1.8,1.1-3.6-0.4-5.3c-1.7-1.8-1.6-3.6-0.8-5.8c0.6-1.8,0.6-3.9,0.8-5.9c0.2-1.4,0.3-2.8,1.7-3.6
		c0.7-0.4,1-0.4,1.1,0.5c0.2,1.3,0.5,2.7,0.8,4c0.1,0.4,0.2,0.9,0.4,1.2c0.4,0.5,0.8,1.1,1.3,1.2c0.3,0.1,0.9-0.6,1.2-1.1
		c1-1.9,1.9-3.8,2.7-5.7c0.4-0.9,0.6-1.8,0.7-2.8c0.1-2.2,0.9-4.1,2.2-5.8c0.2-0.2,0.2-0.5,0.4-0.7c-0.6-1-1.4-1.2-1.9-0.2
		c-0.9,1.6-1.6,3.3-2.2,5c-0.4,1.1-0.3,2.4-0.7,3.5c-0.6,1.7-1.4,3.4-2.2,5.4c-0.4-1.5-0.6-2.8-1-4c-0.7-2.5-2.6-3-4.5-1.3
		c-1.3,1.1-1.7,2.7-1.7,4.3c0,1.4,0.1,2.9,0.1,4.3c0,0.3,0,0.7-0.2,1c-2,2.8-1.5,5.5,0.4,8.1c0.7,0.9,0.3,3.4-0.6,4.1
		c-0.2,0.1-0.5,0.1-0.7,0.1c-0.6,0-1.1,0-1.7,0c-1.4,0.1-1.9,0.5-2.2,1.9c-0.1,0.4-0.2,0.8-0.2,1.2c-0.1,1.3-0.5,2.1-1.9,2.5
		c-1,0.3-1.8,1.4-2.4,2.3c-0.6,1-0.9,2.2-1.3,3.3c-1.3,4-3.4,7.6-5.9,10.9c-0.7,0.9-1.4,1.7-1.9,2.7
		C180.3,133,180.6,133.6,180.7,134z"/>
	<path class="st1" d="M56.5,88.2c-0.8,0.1-1.1-0.2-1.2-0.9c-0.1-0.7-0.2-1.4-0.5-2.1c-0.2-0.4-0.6-1.1-0.9-1
		c-0.5,0.1-1.1,0.5-1.2,0.9c-0.2,1.4-0.5,2.9-0.1,4.2c0.4,1.8,0.3,3.2-0.8,4.7c-1.2,1.5-0.8,3.3-0.8,5.1c0,0.4,0,0.9-0.2,1.3
		c-0.1,0.1-0.6,0.1-0.9,0.1c-1.9-0.4-2.9,1-4.2,1.9c-0.6,0.4-0.1,0.9,0.3,1.2c0.8,0.7,1.6,1.2,2.3,1.9c1.1,1,2.2,1.9,3,3.2
		c0.1,0.2,0.3,0.3,0.5,0.2c1.3-0.3,2.5-0.6,3.8-1c0.2,0,0.4-0.5,0.3-0.7c-1-2-0.7-3.8,1-5.3c0.3-0.3,0.5-0.7,0.8-1
		c0.9-0.9,1-2,0.6-3.2c-0.7-1.9-1.3-3.8-1.9-5.7c-0.3-0.8-0.4-1.7,0.6-2.1C56.9,89.3,56.7,88.7,56.5,88.2z"/>
	<path d="M188.4,170c0.2-1,0.3-1.5-1.2-1.6c-2.7-0.2-5.4-0.5-8-1.2c-6.7-1.7-13.3-3.6-19.9-5.5c-0.7-0.2-1.4-0.5-2.2-0.7
		c-1.4-0.4-2.3,0.1-2.7,1.5c-0.3,1-0.5,1.9-0.6,2.9c-0.6,4-1.8,7.8-3.4,11.6c-0.7,1.5-0.2,2.3,1.4,2.2c0.7-1.4,1.5-2.7,1.9-4.2
		c1-3.7,1.9-7.5,2.7-11.3c0.2-0.8,0.6-0.5,0.9-0.4c2.5,0.8,5.1,1.7,7.6,2.4c5.9,1.7,11.8,3.4,18,3.9
		C184.7,170,186.5,169.9,188.4,170z"/>
	<path class="st3" d="M4.3,181.7c0.9,3.5,1.7,6.9,2.7,10.4c0.2,0.8,0.6,1.5,1,2.2c0.1,0.2,0.6,0.3,0.9,0.4c0.1-0.3,0.3-0.6,0.2-0.8
		c-0.2-0.8-0.5-1.6-0.8-2.4c-0.3-0.7-0.1-1.1,0.6-1.1c3.7-0.2,6.7-2.3,9.8-3.8c0.4-0.2,0.8-0.3,1-0.6c0.7-0.8,0.2-1.4-0.5-1.7
		c-1.2-0.4-2.4-0.7-3.7-1c-0.7-0.2-1.3-0.2-2-0.3c-1-0.1-0.9-0.5-0.6-1.3c0.7-1.3,1.9-1.5,3.1-1.7c0.8-0.1,1.6-0.2,2.4-0.3
		c0.4,0,0.8,0.2,1.1,0.3c0.2,0.1,0.6,0.3,0.7,0.2c0.2-0.1,0.3-0.5,0.3-0.7c-0.3-1.7-0.5-3.4-0.9-5.1c-0.1-0.3-0.6-0.4-0.9-0.7
		c-1.1,0.9-0.5,2.1-0.3,3c0.3,1.3-0.2,1.4-1.2,1.4c-1.2,0.1-2.5,0.1-3.5,0.5c-1,0.4-1.9,1.3-2.5,2.2c-0.9,1.5-0.2,3,1.5,3.4
		c0.7,0.2,1.4,0.3,2.1,0.5c0.7,0.1,1.3,0.2,2,0.5c-2.3,1.3-4.5,2.7-7.2,3.1c-0.2,0-0.3,0-0.5,0c-2,0.3-2.1,0.3-2.5-1.6
		c-0.4-2.2-0.7-4.4-1.1-6.6c0-0.2,0-0.5-0.1-0.7c-0.1-0.3-0.4-0.4-0.6-0.7c-0.2,0.2-0.6,0.5-0.6,0.7C4.2,180.3,4.3,181,4.3,181.7z"
		/>
	<path class="st3" d="M68.4,133.4c-2.5,0.7-5,1.3-7.4,2.1c-0.5,0.1-0.7,0.9-1,1.4c0.6,0.1,1.3,0.5,1.8,0.4c1.5-0.4,3.1-0.9,4.5-1.5
		c0.7-0.3,1-0.2,1.2,0.6c0.6,2.4,1.2,4.7,1.9,7.1c0.4,1.5,1.2,1.8,2.6,1.2c4.1-1.9,8.1-3.8,12.1-5.7c0.2-0.5,0.4-1,0.5-1.5
		c-0.6,0-1.2-0.2-1.7,0c-3.6,1.5-7.3,3.1-10.9,4.8c-0.9,0.4-1.2,0.3-1.4-0.7c-0.5-2.5-1.1-5-1.7-7.4
		C68.9,133.9,68.6,133.7,68.4,133.4z"/>
	<path class="st2" d="M172.6,183c-0.5-0.3-0.8-0.7-0.6-1.4c0.1-0.4-0.3-0.8-0.4-1.2c-0.3,0.3-0.6,0.6-0.8,0.9
		c-0.5,1.2-0.9,2.4-1.3,3.6c-0.3,0.9-0.8,1-1.5,0.3c-2.3-2.3-4.2-5-5.8-7.9c-0.6-1-1.1-2.1-1.7-3.1c-0.1,0-0.1,0-0.2,0
		c-1.4,0.4-1.8,1.1-1.9,2.5c1.5,2,2.4,4.3,3.7,6.4c1.1,1.8,2.4,3.3,4.1,4.5c0.5,0.3,0.8,0.8,1,1.3c0.5,0.2,1.1,0.4,1.6,0.6
		c0.6,0.1,0.8-0.4,1-0.8c0.7-1.3,1.2-2.6,1.6-4C171.5,184,171.9,183.4,172.6,183z"/>
	<path class="st3" d="M214.3,77.8c2.6,0.7,4.5,2.2,5.7,4.6c0.1,0.3,0,0.4-0.3,0.3c-0.5,0.1-1.1,0.2-1.6,0.3c0.4,0.5,0.6,1.3,1.1,1.6
		c3,1.8,5.7,4,7.8,6.7c0.4,0.6,0.8,1.2,1.2,1.7c0.3,0.1,0.6,0.1,1,0.2c0-0.3,0.1-0.7-0.1-1c-1-2.2-2.5-4-4.2-5.8
		c-0.5-0.5-0.8-1.2-1.1-1.9c-1.7-3.7-3.5-7.1-7.9-8.2c-0.9-0.2-1.8-0.3-2,1C213.9,77.6,214.1,77.7,214.3,77.8z"/>
	<path class="st4" d="M45.9,75.6c-0.4,0.4-0.8,0.9-1.3,1.1c-0.8,0.3-1,0.6-0.8,1.5c0.6,2.3,0.9,4.7,1.6,6.9c0.2,0.7,1.2,1.1,1.9,1.7
		c0.7-0.5,1.1-1.4,1.4-2.2c-0.1-2.5-0.1-5-1.6-7.2c-0.3-0.4-0.2-1-0.3-1.5C46.4,75.7,46.1,75.6,45.9,75.6z"/>
	<path class="st5" d="M145.4,24.9c0.1,0.2,0.1,0.4,0.2,0.5c0.2,0,0.4,0,0.5-0.2c0.4-0.4,0.8-0.9,1.2-1.4c2.6-3.9,5.3-7.7,7.9-11.6
		c0.4-0.6,0.7-1.3,0-1.8c-0.8-0.6-1.4,0.1-1.7,0.7c-2.5,4.1-5,8.3-7.5,12.4C145.7,23.9,145.6,24.4,145.4,24.9z"/>
	<path class="st5" d="M121.5,10.3c0,2.2,0,4.3,0,6.5c0,0.3,0.3,0.7,0.4,1c0.2-0.3,0.5-0.6,0.5-0.9c0.4-4.6,0.8-9.1,1.2-13.7
		c0.1-0.6,0.2-1.3,0.1-1.9c-0.1-0.5-0.6-0.8-0.9-1.2c-0.4,0.4-1,0.7-1.1,1.1c-0.2,1.2-0.2,2.5-0.3,3.7c-0.1,1.8-0.2,3.7-0.3,5.5
		C121.4,10.3,121.4,10.3,121.5,10.3z"/>
	<path class="st5" d="M64.2,30.6c0.3,0.4,0.5,0.8,0.9,1c4.4,2.7,8.7,5.3,13.1,7.9c0.3,0.2,0.9,0.1,1.3,0.2c-0.3-0.4-0.4-0.9-0.8-1.1
		c-4.1-2.9-8.2-5.7-12.4-8.5c-0.4-0.3-1-0.3-1.5-0.2C64.5,29.9,64.4,30.3,64.2,30.6z"/>
	<path class="st5" d="M65.3,63.8c1.9,0,3.7,0,5.6,0c0.3,0,0.6-0.3,0.9-0.5c-0.3-0.2-0.6-0.5-0.9-0.5c-5.2-0.4-10.4-0.9-15.6-1.2
		c-0.4,0-1.2,0.5-1.2,0.9c-0.1,0.9,0.7,1.1,1.4,1.1c3.3,0.2,6.5,0.3,9.8,0.5C65.3,64,65.3,63.9,65.3,63.8z"/>
	<path class="st6" d="M89,7.9c0.2,0.5,0.3,0.8,0.4,1.1c2.3,4.3,4.7,8.5,7,12.8c0.3,0.5,0.9,0.8,1.3,1.2c-0.1-0.6,0-1.2-0.2-1.8
		c-2.1-4.5-4.3-9-6.5-13.5c-0.2-0.4-0.8-0.6-1.2-0.7C89.6,7.1,89.3,7.7,89,7.9z"/>
	<path class="st3" d="M167.2,188.9c-0.1-0.3,0-0.9-0.2-1c-3.5-2.1-5.1-5.6-7-9c-0.4-0.8-1-1.5-1.5-2.2c-0.8-0.6-0.9,0.1-1.1,0.6
		c0,0.3,0,0.6,0.2,0.8c1.7,2.8,3.3,5.7,5.1,8.5c0.7,1,1.8,1.7,2.9,2.3C165.8,189.1,166.6,188.9,167.2,188.9z"/>
	<path class="st7" d="M183.9,173.6c0.7,0.2,1.5,0.4,2.2,0.6c0.3,0.4,1,0.3,1.2,0.8c-1,2.4-2.3,4.5-4.1,6.4c-0.3,0.3-0.3,0.9-0.5,1.4
		c0.5-0.1,1.1-0.1,1.5-0.4c2.5-2.5,4.2-5.5,5.2-8.9c0.3-1.1,0-1.4-1.1-1.2c-1-0.1-2-0.2-3.1-0.2c-0.7,0-1.5,0.1-2.2,0.1
		c-0.4,0.4-0.3,0.8,0,1.2C183.2,173.6,183.6,173.5,183.9,173.6z"/>
	<path class="st0" d="M218.2,100c-0.3,0.1-0.7,0.2-0.9,0.4c-0.5,0.6-1,1.3-1.4,2c-0.9,1.3-2.3,1.4-3.5,0.5c-1.4-1-2.9-2-4.3-2.9
		c-0.2-0.1-0.4-0.1-0.6-0.2c0,0.2,0,0.5,0.1,0.6c0.7,0.9,1.6,1.8,2.2,2.8c0.9,1.3,1.7,2.7,2.6,4.1C216,106.2,216.6,102.7,218.2,100z
		"/>
	<path class="st8" d="M172.6,183c-0.8-0.3-1,0.2-1.2,0.8c-0.6,1.7-1.2,3.3-1.9,5c-0.1,0.3-0.4,0.5-0.6,0.7c0,0.1,0.1,0.2,0.1,0.3
		c0,0.5-0.1,0.9-0.1,1.4c0.6-0.2,1.2-0.3,1.7-0.6c0.3-0.1,0.4-0.6,0.6-0.9c0.5-1.8,1.1-3.6,1.6-5.3C172.8,184,172.6,183.5,172.6,183
		z"/>
	<path class="st9" d="M181.2,139.1c0-0.5,0.2-1.2,0-1.6c-0.4-0.9-1-1.7-1.5-2.6c-0.5-0.6-1.1-1.1-1.6-1.7c-0.9-0.2-1.1,0.3-0.9,1
		c0.2,0.7,0.6,1.2,0.9,1.8c0.5,0.8,1,1.6,1.5,2.4C179.9,139.1,180.4,139.4,181.2,139.1z"/>
	<path class="st10" d="M46,168.3c-0.2,0.4-0.7,1-0.6,1.3c0.4,1.3,0.9,2.6,1.4,3.9c0.1,0.3,0.6,0.4,0.9,0.6c0.1-0.4,0.4-0.8,0.3-1.1
		c-0.3-1.1-0.6-2.1-1-3.2C46.7,169.3,46.3,168.8,46,168.3z"/>
	<path class="st2" d="M181.2,139.1c-0.5-0.3-1-0.5-1.4-0.9c-0.6-0.7-1-1.5-1.4-2.3c-0.6,0-1,0.2-1.3,0.7c0,0.1,0,0.1,0,0.2
		c0.5,0.8,0.9,1.6,1.5,2.4c0.9,1.3,1.3,1.3,2.3,0.1C181,139.3,181.1,139.2,181.2,139.1z"/>
	<path class="st11" d="M223.3,90.3c-0.1-0.4,0-1-0.2-1.2c-0.8-0.8-1.7-1.5-2.7-2.2c-0.3-0.2-0.8,0-1.2,0c0.1,0.4,0.1,0.9,0.3,1.1
		c0.7,0.7,1.6,1.4,2.4,2C222.4,90.2,222.9,90.3,223.3,90.3z"/>
	<path class="st12" d="M157.3,177.2c0.4-0.2,0.8-0.4,1.1-0.6c0.1-1.2,0.8-1.9,1.7-2.5c-0.7-0.8-1.5-1.1-2.4-0.6
		c-0.9,0.6-1.2,1.5-0.7,2.5C157.1,176.4,157.2,176.8,157.3,177.2z"/>
	<path class="st13" d="M177.1,136.6c0.4-0.2,0.9-0.5,1.3-0.7c-0.3-0.5-0.6-1-0.9-1.5c-0.4-0.7-0.3-1.1,0.5-1.2
		c-0.4-0.1-0.8-0.3-1.2-0.4c-0.4-0.1-0.8-0.2-1.2-0.2c0,0.5-0.3,1.1-0.1,1.5C176,135,176.6,135.8,177.1,136.6z"/>
	<path class="st14" d="M183.1,173.3c-0.1-0.4-0.1-0.7-0.2-1.1c-0.4-0.2-0.8-0.4-1.2-0.5c-0.6-0.1-1.2,0.1-1.7,0.1
		c0.1,0.5,0.1,1.1,0.2,1.6c0,0.1,0.2,0.3,0.3,0.4C181.5,174.3,182.3,174,183.1,173.3z"/>
	<path class="st15" d="M183.1,173.3c-0.9,0.2-1.7,0.3-2.6,0.5c-1.7,0-3.5,0.1-5.2,0.1c1.5,0.1,3,0.1,4.5,0.2c0.4,0,0.9,0.1,1.2,0.3
		c1.6,1,2,0.9,2.9-0.8C183.6,173.5,183.4,173.4,183.1,173.3z"/>
	<path class="st16" d="M222.7,93.7c-0.5-0.2-1-0.5-1.5-0.7c0,0.7,0,1.5,0,2.3c0,0.2,0.5,0.2,0.8,0.4C223,95.2,222.7,94.4,222.7,93.7
		z"/>
	<path class="st17" d="M210.2,109.3c-0.5-0.3-1-0.6-1.7-1c0.4,1,0.7,1.7,1,2.5C209.7,110.2,210,109.8,210.2,109.3z"/>
	<path class="st18" d="M214.3,77.8c-0.1-0.2-0.2-0.3-0.3-0.5c-0.2,0.1-0.5,0.2-0.7,0.3C213.5,78.3,213.9,78.2,214.3,77.8z"/>
	<path class="st2" d="M32.8,148.9c-1.3,2.4-1.2,3.7,0.8,5.3c2.5,2,5.1,3.7,7.7,5.5c6.6,4.6,13.1,9.2,19.8,13.7
		c2.3,1.6,5,2.8,7.1,4.6c1.8,1.5,3.5,1.2,5.4,0.7c5.8-1.5,11.1-4.3,16.1-7.5c1.5-1,3-2,4.5-2.9c0.7-0.4,0.9-0.9,0.6-1.6
		c-0.2-0.7-0.3-1.5-0.5-2.2c-4.1,1-7.7,3.1-11.3,5.1c-3,1.6-6,3-9,4.5c-0.4,0.2-1,0.3-1.5,0.2c-4.2-0.7-8.1-2.1-11.7-4.4
		c-5.1-3.3-10.3-6.6-15.3-10.1c-3.5-2.4-6.7-5.2-10-7.8c-0.8-0.6-1.6-1.2-2.3-1.9C33,149.9,33,149.3,32.8,148.9z"/>
	<path class="st2" d="M192,163.6c0.6-0.5,1-0.2,1.3,0.4c0.2,0.5,0.3,1.1,0.5,1.8c0.7-0.5,1.4-0.9,2.1-1.4c5.3-4.1,9.9-8.9,14.2-14.1
		c2.6-3.2,5.1-6.4,7.6-9.7c0.6-0.7,0.7-1.8,1-2.7c-1.6,1.4-3.3,2.8-4.8,4.3c-5.2,5.1-10.3,10.3-15.5,15.5c-1.8,1.8-3.8,3.4-5.7,5.1
		C192.3,162.9,192.2,163.3,192,163.6z"/>
	<path class="st2" d="M177.4,182.5c-0.4,2.1-0.8,4.3-1.2,6.4c-0.2,0.7-0.2,1,0.6,1.2c5.8,1.4,11.6,2.8,17.4,4.3
		c1.2,0.3,2.1-0.2,2.9-0.9c0.2-0.2,0.3-0.6,0.3-0.8c-0.5-4.2,0.8-7.9,3.7-10.9c-0.9-0.5-1.7-0.4-2.4,0.3c-2.2,1.8-3.7,4.1-3.9,7
		c-0.1,2.2-1,2.7-3.1,2c-2.7-1.1-5.4-2.2-8.1-3.2c-1.2-0.4-2.5-0.8-3.8-1c-0.7-0.1-1-0.3-0.8-1.1c0.1-0.7,0.2-1.3,0.2-2
		C179.3,182,179,181.8,177.4,182.5z"/>
	<path class="st2" d="M108.8,139.3c-1.1,0.9-1.7,2-0.9,3.2c2.2,3.2,4.7,6,8.6,7.2c3.3,1,6.6,1.3,10,0.4c0.7-0.2,1.4-0.5,2.1-0.8
		c0.7-0.4,1.1-1.1,0.7-1.8c-0.3-0.4-1-0.7-1.6-0.7c-2.1,0.1-4.2,0.3-6.3,0.5c-0.6,0.7-1.5,0.8-2.3,0.5c-4.1-1.4-7.6-3.8-9.7-7.7
		C109.3,139.7,109.3,139.2,108.8,139.3z"/>
	<path class="st2" d="M44.5,127c0.9-0.1,1.6,0.2,1.9,1.2c1.7,7.2,3.5,14.3,5.2,21.5c0.1,0.5,0.1,1,0.2,1.5c0.2-0.6,0.2-1.3,1.1-1.5
		c0.2,0,0.4-0.8,0.3-1.1c-0.4-2.3-0.8-4.7-1.4-7c-1-4.2-2.2-8.5-3.3-12.7c-0.1-0.3,0.1-0.8,0.4-0.9c0.5-0.4,1.1-0.5,1.6-0.9
		c0.2-0.1,0.3-0.4,0.5-0.7c-0.3-0.1-0.5-0.4-0.8-0.4c-0.8,0.1-1.6,0.3-2.5,0.4C46.7,126.7,45.6,126.9,44.5,127z"/>
	<path class="st2" d="M134.9,143.4c0.1,0.2,0.4,0.5,0.4,0.7c0.3,1.2,1.3,1.9,2.4,1.2c0.9-0.6,1.8-1.3,2.4-2.3
		c1.3-2.2,2.5-4.4,3.6-6.7c0.4-0.8,0.4-1.8,0.3-2.7c0-0.4-0.5-0.8-0.8-1.3c-0.4,0.3-1,0.5-1.3,0.9c-0.3,0.4-0.4,0.9-0.6,1.4
		c-0.1-0.1-0.2-0.1-0.2-0.2c-0.4,0-0.5,0.4-0.5,0.7c-0.9,3.2-2.8,5.7-5.4,7.7C135.1,142.9,134.8,143.1,134.9,143.4z"/>
	<path class="st19" d="M108.8,139.3c2,4.5,5.7,7.2,10.3,8.7c1.4,0.5,2.1,0.2,2.4-0.8c-1.7-0.7-3.5-1.2-5.1-2.1
		c-2.7-1.5-5-3.5-5.7-6.8c-0.2-0.7-0.4-1.7-1.4-1.4c-1.1,0.3-0.7,1.2-0.5,2C108.8,139,108.8,139.2,108.8,139.3z"/>
	<path class="st2" d="M108.6,127c-1.4,0.5-2.7,1-4.1,1.4c0.1,1.4,0.1,2.8,0.2,4.1c0.1,1,0.4,1.9,0.8,2.8c0.1,0.3,0.8,0.7,1.1,0.6
		c0.4,0,0.9-0.5,1-0.8c0.2-1,0.2-2.1,0.3-3.2C108.1,130.4,108.3,128.7,108.6,127z"/>
	<path class="st2" d="M47.4,116.7c-2.1,0.8-2.8,1.7-2.6,3.9c0.1,1,0.2,2,0.2,3.1c2.1,1.2,3.9-0.2,5.8-0.6c0.2,0,0.4-0.4,0.3-0.5
		c-0.1-0.2-0.3-0.4-0.5-0.5c-0.2-0.1-0.4,0-0.6-0.1c-2.2-0.1-2.3-0.1-2.4-2.4C47.6,118.6,47.5,117.7,47.4,116.7z"/>
	<path class="st2" d="M199.5,189.9c0,0,0,0.1,0,0.1c-0.2,3.2,0,3.6,2.9,5c0.6,0.3,1.3,0.7,1.9,0.9c0.3,0.1,0.9,0.1,1.1-0.1
		c0.2-0.3,0.3-0.8,0.2-1.2c-0.3-1-0.7-2-1.1-3c-0.3,0-0.6,0.1-0.8,0.1C202.3,191.1,200.9,190.5,199.5,189.9z"/>
	<path class="st19" d="M134.9,143.4c3-2.1,5.1-4.9,6-8.5c0-0.1,0.1-0.3,0.2-0.4c-0.1-0.4-0.1-0.8-0.2-1.2c-0.3,0.2-0.8,0.3-1,0.6
		c-0.8,1.2-1.4,2.4-2.2,3.5c-1.1,1.4-2.4,2.7-3.6,4.1c-0.3,0.4-0.4,0.9-0.7,1.4C134,143.1,134.5,143.2,134.9,143.4z"/>
	<path class="st20" d="M216.2,131.6c0.7,0.7,1.4,1.5,2.1,2.2c0.2,0.2,0.9,0.2,1,0.1c0.6-1.2,1.3-2.3,1.4-3.6
		c0.1-0.6-0.9-1.4-1.3-2.1C217.8,128.8,216.7,130,216.2,131.6z"/>
	<path class="st21" d="M31.1,143.9c-0.6,1.4-1.6,2.8-0.7,4.7c0.7-1.4,1.3-2.5,2-3.7C31.5,145.1,31.3,144.5,31.1,143.9z"/>
	<path class="st21" d="M49.3,111.9c-1.2,0.6-2.6,0.9-3.1,2.7c1.5-0.5,2.8-1,4.1-1.5C50,112.7,49.7,112.3,49.3,111.9z"/>
	<path class="st22" d="M187.2,175.1c0-0.2,0-0.6-0.1-0.6c-0.3-0.1-0.7-0.1-1-0.2c0,0.4,0.1,0.9,0.1,1.3
		C186.5,175.4,186.9,175.2,187.2,175.1z"/>
	<path class="st23" d="M117.9,333.2c-0.2-0.2-0.3-0.3-0.5-0.5c-0.3-0.5-0.7-0.9-1.1-1.3c-0.3-0.2-0.5-0.3-0.7,0.1
		c-0.1,0.3-0.1,0.5-0.2,0.8c-0.1,0.2-0.2,0.3-0.5,0.3c-0.2,0-0.4-0.2-0.4-0.4c-0.2-1-0.5-1.9-0.6-2.9c0-1,0.8-0.8,1.3-0.9
		c0.4-1.2,0.2-2.3-0.5-3.3c-1.1-0.2-1.5-0.9-1.5-1.9c0-0.5-0.1-1-0.2-1.4c-0.3-1,0-1.7,1-2c0.7-1.2,0-2.4-0.1-3.6c0-0.4,0-1-0.7-1
		c-0.8,0.5-1.2,0.1-1.4-0.7c-0.1-0.5-0.2-1.1-0.3-1.6c-0.1-0.4-0.4-0.9,0-1.3c0.4-0.4,0.8,0.2,1.2,0.2c0.2-0.1,0.3-0.2,0.3-0.4
		c0-1.7-0.3-3.3-0.8-4.9c-0.1-0.2-0.3-0.4-0.6-0.4c-0.4,0.1-0.5,0.9-1.1,0.7c-0.5-0.2-0.5-0.7-0.7-1.2c-0.2-0.7-0.2-1.4-0.1-2.1
		c0-0.2,0-0.5,0.3-0.6c0.3-0.1,0.4,0.2,0.5,0.4c0.3,0.4,0.1,1.1,0.9,1c0.3-0.2,0.3-0.5,0.4-0.9c0-2-0.5-3.9-0.7-5.8
		c-0.3-2.5-0.4-4.9,0-7.4c0-0.2,0-0.3-0.1-0.5c-1.9-1.7-3.8-3.5-5.7-5.2c-0.2-0.2-0.4-0.5-0.6-0.7c0.3,0,0.7-0.2,1-0.1
		c1,0.5,1.9,1,2.8,1.5c0.9,0.2,0.8-0.6,0.8-1c-0.1-1.1-0.4-2.2-0.9-3.3c-0.2-1.3-0.1-2.5,0.2-3.7c0.4-2,0.6-4,1.3-5.9
		c0.1-0.3,0.1-0.5,0.1-0.8c0-0.3-0.1-0.5-0.3-0.6c-0.7,0.2-0.8,0.9-1.2,1.3c-0.2,0.2-0.3,0.4-0.6,0.3c-0.2-0.1-0.2-0.3-0.2-0.5
		c0.3-1.3,0.7-2.4,1.4-3.5c0.3-0.6,0.9-0.2,1.4-0.2c1.1-0.9,1.1-2.1,1.2-3.4c-0.6-1.7,0.4-4.2,1.8-4.7c1.5-0.6,1.9-1.8,2.1-3.3
		c-1-1.8,0-3.2,0.8-4.6c0.7-0.5,1.5-0.9,1.4-2c-1.3-1.9-2.5-4-4.7-5.1c-0.6-0.3-1-0.9-1.5-1.4c-0.2-0.2-0.1-0.6-0.2-0.8
		c0.3,0,0.7-0.2,0.9,0c2.3,1.6,4.9,2.8,6.5,5.4c2.4,3.9,5.2,7.6,7.9,11.4c0.4,0.5,0.8,1,1.1,1.5c0.2,0.3,0.4,0.6,0.4,0.8
		c0.3,5.6,1.6,11,4.1,16c1.8,3.7,3.8,7.4,5.6,11.1c0.8,1.7,1.2,3.6,1.5,5.5c-2.8-3.9-4.7-8.2-6.9-12.4c-0.5,0-0.3,0.3-0.3,0.5
		c1.6,8.5,3.3,17,4.9,25.5c0.8,4.4,1.7,8.8,2.3,13.2c0.4,3.1,0.4,6.3,0.6,9.4c0.1,2-0.4,4.2,1,6c0.3,0.4,0.5,0.6,1.1,0.6
		c3.7-0.3,7.4-0.3,11,0.9c0.6,0.2,0.6-0.2,0.6-0.6c-0.3-7.7,0.9-15.3,1.4-22.9c0.2-3.3,0.4-6.7,0.6-10c0.3-4.2,0.2-8.5,0.2-12.7
		c-0.1-6.7-0.4-13.3-0.5-20c-0.1-3.9-0.3-7.8-0.5-11.7c-0.1-2.9-0.1-5.8-0.2-8.7c0-1.4-0.4-2.9-0.3-4.3c0.1-0.9-0.3-1.8-0.2-2.8
		c-0.2-1.6-0.2-3.2-0.6-4.8c-0.6-1.5-0.3-3.2-0.4-4.7c-0.1-1.4,0.1-2.9-0.7-4.2c-0.8-1.2-0.8-2.6-0.9-4c0-0.5,0.3-0.8,0.6-1.1
		c0.3-0.3,0.5-0.7,0.5-1.1c-0.1-1.3,0.2-2.6-0.7-3.8c-1.5-0.4-1.2-1.8-1.6-2.7c-0.2-0.5-0.5-1-1.1-0.7c-1.8,0.7-3.7,1.1-5.5,1.9
		c-0.5,0.8-0.4,1.7-0.1,2.5c0.8,2.7,1.9,5.2,4.5,6.6c0.1,0.1,0.2,0.2,0.3,0.5c-0.5,0.3-1,0-1.5-0.3c-1.8-1-2.9-2.7-3.7-4.5
		c-0.5-1-0.8-2.2-1.2-3.2c-0.2-0.4-0.2-0.9-0.8-0.9c-3.2,0.6-6.3,1.2-9.5,1.8c-0.5,0.1-1.1,0-1.6,0.2c-2.1,0.1-4.3,0.2-6.4,0.2
		c-2.6-0.1-5.2-0.2-7.8-0.6c-2.2-0.3-4.4-0.3-6.6-0.8c-0.4-0.1-0.9-0.3-1.2,0.2c-0.3,0.2-0.5,0.4-0.8,0.7c-0.2-0.4-0.4-0.8-0.6-1.2
		c-0.9-0.4-1.9-1.2-2.9-0.2c-0.6,2.4-1.4,4.6-3.8,5.8c-1,0.5-2.1,0.8-3.2,0.9c-0.8,0.1-1,0.4-1.1,1c-0.3,2-0.7,3.9-1.2,5.9
		c-0.3,1.1-0.8,2.1-1.2,3.2c-0.1,0.4-0.3,0.8-0.3,1.1c-0.6,3.5-1,7-1.7,10.4c-1.8,8-2.5,16.1-3.2,24.2c-0.2,2.4-0.6,4.8-0.6,7.3
		c0,1.6,0.3,3.3,0.8,4.8c2.1,6.2,3.3,12.6,4.7,18.9c1.5,6.8,2.9,13.6,4.3,20.4c0.6,3.1,1.2,6.2,1.8,9.3c0.3,1.8,1.8,2.8,3.7,2.5
		c2.5-0.4,5-0.8,7.6-1.2c0.3,0,0.7-0.1,0.9,0c0.3,0.1,0.6,0.4,0.6,0.6c0,0.2-0.2,0.6-0.4,0.7c-0.4,0.2-0.8,0.3-1.3,0.4
		c-2.8,0.4-5.5,0.8-8.3,1.2c-1.4,0.2-1.6,0.5-1.2,1.8c0.1,0.3,0.2,0.7,0.4,1c0.7,1.5,0.8,1.4,2.3,0.9c2.6-0.7,5.4-1.2,8-1.8
		c1.7-0.3,3.4-0.1,5.1-0.1c0.8,0,1.3-0.3,1.4-1.1C118.3,336,118.6,334.6,117.9,333.2z"/>
	<path class="st24" d="M108.8,345.2c0.1,0.6-0.1,0.9-0.7,0.8c-0.5-0.1-0.9-0.2-1.4-0.3c-2.1-0.2-4,0-5.8,1.3
		c0.2,0.2,0.3,0.4,0.5,0.5c1.3,0.1,2.7,0.1,4,0.2c0.5,0,0.9,0.3,1.3,0.6c0.3,0.2,0.4,0.7,0.6,1.1c-0.4,0-0.8,0.1-1.2,0.1
		c-1.7-0.2-3.4-0.5-5.1-0.7c-0.8-0.1-1.3,0.2-1.5,1c-0.4,2.1-1.7,3.1-3.9,3.4c-1.2,0.1-2.5,0.7-3.7,1.1c-1.3,0.4-2.3,2.1-1.9,3.4
		c0.1,0.2,0.6,0.5,0.9,0.5c2.9,0.1,5.8,0.1,8.7,0.1c0.4,0,0.9-0.1,1.3,0c0.4,0.1,0.6,0.4,1,0.7c-0.3,0.2-0.6,0.6-0.9,0.6
		c-1.6,0.1-3.2,0.2-4.8,0.1c-1.8-0.1-3.7-0.2-5.5-0.4c-0.7-0.1-1,0-1,0.7c-0.1,0.6-0.3,1.3,0.7,1.4c1.4,0.1,2.8,0.4,4.2,0.3
		c3.2-0.1,6.4-0.4,9.5-0.6c0.5,0,0.9-0.5,1.3-0.8c0.8-0.7,1.5-1.5,2.2-2.2c0-0.5-0.2-0.3-0.5-0.2c-1.1,0.3-2.2,0.7-3.3,1
		c0-0.1-0.1-0.2-0.1-0.4c0.8-0.4,1.5-0.8,2.3-1.1c4.7-2.4,9.6-4.1,14.8-5.4c0.6-0.1,1.5-0.2,1.7-0.5c0.3-0.4,0-1.2-0.1-1.9
		c-0.2-1.4-0.4-2.8-0.6-4.1c-0.3-0.5-0.8-0.5-1.3-0.7c-2.5-0.6-5-0.4-7.6-0.1c-1,0.1-2.1,0.1-3.1,0.3
		C109.5,344.8,109.1,344.8,108.8,345.2z"/>
	<path class="st25" d="M154.4,246.3c0.1,4.1,0.3,8.3,0.4,12.4c0,0.4,0,0.7,0,1.1c0.2,6.6,0.3,13.2,0.5,19.8c0.1,2.8,0.2,5.6,0.2,8.4
		c0.1,3.7,0.3,7.5,0.2,11.2c-0.2,5.2-0.6,10.5-0.9,15.7c-0.2,3.4-0.5,6.7-0.7,10.1c-0.2,3.3-0.5,6.6-0.7,9.9c0,0.7,0.2,1.3,0.2,2
		c0,0.2-0.2,0.4-0.2,0.6c1,0.4,1.9,0.9,3,1.4c0.1-2.1,0.4-4.1,0.2-6.1c-0.3-4.5-0.1-9,0.4-13.5c0.3-3.1,0.5-6.3,0.7-9.4
		c0.4-6.9,0.9-13.8,1.1-20.7c0.2-5.1,0.1-10.2,0.1-15.2c0-4.2,0-8.4-0.3-12.6c-0.1-2.5-0.7-5-1.1-7.4c-0.1-0.6-0.7-1.3,0.3-1.8
		c0.2-0.1-0.1-1.1-0.2-1.7c-0.1-0.5-0.4-1-0.7-1.4c-0.1-0.1-0.2-0.1-0.3-0.1c-0.9,0.4-1.3-0.1-1.6-0.9
		C154.9,247.4,155.2,246.6,154.4,246.3z"/>
	<path class="st24" d="M140.4,349.2c-1.6,2.7-2.6,5.5-2.4,8.7c0.1,2.7,1.2,3.9,3.8,4.3c5.6,0.9,11,0,16.4-1.7
		c0.2-0.1,0.6-0.4,0.5-0.5c-0.4-3.7-0.7-7.3-2.7-10.6c-1.2-1.1-2.3-1.4-3.3-0.8c-0.3,0.4-0.7,0.4-1.1,0.3c-2.5-0.6-4.9-0.7-7.4-0.2
		c-0.3,0.1-0.6,0-0.9-0.1C142.3,348.7,141.2,348.5,140.4,349.2z"/>
	<path class="st25" d="M130.4,221.1c3-0.4,5.9-0.8,8.9-1.3c0.8-0.1,1.6-0.4,2.4-0.6c0.2-0.1,0.2-0.3,0.3-0.5c0.4-1,0.7-1,1.6-0.4
		c0.2,0.1,0.3,0.3,0.5,0.2c1.8-0.5,3.6-1,5.3-1.6c0.6-0.2,0.9-0.1,1.1,0.4c0.4-0.4,0.2-0.9,0.2-1.3c0-0.3,0-0.6,0.3-0.7
		c0.3-0.1,0.5,0.2,0.6,0.4c0.5,1.4,1.1,2.9,0.3,4.4c0,0,0.1,0,0.1,0c0.7,0.7,0.8,3.7,0.2,4.5c1.3,1.1,1.1,2.7,1.3,4.2
		c0.1,0.7-0.7,0.7-1.1,1.1c0.2,1.4,0.5,2.7,0.7,4.1c0.9,0.2,1.2,0.8,1.1,1.6c0,0.4-0.1,0.8,0.1,1.2c0.3,0.8,0,1.5-0.7,1.9
		c0.2,1.6,0.3,3.3,0.5,4.9c1.5-0.2,1.5-0.2,1.9,1.3c0.1,0.3,0.2,0.6,0.3,0.9c0.2,0.2,0.3,0.3,0.6,0.2c0-8,0.1-16-0.1-23.9
		c-0.1-3.7-0.9-7.4-1.3-11.2c-0.1-0.6-0.2-0.9-0.9-0.6c-4.6,2.3-9.5,3.4-14.5,4.4c-0.8,0.2-1,0.4-0.9,1.2c0.1,0.6,0.2,1.3,0.1,1.9
		c-0.1,0.4-0.6,0.7-0.9,1.1c-0.2-0.4-0.6-0.7-0.7-1.1c-0.1-0.5-0.1-1.1,0-1.7c0.1-0.8-0.3-1-1-0.8c-0.1,0-0.2,0-0.4,0.1
		c-0.9,0.2-2.1,0-2.6,0.6c-0.5,0.5-0.2,1.7-0.2,2.6c0,0.9-0.1,1.7-1.4,1.8C131.7,220.5,131,220.9,130.4,221.1z"/>
	<path class="st25" d="M113.2,315.4c0.1,0,0.4,0,0.4,0c0.2,1.3,0.3,2.6,0.5,3.9c0,0.1-0.2,0.3-0.2,0.4c0,0.9,0.3,1.7,0.5,2.5
		c0.2,1,0.1,2,0.3,2.9c0.2,1,0.4,2.1,0.6,3.1c-0.3,1.2-0.3,2.3,0.7,3.2c0.6,0.4,1.1,0.8,1.7,1.2c0-1.1,0.7-1.3,1.6-1.4
		c0.6,0,0.7-0.2,0.5-0.8c-2-5.2-2.5-10.8-3.3-16.3c-0.9-6.5-1.7-13-2.7-19.4c-0.3-1.8-1.5-3.5-2.3-5.2c-1,2.4-0.5,4.8-0.4,7.3
		c0.2,2.2,0.5,4.3,0.8,6.5c0.1,1-0.3,2,0.5,2.9c0.2,1.7,0.5,3.4,0.7,5c-0.2,0.9,0.2,1.8,0,2.8C112.8,314.6,112.7,315.1,113.2,315.4z
		"/>
	<path class="st25" d="M118.2,249.2c-0.6,0.6-1.1,1.1-1.7,1.7c1.4,0.7,1.4,2.7,0.1,4.1c-0.3,0.3-0.6,0.4-0.8,0.7
		c-0.3,1.3-0.6,2.5-1.9,3.2c0.1,1.9-0.8,3.4-1.9,4.8c-0.4,1.1-0.8,2.2-1.2,3.3c-0.4,0.5-0.6,1.1-0.7,1.8c-0.1,0.5,0.1,1.1,0,1.6
		c-0.5,2.3-1.1,4.6-1.5,7c-0.2,1.2,0,2.4,0,3.6c0.1-0.1,0.2-0.2,0.1-0.4c0.3-0.8,0.9-1.1,1.6-0.9c0.9,0.4,1.1-0.2,1.3-0.8
		c3.4-7.8,6.1-15.9,8.4-24.2C120.6,252.2,119.3,250.8,118.2,249.2z"/>
	<path class="st26" d="M31.1,135.7c-0.2,0.3-0.2,0.8-0.5,1c-2.5,2.8-2.5,2.7-6.2,2.8c-2.9,0.1-5.8,0.5-8.8,0.6c-1,0-2.1-0.4-2.9-0.9
		c-3.1-2.1-6-4.4-9-6.6c-0.3-0.2-0.5-0.5-0.7-0.8c0.4,2.3,1.2,4.4,3.2,5.8c2.1,1.5,4.1,3.2,6.3,4.6c1.6,1,3.4,1.5,5.1,2.2
		c0.2,0.1,0.6-0.1,0.9-0.1c2.9-0.4,5.7-1.2,8.6-1.2c1.6,0,2.3-0.3,2.9-1.7c0.7-1.4,1.6-2.6,2.4-3.8c0.4-0.6,0.7-1-0.3-1.3
		C31.8,136.2,31.5,135.9,31.1,135.7z"/>
	<path class="st25" d="M108.3,220.2c1.1,0.2,2.2,0.4,3.4,0.5c4.1,0.3,8.2,0.5,12.2,0.7c-1.4-0.1-2.8-0.3-4.3-0.4
		c-0.2,0-0.4,0-0.6-0.1c-0.4-0.3-0.8-0.7-1.3-1.1c0.5-0.2,1-0.6,1.4-0.5c2.5,0.1,5,0.4,7.5,0.4c1.5,0,3-0.2,4.5-0.5
		c1.5-0.2,0.8-1.5,0.9-2.3c0.1-0.9-0.6-0.8-1.2-0.8c-4.3,0-8.6,0-12.9,0c-0.2,0-0.6,0.4-0.7,0.6c-0.1,0.7-0.1,1.4-0.2,2.1
		c-0.1,0.3-0.5,0.6-0.8,0.9c-0.2-0.3-0.6-0.6-0.7-1c-0.1-0.7,0-1.4-0.1-2.1c-0.1-0.3-0.4-0.8-0.7-0.8c-1.8-0.3-3.7-0.6-5.5-0.9
		c-0.1,0-0.2,0-0.4-0.1c-0.1,0.9-0.3,1.8-0.4,2.7c0,0.2,0.3,0.5,0.5,0.5c1.3,0.2,2.6,0.4,3.9,0.6c0.4,0.1,0.8,0.5,1.2,0.7
		c-0.4,0.2-0.9,0.6-1.3,0.6c-1.3,0-2.5-0.2-3.8-0.4C108.6,219.4,108.3,219.5,108.3,220.2z"/>
	<path class="st27" d="M108.8,345.2c2.4-0.2,4.9-0.6,7.3-0.6c2,0,3.9,0.4,5.9,0.7c-0.3-1.3-0.6-2.6-1-3.9c-0.1-0.4-0.7-0.8-1.1-0.8
		c-3.8,0.2-7.7,0.4-11.5,0.6c-1,0.1-2,0.4-3.1,0.5c-1.5,0.1-2.2,1.1-2.7,2.4C104.8,344,106.9,343.7,108.8,345.2z"/>
	<path class="st23" d="M152.9,338.9c-3.8-1.2-7.6-1.2-11.5-0.7c-0.4,0.1-0.9-0.1-1.3-0.2c0.1-0.3,0.2-0.6,0.3-0.9
		c0-0.1,0-0.4-0.1-0.4c-0.1-0.1-0.4-0.1-0.5,0c-0.3,0.6-0.8,1.2-0.7,1.8c0.1,1.3,0.4,2.6,0.7,3.9c0.1,0.2,0.7,0.6,0.9,0.5
		c3.2-1.4,6.5-0.8,9.8-0.3c0.7,0.1,1.5,0.3,2.2,0.4c0.3,0.2,0.6,0.1,0.6-0.3c0-1.1,0.1-2.3,0-3.4
		C153.3,339.2,153.1,339.1,152.9,338.9z"/>
	<path class="st27" d="M152.9,348.8c0.5,0,1,0,1.5,0.1c0.6,0.1,1.1,0.4,1.6,0.6c-0.2-1.1-0.3-2.1-0.5-3.1c-0.1-0.3-0.4-0.8-0.7-0.9
		c-3.9-0.9-7.8-1.9-11.9-1.5c-1,0.1-1.4,0.3-1.5,1.5c-0.1,1.3-0.6,2.5-1,3.8c1-0.1,2-0.1,3-0.2c0.8-0.9,1.8-1.1,2.9-1.1
		c2.1,0,4.1,0,6.1,0.9C152.5,348.9,152.7,348.9,152.9,348.8z"/>
	<path class="st24" d="M111.6,356.5c0.3,0.6,0.7,1.2,0.9,1.8c0.2,0.7,0.5,0.9,1.2,0.8c3-0.4,5.9-1.1,8.6-2.5c0.4-0.2,0.5-1,0.6-1.6
		c0.2-2.1,0.1-2.2-1.8-1.7c-3.2,0.8-6.4,1.8-9.5,2.7C111.3,356.3,111.6,356.3,111.6,356.5z"/>
	<path class="st28" d="M100.6,218.2c-0.7-0.1-1.5-0.2-2.2-0.5c-0.5-0.2-0.7-0.1-0.8,0.4c-0.3,1.8-0.6,3.6-1,5.4
		c-0.1,0.7,0.2,0.7,0.7,0.6c2.9-0.6,4.4-2.6,5.3-5.2C102.2,218,101.4,218.1,100.6,218.2z"/>
	<path class="st25" d="M100.6,218.2c0.7,0.3,1.3,0.5,2,0.8c0.1-1.8,0.3-3.6,0.4-5.4c0-0.1,0-0.2-0.1-0.2c-1.3-0.4-2.5-0.9-3.8-1.3
		c0,0-0.2,0.1-0.2,0.2c-0.2,1.2-0.6,2.3-0.6,3.5c0,0.3,1,0.7,1.5,1C100.4,217.1,101.1,217.3,100.6,218.2z"/>
	<path class="st29" d="M117.9,333.2c-0.1,1.4-0.2,2.9-0.2,4.3c0,0.8-0.4,1-1.1,1c-1.3,0-2.6,0-3.8,0c-0.4,0-0.8,0.2-1.1,0.2
		c3,0,6.1,0,9.1-0.1c0.2,0,0.7-0.5,0.7-0.7c0-1.2-0.2-2.4-0.3-3.6c-0.1-0.8-0.5-1-1.2-0.9C119.3,333.4,118.6,333.3,117.9,333.2z"/>
	<path class="st29" d="M152.9,338.9c0,1.3,0,2.6,0.1,4c0,0-0.2,0.1-0.3,0.1c1,0.3,2.1,0.5,3.1,0.8c0.2,0,0.6-0.1,0.7-0.2
		c0.3-0.8,0.6-1.6,0.8-2.5c0-0.2-0.3-0.7-0.6-0.8C155.4,339.8,154.2,339.4,152.9,338.9z"/>
	<path class="st29" d="M104.1,219.4c1,0.1,1.9,0.1,2.9,0.2c0.1-1.4,0.3-2.8,0.4-4.1c0.1-0.9-0.2-1.2-1.1-1.4
		c-1.8-0.3-1.7-0.4-1.8,1.4C104.4,216.8,104.2,218.1,104.1,219.4z"/>
	<path class="st29" d="M108.6,280.5c0,0.1,0,0.3-0.1,0.4c0.2,0.9,0.5,1.8,0.7,2.8c0.1,0.5-0.2,1-0.4,1.5c1.2,0.9,2.4,1.8,3.5,2.8
		c0.8-1.9,0.5-3.2-0.9-4.6C110.5,282.4,109.5,281.5,108.6,280.5z"/>
	<path class="st30" d="M100.9,346.9c1.9-0.4,3.8-0.8,5.8-1.3c-1.5-0.2-2.9-0.5-4.4-0.6c-0.2,0-0.6,0.4-0.8,0.7
		C101.3,346.1,101.1,346.5,100.9,346.9z"/>
	<path class="st31" d="M111.6,356.5c-0.1-0.2-0.1-0.3-0.2-0.5c-0.7,0.2-1.3,0.5-2,0.7c0.1,0.2,0.3,0.1,0.4,0.2
		C110.5,356.8,111.1,356.6,111.6,356.5z"/>
	<path class="st32" d="M132.5,281.9c0.1-0.2,0.2-0.3,0.3-0.5c-0.2-0.5-0.5-1-0.7-1.5c-0.1,0-0.2,0.1-0.2,0.1
		C132,280.6,132.3,281.2,132.5,281.9z"/>
	<path class="st33" d="M156.8,248.9c0.1,0,0.2,0,0.2,0c0-0.6,0-1.3,0-1.9c-0.2-0.2-0.3-0.5-0.6-0.1
		C156.4,247.6,156.3,248.3,156.8,248.9z"/>
	<path class="st34" d="M107.3,357.6c0.2,0.1,0.3,0.2,0.5,0.2c0.3-0.2,0.6-0.3,1-0.5c0-0.2,0-0.3-0.2-0.2
		C108.1,357.3,107.7,357.5,107.3,357.6z"/>
	<path class="st35" d="M108.5,357.2c0.1,0.1,0.2,0.2,0.2,0.2c0.4-0.2,0.8-0.3,1.2-0.5c-0.1-0.1-0.3-0.1-0.4-0.2
		C109.2,356.9,108.9,357,108.5,357.2z"/>
	<path class="st36" d="M156.6,246.8c0.1,0.1,0.3,0.2,0.4,0.3c0-0.3,0-0.6,0-1c-0.2-0.1-0.3-0.2-0.5-0.2
		C156.3,246.2,156.2,246.5,156.6,246.8z"/>
	<path class="st1" d="M113.6,69.2c-0.2-0.1-0.5-0.2-0.7-0.3c-0.5-0.1-0.7,0.3-1,0.6c-0.8,1-1.8,1.3-3,1.3c-1,0-2.1-0.1-3,0.3
		c-0.4,0.3-0.8,0.7-1.2,1c-0.3,0.2-0.6,0.3-0.9,0.5c-0.1-0.3-0.2-0.6-0.3-1c-0.6-0.5-1.3-0.4-1.9,0c-0.2,6.4-0.5,12.8-0.6,19.3
		c0,5.3,0.4,10.5,1.7,15.7c1.1,4.3,3,8.2,5.5,11.8c0.4,0.6,1,1.1,1.5,1.7c2,2,4.4,3.3,7.1,4c1.7,0.4,3.3,0,4.9-0.5
		c3.4-1.1,6.4-3,9.1-5.4c3.2-2.9,6.1-6.1,8.7-9.5c0.9-1.2,1.6-2.5,2.2-3.8c0.2-0.9,0.4-1.7,0.5-2.6c0-0.9,0.4-1.4,1.3-1.5
		c4.2-0.8,7.5-4.4,8-8.6c0.2-1.5,0-2.9-0.9-4.2c-1.5-2.2-4.6-1.5-6-0.2c-2,2-2.9,4.4-3.4,7.1c-0.1,0.5-0.4,1.2-0.8,1.4
		c-0.7,0.4-1.6,0.1-1.9-0.7c-0.5-1.5-1.1-3.1-1.3-4.7c-0.3-4,0.9-7.7,2.7-11.3c0.4-0.7,0.7-1.4,1-2.2c-1.6-0.2-1.7-0.4-1.4-1.8
		c0.1-0.3,0-0.6,0-1c-0.7-0.1-1.1,0.4-1.6,0.8c-1.3,1-2.7,1.8-4.4,1.1c0-0.7-0.2-1.6,0.1-2.2c2.2-5.5,1.6-10.9-0.5-16.3
		c-0.6-0.1-0.7,0.4-0.9,0.8c-1.1,3-2.7,5.6-4.6,8.2c-0.2,0.3-0.6,0.7-0.3,1.2c1.3,0.8,2.5,1.7,3.1,3.2c0.1,0.4,0.3,0.8,0.3,1.1
		c0,0.4-0.2,0.7-0.3,1.1c-0.3-0.2-0.7-0.3-1-0.5c-1-0.8-1.9-1.7-2.8-2.5c-0.2-0.1-0.4-0.2-0.7-0.3c-0.5-0.2-1-0.2-1.5,0.1
		c-0.9,0.6-1.9,0.4-2.9,0.3c-2-0.3-3.9-0.6-5.9-0.3C114.8,70.4,114.3,69.6,113.6,69.2z"/>
	<path class="st37" d="M158,60.1c-0.6-3.3-2.1-6.1-3.7-8.9c-0.3-0.5-0.7-1,0.1-1.5c-0.1-0.7-0.5-1.3-1.2-1.5
		c-0.5-0.3-1.1-0.5-1.5-0.9c-5.6-5.7-12.5-8.5-20.4-9.2c-0.1,0-0.2,0-0.4,0c-0.1,0-0.1,0-0.3,0.1c0.5,0.6,1.1,1.1,1.4,1.7
		c0.2,0.4,0.2,1,0.3,1.5c-0.4-0.1-1-0.2-1.3-0.5c-4.6-3.8-9.8-6.2-15.9-5.9c-2.5,0.1-4.9,1.1-7.4,1.6c-0.5,0.8-1.2,1.3-2,1.8
		c-3.2,2-6,4.4-8.4,7.4c-0.5,0.6-0.6,1.1-0.2,1.8c1,1.8-0.2,4.2-2.1,4.7c-0.3,0.1-0.6,0.1-0.9,0.3c-0.4,1.6-1,3.2-1.1,4.8
		c-0.3,4-0.1,8.1,1.1,12c0.1,0.4,0.4,0.8,0.6,1.1c0.6-0.4,1.3-0.7,1.1-1.7c-0.2-1.4-0.5-2.8-0.5-4.3c0-6.1,1.7-11.6,5.8-16.2
		c0.9-1,2-1.8,3.1-2.6c0.3-0.2,0.9-0.1,1.4-0.2c-0.2,0.4-0.3,1-0.6,1.2c-3.7,3.2-6.1,7.2-6.7,12.1c-0.3,2.7-0.2,5.4-0.2,8.1
		c0,0.7,0.2,1.1,1,0.7c2.5-1.1,5.1-1.3,7.7-0.9c0.9,0.2,1.1,0,1.3-0.9c1.2-5.2,3.7-9.6,7.7-13.1c0.1-0.1,0.2-0.2,0.3-0.2
		c2.5-1.3,4.7-3.1,6.9-4.9c0.2-0.2,0.5-0.3,0.7-0.4c0.4-0.1,0.8-0.1,1.2-0.1c-0.2,0.3-0.3,0.8-0.6,1c-5,4.6-7.8,10.4-9.2,17
		c-0.1,0.6,0,0.9,0.7,0.8c1.9-0.3,3.8-0.3,5.7,0.4c0.4,0.1,1-0.3,1.4-0.6c2.7-2.5,4.6-5.5,6.1-8.8c1.5-3.3,2.7-6.8,2.4-10.5
		c0-0.3,0.2-0.9,0.3-0.9c0.4,0,0.8,0.2,1.2,0.3c0.5,0.8,0.7,1.7,0.7,2.6c0,1.5,0,3-0.2,4.4c-0.1,0.7-0.1,1.4,0.2,2.1
		c3.1,4.9,4,10.3,3.3,16c-0.1,0.3-0.2,0.5,0.3,0.5c3.5-4.7,4.4-10,3.9-15.6c-0.1-0.8-0.2-1.6,1.1-1.3c1.5,0.5,1.8,1.9,2,3.3
		c0.6,3,0.4,6-0.7,8.8c-0.7,1.8-1.3,3.5-1.2,5.4c-0.1,0.7-0.2,1.5-0.3,2.1c1.3-0.1,2.6-0.1,3.9-0.3c0.3,0,0.6-0.5,0.7-0.8
		c1.3-3.7,0.9-7.4,0.2-11.1c-0.1-0.5-0.3-1.1-0.3-1.6c0-0.2,0.1-0.4,0.2-0.7c0.2,0.1,0.6,0.1,0.7,0.2c0.5,0.7,1,1.4,1.2,2.2
		c0.4,1.4,0.7,2.9,1,4.4c1.1,0.5,2-0.1,2.9-0.6c0.3-0.3,0.3-0.7,0.2-1.1c-0.3-2.5-0.8-5-2.2-7.1c-0.3-0.5-0.9-1.2-0.2-1.7
		c0.7-0.5,1.2,0.2,1.6,0.7c1.2,1.5,1.8,3.3,2.1,5.2c0.1,0.6,0.2,1.2,0.4,1.8c0.4,0.9,0.9,0.8,1.5,0.2C157,62.8,157.6,61.5,158,60.1z
		"/>
	<path class="st37" d="M188.6,69.2c0.1-8.5-2.3-16.2-8.2-22.2c-6.2-6.4-14.1-8.4-22.9-6.9c-0.9,0.1-1.7,0.3-2.6,0.4
		c0.7,1.6,1.3,1.9,3,1.9c5.4-0.2,10,1.8,14.3,4.8c3.5,2.4,6.1,5.6,8.1,9.3c0.1,0.1,0.2,0.2,0.2,0.3c0,0.6,0,1.2,0,1.8
		c-0.4-0.3-1-0.6-1.2-1c-3.3-5.1-8.2-7.8-13.8-9.4c-0.9-0.3-1.9-0.3-2.8-0.5c-0.4-0.1-0.7-0.3-1-0.5c-0.8-1-1.5-1.1-2.2-0.2
		c0.3,1.1,0.7,2.2,1,3.3c0,1,0.6,1.1,1.4,0.9c1.6-0.2,2.6,0.9,3.7,1.7c0.6,0.4,1.1,0.9,1.7,1.3c4.6,3,7.4,7.4,9.2,12.5
		c0.1,0.4,0.2,0.8,0.6,1.2c1.6,2.2,1.7,4.7,1.6,7.2c0,1.7-0.3,3.3-0.5,5c-0.1,0.9,0.3,1.1,0.9,0.8c1.3-0.6,2.6-1.3,3.8-2.1
		c0.3-0.2,0.5-1,0.5-1.5c-0.1-4.1-1.1-8.1-3-11.7c-0.9-1.6-1.9-3.1-2.8-4.7c-0.2-0.4-0.2-0.9-0.3-1.4c0.4,0.1,0.9,0.1,1.3,0.2
		c3.6,1.6,6.3,4.3,8.6,7.5c0.3,0.5,0.6,0.9,0.9,1.4C188,68.9,188.1,69.3,188.6,69.2z"/>
	<path class="st38" d="M161.8,50.8c-0.7,0.3-1.2,0.3-1.5-0.5c0.3,1.6,0.1,3-1.2,4.2c-0.2,0.1-0.2,0.7,0,0.9
		c1.6,3.4,2.1,6.9,2.2,10.6c0,0.4,0.1,0.9,0.4,1.2c2.9,3.5,4.3,7.7,4.8,12.2c0.2,1.9,0,3.9,0,6c0.8-1.1,1.5-2.1,2.2-3
		c0.7-0.9,1.3-0.9,1.8,0.1c0.4,0.7,0.7,0.7,1.3,0.4c0.3-0.2,0.7-0.4,1.1-0.5c2.3-0.7,3.2-2.4,3.4-4.7c0.2-3,0.5-6-0.2-8.9
		c-0.1-0.6,0-1,0.7-0.8c-0.7-3.3-2.1-6.4-4.3-8.9c-1.6-1.9-3.6-3.3-5.4-5c-0.2,0.7,0.4,1.1,0.8,1.5c2.4,2.6,4.1,5.5,4.9,8.9
		c0,0.1,0,0.2,0.1,0.2c0.1,0.4,0.4,1.1-0.2,1.2c-0.5,0.2-0.6-0.5-0.8-0.9c-0.2-0.4-0.3-0.8-0.4-1.2c-1.6-4.6-4.5-8.2-8.3-11.2
		C162.6,52,162.1,51.5,161.8,50.8z"/>
	<path class="st1" d="M114.3,128c-0.3,1.2-0.5,2.5-0.8,3.7c-0.1,0.3-0.1,0.5,0,0.8c0.6,4.2,4,7.8,8.2,8.6c0.6,0.1,1.3,0.2,1.9,0
		c5.1-1.2,9.2-3.6,10.9-8.9c0.2-0.6,0.4-1.1,0.6-1.7c0.3-0.8,0.3-1.6-0.1-2.5c-0.5-1-0.5-2.2-0.8-3.4c-0.7-0.4-1,0.2-1.4,0.6
		c-2.7,2.3-5.8,3.8-9.3,4.4c-2.9,0.5-5.8,0.6-8.4-1.4C114.9,128.1,114.6,127.9,114.3,128z"/>
	<path class="st38" d="M158,60.1c-0.8,1.2-1.6,2.5-2.4,3.7c-0.3,0.5-0.7,0.4-1-0.1c-0.3,0.3-0.3,0.6-0.3,1c0.3,3.1-0.2,6.1-1.3,9
		c-0.5,1.3-1.2,2.4-2.2,3.3c-0.3-0.5,0-0.8,0.1-1c1.3-2.8,1.9-5.8,1.8-8.8c0-0.5,0.1-1-0.4-1.3c-0.9,0.2-1.9,0.5-2.8,0.7
		c0.1,3-0.3,6-1.7,8.7c-0.6,1.1-1.3,1.6-2.5,1.3c-0.3-0.1-0.6-0.1-1-0.1c-1.1,0-2,0.2-2.3,1.7c-0.5,2.4-1.6,4.8-2.2,7.2
		c-0.7,2.5-0.6,5.1,0,7.7c0.1-0.5,0.2-1,0.4-1.5c0.7-2.5,2-4.8,3.9-6.5c1.8-1.7,4-1.9,6.2-0.8c0.8,0.4,1.4,0.3,2-0.4
		c3-3.5,4.8-7.6,5.8-12.1C159,67.9,159,64,158,60.1z"/>
	<path class="st39" d="M94.2,52.7c1.6,0.3,2.5-0.7,3.2-2c0.6-1.1,0.9-2.3,0-3.5c-0.2-0.2,0-0.9,0.2-1.2c2.5-3.3,5.7-5.7,9.1-8
		c0.5-0.3,0.7-1,1.1-1.5c-3.6,1.2-6.7,3.3-9.4,5.9c-7.2,6.8-10.2,15.3-9.6,25.2c0.2,0.8,0.6,0.8,1,0.1C90,67.4,90,67,90,66.5
		c-0.1-3.3,0.7-6.4,1.5-9.6c0.6-1.5,1.1-3.1,1.7-4.6c0.1-0.3,0.6-0.5,0.9-0.8C94.2,52,94.2,52.3,94.2,52.7z"/>
	<path class="st26" d="M114.3,128c3.1,2.7,6.6,2.6,10.3,1.7c3.4-0.8,6.4-2.4,9-4.8c0.2-0.1,0.4-0.2,0.6-0.3
		c-0.1-1.2-0.2-2.4-0.3-3.9c-5.8,4.6-11.8,8.2-19.5,5.7C114.3,127,114.3,127.5,114.3,128z"/>
	<path class="st26" d="M141.9,104.7c-1.8,2.5-3.6,5.1-5.6,7.5c-3.5,4.1-7.4,7.7-12.2,10.1c-5,2.5-9.3,1.6-13.4-1.7
		c-0.3-0.2-0.6-0.4-0.9-0.6c2.7,4.4,7.7,6.2,12.8,4.7c3.5-1.1,6.5-3,9.2-5.5c4.1-3.8,7.6-7.9,9.8-13.1
		C141.7,105.6,141.8,105.2,141.9,104.7z"/>
	<path class="st40" d="M153.1,48.1c0.4,0.5,0.8,1,1.2,1.5c0.3,0.1,0.6,0.2,1,0.4c1.2,0.1,1.7-0.8,2.5-1.5c-1.4-3-3.3-5.7-6.1-7.7
		c-0.5-0.4-2.9,0.7-2.9,1.3c0,0.2,0.3,0.4,0.5,0.6c1,1.1,2.2,2.1,3.1,3.3C152.8,46.6,152.9,47.4,153.1,48.1z"/>
	<path class="st41" d="M91.5,56.9c-1.3,2.9-1.8,5.9-1.9,9c0,0.6,0,1.1-0.1,1.7c-0.2,0.8-0.5,0.4-0.8,0c0.3,2.3,0.6,4.5,0.9,6.8
		c0.2,0.2,0.2,0.8,0.6,0.4c0.8-0.9,1.7-1.6,2.7-2.3c0.2-0.1,0.1-0.4,0-0.5c-0.6-3.1-1.3-6.2-1.7-9.3C91.1,60.9,91.4,58.9,91.5,56.9z
		"/>
	<path class="st42" d="M93,72.1c-0.3,0.3-0.5,0.5-0.8,0.8c-0.6,0.5-1.2,1.1-1.8,1.6c-0.2,0.1-0.5,0-0.7,0.1c0,0.3,0,0.7,0.2,0.9
		c0.1,0.2,0.5,0.3,0.7,0.3c1.4-0.9,2.7-0.8,4.1,0.1c0.9,0.6,2.1,0.8,3.2,1.1c0.8,0.2,1.3-0.2,1.2-1.1c-0.1-0.7,0-1.4,0-2
		c0-0.5-0.1-1-0.1-1.5c-0.8,0.2-1.5-0.6-2.5,0.1C94.8,73.5,93.9,73.3,93,72.1z"/>
	<path class="st43" d="M105.9,71.1c0.6,0,1.2,0,1.8,0.1c2.2,0.3,4-0.3,5.2-2.2c-0.1-0.7-0.5-1.4-0.4-2.1c0.5-3.4,1.5-6.8,3.2-9.8
		c0.1-0.2,0.2-0.5,0.2-0.8c-0.1-0.1-0.2-0.1-0.2,0c-2.7,2.4-3.9,5.7-5,8.9c-0.2,0.4-0.3,0.9-0.3,1.4c0,0.3,0.2,0.5,0.3,0.8
		c0.3,0.5,0.8,1,0.7,1.4c-0.1,0.4-0.8,0.7-1.3,0.9c-1.3,0.4-2.6,0.7-3.9,1.1C106.1,70.8,106,71,105.9,71.1z"/>
	<path class="st44" d="M188.6,69.2c-1.1-1.5-2.1-3.2-3.4-4.5c-1.8-1.8-3.8-3.3-5.8-4.8c-0.3-0.2-0.8-0.1-1.1-0.2
		c0.5,0.5,1,1,1.4,1.6c1.1,1.6,1.9,3.4,3.2,4.8c1.3,1.4,3,2.4,4.5,3.6c0.4,0.3,0.7,0.5,1.1,0.8C188.5,70.1,188.6,69.7,188.6,69.2z"
		/>
	<path class="st26" d="M127.5,68c0.4-0.6,0.8-1.2,1.2-1.9c1.4-2.5,2.7-5,4.1-7.5c0.1-0.3,0.4-0.5,0.5-0.7c-0.3-0.7-0.7-1.3-1.1-2.3
		c-1.7,4.3-3.8,8.1-6.7,11.5C126.2,67.4,126.8,67.7,127.5,68z"/>
	<path class="st45" d="M98.5,81.4c-2.1,4.2-2.6,8.6-2.1,13.4c1.1-1.1,2.3-1.6,2.2-3.5C98.4,88,98.5,84.7,98.5,81.4z"/>
	<path class="st44" d="M142.4,72.1c0.8-3.2,1.9-6.3,2.5-9.5c0.5-2.4,0.2-4.8-0.9-7.1c-0.3-0.7-0.8-1.1-1.6-0.9
		c0.4,1.1,1.2,2.3,1.2,3.4c0,2.4-0.3,4.8-0.8,7.2c-0.2,1.3-0.6,2.4-0.4,3.7C142.5,70,142.4,71.1,142.4,72.1z"/>
	<path class="st42" d="M159.4,46.9c0.8-0.5,1.5-0.3,2.2,0.2c0.4-0.2,0.8-0.7,1.1-0.7c2.1,0.3,4.2,0.6,6.3,1c0.2,0.1,0.5,0.2,0.5-0.2
		c-3.7-2.3-8.8-3.7-11.9-3.3C158.2,44.9,158.8,45.9,159.4,46.9z"/>
	<path class="st46" d="M113.6,69.2c0.5,1.2,1.4,1.4,2.7,1.3c1.9-0.1,3.8,0.1,5.7,0.4c1.1,0.2,1.9,0.1,2.8-0.5
		c0.3-0.2,0.8-0.2,1.2-0.3c-1.4-0.3-2.8-0.6-4.1-0.9c-0.1,0-0.3,0-0.4,0C118.9,68.1,116.3,68.6,113.6,69.2z"/>
	<path class="st47" d="M133.7,76.4c1.8,1.2,3.2,0.2,4.5-0.8c0.5-0.4,1-0.8,1.5-1.1c0.2-0.8,0.5-1.5,0.7-2.3c0-0.3,0.3-0.8-0.3-0.8
		c-1.2,1.3-2.3,2.7-3.6,4C135.9,76.1,134.9,76.7,133.7,76.4z"/>
	<path class="st48" d="M157.8,48.6c-0.8,0.5-1.7,1-2.5,1.5c0.8,0.9,1.5,1.8,2.3,2.6c0.2,0.2,0.6,0.3,0.7,0.2
		c0.2-0.2,0.6-0.6,0.5-0.8C158.5,50.9,158.1,49.7,157.8,48.6z"/>
	<path class="st49" d="M133.7,55.1c0.1-2.1,0.3-4.3,0.2-6.4c0-0.9-0.6-1.8-0.9-2.7c0.7,2.2,0.5,4.4-0.1,6.6
		C132.6,53.6,132.9,54.4,133.7,55.1z"/>
	<path class="st50" d="M101.6,71.6c0.6,0,1.3,0,1.9,0c0.4-0.8,0.8-1.5,1.2-2.3C101.9,69.2,101.5,69.5,101.6,71.6z"/>
	<path class="st51" d="M170.1,47.9c0.4,0.2,0.8,0.5,1.3,0.7c0-0.1,0.1-0.2,0.1-0.2c-0.4-0.2-0.8-0.5-1.1-0.7
		C170.3,47.7,170.1,47.7,170.1,47.9z"/>
	<path class="st52" d="M140.2,71.3c0.1,0.3,0.2,0.5,0.3,0.8c0.1-0.5,0.2-1,0.3-1.4c-0.1,0-0.2-0.1-0.2-0.1
		C140.4,70.9,140.3,71.1,140.2,71.3z"/>
	<path class="st53" d="M170.1,47.9c0.1-0.1,0.2-0.2,0.3-0.3c-0.3-0.2-0.6-0.3-1-0.5c-0.2,0.1-0.3,0.2-0.5,0.2
		C169.4,47.6,169.7,47.7,170.1,47.9z"/>
	<path class="st54" d="M115.7,56.2c0.1,0,0.2,0,0.2,0c0.2-0.2,0.4-0.5,0.5-0.7c0.1-0.2,0-0.3-0.3-0.2
		C116.1,55.6,115.9,55.9,115.7,56.2z"/>
	<path class="st55" d="M116.2,55.3c0.1,0.1,0.2,0.2,0.3,0.2c0.2-0.2,0.3-0.5,0.5-0.7c-0.1,0-0.1-0.1-0.2-0.1
		C116.6,54.9,116.4,55.1,116.2,55.3z"/>
	<path class="st56" d="M137.3,71.6c-0.1-0.2-0.2-0.3-0.3-0.5c0,0.3-0.1,0.6-0.1,0.9C137.1,71.9,137.2,71.7,137.3,71.6z"/>
	<path class="st26" d="M241.1,107.1c-2,2.9-3.9,5.8-5.9,8.7c-0.8,1.2-1.8,2.3-2.8,3.4c-1.6,1.8-3.8,2.5-6.1,3
		c-1.4,0.3-2.9,0.7-4.2,1.1c-0.7,0.2-1.1,0.2-1.7-0.2c-1.3-0.9-2.7-1.7-4.1-2.6c-1.2,1.3-1.1,1.2,0.2,2.2c0.8,0.6,1.7,1.2,2.4,1.9
		c0.7,0.7,1.3,1.5,2,2.2c2.4-2.5,5.7-3,8.9-3.4c2.4-0.3,4.3-1.4,5.6-3.3c1.9-3,3.7-6.1,5.5-9.1C241.6,109.8,241.3,108.5,241.1,107.1
		z"/>
	<path class="st57" d="M219.8,82.7c0.2,0.1,0.4,0.2,0.7,0.3c-0.1-0.2-0.2-0.4-0.3-0.6C220,82.5,219.9,82.6,219.8,82.7z"/>
	<path class="st2" d="M183.6,131.9c0,0-0.1,0-0.1,0.1c-1.1,1.8-1,1.8,0.3,3.5c0.8,1,1.5,2.1,2.2,3.2c0.7-0.1,1.7,0,1.9-0.4
		c0.3-0.6,0.3-1.6-0.1-2.2c-0.6-1.2-1.5-2.3-2.4-3.3C185.1,132.3,184.3,132.1,183.6,131.9z"/>
	<path class="st2" d="M202.6,117.2c0.8,0.7,1.7,1.4,2.6,1.9c0.4,0.2,1,0.1,1.5,0.1c0-0.5,0.2-1.1,0-1.5c-1.4-2.1-3.5-3.5-5.7-4.6
		c-1-0.5-1.8,0-2.4,0.9c0.1,0.6,0.6,0.6,1,0.8C200.6,115.5,201.9,116,202.6,117.2z"/>
	<path class="st58" d="M202.6,117.2c-0.4-0.6-0.7-1.3-1.3-1.7c-0.9-0.6-1.9-1-2.8-1.4c-0.3-0.1-0.6-0.3-0.9-0.2
		c-0.3,0.1-0.8,0.3-0.9,0.6c-0.1,0.2,0.1,0.7,0.3,0.9c1.3,0.8,2.7,1.6,4.1,2.3C201.5,117.8,202.1,117.4,202.6,117.2z"/>
	<path class="st26" d="M6.7,197.8c2.4,2.2,5.3,3.4,8.4,4.3c1.4,0.4,2.7,0.4,4-0.1c2.7-0.9,5.5-1.7,8.1-2.8c1.6-0.7,3-1.8,4.3-2.9
		c0.5-0.4,0.6-1.3,0.9-2c1.1-2.7,2.1-5.5,4.3-7.6c0.1-0.1,0.1-0.6,0-0.8c-0.9-2-1.8-4.1-2.7-6.1c-1.1,2.1-0.3,4,0.4,5.9
		c0.1,0.4,0,0.9-0.2,1.3c-1.2,1.8-2.5,3.5-3.6,5.4c-0.8,1.3-1.9,2.4-3.3,3.1c-3,1.4-5.9,3-9,4c-1.6,0.5-3.5,0.1-5.3,0
		c-1-0.1-1.9-0.6-2.8-1C9.1,197.6,7.9,197.4,6.7,197.8z"/>
	<path class="st26" d="M51.8,108.8c-1.4-2.3-3.5-3.9-5.5-5.5c-0.6-0.4-0.8-0.6,0-1.1c1.2-0.7,2.2-1.6,3.7-1.8
		c-0.3-1.5-0.7-2.9-1-4.5c-0.2,0.2-0.4,0.4-0.7,0.6c-1.4,0.9-2.6,2.1-4.1,2.7c-2.2,1-3.6,0.2-4.7-1.9c-0.2-0.3-0.6-0.7-1-0.8
		c-0.8-0.2-1.2-0.6-0.9-1.4c-0.7-0.1-0.5,0.4-0.6,0.8c-0.3,1.1-0.2,2.2,0.1,3.3c1.3,2.2,2.7,4.2,5.1,5.4c2.4,1.2,4.7,2.6,6.3,4.8
		c0.1,0.2,0.6,0.3,0.9,0.2C50.1,109.4,50.9,109.1,51.8,108.8z"/>
	<path class="st1" d="M36.9,99.2C37,98.1,37,97,37.1,96c0-0.3,0.2-0.5,0.3-0.8c0.9-0.7,1.8-0.7,2.8,0c2.8-0.7,5.2-2.1,6.7-4.7
		c0.2-0.3,0.3-0.6,0-0.9c-1.1-1.4-2.7-2.1-4.4-2.5c-0.3-0.1-0.7,0.1-1,0.3c-1.6,1.2-3.1,2.4-5,3.2c-1.2,0.6-2.1,2.4-1.7,4
		C35.4,96.2,36.3,97.7,36.9,99.2z"/>
	<path class="st26" d="M46.9,89.6c-0.7,2.1-2.4,3.2-4.1,4.2c-0.9,0.5-1.8,0.9-2.6,1.4c0.5,0.7,0.9,1.5,1.4,2.2
		c0.1,0.2,0.4,0.3,0.6,0.2c1.9-0.4,3.6-1.2,4.8-2.6C48.3,93.5,48.2,91.1,46.9,89.6z"/>
	<path class="st59" d="M48.7,84.5c-0.5,0.7-1,1.4-1.4,2.2c1.6,1.5,2.5,3.3,2.6,5.5c1.2-0.6,1.1-0.6,0.8-1.7
		C49.9,88.5,49.3,86.5,48.7,84.5z"/>
	<path class="st1" d="M217.9,196.4c0.1-0.6,0.3-1.1,0.3-1.7c0-1-0.2-2.1-0.2-3.1c0.2-2,0.8-2.6,2.8-3c0.4-0.1,0.7-0.2,1.3-0.3
		c-0.8-0.5-1.5-0.9-2.1-1.4c-0.6-0.4-1.1-1.1-0.5-1.7c0.3-0.3,1.1-0.1,1.7-0.1c0.1,0,0.2,0.1,0.3,0.2c0.9,0.9,1.6,0.6,2.5-0.2
		c0.6-0.6,1.6-0.9,2.3-1.4c0.7-0.5,1.5-0.9,2.1-1.5c0.3-0.3,0.5-1,0.4-1.2c-0.3-0.4-1.1-0.9-1.4-0.8c-3.4,1.1-7.2,0.1-10.4,2.1
		c-0.3,0.2-0.6,0.2-0.9,0.4c-1.8,0.9-3.6,1.8-5.4,2.8c-1.6,0.5-2.1,1.9-2.4,3.4c-0.1,0.5,0,1,0,1.4c-0.1,0.9,0.3,1.4,1.2,1.7
		c2.3,0.8,4.3,2.1,6,3.8C216.1,196.4,216.9,196.7,217.9,196.4z"/>
	<path class="st26" d="M217.9,196.4c-1,0.1-1.8-0.4-2.5-1.1c-1.8-1.8-3.9-3.1-6.2-3.9c-0.3-0.1-0.6-0.6-0.7-0.9
		c-0.3-2.1,0.4-3.8,2.1-5.1c-0.1,0-0.2,0-0.4-0.1c-0.5-0.2-1.1-0.7-1.4-0.6c-0.7,0.3-1.2,0.9-1.7,1.4c-1.6,2-1.4,4.3-0.6,6.6
		c0.3,0.9,0.6,1.7,1.8,2.1c1.4,0.5,2.4,1.9,3.7,2.8c2,1.4,4,2.9,6.2,4.1c0.8,0.5,2.1,0.6,3.1,0.4c3.4-0.6,6.4-2.3,9.3-4.2
		c1.1-0.7,1.6-1.7,1.5-3c-0.4-0.3-0.7,0-1,0.2c-3.4,2.7-7.2,2.9-11.3,2.4c-0.1,0-0.2,0-0.2,0c-1,0.9-1.9,1.1-2.9,0.3
		c-0.3-0.2-0.4-0.6-0.6-0.9c0.3-0.1,0.6-0.3,0.9-0.4C217.4,196.5,217.7,196.5,217.9,196.4z"/>
	<path class="st1" d="M219.8,197.6c0.3,0.2,0.7,0.5,1,0.5c2-0.1,4,0,5.9-0.4c1.7-0.4,3.2-1.5,4.8-2.3c0.2-0.1,0.5-0.3,0.7-0.4
		c-0.1-1.8-0.2-3.6-0.3-5.3c0-0.3-0.5-0.6-0.7-0.7c-0.8-0.1-1.6-0.2-2.3-0.1c-2.5,0.5-5,1.2-7.6,1.6c-1,0.2-1.4,0.6-1.3,1.5
		c0,0.6,0.1,1.2,0.1,1.8C220.1,195.1,219.9,196.3,219.8,197.6z"/>
	<path class="st7" d="M229.3,107.9c-0.2,0-0.6,0.1-1,0.3c-0.3,0.2-0.6,0.6-0.6,0.9c0,0.3,0.4,0.6,0.7,0.8c0.2,0.2,0.5,0.2,0.8,0.2
		c2.1,0.3,3.5,1.5,4.4,3.4c0.2,0.4,0.8,0.7,1.3,1c0.2-0.5,0.6-1,0.5-1.5C235.1,110.3,232.4,107.9,229.3,107.9z"/>
	<path class="st60" d="M226.4,113.5c-3.6,0.2-5.8,1.9-7.1,4.8c-0.1,0.3-0.2,0.6-0.2,0.9c0,0.3,0.2,0.6,0.3,1
		c0.3-0.2,0.6-0.3,0.8-0.6c1.3-2.2,3.1-3.7,5.7-4.1c0.2,0,0.4,0,0.5-0.1c0.4-0.4,0.7-0.9,1-1.3C226.9,113.9,226.5,113.6,226.4,113.5
		z"/>
	<path class="st60" d="M10.8,135.3c0,0.2,0,0.8,0.3,1.3c0.2,0.4,0.7,0.7,1,1c0.3-0.4,0.6-0.7,0.8-1.2c0.1-0.2,0-0.5,0.1-0.8
		c0.1-1.7,0.8-3.1,2.3-4c0.1-0.1,0.3-0.2,0.4-0.3c0.5-0.5,1.4-0.8,0.9-1.7c-0.5-0.9-1.4-0.6-2.1-0.3
		C12.3,130.3,10.8,132.6,10.8,135.3z"/>
	<path class="st61" d="M22.3,132.8c-0.7,0.2-1.7,0.3-2.7,0.6c-0.3,0.1-0.7,0.7-0.7,1c0.1,0.3,0.6,0.6,1,0.8c0.3,0.1,0.7,0,1.1-0.1
		c2.4-0.6,4.5,0.2,6.5,1.6c0.3,0.2,0.7,0.2,1,0.3c0-0.4,0.1-0.9-0.2-1.2C26.9,133.9,25,132.9,22.3,132.8z"/>
	<path class="st2" d="M41.9,182.9c0.8,1.6,1.6,3.2,2.5,4.7c0.7,1.1,1.8,1.5,3.1,1.3c3.4-0.7,6.6-2,9.7-3.6c2.1-1,4.3-1.7,6.4-2.6
		c0.3-0.1,0.5-0.2,0.8-0.3c-1.9-1.4-3.7-0.3-5.6,0.2c-2.9,0.8-5.9,1.6-8.8,2.4c-0.8,0.2-1.7,0.5-2.5,0.9c-0.7,0.3-1.3,0.2-1.8-0.4
		c-0.3-0.4-0.6-0.7-0.9-1.1C44.3,183.3,43.3,182.7,41.9,182.9z"/>
	<path class="st62" d="M38.3,184.4c0.9,1.5,1.5,3.3,3.5,3.8c-0.7-1.8-1.4-3.5-2-5.2C39.2,183.4,38.8,183.9,38.3,184.4z"/>
	<path class="st63" d="M144,218.5c-0.5-0.3-1-0.6-1.5-1c-0.3,0.6-0.5,1.1-0.8,1.7c0.6,1.6,1.1,3.1,1.8,4.7c0.8,1.8,2,3.4,3.8,4.3
		c0.3,0.2,0.7,0.4,1.1,0.4c0.3,0,0.6-0.3,0.9-0.4c-0.2-0.2-0.3-0.6-0.5-0.7C145.5,225.4,144.2,222.2,144,218.5z"/>
	<path class="st64" d="M156.6,246.8c0-0.3,0-0.6,0-0.9c-0.1-0.5-0.2-1-0.3-1.5c-0.3-1.4-1-1.6-2-0.6c0.1,0.9,0.1,1.7,0.2,2.6
		c0.2,0.7,0.3,1.5,0.6,2.2c0.3,1,1,1.2,1.8,0.5C156.7,248.2,156.6,247.5,156.6,246.8z"/>
	<path class="st65" d="M106.6,279.7c0.3-1.1,0.6-2.2,0.7-3.3c0.1-0.4-0.2-0.8-0.3-1.2c-0.4,0.2-0.9,0.4-1.1,0.7
		c-0.9,1.5-0.7,3.2-0.6,4.9c0,0.3,0.4,0.7,0.6,0.7c0.3,0,0.7-0.3,0.9-0.6c0.2-0.3,0.1-0.7,0.2-1
		C106.8,279.8,106.7,279.8,106.6,279.7z"/>
	<path class="st65" d="M110.1,297.6c-0.3-1.3-0.4-2.4-0.7-3.3c-0.1-0.4-0.6-0.6-1-0.9c-0.3,0.4-0.8,0.8-0.8,1.2
		c0,1.1,0.2,2.3,0.5,3.4c0.1,0.3,0.6,0.6,1,0.8C109.5,298.4,109.9,298,110.1,297.6z"/>
	<path class="st66" d="M115.8,255.6c1.4-0.3,2.8-3.2,2-4.4c-0.2-0.3-0.9-0.3-1.3-0.4c-0.4,1-0.9,2-1.2,3.1
		C115.2,254.5,115.6,255.1,115.8,255.6z"/>
	<path class="st66" d="M152.5,230c1.3,0.1,1.5-0.1,1.4-1.4c-0.1-0.9-0.2-1.9-0.5-2.8c-0.1-0.4-0.7-0.7-1.1-1.1
		c-0.2,0.3-0.6,0.6-0.6,0.8C151.8,227,152.2,228.5,152.5,230z"/>
	<path class="st66" d="M114.5,325.2c0.1-0.4,0.4-0.8,0.3-1.2c-0.3-1.4-0.7-2.8-1-4.2c-1.1-0.2-1.4,0.4-1.3,1.3
		c0.1,1.1,0.4,2.2,0.6,3.3C113.2,325.1,113.7,325.5,114.5,325.2z"/>
	<path class="st65" d="M151.9,220.1c0.2-0.5,0.7-1.1,0.6-1.6c-0.1-1-0.3-2-0.7-3c-0.1-0.3-0.7-0.5-1-0.7c-0.2,0.4-0.4,0.8-0.5,1.2
		c-0.1,0.4,0.1,0.8,0.1,1.3c0.1,0.5,0,1.1,0.3,1.6C151,219.4,151.5,219.7,151.9,220.1z"/>
	<path class="st67" d="M110.3,268.9c0.2-0.6,0.3-1.3,0.5-1.9c-0.7-0.8-1.3-0.4-1.7,0.3c-0.5,1.1-1,2.3-1.3,3.5
		c-0.1,0.3,0.2,0.7,0.3,1c0.3-0.2,0.7-0.2,0.9-0.5c0.4-0.4,0.6-1,0.8-1.5C110.1,269.6,110.3,269.3,110.3,268.9z"/>
	<path class="st65" d="M111.4,304.2c-0.2-0.4-0.3-0.9-0.5-1.3c-0.2-0.3-0.6-0.4-0.9-0.7c-0.2,0.3-0.5,0.6-0.5,0.9c0,1,0.1,2,0.3,2.9
		c0.1,0.4,0.6,0.8,1,1.2c0.3-0.4,0.6-0.8,0.9-1.2C111.9,305.4,111.7,304.8,111.4,304.2z"/>
	<path class="st65" d="M115.7,331.5c-0.2-1.1-0.4-2.1-0.7-3.2c-1.2-0.4-1.6-0.2-1.5,1c0.1,0.9,0.2,1.9,0.5,2.8
		c0.1,0.4,0.6,0.6,0.9,1c0.3-0.4,0.5-0.8,0.7-1.2C115.8,331.9,115.7,331.7,115.7,331.5z"/>
	<path class="st68" d="M111.9,263.6c0.3-0.2,0.7-0.4,0.9-0.7c0.5-0.9,0.9-1.8,1.2-2.7c0.1-0.4-0.1-0.9-0.2-1.4c-0.2,0-0.3-0.1-0.5,0
		C112.2,259.1,111.2,262.6,111.9,263.6z"/>
	<path class="st69" d="M113.2,315.4c0-0.5,0-1,0-1.5c-0.1-0.8,0.1-1.7-0.5-2.4c-0.4-0.2-0.8-0.4-1.1-0.6c-0.1,0.4-0.4,0.9-0.4,1.3
		c0.1,0.9,0.4,1.9,0.7,2.8C112,315.8,112.5,316.3,113.2,315.4z"/>
	<path class="st70" d="M108.2,289.6c-0.4-1.2-0.7-2.3-1.2-3.3c-0.1-0.2-0.6-0.3-0.9-0.5c-0.1,0.3-0.4,0.6-0.4,0.9
		c0.2,1.1,0.4,2.1,0.7,3.1c0.1,0.3,0.7,0.6,1,0.6C107.8,290.4,108,289.9,108.2,289.6z"/>
	<path class="st66" d="M153.7,238.8c0.8,0.1,1.2-0.3,1.1-1.1c-0.1-1-0.1-1.9-0.2-2.9c-0.1-0.9-0.6-1.2-1.4-0.8
		C153.3,235.7,153.5,237.3,153.7,238.8z"/>
	<path class="st71" d="M111.4,304.2c0.1,0.6,0.2,1.3,0.3,1.9c0.2,0.1,0.3,0.2,0.5,0.2c-0.2-1-0.3-1.9-0.5-2.9
		C111.6,303.7,111.5,303.9,111.4,304.2z"/>
	<path class="st72" d="M112.6,311.6c0.2,0.8,0.3,1.6,0.5,2.4c-0.1-0.9-0.2-1.8-0.3-2.6C112.8,311.4,112.7,311.5,112.6,311.6z"/>
	<path class="st73" d="M110.3,268.9c-0.2,0.3-0.3,0.6-0.5,1c0.1,0.2,0.1,0.3,0.2,0.5C110.1,269.8,110.2,269.4,110.3,268.9z"/>
	<path class="st74" d="M145.9,361c2.9-0.3,6.1-0.7,9.3-1.1c0.8-0.1,2.1-0.3,1.9-1.2c-0.2-1-1.3-0.1-1.9,0c-4.6,0.8-9.2,1.3-13.9,0.9
		c-0.3,0-0.5,0.2-0.8,0.3c0.2,0.2,0.4,0.6,0.6,0.6C142.6,360.7,144.1,360.8,145.9,361z"/>
	<path class="st74" d="M152.9,348.8c-2.7-1.6-5.6-1.4-8.5-1c-0.4,0.1-0.7,0.8-1.1,1.2c0.4,0,0.8,0.2,1.1,0.1
		c2.4-0.5,4.8-0.4,7.2,0.3C152.2,349.5,153,350,152.9,348.8z"/>
	<path class="st75" d="M146.9,345.7c1.2,0.3,2.4,0.6,3.7,0.8c0.3,0.1,0.7-0.1,1.1-0.1c-0.2-0.3-0.3-0.8-0.6-0.9
		c-1.9-1.1-3.9-0.8-5.9-0.1c-0.2,0.1-0.2,0.3-0.3,0.5c0.2,0,0.4,0.1,0.5,0.1c0.5,0,0.9-0.1,1.4-0.2
		C146.9,345.8,146.9,345.8,146.9,345.7z"/>
	<path d="M119.2,115.8c3.3-0.5,6.1-2.1,7.8-5.3c0.8-1.6,1.3-3.3,2-4.9c0.2-0.4,0.5-0.7,0.9-0.9c0.6-0.4,0.7-0.8,0.4-1.4
		c-0.5-0.8-2.2-1.3-3-0.9c-0.2,0.1-0.6,0.4-0.6,0.5c0.3,1.2-0.8,1.1-1.4,1.3c-4.7,1.5-9.5,2.4-14.4,0.8c-1-0.3-1.5,0.1-1.2,1.1
		c0.3,1.1,0.8,2.1,1.4,3c0.6,1.2,1.4,2.3,2.1,3.4C114.4,114.8,116.5,115.5,119.2,115.8z"/>
	<path class="st19" d="M113.6,84.3c-0.3-1.3-0.5-2.7-1-4c-0.3-1-1.1-1.5-2.3-1.2c-0.9,0.3-1.6-0.1-2.2-0.9c-0.4-0.5-0.9-1-1.5-0.4
		c-0.7,0.6-0.4,1.3,0.1,1.8c0.5,0.4,1.2,0.6,1.7,1c0.2,0.2,0.5,0.5,0.5,0.8c0,1.9-0.1,3.8-0.1,5.7c0,0.5,0.1,1.1,0.4,1.5
		c0.5,0.6,1.1,1.4,1.7,1.4c0.6,0,1.5-0.8,1.7-1.4C113.2,87.3,113.3,85.8,113.6,84.3z"/>
	<path class="st76" d="M128.7,84.1c-0.3-1.2-0.5-2.6-1-3.9c-0.3-0.9-1.1-1.4-2.2-1.1c-0.9,0.2-1.6-0.1-2.2-0.8
		c-0.4-0.5-0.9-1.1-1.6-0.4c-0.6,0.6-0.3,1.3,0.2,1.8c0.4,0.4,0.9,0.7,1.4,0.8c0.9,0.1,0.7,0.6,0.7,1.3c-0.1,2.1-0.1,4.1,0.1,6.2
		c0.1,1,0.7,2.1,1.9,2.1c1.1,0,1.7-1,1.9-2C128.4,86.8,128.5,85.6,128.7,84.1z"/>
	<path class="st26" d="M146.9,88.4c-0.5,0.6-1.2,1.1-1.4,1.8c-0.3,1.5-0.5,3-0.5,4.6c0,1,1,1.9,2,2c0.9,0.1,2.1-0.7,2.2-1.6
		c0.3-1.8,0.5-3.7,0.5-5.6c0-0.5-0.8-1-1.2-1.5c-1,1.6-1.5,3.3-1.5,5.2c0,0.2,0,0.3,0,0.5c-0.1,0.5-0.2,1-0.8,1
		c-0.6,0-0.6-0.5-0.6-1c0-1.4,0.4-2.8,1-4C146.8,89.2,147.1,88.9,146.9,88.4z"/>
	<path class="st8" d="M146.9,88.4c-1.1,1.6-1.7,3.4-1.7,5.3c0,0.5,0.5,1.2,1,1.3c0.8,0.2,1.1-0.5,1.1-1.2c0-1.8,0.2-3.6,1.2-5.3
		c0.1-0.2,0-0.5,0-0.7C148,88.1,147.5,88.3,146.9,88.4z"/>
	<path class="st74" d="M119.1,119.3c1.7-0.1,3.1-0.6,4.2-1.9c0.2-0.3,0.2-0.7,0.3-1.1c-0.3,0.1-0.8,0-1,0.2c-1.6,1.3-3.3,1.3-5,0.6
		c-0.2-0.1-0.4-0.3-0.7-0.3c-0.5,0-0.9,0.2-1.4,0.3c0.2,0.5,0.3,1.2,0.7,1.3C117.1,118.9,118.2,119,119.1,119.3z"/>
	<path class="st3" d="M152.4,65.8c0.2,3.7-0.3,7.2-2,10.6c-0.2,0.3-0.1,0.7-0.2,1.1c0.4-0.2,0.9-0.2,1.1-0.5c1.8-1.8,2.6-4,2.9-6.4
		c0.3-2.3,0.2-4.6,0.3-6.9c-0.6-2-1.1-4-1.8-6c-0.2-0.6-0.7-1.3-1.2-1.7c-0.4-0.3-1.1-0.2-1.7-0.3c0,0.5-0.2,1.2,0,1.6
		c1.4,2.2,2.1,4.5,2.4,7C152.4,64.8,152.4,65.3,152.4,65.8z"/>
	<path class="st39" d="M109.8,55.8c1.8,0,2.8-0.8,2.9-2.1c0.1-1.4-0.6-2.1-2.3-2.3c-1.5-0.2-2.9-0.6-4.3-0.9
		c-0.6-0.1-1.3-0.3-1.9-0.2c-0.6,0.1-1.6,0.5-1.7,0.9c-0.2,0.6,0,1.9,0.4,2.1c1.5,0.9,3.2,1.5,4.8,2.2
		C108.5,55.8,109.3,55.7,109.8,55.8z"/>
	<path class="st39" d="M124.3,57.2c2.6,0,4-1.6,3.1-3.3c-0.9-1.7-2.6-1.1-4.1-1.3c-1.1-0.1-1.9,0.3-2.4,1.3c-0.5,1.1-0.2,2.2,1,2.7
		C122.8,56.9,123.7,57,124.3,57.2z"/>
	<path class="st76" d="M161.8,50.8c-0.5,1,0.4,1.3,0.9,1.7c2.4,1.8,4.6,3.9,6.2,6.5c1.1,1.8,1.8,3.8,2.7,5.7
		c0.3,0.7,0.3,1.9,1.4,1.6c1-0.3,0.4-1.4,0.3-2.1c-0.8-3.4-2.6-6.3-4.9-8.9c-0.4-0.4-0.7-0.8-1.1-1.3c-1.1-0.9-2.2-1.8-3.4-2.6
		C163.3,51,162.5,51,161.8,50.8z"/>
	<path class="st77" d="M169.3,71c-0.3-3.1-1.1-5.6-2.6-7.8c-0.2-0.3-0.6-0.4-0.9-0.6c-0.1,0.4-0.2,0.7-0.2,1.1c0.5,2.3,1,4.7,1.5,7
		c0.2,0.7,0.5,1.4,1.3,1.2C168.9,71.7,169.2,71.1,169.3,71z"/>
	<path class="st0" d="M127.4,105.3c-2.6,0.7-5.1,1.6-7.6,2c-2.5,0.3-5.1,0.1-8.1,0.1c1.2,1.9,2,3.7,3.3,5.1c1.6,1.9,4.3,2,6.8,0.4
		c1.4-0.9,2.5-2.2,3.5-3.5C126.1,108.2,126.6,106.7,127.4,105.3z"/>
</g>
</svg>
