<?xml version="1.0" encoding="utf-8"?>
<!-- Generator: Adobe Illustrator 25.2.2, SVG Export Plug-In . SVG Version: 6.00 Build 0)  -->
<svg version="1.1" id="Mr_x5F_Weber_x5F_explain_xA0_Image_1_"
	 xmlns="http://www.w3.org/2000/svg" xmlns:xlink="http://www.w3.org/1999/xlink" x="0px" y="0px" viewBox="0 0 211.4 349.1"
	 style="enable-background:new 0 0 211.4 349.1;" xml:space="preserve">
<style type="text/css">
	.st0{fill:#FAE3E3;}
	.st1{fill:#575757;}
	.st2{fill:#177991;}
	.st3{fill:#F6DCC3;}
	.st4{fill:#A1725F;}
	.st5{fill:#11586A;}
	.st6{fill:#FEFEFE;}
	.st7{fill:#3F3F3F;}
	.st8{fill:#B9B9B9;}
	.st9{fill:#B3A08E;}
	.st10{fill:#765345;}
	.st11{fill:#755345;}
	.st12{fill:#755244;}
	.st13{fill:#755245;}
	.st14{fill:#FCFCFC;}
	.st15{fill:#5B5B5B;}
	.st16{fill:#B4B4B4;}
	.st17{fill:#576164;}
	.st18{fill:#799AA2;}
	.st19{fill:#061C22;}
	.st20{fill:#529BAD;}
	.st21{fill:#000101;}
	.st22{fill:#000203;}
	.st23{fill:#000102;}
	.st24{fill:#000202;}
	.st25{fill:#010304;}
	.st26{fill:#010506;}
	.st27{fill:#4D98AB;}
	.st28{fill:#010100;}
	.st29{fill:#010101;}
	.st30{fill:#030302;}
	.st31{fill:#050404;}
	.st32{fill:#040303;}
	.st33{fill:#020101;}
	.st34{fill:#030201;}
	.st35{fill:#0A0706;}
	.st36{fill:#010405;}
	.st37{fill:#000303;}
	.st38{fill:#010303;}
	.st39{fill:#030303;}
	.st40{fill:#020202;}
	.st41{fill:#926756;}
	.st42{fill:#FDFDFD;}
	.st43{fill:#9C6E5C;}
	.st44{fill:#9B6D5B;}
	.st45{fill:#735143;}
</style>
<g>
	<path d="M79.2,284.8c-1.2,0.1-1.7-0.5-1.7-1.6c0-1.9-0.1-3.9-0.2-5.8c0-0.3-0.1-0.7-0.2-1c-0.6-1.8-1.2-3.6-1.9-5.3
		c-0.9-2.3-0.9-4.6-0.6-7.1c0.2-2.1,0.3-4.3,0.2-6.5c-0.3-9.9-0.4-19.7-0.9-29.6c-0.4-9.1-1.2-18.2-0.8-27.3c0-0.4,0-0.9,0.1-1.3
		c0.1-0.7,0-1.1-0.7-1.4c-1.1-0.4-1.1-1.4-1.1-2.4c0-11.8,0.1-23.7,0-35.5c0-3.6-0.2-7.3-0.6-10.9c-0.4-3.3-1.2-6.6-1.8-9.9
		c-0.2-1.1-0.2-2.2-0.2-3.3c0-0.6-0.2-0.8-0.9-0.7c-2.3,0.6-4.7,1.1-7,1.6c-1.8,0.4-2.2,0.3-3.3-1.2c-0.6-0.9-1-2.2-1.8-2.5
		c-0.7-0.3-1.9,0.6-2.9,0.9c-3.9,1.1-7.9,2-12,2.1c-2.3,0.1-4-0.8-5.4-2.7c-2.2-3.2-4.9-6.1-7.1-9.3c-4.1-5.9-7.4-12.2-9.9-19
		c-1-2.7-2-5.5-3.1-8.2c-0.5-1.2-1.3-2.3-2-3.4c-0.2-0.3-0.4-0.6-0.7-0.6c-2.7-0.9-3.9-3.3-5.4-5.4c-0.4-0.6-0.8-0.9-1.5-0.9
		c-1.4-0.1-2.5-0.7-3.2-1.9c-1.4-2.4-2.6-4.8-2.5-7.6c0-1.4,0.6-2.4,1.7-3.2c1.7-1.1,3.3-2.3,4.8-3.5c0.1-0.1,0.1-0.6,0-0.9
		c-1-1.9-2.1-3.8-3.1-5.7c-0.8-1.7-0.4-3.3,0.9-4.5c1.1-1.1,2.5-1,3.4,0.2c2.6,3.3,5.1,6.6,7.7,9.9c0.1,0.2,0.3,0.3,0.5,0.5
		c0.1-0.2,0.3-0.4,0.3-0.6c0.2-0.7,0.2-1.3,0.4-2c0.4-1.6,1.5-2.5,2.9-2.9c1.4-0.4,3.4,1.1,3.2,2.5c-0.2,2.6,0.5,5,1.4,7.4
		c0.6,1.6,0.8,3.2,0.4,4.9c-0.5,2.3-0.9,4.6-1.4,6.9c-0.2,1,0,1.6,0.5,2.4c3.9,6.2,9.3,11.1,14.5,16.1c2,1.9,3.8,3.9,5,6.4
		c0.3,0.6,0.6,0.7,1.2,0.5c1.3-0.4,2.8-0.5,4-1.2c4.6-2.8,10.1-3.5,14.6-6.4c2.2-1.4,4.6-1.8,6.9-2.5c3-0.8,6-1.4,8.9-2.3
		c1.4-0.4,2.9-1,4.1-1.8c2.2-1.4,4.6-2,7-2.6c0.4-0.1,1.1,0.1,1-0.7c-0.1-0.7,0.2-1.3-0.7-1.8c-2.4-1.4-4.8-2.9-7-4.6
		c-4.1-3.1-6-7.5-6.4-12.5c-0.4-4.8-0.5-9.6-0.7-14.4c-0.3-7.1-0.5-14.2-0.8-21.3c0-0.6-0.2-0.8-0.8-0.7c-0.8,0.2-1.6,0.3-2.4,0.5
		c-0.8,0.2-1.3,0-1.4-0.8c0-0.9-0.1-1.8,0.2-2.6c0.2-0.8,0-1-0.7-1.2c-1.8-0.5-3.5-1.2-4.7-2.7c-0.9-1.1-0.8-1.5,0.6-2
		c1-0.3,1.8-0.9,2.6-1.3c-1.2-1-2.3-1.8-3.3-2.9c-0.9-1-0.5-1.9,0.8-2c2-0.1,2.9-1.1,3.3-3c0.6-2.9,1.9-5.5,4.2-7.5
		c0.3-0.3,0.4-0.8,0.5-1.3c0.3-1.8,0.8-3.3,2.6-4.2C77,7.7,77.2,7.3,77.2,7c0.3-2.7,2.1-4.6,3.9-6.4c0.6-0.6,1.4-0.4,1.8,0.3
		c0.1,0.3,0.2,0.6,0.3,0.9c0.2-0.1,0.3-0.2,0.4-0.3c1.9-1.9,1.8-1.8,4.2-0.6c1.1,0.5,2.3,0.8,3.5,0.9c4.1,0.3,8.1-0.8,12.1-1.3
		c2.8-0.4,5.7-0.6,8.6-0.4c4,0.2,7.7,1.5,10,5.3c0.2-0.3,0.3-0.4,0.4-0.6c0.8-1.2,2-1.2,2.6,0.1c0.5,1.1,0.8,2.3,1,3.5
		c0.1,0.7,0.2,1,1,1.1c1.7,0.2,3.2,1.1,4.3,2.4c0.9,1,0.7,2-0.7,2.3c-0.2,0-0.4,0.1-0.6,0.1c-0.8,0.1-1.1,0.3-0.5,1.1
		c0.5,0.7,1,1.4,1.5,2.2c2.9,4.6,3.4,9.6,2.5,14.8c-0.8,4.5-1.8,8.9-2.8,13.3c-0.2,0.8-0.2,1.3,0.5,2c2,2,2,4.5,1.6,7.1
		c-0.8,4.2-3.4,7.2-6.6,9.7c-0.6,0.5-0.8,0.9-0.9,1.7c-0.2,2.9-0.5,5.7-0.8,8.6c-0.4,4.4-2.2,8.1-5.1,11.4c-0.4,0.5-0.6,1.2-0.7,1.8
		c-0.1,2,0,4,0,6c0,0.7,0.2,1,0.9,1.3c8.2,2.7,16.3,5.9,23.7,10.5c0.1,0.1,0.3,0.1,0.4,0.2c3.3,0.9,5.2,3.2,6.6,6
		c1.5,3.1,3,6.3,4.3,9.5c1.7,4,3.7,7.8,6.2,11.3c0.9,1.3,1.5,2.8,0.6,4.4c-0.1,0.2,0.1,0.7,0.2,0.8c0.3,0.1,0.6,0,0.9-0.2
		c4-2.8,7.9-5.6,11.8-8.4c1.9-1.3,4-2.6,6-3.8c0.7-0.4,1-0.9,1-1.7c0.1-2.1,0.4-4.2,0.4-6.3c0-1.6,0.7-2.8,1.8-3.9
		c0.6-0.5,1.2-1,1.8-1.6c1.1-1.3,2.3-2.6,3.3-4.1c0.7-1,1.4-1.9,2.8-2.1c1.6-0.2,2.7,0.6,2.7,2.2c0,1.8-0.3,3.7-0.4,5.6
		c2.2-0.2,4.5-0.6,6.7-1.9c2.1-1.3,4.5-2.3,6.9-3c2.7-0.9,4,0.3,4.1,3.1c0,1.8-0.1,3.6-0.2,5.4c-0.2,2.9-1.4,5.3-3.4,7.3
		c-1.2,1.2-2.4,2.5-3.5,3.8c-1.5,1.7-3.4,2.5-5.7,2.7c-2.1,0.1-4.2,0.5-6.3,0.7c-1,0.1-1.7,0.6-2.2,1.4
		c-5.4,7.3-10.8,14.6-16.3,21.8c-2.4,3.1-4.9,6.2-8.4,8.3c-1.2,0.7-2.6,1.3-3.8,2c-1.9,1.1-3.7,0.6-5.4-0.5
		c-4.2-2.7-7.5-6.3-10.5-10.2c-0.9-1.1-1.6-2.3-2.4-3.4c-0.2-0.2-0.5-0.6-0.8-0.5c-2.4,0.2-2.4,0.2-3.9-1.6
		c-0.5,2.7-1.1,5.2-1.5,7.7c-0.7,5.3-1.6,10.7-2,16c-0.2,2.8,0.3,5.6,0.6,8.4c0.5,3.4,1.2,6.8,1.7,10.3c0.2,1.7,0.1,3.5,0.1,5.3
		c0,0.3-0.1,0.6-0.2,0.8c-1,1.1-0.8,2.5-0.8,3.8c-0.1,10.5-0.6,20.9-1.7,31.3c-0.5,4.8-0.6,9.6-0.9,14.4c-0.3,5.5-0.7,11-1.1,16.5
		c-0.1,1.3-0.1,2.6-0.1,4c0,0.5,0.1,1,0.3,1.4c1,1.4,1,2.9,0.5,4.5c-0.5,1.7-0.4,3.4-0.1,5.2c0.5,2.7,0.8,5.5,0.8,8.3
		c0.1,6.9,0,13.7,0.1,20.6c0,2.2,0.2,4.3,0.3,6.5c0.1,1.5,0.6,2.8,1.5,3.9c0.8,1,0.8,2,0.2,3.1c-0.6,1.1-1.2,2.2-1.7,3.3
		c-0.1,0.2-0.2,0.4-0.3,0.5c-1.4,0.4-1,1.5-0.8,2.4c0.6,2.6,1.3,5.3,1.9,7.9c0.9,1.5,1.1,3.2,1.3,4.9c0.1,0.7-0.2,1.2-0.9,1.5
		c-1.1,0.1-1.8-0.4-2-1.4c-0.6-3.1-1.7-6.1-2.4-9.3c-0.3-1.5-0.6-3-0.6-4.6c0-1-0.4-1.7-1.3-2.2c-0.7-0.3-1.3-0.7-1.9-1.1
		c-3.4-2.1-6.9-1.7-10.5-0.9c-0.7,0.1-1.3,0.4-1.7,1c-1.3,1.2-1.7,2.9-2.2,4.6c-0.9,3.1-1.8,6.3-2.9,9.4c-0.5,1.3,0,2.5,1.4,3.4
		c2.2,1.4,4.7,1.8,7.3,2.1c3.4,0.4,6.8,0,10.1-0.6c0.5-0.1,1-0.2,1.5,0c1.2,0.9,1.1,1.8-0.1,2.4c-0.6,0.3-1.3,0.5-1.9,0.6
		c-2,0.3-4,0.7-6,0.6c-2.2,0-4.4-0.3-6.5-0.7c-2.3-0.5-4.5-1.3-6.4-2.9c-0.4,1.2-0.2,1.7,0.9,2.3c1.5,0.8,3.2,1.3,4.8,1.7
		c1.3,0.3,2.7,0.5,4,0.6c4.2,0.7,8.2-0.3,12.3-1.1c1.1-0.2,1.9-1,2.4-2c0.3-0.7,0.7-1.3,1.6-1.4c1.2,0.5,1.5,1.1,1.2,2.2
		c-0.5,1.8-1.8,2.8-3.4,3.6c-4.3,0.9-8.5,1.8-12.9,1.7c-1-0.3-2-0.1-3-0.2c-2.8-0.1-5.3-1-7.8-2.1c-2.2-0.9-3.4-2.5-3.3-5.1
		c0.1-3,0.9-5.7,1.9-8.5c0.3-0.9,0.7-1.8,0.9-2.7c0.5-1.7,1-3.4,1.6-5c0.2-0.6,0.2-1.1-0.2-1.6c-1.2-1.8-1.6-3.6-1.1-5.8
		c0.6-2.3,0.3-4.8,0.2-7.2c-0.2-4.5-0.6-8.9-0.9-13.4c-0.4-5.6-0.5-11.2-0.7-16.7c0-0.8-0.2-1.5-0.6-2.2c-0.6-1.2-0.8-2.4-0.5-3.6
		c0.6-2.8,0.1-5.4-0.6-8c-0.2-0.7-0.2-1.4-0.5-2.2c-0.5,1.5-0.8,2.9-0.1,4.4c0.7,1.6,0.6,3.2-0.6,4.5c-1.4,1.5-1.7,3.2-1.4,5.2
		c0.6,3.7-0.1,7.3-0.4,11c-0.4,4.8-0.9,9.6-1.1,14.4c-0.2,3.7,0.3,7.3,0.1,11c-0.1,0.9,0.1,1.8,0.4,2.6c0.6,1.4,0.6,2.8,0.7,4.2
		c0.1,0.4,0.1,1-0.1,1.3c-1.1,1.6-0.5,3.3-0.2,5c0,0.3,0,0.6,0,0.8c-0.3,2.8-1.1,5.6-0.9,8.6c0.1,2.1-0.4,2.6-2.5,2.9
		c-2.6,0.4-5.2,0.7-7.9,0.2c-1.3-0.2-2.5-0.6-2.9-2.1c-0.1-0.5-0.5-0.5-1-0.4c-0.9,0.3-1.8,0.7-2.5,1.4c-1.9,1.8-4.2,2.4-6.7,2.5
		c-4.3,0.2-8.5,0.4-12.8,0.2c-3.5-0.1-6.9-0.7-10.1-2.3c-1.6-0.8-2.4-2-2.3-3.7c0.1-2.3,0.3-4.6,1.1-6.8c2.1-2.8,5.2-3.9,8.4-4.3
		c4.5-0.5,8.6-1.9,12.3-4.5c0.7-0.5,0.9-0.9,0.8-1.8c-0.2-1-0.3-2.2,0.1-2.9c1.6-2.5,1.7-5.3,1.8-8.1c0.1-6.7,0-13.3-0.2-20
		c0-1.1,0.4-1.6,1.4-1.8c0.1,0,0.1,0,0.2,0c0.8,0.1,1,0.6,1.1,1.2c0.1,0.8,0.3,1.7,0.3,2.5c0,3.9,0.4,7.9,0.3,11.8
		c0,1-0.3,1.9-0.3,2.9c0,0.9,0,1.7,0,2.6c-0.2,2-0.3,4-0.6,6c-0.2,1.2-0.8,2.2-1.3,3.3c-0.7,1.3-0.5,1.6,0.9,1.5
		c1.3-0.1,2.4,0.3,3.6,0.6c2.8,1.2,5.5,2.6,8.4,3.5c1.6,0.5,1.6,0.5,2.5-0.9c0.1-0.2,0.3-0.4,0.4-0.6c0.4-0.5,0.9-0.8,1.6-0.4
		c0.6,0.4,0.6,1,0.4,1.6c-0.4,1.2-0.4,1.3,0.9,1.3c3.4,0,3.3-0.2,2.5-3.2c-0.8-2.9-1-5.8-1-8.8c0-2.6-0.2-5.2,0-7.8
		c0.2-3.9,0.5-7.8,0.9-11.7c0.5-5.4,1-10.9,0.2-16.4c-0.1-0.5-0.1-1,0-1.4c0.1-1.1,0.5-1.5,1.6-1.7c1-0.1,1.4-0.6,1.2-1.6
		c0-0.2,0,0,0-0.1c-1.1-2.2-0.7-4.3-0.1-6.5c0.5-2,0.9-4,1.3-6c0.2-0.8,0.2-1.6,0-2.5c-0.7-3.8-1.5-7.7-2.1-11.6
		c0-0.1,0-0.2,0.1-0.3c-0.1,0-0.1,0-0.1,0.2c-0.4,0.7-1,1-1.7,0.6c-0.7-0.4-0.6-1-0.5-1.7c0.1-0.5,0.2-1.1,0.4-1.6
		c0.9-2.4,0.5-4.7-0.1-7.1c-0.6-2.4-1.3-4.8-1.8-7.2c-0.2-0.8-0.7-1.1-1.4-1.3c-2.4-0.8-4.7-1.9-6.5-3.6c-0.4-0.4-0.7-0.7-1-1.2
		c-0.3-0.5-0.3-1,0.1-1.5c0.4-0.5,0.9-0.4,1.4-0.3c0.1,0,0.2,0,0.2,0.1c2.3,1.8,5,2.8,7.6,4c1.5,0.7,2.3,2.2,2.8,3.9
		c1.6,6,2.7,12.1,3.8,18.2c1.4,7.9,2.8,15.8,4.3,23.7c0.4,2.1,0.7,4.2,0.3,6.3c-0.1,0.8-0.1,1.6,0.3,2.3c0.8,1.5,1,3.2,0.9,4.9
		c0.1,2-0.2,3.9,0.2,5.9c0.2,3.1,0.3,6.3,0.6,9.4c0.3,3.3,0.4,6.5,0.7,9.8c0.1,1,0.1,2.1,0,3.1c0,0.2,0,0.4,0,0.7
		c0.4,2.7,0.4,5.3-0.2,7.9c-0.1,0.5-0.3,0.9-0.3,1.4c0.2,0.5,0.3,1.1,0.9,0.4c1.9-2.4,4.5-2.7,7.2-2.8c1.2,0,2.3-0.3,3.5-0.2
		c1.9,0.2,3.7,1,5.4,2c1,0.6,2,1,2.9,1.6c0.6,0.3,0.9,0.2,1.3-0.3c0.7-1.2,1-2.3,0-3.5c-0.8-1-1-2.3-1.1-3.5c-0.2-1.5-0.4-3-0.4-4.5
		c0-6.4,0-12.8,0-19.2c0-4.6-0.1-9.1-1.2-13.6c-0.4-1.5,0.1-2.9,0.5-4.2c0.2-1.1,0.2-2-0.2-3c-0.8-1.8-0.7-3.7-0.6-5.7
		c0.2-3.1,0.4-6.3,0.6-9.4c0.3-3.6,0.4-7.2,0.7-10.8c0.1-1.6,0.2-3.3,0.2-4.9c0.1-5.8,1.2-11.5,1.5-17.3c0.2-3.6,0.4-7.2,0.6-10.9
		c0.1-3.2,0.2-6.3,0.2-9.5c0-1.4-0.1-1.5-1.4-1.1c-4.7,1.3-9.5,1.8-14.3,2.4c-6.8,0.8-13.6,0.8-20.5,0.6c-7-0.1-13.9-0.9-20.6-3
		c-1.2-0.4-1.3-0.3-1.3,0.9c0,2,0,3.9,0,5.9c-0.1,5.4,0.2,10.8,0.6,16.3c0.2,2.5,0.3,4.9,0.3,7.4c0.1,5.9,0.4,11.9,0.7,17.8
		c0.1,3,0,6,0.1,9c0.1,3.1,0.1,6.2-0.4,9.3c-0.1,0.6,0,1.3,0.2,1.9c0.3,1.3,0.7,2.6,1.2,3.8c1.1,2.8,1.9,5.6,1.7,8.6
		c0,0.8,0.1,1.5,0.2,2.3c0.1,0.6,0.1,1.3-0.6,1.7C79.5,284.9,79.4,284.9,79.2,284.8z"/>
	<path class="st0" d="M79.2,284.8c0.1,0,0.2-0.1,0.3-0.1c0.7,0.6,0.7,1.2-0.2,1.7c-0.1,0-0.1-0.1-0.2-0.1
		C79.2,285.8,79.2,285.3,79.2,284.8z"/>
	<path class="st1" d="M110,200.4c-0.2,0.1-0.4,0.2-0.6,0.2c-5.8-0.1-11.6-0.1-17.4-0.4c-5.5-0.3-10.9-1.4-16.1-3.1
		c-2.2-0.8-2.3-0.7-2.3-3.1c0-12.7,0-25.3,0-38c0-3.6-0.6-7.1-1.4-10.6c-0.9-4.6-1.5-9.4-2.2-14c-0.1-0.5-0.2-1-0.3-1.5
		c-0.4-1-1-1.1-1.8-0.3c-0.2,1.5-0.2,1.5-1.8,1.7c-1.3,0.2-2.7,0.4-4,0.7c-0.9,0.2-1.5-0.1-2.1-0.8c-2.9-3.4-5.6-7-6.9-11.4
		c0-0.1-0.1-0.1-0.2-0.2c-0.6-2.4-1.2-4.8-1.8-7.2c-0.2-0.9,0.1-1.2,1-1.5c3.6-1.3,7.4-2.4,10.6-4.3c3.7-2.2,7.8-2.7,11.7-3.8
		c1.9-0.5,3.9-0.9,5.8-1.6c1.4-0.5,2.7-1.4,4.2-2.1c1.8-0.8,3.6-1.4,5.4-2.1c0.1,0,0.6,0.3,0.5,0.4c-1,4.5,1.1,7.6,4.4,10.2
		c2,1.6,4.3,2.9,6.9,3.1c1,0.1,2.1,0.1,3.1-0.2c5.6-1.6,10.4-4.5,14-9.3c0.9-1.2,1.4-2.3,0.2-3.9c0.9,0.3,1.5,0.5,2.1,0.7
		c5.3,2.2,10.5,4.4,15.8,6.7c2.7,1.2,5.4,2.4,7.9,4c1.5,1,2.7,2.6,3.5,4.3c1.9,3.7,3.5,7.6,5.2,11.4c1.6,3.5,3.4,6.9,5.9,9.9
		c0.6,0.7,0.5,1.2-0.1,1.7c-1.2,1-2.4,2-3.6,3c-3.1,2.6-6.8,3.9-10.7,4.9c-1.8,0.5-3.2,0.1-4.3-1.5c-1.7-2.4-3.5-4.7-5.3-7
		c-0.2-0.3-0.5-0.7-0.7-0.9c-0.7-0.7-1.4-1.4-2.4-1c-1,0.4-1.6,1.2-1.7,2.3c-0.1,1.2-0.1,2.4,0,3.6c0.4,4,0.5,8,0.9,11.9
		c0.2,1.6-0.2,3.3-0.4,4.9c-0.3,2.6-0.8,5.2-1.3,7.8c-1.1,5.2-0.8,10.4,0.2,15.6c1,5.2,1.6,10.4,2.5,15.6c0.2,1.1-0.2,1.6-1.2,2
		c-1.9,0.8-4,1.2-6,1.7c-2.5,0.3-5,0.6-7.4,0.9c-0.1-0.2-0.2-0.4-0.4-0.5c-1.4-0.4-2.8-0.7-4.2-0.5c-1.5,0.2-3.1,0.5-4.6,1.2
		C109.2,200.1,109.7,199.9,110,200.4z"/>
	<path class="st2" d="M79.4,286.4c0.1-0.6,0.1-1.1,0.2-1.7c0.1-0.4,0.4-0.7,0.3-1.1c0-1.9,0.1-3.8-0.2-5.7c-0.3-1.8-1-3.4-1.5-5.2
		c-0.3-1-0.7-2.1-1.1-3.1c-0.7-1.8-0.4-3.6-0.2-5.4c0.1-1.5,0.3-2.9,0.3-4.4c-0.1-5.9-0.1-11.7-0.4-17.6c-0.4-8.8-0.9-17.7-1.3-26.5
		c-0.1-3,0-6-0.1-9c0.3-0.9,0.6-1.7,1.1-2.5c0.5-0.7,1.1-1,1.9-0.8c0.2,0.1,0.5,0.1,0.7,0.2c6.2,2.3,12.7,3.4,19.3,4.1
		c5.1,0.5,10.3,0.7,15.4,0.5c3.9-0.2,7.8-0.5,11.7-1.3c2.2-0.5,3.7,0.7,3.9,3c0.1,1.6-0.1,3.2,0.2,4.7c0.1,1.3,0.2,2.6,0,4
		c-0.4,2.3-1,4.7-0.2,7c0.1,0.7,0.1,1.4,0,2.1c-0.5,1.1-0.8,2.3-0.4,3.6c0.2,1.2-0.3,2.2-0.5,3.3c-0.8,4.7-1,9.5-1.4,14.3
		c-0.5,5.7-0.5,11.4-0.9,17.1c-0.1,1.4,0.1,2.7,0.8,3.9c0.7,1.2,0.7,2.4,0.5,3.7c-0.4,1.9-1,3.7-1.5,5.6c-0.2,0.7-0.3,1.5-0.2,2.3
		c0.2,1,0.6,1.3,1.6,1c1.3-0.3,1.3-0.3,1.5,1c0,0.3,0,0.7,0,1c0.3,5.3,0.4,10.5,0.2,15.8c-0.1,3.1,0,6.3-0.4,9.4
		c-0.1,0.8-0.4,1.6-0.7,2.4c-0.7,1.6-1.8,2.7-3.6,3.1c-1.2,0.3-2.5,0.6-3.7,0.9c-2.8,0.8-5.4,2-7.6,3.9c-0.3,0.3-0.7,0.7-1.2,0.4
		c0.1-0.7,0.4-1.5,0.4-2.2c0.1-2.4,0.1-4.8,0.1-7.1c0.1-0.2,0.1-0.4,0-0.6c-0.4-7.5-0.9-15-1.3-22.5c-0.2-2,0-3.9-0.1-5.9
		c-0.1-1.8-0.3-3.5-1.2-5.1c-0.2-0.4-0.2-1.1-0.1-1.6c0.4-2.7,0-5.3-0.5-8c-1.9-10.1-3.6-20.3-5.6-30.4c-0.7-3.8-1.6-7.5-2.7-11.1
		c-0.4-1.2-1.6-2.4-2.7-2.9c-2.4-1.1-4.9-2-6.9-3.7c-0.3-0.3-1-0.1-1.5-0.1c0.1,0.5,0,1,0.2,1.5c0.1,0.4,0.5,0.6,0.7,0.9
		c2.6,2.5,4.2,5.7,6.4,8.5c0.4,0.5,0.6,1.2,0.8,1.9c0.9,5.1,1.6,10.2,2.2,15.3c0,0.2,0,0.3,0,0.5c-0.9,1.5-0.9,3.3-1.1,4.9
		c-0.1,1,0.2,1.7,1,2.2c0.3,0.8,0.2,1.5-0.4,2c-0.9,0.2-1.3,0.8-1.3,1.7c0,1.1-0.7,2.3,0.3,3.4c1.1,0.9,1.2,1.4,0.3,2.4
		c-0.8,0.3-1.1,0.9-1.3,1.7c-0.2,1.3-0.5,2.6,0,3.9c0.6,0.8,0.4,1.5-0.2,2.2c-0.4,0.8,0,1.5,0.1,2.3c0.1,0.4,0.1,0.9,0.2,1.3
		c0.2,0.8,0.3,1.6,0,2.3c-0.9,1.8-0.8,3.8-0.7,5.7c0.4,1,0.6,2.1,0.2,3.1c-0.3,1.4-0.5,2.7-0.5,4.1c0,0.9-0.2,1.7-0.3,2.6
		c0,0.1-0.1,0.3-0.1,0.4c-0.3,4.7-1.1,9.4-1,14.2c0,1.1,0,2.1,0.2,3.2c0.3,2.2-0.3,4.4-1.1,6.4c-0.4,1.1-1.5,1.5-2.7,1.4
		c-2.7-0.2-5.3-0.3-8-0.5c-1.6-0.1-3.2-0.3-4.8-0.4c-0.2,0-0.4-0.4-0.4-0.6c0.1-0.5,0.1-1,0.4-1.3c1.3-1.7,1.5-3.7,1.7-5.7
		c0.1-1.1,0.2-2.3,0.3-3.4c0.3-0.5,0.1-1.1,0.1-1.7c0-0.3,0.2-0.6,0.1-0.9c0,0-0.1,0-0.1,0l0-0.1c0-0.9,0.1-1.7,0.1-2.6
		c-0.1-4.7-0.3-9.5-0.5-14.2C80.2,287.3,79.7,286.9,79.4,286.4z"/>
	<path class="st3" d="M114.1,35.1c-0.1,1.3-0.3,2.6,1,3.5c0,0,0.1,0.1,0.1,0.1c0.2,3.1,2.5,5.7,2.1,9c-0.1,1-0.3,2-0.5,2.9
		c-0.3,1.1-0.2,2,0.5,2.9c0.3,0.4,0.4,1.1,0.7,1.6c0.3,0.6,0.6,1.3,1.2,1.6c0.8,0.4,1.2-0.3,1.7-0.9c1.4-1.8,2.7-3.6,4.2-5.3
		c0.6-0.6,1.4-1.1,2.2-1.4c1.8-0.8,2.9-0.3,3.4,1.7c0.7,2.9-0.2,5.5-1.9,7.8c-1.3,1.7-3.1,2.9-4.6,4.5c-0.7,0.7-1.2,1.8-1.3,2.8
		c-0.4,2.7-0.5,5.4-0.8,8.1c-0.6,6.8-4.4,11.5-10.2,14.7c-9.8,5.5-21.6,3.4-28.9-5.1c-2.2-2.5-3.2-5.6-3.4-8.8
		c-0.3-4.7-0.5-9.4-0.7-14.1C78.5,55,78.1,49.5,78,43.9c-0.1-4.1,0.1-8.2,0.6-12.2c0.3-2.3,1.2-4.6,1.9-6.9c0.1-0.4,0.6-0.7,1-1
		c0.2-1.3,0.3-1.4,1.6-1.1c0.7,0.1,1.3,0.3,2,0.4c4.3,0.8,8.4,0,12.1-2.1c1-0.5,1.7-0.5,2.5,0.1c2.9,1.9,6.1,2.8,9.6,2.7
		c1,0,2-0.3,3-0.5c1-0.2,1.3-0.1,1.4,1c0.2,1.5,0.4,3,0.1,4.5c-0.1,0.9,0.1,1.8,0.2,2.7C114,32.7,114,33.9,114.1,35.1z"/>
	<path class="st3" d="M37.5,132c-2.1-2.7-4.2-5.3-6.2-8c-4.5-6.2-8-12.9-10.6-20c-1-2.7-2.1-5.4-3.1-8.2c-0.8-2-2-4-3.8-4.9
		c-1.9-1-2.9-2.5-4.1-4c-0.5-0.6-0.5-1,0.2-1.4c1.3-0.8,2.6-1.7,4-2.5c1.6-0.9,1.8-1.8,1-3.4c-0.6-1.1-1.1-2.3-1.8-3.4
		c-0.2-0.3-0.7-0.4-1.1-0.6c-0.2,0.4-0.6,0.9-0.5,1.2c0.3,1.1,0.8,2.3,1.3,3.3c0.3,0.6,0.2,0.9-0.3,1.2C10.9,82.1,9.5,83,8.2,84
		c-0.8,0.5-2.8,0.5-3.3-0.3c-1.3-1.9-2.4-3.9-2.4-6.3c0-0.6,0.4-1.2,0.9-1.7c0.8-0.8,1.8-1.4,2.7-2c0.8-0.6,1.5-1.4,2.7-0.9
		c0.4,0.1,1.2-0.4,1.4-0.8c0.2-0.4,0-1.2-0.2-1.6c-1.3-2.4-2.8-4.7-4.1-7.2c-0.3-0.6-0.2-1.3-0.2-2C5.7,61.1,5.8,61,6,61
		c0.2,0.3,0.4,0.6,0.6,0.8c0.5,0.7,0.9,1.5,1.5,2.2c2.7,3.1,5.3,6.2,7.4,9.7c0.4,0.7,1,1.3,1.7,1.8c0.3,0.3,1,0.4,1.4,0.2
		c0.2-0.1,0.4-0.8,0.3-1.2c-0.6-2-0.8-4.1-0.1-6.1c0.1-0.4,0.2-0.8,0.4-1.1c0.2-0.3,0.6-0.4,1-0.6c0.1,0.3,0.2,0.6,0.3,0.9
		c0.5,2.5,1.1,5,1.5,7.6c0.2,1.1,0.4,2.3,0.2,3.4c-0.4,2.4-0.9,4.9-1.5,7.3c-0.3,1.3-0.1,2.3,0.6,3.4c3,4.9,6.8,9.2,11,13.1
		c1.7,1.6,3.3,3.2,4.9,4.8c1.9,1.9,3.6,4,4.6,6.5c0.5,1.3,1.3,1.4,2.3,0.4c0.2-0.2,0.5-0.3,0.7-0.4c0.7-0.2,1.3-0.3,2-0.5
		c2.3-0.7,2.3-0.7,2.5,1.7c0.7,4.2,1.4,8.3,2.7,12.3c0.4,1.4,0.3,1.7-1,2.1c-3.5,1.2-7.1,2.3-10.7,2.8
		C39.3,132.4,38.4,132.5,37.5,132z"/>
	<path class="st3" d="M153.2,147.1c0,0.1-0.1,0.2-0.1,0.3c0.1,0.5,0.2,1,0.4,1.6c0.5-0.2,1.2-0.3,1.5-0.6c2.8-3.7,6.3-6.8,9.9-9.5
		c5.1-3.8,10.4-7.3,15.7-10.7c2.1-1.3,3.3-2.8,3.3-5.3c0-1.6,0.3-3.3,0.3-4.9c0-1.3,0.5-2.3,1.4-3.1c1.2-1,2.3-2.1,3.4-3.2
		c0.7-0.7,1.1-1.6,1.7-2.5c0.3-0.4,0.5-0.7,0.8-1.1c0.1,0,0.2,0.1,0.3,0.1c-0.1,0.9,0,1.7-0.2,2.6c-0.2,1.2-0.5,2.3-0.8,3.5
		c-0.3,1.2,0.1,1.8,1.2,1.7c3.3-0.2,6.6-0.5,9.5-2.4c1.8-1.1,3.8-1.9,5.7-2.6c1.6-0.6,2-0.2,1.9,1.5c-0.2,2.4-0.7,4.8-1,7.2
		c-0.1,0.4-0.3,0.8-0.6,1c-1.9,2.1-3.7,4.3-5.7,6.3c-0.6,0.7-1.7,1.1-2.6,1.3c-2.4,0.4-4.8,0.6-7.1,0.9c-1.9,0.3-3.4,1.1-4.5,2.8
		c-4.8,6.6-9.6,13.1-14.5,19.5c-1.9,2.5-3.9,4.9-6.1,7.1c-2.1,2.2-4.8,3.8-7.8,4.7c-4.2-3.6-8.2-7.4-10.5-12.5
		c-0.6-1.4-0.6-1.6,0.8-2.3c0.9-0.4,1.7-0.9,2.5-1.3C152.5,146.9,152.9,146.4,153.2,147.1z"/>
	<path class="st4" d="M70.8,29.6c0.2-0.2,0.3-0.4,0.5-0.5c1.2-1.4,1-2.2-0.8-2.6c-1-0.3-2-0.6-3-0.9c0.2-0.2,0.2-0.3,0.3-0.3
		c2.5-0.1,3.4-1.7,3.9-3.8c0.6-2.6,1.9-4.9,3.9-6.7c0.5-0.4,0.6-1.2,0.9-1.9c0.2-0.6,0.2-1.2,0.4-1.7c0.2-0.6,0.5-1.2,1.2-0.3
		c0.2,0.3,0.9,0.4,1.1,0.3c0.3-0.2,0.5-0.8,0.4-1.2c-0.5-2.1,0-3.9,1.2-5.5C81,4,81.3,3.8,81.6,3.5c0.2,0.4,0.6,0.8,0.7,1.3
		c0.1,0.6,0,1.2,0.1,1.8c0.1,0.5,0.6,0.9,0.9,1.3C83.6,7.4,83.9,7,84,6.5C84.1,5.2,84.2,4,85.2,3c0.4-0.5,0.7-0.6,1.3-0.2
		c1.9,1.5,4.2,1.7,6.5,1.5c3.7-0.3,7.4-0.9,11-1.4c3.5-0.5,7.1-0.8,10.6,0.1c2.7,0.7,4.8,2.1,6.1,4.6c0.4,0.8,1.3,1,2,0.3
		c0.3-0.3,0.6-0.6,1.1-1.2c0.1,1,0.3,1.8,0.3,2.6c0.1,1.9,0.2,2.1,2.1,2.3c0.8,0.1,1.6,0.4,2.3,0.6c-0.5,0.8-1.3,1.5-1.4,2.2
		c-0.1,0.8,0.3,1.8,0.8,2.5c3.2,4.6,4.3,9.7,3.3,15.3c-0.8,4.3-1.8,8.6-2.7,12.9c-1.3,0.9-2.7,1.5-4.4,1.6c-0.8-0.5-1.8-0.1-2.6-0.5
		c-0.7-1.1-0.6-1.3,0.8-1.5c0.8-0.3,1.7-0.5,2.4-0.9c0.3-0.2,0.4-0.8,0.6-1.2c-0.4-0.2-0.9-0.5-1.3-0.5c-1.2,0-2.4,0.1-3.6,0.1
		c-0.8-0.6-0.4-1,0.3-1.2c0.9-0.3,1.7-0.5,2.3-1.2c0.7-0.8,0.6-1.4-0.3-1.9c-0.5-0.3-1-0.4-1.6-0.5c-0.4,0-0.9-0.1-1.3-0.2
		c-2.2-0.5-2.4-0.9-2-3.1c0.8-4.2,0.8-8.4,0.3-12.6c-0.2-1.6-0.8-3-1.6-4.3c0-1.2,0.9-1.6,1.7-2c0.8-0.4,1.7-0.6,2.5-0.7
		c0.5-0.1,1.2-0.1,1.1-0.8c-0.1-0.6-0.8-0.6-1.3-0.5c-1.7,0.2-3,1-4.1,2.3c-0.3,0.3-0.5,0.6-0.8,0.9c-2.2-0.2-4.3,0.5-6.5,0.8
		c-1,0.1-2,0.1-3-0.2c-0.4-0.1-0.8-0.2-0.5-0.8c0.5-1,0.5-1.4-0.6-1.6c-2.9-0.5-5-2.1-6.7-4.5C97.9,9.2,97.8,9.2,97,9
		c1.1,1.5,1.4,3.3,2.8,4.4c0.2,0.2,0.4,0.5,0.4,0.8c-0.6,0.7-1.2,0.2-1.7,0c-1.3-0.5-2.5-0.3-3.4,0.7l0,0c-0.5,0.4-1.1,0.6-1.6,0.7
		c-3.7,1-7.3,1.6-11-0.2c-0.9-0.4-1.9-0.2-2.8-0.1c-1,1,0,1.8,0.2,2.6c-1.3,0.4-2.6,0.7-3.7,1.4c-1.1,0.6-2.2,1.4-1.9,3
		c0.2,0.2,0.3,0.5,0.2,0.8c-0.2,0.9,0.1,1.6,0.7,2.3c0.1,0.2,0.2,0.4,0.1,0.6c0,0.1,0,0.1-0.1,0.2c0.1,2.2-1.4,3-3.1,3.7
		C71.6,30.1,71.1,30.4,70.8,29.6z"/>
	<path class="st5" d="M129.2,210c-0.1-1.8-1.4-2.9-3.2-2.7c-3.5,0.4-6.9,1-10.4,1.2c-4.7,0.2-9.5,0.3-14.2,0
		c-7.8-0.5-15.5-1.8-22.9-4.5c-0.9-0.3-1.3,0-1.7,0.7c-0.4,0.8-0.9,1.5-1.3,2.2c0-2.3,0-4.6,0-6.8c0-0.7,0.2-0.8,0.8-0.6
		c5.1,1.9,10.4,2.7,15.7,3c6.5,0.3,12.9,0.2,19.4,0.1c3.8-0.1,7.6-0.5,11.4-1c3.4-0.5,6.8-1.3,10.2-2c1-0.2,1.3-0.3,1.3,0.9
		c-0.2,5.9-0.2,11.8-0.6,17.7c-0.3,5.6-1,11.3-1.5,16.9c-0.2,1.9-0.2,3.7-0.3,5.6c-0.3,5-0.5,10-0.8,14.9c-0.2,3.4-0.6,6.8-0.6,10.1
		c0,1.5,0.6,3,0.9,4.5c0.1,0.5,0.3,1.1,0.1,1.5c-0.8,2.5-0.7,4.9-0.2,7.5c0.6,3.1,0.7,6.3,0.8,9.4c0.1,6.9,0,13.8,0,20.6
		c0,1.9,0.2,3.8,0.5,5.6c0.2,1.1,0.7,2.3,1.4,3.3c0.5,0.8,0.6,1.3,0.1,2c-0.4,0.7-0.6,1.7-1.3,2.1c-0.4,0.2-1.3-0.6-2-1
		c-1.5-0.8-3-1.5-4.5-2.3c-2.5-1.2-5.1-0.6-7.7-0.5c-2.6,0.2-4.9,1.1-6.4,4c-0.3-0.9-0.4-1.5-0.6-2c0.9-0.7,1.8-1.3,2.8-2
		c2.8-1.9,6-2.8,9.2-3.4c2.9-0.6,3.9-2.6,4.5-5.1c0.2-1.2,0.2-2.4,0.3-3.6c0.1-5.5,0.2-11.1,0.2-16.6c0-1.7-0.1-3.5-0.2-5.2
		c0.7,0.2,0.4,0.8,0.5,1.3c0.1,0.3,0,0.8,0.5,0.8c0.4,0,0.5-0.5,0.5-0.8c0-0.4-0.1-0.8-0.1-1.2c-0.2-1.2-0.2-1.3-1.4-1
		c0-0.8,0.1-1.4-1.1-0.7c-1,0.7-2.1-0.1-2-1.4c0.2-1.9,0.7-3.7,1.1-5.6c0.2-1,0.6-2,0.7-3c0.1-0.8,0-1.6-0.4-2.3
		c-0.9-1.9-1.3-3.7-0.8-5.8c0.1-0.2,0-0.5,0-0.7c0.1-3.1,0.1-6.1,0.3-9.2c0.3-4.6,0.5-9.3,1-13.9c0.3-2.9,0.9-5.8,1.4-8.7
		c0.1-0.3,0-0.7,0-1c1.4-0.6,1.6-1.8,0.5-3.4c0-0.7,0-1.4,0-2.2c0.7-0.6,0.9-1.4,0.9-2.4c0-0.8,0-1.7,0-2.5c0-0.8-0.1-1.5-0.6-2.1
		c0-1.3,0-2.7,0-4c1-0.2,1.2-0.9,1.2-1.8c0-0.6,0-1.1,0-1.7C130.5,210.5,130.2,209.9,129.2,210z"/>
	<path class="st6" d="M96.3,338.2c-1.3,0-2.6-0.1-3.9-0.1c-0.6,0-0.8-0.2-0.8-0.9c-0.1-2-1.1-2.6-2.9-2.1c-2,0.6-3.9,1.4-5.5,2.9
		c-0.9,0.8-2,1.2-3.3,1.3c-4.6,0.1-9.2,0.4-13.8,0.4c-2.9,0-5.7-0.5-8.4-1.7c-1.6-0.7-1.7-0.9-1.6-2.9c6.5,2.3,13.2,2.4,20,2.5
		c1.5,0,3-0.2,4.5-0.2c0.3,0,0.7,0,0.9-0.2c0.6-0.4,1-0.8,1.5-1.2c-0.6-0.3-1.2-0.8-1.8-0.8c-4,0-8.1,0.2-12.1,0.1
		c-3.8-0.1-7.7-0.3-11.4-1.5c-0.5-0.2-1.5-0.5-1.5-0.7c0.1-1,0.2-2.1,0.7-2.8c0.6-0.8,1.6-1.3,2.5-1.7c1-0.4,2.1-0.7,3.2-1
		c3.1-0.7,4.8,0.1,6.4,2.9c0.4,0.8,0.8,1.6,1.3,2.4c0.2,0.3,0.5,0.4,0.8,0.7c0.2-0.3,0.5-0.6,0.5-1c0-0.8,0-1.7-0.3-2.4
		c-0.6-1.3-1.5-2.4-2.4-3.6c0.9-0.6,1.8-0.7,2.9,0.1c0.2,0.1,0.3,0.3,0.5,0.3c0.5,0,1-0.1,1.4-0.1c-0.1-0.5-0.3-0.9-0.4-1.4
		c-0.1-0.2-0.3-0.3-0.5-0.4c1.6-1.6,3.1-0.8,4.6-0.1c0.4,0.2,0.7,0.6,1.1,0.7c0.5,0.1,1.1,0.1,1.7,0.1c-0.1-0.6-0.1-1.4-0.4-1.7
		c-0.7-0.7-1.6-1.1-2.5-1.8c0.3-0.2,0.6-0.4,0.9-0.7c0.5-0.3,0.8,0.1,1.2,0.3c3.1,1.7,6.1,3.4,9.5,4.5c2,0.6,4.1,0.7,6.2,0.8
		c1.7,0.1,1.9,0.3,2,2.1c0.1,1.5-0.3,2.9-0.3,4.4c0,0.9-0.7,0.9-1.3,1c-0.7,0-1.4-0.1-2,0c-0.3,0-0.6,0.4-0.9,0.6
		c0.2,0.3,0.4,0.7,0.7,0.8c1,0.2,2.1,0.4,3.2,0.5C97.1,337.4,97.2,337.9,96.3,338.2z"/>
	<path class="st5" d="M95.8,293.9c0.1-0.9,0.2-1.8,0.2-2.7c1.3,0.1,1.5-0.1,1.6-1.3c0-0.5,0-1,0.1-1.4c0.2-1-0.2-1.4-1.1-1.5
		c-0.1-1-0.2-2-0.3-3c1.3,0.1,1.5-0.1,1.6-1.4c0.1-1.6,0.1-3.2-0.9-4.6c0-0.7,0-1.5,0-2.2c1.3,0.1,1.4,0,1.3-1.3
		c-0.1-1.1-0.5-2-1.6-2.5c0.7-0.5,1-1,0.3-1.7c0.9-0.4,1.2-1.1,1.3-2.1c0.2-1.3,0.3-2.6,0.1-3.9c0.8-0.9,0.7-1.4-0.5-2
		c1.6-1.1,1.3-2.8,1.3-4.4c0-0.4-0.3-0.7-0.1-1.1c0.2-0.7,0.3-1.3,0.5-2c0.2-1.2,0.4-2.5,0.6-3.8c0.1-1.2,0.2-2.4-0.6-3.4
		c-0.7-5.1-1.5-10.2-2.1-15.3c-0.2-1.7-1.4-2.8-2.3-4.1c-1.6-2.2-3.1-4.5-4.7-6.7c2.1,1.7,4.5,2.9,7.2,3.7c0.3,0.1,0.7,0.4,0.7,0.6
		c0.8,3.3,1.5,6.7,2.5,9.9c0.6,2.1-0.3,4-0.6,6c0,0.3-0.1,0.5-0.2,0.8c-0.2,0.6-0.3,1.3,0.5,1.4c0.4,0.1,0.8-0.6,1.3-0.9
		c0.3-0.1,0.3,0.1,0.5,0.3c0.8,4.2,1.5,8.4,2.3,12.6c0.1,0.4,0.1,0.9,0,1.3c-0.6,2.9-1.2,5.8-1.9,8.8c-0.3,1.4,0,2.6,0.5,3.8
		c0.3,0.7,0.5,1.4-0.1,2.1c-0.3,0.4-0.5,0.7-1.1,0.5c-0.9-0.3-1.4,0.3-1.4,1.1c0,1,0.1,2.1,0.2,3.1c0.5,4.2,0.3,8.4-0.2,12.7
		c-0.5,4.4-0.8,8.7-1,13.1c-0.2,4.2-0.1,8.4,0,12.6c0,1.2,0.4,2.4,0.7,3.6c0.2,1.2,0.5,2.4,0.7,3.6c0,0.3-0.4,0.8-0.6,0.8
		c-1.3,0.1-2.7,0.2-4.1,0.2c-0.7,0-0.6-0.4-0.3-0.8c0.3-0.4,0.6-0.8,0.7-1.2c0.1-0.3-0.1-0.8-0.3-0.9c-0.2-0.1-0.8,0-0.9,0.2
		c-0.4,0.5-0.9,1.1-1.1,1.7c-0.3,0.6-0.6,0.8-1.2,0.5c-2.3-0.9-4.6-1.7-6.8-2.6c-1-0.4-1.9-0.9-2.8-1.3c1-0.1,2-0.3,3.1-0.2
		c1.7,0.1,3.5,0.3,5.2,0.4c1.3,0.1,2-0.5,2.3-1.7c0.7-2.3,0.9-4.6,0.8-7c-0.1-4,0.4-8,0.6-12c0.1-1.1,0.2-2.3,0.3-3.4
		C95.6,294.6,95.7,294.2,95.8,293.9c0.4,0.5,0.3,1.1,0.3,1.7c0,0.6,0,1.1,0.1,1.7c0.1,0.2,0.2,0.5,0.5,0.4c0.2,0,0.4-0.2,0.4-0.4
		c0.1-1,0.2-2,0-3C96.9,293.7,96.2,294.1,95.8,293.9z"/>
	<path class="st7" d="M125.3,198.9c1.9-0.7,3.7-1.4,5.6-1.9c1-0.3,1.4-0.7,1.2-1.9c-0.8-4.6-1.4-9.3-2.3-14
		c-0.7-3.8-1.4-7.6-1.1-11.5c0.2-3.1,0.8-6.2,1.3-9.3c0.4-2.5,1-4.9,1-7.4c0.1-3.1-0.4-6.2-0.6-9.3c-0.1-2.7-0.3-5.3-0.3-8
		c0-1.2,0.8-2.2,2.1-2.6c1.2-0.3,2.1,0.5,2.7,1.3c1.8,2.3,3.6,4.7,5.4,7.1c1.8,2.5,2.6,2.8,5.5,1.8c3.2-1,6.3-2.2,9.1-4.1
		c0.2-0.1,0.4-0.1,0.5-0.2c-0.9,0.8-1.8,1.7-2.8,2.3c-3.4,2.3-6.9,4.4-10.4,6.6c-0.9,0.6-1.3,0-1.7-0.7c-0.9-1.6-1.7-3.3-2.6-4.9
		c-0.3-0.6-0.7-1.2-1.2-1.6c-0.4-0.3-0.9-0.3-1.4-0.5c-0.1,0.5-0.3,1.1-0.2,1.6c0.3,0.9,0.8,1.6,1.3,2.4c0.4,0.6,0.4,1.2,0.2,2
		c-0.6,2.7-1.1,5.4-1.5,8.1c-0.5,3.3-0.9,6.6-1.3,9.9c-0.4,4-0.9,7.9-1,11.9c-0.1,2.4,0.6,4.9,1,7.3c0.6,3.7,1.2,7.5,1.8,11.2
		c0.1,0.9,0,1.6-1.1,2C131.5,197.8,128.5,198.7,125.3,198.9z"/>
	<path class="st6" d="M130.3,341.6c-2.5,0.3-4.9,0.6-7.4,0.8c-3.2,0.2-6.3-0.1-9.3-1.1c-1.6-0.5-3.3-1.2-3.9-3.1
		c-0.1-0.5-0.2-1,0-1.5c1.2-4,2.4-8,3.8-12c0.3-0.9,1-1.6,1.5-2.4c1.2-0.5,2.5-0.6,3.8-0.8c0.5-0.1,1.1,0.1,1.5,0.6
		c-0.1,0.6-0.7,0.5-1,0.6c-0.6,0.2-1.3,0.3-1.9,0.7c-0.3,0.2-0.7,0.3-0.6,0.8c0.1,0.4,0.5,0.3,0.8,0.2c0.7-0.1,1.5-0.2,2.2-0.4
		c0.9-0.2,1.8-0.2,2.7,0c0.6,0.1,1.2,0,1.7-0.4c0.4-0.8,1-0.8,1.6-0.2c0.4,0.5,0.9,0.8,1.5,1.2c1.8,1.3,1.9,3.3,2.1,5.2
		c0,0.2-0.1,0.5-0.3,0.6c-0.5,0.2-0.9-0.1-1.4-0.2c-3.1-1-6.3-1.5-9.6-0.9c-1.6,0.3-3.2,0.7-4.4,1.9c-0.2,0.2-0.5,0.4-0.4,0.7
		c0.2,0.4,0.6,0.1,0.8,0c4.9-2,9.7-1.6,14.5,0.7c0.4,0.2,0.9,0.4,1.1,0.9c0.4,1,0.4,2,0.6,3c0.2,1.2,0.4,2.5,0.7,3.7
		C131.3,341.1,131.3,341.7,130.3,341.6z"/>
	<path class="st3" d="M116.2,94.6c0,0.8-0.2,1.5,0,2.3c0.1,0.5,0.3,1.2,0.7,1.5c0.6,0.5,0.5,0.9,0.1,1.4c-3.2,4.3-7.6,7-12.7,8.4
		c-1.5,0.4-3.1,0.4-4.4-0.4c-1.7-1-3.5-2-5-3.4c-2.2-2.1-3-4.7-1.7-7.6c0.3-0.6,0.8-0.4,1.2-0.3c7.4,2.4,14.1,0.9,20.5-3.1
		c0.1-0.1,0.2-0.1,0.3-0.2c0.3-0.2,0.6-0.4,0.9-0.3c0.3,0.2,0.2,0.6,0.2,0.9C116.3,94.1,116.4,94.4,116.2,94.6z"/>
	<path class="st8" d="M129.1,330.6c0.2-3.3-1.3-5.6-4.2-7.2c-0.1,0.1-0.2,0.4-0.4,0.6c-0.4-1.1-1.2-1.4-2.4-1.3
		c-0.6,0-1.4,0.2-1.9-0.3c-0.8-0.1-1.5-0.3-2.3-0.3c-1,0-2,0.2-3,0.3c1-0.5,2-1.1,3.1-1.4c4.6-1.2,8.6,0.2,12.3,2.8
		c0.3,0.2,0.6,0.9,0.6,1.3c0,5.1,2.1,9.7,3.1,14.6c0.1,0.5,1,0.8,1.6,1.2c0,0.3,0,0.6,0,0.9c-0.5,0.4-1,0.8-1.4,1.2
		c-0.8,0.7-1.4,1.9-2.3,2.1c-4.2,1-8.5,2-12.9,1.3c-0.1-0.8,0.5-1,1-1.2c0.7-0.3,1.4-0.2,2.1-0.4c2.3-0.2,4.5-0.5,6.8-0.8
		c0.5-0.1,0.9-0.2,1.4-0.5c1.1-0.6,1.1-1.2,0-1.9c0.5-0.2,0.7-0.4,0.6-1.1c-0.5-2.3-0.8-4.6-1.2-7c0.4-0.4,1.4,0,1.4-0.8
		c0.1-0.8-0.7-1.1-1.3-1.4C129.5,331.2,129.1,331.1,129.1,330.6z"/>
	<path class="st9" d="M114.1,35.1c-0.2-1.1-0.4-2.2-0.5-3.2c-0.1-1.3,0-2.7,0-4c0-1.3-0.1-2.5-0.2-3.8c0-0.2-0.5-0.6-0.7-0.5
		c-4.9,1.4-9.3,0.2-13.4-2.4c-0.5-0.3-0.9-0.4-1.5,0c-2.2,1.5-4.7,2.1-7.3,2.5c-2.5,0.4-4.9,0.1-7.3-0.6c-0.9-0.2-1.4-0.1-1.6,0.8
		c-0.1-0.4-0.2-0.8-0.3-1.2c-0.3-0.9,0.3-1.4,0.9-1.9c5.7,2.2,11.1,0.9,16.2-1.8c0.6-0.3,0.9-0.3,1.5-0.1c4.3,2.2,8.8,2.5,13.4,1.7
		c0.5-0.1,0.9-0.3,1.1,0.5C115.3,25.8,115.1,30.5,114.1,35.1z"/>
	<path class="st10" d="M105.8,15.6c0.1,0.2,0.1,0.5,0.2,0.5c1.6,0,3.2,0,4.8-0.1c1.5-0.1,3.1-0.2,4.6-0.4c0.2,0.4,0.3,0.9,0.9,0.9
		c1.9,2.2,2.1,4.9,2.2,7.5c0.2,3.7,0,7.4-0.8,11c-0.1,0.3,0.3,0.9,0.5,1c0.8,0.3,1.7,0.5,2.5,0.6c1.6,0.2,2.7,0.8,2.8,1.8
		c0.1,1-1.1,2.1-2.6,2.5c-0.6,0.1-1.4,0-0.8,1c-0.8-0.5-1.7-0.9-2.5-1.4c-0.2-0.1-0.2-0.6-0.3-0.8c0.3,0,0.6-0.1,0.9-0.1
		c1.3-0.1,2.5-0.1,3.8-0.3c0.3,0,0.6-0.5,1-0.7c-0.4-0.2-0.7-0.6-1.1-0.6c-1.2-0.2-2.5-0.1-3.7-0.3c-1.8-0.3-1.9-0.8-1.7-2.6
		c0.8-4.7,0.9-9.4-0.2-14.1c-0.3-1.2-0.4-2.5-2-2.8c-0.5-0.1-0.9-0.1-1.4,0c-4.4,0.7-8.8,0.5-12.8-1.6c-0.9-0.5-1.8-1.1-2.7-1.5
		c-0.7-0.3-1.5-0.1-2.3-0.2c0.9-1.4,1.4-1.6,3-1.2c0.7,0.2,1.4,0.2,2.1,0.4c0.1-0.1,0.3-0.1,0.5,0C102.2,15.1,104,15.5,105.8,15.6z"
		/>
	<path class="st9" d="M116.2,94.6c0-0.5-0.1-1-0.1-1.6c-2.8,2.1-5.8,3.5-9.1,4.2c-4.3,1-8.6,1.2-12.9-0.5c-0.3-0.1-0.7,0-1,0
		c0-0.4,0.1-0.7,0.1-1.1c0.1-0.7,0.1-1.5,0.2-2.2c0.7,0.1,1.4,0.3,2.1,0.4c7.1,1.2,13.7-0.2,19.7-4.3c0.3-0.2,0.6-0.4,1.2-0.8
		C116.4,90.9,116.3,92.7,116.2,94.6z"/>
	<path class="st8" d="M95.5,334.9c0.7-0.2,1-0.5,1-1.3c0-1.6,0.1-3.1,0.2-4.7c0.1-0.8-0.2-1.2-1.1-1.2c-4.1,0.1-8-0.8-11.6-2.9
		c-1.9-1.1-3.8-2.1-5.7-3.1c0.8-1.4,1.9-1.4,3.2-0.8c1.6,0.7,3.2,1.4,4.8,2.1c4,1.9,8.2,3.2,12.7,2.8c0.8-0.1,1.1,0.4,1.1,1
		c-0.1,1.9-0.2,3.9-0.4,5.8c-0.3,1.9-0.4,1.9-2.3,2.1C96.7,334.8,96.1,334.8,95.5,334.9z"/>
	<path class="st9" d="M153.2,147.1c-0.9,0.4-1.8,0.8-2.7,1.2c-1.9,1-1.9,1-1,3c2.1,4.2,5.2,7.5,8.7,10.5c0.5,0.4,0.8,1,1.2,1.4
		c-0.2,0-0.6,0.1-0.7,0c-5.3-3.6-9.7-8.3-13.3-13.6c-0.4-0.6-0.1-0.8,0.4-1c4.7-2.8,9.3-5.6,13.4-9.3c0.2-0.2,0.7,0,1.1-0.1
		c-0.1,0.3-0.2,0.6-0.4,0.8C157.5,142.4,155.4,144.8,153.2,147.1z"/>
	<path class="st9" d="M37.5,132c3.2,0.2,6.1-0.8,9.1-1.6c1.5-0.4,2.9-0.9,4.3-1.3c0.8-0.3,1.1-0.6,0.7-1.5c-1.4-3.9-2.1-8-2.5-12.1
		c0-0.2,0-0.3,0-0.5c1,3.3,1.8,6.7,2.9,10c0.6,1.9,1.5,3.7,2.3,5.5c0.1,0.3,0.5,0.7-0.2,0.8c-3.7,0.8-7.3,1.6-11,2.3
		c-0.9,0.2-1.7,0.1-2.6,0.2C39.2,133.8,38.1,133.3,37.5,132z"/>
	<path class="st11" d="M79.7,15.4c0.9-0.1,2-0.6,2.7-0.2c3.7,1.8,7.3,1.2,11,0.2c0.6-0.2,1.1-0.3,1.7-0.4c-0.2,0.8,0.3,1,0.9,1.2
		c0.3,0.1,0.6,0.4,0.9,0.7c-0.3,0.2-0.6,0.4-0.9,0.5c-3.1,1.5-6.3,2.2-9.7,2.1c-2.6,0-4.8-0.9-5.9-3.5C80.4,15.8,80,15.6,79.7,15.4z
		"/>
	<path class="st7" d="M53,119.5c0.2,0.4,0.5,0.8,0.7,1.2c1.7,3.8,4,7.2,6.8,10.3c0.3,0.3,0.9,0.5,1.4,0.4c1.5-0.2,3-0.5,4.6-0.7
		c0.9-0.1,1.3-0.6,1.5-1.4c0,1,0.1,1.9,0.1,2.9c0,0.3-0.3,0.7-0.6,0.8c-2.4,0.6-4.8,1.1-7.2,1.6c-0.3,0.1-0.8-0.3-1-0.6
		C56.4,129.5,54.4,124.7,53,119.5z"/>
	<path class="st12" d="M70.8,29.6c1.4,0.5,3.7-1.1,4.1-2.6c0.1-0.3,0.2-0.5,0.2-0.8c0.1,1.3,0.2,1.3,1.5,0.9c-0.3,2-0.8,4.1-0.8,6.2
		c0,2.2-0.9,3.3-3,3.7c-0.1,0-0.1,0-0.5,0c0.6-0.9,1.1-1.7,1.6-2.5c0.2-0.2,0.4-0.6,0.4-0.7c-0.1-0.2-0.5-0.4-0.7-0.5
		c-1.6-0.4-3.2-0.8-4.8-1.3c-0.4-0.1-0.8-0.3-1.2-0.5C68.7,30.8,69.8,30.2,70.8,29.6z"/>
	<path class="st13" d="M124.1,46.4c1.4-0.5,2.9-1,4.3-1.4c0,1.1-0.4,1.7-1.5,2.2c-1.2,0.6-2.3,1.6-3.4,2.5c-1.3,1.1-2.5,2.3-3.8,3.5
		c-0.8-0.7-1.1-1.4-0.7-2.8c0.5-1.6,0.3-3.5,0.2-5.3c0-0.8,0-1,0.8-0.8c0.6,0.2,1.3,0.2,2,0.2c-0.7,0.3-1.3,0.5-0.7,1.4
		c-0.2,0.5,0,0.9,0.3,1.3c0.1,0.2,0,0.4,0.3,0.4c0.1,0,0.2-0.1,0.3-0.1c-0.1-0.1-0.3-0.1-0.3-0.3C122.7,46.7,123.4,46.5,124.1,46.4z
		"/>
	<path class="st14" d="M122.2,344.8c-0.7,0.2-1.4,0.4-2.1,0.7c-0.4,0.2-0.7,0.6-1,0.9c-3.1,0-6-1-8.8-2.2c-1.5-0.7-1.6-1.2-1.2-3.4
		C112.8,344.1,117.5,344.5,122.2,344.8z"/>
	<path class="st12" d="M82.1,20.7c-0.3,0.6-0.6,1.3-0.9,1.9c-0.5,0-1.1-0.2-1.5,0.1c-1.5,1.1-3,2.2-4.5,3.4c-1.2-1-1.3-2.3-1-3.7
		c0.5-0.1,1.2,0,1.5-0.3c1.2-1.2,2.7-1.7,4.4-1.6C80.7,20.6,81.5,19.8,82.1,20.7z"/>
	<path class="st15" d="M110,200.4c-0.7,0-1.3,0-2,0c0-0.1-0.1-0.2-0.1-0.3c0.6-0.2,1.1-0.5,1.7-0.7c2.5-0.8,5.1-1.1,7.7-0.3
		c0.3,0.1,1.4,0,0.5,0.9C115.2,200,112.6,200.2,110,200.4z"/>
	<path class="st16" d="M96.3,338.2c0.8-0.3,0.3-0.9,0.2-1.4c0.7-0.1,1.4-0.2,2.1-0.2c0.2,0,0.5,0.3,0.7,0.4
		c-0.2,0.3-0.3,0.8-0.5,0.8C98,338.1,97.1,338.1,96.3,338.2z"/>
	<path class="st17" d="M110.8,282.2c0,2,0.1,3.9,0.1,5.9C110.8,286.2,110.8,284.2,110.8,282.2z"/>
	<path class="st18" d="M80.7,305.4c-0.1,0.7-0.2,1.3-0.3,2c0-0.9,0.1-1.8,0.1-2.7c0,0,0.1,0,0.1,0C80.8,304.9,80.8,305.1,80.7,305.4
		z"/>
	<path class="st19" d="M102.3,243.5c-0.2-0.1-0.3-0.2-0.5-0.3c0.1-0.2,0.1-0.4,0.2-0.6C102.1,243,102.2,243.3,102.3,243.5z"/>
	<path class="st20" d="M112.2,310.6c0.1,0,0.3,0.1,0.4,0.1c-0.1,0.2-0.2,0.3-0.3,0.5C112.2,311,112.2,310.8,112.2,310.6z"/>
	<path class="st21" d="M119.6,281.7c-1.9,0-4.4-1.8-5-3.7c-0.1-0.3,0.1-0.7,0.1-1.1c0.4,0.1,0.8,0,1.1,0.2c0.6,0.4,1.1,1,1.8,1.4
		c0.7,0.4,1.5,0.6,2.2,0.8c0.8,0.2,1.8,0.1,1.8,1.3C121.7,281.3,120.9,281.7,119.6,281.7z"/>
	<path class="st22" d="M85.5,277.1c-2-0.3-3.5-0.7-4.5-2c-0.2-0.3-0.1-0.8-0.2-1.3c0.4,0,0.8-0.2,1.2-0.1c1.1,0.3,2.2,0.5,3.3,1
		c0.6,0.2,1,0.8,1.5,1.3C86.3,276.5,85.8,276.9,85.5,277.1z"/>
	<path class="st23" d="M99.6,247.8c0.3,0.3,0.8,0.5,0.9,0.8c0.2,2.2,0.2,4.3-0.8,6.4c-0.4-0.2-1.1-0.5-1.1-0.7
		C98.5,252.1,98.1,249.8,99.6,247.8z"/>
	<path class="st22" d="M97,278.1c1.2,0.1,0.9,1.3,1.1,1.9c0.3,1.1,0.1,2.3,0,3.4c-0.1,1.3-0.7,1.5-1.8,0.7
		C96.2,282,96.1,280,97,278.1z"/>
	<path class="st24" d="M98.4,264.4c0.2,0.5,0.5,1,0.5,1.5c-0.1,1.1-0.3,2.3-0.5,3.4c-0.1,0.8-0.6,1.2-1.4,1
		c-0.7-1.9-0.2-3.7,0.4-5.4C97.6,264.7,98.1,264.6,98.4,264.4z"/>
	<path class="st24" d="M129.4,218.8c0.3,0.4,0.9,0.7,0.9,1.1c0.1,1.5,0.1,3,0,4.5c0,0.7-0.2,1.4-1.2,1.3c-0.2-0.7-0.4-1.3-0.5-2
		c0-1.3,0.1-2.5,0.2-3.8C128.9,219.6,129.2,219.2,129.4,218.8z"/>
	<path class="st24" d="M99.1,257c0.2,0.7,0.4,1.4,0.5,2.1c0,0.7-0.1,1.5-0.2,2.2c-0.1,0.8-0.6,1.2-1.4,1.1c-0.2-0.4-0.5-0.9-0.5-1.3
		c0-1,0.1-2.1,0.3-3.1C97.9,257.3,98.3,256.8,99.1,257z"/>
	<path class="st22" d="M96.6,287c0.9-0.5,1.4-0.1,1.5,0.8c0.1,1-0.1,2.1-0.3,3.1c-0.2,1.1-0.8,1.3-1.8,0.4
		C96.2,289.8,96.4,288.4,96.6,287z"/>
	<path class="st24" d="M129.2,210c0.7-0.7,1.3-0.5,1.5,0.4c0.2,1.3,0.2,2.6,0.1,3.9c-0.1,0.7-0.7,0.9-1.4,0.5
		C129.3,213.2,129.2,211.6,129.2,210z"/>
	<path class="st24" d="M96.8,272.1c0.8-0.2,1.3,0.2,1.5,1c0.2,0.7,0.3,1.4,0.4,2.1c0,0.4-0.2,0.8-0.4,1.2c-0.4-0.1-0.8-0.3-1.2-0.4
		c-0.2-0.8-0.4-1.5-0.5-2.3C96.5,273.1,96.7,272.6,96.8,272.1z"/>
	<path class="st25" d="M128.4,283.6c0.3-0.2,0.7-0.4,1-0.7c0.2,0.4,0.6,0.7,0.6,1.1c0.1,0.8,0.2,1.6,0.1,2.3c0,0.3-0.4,0.6-0.7,0.8
		c-0.3-0.3-0.6-0.6-0.8-0.9c-0.2-0.5-0.2-1.1-0.3-1.7C128.4,284.2,128.4,283.9,128.4,283.6z"/>
	<path class="st26" d="M129.1,227.9c1,0.5,1.4,2.8,0.5,3.4c-0.2,0.1-0.6,0-1,0C128.3,230.1,128.2,228.9,129.1,227.9z"/>
	<path class="st27" d="M80.7,305.4c0-0.2,0-0.5,0-0.7c0.1,0,0.2-0.1,0.2-0.1C80.8,304.8,80.8,305.1,80.7,305.4z"/>
	<path class="st28" d="M97.2,81.9c-3.1,0-4.5-1.2-5.1-4.1c-0.1-0.4-0.2-0.7-0.2-1.1c-0.1-1.3-0.4-2.5-2-2.8c-0.3-0.1-0.5-0.6-0.8-1
		c0.4,0,0.9-0.2,1.3-0.1c4.9,1.3,9.5,0.8,13.5-2.6c0.3-0.3,0.6-0.5,1-0.6c0.9-0.4,1.5,0,1.7,0.9C107.4,75.3,102,81.9,97.2,81.9z"/>
	<path d="M91,52.4c0,1,0,2.1,0,3.1c-0.1,1.6-1.1,2.7-2.5,2.7c-1.4,0-2.4-1-2.5-2.7c-0.1-2.1-0.1-4.2,0-6.3c0-1.6,1.1-2.7,2.5-2.7
		c1.4,0,2.4,1,2.5,2.7c0,0.6,0,1.1,0,1.7C91,51.4,91,51.9,91,52.4C91,52.4,91,52.4,91,52.4z"/>
	<path d="M100.8,52.3c0-1,0-2,0-3c0.1-1.7,1-2.8,2.5-2.8c1.4,0,2.5,1.1,2.5,2.8c0,2,0,4.1,0,6.1c0,1.7-1.1,2.8-2.5,2.8
		c-1.4,0-2.4-1.1-2.5-2.8c0-0.1,0-0.2,0-0.2C100.8,54.2,100.8,53.3,100.8,52.3C100.8,52.3,100.8,52.3,100.8,52.3z"/>
	<path class="st29" d="M100.8,41.1c-2,0-3-1.2-2.8-3.2c0.1-1.7,1.3-2.7,3-2.4c2.8,0.4,5.5,1.2,7.8,3c1.1,0.9,1.4,1.6,0.8,2.7
		c-0.6,1.2-1.5,1-2.5,0.7C105.1,41.1,102.9,40.6,100.8,41.1z"/>
	<path class="st29" d="M92.4,38.5c0,1.9-0.7,2.6-2.6,2.6c-2.2,0-4.1,0.6-5.6,2.4c-0.2,0.3-0.9,0.5-1.1,0.4c-0.5-0.3-0.9-0.8-1.1-1.3
		c-0.1-0.5,0.1-1.1,0.3-1.6c0.9-2.2,2.6-3.6,4.7-4.5c0.7-0.3,1.4-0.4,2-0.7C91.5,35.1,92.3,35.8,92.4,38.5z"/>
	<path class="st30" d="M123.4,57.4c0-2.4,2.2-4.9,4.3-5.2c0.4-0.1,1.2,0.2,1.4,0.6c0.3,0.7-0.4,0.7-0.9,0.9
		c-1.3,0.4-2.3,1.8-2.5,3.3c0,0.3,0.1,0.6,0,0.8c-0.3,0.5-0.7,0.9-1,1.3c-0.4-0.4-0.8-0.7-1.2-1.1C123.4,57.8,123.5,57.5,123.4,57.4
		z"/>
	<path class="st31" d="M97.6,86.6c-0.9-0.3-2.1-0.7-3.2-1.2c-0.3-0.2-0.4-0.8-0.6-1.3c0.4-0.1,0.9-0.3,1.3-0.2
		c1.1,0.1,2.3,0.2,3.4,0.3c0.4,0,0.8-0.1,1.2,0c0.3,0.1,0.8,0.4,0.8,0.7c0,0.3-0.3,0.9-0.6,1C99.3,86.2,98.6,86.3,97.6,86.6z"/>
	<path class="st32" d="M107.4,65.4c1.9,0.4,3.5,1,4.2,2.7c0.2,0.4-0.1,1.1-0.2,1.7c-0.5-0.2-1.2-0.3-1.6-0.6
		c-0.9-0.6-1.8-1.4-2.6-2.1c-0.3-0.3-0.6-0.7-0.6-1C106.7,65.7,107.2,65.5,107.4,65.4z"/>
	<path class="st29" d="M194.3,120.1c0.5,0.1,1.1,0,1.5,0.2c0.4,0.2,0.7,0.6,1.1,0.9c-0.3,0.3-0.6,0.8-1,1c-0.6,0.2-1.3,0.1-2,0.3
		c-1.5,0.4-3.1,0.6-4.6,1.2c-0.7,0.3-1.2,1.2-1.7,1.9c-0.4,0.6-0.7,1.3-1.5,0.9c-0.8-0.4-0.6-1.1-0.3-1.8c0.7-1.8,2-3.1,3.8-3.7
		c1.5-0.5,3.1-0.7,4.6-1.1C194.3,120,194.3,120,194.3,120.1z"/>
	<path class="st29" d="M105.8,15.6c-1.7,0.5-3.1-0.1-4.5-0.8c-0.4-0.2-0.8-0.4-1.1-0.6c-0.9-1.2-1.7-2.5-2.6-3.7
		c-0.2-0.4-0.6-0.7-0.8-1c-0.1-0.2-0.1-0.5-0.2-0.7c0.3-0.1,0.6-0.2,0.8-0.1c0.4,0.2,0.7,0.5,1,0.8c1.6,2.3,3.7,3.9,6.6,4.3
		C106.3,14,106.6,14.7,105.8,15.6z"/>
	<path class="st29" d="M124.8,24.5c-0.5,3.8-1.7,6.9-4.5,9.1c-0.3,0.2-0.7,0.2-1.1,0.3c0.1-0.3,0-0.8,0.2-1c1.9-2.2,2.7-4.8,3.2-7.6
		c0-0.2,0-0.5,0.1-0.7c0.3-0.5,0.7-0.9,1.1-1.4C124.2,23.6,124.6,24.1,124.8,24.5z"/>
	<path class="st33" d="M120.8,36c-0.1-0.1-0.5-0.2-0.6-0.4c-0.1-0.2,0.1-0.6,0.2-0.7c1.6-1.4,3.2-2.8,4.9-4.2c0.2-0.2,0.8-0.3,1-0.1
		c0.2,0.2,0.4,0.7,0.3,1c-0.2,0.6-0.6,1.1-1,1.6C124.4,34.6,122.9,35.7,120.8,36z"/>
	<path class="st34" d="M116.4,16.6c-0.3,0.1-0.6,0.1-0.9,0.2c0-0.4,0-0.7-0.1-1.1c1.2-1.8,2.8-2.9,4.9-3.2c0.7-0.1,1.6,0,1.7,0.9
		c0.1,1-0.7,1.1-1.5,1.2C119,14.7,117.4,15.1,116.4,16.6z"/>
	<path class="st35" d="M124.1,46.4c-0.7,0.3-1.3,0.6-2,0.9c-0.1,0.1-0.3,0.1-0.4,0c-0.8-0.3-1.3-0.7-0.3-1.4c0.5,0,1.1-0.1,1.6,0
		C123.4,45.9,123.8,46.2,124.1,46.4z"/>
	<path class="st21" d="M129.6,314.3c0-0.6-0.1-1.2,0-1.8c0.1-0.3,0.5-0.6,0.7-0.8c0.3,0.3,0.7,0.5,0.7,0.8c0.2,1.5,0.2,2.9,0.3,4.4
		c0,0.2-0.4,0.7-0.5,0.7c-0.3-0.1-0.8-0.3-0.9-0.6c-0.2-0.8-0.3-1.7-0.4-2.6C129.6,314.3,129.6,314.3,129.6,314.3z"/>
	<path class="st22" d="M128.6,262.3c0,0.8,0.1,1.6,0,2.4c0,0.3-0.5,0.6-0.8,0.9c-0.2-0.3-0.7-0.7-0.7-1c0-1.5,0.1-2.9,0.2-4.4
		c0-0.3,0.5-0.5,0.8-0.8c0.2,0.3,0.5,0.6,0.6,0.9C128.7,260.9,128.7,261.6,128.6,262.3C128.6,262.3,128.6,262.3,128.6,262.3z"/>
	<path class="st22" d="M130.8,292.8c0,0.6,0.1,1.2,0,1.8c0,0.3-0.4,0.7-0.6,0.7c-0.2,0-0.7-0.4-0.7-0.6c-0.2-1.3-0.3-2.6-0.3-3.9
		c0-0.3,0.5-0.6,0.7-1c0.3,0.3,0.7,0.5,0.8,0.9C130.9,291.4,130.8,292.1,130.8,292.8C130.8,292.8,130.8,292.8,130.8,292.8z"/>
	<path class="st24" d="M129.5,271.6c0,0.1-0.1,0.5-0.2,0.8c-0.1,0.2-0.5,0.4-0.8,0.4c-0.2,0-0.5-0.3-0.5-0.5
		c-0.1-1.3-0.2-2.5-0.2-3.8c0-0.3,0.4-0.6,0.7-0.8c0.2,0.2,0.6,0.5,0.7,0.7C129.3,269.3,129.4,270.4,129.5,271.6z"/>
	<path class="st36" d="M127.9,245.3c0.1-0.7,0.2-1.5,0.3-2.2c0.1-0.3,0.4-0.5,0.5-0.7c0.2,0.2,0.7,0.4,0.7,0.7c0,1.3,0,2.7-0.2,4
		c0,0.2-0.5,0.5-0.7,0.5c-0.2,0-0.5-0.4-0.6-0.7C127.9,246.3,128,245.8,127.9,245.3C127.9,245.3,127.9,245.3,127.9,245.3z"/>
	<path class="st37" d="M130.7,308c-0.2,0.3-0.4,0.7-0.7,1.1c-0.3-0.4-0.8-0.7-0.9-1.1c-0.3-0.9-0.4-1.8-0.4-2.7
		c0-0.4,0.4-0.8,0.6-1.1c0.3,0.3,0.7,0.5,0.8,0.9C130.4,306,130.5,306.9,130.7,308z"/>
	<path class="st21" d="M128.4,237.2c0-0.5-0.1-1,0-1.5c0-0.3,0.3-0.7,0.5-0.7c0.3,0,0.8,0.3,0.8,0.5c0.1,1.2,0.1,2.5,0.1,3.8
		c0,0.2-0.5,0.6-0.7,0.6c-0.3,0-0.6-0.4-0.7-0.7C128.4,238.5,128.4,237.9,128.4,237.2C128.4,237.2,128.4,237.2,128.4,237.2z"/>
	<path class="st38" d="M127.4,254.9c0.1-0.9,0.2-1.8,0.3-2.7c0.1-0.3,0.4-0.5,0.7-0.7c0.2,0.2,0.6,0.4,0.6,0.7
		c0,1.3-0.1,2.6-0.3,3.9c0,0.2-0.4,0.4-0.6,0.4c-0.2-0.1-0.5-0.3-0.6-0.6C127.4,255.6,127.5,255.3,127.4,254.9
		C127.5,254.9,127.4,254.9,127.4,254.9z"/>
	<path class="st38" d="M129.1,204.3c0.1-0.6,0-1.2,0.2-1.8c0.1-0.3,0.5-0.4,0.7-0.7c0.2,0.2,0.5,0.4,0.6,0.7
		c0.1,0.9,0.3,1.8,0.2,2.7c0,0.4-0.6,0.7-1,1.1c-0.2-0.4-0.5-0.8-0.6-1.2C129.1,204.9,129.1,204.6,129.1,204.3
		C129.1,204.3,129.1,204.3,129.1,204.3z"/>
	<path class="st23" d="M129.1,299.9c0-0.4-0.1-0.9,0-1.3c0.1-0.4,0.4-0.7,0.7-1c0.3,0.3,0.8,0.5,0.8,0.8c0,1.1-0.1,2.3-0.2,3.4
		c0,0.2-0.4,0.5-0.6,0.5c-0.2,0-0.5-0.3-0.6-0.5C129.2,301.3,129.1,300.6,129.1,299.9C129.1,299.9,129.1,299.9,129.1,299.9z"/>
	<path class="st36" d="M129.6,279c-0.3,0.5-0.5,0.8-0.8,1.2c-0.3-0.4-0.8-0.7-0.9-1.2c-0.1-0.6,0-1.2,0.1-1.8c0-0.1,0.6-0.1,0.7,0
		C129.1,277.7,129.3,278.3,129.6,279z"/>
	<path class="st23" d="M97.3,309.2c-0.1,0.8-0.1,1.7-0.4,2.5c-0.1,0.4-0.7,0.7-1.1,1.1c-0.3-0.4-0.7-0.8-0.7-1.3
		c-0.1-0.7,0.1-1.5,0.2-2.3c0.1-0.8,0.1-1.9,1.2-1.8c0.4,0,0.7,1.1,1,1.7C97.4,309.1,97.4,309.2,97.3,309.2z"/>
	<path class="st24" d="M95.8,293.9c0.4-0.1,0.9-0.5,1.1-0.4c0.3,0.1,0.5,0.7,0.5,1.1c0.1,0.9,0.1,1.8,0,2.6c-0.1,0.4-0.6,0.7-0.9,1
		c-0.3-0.3-0.7-0.7-0.7-1C95.7,296.1,95.8,295,95.8,293.9C95.8,293.9,95.8,293.9,95.8,293.9z"/>
	<path class="st37" d="M95.7,302.4c0.1-0.7,0.2-1.5,0.4-2.2c0-0.1,0.6-0.3,0.7-0.2c0.7,0.6,0.9,3.8,0.3,4.6
		c-0.1,0.2-0.5,0.3-0.7,0.3c-0.2-0.1-0.5-0.4-0.6-0.6c-0.1-0.6,0-1.2,0-1.8C95.8,302.4,95.7,302.4,95.7,302.4z"/>
	<path class="st24" d="M97.7,318.4c-0.1,0.1-0.4,0.6-0.7,0.7c-0.7,0.2-1.5-1.2-1.4-2.4c0-0.4,0.4-1,0.8-1.1
		C97,315.4,97.7,316.8,97.7,318.4z"/>
	<path class="st29" d="M129.1,330.6c0.4,0.3,1,0.4,1.3,0.8c0.4,0.5,1.1,1.2,1,1.7c-0.1,1-1.1,0.7-1.8,0.6c-4-2.5-8.4-2.9-12.9-2.1
		c-0.9,0.2-1.7,0.7-2.6,1.1c-0.4,0.1-0.8,0.1-1.2,0.1c0.1-0.4,0.1-1,0.4-1.2c1.9-2,4.4-2.4,7-2.5
		C123.4,328.8,126.3,329.4,129.1,330.6z"/>
	<path class="st39" d="M121.9,325.1c1,0.3,2.1,0.6,3.2,1c0.3,0.1,0.4,0.6,0.6,1c-0.3,0.2-0.6,0.4-0.9,0.5c-0.4,0.1-0.8,0-1.2,0
		c-1.7,0-3.5,0-5.2,0c-0.5,0-1.4-0.1-1.5-0.5c-0.3-0.8,0.5-1.1,1.1-1.2C119.2,325.7,120.4,325.4,121.9,325.1z"/>
	<path class="st40" d="M120.3,322.4c1,0,2,0,3,0c1,0,1.5,0.6,1.3,1.6c-0.6,0.1-1.1,0.4-1.7,0.4c-1.7,0.2-3.5,0.3-5.2,0.3
		c-0.5,0-0.9-0.3-1.4-0.4c0.3-0.4,0.5-1,0.9-1.2C118.2,322.9,119.2,322.7,120.3,322.4z"/>
	<path class="st41" d="M121.7,47.3c0.1,0,0.3,0,0.4,0c0.2,0,0.3,0,0.8,0.1c-0.6,0.3-1,0.5-1.3,0.7C121.6,47.9,121.7,47.6,121.7,47.3
		z"/>
	<path class="st42" d="M93.9,75.2c3.3,0.4,6.5,0,9.4-1.7c-0.1,3.2-3.9,6.6-6.9,6.2c-1-0.1-1.7-0.6-1.9-1.7
		C94.4,77.1,94.1,76.2,93.9,75.2z"/>
	<path class="st43" d="M106.6,39.3c-2.2-0.1-4.1-0.2-6-0.4c-0.2,0-0.5-0.8-0.5-1.2c0-0.2,0.5-0.7,0.8-0.7
		C102.8,37.2,104.6,38.1,106.6,39.3z"/>
	<path class="st44" d="M84.3,40.6c1.4-1.6,3.3-2.3,5.3-2.8c0.2-0.1,0.5,0.1,0.7,0.2c-0.1,0.3-0.2,0.8-0.4,0.9
		c-0.5,0.3-1.1,0.3-1.6,0.4c-1.3,0.5-2.5,1-3.7,1.5C84.3,40.9,84.2,40.8,84.3,40.6z"/>
	<path class="st45" d="M84.3,40.6c0.1,0.1,0.2,0.2,0.3,0.3c-0.3,0.4-0.7,0.7-1,1.1c-0.1-0.1-0.2-0.1-0.2-0.2
		C83.6,41.4,83.9,41,84.3,40.6z"/>
</g>
</svg>
