<?xml version="1.0" encoding="utf-8"?>
<!-- Generator: Adobe Illustrator 25.2.2, SVG Export Plug-In . SVG Version: 6.00 Build 0)  -->
<svg version="1.1" id="whiteboard_xA0_Image_1_" xmlns="http://www.w3.org/2000/svg" xmlns:xlink="http://www.w3.org/1999/xlink"
	 x="0px" y="0px" viewBox="0 0 296.3 198" style="enable-background:new 0 0 296.3 198;" xml:space="preserve">
<style type="text/css">
	.st0{fill:#FEFEFE;}
	.st1{fill:#004754;}
	.st2{fill:#B9B9B9;}
	.st3{fill:#004753;}
	.st4{fill:#BABABA;}
	.st5{fill:#004552;}
	.st6{fill:#F8F6DD;}
	.st7{fill:#00343D;}
	.st8{fill:#9B9E9F;}
	.st9{fill:#00343E;}
	.st10{fill:#B1AF9E;}
	.st11{fill:#00434F;}
	.st12{fill:#BDBDBD;}
	.st13{fill:#FDFDFD;}
	.st14{fill:#00424E;}
	.st15{fill:#707273;}
	.st16{fill:#B7B7B7;}
	.st17{fill:#6E7070;}
	.st18{fill:#727475;}
	.st19{fill:#B6B6B6;}
	.st20{fill:#010101;}
	.st21{fill:#020202;}
</style>
<g>
	<path d="M148.1,198c-48.6,0-97.2,0-145.8,0c-2.2,0-2.4-0.1-2.4-2.4c0-1.7,0-3.4,0-5.2c0-1.9,0.2-2.1,2-2.1c0.2,0,0.5,0.1,0.7,0
		c0.2-0.1,0.5-0.4,0.6-0.6c0.1-0.6,0-1.3,0-1.9c1.1-28.4,0.3-56.8,0.5-85.2c0.1-28.4,0.1-56.9-0.1-85.3c0-2.9-0.6-6-0.5-9
		c0-3,1.7-5.6,4.4-6C10.2,0,13-0.2,15.6,0.3c1.6,0.3,3.2,0.4,4.8,0.4c86,0,171.9,0,257.9,0c3,0,5.9-0.5,8.9-0.5
		c4.2-0.1,6.6,2.4,6.6,6.6c0,1.5,0,3,0,4.6c0,0.9,0.3,1.9-0.9,2.6c-0.2,0.1-0.1,0.7-0.1,1.1c0,10.4,0,20.7,0,31.1
		c0,44,0,88.1,0,132.1c0,0.7-0.1,1.4,0.7,1.8c0.3,0.2,0.4,0.9,0.5,1.4c0,2,0,4.1,0,6.1c0,0.7,0.1,1,0.8,0.9c1.1-0.1,1.5,0.6,1.4,1.6
		c0,2.2,0,4.3,0,6.5c0,1.1-0.5,1.6-1.6,1.6c-0.3,0-0.6,0-1,0C245.2,198,196.7,198,148.1,198z"/>
	<path class="st0" d="M280.5,9.7c1.4,1.4,3.3,2.6,3.9,4.3c0.7,1.7,0.2,3.9,0.2,5.8c0,52.9,0,105.7,0,158.6c0,0.9-0.2,1.6-0.9,2.2
		c-1.1,1-2.1,2.2-3.2,3.3c-0.2,0.2-0.6,0.4-0.9,0.4c-6.4,0-12.9,0-19.3,0c-0.7,0-0.8-0.3-0.8-0.9c0-1.5,0-3,0-4.6
		c0-1.4-0.4-1.8-1.7-1.8c-6.3,0-12.5,0-18.8,0c-0.8,0-1.4,0.1-1.7,1c-0.1,0.1-0.1,0.3-0.3,0.4c-1,0.5-3.5,0.3-4.2-0.4
		c-0.5-0.3-1.1-0.9-1.6-0.9c-2.1-0.1-4.2-0.1-6.2,0c-1.3,0-1.6,0.4-1.6,1.7c0,1.6,0,3.2,0,4.8c0,0.6-0.2,0.8-0.8,0.8
		c-1.9,0-3.8,0-5.8,0c-0.4,0-0.8-0.3-1.1-0.6c-1-1.3-2.3-2.1-4-2.1c-9.1,0-18.2,0-27.3,0c-1.7,0-3,0.7-4,2c-0.3,0.3-0.8,0.5-1.2,0.7
		c-0.2,0.1-0.4,0-0.6,0c-53,0-106,0-159,0c-0.5,0-1,0-1.4-0.1c-1.8-1.1-3-2.7-4.4-4.1c-0.4-0.4-0.4-0.9-0.5-1.5c0-0.6,0-1.3,0-1.9
		c0-46.1,0.1-92.1-0.1-138.2c0-7.5-0.1-14.9-0.2-22.4c0-1.6,0.6-2.7,1.6-4c1.7-2.1,3.8-2.7,6.5-2.7c85.8,0.1,171.6,0.1,257.4,0.1
		C279.1,9.5,279.9,9.3,280.5,9.7z"/>
	<path class="st1" d="M17.7,3.2c0.5,0,1,0,1.6,0c86.4,0,172.8,0,259.2,0c0.3,0,0.6,0,0.8,0c0.2,0,0.4-0.1,0.5,0
		c1.1,0.8,0.3,1.9,0.5,2.8c0,0.2-0.4,0.6-0.7,0.8c-0.2,0.1-0.5,0-0.8,0c-86.6,0-173.1,0-259.7,0c-0.4,0-0.9,0-1.3,0
		C17.2,5.6,17.2,4.4,17.7,3.2z"/>
	<path class="st0" d="M2.4,194c0-1-0.3-2.3,0.2-3c0.4-0.5,1.9-0.2,2.8-0.2c58.4,0,116.8,0,175.2,0c13.9,0,27.8,0,41.7,0
		c11.6,0,23.2,0.1,34.8,0.1c11.4,0,22.9,0,34.3,0c0.5,0,1,0.1,1.4,0.1c0.6,0.8,0.4,1.7,0.3,2.5c-0.1,0.7-0.7,0.9-1.3,0.9
		c-1.3,0.1-2.6,0.1-4,0c-1.3-0.1-2.5-0.2-3.8-0.2c-92.5,0-185,0-277.6,0c-1,0-1.9,0-2.9,0.1C3.2,194.2,2.8,194.3,2.4,194z"/>
	<path class="st2" d="M2.4,194c4.1-0.1,8.3-0.2,12.4-0.2c89.2,0,178.4,0,267.6,0c3.1,0,6.1,0.1,9.2,0.2c0.8,0,1.2-0.2,1.1-1.1
		c-0.1-0.7,0-1.4,0-2c0.8-0.3,1.1,0,1.1,0.8c-0.1,1,0,2.1,0,3.1c0,0.6-0.2,0.9-0.8,0.8c-0.3,0-0.6,0-0.8,0c-96.1,0-192.2,0-288.2,0
		C2.4,195.6,2.4,195.6,2.4,194z"/>
	<path class="st3" d="M9.6,179.6c-3.4,0.1-3.4,0.1-3.4-3.2c0-53.4,0-106.7,0-160.1c0-0.6,0-1.2,0-1.8c0.9-0.4,1.9-0.1,2.8-0.1
		c0.4,0,0.6,0.3,0.6,0.7c0,0.3,0,0.6,0,1c0,54,0,108.1,0,162.1C9.7,178.7,9.8,179.2,9.6,179.6z"/>
	<path class="st4" d="M280.5,9.7c-2.2,0-4.4,0-6.6,0c-75.7,0-151.4,0-227.1,0c-9.4,0-18.7,0-28.1,0c-0.8,0-1.4,0.3-2,0.8
		c-2.8,2.1-3.7,4.7-3.4,8.2c0.3,4.9,0.1,9.9,0.1,14.9c0.1,48.2,0.1,96.4,0.2,144.7c0,0.9,0.3,1.6,0.9,2.2c1.3,1.2,2.5,2.5,3.7,3.8
		c-0.8,0.2-1.4,0-2.1-0.7c-1.2-1.3-2.5-2.5-3.7-3.7c-0.1-0.1-0.2-0.4-0.3-0.6c0-0.3,0-0.6,0-1c0-54.3,0-108.6,0-162.9
		c0-0.8,0.2-1.4,0.9-2c1.2-1,2.2-2.3,3.3-3.4c0.3-0.3,0.8-0.4,1.2-0.5c0.2-0.1,0.4,0,0.6,0c87,0,173.9,0,260.9,0
		C279.5,9.2,280,9.5,280.5,9.7z"/>
	<path class="st1" d="M289.4,179.5c-2.4,0.1-2.4,0.1-2.4-2.2c0-53.8,0-107.7,0-161.5c0-0.6,0-1.2,0-1.8c0.1-0.1,0.3-0.1,0.4-0.1
		c2.3,0.2,2.5,0.4,2.3,2.8c-0.2,1.6-0.2,3.3-0.2,4.9c0,46.6,0,93.1,0,139.7c0,5.4,0.2,10.9,0.2,16.3
		C289.8,178.3,290,179,289.4,179.5z"/>
	<path class="st5" d="M179.8,187c0.1,0.3,0.2,0.6,0.3,1c0,0.3-0.1,0.3-0.4,0.4c-0.4,0-0.7,0-1.1,0c-52.9,0-105.8,0-158.7,0
		c-0.4,0-0.7,0-1.1,0c-0.5,0-0.7-0.4-0.7-0.8c0-0.4,0.1-0.8,0.7-0.8c0.3,0,0.6,0,0.8,0c52.9,0,105.8,0,158.7,0
		C178.9,186.7,179.5,186.4,179.8,187z"/>
	<path class="st6" d="M232.9,177.9c1.5,0,3,0,4.5,0c0,1.2,0.6,1.5,1.7,1.5c5.8,0,11.5,0,17.3,0c0.6,0.3,0.6,0.8,0.6,1.3
		c0,1.8,0,3.7,0,5.5c0,0.9-0.4,1.4-1.3,1.4c-3.5,0.1-6.9,0.1-10.4,0c-0.2,0-0.4-0.1-0.6-0.2c-0.4-0.3-0.3-0.8-0.3-1.2
		c0.1-0.9-0.1-1.6-0.9-2c-0.6-0.3-1.2-0.3-1.8,0.1c-0.7,0.5-0.9,1.2-0.7,2c0.1,0.4,0.2,0.8-0.2,1.1c-0.6,0.3-1.2,0.3-1.7,0.3
		c-3.8,0-7.6,0-11.4,0c-0.6,0-1.3,0.1-1.8-0.4c0-2.4,0-4.8-0.1-7.2c0-0.7,0.3-0.8,0.9-0.8c1.6,0,3.1,0,4.7,0
		C232.4,179.4,232.9,179,232.9,177.9z"/>
	<path class="st7" d="M289.4,179.5c0-4.6,0-9.2,0-13.8c-0.1-48.2-0.2-96.3-0.2-144.5c0-1.9,0.1-3.8,0.2-5.7c0.1-0.9-0.1-1.5-1.2-1.3
		c-0.4,0-0.8-0.1-1.2-0.2c1-0.1,1.9-0.2,2.9-0.2c0.1,0,0.3,0.4,0.4,0.6c0.1,0.3,0,0.6,0,1c0,54.2,0,108.4,0,162.7
		C290.4,178.7,290.9,179.8,289.4,179.5z"/>
	<path class="st7" d="M179.8,187c-0.5-0.1-0.9-0.2-1.4-0.2c-52.9,0-105.8,0-158.7,0c-0.2,0-0.5-0.1-0.7,0c-0.2,0.2-0.5,0.5-0.5,0.7
		c0,0.2,0.3,0.6,0.6,0.7c0.3,0.1,0.7,0,1.1,0c52.8,0,105.6,0,158.5,0c0.5,0,1-0.1,1.5-0.2c0,0.1,0,0.4-0.1,0.4c-0.4,0-0.7,0-1.1,0
		c-53.2,0-106.5,0-159.7,0c-0.5,0-1,0-1.4,0c-0.8,0.1-1.1-0.2-1.1-1c0-0.8,0.4-1,1-0.9c0.5,0,1,0,1.6,0c53,0,106,0,159,0
		C178.8,186.6,179.3,186.9,179.8,187z"/>
	<path class="st8" d="M8.6,11.1c-2.8,0-2.9,0-2.8-2.8c0-1,0-2.1,0.2-3.1c0.3-1.5,1.5-2.4,3-2.4c1.4,0,2.9,0,4.3,0
		c0.7,0,0.8,0.3,0.8,0.8c0,0.7-0.1,1.4,0,2c0.4,2.4-1,3.8-2.5,5.2c-0.2,0.2-0.6,0.3-0.8,0.3C10.1,11.1,9.3,11.1,8.6,11.1z"/>
	<path class="st8" d="M290.4,11.1c-1.4,0-2.9,0.1-4.3,0.1c-0.2,0-0.5,0-0.6-0.1c-1.1-1.3-2.9-2.1-2.6-4.4c0.2-1.1,0-2.2,0.1-3.2
		c0-0.3,0.4-0.7,0.6-0.7c1.5-0.1,3-0.1,4.4,0c0.8,0.1,1.4,0.7,2.2,1C291.3,6.3,291,8.7,290.4,11.1z"/>
	<path class="st0" d="M190.4,187c-0.7-2-0.1-2.9,2-2.9c5.5,0,10.9,0,16.3,0c0,1,0,2,0,2.9c-0.4,0.4-1,0.4-1.6,0.4
		c-5,0-10.1,0-15.1,0C191.4,187.4,190.9,187.4,190.4,187z"/>
	<path class="st9" d="M9.6,179.6c0-54.5,0-109,0-163.4c0-1.2-0.3-1.5-1.5-1.4c-0.6,0.1-1.3-0.1-1.9-0.2c0.1-0.2,0.3-0.7,0.4-0.7
		c0.9-0.1,1.8-0.1,2.6,0c0.2,0,0.4,0.4,0.5,0.6c0.1,0.4,0,0.9,0,1.3c0,54.1,0,108.2,0,162.3C9.8,178.6,9.7,179.1,9.6,179.6z"/>
	<path class="st8" d="M6.1,188.2c0-1.7-0.1-3.5-0.1-5.2c0-0.2,0.4-0.6,0.7-0.7c1.4-0.1,2.9-0.1,4.3,0c0.3,0,0.7,0.2,0.9,0.4
		c0.7,0.7,1.4,1.4,2.1,2.2c0.3,2-0.8,3.5-2.8,3.4C9.4,188.3,7.7,188.5,6.1,188.2z"/>
	<path class="st10" d="M244.6,187c0.4,0.1,0.7,0.3,1.1,0.3c3.3,0,6.6,0,9.9,0c0.8,0,1.1-0.2,1.1-1.1c-0.1-1.9,0-3.8,0-5.7
		c0-0.4-0.2-0.8-0.3-1.1c0.7-0.2,0.9,0.1,0.9,0.8c0,2.4-0.1,4.8,0,7.2c0,1-0.5,1-1.2,1c-8.8,0-17.7,0-26.5,0c-0.9,0-1.8-0.1-2.8,0
		c-0.9,0.1-1.1-0.3-0.9-1.1c4.7,0,9.4,0,14.1,0c0.3,0,0.7-0.1,1-0.2c0.1-0.1,0.3-0.1,0.4,0c0.9,0.7,1.8,0.7,2.7,0
		C244.3,187,244.4,186.9,244.6,187z"/>
	<path class="st11" d="M270.2,188.4c-3.1,0-6.1,0-9.2,0c-0.6,0-1.3,0.1-1.3-0.9c0-1,0.5-1,1.2-1c6.1,0,12.2,0,18.3,0
		c0.7,0,1.4-0.1,1.4,1c0,1.1-0.8,0.9-1.4,0.9C276.1,188.4,273.2,188.4,270.2,188.4z"/>
	<path class="st8" d="M283.2,188.2c-0.7-2.5,0.5-4.3,2.4-5.8c0.2-0.2,0.6-0.2,0.9-0.2c1.4,0,2.8,0,4.2,0c0.4,0.4,0.3,0.8,0.2,1.2
		c-0.3,1.1-0.8,2.2-1.6,3.1c-1,1.2-2.2,2-3.8,1.8C284.7,188.2,284,188.5,283.2,188.2z"/>
	<path class="st12" d="M190.4,187c6.1,0,12.2,0,18.3,0c0.5,0.8,0.3,1.1-0.6,1.1c-5.2,0-10.3,0-15.5,0
		C191.7,188,190.7,188.2,190.4,187z"/>
	<path class="st13" d="M182.8,187.2c-0.9-1.7-0.1-3.1,1.8-3.1c1,0,2.1,0,3,0c0,1,0,2,0,2.9C186,188,184.4,187.8,182.8,187.2z"/>
	<path class="st14" d="M219.7,188.4c-0.9,0-1.8,0-2.6,0c-0.3,0-0.6-0.2-1-0.4c0.3-0.5,0.6-1.4,1-1.4c1.9-0.1,3.8-0.1,5.7,0
		c0.2,0,0.6,0.6,0.6,0.9c0,0.3-0.4,0.9-0.7,0.9C221.7,188.5,220.7,188.4,219.7,188.4C219.7,188.4,219.7,188.4,219.7,188.4z"/>
	<path class="st15" d="M283.2,188.2c0.5,0,1,0,1.4,0c3.4,0,5.9-2.5,6-6c0.2,0.2,0.7,0.3,0.7,0.5c0,1.6,0.1,3.3,0,4.9
		c0,0.3-0.5,0.8-0.8,0.8c-2.3,0.1-4.7,0-7,0C283.4,188.4,283.3,188.3,283.2,188.2z"/>
	<path class="st16" d="M212.2,184.3c1,0,1.8,0.9,1.7,1.8c-0.1,0.8-0.3,1.6-1.3,1.6c-1,0-1.4-0.8-1.4-1.8
		C211.3,185.2,211.3,184.4,212.2,184.3z"/>
	<path class="st17" d="M6.1,188.2c1.5,0,2.9,0,4.4,0c2.1,0,3.3-1.1,3.4-3.3c0.1,1,0.2,2.1,0.2,3.1c0,0.1-0.3,0.4-0.5,0.4
		c-2.5,0-4.9,0-7.4,0C6.2,188.4,6.1,188.2,6.1,188.2z"/>
	<path class="st18" d="M290.4,11.1c0.1-1.1,0.2-2.2,0.2-3.3c0-1.3-0.3-2.6-0.4-3.9c0.3,0.7,0.8,1.3,0.9,2c0.1,1.5,0,3,0.1,4.6
		C291.2,11,291,11.3,290.4,11.1z"/>
	<path class="st19" d="M182.8,187.2c1.6-0.1,3.2-0.1,4.7-0.2c0.4,0.7,0.4,1.1-0.6,1c-0.9-0.1-1.8,0.1-2.6-0.1
		C183.8,187.9,183.3,187.5,182.8,187.2z"/>
	<path class="st7" d="M17.7,3.2c0,1.2,0,2.4,0,3.6c-0.7,0.1-1.1-0.1-1-0.9c0-0.6,0-1.2,0-1.8C16.7,3.4,17,3.1,17.7,3.2z"/>
	<path class="st20" d="M244.6,187c-1.3,1.2-2.2,1.3-3.6,0.1c-0.6-1.5-0.3-2.6,0.8-3.2c1-0.5,2.3-0.2,2.7,0.8
		C244.8,185.4,244.6,186.2,244.6,187z"/>
	<path class="st20" d="M252,184.4c-1.2,0-2.1-0.8-2.1-2c0-1.1,0.9-2.1,2-2.1c1.1,0,2.1,0.9,2.1,2C254,183.5,253.1,184.4,252,184.4z"
		/>
	<path class="st21" d="M233.8,183.8c0,1-0.8,1.9-1.9,1.9c-1,0-1.9-0.9-1.9-1.9c0-1,0.9-1.9,1.9-1.9C233,182,233.8,182.8,233.8,183.8
		z"/>
</g>
</svg>
