<?xml version="1.0" encoding="UTF-8"?><svg id="Layer_2" xmlns="http://www.w3.org/2000/svg" viewBox="0 0 163.125 343.142"><defs><style>.cls-1{fill:#032d55;}.cls-2{fill:#0053a3;}.cls-3{fill:#052543;}.cls-4{fill:#020202;}.cls-5{fill:#fff;}.cls-6{fill:#e81a33;}.cls-7{fill:#7e5536;}.cls-8{fill:#979797;}.cls-9{fill:#8b8b8b;}.cls-10{fill:#cbcbcb;}.cls-11{fill:#a8a8a8;}.cls-12{fill:#212121;}.cls-13{fill:#555;}.cls-14{fill:#646569;}.cls-15{fill:#3d3d3d;}.cls-16{fill:#797979;}</style></defs><g id="i5"><g id="_1"><g id="Vet_Image"><g><path class="cls-4" d="m77.15,115.542c-3.589,6.222-6.821,12.643-10.486,18.826-.914,1.542-1.956,2.799-3.671,3.393-.716.248-.795.561-.362,1.198.74,1.088,1.39,2.238,2.067,3.369.959,1.6.784,2.262-.887,3.144-9.464,4.994-18.934,9.978-28.401,14.968-1.802.949-3.591,1.923-5.402,2.854-1.357.698-2.005.506-2.763-.82-2.615-4.575-5.231-9.151-7.8-13.752-.392-.703-.705-.856-1.459-.526-1.678.733-3.207.065-4.675-.721-3.707-1.985-6.093-5.201-8.117-8.751-1.687-2.96-1.446-5.866.175-8.769.349-.626.822-1.111,1.405-1.433.828-.457.703-.911.302-1.604-2.159-3.732-4.279-7.487-6.403-11.24-1.147-2.027-.886-2.816,1.225-3.827,2.232-1.069,4.443-2.187,6.702-3.196,1.332-.595,2.451-1.487,3.648-2.274.364-.239.46-.456.255-.876-.865-1.773-.502-3.242,1.168-4.346.338-.223.385-.531.41-.917.185-2.797,3.082-4.389,5.571-3.053.387.208.729.246,1.134.203,1.776-.184,3.384.06,4.275,1.873.274.558.656.293,1.012.209,2.651-.622,5.171-1.578,7.588-2.842,2.18-1.139,2.602-.985,3.916,1.168,4.39,7.192,8.789,14.378,13.131,21.599.54.899.866.882,1.661.322.956-.674,1.585-1.466,2.028-2.552,4.33-10.64,8.58-21.312,13.098-31.875.266-.622.553-1.254.686-1.911.916-4.534,4.063-7.171,7.953-8.962,3.696-1.702,7.35-3.52,11.138-5,2.853-1.115,4.455-3.656,6.774-5.361.571-.42.766-1.374,1.091-2.101.669-1.493,1.783-2.345,3.434-2.365.82-.01,1.199-.278.985-1.129-.019-.077-.043-.164-.026-.237.981-4.133-1.779-6.748-3.949-9.565-1.221-1.585-2.349-3.137-2.02-5.284.089-.578-.052-.973-.699-1.156-.908-.257-1.457-.938-1.81-1.789-1.022-2.461-1.595-5.016-1.599-7.688,0-.65.022-1.397.492-1.808.971-.848.714-1.841.598-2.857-.462-4.06-.56-8.125-.221-12.202.617-7.422,4.711-12.065,11.557-14.513,5.075-1.814,10.158-1.804,15.261-.056,7.602,2.604,11.462,7.888,11.814,16.229.162,3.842.022,7.669-.462,11.483-.073.574-.073,1.053.417,1.512.647.605.785,1.457.778,2.32-.023,2.63-.59,5.145-1.595,7.569-.301.725-.723,1.407-1.476,1.648-.885.283-1.186.764-1.046,1.657.265,1.687-.319,3.127-1.368,4.425-.527.652-.893,1.492-1.535,1.982-2.451,1.875-2.169,4.485-2.09,7.066.009.284.015.556.32.715.978.509,1.332,1.458,1.623,2.417.398,1.312,1.148,2.247,2.321,3.029,2.058,1.372,4.006,2.921,5.62,4.829.429.508.993.791,1.581,1.05,5.296,2.333,10.619,4.607,15.879,7.021,3.15,1.446,5.258,3.91,5.924,7.368,2.861,14.86,5.673,29.729,8.506,44.594.149.783.294,1.57.503,2.339.739,2.719-.233,5.313-.627,7.926-1.825,12.081-3.739,24.148-5.65,36.215-.249,1.573-.638,3.124-.791,4.716-.052.545-.282,1.101-.837,1.202-.786.142-.863.682-.982,1.269-.159.782-.325,1.564-.508,2.341-.145.617-.467,1.1-1.116,1.291-.324-.06-.802-.418-.692.358-.145,4.278.05,8.55.467,12.802.202,2.057-.15,3.884-1.28,5.57-.445.664-.601,1.351-.596,2.139.036,6.03.046,12.06.069,18.09.004,1.061-.487,1.628-1.566,1.706-1.593.116-3.183.315-4.777.378-.862.034-1.025.373-1.006,1.168.366,15.491.704,30.983,1.05,46.475.365,16.37.738,32.74,1.087,49.11.026,1.203.573,2.621-1.086,3.329-.271.115-.078.511-.015.775.768,3.22,1.497,6.45,2.9,9.478.571,1.232.31,2.397-.688,3.388-.881.875-1.999,1.314-3.16,1.626-1.93.518-3.88.922-5.906.8-.333-.02-.914-.337-.97.412,0,0,.03.019.03.019h-.48c.397-.672-.214-.451-.441-.453-1.484-.014-2.954-.13-4.395-.503-1.325-.344-2.577-.858-3.685-1.675-1.064-.784-1.438-1.796-1.207-3.141.513-2.99.926-5.996,1.367-8.998.043-.293.244-.7-.136-.869-1.128-.499-.986-1.522-1.1-2.455-1.386-11.337-2.775-22.673-4.165-34.01-1.239-10.108-2.368-20.23-3.754-30.317-1.038-7.552-2.39-15.061-3.631-22.585-1.592-9.651-3.213-19.297-4.823-28.945-.046-.275-.119-.546-.18-.819-.006-.235-.012-.47-.018-.705-.01-.229.158-.612-.243-.568-.23.025-.173.356-.013.552.004.236.008.473.012.709-.647,9.808-1.285,19.617-1.945,29.425-.402,5.98-.862,11.957-1.248,17.938-.296,4.594.037,9.188.196,13.776.673,19.415.643,38.838.736,58.26.003.559.009,1.12.06,1.675.154,1.651-.394,2.139-2.108,1.846-.103-.188-.269-.149-.341-.023-.101.179,0,.343.181.443.492,1.662.733,3.34.472,5.079-.353,2.348-1.768,3.668-3.991,4.227-2.061.518-4.135.423-6.173-.067-2.028-.487-4.028-.375-6.061-.086-5.308.753-10.639,1.253-15.991.602-2.808-.342-5.292-1.507-7.198-3.683-.443-.506-.858-1.065-1.157-1.664-1.285-2.573-.026-4.863,2.832-5.204,1.346-.16,2.705-.079,4.054-.328,1.631-.301,3.123-.947,4.625-1.586,3.085-1.312,6.169-2.629,9.063-4.34.223.026.387-.103.421-.285.028-.154-.143-.233-.307-.238-.499-.498-.546-1.101-.492-1.772.724-9.038,1.505-18.072,2.115-27.117.298-4.425-.172-8.861-.348-13.289-.199-4.985-.139-9.987-.793-14.949.113-.133.094-.255-.033-.366-1.478-12.718-2.965-25.434-3.793-38.216-.018-.276-.002-.555-.002-.832.54-.18,1.171.17,1.682-.275-.631-.242-1.258-.292-1.9-.151-.796-.059-1.592-.117-2.388-.177-1.021-.077-1.53-.69-1.509-1.65.084-3.749.234-7.496.325-11.245.104-4.312.235-8.624.24-12.936.008-6.426-.266-12.857-.089-19.276.234-8.462.233-16.926.452-25.387.178-6.866.878-13.714.722-20.59-.082-3.593-.075-7.198-.393-10.772-.239-2.69-.933-5.339-1.42-8.007-.064-.353-.101-.711-.151-1.067.043-.356.192-.789-.188-.989-.183-.096-.325.232-.318.478Zm55.809-43.073c-.336-.139-.454-.06-.294.295l.032.079.084.011c.451.89.894,1.785,1.357,2.669.366.699.339,1.19-.424,1.687-1.704,1.11-3.324,2.348-5.002,3.5-.491.337-.566.605-.283,1.158.78,1.527,1.481,3.095,2.199,4.653.448.971.381,1.891-.145,2.857-1.414,2.593-2.746,5.228-3.949,7.929-.219.491-.335.828.14,1.241,1.862,1.619,2.619,3.785,2.85,6.151.483,4.938.483,9.894.469,14.849-.001.485-.008,1.038-.34,1.371-1.091,1.094-.635,2.266-.293,3.451-.111.28,0,.474.237.621.407.997.815,1.994,1.222,2.992-.085.215-.016.387.147.534.014.119.023.238.041.356.723,4.509-.4,6.297-4.784,7.568-.298.086-.488.193-.612.478-.723,1.668-2.084,2.318-3.818,2.359-.245-.051-.297.061-.229.273.161,2.108.341,4.215.479,6.325.385,5.896.798,11.79,1.043,17.696.373,8.974.648,17.95.629,26.93-.024,11.222-.165,22.444-.288,33.666-.008.748.237.951.922,1.016,1.608.152,3.187-.174,4.783-.201,5.878-.097,11.726-.612,17.565-1.266.616-.069.915-.22.91-.925-.028-4.435-.024-8.871-.003-13.306.004-.729-.238-.819-.839-.532-1.332.637-2.659,1.289-4.018,1.865-3.264,1.381-4.542,1.188-6.331-.879-.671-.775-1.109-1.67-1.214-2.688-.111-1.071-.18-2.149-.205-3.226-.013-.545-.119-.849-.72-1.015-1.525-.421-2.247-1.524-2.432-3.067-.394-3.281.022-6.543.245-9.803.205-3.003,2.18-5.158,3.956-7.359,1.495-1.853,1.406-4.105,1.955-6.408-2.608.943-4.964,1.813-7.333,2.645-1.278.449-1.769.114-1.931-1.227-.182-1.505-.342-3.013-.551-4.514-.197-1.418-.034-1.736,1.351-2.183,2.735-.882,5.47-1.766,8.219-2.605.732-.224,1.141-.506,1.13-1.377-.015-1.152.131-2.31.248-3.46.75-7.353,1.544-14.701,2.25-22.058.243-2.533.888-5.06.504-7.62-1.293-8.611-2.639-17.213-3.964-25.819-.255-1.658-.517-3.315-.747-4.977-.095-.689.106-1.282.818-1.559.598-.233,1.103-.055,1.48.449.246.329.286.733.347,1.131,1.168,7.62,2.426,15.227,3.484,22.862.587,4.235,1.71,8.388,1.081,12.803-.934,6.561-1.421,13.185-2.099,19.782-.523,5.086-1.049,10.171-1.568,15.257-.056.546-.188,1.041.679,1.21,3.719.726,7.328,1.922,11.05,2.655.752.148.879-.085.977-.696.649-4.02,1.339-8.033,1.98-12.054,1.421-8.914,2.83-17.83,4.222-26.748.423-2.71.965-5.382.42-8.19-2.974-15.325-5.855-30.668-8.773-46.004-.353-1.854-1.403-3.289-2.836-4.449-1.274-1.03-1.578-.982-2.25.519-1.488,3.324-2.593,6.775-3.264,10.362-.145.773-.053,1.982-1.234,1.797-1.213-.19-.728-1.323-.587-2.082.789-4.249,2.102-8.331,4.071-12.272-4.046-1.794-8.094-3.589-12.143-5.384.012-.062-.013-.096-.077-.101Zm-35.817-.248c-.008.307-.015.615-.023.922-.065.363-.247.714-.118,1.099-.921,7.621-1.358,15.265-1.087,22.942.014.389.103.807.273,1.155,1.769,3.614,3.315,7.341,5.417,10.787.018.329.134.599.447.765.135-.262.154-.524.08-.794.076-.592.186-1.181.224-1.775.421-6.607-.733-13.037-2.259-19.415-1.075-4.496-2.146-8.99-2.766-13.577-.009-.394-.019-.788-.028-1.182-.003-.323-.006-.646-.009-.97.136-.074.24-.17.136-.33-.023-.035-.179-.037-.184-.023-.046.128-.071.264-.103.397Zm22.919,17.02c.15-.479.138-.955-.063-1.446-.064.484-.466.868-.348,1.4.069.544-.592,1.484-.06,1.522.798.058.254-.969.471-1.477Zm-4.463,18.434c-.016.466-.033.931-.049,1.397-.391,3.009-.816,6.015-.7,9.063.028.725-.009,1.442-.424,2.08-1.351,2.076-2.246,4.396-3.483,6.533-.526.909-.73,1.939-.877,2.969-.119.837.356,1.51.872,2.019.426.42.79-.312,1.214-.457.493-.168.961-.396,1.5-.351.157.224.316.228.478.006,2.397.384,3.63,1.94,3.361,4.24-.236,2.015-1.942,3.637-3.821,3.632-1.876-.005-3.451-1.527-3.642-3.599-.056-.602-.362-1.016-.654-1.497-.813-1.338-1.821-2.548-1.569-4.368.323-2.335,1.378-4.311,2.482-6.302.565-1.019,1.387-2.038.076-3.127-.151-.126-.139-.448-.203-.679.115-.212.094-.397-.111-.543.01-1.279.02-2.558.03-3.837.209-.147.229-.306.032-.479.065-.8.13-1.599.194-2.399.196-.151.216-.334.1-.542.212-1.823.399-3.65.642-5.469.484-3.624,1.444-6.997,4.954-8.955.391-.218.457-.598.528-1.012.353-2.043.752-4.077,1.113-6.118.761-4.292,2.668-8.405,2.025-12.916.225-.173.207-.332-.027-.478-.104-1.314-.207-2.628-.322-4.082-3.355,3.074-6.879,5.7-8.817,9.76-.189.395-.409.777-.639,1.15-.551.891-1.298.904-1.854.023-.596-.943-1.097-1.954-1.763-2.843-2.058-2.749-3.983-5.582-5.754-8.523-.374-.621-.822-1.198-1.439-2.091-.157,3.218.33,5.995.857,8.744,1.183,6.175,3.047,12.21,3.85,18.467-.024.03-.073.068-.066.088.021.065.063.122.097.183.074.467.149.935.223,1.402-.024.03-.074.068-.068.089.021.066.062.125.096.187.076.87.151,1.74.227,2.61-.237.254-.237.501.021.74-.004,1.435-.009,2.869-.013,4.304-.259.236-.263.484-.034.742-.379,2.912-.76,5.824-1.137,8.736-.116.894-.533,1.813-.04,2.683.828,1.462.889,3.028.782,4.634-.225.136-.253.322-.137.544-.2.905-.514,1.794-1.146,2.457-.677.711-.985,1.516-1.071,2.443-.433,4.657-.858,9.315-1.286,13.972-.206.157-.217.327-.031.508-.072.79-.145,1.579-.217,2.369-.264.233-.264.481-.044.742-.145,1.991-.291,3.982-.436,5.972-.26.234-.267.481-.041.742-.064.953-.128,1.905-.192,2.858-.301.313-.285.64-.042.977-.07,1.272-.139,2.544-.209,3.815-.287.316-.281.644-.041.982-.065,1.59-.13,3.18-.196,4.77-.279.323-.272.655-.029.993-.265,1.982-.134,3.977-.21,5.966-.347.879-.3,1.766-.056,2.658-.252,3.618-.132,7.242-.162,10.863-.018,2.166-.007,2.166,2.104,2.438.2.37.455.437.778.144.793.076,1.585.152,2.378.227.069.115.158.17.29.096,3.423.195,6.845.122,10.266-.048.343.231.671.265.971-.074l1.892-.083c.207.087.382.048.522-.13.947-.091,1.891-.216,2.84-.262,1.069-.052,1.541-.533,1.504-1.63-.13-3.845.07-7.697-.204-11.541.244-.891.292-1.779-.056-2.658-.076-1.988.054-3.984-.21-5.966.243-.338.251-.67-.029-.993-.065-1.59-.13-3.18-.196-4.77.24-.338.246-.666-.041-.982l-.209-3.815c.243-.337.259-.664-.042-.977-.064-.953-.128-1.905-.192-2.858.226-.26.219-.508-.041-.742-.145-1.991-.291-3.982-.436-5.972.22-.261.22-.509-.044-.742-.072-.79-.145-1.579-.217-2.369.185-.181.175-.351-.031-.508-.193-2.11-.02-4.259-1.373-6.168-.651-.918-.548-2.155.051-3.197.318-.554.403-1.114.336-1.72-.269-2.451-.502-4.906-.82-7.351-.656-5.047-1.356-10.088-2.039-15.132-.009-.479-.018-.957-.027-1.436-.018-.36.129-.756-.179-1.089-.396.245-.221.58-.248.864Zm6.192,112.203c-.026-.326-.052-.652-.078-.977.038-2.712.076-5.424.114-8.136.447-.908.207-1.877.191-2.808-.03-1.695.262-3.405-.177-5.085.015-1.367.029-2.735.044-4.102.355-1.526.128-3.074.142-4.61.008-.848.265-1.738-.198-2.557-.026-.15-.052-.299-.078-.449-.018-.054-.036-.108-.055-.162-.042.04-.083.08-.125.12-.391.029-.782.057-1.173.086-.207-.084-.383-.048-.522.134-.632.071-1.263.142-1.895.213-.415-.246-.821-.297-1.207.059-.782.267-1.59.17-2.391.174-.495-.241-.981-.345-1.431.093-.559.014-1.117.027-1.676.041-.894-.135-1.79-.12-2.686-.019-1.272-.023-2.544-.046-3.816-.07-.318-.304-.646-.271-.981-.032l-1.898-.186c-.28-.341-.636-.25-.989-.173-.472-.034-.944-.067-1.416-.101-1.501-.498-1.694-.351-1.469,1.079.055.351.032.715.033,1.074.004,4.942.003,9.885.016,14.827.001.422-.146.884.199,1.258.025,3.101.05,6.201.076,9.302.008,1.776-.262,3.562.172,5.324.018.638.059,1.276.049,1.914-.027,1.693-.035,1.699-1.787,1.699-1.519,0-3.038,0-4.556-.031-.562-.012-.9.074-.891.761.062,4.468-.121,8.942.414,13.395-.21.262-.212.512.047.745.041.859.082,1.719.123,2.578-.104.357-.176.709.127,1.015.069.873.139,1.746.208,2.619-.238.258-.231.504.037.737.113,1.821.226,3.641.339,5.462-.093.356-.171.711.134,1.015.036.781.073,1.561.109,2.342-.098.357-.172.71.132,1.015.147,2.072.295,4.144.442,6.216-.248.337-.257.664.042.977.036.861.073,1.722.109,2.583-.104.357-.178.709.126,1.016.039.94.078,1.881.117,2.821-.098.432-.211.866.13,1.253l.169,2.647c-.244.318-.153.689-.153,1.039-.003,7.09,0,14.18.004,21.271,0,.313-.074.642.144.922-.217,2.56-.433,5.12-.65,7.68-.029.025-.085.054-.082.074.009.067.04.131.063.196-.072.711-.144,1.422-.217,2.133-.257.225-.238.493-.12.776-.122,1.579-.243,3.158-.365,4.738-.208.155-.224.321-.032.501-.068.713-.136,1.426-.204,2.139-.258.224-.237.493-.122.776-.029.357-.063.715-.087,1.072-.032.482-.24.863-.712,1.001-.547.159-.931-.064-1.094-.626-.024-.107-.049-.213-.073-.32.064-.551.128-1.102.193-1.653.265-.229.269-.477.054-.741.061-.712.123-1.423.184-2.135.172-.146.214-.315.09-.513.131-1.588.262-3.176.393-4.764.209-.155.224-.321.031-.501.069-.791.138-1.583.207-2.374.205-.158.216-.33.035-.514.067-.709.135-1.417.202-2.126.238-.22.238-.477.117-.753.043-.628.086-1.256.128-1.884.208-.155.224-.322.033-.502.071-.637.143-1.275.214-1.912.352-.371.21-.835.21-1.257.007-6.789.004-13.578-.006-20.368,0-.385.127-.807-.205-1.138-.07-.878-.139-1.755-.209-2.633.246-.337.251-.664-.043-.978-.037-.861-.075-1.722-.112-2.582.104-.356.179-.709-.124-1.016-.033-.861-.067-1.723-.1-2.584.071-.509.219-1.025-.148-1.49-.43-6.298-.86-12.595-1.291-18.893.076-.432.198-.869-.146-1.251-.04-.709-.08-1.417-.12-2.126.116-.276.126-.535-.112-.759-.061-.871-.122-1.741-.183-2.612.222-.341.237-.67-.06-.98-.06-2.306-.12-4.612-.181-6.918.333-.955.134-1.942.129-2.91-.003-.625.381-1.33-.232-1.888-1.314-.069-2.63-.114-3.942-.216-.803-.063-.78.326-.723.949.23,2.543.412,5.09.589,7.637.334,4.817.798,9.621,1.362,14.417.764,6.497,1.851,12.984,2.136,19.505.435,9.994,1.457,19.993.577,30.018-.307,3.497-.589,6.996-.863,10.496-.289,3.7-.543,7.402-.836,11.101-.077.965.236,1.499,1.204,1.883,4.606,1.825,9.311,3.367,13.975,5.027,1.348.479,1.495.356,1.493-1.091-.017-11.427-.03-22.853-.045-34.28.253-.249.258-.493-.016-.73-.076-2.875-.153-5.749-.229-8.624.258-.248.265-.49-.017-.726-.067-2.801-.135-5.601-.202-8.402.273-.322.285-.637-.025-.943-.078-2.718-.157-5.436-.235-8.154.208-.168.207-.331-.012-.489-.065-1.595-.124-3.19-.195-4.785-.142-3.201.247-6.378.455-9.562.322-4.937.675-9.872,1.003-14.809.553-8.32,1.104-16.64,1.64-24.961.328-5.096.624-10.195.939-15.292.046-.745.335-1.314,1.161-1.442.181.011.361.022.542.033.628.184.85.678.949,1.258.945,5.541,1.902,11.08,2.827,16.624,1.667,9.987,3.328,19.976,4.966,29.968,1.083,6.609,2.269,13.206,3.149,19.843,1.431,10.791,2.641,21.61,3.959,32.416,1.173,9.618,2.367,19.232,3.548,28.849.159,1.291.384,1.366,1.565.896,3.757-1.496,7.547-2.051,11.308-.007.708.385.983.122,1.03-.533.063-.874.044-1.754.061-2.631.28-.56.321-1.115-.037-1.66-.074-2.957-.149-5.915-.223-8.872.204-.169.204-.333-.012-.491-.07-3.359-.14-6.718-.21-10.077.284-.401.305-.796-.028-1.183-.092-3.123-.295-6.243-.213-9.369.285-.56.327-1.115-.037-1.661-.153-6.395-.306-12.79-.459-19.185.276-.328.29-.651-.022-.966l-.224-10.306c.209-.167.21-.33-.011-.488-.076-3.514-.152-7.028-.228-10.542.028-.025.084-.058.079-.074-.018-.062-.055-.119-.085-.178-.077-3.593-.154-7.186-.232-10.779.206-.168.206-.332-.011-.49-.065-1.948-.147-3.895-.191-5.843-.04-1.774-.022-1.774-1.836-1.448-.117.021-.236.037-.354.055-.183-.182-.354-.172-.511.035-2.941.379-5.917.037-8.857.434-.573-.256-1.14-.309-1.693.057-.397.386.084.793-.029,1.185-.026.027-.079.063-.074.079.021.062.061.119.093.177.309,2.548.618,5.096.927,7.645-.025.03-.076.067-.07.088.02.066.06.126.093.189.313,2.866.625,5.732.938,8.598-.182.182-.17.35.039.502.037.541.074,1.082.112,1.624-.104.209-.079.392.111.541l.192,1.654c-.178.186-.159.354.046.506.161,1.432.322,2.864.482,4.296-.026.026-.079.061-.074.078.02.062.058.118.09.177.147,1.353.295,2.706.442,4.059-.026.028-.078.064-.072.083.02.064.059.122.092.183.124,1.266.248,2.532.372,3.798-.116.277-.116.534.128.75.066.551.131,1.102.197,1.653-.181.184-.166.353.039.508.436,4.378.872,8.755,1.307,13.133-.112.284-.13.552.126.776.225,2.31.451,4.62.676,6.93-.024.029-.074.066-.068.086.019.065.059.125.091.187.13,1.576.26,3.152.39,4.728-.109.208-.085.39.104.541.04.62.081,1.239.121,1.859-.11.283-.131.552.124.777.071.63.141,1.26.212,1.89-.183.182-.173.351.034.507.245,2.66.482,5.32.737,7.979.373,3.889.758,7.776,1.138,11.664-.189.182-.171.349.035.503-.132.856.595,1.94-.665,2.497-.105.003-.209.005-.314.008-.178-.103-.356-.207-.534-.31-.056-.088-.112-.176-.168-.264-.064-.56-.128-1.12-.193-1.681.026-.028.078-.064.073-.083-.019-.065-.058-.123-.09-.184-.147-1.507-.295-3.015-.442-4.522.18-.185.167-.356-.038-.513l-.943-9.807c.026-.028.078-.064.073-.082-.019-.064-.058-.123-.09-.183-.143-1.511-.286-3.022-.43-4.533.22-.263.217-.51-.051-.739-.109-1.23-.211-2.461-.329-3.691-.454-4.718-.897-9.437-1.374-14.153-.441-4.359-.919-8.713-1.381-13.07.025-.029.076-.065.07-.084-.02-.064-.061-.122-.093-.182-.625-5.746-1.25-11.492-1.876-17.238.179-.186.158-.354-.045-.506-.084-.75-.171-1.5-.252-2.251-.582-5.331-1.134-10.666-1.758-15.993-.265-2.267-.333-2.286-2.626-2.351-.802-.023-1.193-.307-1.17-1.12.023-.835.031-1.67.046-2.505.454-1.42.121-2.877.204-4.315Zm-3.093-123.988c.711-.037,1.027-.409,1.046-1.123.022-.82.113-1.638.174-2.457.217-.163.24-.335.021-.516-.093-.349.189-.953-.319-.994-.49-.039-.396.573-.461.925-.243,1.308-.458,2.621-.684,3.932-.052.198-.039.335.223.232Zm-25.962-26.818c-.013-.081-.026-.161-.04-.242-.06.068-.12.136-.179.205-2.027,1.67-3.207,3.906-4.202,6.268-.114.27-.229.523.071.741,1.008.732,2.017,1.461,3.178,2.301.158-3.31.749-6.28,1.171-9.273Zm25.762,40.055c1.509-2.261,2.451-4.815,3.738-7.191.226-.416.211-.682-.243-.97-.906-.574-3.48-.129-4.112.787-.104.151-.147.369-.152.558-.059,2.267-.178,4.537.242,6.787-.074.271-.055.532.08.794.313-.166.429-.436.447-.765Zm-20.905,5.487c.046.456.279.676.75.777.54.116,1.051.363,1.574.553.106.267.299.369.579.308.204.064.572.315.594.038.109-1.397.803-2.819-.013-4.199-1.54-2.607-2.946-5.284-4.226-8.027-.003-.286-.13-.659-.366-.616-.346.063-.171.401-.068.635.356,3.323.713,6.646,1.069,9.969-.139.22-.078.402.106.561Zm-83.714,14.954c.121.119.241.277.371.008-2.484-4.413-4.966-8.828-7.455-13.238-.838-1.484-.732-1.995.824-2.676.991-.434,1.437-.989.997-2.128-1.641.782-3.239,1.591-4.88,2.303-.808.351-.717.726-.354,1.357,2.324,4.046,4.617,8.11,6.923,12.166.236.415.471.808.965,1.011.884.364,1.74.794,2.608,1.196Zm111.03-33.19c1.188-2.657,2.506-5.25,3.896-7.805.309-.568.23-1.046.006-1.586-.702-1.697-1.514-3.339-2.396-4.948-.786-1.434-.778-1.494.574-2.503,1.406-1.049,2.818-2.091,4.251-3.103.562-.397.721-.713.424-1.45-1.215-3.006-3.127-5.442-5.681-7.399-.677-.519-1.26-1.188-2.184-1.512.608,10.159,1.643,20.211.67,30.304-.024.156-.018.299.192.295.184-.004.242-.13.247-.293Zm2.533,37.368c1.074-.399,1.305-1.333,1.407-2.306.143-1.377-.101-2.701-.677-3.965-.697-1.527-1.347-3.071-1.5-4.769-.034-.376-.181-.669-.501-.903-.903-.659-1.055-1.588-1.029-2.652.116-4.63-.024-9.256-.406-13.872-.07-.847-.204-1.688-.917-2.428-1.41,3.023-2.798,5.941-4.494,8.689-.588.952-.722,1.888-.595,2.954.649,5.419,1.282,10.84,1.891,16.263.068.601.18.798.86.701,1.808-.257,3.238.443,4.062,2.084.36.718.761.513,1.255.338.244.091.454.024.645-.136Zm-57.233,200.057c.885.554,1.809,1.048,2.842,1.226,4.582.786,9.19.722,13.804.36,1.47-.115,2.936-.304,4.408-.359,3.475-.128,6.908-.567,10.31-1.261.371-.076.833-.103.954-.587.216-.865-1.127-3.327-1.992-3.619-3.668-1.24-7.336-2.479-10.927-3.93-.339-.137-.636-.271-1.003-.015-4.06,2.836-8.688,4.531-13.164,6.533-1.652.739-3.327,1.345-5.179,1.217-.14.032-.384.036-.403.103-.075.266.151.301.349.332Zm20.709-207.491c-1.799-3.221-1.659-6.289.703-8.722.994-1.023,1.036-1.986.877-3.202-.927-7.129-1.659-14.276-1.671-21.476-.001-.864-.107-1.68-.618-2.388-1.266-1.752-1.217-3.489-.189-5.36.623-1.135,1.294-2.297,1.3-3.689.003-.533-.103-.879-.562-1.192-1.482-1.011-2.904-2.113-4.405-3.093-.703-.459-.767-.935-.428-1.594.492-.958.987-1.916,1.48-2.873.143-.12.273-.274.202-.458-.079-.207-.226-.093-.345-.008-3.762,1.752-7.559,3.435-11.274,5.282-2.172,1.08-4.102,2.571-4.865,5.033-1.598,5.157-3.921,10.022-5.944,15.007-3.029,7.464-6.076,14.922-9.101,22.388-.358.885-.734,1.676-1.82,1.848-.292.046-.541.328-.826.469-.551.272-.609.568-.27,1.118,2.431,3.942,4.824,7.907,7.235,11.861.154.252.277.687.693.454,1.02-.57,2.234-.796,2.886-1.988,1.301-2.379,2.756-4.67,4.044-7.061,2.765-5.129,5.606-10.216,8.44-15.307.443-.795.638-1.58.61-2.501-.079-2.595-.112-5.193-.058-7.788.028-1.351.24-2.703.44-4.045.103-.692.544-1.17,1.318-1.131.712.036,1.058.51,1.17,1.159.053.31.06.639.02.951-.745,5.789-.344,11.56.287,17.325.541,4.946,1.937,9.763,1.907,14.811-.029,4.791.144,9.585-.081,14.376-.389,8.297-.979,16.587-.874,24.902.009.746.162,1.119.951,1.334,2.194.597,4.349,1.332,6.534,1.962.997.288,1.451.853,1.418,1.902-.047,1.477-.016,2.956-.023,4.434-.008,1.76-.7,2.23-2.337,1.551-1.991-.826-3.969-1.682-5.953-2.525-.117-.248-.351-.284-.568-.244-.168.031-.232.178-.064.325-.133,15.089-.255,30.179-.423,45.267-.01.936.317,1.085,1.127,1.157,4.582.407,9.178.36,13.767.538.858.033,1.052-.253,1.034-1.082-.125-5.507-.242-11.016-.271-16.524-.051-9.62-.13-19.241.151-28.859,0-.171.002-.342.002-.514.173-5.267.302-10.536.532-15.801.206-4.705.449-9.41.811-14.105.469-6.084,1.051-12.16,1.639-18.234.095-.982-.222-1.086-.999-.802-.238-.246-.399-.117-.539.112-2.698.466-4.859-.523-6.673-2.455-.006-.276-.135-.461-.402-.545Zm-36.048,10.833c-.135-.224-.279-.462-.421-.701-6.485-10.828-12.979-21.651-19.436-32.496-.438-.736-.755-.75-1.463-.403-7.296,3.572-14.611,7.104-21.918,10.652-.677.329-1.314.658-2.123.685-.709.024-1.272.315-.701,1.303,2.941,5.081,5.564,10.369,8.824,15.232,1.913,2.854,3.719,5.599,5.014,8.835,1.427,3.563,3.732,6.772,5.609,10.161.38.685.688.772,1.373.398,3.191-1.739,6.412-3.424,9.623-5.127,4.94-2.62,9.883-5.236,14.818-7.865.293-.156.7-.213.801-.675Zm45.538-86.334c.092-1.425.18-2.48.223-3.536.027-.672.058-1.426.909-1.405.843.021.832.786.862,1.45.087,1.918.301,3.812,1.222,5.553.783,1.479,2.003,2.232,3.672,2.246,1.359.011,2.718-.016,4.076.008,1.933.034,3.264-.841,4.072-2.579.808-1.739,1.005-3.592,1.061-5.472.019-.618.172-1.199.863-1.214.695-.015.877.558.898,1.178.035,1.036.09,2.071.141,3.106.009.19-.033.422.212.504.239.079.362-.115.484-.263,2.081-2.503,4.534-4.821,3.873-8.586-.179-1.019.389-1.691,1.454-1.805.93-.1,1.359-.642,1.626-1.493.504-1.607.832-3.241,1.005-4.911.065-.628.038-1.114-.706-1.416-.605-.246-.929-.876-.933-1.566-.003-.417-.119-.749-.333-1.111-.852-1.444-1.654-2.917-2.473-4.38-.196-.35-.4-.7-.334-1.125.431-2.78.075-5.579.212-8.365.039-.788-.231-1.023-1.018-1.021-8.193.025-16.387.025-24.581,0-.805-.003-1.014.27-1.004,1.036.039,2.956.01,5.912.027,8.868.003.577-.174,1.04-.437,1.562-.759,1.504-1.906,2.862-1.798,4.728.038.651-.427,1.24-1.065,1.474-.56.206-.586.569-.553,1.027.139,1.961.528,3.868,1.213,5.714.164.441.442.702.914.851,2.005.635,2.169.669,1.951,2.722-.387,3.641,2.223,5.544,4.261,8.219Zm-67.391,49.124c.319.233.563.556.756.529,1.344-.193,1.785.776,2.324,1.673,6.952,11.556,13.894,23.118,20.895,34.644.663,1.092.192,1.478-.627,1.913-8.959,4.76-17.919,9.517-26.875,14.281-1.002.533-1.719.339-2.274-.684-.895-1.649-1.849-3.267-2.78-4.897-.764-1.335-1.531-2.668-2.434-4.239-.207.802-.224,1.402-.503,1.836-.64.998-.205,1.762.286,2.616,2.309,4.016,4.61,8.036,6.852,12.09.479.866.854.95,1.72.49,10.301-5.471,20.62-10.91,30.954-16.317.86-.45.816-.785.368-1.519-8.499-13.903-16.971-27.822-25.452-41.736-1.166-1.913-1.175-1.907-3.211-.678Zm115.954,88.449c0-.878-.117-1.777.034-2.629.141-.799-.222-.957-.823-1.087-2.221-.481-4.466-.881-6.649-1.498-1.572-.444-2.717-.356-3.49,1.277-.317.668-.932,1.19-1.374,1.805-.671.935-1.584,1.765-1.765,2.952-.511,3.354-.699,6.731-.466,10.122.038.549.073,1.146.904,1.139.767-.007.933-.538,1.01-1.1.162-1.183.395-2.358.373-3.563-.012-.657.253-1.26.992-1.252.774.009.896.648.898,1.299.007,1.645-.357,3.242-.615,4.852-.335,2.095-.577,4.187-.15,6.299.346,1.714,1.386,2.264,3.01,1.732,1.835-.601,3.462-1.64,5.248-2.334.388-.151.65-.454.859-.804.758-1.267,1.491-2.55,2.284-3.794.351-.55.393-1.106.335-1.714-.367-3.892-.535-7.795-.615-11.702Zm-31.008-130.628c-.988.859-1.94,1.364-2.993,1.593-3.875.841-7.76.885-11.595-.186-.944-.263-.969.068-.997.796-.052,1.352.204,2.742-.226,4.044-.179.543-.056,1.887-1.419,1.099-.191-.111-.34.141-.476.282-.834.86-.766,1.762-.131,2.694,2.762,4.051,5.223,8.304,8.241,12.185.481.618.641.455.975-.066.538-.837,1.102-1.661,1.716-2.443,1.885-2.401,4.267-4.305,6.557-6.278,1.39-1.198,1.602-2.487,1.47-4.202-.13-1.688-.851-3.21-.951-4.9-.086-1.467-.099-2.937-.172-4.617Zm17.299,278.887c2.337.06,4.557-.135,6.767-.454.95-.137,1.473-.428,1.132-1.623-.752-2.636-1.346-5.317-1.984-7.985-.148-.619-.562-.945-1.092-1.169-3.051-1.287-6.066-.926-9.051.237-.457.178-.759.489-.832,1.056-.315,2.443-.692,4.879-1.026,7.32-.196,1.433.052,1.712,1.454,2.169,1.554.507,3.139.489,4.633.449ZM19.624,141.167c-.141-2.415-.84-4.38-2.412-6.025-2.099-2.197-4.738-3.46-7.502-4.547-.866-.341-1.534-.062-1.978.623-1.071,1.653-1.511,3.448-.663,5.332,1.261,2.802,3.075,5.22,5.397,7.23.932.807,1.992,1.46,3.18,1.871.769.266,1.443.167,2.164-.241,1.801-1.021,1.39-2.877,1.814-4.242Zm-7.926-29.714c.081-.038.226-.103.368-.174,6.141-3.065,12.282-6.13,18.419-9.202.201-.1.516-.142.53-.42.018-.342-.342-.39-.559-.54-.374-.258-.756-.145-1.148-.033-1.302.372-2.626.679-3.908,1.111-.988.333-1.571.09-2.01-.855-.805-1.734-1.063-1.859-2.969-1.476-.771.155-1.398.135-1.93-.53-.382-.478-.84-.3-1.283-.022-.462.29-.928.609-.662,1.228.36.836-.018,1.328-.613,1.849-1.638,1.433-1.806,1.113-.706,3.21.497.947.236,1.559-.611,2.101-.906.58-1.763,1.236-2.648,1.85-.542.376-.767.896-.762,1.538.002.284.088.47.492.364Zm89.762,11.197c.01-2.917-1.902-4.947-4.667-4.953-2.824-.006-4.787,1.833-4.822,4.519-.037,2.811,1.996,5.056,4.615,5.094,2.7.039,4.865-2.031,4.874-4.66Zm-34.499,211.206c-.128,1.137.485,1.79,1.083,2.398,1.9,1.931,4.321,2.675,6.941,2.796,4.721.218,9.424-.063,14.085-.839,2.193-.365,4.342-.466,6.516.13,1.312.36,2.681.441,4.044.295,1.914-.204,2.729-.826,3.058-2.148.246-.992.009-1.248-.95-.821-.356.158-.773.195-1.167.253-7.395,1.085-14.846,1.381-22.305,1.52-3.447.064-6.78-.391-9.703-2.438-.506-.355-1.005-.719-1.602-1.147Zm71.602-163.686c-1.863.595-3.604,1.134-5.333,1.708-1.051.349-2.572.324-3.021,1.154-.435.803.152,2.134.209,3.236.034.664.2.823.849.577,2.084-.79,4.184-1.539,6.283-2.286.371-.132.629-.296.666-.726.101-1.178.221-2.354.347-3.663Zm2.506,7.755c-.479-.099-.879.046-.767.575.129.606-.848,1.518.334,1.804,3.252.787,6.538,1.432,9.756,2.363.678.196.919-.221.889-.75-.034-.605.91-1.501-.297-1.79-3.292-.787-6.608-1.474-9.914-2.201Zm-59.886-5.53c0,1.031.012,1.942-.005,2.854-.008.437.219.623.59.779,1.912.801,3.819,1.617,5.719,2.445.458.2.738.265.718-.402-.03-.997-.018-1.995,0-2.993.006-.374-.127-.594-.49-.703-2.131-.641-4.259-1.29-6.532-1.98Zm55.438,167.654c1.246.126,2.753-.095,4.252-.292,1.106-.145,2.174-.498,3.154-1.063.368-.212.466-.519.323-.914-.189-.519-.54-.222-.776-.108-.89.43-1.856.504-2.8.553-3.809.195-7.641.804-11.391-.481-.22-.075-.509-.389-.672.07-.104.291-.034.56.244.727.307.185.617.369.942.519,2.052.947,4.236,1.059,6.723.989Zm-40.37-237.003l.035-.066-.056-.006.021.072Z"/><path class="cls-10" d="m136.204,343.142s-.03-.018-.03-.019c.09.006.18.012.27.019h-.24Z"/><path class="cls-15" d="m81.867,227.16c.642-.141,1.269-.091,1.9.151-.511.445-1.142.095-1.682.275-.073-.142-.145-.284-.218-.426Z"/><path class="cls-8" d="m77.15,115.542c-.007-.246.135-.574.318-.478.38.2.231.633.188.989-.178-.161-.152-.524-.506-.511Z"/><path class="cls-8" d="m151.651,185.878c-.11-.777.369-.418.692-.358-.231.119-.461.239-.692.358Z"/><path class="cls-9" d="m85.431,324.128c.164.004.335.084.307.238-.033.182-.198.311-.421.285.038-.174.076-.348.114-.523Z"/><path class="cls-16" d="m104.842,331.702c-.181-.1-.282-.264-.181-.443.071-.126.238-.165.341.023-.053.14-.106.28-.16.421Z"/><path class="cls-11" d="m109.311,208.361c-.004-.236-.008-.473-.012-.709.085.005.171.01.256.016.006.235.012.47.018.705-.088-.004-.175-.007-.263-.011Z"/><path class="cls-15" d="m85.879,266.635c.127.112.146.233.033.366-.011-.122-.022-.244-.033-.366Z"/><path class="cls-2" d="m133.269,287.009c-.225-2.31-.451-4.62-.676-6.93.051-.274.055-.54-.126-.776-.436-4.378-.872-8.755-1.307-13.133-.013-.169-.026-.339-.039-.508-.066-.551-.131-1.102-.197-1.653.039-.264.051-.523-.128-.75-.124-1.266-.248-2.532-.371-3.798-.006-.089-.013-.177-.019-.266-.147-1.353-.295-2.706-.442-4.059-.005-.085-.01-.17-.015-.254-.161-1.432-.322-2.864-.482-4.296-.015-.169-.031-.337-.046-.506-.064-.551-.128-1.102-.192-1.654-.037-.18-.074-.361-.111-.541-.037-.541-.074-1.082-.112-1.624-.013-.167-.026-.335-.039-.502-.313-2.866-.625-5.732-.938-8.598-.008-.092-.016-.185-.023-.277-.309-2.548-.618-5.096-.927-7.645-.007-.086-.013-.171-.02-.257.113-.393-.368-.8.029-1.185.564-.019,1.128-.038,1.693-.057,2.94-.397,5.916-.055,8.857-.434.17-.012.341-.023.511-.035.118-.018.236-.034.354-.055,1.815-.327,1.796-.327,1.836,1.448.044,1.948.126,3.896.191,5.843.004.163.007.327.011.49.077,3.593.154,7.186.232,10.779.002.084.004.168.006.252.076,3.514.152,7.028.228,10.542.004.162.007.325.011.487.075,3.435.15,6.871.224,10.306.007.322.015.644.022.966.153,6.395.306,12.79.459,19.185.012.554.025,1.107.037,1.661-.083,3.127.121,6.247.212,9.369.01.394.019.789.029,1.183.07,3.359.14,6.718.21,10.077.004.164.008.328.012.491.074,2.957.148,5.915.223,8.872.012.553.025,1.107.037,1.66-.017.877.002,1.757-.061,2.631-.047.655-.322.918-1.03.533-3.761-2.044-7.55-1.489-11.308.007-1.18.47-1.406.395-1.565-.896-1.181-9.617-2.375-19.231-3.548-28.849-1.318-10.806-2.528-21.625-3.959-32.416-.88-6.637-2.065-13.234-3.149-19.843-1.638-9.992-3.299-19.981-4.966-29.968-.925-5.544-1.883-11.083-2.827-16.624-.099-.58-.321-1.074-.949-1.257-.17-.182-.351-.184-.542-.034-.826.127-1.115.697-1.161,1.442-.315,5.097-.611,10.195-.939,15.292-.536,8.321-1.087,16.641-1.64,24.961-.328,4.937-.681,9.872-1.003,14.809-.208,3.184-.597,6.36-.455,9.562.071,1.595.131,3.19.195,4.785.004.163.008.326.012.489.078,2.718.157,5.436.235,8.153.008.314.017.629.026.943.067,2.801.135,5.601.202,8.402.006.242.011.484.017.726.076,2.875.153,5.749.229,8.624.005.243.011.487.016.73.014,11.427.027,22.853.045,34.28.002,1.446-.146,1.57-1.493,1.091-4.664-1.659-9.369-3.202-13.975-5.027-.968-.384-1.281-.917-1.204-1.883.293-3.699.547-7.402.836-11.101.273-3.5.556-6.999.863-10.496.88-10.025-.142-20.024-.577-30.018-.284-6.52-1.372-13.007-2.136-19.505-.564-4.796-1.028-9.6-1.362-14.417-.177-2.547-.359-5.094-.589-7.637-.056-.623-.08-1.012.723-.949,1.312.102,2.628.147,3.942.216.035,1.599.069,3.198.104,4.798.06,2.306.12,4.612.181,6.918.02.327.04.654.06.98.061.871.122,1.741.183,2.612-.052.266-.068.527.112.759.04.709.08,1.417.12,2.126-.028.426-.119.859.146,1.251.43,6.298.86,12.595,1.291,18.893-.022.504-.133,1.016.148,1.49.033.861.067,1.723.1,2.584-.043.349-.096.699.124,1.016.037.861.075,1.722.112,2.582.014.326.029.652.043.978.07.878.139,1.755.209,2.633,0,7.588,0,15.175,0,22.763-.071.637-.143,1.275-.214,1.912-.011.167-.022.335-.033.502-.043.628-.086,1.256-.128,1.884-.177.229-.166.488-.118.753-.067.709-.135,1.417-.202,2.126-.012.171-.023.343-.035.514-.069.791-.138,1.583-.207,2.374-.011.167-.021.334-.031.501-.131,1.588-.262,3.176-.392,4.764-.03.171-.06.342-.091.513-.061.712-.123,1.423-.184,2.135-.018.247-.036.494-.054.741-.064.551-.128,1.102-.193,1.653.024.107.049.213.074.32.162.562.547.785,1.094.626.471-.137.679-.519.712-1.001.024-.358.058-.715.087-1.072.182-.236.172-.503.123-.775.068-.713.136-1.426.204-2.139.011-.167.021-.334.031-.501.122-1.579.243-3.158.364-4.738.18-.237.17-.503.121-.775.072-.711.144-1.422.217-2.133.007-.09.013-.18.02-.27.217-2.56.433-5.12.65-7.68.037-.596.104-1.191.104-1.787.003-6.312-.002-12.625-.014-18.937-.002-.836-.056-1.672-.085-2.508-.056-.882-.113-1.764-.169-2.647.033-.426.114-.856-.13-1.253-.039-.94-.078-1.881-.117-2.821.043-.349.094-.699-.126-1.016-.036-.861-.073-1.722-.109-2.583-.014-.326-.028-.651-.042-.977-.147-2.072-.295-4.144-.442-6.216.043-.35.093-.7-.132-1.015-.036-.781-.073-1.561-.109-2.342.042-.35.094-.701-.134-1.015-.113-1.821-.226-3.641-.339-5.462-.012-.246-.025-.491-.037-.737-.069-.873-.139-1.746-.208-2.619.046-.349.093-.699-.127-1.015-.041-.859-.082-1.719-.123-2.578-.016-.248-.031-.496-.047-.745-.535-4.453-.352-8.928-.414-13.395-.01-.687.329-.773.891-.761,1.518.032,3.037.031,4.556.031,1.751,0,1.76-.006,1.787-1.699.01-.638-.031-1.276-.049-1.914-.009-1.776.182-3.559-.172-5.324-.025-3.101-.05-6.201-.075-9.302.006-5.655.035-11.31-.003-16.965-.006-.953.199-1.437,1.224-1.273.472.034.944.067,1.416.101.315.142.588.519.989.174.633.062,1.265.124,1.898.186.327.013.642.411.981.032,1.272.023,2.544.046,3.816.069.893.284,1.789.28,2.686.02.559-.014,1.117-.027,1.676-.041.477-.031.954-.062,1.432-.092.801-.004,1.61.093,2.391-.174.402-.02.805-.039,1.207-.059.632-.071,1.263-.142,1.895-.213.197.044.374.011.522-.134.391-.029.782-.057,1.173-.086.057.026.117.04.179.042.026.15.052.299.078.448.019,2.389.037,4.778.056,7.168-.015,1.367-.029,2.735-.044,4.102-.005,2.631-.009,5.263-.014,7.894-.038,2.712-.076,5.424-.114,8.136-.223.313-.156.66-.115,1.004-.004,1.429-.008,2.859-.012,4.288-.015.835-.023,1.67-.046,2.505-.022.813.368,1.097,1.17,1.12,2.293.065,2.361.084,2.626,2.351.624,5.326,1.176,10.661,1.758,15.993.082.75.168,1.5.252,2.251.015.169.03.337.045.506.625,5.746,1.25,11.492,1.876,17.238.008.089.015.178.023.267.462,4.356.94,8.711,1.381,13.07.477,4.716.921,9.435,1.374,14.153.118,1.229.22,2.461.329,3.691.017.246.034.493.051.739.143,1.511.286,3.022.43,4.533.006.088.011.177.017.265.314,3.269.629,6.538.943,9.807.013.171.025.342.038.513.147,1.507.295,3.015.442,4.522.006.089.012.178.017.266.064.56.129,1.12.193,1.681.056.088.112.176.168.264.178.103.356.207.534.309.107.103.212.1.314-.007,1.259-.556.533-1.641.665-2.497-.012-.168-.023-.335-.035-.503-.38-3.888-.765-7.775-1.138-11.664-.255-2.659-.492-5.319-.737-7.979-.011-.169-.023-.338-.034-.507-.071-.63-.141-1.26-.212-1.89.05-.274.059-.541-.124-.777-.04-.62-.081-1.239-.121-1.859-.035-.18-.069-.361-.104-.541-.13-1.576-.26-3.152-.39-4.728-.007-.091-.015-.182-.022-.273Z"/><path class="cls-5" d="m129.362,124.37c-.342-1.185-.798-2.357.293-3.451.332-.333.339-.886.34-1.371.014-4.955.014-9.911-.469-14.849-.231-2.366-.988-4.532-2.85-6.151-.475-.413-.359-.75-.14-1.241,1.202-2.701,2.535-5.336,3.949-7.929.526-.966.593-1.885.145-2.857-.718-1.558-1.419-3.126-2.199-4.653-.283-.553-.208-.821.283-1.158,1.678-1.152,3.297-2.391,5.002-3.5.763-.497.79-.988.424-1.687-.463-.884-.905-1.779-1.357-2.669.084-.095.169-.189.253-.284,4.048,1.795,8.097,3.59,12.143,5.384-1.968,3.941-3.282,8.023-4.071,12.272-.141.759-.626,1.892.587,2.082,1.181.185,1.089-1.024,1.234-1.797.671-3.587,1.776-7.038,3.264-10.362.672-1.501.977-1.55,2.25-.519,1.434,1.16,2.484,2.595,2.836,4.449,2.918,15.336,5.799,30.679,8.773,46.004.545,2.808.003,5.48-.42,8.19-1.392,8.918-2.801,17.834-4.222,26.748-.641,4.021-1.331,8.034-1.98,12.054-.099.612-.225.845-.977.696-3.722-.733-7.331-1.93-11.05-2.655-.867-.169-.735-.664-.679-1.21.519-5.086,1.045-10.171,1.568-15.257.678-6.597,1.165-13.221,2.099-19.782.629-4.416-.494-8.568-1.081-12.803-1.058-7.635-2.316-15.242-3.484-22.862-.061-.399-.101-.802-.347-1.131-.376-.504-.882-.681-1.48-.449-.712.277-.914.871-.818,1.559.23,1.662.492,3.319.747,4.977,1.324,8.606,2.671,17.209,3.964,25.819.384,2.56-.261,5.087-.504,7.62-.706,7.357-1.5,14.705-2.25,22.058-.117,1.151-.263,2.308-.248,3.46.011.871-.397,1.153-1.13,1.377-2.748.84-5.483,1.724-8.219,2.605-1.384.446-1.547.765-1.351,2.183.208,1.501.369,3.009.551,4.514.162,1.341.653,1.676,1.931,1.227,2.369-.832,4.725-1.702,7.333-2.645-.549,2.303-.46,4.555-1.955,6.408-1.776,2.201-3.751,4.356-3.956,7.359-.223,3.26-.639,6.522-.245,9.803.185,1.543.907,2.646,2.432,3.067.601.166.707.471.72,1.015.025,1.076.094,2.154.205,3.226.105,1.018.543,1.913,1.214,2.688,1.789,2.067,3.066,2.26,6.331.879,1.359-.575,2.686-1.227,4.018-1.865.601-.287.842-.197.839.532-.021,4.435-.026,8.871.003,13.306.005.705-.294.856-.91.925-5.839.654-11.687,1.169-17.565,1.266-1.596.026-3.175.353-4.783.201-.685-.065-.93-.268-.922-1.016.123-11.222.265-22.444.288-33.666.019-8.98-.256-17.956-.629-26.93-.245-5.906-.658-11.8-1.043-17.696-.138-2.11-.318-4.217-.479-6.325.076-.091.153-.182.229-.273,1.734-.04,3.094-.691,3.818-2.359.124-.286.314-.392.612-.478,4.384-1.271,5.507-3.06,4.784-7.568-.019-.118-.028-.237-.041-.356.216-.251.092-.408-.147-.534-.407-.997-.815-1.994-1.222-2.992.064-.262-.016-.468-.237-.621Z"/><path class="cls-5" d="m87.406,72.721c-.493.958-.988,1.915-1.48,2.873-.339.66-.275,1.135.428,1.594,1.501.98,2.923,2.082,4.405,3.093.46.314.565.659.562,1.192-.007,1.392-.677,2.554-1.3,3.689-1.028,1.872-1.077,3.609.189,5.36.511.708.617,1.524.618,2.388.011,7.2.743,14.347,1.671,21.476.158,1.216.116,2.179-.877,3.202-2.363,2.433-2.503,5.501-.703,8.722-.024.298.095.491.402.545,1.814,1.932,3.976,2.922,6.673,2.455.213.126.389.072.539-.112.777-.283,1.094-.179.999.802-.588,6.074-1.17,12.15-1.639,18.234-.362,4.695-.605,9.4-.811,14.105-.23,5.265-.359,10.534-.532,15.801-.299.008-.598.016-.898.024-.029-.021-.059-.042-.088-.062.033.017.066.034.099.051.162.4.5.492.884.501-.281,9.619-.202,19.239-.151,28.859.029,5.508.146,11.017.271,16.524.019.829-.175,1.115-1.034,1.082-4.589-.178-9.185-.13-13.767-.538-.81-.072-1.138-.221-1.127-1.157.168-15.089.291-30.178.423-45.267.211-.027.421-.054.632-.081,1.984.843,3.962,1.699,5.953,2.525,1.637.679,2.328.209,2.337-1.551.007-1.478-.024-2.957.023-4.434.034-1.049-.42-1.614-1.418-1.902-2.185-.63-4.341-1.365-6.534-1.962-.79-.215-.942-.587-.951-1.334-.105-8.315.485-16.605.874-24.902.225-4.791.052-9.585.081-14.376.03-5.048-1.366-9.865-1.907-14.811-.631-5.765-1.031-11.536-.287-17.325.04-.312.033-.642-.02-.951-.112-.649-.459-1.123-1.17-1.159-.774-.039-1.215.439-1.318,1.131-.2,1.341-.412,2.693-.44,4.045-.053,2.595-.02,5.193.058,7.788.028.921-.167,1.706-.61,2.501-2.834,5.091-5.675,10.179-8.44,15.307-1.289,2.391-2.744,4.682-4.044,7.061-.652,1.192-1.866,1.419-2.886,1.988-.416.233-.54-.202-.693-.454-2.411-3.954-4.804-7.92-7.235-11.861-.339-.55-.281-.846.27-1.118.285-.141.533-.422.826-.469,1.086-.173,1.462-.964,1.82-1.848,3.025-7.466,6.071-14.924,9.101-22.388,2.023-4.985,4.346-9.85,5.944-15.007.763-2.462,2.693-3.952,4.865-5.033,3.715-1.848,7.512-3.53,11.274-5.282.047.155.095.31.142.466Z"/><path class="cls-2" d="m120.9,157.07c.07,1.272.139,2.544.209,3.815.014.327.027.655.041.982.065,1.59.13,3.18.196,4.77.009.331.019.662.029.993.265,1.982.134,3.977.21,5.966-.054.887-.09,1.774.056,2.658.274,3.843.074,7.695.204,11.541.037,1.097-.435,1.577-1.504,1.63-.949.046-1.894.172-2.84.262-.196-.044-.373-.013-.522.13-.631.028-1.261.055-1.892.083-.324.025-.647.05-.971.074-3.421.17-6.843.243-10.266.049-.097-.032-.193-.064-.29-.096-.793-.076-1.585-.152-2.378-.228-.244-.13-.482-.296-.778-.144-2.111-.272-2.123-.272-2.104-2.438.031-3.621-.089-7.245.163-10.863.145-.883.11-1.77.055-2.658.076-1.988-.054-3.984.211-5.966.01-.331.019-.662.028-.993.065-1.59.13-3.18.196-4.77.014-.327.027-.655.04-.982.07-1.272.139-2.544.209-3.815.014-.326.028-.651.042-.977.064-.953.128-1.905.192-2.858.014-.247.027-.495.041-.742.145-1.991.291-3.982.437-5.972.015-.247.029-.495.044-.742.072-.79.145-1.579.217-2.369.011-.169.021-.339.031-.508.428-4.657.853-9.315,1.286-13.972.086-.927.394-1.733,1.071-2.443.632-.664.946-1.552,1.145-2.457.221-.137.427-.277.137-.543.107-1.606.046-3.172-.782-4.634-.493-.87-.075-1.789.04-2.683.377-2.912.758-5.824,1.137-8.736.011-.247.022-.495.033-.742.004-1.435.009-2.869.013-4.304-.007-.247-.014-.494-.021-.74-.076-.87-.151-1.74-.227-2.61-.009-.092-.019-.184-.028-.276-.074-.467-.149-.935-.223-1.402-.01-.09-.02-.18-.031-.27-.803-6.256-2.666-12.291-3.85-18.467-.527-2.749-1.014-5.526-.857-8.744.618.892,1.065,1.469,1.439,2.091,1.77,2.941,3.696,5.774,5.754,8.523.666.889,1.167,1.9,1.763,2.843.557.881,1.304.869,1.854-.023.23-.373.451-.755.639-1.15,1.938-4.059,5.462-6.685,8.817-9.76.115,1.455.218,2.769.322,4.082-.206.172-.198.331.027.478.642,4.511-1.265,8.624-2.025,12.916-.362,2.041-.761,4.076-1.113,6.118-.071.414-.137.793-.528,1.012-3.51,1.959-4.47,5.331-4.954,8.955-.243,1.819-.43,3.646-.641,5.469-.236.143-.409.298-.101.542-.065.8-.13,1.599-.195,2.399-.258.144-.283.302-.031.479-.01,1.279-.02,2.558-.03,3.837-.308.252-.112.4.111.543.064.231.052.553.203.679,1.312,1.089.49,2.108-.076,3.127-1.104,1.991-2.159,3.967-2.482,6.302-.252,1.82.756,3.029,1.569,4.368.292.48.598.894.654,1.497.192,2.072,1.767,3.593,3.642,3.599,1.879.005,3.585-1.616,3.821-3.632.269-2.3-.964-3.856-3.361-4.24-.157-.223-.316-.225-.478-.006-.539-.045-1.007.183-1.5.351-.425.145-.788.877-1.214.457-.516-.509-.991-1.181-.872-2.019.147-1.031.35-2.06.877-2.969,1.237-2.138,2.132-4.457,3.483-6.533.415-.637.452-1.355.424-2.08-.116-3.048.309-6.054.7-9.063.168.088.336.176.503.264.682,5.044,1.383,10.085,2.039,15.132.318,2.444.551,4.9.82,7.351.066.606-.018,1.166-.336,1.72-.598,1.042-.701,2.28-.051,3.197,1.353,1.909,1.18,4.058,1.373,6.168.01.169.021.339.031.508.072.79.145,1.579.217,2.369.015.247.029.495.044.742.145,1.991.291,3.982.436,5.972.014.247.027.495.041.742.064.953.128,1.905.192,2.858.014.326.028.651.042.977Z"/><path class="cls-5" d="m54.869,137.144c-.101.461-.508.519-.801.675-4.935,2.629-9.878,5.245-14.818,7.865-3.211,1.703-6.432,3.388-9.623,5.127-.685.373-.993.287-1.373-.398-1.877-3.388-4.183-6.597-5.609-10.161-1.296-3.236-3.101-5.981-5.014-8.835-3.26-4.864-5.883-10.152-8.824-15.232-.571-.987-.008-1.278.701-1.303.809-.027,1.446-.357,2.123-.685,7.307-3.548,14.622-7.08,21.918-10.652.708-.347,1.025-.333,1.463.403,6.456,10.845,12.95,21.668,19.436,32.496.143.238.287.476.421.701Zm-39.369-18.038c.223-.091.524-.196.81-.332,5.87-2.779,11.739-5.561,17.606-8.348.287-.136.582-.28.821-.482.313-.264.544-.609.327-1.048-.227-.46-.633-.596-1.106-.49-.268.06-.524.187-.776.306-5.869,2.782-11.737,5.566-17.602,8.357-.319.152-.641.337-.897.575-.277.258-.356.616-.157.985.191.355.499.493.972.477Zm31.728,12.114c.037-.874-.743-1.214-1.692-.736-5.741,2.893-11.473,5.806-17.206,8.714-.606.307-1.183.708-.782,1.476.369.707,1.02.489,1.575.209,5.773-2.919,11.541-5.847,17.308-8.777.398-.202.76-.454.797-.886Zm-28.47-7.074c.279-.117.652-.256,1.011-.425,3.396-1.598,6.791-3.2,10.185-4.802,2.203-1.039,4.408-2.074,6.605-3.125.587-.281,1.262-.633.909-1.419-.344-.766-1.028-.589-1.651-.279-.071.035-.149.058-.221.092-5.597,2.641-11.195,5.28-16.788,7.93-.318.151-.626.357-.878.601-.238.23-.3.556-.141.887.175.364.472.524.968.54Zm24.894,1.36c-.062-.601-.444-.895-1.05-.809-.343.049-.678.226-.995.388-3.416,1.737-6.827,3.483-10.24,5.225-2.169,1.107-4.342,2.205-6.505,3.323-.571.295-1.052.727-.651,1.424.35.609.931.502,1.478.23.536-.266,1.071-.536,1.604-.808,5.049-2.575,10.099-5.149,15.145-7.731.523-.268,1.133-.47,1.213-1.242Zm-21.376,4.034c.461.002.835-.244,1.228-.431,5.036-2.398,10.071-4.797,15.105-7.199.683-.326,1.377-.634,2.029-1.013.443-.257.708-.683.422-1.213-.271-.503-.715-.594-1.228-.383-.295.121-.591.24-.878.377-5.395,2.571-10.79,5.142-16.181,7.721-.392.188-.792.393-1.121.669-.271.227-.45.584-.258.964.176.348.49.51.882.507Z"/><path class="cls-7" d="m100.407,50.809c-2.037-2.675-4.648-4.579-4.261-8.219.218-2.053.055-2.087-1.951-2.722-.472-.15-.751-.411-.914-.851-.685-1.845-1.074-3.753-1.213-5.714-.033-.459-.007-.822.553-1.027.638-.234,1.103-.823,1.065-1.474-.108-1.867,1.04-3.225,1.798-4.728.263-.521.44-.984.437-1.562-.017-2.956.011-5.912-.027-8.868-.01-.766.199-1.039,1.004-1.036,8.193.026,16.387.025,24.581,0,.787-.002,1.057.232,1.018,1.021-.138,2.786.218,5.585-.212,8.365-.066.425.139.776.334,1.125.819,1.463,1.62,2.937,2.473,4.38.214.362.33.695.333,1.111.004.69.328,1.32.933,1.566.744.302.771.788.706,1.416-.173,1.671-.5,3.305-1.005,4.911-.267.851-.697,1.393-1.626,1.493-1.066.114-1.633.787-1.454,1.805.661,3.764-1.792,6.083-3.873,8.586-.123.147-.246.342-.484.263-.246-.081-.203-.314-.212-.504-.051-1.035-.106-2.07-.141-3.106-.021-.621-.203-1.193-.898-1.178-.691.015-.844.596-.863,1.214-.057,1.88-.253,3.733-1.061,5.472-.808,1.738-2.139,2.613-4.072,2.579-1.358-.024-2.718.004-4.076-.008-1.669-.014-2.889-.767-3.672-2.246-.921-1.74-1.135-3.634-1.222-5.553-.03-.665-.019-1.429-.862-1.45-.85-.021-.881.732-.909,1.405-.043,1.057-.13,2.112-.223,3.536Zm10.345-9.575c1.821-.188,2.188-.58,1.955-2.045-.068-.429-.196-.802-.69-.819-.521-.018-.721.372-.647.794.092.521-.135.573-.554.645-.666.115-1.335.336-2,.177-.7-.167-1.697-.019-1.65-1.245.01-.252-.243-.397-.516-.384-.368.018-.557.236-.659.578-.284.957.183,1.792,1.217,2.116,1.007.315,2.048.207,3.078.222.014.153.027.305.041.458-.559,1.273-.411,1.835.698,2.632l.478.462c-2.019.192-4.033.239-6.024-.244.007-.14.014-.281.021-.421.395.041.789.084,1.185.122.99.095,1.652-.465,1.657-1.432.006-.995-.671-1.368-1.496-1.32-1.429.083-2.852.285-4.272.483-.442.062-.834.311-.926.819-.085.474.058.866.465,1.148.216.15.544.204.494.587-.123.94.541,1.079,1.233,1.281,3.752,1.097,7.505.836,11.255.034.928-.199,1.686-.403,1.821-1.756.172-1.714.089-2.091-1.675-2.155-1.502-.055-3.035.156-4.483-.448-.002-.096-.004-.192-.006-.288Zm-4.096-15.386c-.011-.492-.335-.741-.659-.973-1.489-1.066-5.47-.882-6.845.326-.313.275-.798.543-.527,1.073.254.496.742.386,1.172.275,1.92-.495,3.843-.729,5.784-.124.588.183.911-.059,1.075-.577Zm13.616.3c-.062-.414-.325-.673-.652-.817-.652-.287-1.308-.634-1.998-.751-1.576-.267-3.168-.323-4.66.433-.403.204-.766.51-.626,1.024.119.437.516.688.931.531,2.055-.78,4.048-.507,6.051.201.49.173.824-.138.955-.62Zm-10.583,23.793c.395-.036.958-.039,1.498-.15.399-.082.763-.355.692-.832-.076-.51-.528-.619-.921-.493-1.082.347-2.127.136-3.168-.12-.463-.114-.823-.041-.972.403-.166.493.245.702.602.88.667.333,1.399.24,2.269.313Zm-6.792-20.485c-.837.062-1.273.49-1.247,1.312.027.829.577,1.265,1.317,1.262.775-.003,1.275-.549,1.25-1.328-.025-.783-.555-1.19-1.321-1.246Zm13.047,2.456c.84,0,1.236-.473,1.258-1.19.024-.741-.422-1.201-1.175-1.238-.839-.042-1.299.485-1.285,1.246.014.698.468,1.168,1.201,1.182Z"/><path class="cls-6" d="m33.016,99.933c2.035-1.229,2.045-1.234,3.211.678,8.481,13.914,16.953,27.833,25.452,41.736.449.734.492,1.069-.368,1.519-10.335,5.408-20.653,10.847-30.954,16.317-.866.46-1.241.377-1.72-.49-2.242-4.053-4.543-8.074-6.852-12.09-.491-.854-.926-1.618-.286-2.616.278-.433.295-1.034.503-1.836.902,1.571,1.67,2.904,2.434,4.239.932,1.629,1.885,3.247,2.78,4.897.555,1.023,1.272,1.218,2.274.684,8.957-4.764,17.917-9.521,26.875-14.281.819-.435,1.29-.822.627-1.913-7.001-11.527-13.943-23.089-20.895-34.644-.539-.897-.98-1.866-2.324-1.673-.193.028-.438-.296-.756-.529Z"/><path class="cls-7" d="m148.97,188.382c.08,3.907.248,7.81.615,11.702.057.608.016,1.164-.335,1.714-.794,1.244-1.526,2.527-2.284,3.794-.209.35-.472.654-.859.804-1.786.694-3.413,1.733-5.248,2.334-1.624.532-2.664-.018-3.01-1.732-.427-2.112-.185-4.204.15-6.299.258-1.61.622-3.207.615-4.852-.003-.65-.124-1.29-.898-1.299-.739-.009-1.004.595-.992,1.252.022,1.206-.21,2.381-.373,3.563-.077.562-.243,1.093-1.01,1.1-.83.007-.866-.59-.904-1.139-.233-3.391-.045-6.768.466-10.122.181-1.187,1.094-2.017,1.765-2.952.442-.615,1.057-1.137,1.374-1.805.774-1.633,1.919-1.721,3.49-1.277,2.183.616,4.428,1.016,6.649,1.498.601.13.964.288.823,1.087-.151.852-.034,1.751-.034,2.629Z"/><path class="cls-7" d="m117.962,57.754c.073,1.68.086,3.15.172,4.617.099,1.69.821,3.212.951,4.9.132,1.716-.08,3.005-1.47,4.202-2.291,1.973-4.672,3.877-6.557,6.278-.614.782-1.178,1.606-1.716,2.443-.334.52-.494.684-.975.066-3.018-3.881-5.479-8.134-8.241-12.185-.635-.932-.703-1.834.131-2.694.136-.141.285-.393.476-.282,1.363.788,1.24-.556,1.419-1.099.43-1.302.173-2.692.226-4.044.028-.728.053-1.059.997-.796,3.835,1.07,7.719,1.027,11.595.186,1.054-.229,2.005-.733,2.993-1.593Z"/><path class="cls-2" d="m70.262,333.367c1.852.128,3.526-.478,5.179-1.217,4.476-2.002,9.104-3.698,13.164-6.533.367-.256.664-.122,1.003.015,3.592,1.451,7.26,2.69,10.927,3.93.865.292,2.208,2.754,1.992,3.619-.121.485-.583.511-.954.587-3.402.694-6.835,1.134-10.31,1.261-1.472.054-2.938.243-4.408.359-4.614.362-9.222.427-13.804-.36-1.033-.177-1.957-.672-2.842-1.226.018-.145.036-.29.054-.435Z"/><path class="cls-5" d="m126.796,133.881c-.493.175-.894.379-1.255-.338-.824-1.641-2.254-2.341-4.062-2.084-.68.096-.792-.1-.86-.701-.61-5.423-1.243-10.844-1.891-16.263-.128-1.065.007-2.002.595-2.954,1.696-2.748,3.084-5.666,4.494-8.689.713.74.847,1.581.917,2.428.382,4.616.521,9.242.406,13.872-.027,1.064.126,1.992,1.029,2.652.32.234.467.527.501.903.153,1.699.804,3.242,1.5,4.769.577,1.264.821,2.588.677,3.965-.101.973-.333,1.907-1.407,2.306-.26-.168-.479-.143-.645.136Z"/><path class="cls-2" d="m135.262,336.64c-1.494.039-3.079.058-4.633-.449-1.401-.457-1.65-.736-1.454-2.169.335-2.441.711-4.877,1.026-7.32.073-.567.376-.878.832-1.056,2.985-1.162,6-1.524,9.051-.237.53.224.944.55,1.092,1.169.638,2.668,1.232,5.349,1.984,7.985.341,1.195-.182,1.486-1.132,1.623-2.21.319-4.43.514-6.767.454Z"/><path class="cls-7" d="m19.624,141.167c-.424,1.365-.013,3.222-1.814,4.242-.721.408-1.395.507-2.164.241-1.188-.411-2.248-1.064-3.18-1.871-2.321-2.01-4.136-4.428-5.397-7.23-.848-1.884-.408-3.679.663-5.332.444-.685,1.111-.964,1.978-.623,2.764,1.087,5.403,2.351,7.502,4.547,1.572,1.646,2.271,3.61,2.412,6.025Z"/><path class="cls-5" d="m101.604,109.125c-2.102-3.447-3.648-7.173-5.417-10.787-.17-.348-.259-.766-.273-1.155-.271-7.677.166-15.321,1.087-22.942.11.029.219.058.329.087.62,4.587,1.691,9.081,2.766,13.577,1.525,6.378,2.679,12.808,2.259,19.415-.038.594-.148,1.184-.224,1.775-.176.01-.351.019-.527.029Z"/><path class="cls-5" d="m124.469,96.374c.973-10.093-.062-20.145-.67-30.304.924.324,1.506.993,2.184,1.512,2.554,1.957,4.466,4.393,5.681,7.399.298.737.138,1.053-.424,1.45-1.433,1.012-2.845,2.054-4.251,3.103-1.352,1.009-1.36,1.069-.574,2.503.882,1.609,1.694,3.251,2.396,4.948.224.541.303,1.018-.006,1.586-1.39,2.555-2.708,5.148-3.896,7.805-.147,0-.293-.001-.44-.002Z"/><path class="cls-14" d="m11.699,111.453c-.404.105-.49-.08-.492-.364-.005-.641.22-1.162.762-1.538.885-.614,1.742-1.27,2.648-1.85.847-.543,1.108-1.154.611-2.101-1.1-2.097-.932-1.777.706-3.21.595-.521.973-1.014.613-1.849-.266-.619.2-.938.662-1.228.442-.278.9-.456,1.283.022.532.665,1.159.685,1.93.53,1.906-.383,2.164-.258,2.969,1.476.439.945,1.022,1.188,2.01.855,1.282-.432,2.606-.739,3.908-1.111.392-.112.774-.224,1.148.033.218.15.577.197.559.54-.014.278-.329.319-.53.42-6.137,3.072-12.279,6.137-18.419,9.202-.142.071-.288.136-.368.174Z"/><path class="cls-14" d="m101.46,122.65c-.009,2.629-2.174,4.699-4.874,4.66-2.618-.038-4.652-2.283-4.615-5.094.036-2.686,1.998-4.525,4.822-4.519,2.764.006,4.677,2.036,4.667,4.953Zm-4.74-1.805c-.882-.02-1.753.785-1.749,1.616.004.862.806,1.702,1.658,1.735.857.033,1.672-.76,1.69-1.644.02-.966-.654-1.686-1.599-1.707Z"/><path class="cls-5" d="m66.961,333.856c.597.428,1.096.793,1.602,1.147,2.923,2.047,6.256,2.502,9.703,2.438,7.46-.139,14.91-.435,22.305-1.52.394-.058.81-.094,1.167-.253.96-.427,1.197-.171.95.821-.328,1.322-1.144,1.944-3.058,2.148-1.363.146-2.732.065-4.044-.295-2.174-.597-4.323-.495-6.516-.13-4.662.775-9.364,1.057-14.085.839-2.62-.121-5.041-.865-6.941-2.796-.598-.608-1.211-1.261-1.083-2.398Z"/><path class="cls-6" d="m13.878,129.566c-.868-.402-1.725-.832-2.608-1.196-.495-.204-.73-.597-.965-1.011-2.306-4.056-4.6-8.12-6.923-12.166-.362-.631-.454-1.006.354-1.357,1.64-.712,3.238-1.521,4.88-2.303.44,1.139-.006,1.695-.997,2.128-1.555.681-1.662,1.192-.824,2.676,2.489,4.41,4.97,8.825,7.454,13.236-.124-.003-.247-.005-.37-.007Z"/><path class="cls-5" d="m138.563,170.17c-.125,1.309-.245,2.485-.347,3.663-.037.43-.295.594-.666.726-2.1.748-4.2,1.496-6.283,2.286-.649.246-.815.087-.849-.577-.057-1.103-.644-2.434-.209-3.236.45-.83,1.97-.805,3.021-1.154,1.729-.574,3.47-1.113,5.333-1.708Z"/><path class="cls-5" d="m97.486,114.05c-.356-3.323-.713-6.646-1.069-9.969.145-.006.289-.013.434-.019,1.28,2.743,2.686,5.42,4.226,8.027.815,1.38.122,2.802.013,4.199-.022.277-.389.025-.594-.038-.101-.275-.307-.355-.579-.308-.524-.19-1.035-.437-1.574-.553-.471-.101-.704-.321-.75-.777.15-.222.087-.404-.106-.561Z"/><path class="cls-2" d="m141.069,177.925c3.306.727,6.622,1.414,9.914,2.201,1.208.289.263,1.185.297,1.79.03.53-.211.946-.889.75-3.217-.931-6.504-1.576-9.756-2.363-1.181-.286-.205-1.198-.334-1.804-.113-.529.287-.674.767-.575Z"/><path class="cls-5" d="m81.183,172.395c2.273.69,4.402,1.339,6.532,1.98.362.109.496.329.49.703-.017.997-.03,1.996,0,2.993.02.666-.26.601-.718.402-1.901-.828-3.807-1.644-5.719-2.445-.371-.155-.599-.342-.59-.779.017-.911.005-1.823.005-2.854Z"/><path class="cls-5" d="m117.971,109.096c-.42-2.25-.301-4.52-.242-6.787.005-.189.048-.408.152-.558.632-.916,3.206-1.361,4.112-.787.453.288.468.554.243.97-1.287,2.375-2.23,4.93-3.738,7.191-.176-.01-.351-.019-.527-.029Z"/><path class="cls-5" d="m136.621,340.049c-2.487.07-4.672-.042-6.723-.989-.325-.15-.635-.334-.942-.519-.278-.168-.348-.437-.244-.727.163-.459.452-.145.672-.07,3.749,1.285,7.582.676,11.391.481.944-.048,1.91-.123,2.8-.553.236-.114.587-.411.776.108.143.395.045.702-.323.914-.98.565-2.049.918-3.154,1.063-1.5.197-3.006.418-4.252.292Z"/><path class="cls-5" d="m92.735,69.07c-.423,2.993-1.013,5.963-1.171,9.273-1.161-.84-2.17-1.569-3.178-2.301-.3-.218-.185-.471-.071-.741.994-2.362,2.175-4.598,4.202-6.268l.102.062.117-.025Z"/><path class="cls-12" d="m94.136,276.969c.03.836.084,1.672.085,2.508.012,6.312.017,12.625.014,18.937,0,.596-.068,1.191-.104,1.787-.218-.281-.144-.61-.144-.922-.004-7.09-.007-14.18-.004-21.271,0-.35-.09-.722.153-1.039Z"/><path class="cls-12" d="m92.319,299.968c0-7.588,0-15.175,0-22.763.332.331.205.754.205,1.138.01,6.789.013,13.578.006,20.368,0,.423.142.886-.21,1.257Z"/><path class="cls-12" d="m99.489,191.328c-1.025-.164-1.23.32-1.224,1.273.037,5.655.009,11.31.003,16.965-.345-.374-.198-.836-.199-1.258-.013-4.942-.012-9.885-.016-14.827,0-.358.023-.723-.033-1.074-.225-1.43-.033-1.577,1.469-1.079Z"/><path class="cls-5" d="m119.918,92.308c-.061.819-.152,1.637-.174,2.457-.02.714-.335,1.086-1.046,1.123-.074-.077-.149-.155-.223-.232.226-1.311.441-2.624.684-3.932.066-.352-.028-.965.461-.925.509.041.226.645.319.994-.141.166-.139.339-.021.516Z"/><path class="cls-12" d="m121.827,210.764c.005-2.631.009-5.263.014-7.894.439,1.681.147,3.391.177,5.085.016.931.256,1.901-.191,2.808Z"/><path class="cls-12" d="m121.884,198.768c-.019-2.389-.038-4.779-.056-7.168.463.819.205,1.71.198,2.558-.014,1.536.214,3.084-.142,4.61Z"/><path class="cls-12" d="m98.343,218.867c.354,1.765.164,3.548.172,5.324-.434-1.763-.165-3.548-.172-5.324Z"/><path class="cls-1" d="m89.49,232.384c-.035-1.599-.069-3.199-.104-4.798.613.558.229,1.263.232,1.888.005.968.205,1.955-.129,2.91Z"/><path class="cls-12" d="m121.586,224.192c.004-1.429.008-2.859.012-4.288.064-.01.128-.019.193-.027-.083,1.438.25,2.895-.204,4.315Z"/><path class="cls-1" d="m116.052,109.335c-.168-.088-.336-.176-.503-.264.016-.466.033-.931.049-1.397.142.075.285.15.427.225.009.479.018.957.027,1.436Z"/><path class="cls-10" d="m120.061,89.24c-.217.508.327,1.535-.471,1.477-.532-.039.129-.978.06-1.522.137.015.274.03.411.045Z"/><path class="cls-3" d="m98.517,173.597c.054.887.089,1.774-.055,2.658-.244-.891-.292-1.779.055-2.658Z"/><path class="cls-3" d="m121.64,176.254c-.146-.883-.11-1.77-.056-2.658.347.879.3,1.766.056,2.658Z"/><path class="cls-1" d="m111.276,191.909c-.897.26-1.793.265-2.686-.02.896-.1,1.792-.115,2.686.02Z"/><path class="cls-14" d="m120.061,89.24c-.137-.015-.274-.03-.411-.045-.118-.532.284-.917.348-1.4.201.491.212.967.063,1.446Z"/><path class="cls-3" d="m116.025,107.899c-.143-.075-.285-.15-.427-.225.027-.284-.147-.618.249-.864.308.333.16.729.179,1.089Z"/><path class="cls-10" d="m117.971,109.096c.176.01.351.019.527.029-.018.329-.134.6-.447.765-.135-.262-.154-.524-.08-.794Z"/><path class="cls-12" d="m141.758,289.177c-.012-.554-.025-1.107-.037-1.661.364.546.322,1.1.037,1.661Z"/><path class="cls-10" d="m101.604,109.125c.176-.01.351-.019.527-.029.074.271.055.532-.08.794-.313-.166-.429-.436-.447-.765Z"/><path class="cls-10" d="m95.65,178.165c.299-.008.598-.016.898-.024,0,.171-.002.342-.002.514-.384-.009-.722-.101-.884-.501l-.011.011Z"/><path class="cls-12" d="m142.482,320.83c-.012-.554-.025-1.107-.037-1.66.358.546.317,1.1.037,1.66Z"/><path class="cls-3" d="m128.779,227.742c-.564.019-1.128.038-1.693.057.553-.366,1.119-.313,1.693-.057Z"/><path class="cls-13" d="m109.555,207.667c-.085-.005-.171-.01-.256-.016-.159-.197-.217-.527.013-.552.401-.044.233.339.243.568Z"/><path class="cls-3" d="m114.383,191.775c-.477.031-.954.061-1.432.092.451-.437.937-.333,1.432-.092Z"/><path class="cls-1" d="m104.774,191.82c-.34.38-.654-.018-.981-.032.335-.24.664-.273.981.032Z"/><path class="cls-1" d="m101.894,191.602c-.401.346-.674-.031-.989-.174.353-.076.709-.168.989.174Z"/><path class="cls-3" d="m91.731,267.413c-.281-.474-.17-.986-.148-1.49.367.465.219.981.148,1.49Z"/><path class="cls-12" d="m141.999,299.729c-.01-.394-.019-.789-.029-1.183.334.387.312.782.029,1.183Z"/><path class="cls-3" d="m117.981,191.542c-.402.02-.805.039-1.207.059.386-.356.792-.305,1.207-.059Z"/><path class="cls-3" d="m90.292,247.03c-.265-.392-.174-.825-.146-1.251.344.383.221.82.146,1.251Z"/><path class="cls-3" d="m100.403,189.556c.296-.152.534.013.778.144-.323.293-.578.226-.778-.144Z"/><path class="cls-11" d="m96.852,104.062c-.145.006-.289.013-.434.019-.103-.234-.277-.572.068-.635.236-.043.363.33.366.616Z"/><path class="cls-11" d="m97.33,74.328c-.11-.029-.219-.058-.329-.087-.129-.384.053-.735.118-1.099.061.003.122.005.183.004.009.394.019.788.028,1.182Z"/><path class="cls-9" d="m81.792,178.078c-.211.027-.421.054-.632.081-.168-.147-.104-.294.064-.325.217-.04.451-.004.568.244Z"/><path class="cls-3" d="m93.838,273.069c.244.397.163.827.13,1.253-.341-.387-.228-.821-.13-1.253Z"/><path class="cls-1" d="m98.756,166.638c-.009.331-.019.662-.028.993-.243-.338-.251-.67.028-.993Z"/><path class="cls-1" d="m121.374,167.631c-.01-.331-.019-.662-.029-.993.279.323.272.655.029.993Z"/><path class="cls-3" d="m121.149,161.867c-.014-.327-.027-.655-.041-.982.287.316.281.644.041.982Z"/><path class="cls-3" d="m98.993,160.886c-.013.327-.027.655-.04.982-.241-.338-.246-.666.04-.982Z"/><path class="cls-3" d="m120.9,157.07c-.014-.326-.028-.651-.042-.977.301.313.285.64.042.977Z"/><path class="cls-3" d="m99.244,156.093c-.014.326-.028.651-.042.977-.243-.337-.259-.664.042-.977Z"/><path class="cls-12" d="m97.142,72.22c.031-.133.057-.269.103-.397.005-.014.161-.012.184.023.104.16,0,.256-.135.33-.05.015-.1.03-.151.044Z"/><path class="cls-14" d="m97.142,72.22c.051-.014.101-.029.151-.044.003.323.006.647.009.97-.061,0-.122,0-.183-.004.008-.307.015-.615.023-.922Z"/><path class="cls-12" d="m103.849,274.55c-.009-.315-.017-.629-.026-.943.311.306.298.621.026.943Z"/><path class="cls-3" d="m92.11,274.573c-.014-.326-.029-.652-.043-.978.294.314.289.64.043.978Z"/><path class="cls-3" d="m119.665,76.962c-.225-.147-.233-.307-.027-.478.235.147.252.305.027.478Z"/><path class="cls-3" d="m91.955,271.012c-.22-.317-.167-.667-.124-1.016.303.307.228.659.124,1.016Z"/><path class="cls-3" d="m93.595,269.232c.22.316.169.667.126,1.016-.303-.306-.23-.659-.126-1.016Z"/><path class="cls-3" d="m114.115,189.975c.324-.025.647-.05.971-.074-.3.339-.628.305-.971.074Z"/><path class="cls-3" d="m141.262,268.331c-.007-.322-.015-.644-.022-.966.312.315.298.638.022.966Z"/><path class="cls-11" d="m126.796,133.881c.166-.279.385-.304.645-.136-.191.16-.401.227-.645.136Z"/><path class="cls-14" d="m119.918,92.308c-.118-.177-.12-.349.021-.516.219.181.196.352-.021.516Z"/><path class="cls-3" d="m113.651,130.926c.162-.219.321-.217.478.006-.162.222-.321.219-.478-.006Z"/><path class="cls-3" d="m93.444,265.672c.014.326.028.651.042.977-.299-.313-.29-.64-.042-.977Z"/><path class="cls-14" d="m98.531,129.199c-.149.183-.325.237-.539.112.14-.228.301-.357.539-.112Z"/><path class="cls-8" d="m130.821,127.983c.239.126.364.283.147.534-.163-.147-.233-.319-.147-.534Z"/><path class="cls-9" d="m91.318,126.856c-.307-.055-.426-.247-.402-.545.267.084.396.269.402.545Z"/><path class="cls-16" d="m129.362,124.37c.22.153.301.36.237.621-.236-.147-.348-.342-.237-.621Z"/><path class="cls-3" d="m92.869,258.442c.225.315.176.665.132,1.015-.304-.304-.231-.658-.132-1.015Z"/><path class="cls-1" d="m103.844,123.486c.29.266.084.407-.137.543-.116-.222-.087-.407.137-.543Z"/><path class="cls-1" d="m110.157,119.232c-.223-.143-.419-.291-.111-.543.206.147.227.331.111.543Z"/><path class="cls-3" d="m92.627,255.085c.228.314.176.665.134,1.015-.305-.304-.227-.658-.134-1.015Z"/><path class="cls-14" d="m99.917,115.942c.273-.047.478.033.579.308-.28.062-.474-.041-.579-.308Z"/><path class="cls-1" d="m110.076,114.852c-.251-.177-.227-.335.031-.479.198.173.177.332-.031.479Z"/><path class="cls-16" d="m97.486,114.05c.193.157.256.339.106.561-.184-.159-.245-.341-.106-.561Z"/><path class="cls-1" d="m121.79,219.877c-.064.008-.129.017-.193.027-.041-.344-.108-.691.115-1.004.025.326.051.652.077.977Z"/><path class="cls-1" d="m110.302,111.974c-.308-.245-.135-.399.101-.542.116.208.095.391-.101.542Z"/><path class="cls-1" d="m70.262,333.367c-.018.145-.036.29-.054.435-.197-.031-.423-.066-.349-.332.019-.067.262-.07.403-.103Z"/><path class="cls-3" d="m91.916,245.252c.22.316.173.666.127,1.015-.303-.306-.231-.658-.127-1.015Z"/><path class="cls-3" d="m89.73,240.282c-.02-.327-.04-.653-.06-.98.297.31.282.639.06.98Z"/><path class="cls-3" d="m91.745,241.93c.016.248.032.496.047.745-.26-.233-.257-.482-.047-.745Z"/><path class="cls-1" d="m91.826,305.02c-.048-.265-.059-.524.118-.753.12.276.12.533-.118.753Z"/><path class="cls-3" d="m120.666,153.235c-.014-.247-.027-.495-.041-.742.26.234.267.481.041.742Z"/><path class="cls-3" d="m132.425,298.074c-.017-.246-.034-.493-.051-.739.268.229.271.476.051.739Z"/><path class="cls-1" d="m104.264,101.646c.007.247.014.494.021.74-.258-.24-.259-.487-.021-.74Z"/><path class="cls-3" d="m133.906,294.41c.183.236.175.503.124.777-.255-.225-.234-.494-.124-.777Z"/><path class="cls-1" d="m90.026,243.653c-.18-.232-.164-.492-.112-.759.239.223.228.483.112.759Z"/><path class="cls-3" d="m104.313,293.031c-.005-.243-.011-.487-.016-.73.275.237.27.481.016.73Z"/><path class="cls-3" d="m104.273,106.691c-.011.247-.022.495-.033.742-.23-.258-.226-.506.033-.742Z"/><path class="cls-3" d="m99.476,152.493c-.013.247-.027.495-.041.742-.226-.26-.219-.508.041-.742Z"/><path class="cls-3" d="m104.068,283.677c-.006-.242-.011-.484-.017-.726.282.235.275.477.017.726Z"/><path class="cls-3" d="m132.467,279.303c.181.236.177.502.126.776-.256-.224-.238-.493-.126-.776Z"/><path class="cls-3" d="m120.189,146.521c-.015-.247-.029-.495-.044-.742.264.233.264.481.044.742Z"/><path class="cls-3" d="m92.25,248.887c.012.246.025.491.037.737-.268-.233-.275-.478-.037-.737Z"/><path class="cls-3" d="m99.956,145.779c-.014.247-.029.495-.044.742-.22-.261-.22-.509.044-.742Z"/><path class="cls-3" d="m92.525,318.437c.049.273.059.539-.123.775-.114-.283-.135-.551.123-.775Z"/><path class="cls-3" d="m90.629,318.688c.018-.247.036-.494.054-.741.215.264.211.512-.054.741Z"/><path class="cls-1" d="m130.795,263.259c.179.227.167.486.128.75-.243-.216-.244-.473-.128-.75Z"/><path class="cls-3" d="m93.245,310.284c.049.272.059.539-.121.775-.117-.283-.136-.55.121-.775Z"/><path class="cls-1" d="m108.58,194.114c.191-.15.372-.148.542.034-.181-.011-.361-.022-.542-.034Z"/><path class="cls-3" d="m103.588,265.453c-.004-.163-.008-.326-.012-.489.219.158.22.321.012.489Z"/><path class="cls-7" d="m13.878,129.566c.123.002.247.004.37.007-.129.27-.249.112-.37-.007Z"/><path class="cls-1" d="m131.12,265.662c.013.169.026.339.039.508-.206-.154-.22-.323-.039-.508Z"/><path class="cls-3" d="m136.151,317.227c.012.168.023.335.035.503-.206-.154-.223-.322-.035-.503Z"/><path class="cls-3" d="m91.351,310.535c.01-.167.021-.334.031-.501.193.18.178.346-.031.501Z"/><path class="cls-3" d="m142.222,310.297c-.004-.164-.008-.328-.012-.491.216.158.216.322.012.491Z"/><path class="cls-3" d="m141.016,257.059c-.004-.162-.007-.325-.011-.487.22.158.22.32.011.487Z"/><path class="cls-1" d="m133.853,313.192c-.013-.171-.025-.342-.038-.513.204.157.218.328.038.513Z"/><path class="cls-1" d="m116.978,189.817c.149-.143.326-.174.522-.13-.14.178-.316.217-.522.13Z"/><path class="cls-1" d="m100.205,142.902c-.01.169-.021.339-.031.508-.186-.181-.175-.351.031-.508Z"/><path class="cls-1" d="m119.928,143.41c-.01-.169-.021-.339-.031-.508.206.157.217.327.031.508Z"/><path class="cls-3" d="m129.419,250.082c.015.169.031.337.046.506-.205-.151-.224-.319-.046-.506Z"/><path class="cls-3" d="m127.391,248.917c-.015-.169-.03-.337-.045-.506.203.152.223.32.045.506Z"/><path class="cls-8" d="m87.406,72.721c-.047-.155-.095-.31-.142-.466.119-.086.266-.199.345.008.07.184-.059.338-.202.458Z"/><path class="cls-3" d="m129.116,247.887c.037.18.074.361.111.541-.19-.149-.215-.332-.111-.541Z"/><path class="cls-1" d="m90.867,315.812c.031-.171.061-.342.091-.513.123.198.081.367-.091.513Z"/><path class="cls-1" d="m91.589,307.66c.012-.171.023-.343.035-.514.181.184.17.356-.035.514Z"/><path class="cls-1" d="m128.966,245.761c.013.167.026.335.039.502-.208-.152-.221-.32-.039-.502Z"/><path class="cls-3" d="m133.681,292.01c.035.18.069.361.104.541-.189-.151-.213-.333-.104-.541Z"/><path class="cls-1" d="m138.147,227.273c-.17.012-.341.023-.511.035.157-.206.327-.217.511-.035Z"/><path class="cls-11" d="m124.469,96.374c.147,0,.293.001.44.002-.005.163-.063.289-.247.293-.21.004-.217-.139-.192-.295Z"/><path class="cls-1" d="m134.243,297.077c.011.169.023.338.034.507-.207-.156-.217-.325-.034-.507Z"/><path class="cls-3" d="m92.76,315.797c-.01.167-.021.334-.031.501-.193-.18-.176-.347.031-.501Z"/><path class="cls-3" d="m140.54,234.999c-.004-.163-.007-.327-.011-.49.217.159.217.322.011.49Z"/><path class="cls-3" d="m92.072,302.383c.011-.167.022-.335.033-.502.191.181.175.348-.033.502Z"/><path class="cls-1" d="m120.398,191.195c-.148.145-.325.178-.522.134.139-.181.315-.218.522-.134Z"/><path class="cls-1" d="m132.872,302.873c-.006-.088-.011-.177-.017-.265.032.061.071.119.09.183.006.018-.047.054-.073.082Z"/><path class="cls-3" d="m133.269,287.009c.007.091.015.182.022.273-.032-.062-.072-.121-.091-.187-.006-.02.044-.057.068-.086Z"/><path class="cls-1" d="m93.482,307.881c-.007.09-.013.18-.02.27-.023-.065-.053-.129-.063-.196-.003-.021.053-.049.082-.074Z"/><path class="cls-3" d="m129.29,266.422c-.008-.089-.015-.178-.023-.267.033.06.073.118.093.182.006.019-.045.056-.07.084Z"/><path class="cls-3" d="m130.405,259.196c.006.089.013.177.019.266-.032-.06-.072-.119-.092-.183-.006-.018.047-.055.072-.083Z"/><path class="cls-1" d="m129.947,254.883c.005.085.01.17.015.254-.031-.058-.07-.115-.09-.177-.005-.016.048-.051.074-.078Z"/><path class="cls-3" d="m140.777,246.03c-.002-.084-.004-.168-.006-.252.03.059.067.116.085.178.005.016-.051.049-.079.074Z"/><path class="cls-1" d="m128.004,236.886c.008.092.016.185.023.277-.033-.062-.073-.123-.093-.189-.006-.021.045-.058.07-.088Z"/><path class="cls-3" d="m127.057,228.985c.007.085.013.171.02.257-.033-.058-.073-.115-.093-.177-.006-.016.047-.052.074-.079Z"/><path class="cls-1" d="m134.313,317.981c-.006-.089-.012-.178-.017-.266.032.061.071.119.09.184.006.019-.047.055-.073.083Z"/><path class="cls-1" d="m121.75,191.151c-.063-.002-.122-.016-.179-.042.042-.04.083-.08.125-.12.018.054.036.108.055.162Z"/><path class="cls-1" d="m103.559,189.927c.097.032.193.065.29.096-.132.074-.221.019-.29-.096Z"/><path class="cls-1" d="m134.674,319.925c-.056-.088-.112-.176-.168-.264.056.088.112.176.168.264Z"/><path class="cls-1" d="m135.521,320.227c-.102.107-.207.11-.314.007.105-.002.209-.005.314-.007Z"/><path class="cls-3" d="m90.51,320.66c-.025-.107-.049-.213-.074-.32.025.107.049.213.074.32Z"/><path class="cls-10" d="m121.796,139.278c-.076.091-.153.182-.229.273-.068-.212-.016-.324.229-.273Z"/><polygon class="cls-15" points="96.25 103.046 96.23 102.974 96.286 102.98 96.25 103.046"/><path class="cls-1" d="m104.01,98.76c.009.092.019.184.028.276-.034-.062-.075-.121-.096-.187-.006-.021.044-.059.068-.089Z"/><path class="cls-3" d="m103.756,97.088c.01.09.021.18.031.27-.034-.06-.076-.118-.097-.183-.007-.02.043-.058.066-.088Z"/><path class="cls-11" d="m118.474,95.656c.074.077.149.155.223.232-.262.103-.275-.033-.223-.232Z"/><path class="cls-8" d="m133.036,72.569c-.084.095-.169.189-.253.284l-.084-.011-.032-.079c.098-.098.196-.197.294-.295.063.005.089.039.077.102Z"/><path class="cls-8" d="m132.665,72.763c-.16-.355-.042-.433.294-.295-.098.098-.196.197-.294.295Z"/><path class="cls-11" d="m92.735,69.07l-.117.025-.102-.062c.06-.068.12-.136.179-.205.013.081.026.161.04.242Z"/><path class="cls-10" d="m95.661,178.155c-.033-.017-.066-.034-.099-.051.029.021.059.042.088.062,0,0,.011-.011.011-.011Z"/><path class="cls-4" d="m15.5,119.105c-.474.016-.781-.122-.972-.477-.198-.368-.12-.726.157-.985.256-.239.577-.423.897-.575,5.864-2.791,11.733-5.575,17.602-8.357.251-.119.507-.246.776-.306.473-.106.879.031,1.106.49.217.439-.014.784-.327,1.048-.239.202-.535.346-.821.482-5.867,2.786-11.736,5.568-17.606,8.348-.286.136-.587.241-.81.332Z"/><path class="cls-4" d="m47.227,131.219c-.036.432-.399.684-.797.886-5.767,2.93-11.536,5.858-17.308,8.777-.555.281-1.206.498-1.575-.209-.401-.768.176-1.168.782-1.476,5.733-2.908,11.465-5.821,17.206-8.714.95-.478,1.73-.139,1.692.736Z"/><path class="cls-4" d="m18.757,124.145c-.496-.017-.793-.176-.968-.54-.159-.331-.097-.656.141-.887.251-.244.56-.45.878-.601,5.593-2.65,11.191-5.289,16.788-7.93.072-.034.15-.056.221-.092.623-.31,1.306-.487,1.651.279.353.786-.322,1.139-.909,1.419-2.198,1.05-4.403,2.085-6.605,3.125-3.394,1.602-6.789,3.204-10.185,4.802-.359.169-.732.308-1.011.425Z"/><path class="cls-4" d="m43.651,125.505c-.08.772-.69.974-1.213,1.242-5.046,2.581-10.096,5.155-15.145,7.731-.533.272-1.068.541-1.604.808-.547.272-1.128.379-1.478-.23-.401-.697.081-1.129.651-1.424,2.163-1.117,4.337-2.216,6.505-3.323,3.413-1.742,6.824-3.488,10.24-5.225.317-.161.651-.339.995-.388.607-.086.989.208,1.05.809Z"/><path class="cls-4" d="m22.275,129.542c-.392,0-.706-.161-.882-.509-.192-.38-.013-.737.258-.964.33-.276.729-.482,1.121-.669,5.391-2.579,10.786-5.15,16.181-7.721.287-.137.584-.256.878-.377.514-.211.958-.12,1.228.383.286.53.021.956-.422,1.213-.653.379-1.347.687-2.029,1.013-5.034,2.402-10.069,4.801-15.105,7.199-.393.187-.768.433-1.229.433Z"/><path class="cls-4" d="m110.758,41.522c1.449.603,2.981.392,4.484.447,1.764.065,1.847.441,1.675,2.155-.136,1.353-.893,1.557-1.821,1.756-3.75.802-7.503,1.063-11.255-.034-.692-.202-1.356-.341-1.233-1.281.05-.382-.278-.437-.494-.587-.407-.282-.55-.674-.465-1.148.091-.509.483-.758.926-.819,1.419-.197,2.843-.4,4.272-.483.825-.048,1.502.325,1.496,1.32-.006.967-.667,1.527-1.657,1.432-.395-.038-.79-.081-1.184-.122-.465,0-.93,0-1.395,0,0,.051,0,.101,0,.152.458.09.916.18,1.374.27,1.992.483,4.005.436,6.024.244.823.074,1.598-.128,2.61-.411-.404-.034-.56-.058-.716-.058-.791,0-1.581.004-2.372.007-1.108-.797-1.257-1.359-.698-2.632.143-.07.287-.139.43-.209Z"/><path class="cls-4" d="m106.656,25.848c-.164.518-.487.761-1.075.577-1.94-.605-3.864-.371-5.784.124-.43.111-.919.221-1.172-.275-.272-.531.213-.798.527-1.073,1.375-1.208,5.356-1.393,6.845-.326.324.232.648.482.659.973Z"/><path class="cls-4" d="m120.272,26.149c-.13.482-.465.793-.955.62-2.003-.708-3.996-.981-6.051-.201-.415.158-.812-.093-.931-.531-.14-.514.223-.82.626-1.024,1.492-.755,3.084-.7,4.66-.433.689.117,1.346.465,1.998.751.327.144.591.402.652.817Z"/><path class="cls-4" d="m110.287,41.273c-1.03-.015-2.071.094-3.078-.222-1.034-.324-1.501-1.159-1.217-2.116.102-.342.291-.56.659-.578.272-.013.525.132.516.384-.047,1.225.95,1.077,1.65,1.245.664.159,1.333-.062,2-.177.419-.072.646-.123.554-.645-.074-.422.126-.812.647-.794.495.017.622.389.69.819.233,1.466-.134,1.857-1.955,2.045-.155.013-.31.026-.465.039Z"/><path class="cls-4" d="m109.689,49.942c-.87-.073-1.603.02-2.269-.313-.357-.178-.768-.387-.602-.88.15-.443.51-.516.972-.403,1.041.256,2.086.468,3.168.12.393-.126.844-.017.921.493.071.477-.293.75-.692.832-.541.111-1.103.115-1.498.15Z"/><path class="cls-4" d="m102.896,29.457c.765.056,1.296.464,1.321,1.246.024.779-.475,1.325-1.25,1.328-.74.002-1.291-.433-1.317-1.262-.026-.821.411-1.25,1.247-1.312Z"/><path class="cls-4" d="m115.944,31.913c-.733-.014-1.187-.484-1.201-1.182-.015-.761.445-1.287,1.285-1.246.752.037,1.198.496,1.175,1.238-.023.717-.418,1.19-1.258,1.19Z"/><path class="cls-15" d="m111.025,44.363c.791-.003,1.581-.008,2.372-.007.156,0,.312.024.716.058-1.012.283-1.787.484-2.61.411-.159-.154-.319-.308-.478-.462Z"/><path class="cls-15" d="m105.479,44.581c-.458-.09-.916-.18-1.374-.27,0-.051,0-.101,0-.152.465,0,.93,0,1.395,0-.007.141-.014.281-.021.422Z"/><path class="cls-15" d="m110.287,41.273c.155-.013.31-.026.465-.039.002.096.004.192.006.288-.144.07-.287.139-.43.209-.013-.153-.027-.306-.04-.458Z"/><path class="cls-4" d="m96.72,120.845c.945.021,1.619.741,1.599,1.707-.018.885-.833,1.678-1.69,1.644-.851-.033-1.654-.873-1.658-1.735-.004-.831.867-1.636,1.749-1.616Z"/></g></g></g></g></svg>